<?xml version="1.0" encoding="UTF-8" standalone="no"?>
<svg xmlns="http://www.w3.org/2000/svg" version="1.2" baseProfile="tiny" viewBox="0.00 0.00 500.00 500.00"><link xmlns="" type="text/css" rel="stylesheet" id="dark-mode-custom-link"/><link xmlns="" type="text/css" rel="stylesheet" id="dark-mode-general-link"/><style xmlns="" lang="en" type="text/css" id="dark-mode-custom-style"/><style xmlns="" lang="en" type="text/css" id="dark-mode-native-style"/><style xmlns="" lang="en" type="text/css" id="dark-mode-native-sheet"/>
<path fill="#000000" d="   M 142.94 390.27   L 117.51 380.41   Q 116.97 380.20 116.72 379.67   Q 111.75 369.06 107.30 355.48   Q 106.71 353.69 104.50 354.19   C 101.37 354.90 99.42 354.92 96.22 353.87   C 85.04 350.18 73.49 346.83 63.12 341.19   A 1.36 1.33 -88.2 0 1 62.51 340.53   Q 61.06 337.27 60.75 333.69   A 1.70 1.69 85.5 0 0 58.95 332.15   Q 49.04 332.77 39.24 331.31   A 1.09 1.08 77.5 0 1 38.48 330.82   C 34.86 325.34 30.07 317.60 30.59 312.07   Q 30.63 311.65 30.89 311.32   L 32.93 308.77   Q 33.32 308.28 32.79 307.96   Q 18.33 299.14 3.98 290.24   Q 0.72 288.22 0.57 284.24   Q 0.25 276.00 0.22 267.75   C 0.18 255.99 1.43 243.58 2.30 231.50   Q 2.50 228.70 1.90 226.53   A 2.93 2.92 -33.9 0 1 2.41 223.96   C 17.20 205.05 31.62 185.69 48.71 168.71   C 54.69 162.77 57.97 157.65 66.48 155.92   Q 74.36 154.32 82.29 153.07   A 1.31 1.27 13.8 0 0 83.11 152.59   C 85.95 148.89 88.11 144.33 90.60 141.03   Q 93.08 137.75 95.19 135.32   A 7.03 7.02 -67.7 0 1 100.94 132.91   L 121.20 134.18   A 1.27 1.26 1.9 0 0 122.55 132.92   Q 122.49 122.20 124.11 111.60   A 1.66 1.66 0.0 0 1 125.36 110.24   L 149.73 104.37   Q 150.37 104.22 150.37 103.55   C 150.40 99.54 150.14 85.30 152.63 82.64   Q 168.14 66.07 184.14 50.00   Q 184.48 49.65 184.97 49.59   C 211.81 46.29 235.31 43.50 265.38 42.07   Q 265.88 42.05 266.23 42.40   Q 267.63 43.78 268.31 44.94   Q 277.61 60.79 287.11 76.52   C 287.66 77.42 287.56 78.07 287.99 79.01   Q 288.21 79.51 288.75 79.57   Q 298.56 80.67 308.36 81.64   C 310.38 81.84 311.97 82.48 314.28 81.79   Q 314.75 81.65 315.21 81.86   Q 316.82 82.60 318.04 81.55   Q 327.32 73.58 336.79 65.85   Q 337.20 65.51 337.73 65.48   L 368.30 63.49   A 1.54 1.49 -28.0 0 1 369.27 63.77   L 398.75 85.23   Q 399.12 85.50 399.14 85.97   C 399.62 96.68 397.77 109.54 397.26 117.77   Q 397.22 118.32 397.60 118.72   L 414.59 136.89   Q 414.92 137.24 415.41 137.28   Q 431.20 138.58 447.00 139.27   C 449.59 139.38 451.26 141.41 452.29 143.86   Q 456.81 154.63 461.35 165.39   Q 462.66 168.49 463.06 171.99   Q 464.28 182.78 466.28 193.45   Q 466.37 193.94 466.17 194.40   C 463.85 199.59 459.51 206.54 459.02 212.05   A 0.85 0.82 18.1 0 0 459.43 212.83   C 460.62 213.53 462.08 213.43 463.18 213.81   C 470.40 216.32 477.74 218.06 484.84 220.91   A 1.21 1.18 3.4 0 1 485.54 221.68   L 495.05 254.88   Q 495.19 255.34 494.87 255.70   Q 487.33 264.31 481.16 273.92   A 3.28 3.26 -47.1 0 0 481.28 277.62   Q 489.49 288.76 497.32 300.93   Q 498.97 303.51 499.68 305.90   Q 499.82 306.37 499.48 306.74   L 466.81 341.34   Q 465.89 342.32 464.57 341.99   L 424.99 332.08   Q 424.52 331.96 424.12 332.24   Q 422.54 333.33 421.85 335.15   C 412.97 358.72 401.45 380.83 390.25 403.34   C 385.26 413.36 383.18 418.55 373.45 422.28   C 338.58 435.66 303.36 447.84 267.21 457.32   C 264.82 457.94 260.39 457.51 257.99 456.80   C 239.86 451.49 222.32 448.82 205.74 444.31   C 202.50 443.43 196.77 443.09 193.77 441.20   Q 178.45 431.55 160.07 415.16   C 158.83 414.05 157.19 413.25 155.72 412.47   A 1.27 1.19 88.1 0 1 155.22 411.97   L 143.68 390.92   A 1.43 1.43 0.0 0 0 142.94 390.27   Z"/>
<g stroke-width="2.00" fill="none" stroke-linecap="butt">
<path stroke="#69635f" vector-effect="non-scaling-stroke" d="   M 265.49 44.90   Q 262.09 49.10 258.95 53.45   C 254.76 59.25 250.17 64.48 245.90 70.12   C 243.86 72.82 241.66 73.68 238.55 74.38   Q 238.01 74.50 238.28 74.98   Q 240.23 78.44 243.21 76.21   A 0.59 0.59 0.0 0 1 244.11 76.49   Q 244.60 77.90 245.98 78.50   Q 246.48 78.72 246.54 79.26   Q 247.40 87.45 244.56 95.20   Q 244.37 95.70 244.00 96.08   L 241.34 98.76"/>
<path stroke="#393634" vector-effect="non-scaling-stroke" d="   M 241.34 98.76   C 236.64 97.90 229.62 99.98 223.19 101.50   C 222.00 101.79 220.97 101.67 219.94 101.84   C 203.95 104.44 190.41 107.95 177.05 110.07   Q 176.53 110.15 176.37 110.65   C 175.45 113.54 175.43 117.58 175.11 119.65   C 174.41 124.16 174.70 128.34 173.77 132.96   Q 172.69 138.29 173.44 143.77   Q 173.51 144.29 174.00 144.47   L 177.40 145.71"/>
<path stroke="#69635f" vector-effect="non-scaling-stroke" d="   M 177.40 145.71   L 177.82 152.45   Q 177.85 153.00 177.32 153.17   L 173.44 154.36"/>
<path stroke="#69635f" vector-effect="non-scaling-stroke" d="   M 159.52 147.48   Q 158.17 147.18 158.21 145.96   Q 158.22 145.56 157.84 145.41   L 155.83 144.66   A 0.49 0.49 0.0 0 1 155.50 144.21   L 155.40 141.67   A 0.77 0.77 0.0 0 0 154.44 140.96   Q 153.34 141.24 152.87 140.47   A 0.57 0.53 -58.9 0 1 152.79 140.09   L 153.33 137.10   A 0.64 0.64 0.0 0 0 152.54 136.37   L 146.74 137.90   Q 146.16 138.06 145.86 138.57   Q 141.92 145.15 136.03 140.42   Q 135.64 140.11 135.17 140.26   Q 131.18 141.61 129.19 137.40"/>
<path stroke="#7f7b78" vector-effect="non-scaling-stroke" d="   M 129.19 137.40   L 137.28 138.87   A 1.15 1.15 0.0 0 0 138.00 138.75   L 151.27 131.39   A 0.91 0.91 0.0 0 0 151.73 130.60   L 151.68 107.25"/>
<path stroke="#7f7b78" vector-effect="non-scaling-stroke" d="   M 155.70 83.68   L 156.09 83.95   Q 156.41 84.17 156.80 84.18   Q 175.67 84.47 194.53 85.16   C 199.15 85.33 202.80 83.99 207.01 82.53   Q 223.30 76.90 239.40 70.80   Q 241.50 70.00 243.01 68.36   Q 252.80 57.64 262.60 45.32"/>
<path stroke="#716c6a" vector-effect="non-scaling-stroke" d="   M 340.29 67.09   C 342.87 70.22 352.63 83.34 358.08 84.14   Q 371.72 86.12 384.09 89.85"/>
<path stroke="#504b47" vector-effect="non-scaling-stroke" d="   M 384.09 89.85   L 374.68 110.74   A 2.67 2.60 35.6 0 0 375.20 113.64   Q 375.70 114.15 376.86 114.38   C 383.08 115.59 388.87 117.13 395.20 117.79"/>
<path stroke="#504b47" vector-effect="non-scaling-stroke" d="   M 484.73 225.41   Q 484.04 228.79 481.32 228.86   A 0.61 0.59 27.2 0 0 481.06 228.94   L 474.35 233.03   Q 473.91 233.30 473.46 233.04   L 472.86 232.68   Q 472.32 232.36 471.89 232.82   L 468.73 236.24   Q 468.37 236.63 468.05 236.20   L 467.79 235.85   Q 467.49 235.44 467.01 235.61   C 461.40 237.66 461.48 243.65 455.20 243.41   Q 454.66 243.39 454.29 242.99   C 452.19 240.70 449.58 243.49 449.18 245.77   A 0.94 0.94 0.0 0 1 447.78 246.43   Q 444.61 244.57 441.24 244.79"/>
<path stroke="#302d2b" vector-effect="non-scaling-stroke" d="   M 441.24 244.79   Q 435.43 238.30 429.47 231.88   C 427.66 229.94 424.97 229.38 422.68 229.90   Q 401.99 234.61 380.89 237.01   C 377.53 237.39 377.32 240.95 375.99 242.90   Q 373.81 246.12 372.14 248.73"/>
<path stroke="#504b47" vector-effect="non-scaling-stroke" d="   M 372.14 248.73   Q 364.18 247.64 362.28 243.57   Q 362.06 243.11 361.67 242.78   L 360.10 241.51   Q 359.73 241.21 359.26 241.21   L 352.76 241.16   A 0.64 0.64 0.0 0 0 352.14 241.65   L 351.44 244.37   Q 351.28 245.01 350.62 245.05   L 345.93 245.33   Q 345.52 245.35 345.35 245.73   Q 344.90 246.75 343.94 246.84"/>
<path stroke="#302d2b" vector-effect="non-scaling-stroke" d="   M 343.94 246.84   Q 332.99 235.42 322.29 223.75   C 320.38 221.67 317.99 219.88 315.88 217.80   Q 315.55 217.47 315.08 217.40   C 313.68 217.19 312.58 216.98 311.11 217.16   Q 306.87 217.67 295.25 218.52   Q 286.49 219.16 270.01 222.50   C 265.75 223.36 260.06 223.25 257.32 227.28   Q 253.41 233.02 252.56 235.06   Q 250.93 238.93 248.56 242.26"/>
<path stroke="#504b47" vector-effect="non-scaling-stroke" d="   M 248.56 242.26   L 245.42 243.90   Q 245.04 244.10 244.64 243.94   Q 243.59 243.51 242.51 243.88   A 0.42 0.42 0.0 0 0 242.30 244.53   L 243.51 246.13   A 0.83 0.83 0.0 0 1 243.02 247.44   Q 240.24 248.03 239.92 245.41   A 0.71 0.70 81.2 0 0 239.09 244.80   L 235.99 245.40   Q 235.47 245.50 235.03 245.20   L 227.98 240.54   Q 227.59 240.28 227.11 240.29   Q 224.86 240.36 224.05 238.19   Q 223.85 237.65 223.28 237.65   L 219.56 237.60   Q 219.02 237.59 218.57 237.92   Q 216.92 239.12 214.29 238.75"/>
<path stroke="#302d2b" vector-effect="non-scaling-stroke" d="   M 177.40 145.71   Q 205.01 152.65 232.94 156.51   C 234.17 156.68 235.24 156.45 236.41 156.18   Q 236.90 156.07 237.14 155.64   C 240.72 149.35 246.80 143.67 254.49 135.49   Q 260.16 129.45 266.35 119.94   Q 266.62 119.52 266.48 119.04   Q 266.07 117.65 264.99 116.75   Q 260.32 112.90 249.31 104.07   C 246.99 102.22 243.87 100.74 241.34 98.76"/>
<path stroke="#76716e" vector-effect="non-scaling-stroke" d="   M 101.78 149.72   Q 101.51 142.12 98.98 134.99"/>
<path stroke="#76716e" vector-effect="non-scaling-stroke" d="   M 129.19 137.40   Q 126.96 137.31 125.64 136.03"/>
<path stroke="#615e5c" vector-effect="non-scaling-stroke" d="   M 396.52 87.78   L 384.09 89.85"/>
<path stroke="#373432" vector-effect="non-scaling-stroke" d="   M 307.72 398.83   Q 308.24 398.40 307.05 398.02   Q 306.67 397.90 307.03 397.75   C 309.01 396.91 312.33 392.79 313.41 391.18   A 0.56 0.56 0.0 0 1 314.22 391.06   Q 315.42 392.04 315.88 393.62   A 1.68 1.67 -22.0 0 0 318.28 394.63   Q 321.79 392.77 323.76 389.28   Q 324.11 388.67 324.77 388.41   Q 326.68 387.67 327.32 385.82   A 0.77 0.77 0.0 0 0 327.07 384.96   Q 323.82 382.50 321.89 378.93   A 1.67 1.64 -89.5 0 0 321.28 378.30   L 310.17 371.59"/>
<path stroke="#504b47" vector-effect="non-scaling-stroke" d="   M 69.70 341.94   Q 73.27 335.72 80.41 333.57   A 0.83 0.82 -4.0 0 0 80.99 332.91   Q 81.24 331.29 82.66 330.99   Q 83.19 330.88 83.60 330.54   L 86.38 328.26   Q 86.75 327.96 86.90 327.51   L 87.88 324.64"/>
<path stroke="#201e1d" vector-effect="non-scaling-stroke" d="   M 372.14 248.73   Q 366.62 256.37 362.50 263.75   C 360.99 266.46 360.58 269.70 359.83 272.70   A 1.28 1.25 38.4 0 0 359.95 273.64   Q 365.33 283.61 366.29 286.97   Q 369.46 298.10 375.77 307.94   Q 376.04 308.36 376.53 308.43   L 419.46 315.25   A 1.33 1.29 -57.2 0 0 420.37 315.04   C 428.78 309.37 437.78 305.31 446.82 300.80   Q 447.26 300.58 447.76 300.58   Q 450.05 300.53 450.66 298.17   Q 452.91 289.31 454.63 280.33   C 455.43 276.10 456.68 264.90 454.08 261.42   Q 447.80 253.01 441.24 244.79"/>
<path stroke="#201e1d" vector-effect="non-scaling-stroke" d="   M 343.94 246.84   C 346.22 249.43 352.89 256.68 352.80 260.01   Q 352.47 273.05 348.79 294.27   C 348.12 298.11 348.26 305.67 345.00 308.63   Q 339.50 313.61 333.59 317.12   Q 318.40 326.13 306.60 333.70   C 302.77 336.17 299.58 335.57 295.49 334.28   Q 267.23 325.38 245.10 317.01   C 243.32 316.34 242.06 315.21 240.44 314.22   Q 240.03 313.97 239.93 313.50   L 231.63 275.68   Q 231.52 275.18 231.79 274.76   C 233.41 272.16 233.84 269.09 235.14 266.70   Q 241.80 254.48 248.56 242.26"/>
<path stroke="#474240" vector-effect="non-scaling-stroke" d="   M 180.38 193.42   Q 180.38 194.15 180.02 194.65   Q 179.70 195.08 179.17 195.00   Q 178.48 194.89 178.10 195.00"/>
<path stroke="#302d2b" vector-effect="non-scaling-stroke" d="   M 178.10 195.00   Q 165.19 194.52 152.50 194.73   C 149.43 194.79 147.19 193.01 144.92 192.38   C 135.53 189.79 126.05 185.98 117.18 181.97   Q 91.74 170.48 68.27 162.46   Q 66.08 161.71 62.95 161.89   A 0.29 0.29 0.0 0 0 62.86 162.46   L 91.82 173.48"/>
<path stroke="#504b47" vector-effect="non-scaling-stroke" d="   M 91.82 173.48   Q 92.39 174.30 91.27 175.55   Q 89.99 176.96 88.24 176.41   Q 87.75 176.26 87.76 175.75   Q 87.77 174.76 86.98 174.10   A 0.92 0.92 0.0 0 0 85.91 174.03   Q 84.64 174.82 84.32 176.31   A 1.17 1.17 0.0 0 1 82.03 176.26   Q 81.51 173.17 78.34 173.82   Q 77.82 173.93 77.70 174.45   C 77.03 177.47 80.09 181.39 75.57 182.68   Q 74.90 182.87 75.30 183.44   Q 76.07 184.54 75.49 185.70   A 0.62 0.61 -60.1 0 1 74.61 185.94   Q 71.69 184.05 69.61 186.51   A 1.17 1.16 54.9 0 0 69.41 187.67   C 70.58 190.85 67.93 193.19 69.63 195.66   Q 70.72 197.25 70.77 197.68   Q 70.99 199.42 69.03 200.07   Q 68.69 200.19 68.67 200.54   L 68.21 206.24   A 1.04 1.02 22.2 0 0 68.60 207.14   Q 70.97 209.06 71.85 211.91   A 2.29 2.29 0.0 0 0 73.99 213.54   Q 76.04 213.61 75.71 215.72   A 0.27 0.27 0.0 0 0 76.17 215.95   L 76.46 215.67   A 0.24 0.24 0.0 0 1 76.86 215.88   L 76.80 216.25"/>
<path stroke="#6d514a" vector-effect="non-scaling-stroke" d="   M 76.80 216.25   L 77.14 217.44   A 0.54 0.53 -18.8 0 1 76.81 218.09   Q 66.02 222.25 55.66 227.38   C 53.27 228.56 46.33 232.48 44.04 232.49   Q 43.66 232.50 43.46 232.62   Q 43.14 232.81 42.94 233.12   Q 42.68 233.53 42.23 233.73   Q 37.58 235.81 32.95 237.96   C 28.42 240.05 25.58 245.09 22.81 249.31   Q 22.46 249.84 21.77 249.95   Q 21.31 250.03 21.10 250.45   C 17.95 256.94 13.83 264.43 13.53 272.91   C 13.44 275.60 15.30 280.65 17.07 282.67   Q 21.02 287.15 25.15 291.46   Q 25.49 291.81 25.53 292.30   C 25.66 294.00 27.75 294.01 28.08 295.80"/>
<path stroke="#504b47" vector-effect="non-scaling-stroke" d="   M 28.08 295.80   Q 19.46 289.48 12.44 282.06   Q 12.34 281.95 12.45 281.85   L 12.79 281.50   A 0.17 0.17 0.0 0 0 12.64 281.21   Q 9.75 281.75 6.45 279.31   Q 4.56 277.92 3.83 279.77"/>
<path stroke="#171615" vector-effect="non-scaling-stroke" d="   M 178.10 195.00   L 152.46 197.15   A 1.43 1.42 -3.2 0 0 151.15 198.61   Q 151.52 210.19 149.96 222.06   Q 149.44 226.03 149.35 231.49   Q 149.25 237.71 148.15 245.49   C 147.22 252.05 148.03 259.71 146.87 267.05   Q 146.24 271.00 146.76 276.45   Q 146.98 278.83 144.40 279.64"/>
<path stroke="#201e1d" vector-effect="non-scaling-stroke" d="   M 144.40 279.64   C 143.05 275.44 144.73 272.30 144.73 268.48   Q 144.75 253.71 146.82 239.09   C 147.65 233.24 147.57 227.09 148.10 220.57   Q 148.70 213.25 148.44 198.06   Q 148.43 197.59 148.05 197.33   C 144.98 195.19 142.48 193.36 138.82 192.17   C 121.84 186.68 105.31 178.75 91.82 173.48"/>
<path stroke="#373432" vector-effect="non-scaling-stroke" d="   M 144.40 279.64   Q 144.24 279.94 143.23 280.43"/>
<path stroke="#373432" vector-effect="non-scaling-stroke" d="   M 105.01 316.03   Q 103.42 315.76 102.47 316.15"/>
<path stroke="#5d423c" vector-effect="non-scaling-stroke" d="   M 28.08 295.80   Q 34.91 302.45 40.92 304.86   C 48.43 307.87 55.54 306.14 63.14 306.61   C 70.94 307.09 78.71 307.34 86.52 307.70   C 93.33 308.02 97.42 304.63 102.55 300.91   C 104.59 299.43 106.11 296.82 108.33 295.69   Q 109.31 295.20 110.00 294.53   Q 116.23 288.56 122.79 282.96   C 123.41 282.44 123.78 281.42 124.81 281.20   Q 125.26 281.10 125.59 280.80   Q 133.89 273.40 135.45 270.74   C 140.26 262.52 139.98 254.35 136.81 245.76   C 133.05 235.56 130.53 225.52 125.67 215.67   Q 125.56 215.43 125.37 215.27   Q 125.17 215.11 124.97 214.96   A 1.88 1.86 -85.0 0 1 124.35 214.21   C 122.51 210.04 119.70 205.92 114.98 204.76   Q 111.37 203.87 109.25 204.24   C 101.51 205.56 93.12 209.79 84.04 212.29   Q 79.96 213.42 76.80 216.25"/>
<path stroke="#373432" vector-effect="non-scaling-stroke" d="   M 182.63 196.87   Q 180.03 194.79 181.01 193.64"/>
<path stroke="#292726" vector-effect="non-scaling-stroke" d="   M 225.56 389.98   C 225.17 393.26 221.87 393.14 219.56 394.87"/>
<path stroke="#292726" vector-effect="non-scaling-stroke" d="   M 363.60 390.71   L 367.52 396.69   Q 367.79 397.11 367.75 397.61   Q 367.46 401.33 370.48 401.34"/>
<path stroke="#292726" vector-effect="non-scaling-stroke" d="   M 257.45 444.26   C 257.87 447.65 259.61 450.32 258.50 454.31"/>
<path stroke="#373432" vector-effect="non-scaling-stroke" d="   M 321.72 438.20   L 319.28 431.53   Q 319.10 431.06 318.68 430.80   L 316.48 429.46   A 0.75 0.74 -68.7 0 1 316.14 428.67   Q 317.08 424.31 313.04 423.26   Q 312.52 423.12 312.52 422.59   L 312.50 421.01"/>
</g>
<path fill="#726c68" d="   M 265.49 44.90   Q 262.09 49.10 258.95 53.45   C 254.76 59.25 250.17 64.48 245.90 70.12   C 243.86 72.82 241.66 73.68 238.55 74.38   Q 238.01 74.50 238.28 74.98   Q 240.23 78.44 243.21 76.21   A 0.59 0.59 0.0 0 1 244.11 76.49   Q 244.60 77.90 245.98 78.50   Q 246.48 78.72 246.54 79.26   Q 247.40 87.45 244.56 95.20   Q 244.37 95.70 244.00 96.08   L 241.34 98.76   C 236.64 97.90 229.62 99.98 223.19 101.50   C 222.00 101.79 220.97 101.67 219.94 101.84   C 203.95 104.44 190.41 107.95 177.05 110.07   Q 176.53 110.15 176.37 110.65   C 175.45 113.54 175.43 117.58 175.11 119.65   C 174.41 124.16 174.70 128.34 173.77 132.96   Q 172.69 138.29 173.44 143.77   Q 173.51 144.29 174.00 144.47   L 177.40 145.71   L 177.82 152.45   Q 177.85 153.00 177.32 153.17   L 173.44 154.36   L 167.50 148.21   Q 167.15 147.84 166.64 147.82   L 159.52 147.48   Q 158.17 147.18 158.21 145.96   Q 158.22 145.56 157.84 145.41   L 155.83 144.66   A 0.49 0.49 0.0 0 1 155.50 144.21   L 155.40 141.67   A 0.77 0.77 0.0 0 0 154.44 140.96   Q 153.34 141.24 152.87 140.47   A 0.57 0.53 -58.9 0 1 152.79 140.09   L 153.33 137.10   A 0.64 0.64 0.0 0 0 152.54 136.37   L 146.74 137.90   Q 146.16 138.06 145.86 138.57   Q 141.92 145.15 136.03 140.42   Q 135.64 140.11 135.17 140.26   Q 131.18 141.61 129.19 137.40   L 137.28 138.87   A 1.15 1.15 0.0 0 0 138.00 138.75   L 151.27 131.39   A 0.91 0.91 0.0 0 0 151.73 130.60   L 151.68 107.25   Q 152.44 106.63 153.10 105.34   Q 153.59 104.38 153.54 103.08   C 153.37 98.94 152.66 86.53 155.70 83.68   L 156.09 83.95   Q 156.41 84.17 156.80 84.18   Q 175.67 84.47 194.53 85.16   C 199.15 85.33 202.80 83.99 207.01 82.53   Q 223.30 76.90 239.40 70.80   Q 241.50 70.00 243.01 68.36   Q 252.80 57.64 262.60 45.32   L 265.49 44.90   Z"/>
<path fill="#605955" d="   M 265.49 44.90   Q 274.19 61.03 283.63 76.48   C 285.11 78.91 284.85 82.69 289.57 81.56   Q 290.03 81.45 290.49 81.59   Q 291.76 81.97 294.31 82.14   Q 299.52 82.47 318.71 84.53   A 1.19 1.17 26.8 0 0 319.60 84.25   Q 329.02 76.04 338.38 67.90   Q 339.34 67.06 340.29 67.09   C 342.87 70.22 352.63 83.34 358.08 84.14   Q 371.72 86.12 384.09 89.85   L 374.68 110.74   A 2.67 2.60 35.6 0 0 375.20 113.64   Q 375.70 114.15 376.86 114.38   C 383.08 115.59 388.87 117.13 395.20 117.79   L 395.23 119.57   A 1.08 1.06 -68.6 0 0 395.54 120.30   Q 405.15 129.54 413.67 139.79   Q 414.02 140.21 414.57 140.23   L 447.69 141.54   Q 448.31 141.57 448.54 142.14   C 452.44 151.70 455.98 161.44 460.67 170.62   Q 460.90 171.07 460.82 171.57   Q 460.53 173.45 460.84 175.24   C 461.78 180.74 462.18 186.24 462.88 191.77   Q 463.18 194.18 462.37 196.12   C 459.96 201.95 457.42 207.02 455.86 213.71   Q 455.75 214.20 456.24 214.34   Q 462.19 215.97 467.94 218.00   Q 469.80 218.66 475.14 219.96   Q 481.53 221.52 484.73 225.41   Q 484.04 228.79 481.32 228.86   A 0.61 0.59 27.2 0 0 481.06 228.94   L 474.35 233.03   Q 473.91 233.30 473.46 233.04   L 472.86 232.68   Q 472.32 232.36 471.89 232.82   L 468.73 236.24   Q 468.37 236.63 468.05 236.20   L 467.79 235.85   Q 467.49 235.44 467.01 235.61   C 461.40 237.66 461.48 243.65 455.20 243.41   Q 454.66 243.39 454.29 242.99   C 452.19 240.70 449.58 243.49 449.18 245.77   A 0.94 0.94 0.0 0 1 447.78 246.43   Q 444.61 244.57 441.24 244.79   Q 435.43 238.30 429.47 231.88   C 427.66 229.94 424.97 229.38 422.68 229.90   Q 401.99 234.61 380.89 237.01   C 377.53 237.39 377.32 240.95 375.99 242.90   Q 373.81 246.12 372.14 248.73   Q 364.18 247.64 362.28 243.57   Q 362.06 243.11 361.67 242.78   L 360.10 241.51   Q 359.73 241.21 359.26 241.21   L 352.76 241.16   A 0.64 0.64 0.0 0 0 352.14 241.65   L 351.44 244.37   Q 351.28 245.01 350.62 245.05   L 345.93 245.33   Q 345.52 245.35 345.35 245.73   Q 344.90 246.75 343.94 246.84   Q 332.99 235.42 322.29 223.75   C 320.38 221.67 317.99 219.88 315.88 217.80   Q 315.55 217.47 315.08 217.40   C 313.68 217.19 312.58 216.98 311.11 217.16   Q 306.87 217.67 295.25 218.52   Q 286.49 219.16 270.01 222.50   C 265.75 223.36 260.06 223.25 257.32 227.28   Q 253.41 233.02 252.56 235.06   Q 250.93 238.93 248.56 242.26   L 245.42 243.90   Q 245.04 244.10 244.64 243.94   Q 243.59 243.51 242.51 243.88   A 0.42 0.42 0.0 0 0 242.30 244.53   L 243.51 246.13   A 0.83 0.83 0.0 0 1 243.02 247.44   Q 240.24 248.03 239.92 245.41   A 0.71 0.70 81.2 0 0 239.09 244.80   L 235.99 245.40   Q 235.47 245.50 235.03 245.20   L 227.98 240.54   Q 227.59 240.28 227.11 240.29   Q 224.86 240.36 224.05 238.19   Q 223.85 237.65 223.28 237.65   L 219.56 237.60   Q 219.02 237.59 218.57 237.92   Q 216.92 239.12 214.29 238.75   L 204.47 211.06   Q 204.26 210.48 204.84 210.70   L 224.96 218.48   A 0.83 0.81 -47.6 0 0 225.65 218.44   Q 236.36 212.79 246.32 206.23   C 249.31 204.26 251.63 198.64 253.86 195.66   A 2.90 2.90 0.0 0 0 253.08 191.47   L 223.73 173.07   A 2.99 2.97 -44.6 0 0 220.59 173.06   L 197.00 187.45   Q 196.44 187.80 196.24 187.17   C 194.87 182.73 193.45 178.89 190.27 175.38   Q 189.94 175.01 189.46 174.83   L 176.58 170.00   Q 175.25 169.50 176.25 168.49   L 181.27 163.36   A 0.68 0.67 -45.3 0 0 181.27 162.41   L 173.44 154.36   L 177.32 153.17   Q 177.85 153.00 177.82 152.45   L 177.40 145.71   Q 205.01 152.65 232.94 156.51   C 234.17 156.68 235.24 156.45 236.41 156.18   Q 236.90 156.07 237.14 155.64   C 240.72 149.35 246.80 143.67 254.49 135.49   Q 260.16 129.45 266.35 119.94   Q 266.62 119.52 266.48 119.04   Q 266.07 117.65 264.99 116.75   Q 260.32 112.90 249.31 104.07   C 246.99 102.22 243.87 100.74 241.34 98.76   L 244.00 96.08   Q 244.37 95.70 244.56 95.20   Q 247.40 87.45 246.54 79.26   Q 246.48 78.72 245.98 78.50   Q 244.60 77.90 244.11 76.49   A 0.59 0.59 0.0 0 0 243.21 76.21   Q 240.23 78.44 238.28 74.98   Q 238.01 74.50 238.55 74.38   C 241.66 73.68 243.86 72.82 245.90 70.12   C 250.17 64.48 254.76 59.25 258.95 53.45   Q 262.09 49.10 265.49 44.90   Z"/>
<path fill="#8c8987" d="   M 262.60 45.32   Q 252.80 57.64 243.01 68.36   Q 241.50 70.00 239.40 70.80   Q 223.30 76.90 207.01 82.53   C 202.80 83.99 199.15 85.33 194.53 85.16   Q 175.67 84.47 156.80 84.18   Q 156.41 84.17 156.09 83.95   L 155.70 83.68   C 157.14 82.10 158.25 79.97 159.59 78.58   Q 171.17 66.56 182.99 54.79   C 187.25 50.55 192.71 51.74 197.96 50.96   Q 228.89 46.36 262.60 45.32   Z"/>
<path fill="#827f7e" d="   M 396.52 87.78   L 384.09 89.85   Q 371.72 86.12 358.08 84.14   C 352.63 83.34 342.87 70.22 340.29 67.09   L 367.45 66.22   Q 367.95 66.21 368.37 66.48   C 372.13 69.00 376.11 71.17 379.65 73.87   Q 387.39 79.77 395.29 85.45   Q 397.28 86.87 396.52 87.78   Z"/>
<path fill="#605955" d="   M 230.28 78.37   L 229.57 80.31   A 0.65 0.64 25.1 0 1 228.64 80.64   L 226.42 79.34   Q 225.56 78.84 226.49 78.48   L 229.31 77.41   A 0.75 0.75 0.0 0 1 230.28 78.37   Z"/>
<path fill="#3f3c39" d="   M 396.52 87.78   C 396.72 97.37 394.97 106.94 395.20 117.79   C 388.87 117.13 383.08 115.59 376.86 114.38   Q 375.70 114.15 375.20 113.64   A 2.67 2.60 35.6 0 1 374.68 110.74   L 384.09 89.85   L 396.52 87.78   Z"/>
<path fill="#000000" d="   M 241.34 98.76   C 243.87 100.74 246.99 102.22 249.31 104.07   Q 260.32 112.90 264.99 116.75   Q 266.07 117.65 266.48 119.04   Q 266.62 119.52 266.35 119.94   Q 260.16 129.45 254.49 135.49   C 246.80 143.67 240.72 149.35 237.14 155.64   Q 236.90 156.07 236.41 156.18   C 235.24 156.45 234.17 156.68 232.94 156.51   Q 205.01 152.65 177.40 145.71   L 174.00 144.47   Q 173.51 144.29 173.44 143.77   Q 172.69 138.29 173.77 132.96   C 174.70 128.34 174.41 124.16 175.11 119.65   C 175.43 117.58 175.45 113.54 176.37 110.65   Q 176.53 110.15 177.05 110.07   C 190.41 107.95 203.95 104.44 219.94 101.84   C 220.97 101.67 222.00 101.79 223.19 101.50   C 229.62 99.98 236.64 97.90 241.34 98.76   Z"/>
<path fill="#000000" d="   M 294.80 110.62   C 296.68 107.82 301.41 107.27 304.04 105.67   C 309.65 102.27 317.53 99.80 321.76 98.51   Q 322.95 98.15 324.20 99.12   Q 324.60 99.42 325.09 99.51   C 332.93 100.95 349.94 103.94 355.67 109.26   Q 356.11 109.67 356.24 110.26   L 360.59 130.43   Q 360.72 131.03 360.26 131.45   L 348.65 142.16   Q 348.22 142.56 347.64 142.55   C 342.91 142.50 337.84 140.76 334.06 140.00   C 330.30 139.24 326.46 137.84 323.00 137.13   Q 310.22 134.49 296.93 131.36   A 3.00 2.99 6.0 0 1 294.61 128.51   L 294.24 112.53   Q 294.21 111.49 294.80 110.62   Z"/>
<path fill="#8c8987" d="   M 263.45 119.92   C 256.49 129.02 249.33 137.45 242.43 146.24   Q 239.11 150.47 234.98 154.01   Q 234.61 154.34 234.12 154.25   Q 221.08 152.04 208.06 149.98   Q 202.20 149.05 179.50 143.51   C 174.48 142.28 176.02 139.05 175.59 135.21   Q 175.40 133.47 175.70 131.94   Q 177.60 122.40 178.54 112.72   Q 178.59 112.24 179.06 112.18   C 193.13 110.23 204.97 106.56 220.90 104.71   C 226.53 104.05 231.61 102.62 236.99 101.22   C 238.67 100.78 240.85 101.46 242.43 102.57   Q 253.46 110.35 263.33 118.80   A 0.83 0.81 39.2 0 1 263.45 119.92   Z"/>
<path fill="#8c8987" d="   M 296.34 112.32   A 0.58 0.58 0.0 0 1 296.70 111.78   C 304.66 108.37 312.66 104.41 320.99 101.82   C 322.51 101.35 323.57 101.70 325.04 102.04   Q 336.73 104.70 348.23 108.07   C 349.44 108.42 353.96 109.86 354.06 112.15   C 354.24 116.62 356.34 121.09 356.57 124.47   Q 356.78 127.60 358.13 129.62   Q 358.38 129.98 358.05 130.27   L 347.29 139.88   A 1.03 1.01 30.2 0 1 346.38 140.11   L 296.95 128.71   Q 296.49 128.60 296.49 128.14   L 296.34 112.32   Z"/>
<path fill="#8c8987" d="   M 151.68 107.25   L 151.73 130.60   A 0.91 0.91 0.0 0 1 151.27 131.39   L 138.00 138.75   A 1.15 1.15 0.0 0 1 137.28 138.87   L 129.19 137.40   Q 126.96 137.31 125.64 136.03   Q 125.14 124.65 126.62 113.42   Q 126.68 112.92 127.17 112.81   L 151.68 107.25   Z"/>
<path fill="#605955" d="   M 125.64 136.03   Q 126.96 137.31 129.19 137.40   Q 131.18 141.61 135.17 140.26   Q 135.64 140.11 136.03 140.42   Q 141.92 145.15 145.86 138.57   Q 146.16 138.06 146.74 137.90   L 152.54 136.37   A 0.64 0.64 0.0 0 1 153.33 137.10   L 152.79 140.09   A 0.57 0.53 -58.9 0 0 152.87 140.47   Q 153.34 141.24 154.44 140.96   A 0.77 0.77 0.0 0 1 155.40 141.67   L 155.50 144.21   A 0.49 0.49 0.0 0 0 155.83 144.66   L 157.84 145.41   Q 158.22 145.56 158.21 145.96   Q 158.17 147.18 159.52 147.48   C 148.46 146.85 137.72 147.94 126.81 148.38   C 123.47 148.52 120.76 146.68 117.67 147.11   Q 109.92 148.18 101.78 149.72   Q 101.51 142.12 98.98 134.99   Q 112.86 136.68 124.25 137.00   Q 125.25 137.03 125.64 136.03   Z"/>
<path fill="#8c8987" d="   M 98.98 134.99   Q 101.51 142.12 101.78 149.72   L 88.15 151.82   A 0.38 0.38 0.0 0 1 87.78 151.23   L 98.98 134.99   Z"/>
<path fill="#000000" d="   M 288.86 169.86   Q 287.24 171.78 285.32 173.50   Q 284.97 173.82 284.49 173.79   Q 272.79 172.89 261.24 170.84   Q 259.24 170.48 258.24 168.79   Q 251.62 157.58 249.77 152.22   Q 249.06 150.14 250.81 147.07   A 1.23 1.21 -84.4 0 1 251.48 146.51   C 265.13 141.83 279.22 140.02 292.31 136.80   A 0.99 0.99 0.0 0 1 293.30 137.11   L 304.60 150.03   A 0.93 0.91 39.0 0 1 304.72 151.08   Q 303.62 153.12 300.88 156.13   Q 294.73 162.88 288.86 169.86   Z"/>
<path fill="#8c8987" d="   M 283.92 171.23   A 0.12 0.09 -54.2 0 1 283.86 171.25   Q 275.21 170.24 266.49 169.32   Q 263.47 169.00 261.54 168.43   Q 261.08 168.29 260.84 167.88   Q 256.00 159.74 252.23 151.07   Q 251.32 148.99 253.53 148.44   Q 258.83 147.14 264.81 145.54   C 273.35 143.26 282.73 142.30 291.63 139.73   Q 292.12 139.59 292.44 139.98   L 301.38 150.53   A 1.09 1.09 0.0 0 1 301.33 152.00   Q 293.26 160.24 283.92 171.23   Z"/>
<path fill="#8c8987" d="   M 128.93 150.60   C 141.16 149.57 154.14 149.66 166.42 150.39   Q 166.90 150.42 167.23 150.78   L 177.94 162.62   Q 178.24 162.94 177.91 163.23   L 172.60 167.97   Q 172.25 168.29 171.81 168.12   Q 150.06 160.09 128.92 150.64   Q 128.86 150.61 128.93 150.60   Z"/>
<path fill="#605955" d="   M 180.38 193.42   Q 180.38 194.15 180.02 194.65   Q 179.70 195.08 179.17 195.00   Q 178.48 194.89 178.10 195.00   Q 165.19 194.52 152.50 194.73   C 149.43 194.79 147.19 193.01 144.92 192.38   C 135.53 189.79 126.05 185.98 117.18 181.97   Q 91.74 170.48 68.27 162.46   Q 66.08 161.71 62.95 161.89   A 0.29 0.29 0.0 0 0 62.86 162.46   L 91.82 173.48   Q 92.39 174.30 91.27 175.55   Q 89.99 176.96 88.24 176.41   Q 87.75 176.26 87.76 175.75   Q 87.77 174.76 86.98 174.10   A 0.92 0.92 0.0 0 0 85.91 174.03   Q 84.64 174.82 84.32 176.31   A 1.17 1.17 0.0 0 1 82.03 176.26   Q 81.51 173.17 78.34 173.82   Q 77.82 173.93 77.70 174.45   C 77.03 177.47 80.09 181.39 75.57 182.68   Q 74.90 182.87 75.30 183.44   Q 76.07 184.54 75.49 185.70   A 0.62 0.61 -60.1 0 1 74.61 185.94   Q 71.69 184.05 69.61 186.51   A 1.17 1.16 54.9 0 0 69.41 187.67   C 70.58 190.85 67.93 193.19 69.63 195.66   Q 70.72 197.25 70.77 197.68   Q 70.99 199.42 69.03 200.07   Q 68.69 200.19 68.67 200.54   L 68.21 206.24   A 1.04 1.02 22.2 0 0 68.60 207.14   Q 70.97 209.06 71.85 211.91   A 2.29 2.29 0.0 0 0 73.99 213.54   Q 76.04 213.61 75.71 215.72   A 0.27 0.27 0.0 0 0 76.17 215.95   L 76.46 215.67   A 0.24 0.24 0.0 0 1 76.86 215.88   L 76.80 216.25   L 77.14 217.44   A 0.54 0.53 -18.8 0 1 76.81 218.09   Q 66.02 222.25 55.66 227.38   C 53.27 228.56 46.33 232.48 44.04 232.49   Q 43.66 232.50 43.46 232.62   Q 43.14 232.81 42.94 233.12   Q 42.68 233.53 42.23 233.73   Q 37.58 235.81 32.95 237.96   C 28.42 240.05 25.58 245.09 22.81 249.31   Q 22.46 249.84 21.77 249.95   Q 21.31 250.03 21.10 250.45   C 17.95 256.94 13.83 264.43 13.53 272.91   C 13.44 275.60 15.30 280.65 17.07 282.67   Q 21.02 287.15 25.15 291.46   Q 25.49 291.81 25.53 292.30   C 25.66 294.00 27.75 294.01 28.08 295.80   Q 19.46 289.48 12.44 282.06   Q 12.34 281.95 12.45 281.85   L 12.79 281.50   A 0.17 0.17 0.0 0 0 12.64 281.21   Q 9.75 281.75 6.45 279.31   Q 4.56 277.92 3.83 279.77   C 3.61 272.04 3.31 264.71 3.86 256.75   Q 4.89 241.56 4.76 226.31   A 1.58 1.57 -27.5 0 1 5.05 225.40   Q 8.45 220.65 9.98 218.74   C 22.02 203.70 38.69 181.79 56.84 165.26   C 59.24 163.07 59.63 159.90 63.57 159.08   C 71.60 157.41 85.75 154.71 99.73 152.74   C 105.61 151.91 115.77 148.78 121.33 150.89   C 148.62 161.27 165.74 167.84 187.33 177.70   A 0.79 0.79 0.0 0 1 187.64 178.88   Q 182.82 185.52 180.38 193.42   Z"/>
<path fill="#000000" d="   M 350.53 172.74   C 349.38 169.89 352.01 166.64 354.71 165.89   C 362.32 163.80 369.93 161.28 377.54 159.76   Q 390.36 157.19 403.18 154.65   Q 404.35 154.42 405.54 154.50   Q 406.09 154.54 406.60 154.33   Q 413.00 151.68 417.79 157.70   Q 426.74 168.92 435.83 179.99   C 438.43 183.15 438.80 186.48 436.45 189.69   Q 427.43 202.00 421.40 211.96   Q 421.12 212.42 420.58 212.41   C 418.60 212.38 417.12 212.72 415.17 212.04   Q 411.27 210.69 407.23 209.85   Q 387.37 205.73 367.66 200.93   C 364.41 200.14 361.01 200.66 359.61 196.71   Q 355.31 184.63 350.53 172.74   Z"/>
<path fill="#827f7e" d="   M 353.14 169.46   A 0.43 0.42 80.0 0 1 353.43 169.04   C 367.26 164.38 381.31 161.66 395.62 158.60   Q 403.71 156.87 412.04 155.71   Q 412.92 155.59 413.52 156.24   C 421.27 164.61 428.00 174.40 435.22 183.29   C 436.46 184.82 435.56 186.71 434.41 188.23   Q 426.75 198.38 420.01 209.16   Q 419.74 209.59 419.22 209.62   C 415.75 209.80 412.18 208.42 408.78 207.79   C 401.76 206.50 395.57 204.83 387.25 203.27   Q 381.37 202.17 363.03 197.07   Q 362.57 196.94 362.41 196.49   Q 358.03 184.36 353.70 172.28   Q 353.20 170.91 353.14 169.46   Z"/>
<path fill="#000000" d="   M 178.10 195.00   L 152.46 197.15   A 1.43 1.42 -3.2 0 0 151.15 198.61   Q 151.52 210.19 149.96 222.06   Q 149.44 226.03 149.35 231.49   Q 149.25 237.71 148.15 245.49   C 147.22 252.05 148.03 259.71 146.87 267.05   Q 146.24 271.00 146.76 276.45   Q 146.98 278.83 144.40 279.64   C 143.05 275.44 144.73 272.30 144.73 268.48   Q 144.75 253.71 146.82 239.09   C 147.65 233.24 147.57 227.09 148.10 220.57   Q 148.70 213.25 148.44 198.06   Q 148.43 197.59 148.05 197.33   C 144.98 195.19 142.48 193.36 138.82 192.17   C 121.84 186.68 105.31 178.75 91.82 173.48   L 62.86 162.46   A 0.29 0.29 0.0 0 1 62.95 161.89   Q 66.08 161.71 68.27 162.46   Q 91.74 170.48 117.18 181.97   C 126.05 185.98 135.53 189.79 144.92 192.38   C 147.19 193.01 149.43 194.79 152.50 194.73   Q 165.19 194.52 178.10 195.00   Z"/>
<path fill="#3f3c39" d="   M 91.82 173.48   C 105.31 178.75 121.84 186.68 138.82 192.17   C 142.48 193.36 144.98 195.19 148.05 197.33   Q 148.43 197.59 148.44 198.06   Q 148.70 213.25 148.10 220.57   C 147.57 227.09 147.65 233.24 146.82 239.09   Q 144.75 253.71 144.73 268.48   C 144.73 272.30 143.05 275.44 144.40 279.64   Q 144.24 279.94 143.23 280.43   C 142.70 280.52 142.15 280.68 141.76 281.09   C 128.56 294.92 119.54 302.49 109.14 313.76   Q 108.82 314.11 108.41 314.32   L 105.01 316.03   Q 103.42 315.76 102.47 316.15   Q 87.12 316.46 72.15 317.20   C 67.27 317.45 57.17 318.21 53.67 316.35   Q 28.53 302.94 4.69 287.36   Q 4.27 287.09 4.24 286.59   L 3.83 279.77   Q 4.56 277.92 6.45 279.31   Q 9.75 281.75 12.64 281.21   A 0.17 0.17 0.0 0 1 12.79 281.50   L 12.45 281.85   Q 12.34 281.95 12.44 282.06   Q 19.46 289.48 28.08 295.80   Q 34.91 302.45 40.92 304.86   C 48.43 307.87 55.54 306.14 63.14 306.61   C 70.94 307.09 78.71 307.34 86.52 307.70   C 93.33 308.02 97.42 304.63 102.55 300.91   C 104.59 299.43 106.11 296.82 108.33 295.69   Q 109.31 295.20 110.00 294.53   Q 116.23 288.56 122.79 282.96   C 123.41 282.44 123.78 281.42 124.81 281.20   Q 125.26 281.10 125.59 280.80   Q 133.89 273.40 135.45 270.74   C 140.26 262.52 139.98 254.35 136.81 245.76   C 133.05 235.56 130.53 225.52 125.67 215.67   Q 125.56 215.43 125.37 215.27   Q 125.17 215.11 124.97 214.96   A 1.88 1.86 -85.0 0 1 124.35 214.21   C 122.51 210.04 119.70 205.92 114.98 204.76   Q 111.37 203.87 109.25 204.24   C 101.51 205.56 93.12 209.79 84.04 212.29   Q 79.96 213.42 76.80 216.25   L 76.86 215.88   A 0.24 0.24 0.0 0 0 76.46 215.67   L 76.17 215.95   A 0.27 0.27 0.0 0 1 75.71 215.72   Q 76.04 213.61 73.99 213.54   A 2.29 2.29 0.0 0 1 71.85 211.91   Q 70.97 209.06 68.60 207.14   A 1.04 1.02 22.2 0 1 68.21 206.24   L 68.67 200.54   Q 68.69 200.19 69.03 200.07   Q 70.99 199.42 70.77 197.68   Q 70.72 197.25 69.63 195.66   C 67.93 193.19 70.58 190.85 69.41 187.67   A 1.17 1.16 54.9 0 1 69.61 186.51   Q 71.69 184.05 74.61 185.94   A 0.62 0.61 -60.1 0 0 75.49 185.70   Q 76.07 184.54 75.30 183.44   Q 74.90 182.87 75.57 182.68   C 80.09 181.39 77.03 177.47 77.70 174.45   Q 77.82 173.93 78.34 173.82   Q 81.51 173.17 82.03 176.26   A 1.17 1.17 0.0 0 0 84.32 176.31   Q 84.64 174.82 85.91 174.03   A 0.92 0.92 0.0 0 1 86.98 174.10   Q 87.77 174.76 87.76 175.75   Q 87.75 176.26 88.24 176.41   Q 89.99 176.96 91.27 175.55   Q 92.39 174.30 91.82 173.48   Z"/>
<path fill="#8c8987" d="   M 251.63 193.60   A 0.82 0.82 0.0 0 1 251.93 194.65   L 248.52 201.56   Q 248.28 202.03 247.82 202.31   L 226.02 215.34   A 1.95 1.95 0.0 0 1 224.21 215.43   Q 214.52 210.95 204.20 208.20   A 1.15 1.12 -1.3 0 1 203.41 207.46   L 197.70 190.69   Q 197.54 190.22 197.97 189.96   L 221.67 175.62   A 1.45 1.45 0.0 0 1 223.20 175.63   L 251.63 193.60   Z"/>
<path fill="#3f3c39" d="   M 182.63 196.87   Q 180.03 194.79 181.01 193.64   L 189.35 179.96   A 0.42 0.42 0.0 0 1 190.07 179.96   Q 192.08 183.24 193.20 186.55   Q 201.80 212.08 211.11 237.35   Q 211.27 237.79 210.80 237.76   Q 210.18 237.73 210.08 236.90   C 209.88 235.16 208.88 234.62 208.27 233.50   Q 197.44 213.78 182.63 196.87   Z"/>
<path fill="#2e2b2a" d="   M 180.38 193.42   Q 181.08 193.51 181.01 193.64   Q 180.03 194.79 182.63 196.87   Q 182.38 196.96 182.18 197.00   Q 181.77 197.10 181.75 197.52   C 181.71 197.97 181.70 198.32 182.00 198.71   Q 195.58 216.55 200.82 225.18   Q 209.34 239.18 212.71 244.18   Q 212.99 244.60 212.89 245.10   L 201.35 300.49   A 1.19 1.15 -14.8 0 1 200.94 301.17   Q 197.18 304.27 192.20 306.45   Q 166.66 317.60 138.73 325.19   C 136.73 325.73 135.51 326.26 133.47 325.56   C 125.26 322.74 113.68 319.44 109.89 315.38   Q 109.56 315.03 109.95 314.74   C 122.48 305.55 134.09 292.60 143.76 281.65   A 0.70 0.70 0.0 0 0 143.80 280.76   Q 143.54 280.43 143.23 280.43   Q 144.24 279.94 144.40 279.64   Q 146.98 278.83 146.76 276.45   Q 146.24 271.00 146.87 267.05   C 148.03 259.71 147.22 252.05 148.15 245.49   Q 149.25 237.71 149.35 231.49   Q 149.44 226.03 149.96 222.06   Q 151.52 210.19 151.15 198.61   A 1.43 1.42 -3.2 0 1 152.46 197.15   L 178.10 195.00   Q 178.48 194.89 179.17 195.00   Q 179.70 195.08 180.02 194.65   Q 180.38 194.15 180.38 193.42   Z"/>
<path fill="#7a483e" d="   M 28.08 295.80   C 27.75 294.01 25.66 294.00 25.53 292.30   Q 25.49 291.81 25.15 291.46   Q 21.02 287.15 17.07 282.67   C 15.30 280.65 13.44 275.60 13.53 272.91   C 13.83 264.43 17.95 256.94 21.10 250.45   Q 21.31 250.03 21.77 249.95   Q 22.46 249.84 22.81 249.31   C 25.58 245.09 28.42 240.05 32.95 237.96   Q 37.58 235.81 42.23 233.73   Q 42.68 233.53 42.94 233.12   Q 43.14 232.81 43.46 232.62   Q 43.66 232.50 44.04 232.49   C 46.33 232.48 53.27 228.56 55.66 227.38   Q 66.02 222.25 76.81 218.09   A 0.54 0.53 -18.8 0 0 77.14 217.44   L 76.80 216.25   Q 79.96 213.42 84.04 212.29   C 93.12 209.79 101.51 205.56 109.25 204.24   Q 111.37 203.87 114.98 204.76   C 119.70 205.92 122.51 210.04 124.35 214.21   A 1.88 1.86 -85.0 0 0 124.97 214.96   Q 125.17 215.11 125.37 215.27   Q 125.56 215.43 125.67 215.67   C 130.53 225.52 133.05 235.56 136.81 245.76   C 139.98 254.35 140.26 262.52 135.45 270.74   Q 133.89 273.40 125.59 280.80   Q 125.26 281.10 124.81 281.20   C 123.78 281.42 123.41 282.44 122.79 282.96   Q 116.23 288.56 110.00 294.53   Q 109.31 295.20 108.33 295.69   C 106.11 296.82 104.59 299.43 102.55 300.91   C 97.42 304.63 93.33 308.02 86.52 307.70   C 78.71 307.34 70.94 307.09 63.14 306.61   C 55.54 306.14 48.43 307.87 40.92 304.86   Q 34.91 302.45 28.08 295.80   Z"/>
<path fill="#67251f" d="   M 85.26 221.74   C 86.09 221.37 86.19 220.45 87.73 220.76   A 1.18 1.18 0.0 0 0 88.53 220.65   C 98.58 215.26 105.03 212.74 113.07 210.61   A 3.39 3.39 0.0 0 1 117.12 212.71   C 118.31 215.94 120.26 219.00 121.39 222.22   Q 126.74 237.45 132.54 252.52   C 135.02 258.96 130.66 263.27 126.51 267.51   Q 108.51 285.88 92.30 299.24   Q 91.90 299.57 91.39 299.56   Q 71.18 299.36 51.08 299.15   C 48.76 299.13 46.90 298.92 44.84 297.66   C 35.94 292.23 29.77 284.39 22.90 277.15   C 21.18 275.35 19.96 271.79 20.76 269.80   Q 24.37 260.78 27.72 251.68   Q 27.90 251.21 28.29 250.89   Q 33.98 246.25 35.81 245.31   Q 60.15 232.73 85.26 221.74   Z"/>
<path fill="#e27327" d="   M 46.52 296.33   C 38.46 289.44 30.49 281.33 23.54 273.19   Q 23.23 272.83 23.40 272.38   L 30.84 252.21   A 0.84 0.81 85.0 0 1 31.19 251.78   C 48.77 240.88 69.03 232.25 88.00 224.03   Q 88.53 223.80 88.30 224.33   C 86.73 227.95 87.18 233.71 87.02 237.69   C 86.63 247.31 88.51 258.13 96.89 263.87   C 99.84 265.89 103.74 260.68 104.53 258.32   Q 110.43 240.80 104.72 222.95   Q 103.86 220.25 101.88 218.37   A 0.46 0.46 0.0 0 1 102.05 217.60   C 104.72 216.70 110.78 213.39 113.48 213.77   Q 116.33 214.17 115.57 216.77   Q 115.43 217.26 115.79 217.62   C 117.70 219.57 117.71 221.47 118.45 223.64   Q 124.23 240.57 130.75 257.25   A 0.71 0.70 62.3 0 1 130.50 258.07   Q 129.38 258.87 129.48 260.25   Q 129.52 260.87 129.07 261.30   C 116.43 273.41 103.73 285.45 90.03 296.35   Q 89.69 296.62 89.24 296.62   L 47.46 296.68   Q 46.93 296.68 46.52 296.33   Z"/>
<path fill="#000000" d="   M 343.94 246.84   C 346.22 249.43 352.89 256.68 352.80 260.01   Q 352.47 273.05 348.79 294.27   C 348.12 298.11 348.26 305.67 345.00 308.63   Q 339.50 313.61 333.59 317.12   Q 318.40 326.13 306.60 333.70   C 302.77 336.17 299.58 335.57 295.49 334.28   Q 267.23 325.38 245.10 317.01   C 243.32 316.34 242.06 315.21 240.44 314.22   Q 240.03 313.97 239.93 313.50   L 231.63 275.68   Q 231.52 275.18 231.79 274.76   C 233.41 272.16 233.84 269.09 235.14 266.70   Q 241.80 254.48 248.56 242.26   Q 250.93 238.93 252.56 235.06   Q 253.41 233.02 257.32 227.28   C 260.06 223.25 265.75 223.36 270.01 222.50   Q 286.49 219.16 295.25 218.52   Q 306.87 217.67 311.11 217.16   C 312.58 216.98 313.68 217.19 315.08 217.40   Q 315.55 217.47 315.88 217.80   C 317.99 219.88 320.38 221.67 322.29 223.75   Q 332.99 235.42 343.94 246.84   Z"/>
<g stroke-width="2.00" fill="none" stroke-linecap="butt">
<path stroke="#504b47" vector-effect="non-scaling-stroke" d="   M 274.42 237.57   Q 274.18 239.30 271.40 239.06"/>
<path stroke="#302d2b" vector-effect="non-scaling-stroke" d="   M 271.40 239.06   Q 259.67 249.96 249.98 262.48"/>
<path stroke="#474240" vector-effect="non-scaling-stroke" d="   M 249.98 262.48   C 247.10 263.57 244.84 259.92 243.34 257.92"/>
<path stroke="#373432" vector-effect="non-scaling-stroke" d="   M 316.61 274.46   L 316.46 275.24   Q 316.36 275.75 315.83 275.71   L 253.31 269.82"/>
<path stroke="#201e1d" vector-effect="non-scaling-stroke" d="   M 253.31 269.82   L 252.24 264.98   Q 252.13 264.46 252.45 264.05   Q 260.05 254.30 268.56 245.31   Q 270.14 243.65 272.22 239.97   Q 272.50 239.47 271.96 239.27   L 271.40 239.06"/>
<path stroke="#171615" vector-effect="non-scaling-stroke" d="   M 253.31 269.82   L 259.85 300.51   A 0.58 0.58 0.0 0 1 258.82 300.97   Q 255.97 297.03 255.00 291.70   Q 252.91 280.12 250.25 268.58   C 249.68 266.15 248.38 265.20 249.98 262.48"/>
<path stroke="#373432" vector-effect="non-scaling-stroke" d="   M 350.04 259.51   L 319.67 274.43"/>
</g>
<path fill="#f4f4f5" d="   M 97.01 260.55   Q 91.74 255.23 91.29 249.10   C 91.26 248.70 91.10 248.37 90.88 248.06   Q 90.69 247.78 90.65 247.45   Q 89.48 235.21 91.23 223.07   Q 91.32 222.48 91.87 222.24   L 99.41 218.99   Q 100.00 218.74 100.21 219.34   Q 106.21 235.61 102.94 252.50   C 102.24 256.15 101.76 259.16 98.79 260.81   Q 97.81 261.35 97.01 260.55   Z"/>
<path fill="#605955" d="   M 274.42 237.57   Q 274.18 239.30 271.40 239.06   Q 259.67 249.96 249.98 262.48   C 247.10 263.57 244.84 259.92 243.34 257.92   L 259.76 227.93   Q 260.00 227.49 260.49 227.39   Q 286.41 221.96 312.77 219.96   A 1.36 1.36 0.0 0 1 314.22 221.09   L 317.68 240.97   Q 317.77 241.50 317.44 241.91   L 313.23 247.11   Q 312.90 247.52 312.42 247.30   C 302.50 242.77 292.97 240.33 283.06 237.01   C 279.95 235.97 277.18 236.23 274.42 237.57   Z"/>
<path fill="#3f3c39" d="   M 350.04 259.51   L 319.67 274.43   L 314.66 250.91   A 1.30 1.28 59.9 0 1 314.95 249.80   L 320.13 243.84   Q 320.50 243.42 321.02 243.63   Q 329.84 247.11 339.21 248.45   A 0.54 0.54 0.0 0 0 339.46 247.41   L 319.91 240.67   Q 319.46 240.51 319.41 240.04   Q 318.33 230.84 315.33 222.08   A 0.60 0.60 0.0 0 1 316.34 221.49   Q 327.41 233.81 339.32 246.17   Q 345.76 252.85 350.04 259.51   Z"/>
<path fill="#3f3c39" d="   M 484.73 225.41   C 486.14 231.67 487.19 237.09 488.58 242.93   C 489.40 246.37 491.15 250.28 492.25 254.07   Q 492.39 254.57 492.06 254.96   Q 486.40 261.71 478.74 272.70   C 475.40 277.49 481.50 281.36 483.87 284.87   Q 490.58 294.82 497.17 304.84   A 1.29 1.29 0.0 0 1 497.04 306.42   L 466.93 339.27   Q 466.52 339.71 465.94 339.59   Q 435.74 333.29 428.00 330.56   C 424.24 329.23 420.65 327.72 417.08 329.91   Q 399.55 340.67 382.49 352.16   Q 382.43 352.20 380.48 353.87   C 378.19 355.82 376.06 354.64 373.52 354.25   Q 354.46 351.31 335.53 347.79   Q 335.19 347.73 335.01 347.86   Q 334.90 347.95 334.83 348.07   A 0.27 0.27 0.0 0 0 334.98 348.45   C 348.94 353.34 363.80 354.87 378.31 357.58   Q 378.76 357.66 379.15 357.40   L 400.93 342.79   Q 401.59 342.34 401.32 343.09   Q 399.04 349.32 395.70 354.98   Q 395.19 355.84 395.51 357.60   Q 395.60 358.10 395.11 358.22   Q 393.70 358.54 393.08 359.34   Q 383.43 371.73 372.92 383.42   Q 372.62 383.75 372.18 383.75   L 371.46 383.75   A 1.41 1.40 28.2 0 0 370.69 383.98   Q 366.69 386.60 362.26 388.45   Q 342.02 396.91 321.10 403.54   Q 320.62 403.69 320.15 403.51   L 307.72 398.83   Q 308.24 398.40 307.05 398.02   Q 306.67 397.90 307.03 397.75   C 309.01 396.91 312.33 392.79 313.41 391.18   A 0.56 0.56 0.0 0 1 314.22 391.06   Q 315.42 392.04 315.88 393.62   A 1.68 1.67 -22.0 0 0 318.28 394.63   Q 321.79 392.77 323.76 389.28   Q 324.11 388.67 324.77 388.41   Q 326.68 387.67 327.32 385.82   A 0.77 0.77 0.0 0 0 327.07 384.96   Q 323.82 382.50 321.89 378.93   A 1.67 1.64 -89.5 0 0 321.28 378.30   L 310.17 371.59   L 328.11 348.24   A 0.50 0.50 0.0 0 0 327.90 347.47   Q 326.81 347.01 325.86 348.13   Q 317.34 358.13 308.97 368.28   C 308.21 369.20 306.80 370.05 305.64 370.29   Q 282.45 375.01 258.78 374.82   A 1.32 1.31 -24.5 0 1 257.92 374.50   C 250.05 367.70 243.15 359.87 235.67 352.87   A 1.64 1.64 0.0 0 0 233.96 352.54   Q 221.78 357.16 209.58 361.85   C 205.56 363.39 203.17 364.29 198.73 363.67   Q 181.17 361.23 163.76 357.98   Q 163.25 357.88 163.05 357.40   Q 159.55 349.24 157.51 340.58   Q 157.39 340.08 157.06 339.69   Q 156.08 338.57 156.74 337.09   A 1.18 1.18 0.0 0 0 156.04 335.50   Q 142.88 331.12 128.76 330.00   C 126.93 329.85 125.15 332.85 124.19 333.80   Q 116.22 341.70 107.99 349.33   C 104.62 352.46 100.83 353.26 96.73 351.63   C 87.74 348.07 78.49 345.61 69.70 341.94   Q 73.27 335.72 80.41 333.57   A 0.83 0.82 -4.0 0 0 80.99 332.91   Q 81.24 331.29 82.66 330.99   Q 83.19 330.88 83.60 330.54   L 86.38 328.26   Q 86.75 327.96 86.90 327.51   L 87.88 324.64   Q 103.12 325.97 118.51 327.39   C 125.05 328.00 132.70 329.83 139.58 327.91   C 160.28 322.17 181.77 315.11 200.92 305.27   C 204.55 303.40 204.39 301.90 205.21 298.23   Q 208.17 284.89 210.97 271.49   C 212.29 265.17 213.65 255.71 215.63 247.90   A 0.93 0.92 -61.0 0 0 215.38 247.01   L 215.04 246.67   A 0.48 0.47 45.4 0 1 215.04 246.00   L 215.99 245.05   Q 216.35 244.69 216.18 244.21   L 214.29 238.75   Q 216.92 239.12 218.57 237.92   Q 219.02 237.59 219.56 237.60   L 223.28 237.65   Q 223.85 237.65 224.05 238.19   Q 224.86 240.36 227.11 240.29   Q 227.59 240.28 227.98 240.54   L 235.03 245.20   Q 235.47 245.50 235.99 245.40   L 239.09 244.80   A 0.71 0.70 81.2 0 1 239.92 245.41   Q 240.24 248.03 243.02 247.44   A 0.83 0.83 0.0 0 0 243.51 246.13   L 242.30 244.53   A 0.42 0.42 0.0 0 1 242.51 243.88   Q 243.59 243.51 244.64 243.94   Q 245.04 244.10 245.42 243.90   L 248.56 242.26   Q 241.80 254.48 235.14 266.70   C 233.84 269.09 233.41 272.16 231.79 274.76   Q 231.52 275.18 231.63 275.68   L 239.93 313.50   Q 240.03 313.97 240.44 314.22   C 242.06 315.21 243.32 316.34 245.10 317.01   Q 267.23 325.38 295.49 334.28   C 299.58 335.57 302.77 336.17 306.60 333.70   Q 318.40 326.13 333.59 317.12   Q 339.50 313.61 345.00 308.63   C 348.26 305.67 348.12 298.11 348.79 294.27   Q 352.47 273.05 352.80 260.01   C 352.89 256.68 346.22 249.43 343.94 246.84   Q 344.90 246.75 345.35 245.73   Q 345.52 245.35 345.93 245.33   L 350.62 245.05   Q 351.28 245.01 351.44 244.37   L 352.14 241.65   A 0.64 0.64 0.0 0 1 352.76 241.16   L 359.26 241.21   Q 359.73 241.21 360.10 241.51   L 361.67 242.78   Q 362.06 243.11 362.28 243.57   Q 364.18 247.64 372.14 248.73   Q 366.62 256.37 362.50 263.75   C 360.99 266.46 360.58 269.70 359.83 272.70   A 1.28 1.25 38.4 0 0 359.95 273.64   Q 365.33 283.61 366.29 286.97   Q 369.46 298.10 375.77 307.94   Q 376.04 308.36 376.53 308.43   L 419.46 315.25   A 1.33 1.29 -57.2 0 0 420.37 315.04   C 428.78 309.37 437.78 305.31 446.82 300.80   Q 447.26 300.58 447.76 300.58   Q 450.05 300.53 450.66 298.17   Q 452.91 289.31 454.63 280.33   C 455.43 276.10 456.68 264.90 454.08 261.42   Q 447.80 253.01 441.24 244.79   Q 444.61 244.57 447.78 246.43   A 0.94 0.94 0.0 0 0 449.18 245.77   C 449.58 243.49 452.19 240.70 454.29 242.99   Q 454.66 243.39 455.20 243.41   C 461.48 243.65 461.40 237.66 467.01 235.61   Q 467.49 235.44 467.79 235.85   L 468.05 236.20   Q 468.37 236.63 468.73 236.24   L 471.89 232.82   Q 472.32 232.36 472.86 232.68   L 473.46 233.04   Q 473.91 233.30 474.35 233.03   L 481.06 228.94   A 0.61 0.59 27.2 0 1 481.32 228.86   Q 484.04 228.79 484.73 225.41   Z"/>
<path fill="#000000" d="   M 441.24 244.79   Q 447.80 253.01 454.08 261.42   C 456.68 264.90 455.43 276.10 454.63 280.33   Q 452.91 289.31 450.66 298.17   Q 450.05 300.53 447.76 300.58   Q 447.26 300.58 446.82 300.80   C 437.78 305.31 428.78 309.37 420.37 315.04   A 1.33 1.29 -57.2 0 1 419.46 315.25   L 376.53 308.43   Q 376.04 308.36 375.77 307.94   Q 369.46 298.10 366.29 286.97   Q 365.33 283.61 359.95 273.64   A 1.28 1.25 38.4 0 1 359.83 272.70   C 360.58 269.70 360.99 266.46 362.50 263.75   Q 366.62 256.37 372.14 248.73   Q 373.81 246.12 375.99 242.90   C 377.32 240.95 377.53 237.39 380.89 237.01   Q 401.99 234.61 422.68 229.90   C 424.97 229.38 427.66 229.94 429.47 231.88   Q 435.43 238.30 441.24 244.79   Z"/>
<g stroke-width="2.00" fill="none" stroke-linecap="butt">
<path stroke="#373432" vector-effect="non-scaling-stroke" d="   M 414.82 245.46   Q 414.44 244.51 410.49 247.37"/>
<path stroke="#201e1d" vector-effect="non-scaling-stroke" d="   M 410.49 247.37   L 398.37 267.23"/>
<path stroke="#373432" vector-effect="non-scaling-stroke" d="   M 398.37 267.23   Q 383.85 265.11 369.56 260.94   Q 368.88 260.74 368.85 259.13"/>
<path stroke="#171615" vector-effect="non-scaling-stroke" d="   M 398.37 267.23   L 394.68 277.16   Q 394.51 277.60 394.65 278.06   Q 396.64 284.99 399.97 291.38   C 401.47 294.26 402.26 297.97 403.93 301.09   A 1.07 1.06 79.4 0 0 404.73 301.64   C 414.77 302.93 424.78 302.10 434.86 302.64   A 0.63 0.63 0.0 0 0 435.22 301.48   Q 434.81 301.23 433.97 301.13   Q 420.74 299.54 407.38 299.48   Q 406.86 299.48 406.50 299.10   C 404.77 297.31 404.48 294.33 403.78 292.81   Q 400.27 285.21 396.35 277.87   Q 396.12 277.44 396.35 277.00   Q 403.46 263.55 410.66 250.10   Q 411.05 249.37 411.08 248.75   Q 411.13 247.54 410.49 247.37"/>
</g>
<path fill="#3f3c39" d="   M 414.82 245.46   Q 414.44 244.51 410.49 247.37   L 398.37 267.23   Q 383.85 265.11 369.56 260.94   Q 368.88 260.74 368.85 259.13   C 371.79 254.78 378.08 247.28 379.28 242.39   Q 379.41 241.87 379.84 241.54   L 381.66 240.14   Q 382.03 239.85 382.48 239.75   Q 404.59 234.77 424.26 232.81   C 429.40 232.30 435.49 243.57 439.15 246.80   A 0.48 0.48 0.0 0 1 438.72 247.63   Q 427.28 244.87 414.82 245.46   Z"/>
<path fill="#3f3c39" d="   M 274.42 237.57   Q 274.64 239.69 276.26 239.26   Q 279.28 238.47 281.41 239.16   C 291.55 242.47 301.66 245.21 311.34 249.79   Q 311.80 250.01 311.90 250.50   L 316.61 274.46   L 316.46 275.24   Q 316.36 275.75 315.83 275.71   L 253.31 269.82   L 252.24 264.98   Q 252.13 264.46 252.45 264.05   Q 260.05 254.30 268.56 245.31   Q 270.14 243.65 272.22 239.97   Q 272.50 239.47 271.96 239.27   L 271.40 239.06   Q 274.18 239.30 274.42 237.57   Z"/>
<path fill="#000000" d="   M 271.40 239.06   L 271.96 239.27   Q 272.50 239.47 272.22 239.97   Q 270.14 243.65 268.56 245.31   Q 260.05 254.30 252.45 264.05   Q 252.13 264.46 252.24 264.98   L 253.31 269.82   L 259.85 300.51   A 0.58 0.58 0.0 0 1 258.82 300.97   Q 255.97 297.03 255.00 291.70   Q 252.91 280.12 250.25 268.58   C 249.68 266.15 248.38 265.20 249.98 262.48   Q 259.67 249.96 271.40 239.06   Z"/>
<path fill="#2e2b2a" d="   M 414.82 245.46   Q 415.64 246.60 417.46 246.79   Q 425.96 247.68 440.83 250.06   Q 441.38 250.15 441.72 250.59   L 453.21 265.81   Q 453.55 266.26 453.48 266.82   Q 451.44 281.64 447.87 296.18   Q 447.74 296.71 447.24 296.93   Q 445.05 297.86 442.06 299.82   Q 431.54 306.68 418.60 312.05   Q 418.17 312.23 417.72 312.16   L 378.56 306.12   A 1.66 1.66 0.0 0 1 377.26 303.91   C 379.40 298.04 379.22 293.73 379.68 287.53   A 0.83 0.83 0.0 0 1 380.20 286.82   C 384.46 285.18 390.64 283.49 394.14 280.68   Q 394.54 280.37 394.03 280.40   Q 385.90 280.86 379.32 285.59   A 0.50 0.49 46.5 0 1 378.71 285.57   L 363.11 272.73   A 1.25 1.25 0.0 0 1 362.73 271.34   Q 365.10 264.75 368.85 259.13   Q 368.88 260.74 369.56 260.94   Q 383.85 265.11 398.37 267.23   L 394.68 277.16   Q 394.51 277.60 394.65 278.06   Q 396.64 284.99 399.97 291.38   C 401.47 294.26 402.26 297.97 403.93 301.09   A 1.07 1.06 79.4 0 0 404.73 301.64   C 414.77 302.93 424.78 302.10 434.86 302.64   A 0.63 0.63 0.0 0 0 435.22 301.48   Q 434.81 301.23 433.97 301.13   Q 420.74 299.54 407.38 299.48   Q 406.86 299.48 406.50 299.10   C 404.77 297.31 404.48 294.33 403.78 292.81   Q 400.27 285.21 396.35 277.87   Q 396.12 277.44 396.35 277.00   Q 403.46 263.55 410.66 250.10   Q 411.05 249.37 411.08 248.75   Q 411.13 247.54 410.49 247.37   Q 414.44 244.51 414.82 245.46   Z"/>
<path fill="#000000" d="   M 410.49 247.37   Q 411.13 247.54 411.08 248.75   Q 411.05 249.37 410.66 250.10   Q 403.46 263.55 396.35 277.00   Q 396.12 277.44 396.35 277.87   Q 400.27 285.21 403.78 292.81   C 404.48 294.33 404.77 297.31 406.50 299.10   Q 406.86 299.48 407.38 299.48   Q 420.74 299.54 433.97 301.13   Q 434.81 301.23 435.22 301.48   A 0.63 0.63 0.0 0 1 434.86 302.64   C 424.78 302.10 414.77 302.93 404.73 301.64   A 1.07 1.06 79.4 0 1 403.93 301.09   C 402.26 297.97 401.47 294.26 399.97 291.38   Q 396.64 284.99 394.65 278.06   Q 394.51 277.60 394.68 277.16   L 398.37 267.23   L 410.49 247.37   Z"/>
<path fill="#2e2b2a" d="   M 243.34 257.92   C 244.84 259.92 247.10 263.57 249.98 262.48   C 248.38 265.20 249.68 266.15 250.25 268.58   Q 252.91 280.12 255.00 291.70   Q 255.97 297.03 258.82 300.97   A 0.58 0.58 0.0 0 0 259.85 300.51   L 253.31 269.82   L 315.83 275.71   Q 316.36 275.75 316.46 275.24   L 316.61 274.46   L 319.49 287.80   Q 319.60 288.29 319.32 288.70   C 315.73 294.00 311.51 298.57 307.91 303.82   C 305.57 307.23 298.01 306.54 294.33 306.32   Q 282.82 305.64 271.31 304.96   Q 270.78 304.93 271.04 305.39   Q 271.20 305.68 271.51 305.73   Q 288.36 308.38 304.35 309.24   A 2.43 2.43 0.0 0 1 306.57 311.08   L 308.87 320.54   Q 308.99 321.04 308.67 321.44   Q 305.35 325.55 303.27 330.40   A 0.57 0.57 0.0 0 0 304.26 330.96   L 311.28 321.07   Q 311.59 320.63 312.12 320.75   L 318.25 322.14   Q 319.11 322.34 318.39 322.84   C 315.37 324.98 311.77 326.49 309.01 328.82   C 307.44 330.15 305.78 332.01 303.72 332.52   C 299.58 333.55 292.84 331.38 288.04 329.55   Q 266.39 321.26 252.98 316.81   Q 245.97 314.48 242.82 313.13   A 0.88 0.87 10.8 0 1 242.29 312.36   C 242.20 309.77 241.00 307.69 240.58 305.56   Q 238.24 293.67 235.94 281.76   C 235.16 277.73 234.78 274.52 236.67 270.62   Q 239.78 264.15 243.34 257.92   Z"/>
<path fill="#2e2b2a" d="   M 350.04 259.51   C 349.28 266.16 348.71 273.02 347.79 279.48   Q 345.35 296.56 344.42 304.24   Q 344.05 307.25 341.69 308.70   Q 331.42 315.00 321.08 321.20   Q 320.64 321.47 320.20 321.19   Q 316.33 318.79 311.74 318.51   Q 311.38 318.49 311.28 318.14   L 308.84 308.91   Q 308.71 308.43 308.97 308.01   C 312.98 301.63 317.88 296.34 321.74 289.88   Q 322.00 289.44 322.50 289.49   Q 331.20 290.38 339.90 289.64   A 0.70 0.70 0.0 0 0 339.97 288.26   Q 331.44 286.65 322.76 287.21   Q 322.26 287.24 322.16 286.75   L 319.67 274.43   L 350.04 259.51   Z"/>
<path fill="#2e2b2a" d="   M 377.43 286.88   Q 377.97 287.33 377.92 288.04   L 376.80 301.97   A 0.43 0.43 0.0 0 1 376.01 302.17   Q 374.88 300.35 374.04 298.27   Q 369.88 288.00 365.59 277.77   A 0.34 0.34 0.0 0 1 366.12 277.38   L 377.43 286.88   Z"/>
<path fill="#000000" d="   M 151.95 281.66   A 0.30 0.30 0.0 0 1 151.79 281.26   C 152.41 279.77 154.05 279.81 155.44 280.31   Q 177.38 288.24 198.62 299.17   A 0.32 0.32 0.0 0 1 198.38 299.77   C 194.57 298.64 190.85 296.43 187.40 295.30   Q 169.53 289.47 151.95 281.66   Z"/>
<path fill="#605955" d="   M 87.88 324.64   L 86.90 327.51   Q 86.75 327.96 86.38 328.26   L 83.60 330.54   Q 83.19 330.88 82.66 330.99   Q 81.24 331.29 80.99 332.91   A 0.83 0.82 -4.0 0 1 80.41 333.57   Q 73.27 335.72 69.70 341.94   L 65.30 340.60   Q 64.80 340.45 64.63 339.95   Q 62.98 335.22 63.11 330.27   A 1.07 0.99 68.4 0 0 61.36 329.43   Q 61.26 329.55 60.64 329.77   Q 60.27 329.91 59.86 329.91   Q 50.41 330.02 40.99 329.51   A 1.01 0.98 -14.2 0 1 40.21 329.06   Q 36.27 323.02 33.22 316.54   C 31.86 313.65 32.69 311.48 35.45 310.22   Q 35.88 310.03 36.30 310.23   C 40.21 312.13 45.45 314.09 48.76 316.68   C 54.13 320.87 58.55 322.36 65.83 322.77   Q 76.82 323.40 87.88 324.64   Z"/>
<path fill="#2e2b2a" d="   M 102.47 316.15   Q 103.42 315.76 105.01 316.03   Q 105.62 317.45 107.30 318.00   Q 117.76 321.38 127.85 325.55   Q 128.95 326.01 127.76 325.89   L 65.07 319.93   A 0.21 0.20 46.6 0 1 65.08 319.52   Q 83.62 318.85 102.47 316.15   Z"/>
<path fill="#3f3c39" d="   M 370.22 404.06   C 379.46 392.45 386.20 379.10 392.26 365.54   C 393.23 363.37 393.59 360.33 395.56 358.71   C 399.46 355.49 403.22 345.37 405.18 340.57   Q 405.38 340.08 405.83 339.81   L 419.96 331.20   A 0.57 0.57 0.0 0 1 420.78 331.90   C 414.75 346.45 408.86 360.22 401.34 375.06   Q 394.78 388.02 387.50 403.99   Q 384.70 410.14 379.65 416.09   Q 379.33 416.46 379.02 416.08   L 370.23 405.16   Q 369.79 404.61 370.22 404.06   Z"/>
<path fill="#2e2b2a" d="   M 225.56 389.98   C 225.17 393.26 221.87 393.14 219.56 394.87   Q 217.19 394.79 213.01 395.81   Q 196.88 399.71 180.87 404.20   Q 180.38 404.33 179.98 404.03   Q 179.16 403.41 178.24 403.03   Q 162.29 396.42 146.02 390.67   Q 145.55 390.50 145.30 390.06   Q 136.85 374.78 128.54 359.47   C 125.69 354.20 126.52 342.63 126.93 337.18   Q 127.00 336.30 126.79 335.71   Q 126.61 335.22 126.93 334.82   L 128.75 332.49   Q 129.09 332.05 129.64 332.12   Q 141.76 333.67 153.51 337.02   Q 154.58 337.32 154.63 338.41   Q 154.71 339.93 154.73 340.02   Q 156.95 350.05 161.08 359.43   Q 161.27 359.86 161.72 359.95   Q 183.09 364.25 204.71 367.06   Q 205.31 367.14 205.64 366.64   L 206.00 366.09   Q 206.28 365.67 206.75 365.50   L 220.86 360.39   A 0.52 0.51 78.3 0 1 221.54 360.84   C 222.18 370.08 222.14 381.35 225.56 389.98   Z"/>
<path fill="#3f3c39" d="   M 119.57 378.74   A 2.93 2.89 0.4 0 1 117.89 377.06   L 108.57 352.83   Q 108.43 352.46 108.72 352.20   L 124.14 337.62   A 0.19 0.19 0.0 0 1 124.46 337.77   Q 123.74 347.42 124.61 357.07   C 124.81 359.21 127.55 362.82 128.42 364.37   Q 134.53 375.32 140.62 386.13   A 0.36 0.35 -4.0 0 1 140.18 386.63   L 119.57 378.74   Z"/>
<path fill="#242222" d="   M 363.60 390.71   L 367.52 396.69   Q 367.79 397.11 367.75 397.61   Q 367.46 401.33 370.48 401.34   C 367.84 407.35 364.04 405.71 359.04 407.07   Q 329.40 415.12 299.44 421.49   Q 296.02 422.22 292.52 421.91   Q 278.86 420.73 265.23 419.42   C 262.78 419.18 261.22 418.54 258.92 419.85   Q 258.50 420.09 258.24 419.68   Q 256.80 417.46 255.60 416.40   Q 247.56 409.29 231.47 394.53   Q 231.18 394.26 230.90 394.29   Q 230.39 394.35 230.73 394.74   C 239.05 404.09 248.44 411.88 257.29 420.64   Q 257.60 420.94 257.53 421.37   Q 255.37 435.64 255.67 450.05   Q 255.68 450.63 256.21 450.40   Q 256.62 450.21 256.67 449.74   Q 256.92 446.97 257.45 444.26   C 257.87 447.65 259.61 450.32 258.50 454.31   C 238.18 449.07 216.68 445.14 195.26 438.98   Q 194.00 438.62 193.36 438.18   Q 176.64 426.72 161.50 413.25   C 159.66 411.61 157.55 410.60 156.16 408.59   Q 151.52 401.91 147.49 393.88   A 0.55 0.55 0.0 0 1 148.19 393.12   L 178.28 405.16   A 0.82 0.82 0.0 0 1 178.80 406.03   Q 177.83 414.47 179.41 422.80   A 0.45 0.45 0.0 0 0 180.31 422.72   L 180.57 406.95   Q 180.58 406.52 180.99 406.42   Q 194.53 402.84 208.00 399.32   Q 214.05 397.74 219.56 394.87   C 221.87 393.14 225.17 393.26 225.56 389.98   Q 226.49 389.06 226.22 387.51   C 224.65 378.39 224.75 368.91 223.36 359.67   Q 223.28 359.16 223.78 358.99   L 234.16 355.55   Q 234.72 355.36 235.14 355.78   L 255.53 376.24   A 0.99 0.99 0.0 0 0 256.03 376.51   Q 262.91 377.98 269.91 377.10   A 2.01 2.00 66.0 0 1 271.67 377.78   L 282.46 390.26   A 6.38 6.34 -7.7 0 0 284.53 391.83   Q 297.19 397.83 310.76 402.73   Q 316.69 404.87 319.51 406.25   Q 320.13 406.56 320.54 406.43   Q 320.90 406.31 321.17 406.03   Q 321.52 405.67 322.00 405.56   C 336.09 402.16 350.32 396.33 363.60 390.71   Z"/>
<path fill="#2e2b2a" d="   M 310.17 371.59   L 321.28 378.30   A 1.67 1.64 -89.5 0 1 321.89 378.93   Q 323.82 382.50 327.07 384.96   A 0.77 0.77 0.0 0 1 327.32 385.82   Q 326.68 387.67 324.77 388.41   Q 324.11 388.67 323.76 389.28   Q 321.79 392.77 318.28 394.63   A 1.68 1.67 -22.0 0 1 315.88 393.62   Q 315.42 392.04 314.22 391.06   A 0.56 0.56 0.0 0 0 313.41 391.18   C 312.33 392.79 309.01 396.91 307.03 397.75   Q 306.67 397.90 307.05 398.02   Q 308.24 398.40 307.72 398.83   Q 297.36 395.11 287.42 390.44   C 282.67 388.21 278.01 381.56 274.57 377.58   A 0.43 0.43 0.0 0 1 274.88 376.87   Q 293.44 376.14 310.17 371.59   Z"/>
<path fill="#2e2b2a" d="   M 370.48 401.34   Q 367.46 401.33 367.75 397.61   Q 367.79 397.11 367.52 396.69   L 363.60 390.71   C 374.01 386.48 378.89 380.04 385.68 372.46   A 0.26 0.25 78.5 0 1 386.10 372.74   Q 380.52 384.94 373.09 396.33   Q 371.33 399.03 370.48 401.34   Z"/>
<path fill="#3f3c39" d="   M 321.72 438.20   L 319.28 431.53   Q 319.10 431.06 318.68 430.80   L 316.48 429.46   A 0.75 0.74 -68.7 0 1 316.14 428.67   Q 317.08 424.31 313.04 423.26   Q 312.52 423.12 312.52 422.59   L 312.50 421.01   L 368.15 406.85   Q 368.57 406.75 368.85 407.07   L 376.68 416.15   Q 377.81 417.46 376.22 418.17   C 365.56 422.89 353.40 426.75 343.66 430.50   Q 332.83 434.67 321.72 438.20   Z"/>
<path fill="#2e2b2a" d="   M 312.50 421.01   L 312.52 422.59   Q 312.52 423.12 313.04 423.26   Q 317.08 424.31 316.14 428.67   A 0.75 0.74 -68.7 0 0 316.48 429.46   L 318.68 430.80   Q 319.10 431.06 319.28 431.53   L 321.72 438.20   Q 285.31 450.55 267.75 454.75   Q 265.72 455.23 258.50 454.31   C 259.61 450.32 257.87 447.65 257.45 444.26   L 258.96 422.98   A 2.27 2.27 0.0 0 1 261.50 420.89   C 272.11 422.21 283.06 422.73 293.97 424.18   C 296.32 424.50 299.12 423.57 300.76 423.35   Q 306.68 422.55 312.50 421.01   Z"/>
</svg>