<?xml version="1.0" encoding="UTF-8" ?>
<!DOCTYPE svg PUBLIC "-//W3C//DTD SVG 1.1//EN" "http://www.w3.org/Graphics/SVG/1.1/DTD/svg11.dtd">
<svg width="1000pt" height="1000pt" viewBox="0 0 1000 1000" version="1.1" xmlns="http://www.w3.org/2000/svg">
<g id="#000000ff">
<path fill="#000000" opacity="1.00" d=" M 782.90 123.79 C 809.27 121.62 836.63 124.28 860.92 135.37 C 888.91 148.07 910.12 172.91 921.94 200.93 C 935.67 232.73 935.99 269.63 924.17 302.07 C 925.92 317.82 926.34 333.70 927.18 349.53 C 928.95 393.37 928.91 437.54 922.19 481.01 C 917.91 508.37 911.71 535.41 904.21 562.06 C 906.49 565.68 909.94 569.43 909.31 574.03 C 907.99 578.35 902.81 579.05 899.05 580.03 C 883.55 582.98 867.73 583.56 852.04 584.75 C 814.27 587.19 776.39 589.50 739.03 595.87 C 733.83 609.15 726.46 622.08 715.55 631.48 C 713.95 633.22 708.99 635.27 709.59 631.11 C 711.95 622.33 715.63 613.87 716.67 604.76 C 711.61 613.10 705.95 622.09 696.89 626.48 C 694.00 625.92 695.39 622.86 696.01 621.03 C 698.06 615.83 699.72 610.44 700.20 604.85 C 688.78 613.48 676.41 621.86 662.15 624.71 C 660.07 625.22 655.63 625.39 656.39 622.07 C 658.52 617.94 662.23 614.91 665.08 611.28 C 659.91 613.49 654.62 615.89 648.93 616.25 C 647.36 616.59 645.35 614.96 646.43 613.37 C 648.45 610.29 651.15 607.71 653.02 604.51 C 632.03 607.77 610.86 610.02 590.13 614.72 C 569.71 619.30 549.67 625.42 529.96 632.40 C 528.93 632.99 526.48 632.99 527.16 634.80 C 531.88 657.20 534.06 680.12 533.70 703.00 C 533.48 715.36 533.06 727.77 530.95 739.97 C 528.89 751.89 524.45 763.30 518.75 773.94 C 516.30 778.35 513.74 782.76 510.34 786.52 C 509.17 787.71 507.58 789.21 505.79 788.44 C 504.10 786.75 504.58 784.15 504.40 782.01 C 504.44 764.25 504.31 746.40 501.31 728.85 C 488.03 746.86 471.50 762.52 452.62 774.56 C 450.23 775.78 447.75 777.95 444.93 777.44 C 443.30 776.01 444.96 773.87 445.52 772.34 C 453.24 757.60 461.51 743.11 467.88 727.70 C 453.81 740.20 437.10 749.48 419.37 755.65 C 415.09 757.01 410.76 758.84 406.17 758.43 C 406.37 777.42 410.01 796.10 412.71 814.84 C 414.58 828.46 415.14 842.40 412.87 856.02 C 411.29 865.29 408.11 874.64 401.72 881.74 C 391.52 892.99 375.87 897.94 360.99 897.77 C 331.64 897.75 304.23 876.04 296.47 847.92 C 290.92 828.04 293.07 806.73 299.13 787.23 C 309.23 755.75 328.96 728.40 351.02 704.18 C 335.44 716.07 320.45 728.70 304.99 740.74 C 282.21 758.31 259.42 776.09 234.41 790.44 C 216.51 800.70 197.17 808.74 176.81 812.47 C 156.01 816.37 133.77 816.38 113.94 808.23 C 84.80 795.90 63.55 767.76 57.64 736.90 C 53.49 714.68 56.98 690.56 69.45 671.46 C 77.41 659.11 89.64 650.09 102.87 644.04 C 117.68 637.24 133.75 633.53 149.88 631.69 C 179.96 628.53 210.01 633.46 240.05 634.62 C 271.21 635.59 302.72 634.32 333.20 627.35 C 310.16 629.92 286.73 628.15 264.23 622.67 C 244.72 617.91 225.47 611.13 208.42 600.37 C 196.00 592.50 184.71 582.03 178.39 568.55 C 170.02 550.75 169.20 529.93 174.34 511.09 C 177.83 498.44 184.50 486.14 195.26 478.27 C 208.01 468.95 224.33 465.54 239.90 466.51 C 256.70 467.48 273.34 474.78 284.53 487.50 C 291.72 495.92 296.47 506.06 303.23 514.80 C 321.46 539.73 346.63 560.06 376.04 570.11 C 387.46 573.97 399.98 575.93 411.83 572.86 C 413.97 572.22 416.51 571.95 417.94 570.01 C 436.98 547.36 455.24 523.99 471.10 498.99 C 490.87 468.19 507.87 435.71 523.69 402.74 C 538.27 372.25 552.24 341.47 565.62 310.43 C 579.23 279.38 593.51 248.20 614.02 220.99 C 633.58 195.33 657.50 172.82 685.03 155.90 C 714.52 137.69 748.41 126.84 782.90 123.79 M 722.89 140.10 C 708.98 145.48 695.38 151.97 683.05 160.39 C 673.82 165.66 665.43 172.45 657.21 179.20 C 655.11 180.89 653.07 182.66 651.11 184.50 C 631.35 202.17 614.17 222.76 600.59 245.54 C 580.96 278.26 567.31 314.02 551.59 348.67 C 530.65 394.71 509.42 440.79 483.30 484.18 C 476.53 495.47 469.30 506.45 462.06 517.44 L 461.85 517.47 C 459.64 520.46 457.54 523.52 455.53 526.65 L 455.33 526.67 C 449.38 534.92 443.18 542.99 436.86 550.96 C 432.18 556.59 427.67 562.38 422.91 567.95 C 421.68 569.30 421.03 571.02 420.43 572.72 C 408.26 577.87 394.52 577.95 381.88 574.51 L 381.70 574.64 C 374.04 572.29 366.53 569.46 359.34 565.92 C 356.32 564.38 353.32 562.78 350.34 561.16 C 341.58 556.07 333.36 550.08 325.80 543.34 L 325.65 543.41 C 322.92 540.75 320.14 538.14 317.44 535.46 C 313.35 531.26 309.50 526.83 305.80 522.29 C 303.29 519.22 300.98 516.00 298.63 512.82 C 296.26 509.38 294.01 505.85 291.82 502.30 C 288.05 496.18 284.05 490.09 278.77 485.15 C 275.56 482.34 272.14 479.81 268.50 477.60 C 261.27 473.47 253.29 470.73 245.05 469.55 C 235.02 468.32 224.73 468.79 214.99 471.58 C 203.12 474.85 192.06 481.94 185.38 492.44 C 175.15 508.30 172.06 528.07 174.50 546.59 C 175.45 553.33 177.37 559.91 180.04 566.16 C 181.30 568.73 182.64 571.27 184.10 573.74 C 185.02 575.07 185.94 576.41 186.86 577.76 C 201.51 596.68 223.96 607.48 246.18 614.86 L 246.14 614.97 C 249.14 615.89 252.14 616.79 255.18 617.58 L 255.16 617.74 C 260.40 619.12 265.67 620.40 270.96 621.61 C 274.71 622.38 278.48 623.00 282.24 623.74 C 289.04 624.54 295.84 625.55 302.71 625.65 L 302.66 625.80 C 318.85 626.47 335.19 625.23 350.99 621.67 L 351.29 621.01 L 351.76 621.38 C 359.27 620.94 366.23 617.58 373.29 615.18 C 382.57 611.65 391.81 607.96 400.85 603.84 C 402.29 603.34 403.72 602.24 405.32 602.66 C 406.95 604.48 403.94 604.96 402.94 605.76 C 386.99 612.74 370.82 619.38 354.12 624.38 L 354.17 624.62 C 336.58 629.84 318.52 633.42 300.28 635.35 C 294.12 635.99 287.95 636.44 281.77 636.84 C 279.08 636.95 276.39 637.05 273.71 637.11 L 273.75 637.30 C 272.14 637.29 270.54 637.29 268.95 637.31 C 264.32 637.44 259.69 637.44 255.07 637.47 C 251.76 637.44 248.44 637.39 245.13 637.35 C 242.25 637.27 239.36 637.14 236.48 637.01 C 215.21 636.00 194.03 633.34 172.72 633.20 C 169.12 633.21 165.53 633.26 161.93 633.35 C 159.56 633.48 157.19 633.61 154.83 633.77 C 142.72 634.81 130.69 637.01 119.06 640.57 C 103.32 645.53 87.87 653.25 76.87 665.85 C 64.28 680.44 58.50 700.01 58.53 719.07 C 58.34 753.67 78.79 787.60 109.58 803.43 C 129.14 813.36 152.03 814.04 173.30 810.52 C 178.90 809.47 184.55 808.47 189.97 806.69 L 190.17 806.11 L 190.77 806.35 C 197.74 804.87 204.34 802.03 210.93 799.36 C 217.42 796.44 224.02 793.60 230.01 789.72 L 230.13 789.12 L 230.74 789.31 C 231.80 788.93 232.82 788.45 233.80 787.89 C 248.62 779.32 262.67 769.50 276.41 759.32 C 280.02 756.65 283.59 753.93 287.17 751.22 C 288.55 750.17 289.94 749.12 291.33 748.08 C 294.35 745.80 297.33 743.45 300.34 741.15 C 306.05 736.76 311.62 732.20 317.26 727.74 C 335.62 712.89 354.19 698.30 372.80 683.79 C 375.49 681.97 378.26 680.19 380.39 677.70 C 381.76 677.40 382.68 678.11 383.31 679.29 C 376.55 684.47 369.44 689.30 363.42 695.37 C 352.87 705.61 343.03 716.57 334.10 728.25 C 330.59 732.89 327.18 737.60 323.97 742.46 C 320.52 747.77 317.17 753.15 314.16 758.73 C 311.60 763.63 309.09 768.56 306.90 773.64 C 305.00 778.23 303.20 782.86 301.66 787.59 C 297.59 800.60 295.37 814.25 295.88 827.90 C 296.28 835.04 297.27 842.18 299.45 849.00 C 303.76 863.02 313.19 875.24 325.19 883.57 L 325.37 883.58 C 336.86 891.88 351.36 896.18 365.52 895.01 C 376.43 894.59 387.41 890.83 395.89 883.85 C 404.28 877.11 408.38 866.61 410.27 856.31 C 412.00 845.69 412.22 834.83 411.14 824.14 L 411.08 824.44 C 411.08 819.89 410.12 815.41 409.59 810.90 C 409.03 806.94 408.39 803.00 407.72 799.06 C 407.40 796.91 407.09 794.78 406.78 792.65 L 406.67 792.65 C 405.63 784.03 404.19 775.42 404.08 766.72 C 403.33 754.83 403.62 742.89 404.95 731.06 C 406.37 717.60 408.57 704.10 413.25 691.34 C 415.93 684.55 419.26 678.01 423.61 672.13 C 427.55 667.23 431.93 662.65 437.00 658.90 C 449.32 649.35 464.83 644.79 480.28 644.19 C 481.98 639.17 483.01 633.97 484.26 628.83 C 484.27 627.24 485.63 626.60 487.03 626.53 C 486.38 633.60 483.79 640.28 482.40 647.21 C 479.52 655.54 476.86 664.00 473.03 671.98 C 464.74 689.86 453.83 706.39 442.27 722.30 C 433.33 734.19 423.91 746.03 411.95 755.06 C 414.92 754.48 417.81 753.60 420.63 752.52 C 436.21 746.70 451.20 738.78 463.75 727.76 C 466.90 724.87 470.76 722.32 472.02 717.98 C 472.37 716.99 473.57 714.27 474.74 716.23 C 474.56 720.50 471.77 724.31 470.39 728.34 C 463.90 744.27 455.07 759.07 447.46 774.46 C 460.66 767.30 472.11 757.28 482.76 746.79 C 489.99 739.78 495.71 731.46 502.23 723.84 C 502.50 724.41 503.03 725.54 503.30 726.10 C 507.31 745.86 506.69 766.14 507.13 786.19 C 514.29 778.72 518.63 769.09 522.63 759.69 C 528.96 744.65 530.40 728.19 530.94 712.05 C 531.92 687.24 530.17 662.28 525.19 637.94 C 524.33 632.14 521.99 626.52 521.78 620.68 L 523.04 620.16 C 525.24 623.30 525.24 627.41 526.29 631.02 C 554.58 620.71 583.70 612.61 613.40 607.55 L 612.80 607.51 C 616.19 607.54 619.51 606.71 622.87 606.29 C 640.20 603.84 657.58 601.51 674.72 597.90 C 675.99 595.38 677.23 592.85 678.40 590.28 C 661.80 600.02 642.08 603.46 623.04 602.16 C 620.02 601.76 616.69 601.80 614.12 599.97 C 613.34 596.84 617.15 595.69 619.16 594.22 C 642.11 581.77 665.58 568.89 683.35 549.33 C 693.91 537.98 701.99 524.63 709.14 510.96 C 709.70 509.42 712.78 510.09 711.35 511.91 C 704.60 525.62 696.35 538.71 686.10 550.09 C 674.65 562.90 660.66 573.15 646.01 582.01 C 636.56 587.99 626.30 592.59 616.96 598.75 C 631.47 601.18 646.53 599.64 660.58 595.44 C 674.09 591.38 685.56 582.75 696.08 573.64 L 697.18 573.82 L 697.72 575.03 C 693.39 580.00 687.71 583.51 682.61 587.60 C 679.88 592.56 677.94 597.97 674.74 602.69 C 670.37 609.98 664.02 615.75 658.99 622.53 C 670.66 621.27 681.03 615.06 690.62 608.71 C 702.30 600.94 711.99 590.71 721.16 580.21 C 723.91 582.33 720.29 584.42 719.09 586.29 C 719.64 593.90 720.02 601.62 718.51 609.16 C 717.29 616.52 714.34 623.41 712.43 630.59 C 720.64 624.57 726.28 615.79 731.19 607.03 C 740.26 590.60 742.94 571.52 743.09 552.99 C 743.20 540.21 742.73 527.03 737.96 515.01 C 736.58 511.24 733.53 508.53 730.82 505.75 C 732.20 505.13 733.81 504.77 734.85 506.22 C 738.88 509.70 740.92 514.81 742.31 519.82 C 745.51 531.23 745.81 543.20 745.61 554.97 C 745.38 567.86 743.87 580.80 739.99 593.13 C 784.86 585.51 830.42 584.02 875.71 580.47 C 884.64 579.55 893.71 579.01 902.40 576.56 C 904.38 575.93 907.40 574.81 906.89 572.18 C 905.81 568.11 903.02 564.79 900.49 561.53 C 894.46 554.27 887.75 547.58 880.58 541.45 L 880.60 541.27 C 861.22 524.21 840.00 509.27 817.58 496.48 C 789.83 480.44 759.65 468.95 728.63 461.10 C 725.42 460.15 722.10 459.74 718.84 459.07 C 718.77 458.61 718.61 457.67 718.53 457.20 C 730.72 453.72 742.70 449.36 754.37 444.40 C 774.56 436.79 794.14 427.44 812.96 416.88 C 842.64 399.85 870.12 378.43 891.96 351.96 C 912.16 327.61 926.92 297.89 929.61 266.05 C 929.82 262.97 929.99 259.88 930.12 256.79 C 930.21 250.57 929.95 244.35 929.26 238.17 C 929.05 236.80 928.88 235.45 928.70 234.09 C 927.82 228.36 926.59 222.69 925.00 217.12 C 915.33 184.04 893.09 153.56 861.56 138.48 C 841.23 128.77 818.41 125.28 796.03 125.66 C 771.05 126.18 746.26 131.34 722.89 140.10 M 869.65 379.19 L 869.61 379.36 C 866.73 381.70 863.73 383.97 861.23 386.72 C 859.66 387.82 858.00 388.87 856.75 390.33 C 850.29 395.20 843.79 400.03 837.30 404.82 C 831.70 408.19 826.38 412.02 820.74 415.32 L 820.69 415.48 C 809.85 421.50 799.03 427.60 787.77 432.83 C 768.34 442.21 748.15 449.86 727.92 457.28 C 755.52 460.26 783.37 461.65 811.10 460.41 C 813.25 460.43 815.40 460.32 817.56 460.24 C 826.01 459.67 834.46 459.02 842.90 458.18 L 842.52 458.04 C 870.18 455.34 897.34 448.71 924.05 441.14 C 927.17 396.48 925.17 351.66 922.27 307.05 C 910.83 334.91 891.59 358.85 869.65 379.19 M 853.13 459.49 C 839.71 461.24 826.21 462.40 812.68 462.98 C 808.48 463.14 804.28 463.17 800.11 463.40 C 779.64 463.66 759.18 462.59 738.77 461.20 C 761.16 467.50 783.13 475.49 803.83 486.19 C 813.27 490.80 822.16 496.42 831.38 501.43 C 833.75 503.52 836.66 504.89 839.24 506.71 C 862.19 521.74 883.87 538.96 902.35 559.29 C 903.30 555.93 904.19 552.56 905.13 549.21 C 905.56 547.34 906.03 545.48 906.51 543.63 C 909.17 533.49 911.49 523.27 913.73 513.04 L 913.63 512.94 C 915.84 503.24 917.61 493.44 919.21 483.63 C 921.31 470.40 922.86 457.10 923.90 443.76 C 900.70 450.57 877.07 456.00 853.13 459.49 M 709.04 596.91 C 711.67 596.69 714.31 596.49 716.95 596.33 C 716.93 594.00 716.86 591.67 716.74 589.36 C 714.04 591.75 711.62 594.40 709.04 596.91 M 703.25 602.32 C 702.31 609.32 700.72 616.18 698.31 622.84 C 706.61 616.95 712.36 608.14 716.36 598.92 C 712.03 599.65 706.34 598.48 703.25 602.32 M 656.15 604.00 C 654.32 607.45 651.77 610.43 649.77 613.77 C 656.17 612.48 662.34 610.07 668.01 606.83 C 670.23 605.56 671.38 603.16 672.63 601.05 C 667.12 601.94 661.64 603.00 656.15 604.00 M 442.34 658.27 C 428.17 667.27 418.19 682.00 413.82 698.09 C 423.25 694.15 432.08 688.62 439.47 681.54 C 440.19 681.04 442.26 678.61 442.33 681.02 C 441.63 684.59 439.62 687.71 438.16 691.00 C 432.39 703.08 424.93 714.33 415.79 724.12 C 428.53 718.46 440.30 710.84 451.57 702.69 C 454.65 700.63 456.26 697.21 458.17 694.17 C 467.25 679.34 475.04 663.56 479.59 646.72 C 466.50 647.52 453.31 650.84 442.34 658.27 M 412.62 701.50 C 408.15 719.36 406.22 737.81 406.18 756.20 C 411.31 752.36 416.47 748.53 420.89 743.86 C 431.65 732.78 440.99 720.37 449.48 707.48 C 438.53 714.84 427.34 721.97 415.21 727.24 C 413.75 727.71 412.23 728.60 410.66 728.09 C 409.26 726.26 411.29 724.70 412.39 723.45 C 423.21 713.37 430.98 700.46 437.12 687.12 C 429.74 693.16 421.36 697.77 412.62 701.50 Z" />
<path fill="#000000" opacity="1.00" d=" M 826.68 241.71 C 843.37 239.92 860.76 244.26 874.38 254.17 C 886.09 262.81 893.90 276.55 895.20 291.07 C 896.00 300.97 893.78 310.94 890.17 320.13 C 885.36 329.38 880.86 338.96 873.93 346.87 C 862.57 360.15 845.51 368.35 828.04 368.87 C 810.00 369.47 791.54 363.13 778.41 350.60 C 770.48 343.19 765.47 332.91 764.27 322.15 C 762.00 305.35 767.20 288.58 774.73 273.76 C 788.10 258.19 805.67 244.22 826.68 241.71 M 810.96 248.79 C 798.11 254.49 787.14 263.80 777.92 274.30 C 798.34 274.78 818.71 279.07 837.22 287.82 C 855.31 296.12 872.13 307.08 887.40 319.82 C 889.60 314.10 891.25 308.17 892.17 302.11 C 892.29 300.79 892.42 299.47 892.57 298.16 C 893.14 287.76 890.13 277.28 884.37 268.64 C 876.78 257.00 864.07 249.72 850.91 246.12 C 848.43 245.62 845.96 245.15 843.47 244.75 L 843.52 244.63 C 832.55 243.34 821.13 244.25 810.96 248.79 M 776.22 277.11 C 773.31 283.55 770.36 290.03 768.73 296.93 C 765.41 310.01 765.61 324.27 771.20 336.71 L 771.52 336.50 C 773.38 340.40 775.81 344.02 778.85 347.11 C 797.98 366.72 830.33 372.00 854.54 358.98 C 869.25 351.23 879.27 337.09 885.78 322.15 C 880.08 317.40 874.32 312.67 868.00 308.75 C 862.29 321.44 856.95 334.74 847.54 345.21 L 847.85 345.77 C 844.01 349.10 840.30 353.02 835.22 354.36 C 830.26 355.77 824.57 353.41 822.14 348.85 C 818.59 342.44 819.83 334.88 819.85 327.89 L 820.51 327.96 C 820.93 324.53 821.60 321.14 822.86 317.92 C 823.47 317.80 824.69 317.58 825.29 317.47 L 825.14 319.07 C 822.99 327.45 821.10 336.49 823.47 345.02 C 824.57 349.20 828.68 352.57 833.12 351.94 C 838.75 351.05 842.93 346.64 846.45 342.49 C 854.87 331.87 860.57 319.41 865.55 306.90 C 855.91 300.49 845.84 294.72 835.28 289.98 C 834.19 292.50 833.16 295.05 832.04 297.56 C 831.45 296.66 830.85 295.79 830.24 294.93 C 831.02 292.90 831.81 290.88 832.60 288.86 C 814.93 280.93 795.54 277.29 776.22 277.11 Z" />
<path fill="#000000" opacity="1.00" d=" M 241.15 540.98 C 240.94 537.78 243.72 540.56 244.46 541.49 C 250.88 549.52 257.99 556.98 265.69 563.79 C 267.90 565.74 270.16 567.62 272.46 569.46 C 274.70 571.24 277.01 572.93 279.36 574.57 C 280.79 575.55 282.25 576.52 283.71 577.47 C 300.01 587.92 319.07 593.18 338.11 595.76 C 341.38 596.18 344.67 596.53 347.96 596.81 C 354.91 597.38 361.89 597.55 368.87 597.50 C 380.14 597.60 391.30 596.03 402.50 595.11 C 401.80 596.16 401.39 597.74 399.83 597.70 C 387.17 599.70 374.33 600.00 361.54 600.17 C 357.31 599.85 353.06 599.70 348.83 599.43 C 337.20 598.56 325.63 596.69 314.39 593.60 C 308.56 591.98 302.85 589.95 297.30 587.56 C 291.04 584.87 285.12 581.48 279.46 577.72 C 276.10 575.46 272.87 573.02 269.70 570.51 C 267.78 568.96 265.90 567.37 264.05 565.75 C 255.77 558.16 247.52 550.26 241.15 540.98 Z" />
</g>
<g id="#83e1f1ff">
<path fill="#83e1f1" opacity="1.00" d=" M 722.89 140.10 C 746.26 131.34 771.05 126.18 796.03 125.66 C 818.41 125.28 841.23 128.77 861.56 138.48 C 893.09 153.56 915.33 184.04 925.00 217.12 C 918.20 219.50 911.14 221.15 903.99 221.93 C 896.47 222.77 889.22 220.12 881.83 219.36 C 874.14 218.61 866.43 217.86 858.88 216.24 C 855.62 215.58 852.71 213.92 850.07 211.98 C 845.15 208.26 839.09 206.55 834.01 203.08 C 830.04 200.33 825.52 198.61 821.02 196.96 C 813.86 194.31 809.60 187.18 802.39 184.61 C 795.75 182.19 790.34 176.56 783.03 176.13 C 776.41 175.84 769.59 175.51 763.50 172.60 C 756.59 169.96 750.62 164.71 743.04 164.02 C 737.20 163.22 731.42 165.45 725.59 164.45 C 718.13 163.14 710.43 164.98 703.07 162.99 C 699.55 162.11 696.54 159.87 693.01 159.07 C 689.67 159.34 686.41 160.21 683.05 160.39 C 695.38 151.97 708.98 145.48 722.89 140.10 Z" />
</g>
<g id="#6adbeeff">
<path fill="#6adbee" opacity="1.00" d=" M 683.05 160.39 C 686.41 160.21 689.67 159.34 693.01 159.07 C 696.54 159.87 699.55 162.11 703.07 162.99 C 710.43 164.98 718.13 163.14 725.59 164.45 C 731.42 165.45 737.20 163.22 743.04 164.02 C 750.62 164.71 756.59 169.96 763.50 172.60 C 769.59 175.51 776.41 175.84 783.03 176.13 C 790.34 176.56 795.75 182.19 802.39 184.61 C 809.60 187.18 813.86 194.31 821.02 196.96 C 825.52 198.61 830.04 200.33 834.01 203.08 C 839.09 206.55 845.15 208.26 850.07 211.98 C 852.71 213.92 855.62 215.58 858.88 216.24 C 866.43 217.86 874.14 218.61 881.83 219.36 C 889.22 220.12 896.47 222.77 903.99 221.93 C 911.14 221.15 918.20 219.50 925.00 217.12 C 926.59 222.69 927.82 228.36 928.70 234.09 C 918.98 236.61 908.93 235.90 899.00 235.96 C 883.22 235.54 867.75 232.01 852.54 228.04 C 841.12 224.66 829.89 220.40 819.61 214.33 C 810.69 209.64 802.99 203.08 795.36 196.59 C 790.84 192.61 785.35 190.02 780.61 186.34 C 774.37 182.07 767.86 176.44 759.71 177.76 C 754.37 178.03 749.05 177.49 743.86 176.23 C 734.31 174.78 724.67 173.38 714.98 173.74 C 708.64 173.96 702.28 172.78 695.99 173.91 C 691.00 174.72 685.89 174.64 680.97 175.85 C 673.16 177.58 665.33 180.74 657.21 179.20 C 665.43 172.45 673.82 165.66 683.05 160.39 Z" />
</g>
<g id="#35cee8ff">
<path fill="#35cee8" opacity="1.00" d=" M 695.99 173.91 C 702.28 172.78 708.64 173.96 714.98 173.74 C 724.67 173.38 734.31 174.78 743.86 176.23 C 749.05 177.49 754.37 178.03 759.71 177.76 C 761.94 180.97 764.43 184.01 767.25 186.73 C 772.66 192.01 777.72 197.70 783.79 202.27 C 793.53 209.62 804.14 215.80 815.28 220.79 C 831.88 230.00 849.28 238.50 868.05 242.12 C 872.96 243.09 876.75 246.56 881.04 248.89 C 885.47 251.33 890.00 253.83 895.00 254.88 C 906.57 257.18 918.40 256.72 930.12 256.79 C 929.99 259.88 929.82 262.97 929.61 266.05 C 918.74 265.17 908.13 262.04 898.14 257.75 C 890.57 254.92 882.35 254.68 874.38 254.17 C 860.76 244.26 843.37 239.92 826.68 241.71 C 823.28 239.82 819.72 238.27 816.13 236.81 C 799.48 229.55 783.81 219.91 770.29 207.75 C 763.55 201.38 757.90 193.91 753.11 185.98 C 751.81 183.95 750.68 181.77 748.94 180.08 C 744.96 179.55 740.98 180.42 737.05 180.88 C 728.49 182.18 719.77 182.33 711.15 181.61 C 704.44 181.03 697.96 177.72 691.13 179.19 C 680.08 181.29 668.90 182.63 657.85 184.69 C 655.60 185.05 653.33 184.77 651.11 184.50 C 653.07 182.66 655.11 180.89 657.21 179.20 C 665.33 180.74 673.16 177.58 680.97 175.85 C 685.89 174.64 691.00 174.72 695.99 173.91 Z" />
</g>
<g id="#4ad3ebff">
<path fill="#4ad3eb" opacity="1.00" d=" M 759.71 177.76 C 767.86 176.44 774.37 182.07 780.61 186.34 C 785.35 190.02 790.84 192.61 795.36 196.59 C 802.99 203.08 810.69 209.64 819.61 214.33 C 829.89 220.40 841.12 224.66 852.54 228.04 C 858.65 232.56 864.29 238.26 871.83 240.33 C 879.65 242.69 887.78 244.43 896.01 244.03 C 907.28 243.56 918.51 241.58 929.26 238.17 C 929.95 244.35 930.21 250.57 930.12 256.79 C 918.40 256.72 906.57 257.18 895.00 254.88 C 890.00 253.83 885.47 251.33 881.04 248.89 C 876.75 246.56 872.96 243.09 868.05 242.12 C 849.28 238.50 831.88 230.00 815.28 220.79 C 804.14 215.80 793.53 209.62 783.79 202.27 C 777.72 197.70 772.66 192.01 767.25 186.73 C 764.43 184.01 761.94 180.97 759.71 177.76 Z" />
</g>
<g id="#21c9e6ff">
<path fill="#21c9e6" opacity="1.00" d=" M 657.85 184.69 C 668.90 182.63 680.08 181.29 691.13 179.19 C 697.96 177.72 704.44 181.03 711.15 181.61 C 719.77 182.33 728.49 182.18 737.05 180.88 C 740.98 180.42 744.96 179.55 748.94 180.08 C 750.68 181.77 751.81 183.95 753.11 185.98 C 757.90 193.91 763.55 201.38 770.29 207.75 C 783.81 219.91 799.48 229.55 816.13 236.81 C 819.72 238.27 823.28 239.82 826.68 241.71 C 805.67 244.22 788.10 258.19 774.73 273.76 C 767.20 288.58 762.00 305.35 764.27 322.15 C 765.47 332.91 770.48 343.19 778.41 350.60 C 791.54 363.13 810.00 369.47 828.04 368.87 C 845.51 368.35 862.57 360.15 873.93 346.87 C 880.86 338.96 885.36 329.38 890.17 320.13 C 893.78 310.94 896.00 300.97 895.20 291.07 C 893.90 276.55 886.09 262.81 874.38 254.17 C 882.35 254.68 890.57 254.92 898.14 257.75 C 908.13 262.04 918.74 265.17 929.61 266.05 C 926.92 297.89 912.16 327.61 891.96 351.96 C 870.12 378.43 842.64 399.85 812.96 416.88 C 794.14 427.44 774.56 436.79 754.37 444.40 C 746.81 443.80 740.37 448.53 732.98 449.04 C 726.17 449.77 719.43 451.08 712.84 452.95 C 706.37 454.87 699.57 455.29 693.06 457.05 C 686.74 458.72 680.45 460.66 674.63 463.69 C 671.40 465.39 667.93 466.61 664.36 467.34 C 643.46 472.04 622.49 477.39 600.98 478.08 C 593.45 479.02 585.76 478.55 578.35 480.40 C 571.94 481.70 565.60 483.77 559.00 483.80 C 555.07 483.79 551.12 484.17 547.38 485.44 C 541.31 487.59 534.64 486.15 528.64 488.57 C 519.63 491.80 510.18 488.28 500.97 488.97 C 494.75 489.30 488.43 487.76 483.30 484.18 C 509.42 440.79 530.65 394.71 551.59 348.67 C 567.31 314.02 580.96 278.26 600.59 245.54 C 614.17 222.76 631.35 202.17 651.11 184.50 C 653.33 184.77 655.60 185.05 657.85 184.69 Z" />
<path fill="#21c9e6" opacity="1.00" d=" M 810.96 248.79 C 821.13 244.25 832.55 243.34 843.52 244.63 L 843.47 244.75 C 838.96 254.23 838.43 265.42 841.79 275.34 C 845.94 283.05 854.19 286.91 860.50 292.54 C 863.99 295.02 867.46 297.54 871.05 299.88 C 874.55 301.29 878.38 301.71 881.92 303.06 C 885.30 304.41 888.83 302.82 892.17 302.11 C 891.25 308.17 889.60 314.10 887.40 319.82 C 872.13 307.08 855.31 296.12 837.22 287.82 C 818.71 279.07 798.34 274.78 777.92 274.30 C 787.14 263.80 798.11 254.49 810.96 248.79 Z" />
<path fill="#21c9e6" opacity="1.00" d=" M 291.82 502.30 C 294.01 505.85 296.26 509.38 298.63 512.82 C 288.05 525.28 279.20 539.09 271.08 553.25 C 269.05 556.63 267.21 560.14 265.69 563.79 C 257.99 556.98 250.88 549.52 244.46 541.49 C 243.72 540.56 240.94 537.78 241.15 540.98 C 247.52 550.26 255.77 558.16 264.05 565.75 C 261.00 572.52 258.26 579.42 255.13 586.16 C 250.95 595.33 249.42 605.37 246.18 614.86 C 223.96 607.48 201.51 596.68 186.86 577.76 C 195.58 564.14 205.25 551.13 215.77 538.86 C 222.03 532.53 229.24 527.21 235.40 520.77 C 235.73 520.58 236.37 520.18 236.69 519.98 C 241.00 519.06 245.25 517.86 249.38 516.31 C 263.42 511.34 278.15 508.31 291.82 502.30 Z" />
<path fill="#21c9e6" opacity="1.00" d=" M 172.72 633.20 C 194.03 633.34 215.21 636.00 236.48 637.01 C 237.19 643.33 235.86 649.68 236.72 656.00 C 237.16 670.92 240.96 685.64 247.02 699.24 C 227.18 704.67 207.15 709.38 187.00 713.50 C 182.44 704.37 177.75 695.10 175.84 684.97 C 174.15 676.06 172.53 667.05 172.60 657.94 C 172.63 649.70 172.47 641.45 172.72 633.20 Z" />
<path fill="#21c9e6" opacity="1.00" d=" M 188.63 715.79 C 208.86 711.59 228.99 706.87 248.90 701.35 C 255.64 721.69 263.61 741.95 276.41 759.32 C 262.67 769.50 248.62 779.32 233.80 787.89 C 232.82 788.45 231.80 788.93 230.74 789.31 L 230.13 789.12 C 220.58 774.02 212.24 758.21 203.34 742.73 C 198.41 733.77 192.88 725.11 188.63 715.79 Z" />
<path fill="#21c9e6" opacity="1.00" d=" M 301.66 787.59 C 317.00 801.73 335.81 811.79 355.65 818.03 C 355.76 820.98 355.31 824.07 356.24 826.94 C 356.70 827.03 357.63 827.21 358.09 827.31 C 358.44 824.51 358.26 821.70 358.24 818.91 C 371.01 821.94 384.12 823.63 397.27 822.81 C 401.64 824.54 406.03 826.26 410.51 827.74 C 410.71 826.63 410.90 825.53 411.08 824.44 L 411.14 824.14 C 412.22 834.83 412.00 845.69 410.27 856.31 C 398.34 856.49 386.14 857.01 374.57 853.55 C 360.93 848.87 347.47 843.64 333.62 839.59 C 321.01 835.78 308.55 831.51 295.88 827.90 C 295.37 814.25 297.59 800.60 301.66 787.59 Z" />
</g>
<g id="#59d7ecff">
<path fill="#59d7ec" opacity="1.00" d=" M 852.54 228.04 C 867.75 232.01 883.22 235.54 899.00 235.96 C 908.93 235.90 918.98 236.61 928.70 234.09 C 928.88 235.45 929.05 236.80 929.26 238.17 C 918.51 241.58 907.28 243.56 896.01 244.03 C 887.78 244.43 879.65 242.69 871.83 240.33 C 864.29 238.26 858.65 232.56 852.54 228.04 Z" />
<path fill="#59d7ec" opacity="1.00" d=" M 325.37 883.58 C 329.28 883.39 332.78 885.30 336.37 886.53 C 345.99 889.70 355.93 891.77 365.52 895.01 C 351.36 896.18 336.86 891.88 325.37 883.58 Z" />
</g>
<g id="#57d6ecff">
<path fill="#57d6ec" opacity="1.00" d=" M 841.79 275.34 C 838.43 265.42 838.96 254.23 843.47 244.75 C 845.96 245.15 848.43 245.62 850.91 246.12 C 845.79 249.62 843.38 256.01 844.24 262.07 C 844.21 268.39 848.87 273.04 852.03 278.03 C 855.88 284.26 860.67 289.99 866.50 294.45 C 874.42 298.77 883.77 299.51 892.57 298.16 C 892.42 299.47 892.29 300.79 892.17 302.11 C 888.83 302.82 885.30 304.41 881.92 303.06 C 878.38 301.71 874.55 301.29 871.05 299.88 C 867.46 297.54 863.99 295.02 860.50 292.54 C 854.19 286.91 845.94 283.05 841.79 275.34 Z" />
</g>
<g id="#85e1f1ff">
<path fill="#85e1f1" opacity="1.00" d=" M 850.91 246.12 C 864.07 249.72 876.78 257.00 884.37 268.64 C 890.13 277.28 893.14 287.76 892.57 298.16 C 883.77 299.51 874.42 298.77 866.50 294.45 C 860.67 289.99 855.88 284.26 852.03 278.03 C 848.87 273.04 844.21 268.39 844.24 262.07 C 843.38 256.01 845.79 249.62 850.91 246.12 Z" />
</g>
<g id="#282828ff">
<path fill="#282828" opacity="1.00" d=" M 776.22 277.11 C 795.54 277.29 814.93 280.93 832.60 288.86 C 831.81 290.88 831.02 292.90 830.24 294.93 C 830.85 295.79 831.45 296.66 832.04 297.56 C 831.94 297.78 831.73 298.23 831.63 298.45 C 831.14 298.48 830.16 298.54 829.67 298.57 C 829.59 297.91 829.43 296.57 829.35 295.90 C 825.73 294.23 822.13 292.44 818.26 291.46 C 813.53 289.06 808.03 288.94 802.89 289.69 C 799.63 290.24 797.21 292.65 794.75 294.65 C 789.55 297.82 790.21 305.97 793.81 310.12 C 795.43 312.31 798.05 313.20 800.56 313.92 C 807.67 316.40 815.20 319.46 822.86 317.92 C 821.60 321.14 820.93 324.53 820.51 327.96 L 819.85 327.89 C 814.60 327.36 809.33 326.33 804.04 326.93 C 792.79 328.07 781.00 329.86 771.52 336.50 L 771.20 336.71 C 765.61 324.27 765.41 310.01 768.73 296.93 C 770.36 290.03 773.31 283.55 776.22 277.11 Z" />
<path fill="#282828" opacity="1.00" d=" M 868.00 308.75 C 874.32 312.67 880.08 317.40 885.78 322.15 C 879.27 337.09 869.25 351.23 854.54 358.98 C 852.81 354.33 850.28 350.07 847.85 345.77 L 847.54 345.21 C 856.95 334.74 862.29 321.44 868.00 308.75 Z" />
</g>
<g id="#c2c2c2ff">
<path fill="#c2c2c2" opacity="1.00" d=" M 794.75 294.65 C 797.21 292.65 799.63 290.24 802.89 289.69 C 808.03 288.94 813.53 289.06 818.26 291.46 C 812.84 291.58 807.07 289.77 801.98 292.37 C 796.89 294.57 795.48 301.27 797.20 306.12 C 798.66 311.13 803.85 313.68 808.41 315.30 C 814.18 317.39 820.47 317.02 826.30 315.37 C 825.90 316.60 825.51 317.83 825.14 319.07 L 825.29 317.47 C 824.69 317.58 823.47 317.80 822.86 317.92 C 815.20 319.46 807.67 316.40 800.56 313.92 C 798.02 311.33 795.10 308.72 794.13 305.09 C 792.95 301.65 794.30 298.09 794.75 294.65 Z" />
</g>
<g id="#ffffffff">
<path fill="#ffffff" opacity="1.00" d=" M 835.28 289.98 C 845.84 294.72 855.91 300.49 865.55 306.90 C 860.57 319.41 854.87 331.87 846.45 342.49 C 842.93 346.64 838.75 351.05 833.12 351.94 C 828.68 352.57 824.57 349.20 823.47 345.02 C 821.10 336.49 822.99 327.45 825.14 319.07 C 825.51 317.83 825.90 316.60 826.30 315.37 C 820.47 317.02 814.18 317.39 808.41 315.30 C 803.85 313.68 798.66 311.13 797.20 306.12 C 795.48 301.27 796.89 294.57 801.98 292.37 C 807.07 289.77 812.84 291.58 818.26 291.46 C 822.13 292.44 825.73 294.23 829.35 295.90 C 829.43 296.57 829.59 297.91 829.67 298.57 C 830.16 298.54 831.14 298.48 831.63 298.45 C 831.73 298.23 831.94 297.78 832.04 297.56 C 833.16 295.05 834.19 292.50 835.28 289.98 Z" />
<path fill="#ffffff" opacity="1.00" d=" M 869.65 379.19 C 891.59 358.85 910.83 334.91 922.27 307.05 C 925.17 351.66 927.17 396.48 924.05 441.14 C 897.34 448.71 870.18 455.34 842.52 458.04 C 836.28 455.18 829.53 454.00 822.86 452.66 C 829.57 441.36 837.22 430.58 843.16 418.82 C 844.78 416.67 846.38 414.51 847.94 412.31 C 853.87 405.94 859.05 398.89 863.47 391.40 C 865.70 387.49 868.97 383.97 869.61 379.36 L 869.65 379.19 Z" />
</g>
<g id="#505050ff">
<path fill="#505050" opacity="1.00" d=" M 793.81 310.12 C 790.21 305.97 789.55 297.82 794.75 294.65 C 794.30 298.09 792.95 301.65 794.13 305.09 C 795.10 308.72 798.02 311.33 800.56 313.92 C 798.05 313.20 795.43 312.31 793.81 310.12 Z" />
</g>
<g id="#4f4f4fff">
<path fill="#4f4f4f" opacity="1.00" d=" M 771.52 336.50 C 781.00 329.86 792.79 328.07 804.04 326.93 C 809.33 326.33 814.60 327.36 819.85 327.89 C 819.83 334.88 818.59 342.44 822.14 348.85 C 824.57 353.41 830.26 355.77 835.22 354.36 C 840.30 353.02 844.01 349.10 847.85 345.77 C 850.28 350.07 852.81 354.33 854.54 358.98 C 830.33 372.00 797.98 366.72 778.85 347.11 C 775.81 344.02 773.38 340.40 771.52 336.50 Z" />
</g>
<g id="#d9d9d9ff">
<path fill="#d9d9d9" opacity="1.00" d=" M 861.23 386.72 C 863.73 383.97 866.73 381.70 869.61 379.36 C 868.97 383.97 865.70 387.49 863.47 391.40 C 859.05 398.89 853.87 405.94 847.94 412.31 C 851.76 403.45 858.27 395.98 861.23 386.72 Z" />
</g>
<g id="#cdcdcdff">
<path fill="#cdcdcd" opacity="1.00" d=" M 856.75 390.33 C 858.00 388.87 859.66 387.82 861.23 386.72 C 858.27 395.98 851.76 403.45 847.94 412.31 C 846.38 414.51 844.78 416.67 843.16 418.82 C 835.91 425.37 829.49 432.80 822.04 439.13 C 818.22 442.51 813.95 445.69 811.71 450.42 C 814.81 451.18 817.93 451.91 821.05 452.64 C 819.98 455.21 818.81 457.74 817.56 460.24 C 815.40 460.32 813.25 460.43 811.10 460.41 C 810.35 460.39 808.86 460.35 808.12 460.32 C 807.87 457.39 806.39 454.01 808.25 451.33 C 811.17 446.99 815.11 443.47 818.29 439.33 C 823.55 432.30 830.52 426.82 835.98 419.97 C 843.50 410.56 851.85 401.49 856.75 390.33 Z" />
</g>
<g id="#b7b7b7ff">
<path fill="#b7b7b7" opacity="1.00" d=" M 837.30 404.82 C 843.79 400.03 850.29 395.20 856.75 390.33 C 851.85 401.49 843.50 410.56 835.98 419.97 C 830.52 426.82 823.55 432.30 818.29 439.33 C 815.11 443.47 811.17 446.99 808.25 451.33 C 806.39 454.01 807.87 457.39 808.12 460.32 C 806.21 460.25 804.30 460.19 802.40 460.12 C 803.77 456.52 805.83 453.06 805.85 449.09 C 819.97 437.38 829.46 421.16 837.30 404.82 Z" />
</g>
<g id="#a6a6a6ff">
<path fill="#a6a6a6" opacity="1.00" d=" M 820.74 415.32 C 826.38 412.02 831.70 408.19 837.30 404.82 C 829.46 421.16 819.97 437.38 805.85 449.09 C 805.83 453.06 803.77 456.52 802.40 460.12 C 800.84 460.06 799.28 459.99 797.74 459.93 C 798.48 456.02 799.20 452.10 799.82 448.17 C 800.19 445.29 802.43 443.24 804.17 441.10 C 809.09 435.57 812.70 429.07 817.11 423.15 C 818.82 420.87 820.10 418.27 820.69 415.48 L 820.74 415.32 Z" />
</g>
<g id="#8d8d8dff">
<path fill="#8d8d8d" opacity="1.00" d=" M 787.77 432.83 C 799.03 427.60 809.85 421.50 820.69 415.48 C 820.10 418.27 818.82 420.87 817.11 423.15 C 812.70 429.07 809.09 435.57 804.17 441.10 C 802.43 443.24 800.19 445.29 799.82 448.17 C 799.20 452.10 798.48 456.02 797.74 459.93 C 799.28 459.99 800.84 460.06 802.40 460.12 C 804.30 460.19 806.21 460.25 808.12 460.32 C 808.86 460.35 810.35 460.39 811.10 460.41 C 783.37 461.65 755.52 460.26 727.92 457.28 C 748.15 449.86 768.34 442.21 787.77 432.83 Z" />
</g>
<g id="#e7e7e7ff">
<path fill="#e7e7e7" opacity="1.00" d=" M 822.04 439.13 C 829.49 432.80 835.91 425.37 843.16 418.82 C 837.22 430.58 829.57 441.36 822.86 452.66 C 829.53 454.00 836.28 455.18 842.52 458.04 L 842.90 458.18 C 834.46 459.02 826.01 459.67 817.56 460.24 C 818.81 457.74 819.98 455.21 821.05 452.64 C 817.93 451.91 814.81 451.18 811.71 450.42 C 813.95 445.69 818.22 442.51 822.04 439.13 Z" />
</g>
<g id="#20b1d2ff">
<path fill="#20b1d2" opacity="1.00" d=" M 732.98 449.04 C 740.37 448.53 746.81 443.80 754.37 444.40 C 742.70 449.36 730.72 453.72 718.53 457.20 C 710.75 458.74 702.99 460.47 695.36 462.67 C 691.71 462.93 688.09 463.41 684.57 464.41 C 679.39 465.84 673.69 465.41 668.87 468.06 C 656.99 475.35 643.75 480.53 630.01 483.02 C 617.10 485.07 604.04 485.95 591.02 486.92 C 581.21 487.55 571.55 489.47 561.81 490.68 C 556.67 491.33 551.34 490.79 546.35 492.43 C 542.91 493.46 539.74 495.16 536.50 496.68 C 532.67 496.52 528.87 495.72 525.04 495.87 C 521.55 496.40 518.30 497.88 514.84 498.54 C 500.17 500.63 488.02 510.11 473.86 513.84 C 469.90 514.96 466.22 517.09 462.06 517.44 C 469.30 506.45 476.53 495.47 483.30 484.18 C 488.43 487.76 494.75 489.30 500.97 488.97 C 510.18 488.28 519.63 491.80 528.64 488.57 C 534.64 486.15 541.31 487.59 547.38 485.44 C 551.12 484.17 555.07 483.79 559.00 483.80 C 565.60 483.77 571.94 481.70 578.35 480.40 C 585.76 478.55 593.45 479.02 600.98 478.08 C 622.49 477.39 643.46 472.04 664.36 467.34 C 667.93 466.61 671.40 465.39 674.63 463.69 C 680.45 460.66 686.74 458.72 693.06 457.05 C 699.57 455.29 706.37 454.87 712.84 452.95 C 719.43 451.08 726.17 449.77 732.98 449.04 Z" />
</g>
<g id="#e1e1e1ff">
<path fill="#e1e1e1" opacity="1.00" d=" M 853.13 459.49 C 877.07 456.00 900.70 450.57 923.90 443.76 C 922.86 457.10 921.31 470.40 919.21 483.63 C 913.64 481.86 908.41 479.25 902.98 477.12 C 890.80 472.46 878.60 467.77 866.11 463.98 C 861.69 462.76 857.14 461.82 853.13 459.49 Z" />
</g>
<g id="#1f83acff">
<path fill="#1f83ac" opacity="1.00" d=" M 695.36 462.67 C 702.99 460.47 710.75 458.74 718.53 457.20 C 718.61 457.67 718.77 458.61 718.84 459.07 C 722.10 459.74 725.42 460.15 728.63 461.10 C 720.54 467.72 710.92 472.00 701.58 476.54 C 695.14 479.47 688.75 482.54 682.11 484.99 C 661.64 492.06 639.87 493.25 618.61 496.38 C 600.80 498.47 582.95 501.03 564.97 500.67 C 554.65 500.71 544.33 500.68 534.00 500.62 C 530.12 500.58 526.23 501.04 522.54 502.28 C 502.41 509.11 482.60 516.83 462.96 524.96 C 460.60 525.97 458.08 526.48 455.53 526.65 C 457.54 523.52 459.64 520.46 461.85 517.47 L 462.06 517.44 C 466.22 517.09 469.90 514.96 473.86 513.84 C 488.02 510.11 500.17 500.63 514.84 498.54 C 518.30 497.88 521.55 496.40 525.04 495.87 C 528.87 495.72 532.67 496.52 536.50 496.68 C 543.93 498.15 551.52 497.59 559.04 497.72 C 575.33 497.54 591.73 498.39 607.84 495.43 C 618.70 493.38 629.50 490.79 639.87 486.94 C 655.86 481.97 671.77 476.45 686.71 468.81 C 689.90 467.24 692.69 465.00 695.36 462.67 Z" />
<path fill="#1f83ac" opacity="1.00" d=" M 360.03 782.40 C 364.36 782.38 368.28 784.37 372.34 785.60 C 379.50 787.89 386.75 789.92 394.04 791.78 C 398.15 792.88 402.45 792.81 406.67 792.65 L 406.78 792.65 C 407.09 794.78 407.40 796.91 407.72 799.06 C 401.68 799.10 395.56 799.69 389.60 798.44 C 379.13 796.30 369.29 791.98 359.53 787.74 C 359.68 785.95 359.84 784.16 360.03 782.40 Z" />
</g>
<g id="#c6c6c6ff">
<path fill="#c6c6c6" opacity="1.00" d=" M 812.68 462.98 C 826.21 462.40 839.71 461.24 853.13 459.49 C 857.14 461.82 861.69 462.76 866.11 463.98 C 878.60 467.77 890.80 472.46 902.98 477.12 C 908.41 479.25 913.64 481.86 919.21 483.63 C 917.61 493.44 915.84 503.24 913.63 512.94 C 908.50 508.19 903.90 502.86 898.22 498.72 C 890.18 492.05 881.00 486.98 871.72 482.29 C 866.47 479.67 861.01 476.90 855.00 476.89 C 848.03 476.79 840.96 476.51 834.15 478.24 C 829.47 479.68 825.07 476.94 820.60 476.03 C 817.13 472.24 814.38 467.83 812.68 462.98 Z" />
</g>
<g id="#1e6391ff">
<path fill="#1e6391" opacity="1.00" d=" M 728.63 461.10 C 759.65 468.95 789.83 480.44 817.58 496.48 C 840.00 509.27 861.22 524.21 880.60 541.27 L 880.58 541.45 C 879.88 545.92 879.87 550.46 880.00 554.99 C 880.28 563.69 877.63 572.08 875.71 580.47 C 830.42 584.02 784.86 585.51 739.99 593.13 C 743.87 580.80 745.38 567.86 745.61 554.97 C 745.81 543.20 745.51 531.23 742.31 519.82 C 740.92 514.81 738.88 509.70 734.85 506.22 C 733.81 504.77 732.20 505.13 730.82 505.75 C 733.53 508.53 736.58 511.24 737.96 515.01 C 742.73 527.03 743.20 540.21 743.09 552.99 C 742.94 571.52 740.26 590.60 731.19 607.03 C 726.28 615.79 720.64 624.57 712.43 630.59 C 714.34 623.41 717.29 616.52 718.51 609.16 C 720.02 601.62 719.64 593.90 719.09 586.29 C 720.29 584.42 723.91 582.33 721.16 580.21 C 711.99 590.71 702.30 600.94 690.62 608.71 C 681.03 615.06 670.66 621.27 658.99 622.53 C 664.02 615.75 670.37 609.98 674.74 602.69 C 677.94 597.97 679.88 592.56 682.61 587.60 C 687.71 583.51 693.39 580.00 697.72 575.03 L 697.18 573.82 L 696.08 573.64 C 685.56 582.75 674.09 591.38 660.58 595.44 C 646.53 599.64 631.47 601.18 616.96 598.75 C 626.30 592.59 636.56 587.99 646.01 582.01 C 660.66 573.15 674.65 562.90 686.10 550.09 C 696.35 538.71 704.60 525.62 711.35 511.91 C 712.78 510.09 709.70 509.42 709.14 510.96 C 701.99 524.63 693.91 537.98 683.35 549.33 C 665.58 568.89 642.11 581.77 619.16 594.22 C 617.15 595.69 613.34 596.84 614.12 599.97 C 616.69 601.80 620.02 601.76 623.04 602.16 C 642.08 603.46 661.80 600.02 678.40 590.28 C 677.23 592.85 675.99 595.38 674.72 597.90 C 657.58 601.51 640.20 603.84 622.87 606.29 C 619.51 606.71 616.19 607.54 612.80 607.51 C 606.42 606.90 600.00 606.86 593.63 607.53 C 586.98 608.26 580.23 607.17 573.66 608.60 C 566.51 610.10 559.37 612.24 551.99 611.90 C 535.27 610.75 518.40 609.96 502.07 605.89 C 491.93 603.32 482.33 599.13 472.66 595.23 C 465.18 591.99 456.66 589.19 451.77 582.22 C 445.69 572.34 442.79 560.92 436.86 550.96 C 443.18 542.99 449.38 534.92 455.33 526.67 L 455.53 526.65 C 458.08 526.48 460.60 525.97 462.96 524.96 C 482.60 516.83 502.41 509.11 522.54 502.28 C 526.23 501.04 530.12 500.58 534.00 500.62 C 544.33 500.68 554.65 500.71 564.97 500.67 C 582.95 501.03 600.80 498.47 618.61 496.38 C 639.87 493.25 661.64 492.06 682.11 484.99 C 688.75 482.54 695.14 479.47 701.58 476.54 C 710.92 472.00 720.54 467.72 728.63 461.10 Z" />
<path fill="#1e6391" opacity="1.00" d=" M 709.04 596.91 C 711.62 594.40 714.04 591.75 716.74 589.36 C 716.86 591.67 716.93 594.00 716.95 596.33 C 714.31 596.49 711.67 596.69 709.04 596.91 Z" />
<path fill="#1e6391" opacity="1.00" d=" M 505.36 636.40 C 511.99 635.15 518.68 636.68 525.19 637.94 C 530.17 662.28 531.92 687.24 530.94 712.05 C 530.40 728.19 528.96 744.65 522.63 759.69 C 518.63 769.09 514.29 778.72 507.13 786.19 C 506.69 766.14 507.31 745.86 503.30 726.10 C 503.03 725.54 502.50 724.41 502.23 723.84 C 495.71 731.46 489.99 739.78 482.76 746.79 C 472.11 757.28 460.66 767.30 447.46 774.46 C 455.07 759.07 463.90 744.27 470.39 728.34 C 471.77 724.31 474.56 720.50 474.74 716.23 C 473.57 714.27 472.37 716.99 472.02 717.98 C 470.76 722.32 466.90 724.87 463.75 727.76 C 451.20 738.78 436.21 746.70 420.63 752.52 C 417.81 753.60 414.92 754.48 411.95 755.06 C 423.91 746.03 433.33 734.19 442.27 722.30 C 453.83 706.39 464.74 689.86 473.03 671.98 C 476.86 664.00 479.52 655.54 482.40 647.21 C 488.92 641.62 497.01 638.13 505.36 636.40 Z" />
</g>
<g id="#8e8e8eff">
<path fill="#8e8e8e" opacity="1.00" d=" M 738.77 461.20 C 759.18 462.59 779.64 463.66 800.11 463.40 L 799.96 463.78 C 799.80 464.00 799.50 464.44 799.35 464.66 C 802.27 467.75 805.24 470.83 807.51 474.47 C 810.74 479.53 816.16 482.51 819.92 487.10 C 823.86 491.78 828.44 495.99 831.38 501.43 C 822.16 496.42 813.27 490.80 803.83 486.19 C 783.13 475.49 761.16 467.50 738.77 461.20 Z" />
</g>
<g id="#1f9bc0ff">
<path fill="#1f9bc0" opacity="1.00" d=" M 684.57 464.41 C 688.09 463.41 691.71 462.93 695.36 462.67 C 692.69 465.00 689.90 467.24 686.71 468.81 C 671.77 476.45 655.86 481.97 639.87 486.94 C 629.50 490.79 618.70 493.38 607.84 495.43 C 591.73 498.39 575.33 497.54 559.04 497.72 C 551.52 497.59 543.93 498.15 536.50 496.68 C 539.74 495.16 542.91 493.46 546.35 492.43 C 551.34 490.79 556.67 491.33 561.81 490.68 C 571.55 489.47 581.21 487.55 591.02 486.92 C 604.04 485.95 617.10 485.07 630.01 483.02 C 643.75 480.53 656.99 475.35 668.87 468.06 C 673.69 465.41 679.39 465.84 684.57 464.41 Z" />
</g>
<g id="#afafafff">
<path fill="#afafaf" opacity="1.00" d=" M 800.11 463.40 C 804.28 463.17 808.48 463.14 812.68 462.98 C 814.38 467.83 817.13 472.24 820.60 476.03 C 823.68 479.79 828.94 479.88 833.00 482.03 C 854.36 493.29 875.97 505.62 891.51 524.56 C 897.02 530.52 901.09 537.60 906.51 543.63 C 906.03 545.48 905.56 547.34 905.13 549.21 C 902.31 543.75 896.99 540.44 892.66 536.32 C 881.18 526.74 870.10 516.65 857.78 508.13 C 849.15 502.34 840.61 496.37 831.41 491.49 C 827.35 489.40 824.62 485.68 821.77 482.27 C 818.11 477.81 812.48 475.69 808.62 471.46 C 805.87 468.76 803.55 465.42 799.96 463.78 L 800.11 463.40 Z" />
</g>
<g id="#9f9f9fff">
<path fill="#9f9f9f" opacity="1.00" d=" M 799.35 464.66 C 799.50 464.44 799.80 464.00 799.96 463.78 C 803.55 465.42 805.87 468.76 808.62 471.46 C 812.48 475.69 818.11 477.81 821.77 482.27 C 824.62 485.68 827.35 489.40 831.41 491.49 C 840.61 496.37 849.15 502.34 857.78 508.13 C 870.10 516.65 881.18 526.74 892.66 536.32 C 896.99 540.44 902.31 543.75 905.13 549.21 C 904.19 552.56 903.30 555.93 902.35 559.29 C 883.87 538.96 862.19 521.74 839.24 506.71 C 836.66 504.89 833.75 503.52 831.38 501.43 C 828.44 495.99 823.86 491.78 819.92 487.10 C 816.16 482.51 810.74 479.53 807.51 474.47 C 805.24 470.83 802.27 467.75 799.35 464.66 Z" />
</g>
<g id="#75ddeffe">
<path fill="#75ddef" opacity="1.00" d=" M 214.99 471.58 C 224.73 468.79 235.02 468.32 245.05 469.55 C 244.55 474.20 245.08 479.23 242.58 483.42 C 240.74 487.43 236.92 489.84 233.82 492.78 C 231.56 494.90 229.21 496.91 226.83 498.90 C 221.53 503.25 217.83 509.14 212.82 513.79 C 205.90 520.53 199.30 527.61 192.17 534.13 C 186.38 538.42 180.94 543.29 174.50 546.59 C 172.06 528.07 175.15 508.30 185.38 492.44 C 192.06 481.94 203.12 474.85 214.99 471.58 Z" />
</g>
<g id="#5cd7edff">
<path fill="#5cd7ed" opacity="1.00" d=" M 245.05 469.55 C 253.29 470.73 261.27 473.47 268.50 477.60 C 261.03 487.03 253.18 496.17 244.89 504.88 C 236.91 515.44 224.96 521.71 214.83 529.87 C 208.65 534.82 204.58 541.70 199.97 548.00 C 193.81 554.56 186.56 559.98 180.04 566.16 C 177.37 559.91 175.45 553.33 174.50 546.59 C 180.94 543.29 186.38 538.42 192.17 534.13 C 199.30 527.61 205.90 520.53 212.82 513.79 C 217.83 509.14 221.53 503.25 226.83 498.90 C 229.21 496.91 231.56 494.90 233.82 492.78 C 236.92 489.84 240.74 487.43 242.58 483.42 C 245.08 479.23 244.55 474.20 245.05 469.55 Z" />
</g>
<g id="#bbbbbbff">
<path fill="#bbbbbb" opacity="1.00" d=" M 820.60 476.03 C 825.07 476.94 829.47 479.68 834.15 478.24 C 840.96 476.51 848.03 476.79 855.00 476.89 C 861.01 476.90 866.47 479.67 871.72 482.29 C 881.00 486.98 890.18 492.05 898.22 498.72 C 903.90 502.86 908.50 508.19 913.63 512.94 L 913.73 513.04 C 911.49 523.27 909.17 533.49 906.51 543.63 C 901.09 537.60 897.02 530.52 891.51 524.56 C 875.97 505.62 854.36 493.29 833.00 482.03 C 828.94 479.88 823.68 479.79 820.60 476.03 Z" />
</g>
<g id="#4ed4ebff">
<path fill="#4ed4eb" opacity="1.00" d=" M 268.50 477.60 C 272.14 479.81 275.56 482.34 278.77 485.15 C 272.62 493.66 263.30 498.81 255.38 505.42 C 249.26 510.42 242.69 514.84 236.69 519.98 C 236.37 520.18 235.73 520.58 235.40 520.77 C 232.99 521.41 230.44 521.86 228.34 523.32 C 222.86 527.05 217.82 531.44 213.22 536.21 C 208.62 540.97 203.32 545.28 200.30 551.32 C 195.64 559.23 191.41 567.90 184.10 573.74 C 182.64 571.27 181.30 568.73 180.04 566.16 C 186.56 559.98 193.81 554.56 199.97 548.00 C 204.58 541.70 208.65 534.82 214.83 529.87 C 224.96 521.71 236.91 515.44 244.89 504.88 C 253.18 496.17 261.03 487.03 268.50 477.60 Z" />
</g>
<g id="#3ccfe9ff">
<path fill="#3ccfe9" opacity="1.00" d=" M 278.77 485.15 C 284.05 490.09 288.05 496.18 291.82 502.30 C 278.15 508.31 263.42 511.34 249.38 516.31 C 245.25 517.86 241.00 519.06 236.69 519.98 C 242.69 514.84 249.26 510.42 255.38 505.42 C 263.30 498.81 272.62 493.66 278.77 485.15 Z" />
</g>
<g id="#20a4c7ff">
<path fill="#20a4c7" opacity="1.00" d=" M 298.63 512.82 C 300.98 516.00 303.29 519.22 305.80 522.29 C 301.79 526.50 296.16 528.94 292.88 533.88 C 288.05 541.09 285.60 549.52 282.39 557.49 C 279.26 561.62 275.09 564.91 272.46 569.46 C 270.16 567.62 267.90 565.74 265.69 563.79 C 267.21 560.14 269.05 556.63 271.08 553.25 C 279.20 539.09 288.05 525.28 298.63 512.82 Z" />
</g>
<g id="#39cfe9ff">
<path fill="#39cfe9" opacity="1.00" d=" M 228.34 523.32 C 230.44 521.86 232.99 521.41 235.40 520.77 C 229.24 527.21 222.03 532.53 215.77 538.86 C 205.25 551.13 195.58 564.14 186.86 577.76 C 185.94 576.41 185.02 575.07 184.10 573.74 C 191.41 567.90 195.64 559.23 200.30 551.32 C 203.32 545.28 208.62 540.97 213.22 536.21 C 217.82 531.44 222.86 527.05 228.34 523.32 Z" />
</g>
<g id="#1f90b6ff">
<path fill="#1f90b6" opacity="1.00" d=" M 305.80 522.29 C 309.50 526.83 313.35 531.26 317.44 535.46 C 313.40 538.06 309.27 540.54 305.41 543.41 C 301.79 546.08 299.39 550.13 295.43 552.39 C 291.35 554.82 286.86 557.23 284.59 561.63 C 282.53 565.81 281.51 570.42 279.36 574.57 C 277.01 572.93 274.70 571.24 272.46 569.46 C 275.09 564.91 279.26 561.62 282.39 557.49 C 285.60 549.52 288.05 541.09 292.88 533.88 C 296.16 528.94 301.79 526.50 305.80 522.29 Z" />
</g>
<g id="#1f81abff">
<path fill="#1f81ab" opacity="1.00" d=" M 305.41 543.41 C 309.27 540.54 313.40 538.06 317.44 535.46 C 320.14 538.14 322.92 540.75 325.65 543.41 C 320.55 545.97 314.67 546.66 309.87 549.84 C 303.84 553.70 297.94 557.85 292.71 562.76 C 288.40 566.75 286.62 572.52 283.71 577.47 C 282.25 576.52 280.79 575.55 279.36 574.57 C 281.51 570.42 282.53 565.81 284.59 561.63 C 286.86 557.23 291.35 554.82 295.43 552.39 C 299.39 550.13 301.79 546.08 305.41 543.41 Z" />
</g>
<g id="#1e6896ff">
<path fill="#1e6896" opacity="1.00" d=" M 880.00 554.99 C 879.87 550.46 879.88 545.92 880.58 541.45 C 887.75 547.58 894.46 554.27 900.49 561.53 C 903.02 564.79 905.81 568.11 906.89 572.18 C 907.40 574.81 904.38 575.93 902.40 576.56 C 893.71 579.01 884.64 579.55 875.71 580.47 C 877.63 572.08 880.28 563.69 880.00 554.99 Z" />
</g>
<g id="#1e6f9bff">
<path fill="#1e6f9b" opacity="1.00" d=" M 325.65 543.41 L 325.80 543.34 C 333.36 550.08 341.58 556.07 350.34 561.16 C 347.17 565.52 344.21 570.07 341.99 575.00 C 339.18 581.55 339.14 588.80 338.11 595.76 C 319.07 593.18 300.01 587.92 283.71 577.47 C 286.62 572.52 288.40 566.75 292.71 562.76 C 297.94 557.85 303.84 553.70 309.87 549.84 C 314.67 546.66 320.55 545.97 325.65 543.41 Z" />
</g>
<g id="#194b80ff">
<path fill="#194b80" opacity="1.00" d=" M 422.91 567.95 C 427.67 562.38 432.18 556.59 436.86 550.96 C 442.79 560.92 445.69 572.34 451.77 582.22 C 456.66 589.19 465.18 591.99 472.66 595.23 C 482.33 599.13 491.93 603.32 502.07 605.89 C 518.40 609.96 535.27 610.75 551.99 611.90 C 559.37 612.24 566.51 610.10 573.66 608.60 C 580.23 607.17 586.98 608.26 593.63 607.53 C 600.00 606.86 606.42 606.90 612.80 607.51 L 613.40 607.55 C 583.70 612.61 554.58 620.71 526.29 631.02 C 525.24 627.41 525.24 623.30 523.04 620.16 L 521.78 620.68 C 521.99 626.52 524.33 632.14 525.19 637.94 C 518.68 636.68 511.99 635.15 505.36 636.40 C 497.01 638.13 488.92 641.62 482.40 647.21 C 483.79 640.28 486.38 633.60 487.03 626.53 C 485.63 626.60 484.27 627.24 484.26 628.83 C 483.01 633.97 481.98 639.17 480.28 644.19 C 464.83 644.79 449.32 649.35 437.00 658.90 C 431.93 662.65 427.55 667.23 423.61 672.13 C 419.39 669.76 415.41 666.99 411.82 663.74 C 416.26 658.21 420.88 652.83 425.59 647.54 C 428.35 644.39 431.67 641.61 433.40 637.70 C 429.62 638.21 427.56 641.64 425.16 644.18 C 413.84 656.77 403.11 669.92 393.72 684.01 C 390.28 682.35 386.77 680.88 383.31 679.29 C 382.68 678.11 381.76 677.40 380.39 677.70 C 380.75 677.29 381.12 676.90 381.49 676.51 C 374.28 671.38 370.00 663.58 365.11 656.46 C 379.92 648.94 394.53 641.06 408.95 632.83 C 411.54 631.28 414.40 630.07 416.61 627.96 C 416.57 627.40 416.50 626.29 416.47 625.73 C 399.16 635.31 382.00 645.22 364.28 654.04 C 359.76 644.69 355.93 634.89 354.17 624.62 L 354.12 624.38 C 370.82 619.38 386.99 612.74 402.94 605.76 C 403.94 604.96 406.95 604.48 405.32 602.66 C 403.72 602.24 402.29 603.34 400.85 603.84 C 391.81 607.96 382.57 611.65 373.29 615.18 C 372.66 610.55 372.12 605.91 371.71 601.26 C 368.29 601.20 364.89 600.79 361.54 600.17 C 374.33 600.00 387.17 599.70 399.83 597.70 C 401.39 597.74 401.80 596.16 402.50 595.11 C 391.30 596.03 380.14 597.60 368.87 597.50 C 368.93 593.21 368.47 588.57 370.81 584.73 C 373.21 580.24 377.67 577.50 381.70 574.64 L 381.88 574.51 C 394.52 577.95 408.26 577.87 420.43 572.72 C 421.03 571.02 421.68 569.30 422.91 567.95 Z" />
</g>
<g id="#1c5f8fff">
<path fill="#1c5f8f" opacity="1.00" d=" M 350.34 561.16 C 353.32 562.78 356.32 564.38 359.34 565.92 C 357.55 570.19 356.40 574.68 355.26 579.15 C 354.63 583.04 349.98 584.21 348.85 587.80 C 348.01 590.72 348.12 593.80 347.96 596.81 C 344.67 596.53 341.38 596.18 338.11 595.76 C 339.14 588.80 339.18 581.55 341.99 575.00 C 344.21 570.07 347.17 565.52 350.34 561.16 Z" />
</g>
<g id="#20a9ccff">
<path fill="#20a9cc" opacity="1.00" d=" M 264.05 565.75 C 265.90 567.37 267.78 568.96 269.70 570.51 C 264.99 578.04 261.84 586.39 258.68 594.65 C 255.77 601.95 256.18 609.92 255.18 617.58 C 252.14 616.79 249.14 615.89 246.14 614.97 L 246.18 614.86 C 249.42 605.37 250.95 595.33 255.13 586.16 C 258.26 579.42 261.00 572.52 264.05 565.75 Z" />
</g>
<g id="#1a5286ff">
<path fill="#1a5286" opacity="1.00" d=" M 359.34 565.92 C 366.53 569.46 374.04 572.29 381.70 574.64 C 377.67 577.50 373.21 580.24 370.81 584.73 C 368.47 588.57 368.93 593.21 368.87 597.50 C 361.89 597.55 354.91 597.38 347.96 596.81 C 348.12 593.80 348.01 590.72 348.85 587.80 C 349.98 584.21 354.63 583.04 355.26 579.15 C 356.40 574.68 357.55 570.19 359.34 565.92 Z" />
</g>
<g id="#1f91b8ff">
<path fill="#1f91b8" opacity="1.00" d=" M 269.70 570.51 C 272.87 573.02 276.10 575.46 279.46 577.72 C 277.00 585.99 276.01 594.59 274.04 602.98 C 272.62 609.12 271.74 615.36 270.96 621.61 C 265.67 620.40 260.40 619.12 255.16 617.74 L 255.18 617.58 C 256.18 609.92 255.77 601.95 258.68 594.65 C 261.84 586.39 264.99 578.04 269.70 570.51 Z" />
</g>
<g id="#1e749fff">
<path fill="#1e749f" opacity="1.00" d=" M 279.46 577.72 C 285.12 581.48 291.04 584.87 297.30 587.56 C 293.78 592.82 290.79 598.45 288.52 604.36 C 286.54 609.49 286.51 615.06 285.36 620.38 C 285.20 622.12 283.42 622.76 282.24 623.74 C 278.48 623.00 274.71 622.38 270.96 621.61 C 271.74 615.36 272.62 609.12 274.04 602.98 C 276.01 594.59 277.00 585.99 279.46 577.72 Z" />
</g>
<g id="#1e6c99ff">
<path fill="#1e6c99" opacity="1.00" d=" M 297.30 587.56 C 302.85 589.95 308.56 591.98 314.39 593.60 C 311.36 598.08 307.90 602.54 306.97 608.02 C 305.88 613.97 304.50 619.87 302.71 625.65 C 295.84 625.55 289.04 624.54 282.24 623.74 C 283.42 622.76 285.20 622.12 285.36 620.38 C 286.51 615.06 286.54 609.49 288.52 604.36 C 290.79 598.45 293.78 592.82 297.30 587.56 Z" />
<path fill="#1e6c99" opacity="1.00" d=" M 281.77 636.84 C 287.95 636.44 294.12 635.99 300.28 635.35 C 299.41 645.19 298.10 655.09 298.94 664.99 C 299.06 670.74 298.80 676.54 300.04 682.21 C 297.32 683.21 294.59 684.20 291.86 685.17 C 288.64 677.08 286.96 668.51 284.77 660.12 C 282.82 652.50 282.65 644.61 281.77 636.84 Z" />
</g>
<g id="#1e6593ff">
<path fill="#1e6593" opacity="1.00" d=" M 314.39 593.60 C 325.63 596.69 337.20 598.56 348.83 599.43 C 348.57 606.72 350.06 613.87 351.29 621.01 L 350.99 621.67 C 335.19 625.23 318.85 626.47 302.66 625.80 L 302.71 625.65 C 304.50 619.87 305.88 613.97 306.97 608.02 C 307.90 602.54 311.36 598.08 314.39 593.60 Z" />
</g>
<g id="#153370ff">
<path fill="#153370" opacity="1.00" d=" M 703.25 602.32 C 706.34 598.48 712.03 599.65 716.36 598.92 C 712.36 608.14 706.61 616.95 698.31 622.84 C 700.72 616.18 702.31 609.32 703.25 602.32 Z" />
<path fill="#153370" opacity="1.00" d=" M 656.15 604.00 C 661.64 603.00 667.12 601.94 672.63 601.05 C 671.38 603.16 670.23 605.56 668.01 606.83 C 662.34 610.07 656.17 612.48 649.77 613.77 C 651.77 610.43 654.32 607.45 656.15 604.00 Z" />
<path fill="#153370" opacity="1.00" d=" M 442.34 658.27 C 453.31 650.84 466.50 647.52 479.59 646.72 C 475.04 663.56 467.25 679.34 458.17 694.17 C 456.26 697.21 454.65 700.63 451.57 702.69 C 440.30 710.84 428.53 718.46 415.79 724.12 C 424.93 714.33 432.39 703.08 438.16 691.00 C 439.62 687.71 441.63 684.59 442.33 681.02 C 442.26 678.61 440.19 681.04 439.47 681.54 C 432.08 688.62 423.25 694.15 413.82 698.09 C 418.19 682.00 428.17 667.27 442.34 658.27 Z" />
</g>
<g id="#1a5084ff">
<path fill="#1a5084" opacity="1.00" d=" M 348.83 599.43 C 353.06 599.70 357.31 599.85 361.54 600.17 C 364.89 600.79 368.29 601.20 371.71 601.26 C 372.12 605.91 372.66 610.55 373.29 615.18 C 366.23 617.58 359.27 620.94 351.76 621.38 L 351.29 621.01 C 350.06 613.87 348.57 606.72 348.83 599.43 Z" />
</g>
<g id="#1e6492ff">
<path fill="#1e6492" opacity="1.00" d=" M 300.28 635.35 C 318.52 633.42 336.58 629.84 354.17 624.62 C 355.93 634.89 359.76 644.69 364.28 654.04 C 343.38 664.55 321.98 674.08 300.04 682.21 C 298.80 676.54 299.06 670.74 298.94 664.99 C 298.10 655.09 299.41 645.19 300.28 635.35 Z" />
<path fill="#1e6492" opacity="1.00" d=" M 298.54 685.48 C 321.25 677.08 343.52 667.43 365.11 656.46 C 370.00 663.58 374.28 671.38 381.49 676.51 C 381.12 676.90 380.75 677.29 380.39 677.70 C 378.26 680.19 375.49 681.97 372.80 683.79 C 354.19 698.30 335.62 712.89 317.26 727.74 C 312.46 719.99 307.12 712.40 304.27 703.66 C 302.25 697.63 300.74 691.45 298.54 685.48 Z" />
<path fill="#1e6492" opacity="1.00" d=" M 363.42 695.37 C 369.44 689.30 376.55 684.47 383.31 679.29 C 386.77 680.88 390.28 682.35 393.72 684.01 C 380.54 703.84 370.04 725.58 363.78 748.59 C 358.99 745.86 353.65 744.15 349.29 740.69 C 343.75 737.13 339.15 732.42 334.10 728.25 C 343.03 716.57 352.87 705.61 363.42 695.37 Z" />
<path fill="#1e6492" opacity="1.00" d=" M 363.64 759.83 C 368.99 734.53 379.70 710.56 393.63 688.84 C 400.04 690.48 406.64 691.22 413.25 691.34 C 408.57 704.10 406.37 717.60 404.95 731.06 C 403.62 742.89 403.33 754.83 404.08 766.72 C 399.34 763.34 393.30 764.15 387.84 763.41 C 379.66 763.03 371.73 760.91 363.64 759.83 Z" />
</g>
<g id="#000001ff">
<path fill="#000001" opacity="1.00" d=" M 364.28 654.04 C 382.00 645.22 399.16 635.31 416.47 625.73 C 416.50 626.29 416.57 627.40 416.61 627.96 C 414.40 630.07 411.54 631.28 408.95 632.83 C 394.53 641.06 379.92 648.94 365.11 656.46 C 343.52 667.43 321.25 677.08 298.54 685.48 C 290.18 688.64 281.67 691.38 273.17 694.14 C 269.35 695.38 265.49 696.56 261.64 697.71 C 257.41 698.97 253.15 700.16 248.90 701.35 C 228.99 706.87 208.86 711.59 188.63 715.79 C 180.42 717.26 172.29 719.48 163.96 720.19 C 161.97 718.12 165.66 717.75 166.87 717.38 C 173.59 716.16 180.31 714.89 187.00 713.50 C 207.15 709.38 227.18 704.67 247.02 699.24 C 247.57 699.09 248.66 698.79 249.20 698.64 C 253.25 697.52 257.28 696.33 261.31 695.15 C 265.31 693.97 269.30 692.72 273.27 691.45 C 276.64 690.37 280.00 689.26 283.36 688.13 C 286.20 687.16 289.03 686.17 291.86 685.17 C 294.59 684.20 297.32 683.21 300.04 682.21 C 321.98 674.08 343.38 664.55 364.28 654.04 Z" />
<path fill="#000001" opacity="1.00" d=" M 425.16 644.18 C 427.56 641.64 429.62 638.21 433.40 637.70 C 431.67 641.61 428.35 644.39 425.59 647.54 C 420.88 652.83 416.26 658.21 411.82 663.74 C 405.35 671.80 399.15 680.09 393.63 688.84 C 379.70 710.56 368.99 734.53 363.64 759.83 C 362.10 767.29 360.88 774.82 360.03 782.40 C 359.84 784.16 359.68 785.95 359.53 787.74 C 359.30 790.33 359.10 792.93 358.92 795.54 C 358.68 798.88 358.50 802.24 358.39 805.60 C 358.27 810.03 358.16 814.47 358.24 818.91 C 358.26 821.70 358.44 824.51 358.09 827.31 C 357.63 827.21 356.70 827.03 356.24 826.94 C 355.31 824.07 355.76 820.98 355.65 818.03 C 355.65 814.13 355.73 810.24 355.78 806.36 C 356.00 801.64 356.22 796.93 356.56 792.23 C 356.72 790.15 356.91 788.09 357.12 786.03 C 357.56 781.62 358.08 777.22 358.76 772.84 C 359.94 764.67 361.54 756.54 363.78 748.59 C 370.04 725.58 380.54 703.84 393.72 684.01 C 403.11 669.92 413.84 656.77 425.16 644.18 Z" />
</g>
<g id="#6ddbeeff">
<path fill="#6ddbee" opacity="1.00" d=" M 119.06 640.57 C 130.69 637.01 142.72 634.81 154.83 633.77 C 154.86 639.14 155.11 644.61 153.68 649.85 C 147.73 670.76 145.79 692.51 143.98 714.08 C 143.50 720.75 144.61 727.38 144.93 734.02 C 144.97 739.34 148.58 743.52 150.95 747.99 C 154.36 754.21 158.37 760.08 161.67 766.36 C 163.82 770.28 164.36 775.14 167.70 778.35 C 170.90 781.48 174.28 784.46 176.87 788.14 C 181.22 794.19 185.94 799.97 190.17 806.11 L 189.97 806.69 C 184.55 808.47 178.90 809.47 173.30 810.52 C 167.84 801.61 161.38 793.19 157.56 783.39 C 155.85 779.40 154.51 775.25 152.61 771.35 C 150.47 766.92 145.46 764.43 144.31 759.43 C 139.89 744.28 136.67 728.72 130.90 713.99 C 126.09 702.85 120.55 691.89 117.87 679.98 C 116.38 673.32 113.91 666.49 115.43 659.60 C 116.79 653.29 118.40 647.01 119.06 640.57 Z" />
</g>
<g id="#5bd7ecff">
<path fill="#5bd7ec" opacity="1.00" d=" M 154.83 633.77 C 157.19 633.61 159.56 633.48 161.93 633.35 C 160.50 638.14 158.86 642.97 158.86 648.03 C 158.90 668.69 158.66 689.36 160.20 709.97 C 161.54 728.33 163.45 746.64 164.95 764.98 C 165.15 772.60 170.10 779.83 177.01 782.98 C 188.30 788.49 199.33 794.53 210.93 799.36 C 204.34 802.03 197.74 804.87 190.77 806.35 L 190.17 806.11 C 185.94 799.97 181.22 794.19 176.87 788.14 C 174.28 784.46 170.90 781.48 167.70 778.35 C 164.36 775.14 163.82 770.28 161.67 766.36 C 158.37 760.08 154.36 754.21 150.95 747.99 C 148.58 743.52 144.97 739.34 144.93 734.02 C 144.61 727.38 143.50 720.75 143.98 714.08 C 145.79 692.51 147.73 670.76 153.68 649.85 C 155.11 644.61 154.86 639.14 154.83 633.77 Z" />
</g>
<g id="#44d1eaff">
<path fill="#44d1ea" opacity="1.00" d=" M 161.93 633.35 C 165.53 633.26 169.12 633.21 172.72 633.20 C 172.47 641.45 172.63 649.70 172.60 657.94 C 172.53 667.05 174.15 676.06 175.84 684.97 C 177.75 695.10 182.44 704.37 187.00 713.50 C 180.31 714.89 173.59 716.16 166.87 717.38 C 165.66 717.75 161.97 718.12 163.96 720.19 C 172.29 719.48 180.42 717.26 188.63 715.79 C 192.88 725.11 198.41 733.77 203.34 742.73 C 212.24 758.21 220.58 774.02 230.13 789.12 L 230.01 789.72 C 224.02 793.60 217.42 796.44 210.93 799.36 C 199.33 794.53 188.30 788.49 177.01 782.98 C 170.10 779.83 165.15 772.60 164.95 764.98 C 163.45 746.64 161.54 728.33 160.20 709.97 C 158.66 689.36 158.90 668.69 158.86 648.03 C 158.86 642.97 160.50 638.14 161.93 633.35 Z" />
</g>
<g id="#21bbdaff">
<path fill="#21bbda" opacity="1.00" d=" M 236.48 637.01 C 239.36 637.14 242.25 637.27 245.13 637.35 C 243.59 645.47 244.30 653.77 244.18 661.99 C 244.81 674.31 246.20 686.65 249.20 698.64 C 248.66 698.79 247.57 699.09 247.02 699.24 C 240.96 685.64 237.16 670.92 236.72 656.00 C 235.86 649.68 237.19 643.33 236.48 637.01 Z" />
</g>
<g id="#1e75a1ff">
<path fill="#1e75a1" opacity="1.00" d=" M 273.71 637.11 C 276.39 637.05 279.08 636.95 281.77 636.84 C 282.65 644.61 282.82 652.50 284.77 660.12 C 286.96 668.51 288.64 677.08 291.86 685.17 C 289.03 686.17 286.20 687.16 283.36 688.13 C 282.80 685.27 282.16 682.43 281.24 679.67 C 278.79 672.66 277.42 665.34 276.03 658.06 C 274.67 651.20 275.49 644.10 273.75 637.30 L 273.71 637.11 Z" />
</g>
<g id="#20a4c8ff">
<path fill="#20a4c8" opacity="1.00" d=" M 245.13 637.35 C 248.44 637.39 251.76 637.44 255.07 637.47 C 255.97 648.31 255.91 659.22 257.32 670.02 C 258.26 678.45 259.72 686.82 261.31 695.15 C 257.28 696.33 253.25 697.52 249.20 698.64 C 246.20 686.65 244.81 674.31 244.18 661.99 C 244.30 653.77 243.59 645.47 245.13 637.35 Z" />
</g>
<g id="#1f8db4ff">
<path fill="#1f8db4" opacity="1.00" d=" M 255.07 637.47 C 259.69 637.44 264.32 637.44 268.95 637.31 C 269.25 645.57 267.81 653.81 268.78 662.06 C 268.84 672.02 270.86 681.82 273.27 691.45 C 269.30 692.72 265.31 693.97 261.31 695.15 C 259.72 686.82 258.26 678.45 257.32 670.02 C 255.91 659.22 255.97 648.31 255.07 637.47 Z" />
</g>
<g id="#1f7fa9ff">
<path fill="#1f7fa9" opacity="1.00" d=" M 268.95 637.31 C 270.54 637.29 272.14 637.29 273.75 637.30 C 275.49 644.10 274.67 651.20 276.03 658.06 C 277.42 665.34 278.79 672.66 281.24 679.67 C 282.16 682.43 282.80 685.27 283.36 688.13 C 280.00 689.26 276.64 690.37 273.27 691.45 C 270.86 681.82 268.84 672.02 268.78 662.06 C 267.81 653.81 269.25 645.57 268.95 637.31 Z" />
</g>
<g id="#80e0f1ff">
<path fill="#80e0f1" opacity="1.00" d=" M 76.87 665.85 C 87.87 653.25 103.32 645.53 119.06 640.57 C 118.40 647.01 116.79 653.29 115.43 659.60 C 113.91 666.49 116.38 673.32 117.87 679.98 C 120.55 691.89 126.09 702.85 130.90 713.99 C 136.67 728.72 139.89 744.28 144.31 759.43 C 145.46 764.43 150.47 766.92 152.61 771.35 C 154.51 775.25 155.85 779.40 157.56 783.39 C 161.38 793.19 167.84 801.61 173.30 810.52 C 152.03 814.04 129.14 813.36 109.58 803.43 C 78.79 787.60 58.34 753.67 58.53 719.07 C 58.50 700.01 64.28 680.44 76.87 665.85 Z" />
</g>
<g id="#1b5185ff">
<path fill="#1b5185" opacity="1.00" d=" M 393.63 688.84 C 399.15 680.09 405.35 671.80 411.82 663.74 C 415.41 666.99 419.39 669.76 423.61 672.13 C 419.26 678.01 415.93 684.55 413.25 691.34 C 406.64 691.22 400.04 690.48 393.63 688.84 Z" />
</g>
<g id="#1e78a3ff">
<path fill="#1e78a3" opacity="1.00" d=" M 273.17 694.14 C 281.67 691.38 290.18 688.64 298.54 685.48 C 300.74 691.45 302.25 697.63 304.27 703.66 C 307.12 712.40 312.46 719.99 317.26 727.74 C 311.62 732.20 306.05 736.76 300.34 741.15 C 293.00 732.36 286.10 723.10 281.40 712.59 C 278.13 706.67 276.54 700.00 273.17 694.14 Z" />
<path fill="#1e78a3" opacity="1.00" d=" M 314.16 758.73 C 317.17 753.15 320.52 747.77 323.97 742.46 C 328.54 746.78 332.11 752.05 336.88 756.17 C 340.10 758.95 343.28 761.79 346.63 764.43 C 350.47 767.53 355.52 768.97 358.76 772.84 C 358.08 777.22 357.56 781.62 357.12 786.03 C 350.09 782.67 343.91 777.76 336.66 774.86 C 329.79 768.60 321.28 764.65 314.16 758.73 Z" />
</g>
<g id="#1f91b7ff">
<path fill="#1f91b7" opacity="1.00" d=" M 261.64 697.71 C 265.49 696.56 269.35 695.38 273.17 694.14 C 276.54 700.00 278.13 706.67 281.40 712.59 C 286.10 723.10 293.00 732.36 300.34 741.15 C 297.33 743.45 294.35 745.80 291.33 748.08 C 286.18 743.83 280.31 740.12 276.77 734.30 C 269.68 723.07 265.51 710.32 261.64 697.71 Z" />
</g>
<g id="#20a7c9ff">
<path fill="#20a7c9" opacity="1.00" d=" M 248.90 701.35 C 253.15 700.16 257.41 698.97 261.64 697.71 C 265.51 710.32 269.68 723.07 276.77 734.30 C 280.31 740.12 286.18 743.83 291.33 748.08 C 289.94 749.12 288.55 750.17 287.17 751.22 C 283.19 746.35 280.29 740.65 275.75 736.25 C 269.95 730.41 263.76 724.85 259.15 717.97 C 255.71 713.31 253.72 707.84 251.60 702.51 C 250.92 702.22 249.58 701.64 248.90 701.35 Z" />
</g>
<g id="#20b5d6ff">
<path fill="#20b5d6" opacity="1.00" d=" M 248.90 701.35 C 249.58 701.64 250.92 702.22 251.60 702.51 C 253.72 707.84 255.71 713.31 259.15 717.97 C 263.76 724.85 269.95 730.41 275.75 736.25 C 280.29 740.65 283.19 746.35 287.17 751.22 C 283.59 753.93 280.02 756.65 276.41 759.32 C 263.61 741.95 255.64 721.69 248.90 701.35 Z" />
</g>
<g id="#1e6a97ff">
<path fill="#1e6a97" opacity="1.00" d=" M 323.97 742.46 C 327.18 737.60 330.59 732.89 334.10 728.25 C 339.15 732.42 343.75 737.13 349.29 740.69 C 353.65 744.15 358.99 745.86 363.78 748.59 C 361.54 756.54 359.94 764.67 358.76 772.84 C 355.52 768.97 350.47 767.53 346.63 764.43 C 343.28 761.79 340.10 758.95 336.88 756.17 C 332.11 752.05 328.54 746.78 323.97 742.46 Z" />
</g>
<g id="#209dc2ff">
<path fill="#209dc2" opacity="1.00" d=" M 314.16 758.73 C 321.28 764.65 329.79 768.60 336.66 774.86 C 342.92 781.03 349.34 787.17 356.56 792.23 C 356.22 796.93 356.00 801.64 355.78 806.36 C 355.52 805.63 354.99 804.18 354.72 803.45 C 344.46 799.07 334.52 793.88 325.33 787.53 C 318.79 783.43 313.13 778.15 306.90 773.64 C 309.09 768.56 311.60 763.63 314.16 758.73 Z" />
</g>
<g id="#1e719dff">
<path fill="#1e719d" opacity="1.00" d=" M 363.64 759.83 C 371.73 760.91 379.66 763.03 387.84 763.41 C 393.30 764.15 399.34 763.34 404.08 766.72 C 404.19 775.42 405.63 784.03 406.67 792.65 C 402.45 792.81 398.15 792.88 394.04 791.78 C 386.75 789.92 379.50 787.89 372.34 785.60 C 368.28 784.37 364.36 782.38 360.03 782.40 C 360.88 774.82 362.10 767.29 363.64 759.83 Z" />
</g>
<g id="#20b6d6ff">
<path fill="#20b6d6" opacity="1.00" d=" M 306.90 773.64 C 313.13 778.15 318.79 783.43 325.33 787.53 C 334.52 793.88 344.46 799.07 354.72 803.45 C 354.99 804.18 355.52 805.63 355.78 806.36 C 355.73 810.24 355.65 814.13 355.65 818.03 C 335.81 811.79 317.00 801.73 301.66 787.59 C 303.20 782.86 305.00 778.23 306.90 773.64 Z" />
</g>
<g id="#1f8cb3ff">
<path fill="#1f8cb3" opacity="1.00" d=" M 336.66 774.86 C 343.91 777.76 350.09 782.67 357.12 786.03 C 356.91 788.09 356.72 790.15 356.56 792.23 C 349.34 787.17 342.92 781.03 336.66 774.86 Z" />
</g>
<g id="#1f92b9ff">
<path fill="#1f92b9" opacity="1.00" d=" M 359.53 787.74 C 369.29 791.98 379.13 796.30 389.60 798.44 C 395.56 799.69 401.68 799.10 407.72 799.06 C 408.39 803.00 409.03 806.94 409.59 810.90 C 401.44 812.05 393.18 812.96 384.95 811.98 C 379.92 812.06 376.20 808.30 372.21 805.82 C 367.48 802.79 363.53 798.74 358.92 795.54 C 359.10 792.93 359.30 790.33 359.53 787.74 Z" />
</g>
<g id="#20a2c5ff">
<path fill="#20a2c5" opacity="1.00" d=" M 358.92 795.54 C 363.53 798.74 367.48 802.79 372.21 805.82 C 376.20 808.30 379.92 812.06 384.95 811.98 C 393.18 812.96 401.44 812.05 409.59 810.90 C 410.12 815.41 411.08 819.89 411.08 824.44 C 410.90 825.53 410.71 826.63 410.51 827.74 C 406.03 826.26 401.64 824.54 397.27 822.81 C 388.19 818.83 378.99 815.11 370.00 810.92 C 366.19 809.01 362.38 807.10 358.39 805.60 C 358.50 802.24 358.68 798.88 358.92 795.54 Z" />
</g>
<g id="#20b9d9ff">
<path fill="#20b9d9" opacity="1.00" d=" M 358.39 805.60 C 362.38 807.10 366.19 809.01 370.00 810.92 C 378.99 815.11 388.19 818.83 397.27 822.81 C 384.12 823.63 371.01 821.94 358.24 818.91 C 358.16 814.47 358.27 810.03 358.39 805.60 Z" />
</g>
<g id="#45d2eaff">
<path fill="#45d2ea" opacity="1.00" d=" M 295.88 827.90 C 308.55 831.51 321.01 835.78 333.62 839.59 C 347.47 843.64 360.93 848.87 374.57 853.55 C 386.14 857.01 398.34 856.49 410.27 856.31 C 408.38 866.61 404.28 877.11 395.89 883.85 C 387.41 890.83 376.43 894.59 365.52 895.01 C 355.93 891.77 345.99 889.70 336.37 886.53 C 332.78 885.30 329.28 883.39 325.37 883.58 L 325.19 883.57 C 313.19 875.24 303.76 863.02 299.45 849.00 C 297.27 842.18 296.28 835.04 295.88 827.90 Z" />
</g>
</svg>
