<?xml version="1.0" encoding="UTF-8" ?>
<!DOCTYPE svg PUBLIC "-//W3C//DTD SVG 1.1//EN" "http://www.w3.org/Graphics/SVG/1.1/DTD/svg11.dtd">
<svg width="256pt" height="256pt" viewBox="0 0 256 256" version="1.1" xmlns="http://www.w3.org/2000/svg">
<g id="#161616ff">
<path fill="#161616" opacity="1.00" d=" M 114.79 134.10 C 118.90 132.00 123.54 131.56 127.99 130.59 C 134.62 131.49 141.37 133.08 146.95 136.97 C 157.60 144.20 164.92 155.35 169.96 167.01 C 175.77 181.12 178.30 196.72 176.25 211.89 C 174.14 226.75 165.46 240.86 152.26 248.30 C 145.69 251.95 138.33 254.38 130.77 254.61 C 128.86 256.32 126.30 254.98 124.19 254.58 C 109.79 253.27 96.00 245.28 88.26 232.98 C 82.95 225.33 80.71 216.08 79.49 206.99 C 78.68 190.76 82.53 174.40 89.94 159.97 C 95.68 149.38 103.61 139.26 114.79 134.10 M 111.79 138.85 C 100.85 145.85 93.63 157.30 88.68 169.06 C 85.35 177.41 83.12 186.25 82.50 195.24 C 81.71 205.69 82.73 216.58 87.53 226.05 C 89.05 229.53 91.27 232.61 93.66 235.54 L 94.00 235.50 C 97.10 240.39 102.11 243.81 107.03 246.73 L 107.11 246.70 C 115.56 251.14 125.44 253.25 134.90 251.57 C 149.57 249.44 162.73 239.47 169.06 226.11 C 174.89 214.01 175.68 199.84 172.91 186.84 C 171.67 179.21 169.27 171.78 166.00 164.78 C 160.08 152.41 151.03 140.33 137.76 135.40 C 129.21 132.04 119.34 133.89 111.79 138.85 Z" />
</g>
<g id="#fefef9ff">
<path fill="#fefef9" opacity="1.00" d=" M 111.79 138.85 C 119.34 133.89 129.21 132.04 137.76 135.40 C 151.03 140.33 160.08 152.41 166.00 164.78 C 169.27 171.78 171.67 179.21 172.91 186.84 C 172.88 188.46 172.80 190.08 172.68 191.70 C 171.08 187.06 169.38 181.69 164.65 179.34 C 157.28 175.96 147.99 177.68 142.06 183.12 C 138.05 186.71 137.97 192.78 139.65 197.54 C 142.75 206.63 150.36 214.39 159.68 217.01 C 154.62 220.89 149.82 225.20 144.06 228.08 C 134.57 233.34 123.77 236.41 112.92 236.68 C 107.12 229.04 97.31 223.43 87.53 226.05 C 82.73 216.58 81.71 205.69 82.50 195.24 C 87.02 196.15 91.79 195.78 96.19 194.44 C 100.55 193.09 103.04 188.40 102.55 184.00 C 102.37 176.46 95.85 170.32 88.68 169.06 C 93.63 157.30 100.85 145.85 111.79 138.85 M 128.52 171.56 C 124.56 171.96 121.16 175.61 122.21 179.71 C 125.31 185.94 136.08 184.88 137.65 178.04 C 138.27 173.34 132.55 170.51 128.52 171.56 Z" />
</g>
<g id="#b8da99ff">
<path fill="#b8da99" opacity="1.00" d=" M 82.50 195.24 C 83.12 186.25 85.35 177.41 88.68 169.06 C 95.85 170.32 102.37 176.46 102.55 184.00 C 103.04 188.40 100.55 193.09 96.19 194.44 C 91.79 195.78 87.02 196.15 82.50 195.24 Z" />
<path fill="#b8da99" opacity="1.00" d=" M 128.52 171.56 C 132.55 170.51 138.27 173.34 137.65 178.04 C 136.08 184.88 125.31 185.94 122.21 179.71 C 121.16 175.61 124.56 171.96 128.52 171.56 Z" />
<path fill="#b8da99" opacity="1.00" d=" M 142.06 183.12 C 147.99 177.68 157.28 175.96 164.65 179.34 C 169.38 181.69 171.08 187.06 172.68 191.70 C 172.63 192.56 172.55 193.43 172.49 194.29 C 170.60 198.75 169.35 203.53 166.64 207.60 C 164.66 210.98 161.65 213.61 159.68 217.01 C 150.36 214.39 142.75 206.63 139.65 197.54 C 137.97 192.78 138.05 186.71 142.06 183.12 Z" />
<path fill="#b8da99" opacity="1.00" d=" M 87.53 226.05 C 97.31 223.43 107.12 229.04 112.92 236.68 C 110.63 236.61 108.35 236.58 106.06 236.50 C 102.01 236.40 98.07 234.73 94.00 235.50 L 93.66 235.54 C 91.27 232.61 89.05 229.53 87.53 226.05 Z" />
</g>
<g id="#c0b3b7ff">
<path fill="#c0b3b7" opacity="1.00" d=" M 172.91 186.84 C 175.68 199.84 174.89 214.01 169.06 226.11 C 162.73 239.47 149.57 249.44 134.90 251.57 C 125.44 253.25 115.56 251.14 107.11 246.70 C 109.35 245.79 111.75 245.15 113.77 243.78 C 116.09 241.74 113.71 238.85 112.92 236.68 C 123.77 236.41 134.57 233.34 144.06 228.08 C 149.82 225.20 154.62 220.89 159.68 217.01 C 164.87 216.74 169.73 213.55 171.55 208.61 C 173.13 204.07 173.61 198.99 172.49 194.29 C 172.55 193.43 172.63 192.56 172.68 191.70 C 172.80 190.08 172.88 188.46 172.91 186.84 Z" />
</g>
<g id="#89996fff">
<path fill="#89996f" opacity="1.00" d=" M 172.49 194.29 C 173.61 198.99 173.13 204.07 171.55 208.61 C 169.73 213.55 164.87 216.74 159.68 217.01 C 161.65 213.61 164.66 210.98 166.64 207.60 C 169.35 203.53 170.60 198.75 172.49 194.29 Z" />
</g>
<g id="#8b9971ff">
<path fill="#8b9971" opacity="1.00" d=" M 94.00 235.50 C 98.07 234.73 102.01 236.40 106.06 236.50 C 108.35 236.58 110.63 236.61 112.92 236.68 C 113.71 238.85 116.09 241.74 113.77 243.78 C 111.75 245.15 109.35 245.79 107.11 246.70 L 107.03 246.73 C 102.11 243.81 97.10 240.39 94.00 235.50 Z" />
</g>
</svg>
