<?xml version="1.0" encoding="UTF-8" ?>
<!DOCTYPE svg PUBLIC "-//W3C//DTD SVG 1.1//EN" "http://www.w3.org/Graphics/SVG/1.1/DTD/svg11.dtd">
<svg width="3000pt" height="3000pt" viewBox="0 0 3000 3000" version="1.1" xmlns="http://www.w3.org/2000/svg">
<g id="#000000ff">
<path fill="#000000" opacity="1.00" d=" M 887.13 294.33 C 890.99 293.05 894.95 294.85 898.35 296.60 C 909.59 302.65 919.69 310.55 929.53 318.61 C 950.55 336.12 970.02 355.40 989.00 375.07 C 1042.04 430.40 1089.64 490.75 1133.32 553.68 C 1169.98 606.51 1204.07 661.10 1235.80 717.03 C 1255.23 694.83 1278.29 675.97 1303.20 660.22 C 1334.23 640.64 1368.32 625.92 1403.85 616.76 C 1444.56 606.12 1487.75 604.04 1528.97 613.09 C 1568.46 621.55 1606.29 639.47 1636.26 666.77 C 1652.87 681.91 1667.86 698.87 1680.98 717.11 C 1683.05 719.57 1679.38 723.22 1676.96 721.12 C 1649.06 699.99 1618.58 682.17 1586.26 668.67 C 1550.31 653.85 1510.99 644.30 1471.95 649.12 C 1434.49 653.75 1399.03 669.60 1368.57 691.55 C 1343.03 709.73 1321.66 733.06 1302.83 757.97 C 1298.26 764.36 1293.05 770.40 1289.35 777.36 C 1294.63 775.31 1299.02 771.56 1304.02 768.94 C 1321.77 758.55 1340.32 749.38 1359.84 742.81 C 1400.68 729.13 1445.23 727.44 1487.21 736.68 C 1509.70 741.66 1531.50 749.94 1551.38 761.60 C 1577.55 777.12 1600.62 797.39 1621.34 819.55 C 1622.77 821.04 1624.73 823.07 1623.38 825.27 C 1620.92 828.06 1617.68 824.88 1615.27 823.71 C 1586.39 807.76 1555.53 795.20 1523.45 787.39 C 1498.25 781.39 1471.91 778.58 1446.17 782.55 C 1429.63 785.03 1413.85 791.20 1399.22 799.18 C 1396.38 800.75 1393.45 802.19 1390.91 804.22 C 1425.73 816.05 1459.77 830.35 1492.08 847.95 C 1550.68 879.62 1601.05 924.28 1646.77 972.27 C 1699.56 1027.69 1747.24 1087.69 1798.86 1144.18 C 1820.75 1168.56 1844.32 1191.38 1866.30 1215.69 C 1876.05 1226.79 1885.88 1238.12 1892.65 1251.36 C 1901.43 1269.18 1902.33 1289.43 1903.65 1308.89 C 1905.45 1349.95 1903.76 1391.07 1900.88 1432.04 C 1891.29 1562.57 1865.65 1691.74 1826.99 1816.72 C 1838.47 1823.56 1850.52 1829.64 1863.36 1833.51 C 1871.12 1835.93 1879.17 1837.73 1886.43 1841.52 C 1891.58 1844.10 1895.97 1848.24 1898.52 1853.45 C 1903.12 1862.54 1903.54 1873.05 1902.99 1883.04 C 1902.45 1890.47 1901.33 1897.89 1899.31 1905.08 C 1911.13 1914.75 1923.99 1923.07 1937.03 1931.00 C 1970.94 1951.44 2007.43 1967.37 2044.92 1979.99 C 2083.17 1992.77 2122.37 2002.48 2161.64 2011.54 C 2180.12 2015.88 2198.78 2019.39 2217.30 2023.51 C 2251.02 2002.08 2285.90 1982.49 2321.60 1964.56 C 2351.24 1949.89 2381.72 1936.81 2413.02 1926.09 C 2424.80 1922.24 2436.69 1918.29 2449.05 1916.81 C 2459.38 1915.41 2469.56 1918.37 2479.56 1920.59 C 2513.45 1928.67 2546.75 1939.17 2579.26 1951.69 C 2598.35 1959.08 2617.14 1967.28 2635.35 1976.66 C 2649.81 1983.94 2663.50 1992.76 2675.93 2003.15 C 2711.81 2033.05 2738.21 2072.34 2761.77 2112.22 C 2779.94 2143.02 2796.15 2176.13 2800.17 2212.11 C 2803.31 2238.36 2801.08 2264.90 2797.50 2290.98 C 2790.83 2338.37 2780.92 2385.23 2770.54 2431.93 C 2760.23 2478.07 2749.27 2524.06 2737.76 2569.92 C 2736.51 2574.43 2735.72 2579.21 2733.33 2583.32 C 2731.80 2586.14 2728.33 2587.76 2725.25 2586.59 C 2721.23 2584.89 2718.75 2581.05 2716.38 2577.61 C 2708.43 2564.97 2702.54 2551.20 2696.52 2537.58 C 2678.86 2496.33 2663.03 2454.33 2646.37 2412.67 C 2634.29 2382.44 2622.01 2351.78 2602.76 2325.26 C 2592.03 2310.52 2578.92 2297.44 2563.84 2287.16 C 2550.60 2278.07 2535.75 2271.57 2520.52 2266.62 C 2481.93 2254.27 2441.19 2250.66 2402.50 2238.62 C 2383.14 2232.81 2363.97 2225.90 2343.92 2222.82 C 2324.24 2219.76 2304.11 2220.98 2284.59 2224.55 C 2287.38 2244.91 2291.03 2265.22 2297.17 2284.87 C 2308.32 2320.97 2325.89 2354.64 2344.46 2387.40 C 2378.70 2448.63 2419.02 2506.32 2463.03 2560.90 C 2467.33 2566.30 2471.83 2571.62 2475.38 2577.58 C 2477.16 2580.71 2478.87 2584.27 2478.25 2588.00 C 2477.23 2592.00 2473.31 2594.19 2469.97 2596.07 C 2460.80 2600.78 2450.87 2603.73 2440.97 2606.44 C 2417.74 2612.48 2393.86 2615.99 2369.90 2617.19 C 2330.37 2619.54 2290.63 2613.46 2252.98 2601.45 C 2219.40 2590.80 2187.28 2575.81 2156.94 2557.94 C 2140.20 2548.00 2123.99 2536.65 2111.14 2521.88 C 2101.23 2510.56 2093.98 2497.13 2088.75 2483.09 C 2081.39 2463.36 2077.56 2442.56 2074.32 2421.84 C 2069.20 2388.26 2065.76 2354.16 2055.27 2321.71 C 2043.56 2321.56 2031.46 2319.74 2021.24 2313.72 C 2010.94 2307.55 2003.53 2297.73 1997.24 2287.73 C 1986.53 2270.41 1978.42 2251.62 1967.49 2234.43 C 1950.47 2207.53 1927.42 2185.31 1906.28 2161.75 C 1866.20 2117.22 1830.09 2069.30 1790.33 2024.48 C 1782.09 2027.21 1772.90 2029.17 1764.43 2026.34 C 1759.29 2024.66 1755.79 2020.27 1753.13 2015.81 C 1723.63 2083.05 1689.86 2148.50 1650.65 2210.63 C 1613.04 2270.16 1571.09 2327.33 1521.38 2377.40 C 1504.16 2394.90 1486.35 2411.82 1468.11 2428.25 C 1478.04 2440.08 1487.61 2452.36 1495.02 2465.97 C 1497.28 2470.44 1499.76 2474.99 1500.46 2480.05 C 1500.92 2482.99 1499.06 2486.35 1495.96 2486.82 C 1490.87 2487.44 1486.04 2485.20 1481.36 2483.57 C 1463.70 2476.56 1446.66 2468.13 1429.13 2460.83 C 1402.49 2481.26 1374.96 2500.52 1346.85 2518.88 C 1301.27 2548.47 1253.28 2574.20 1204.35 2597.77 C 1214.39 2611.32 1225.15 2624.34 1234.65 2638.29 C 1237.01 2642.21 1240.22 2646.34 1239.77 2651.19 C 1239.05 2655.22 1234.55 2656.66 1230.98 2656.99 C 1222.42 2657.65 1213.98 2655.43 1205.79 2653.24 C 1184.92 2647.18 1165.05 2638.10 1145.95 2627.81 C 1107.32 2642.64 1067.70 2654.83 1027.81 2665.80 C 934.76 2690.87 838.74 2708.02 742.07 2706.17 C 649.04 2704.21 555.55 2689.29 468.61 2655.37 C 430.02 2640.28 392.92 2621.59 357.09 2600.85 C 309.58 2573.19 264.04 2542.13 221.12 2507.78 C 219.10 2506.18 216.89 2504.53 216.26 2501.90 C 203.25 2500.93 190.00 2499.92 177.63 2495.45 C 173.10 2493.65 167.84 2491.09 166.50 2485.97 C 165.50 2481.23 168.96 2477.14 172.17 2474.15 C 176.73 2469.82 182.17 2466.60 186.92 2462.53 C 165.16 2442.11 150.00 2415.67 138.64 2388.33 C 136.98 2385.00 136.63 2380.81 133.61 2378.36 C 122.34 2368.71 111.73 2358.20 102.69 2346.42 C 98.44 2340.74 94.32 2334.78 91.99 2328.02 C 90.82 2324.45 90.36 2320.01 93.06 2317.02 C 96.05 2313.71 100.87 2313.48 105.02 2313.60 C 114.29 2314.05 123.33 2316.33 132.47 2317.71 C 202.83 2328.99 275.31 2324.61 344.39 2307.61 C 401.94 2293.63 458.22 2270.81 505.33 2234.36 C 550.56 2199.03 588.27 2154.97 620.96 2108.02 C 635.25 2087.40 648.50 2066.06 660.52 2044.03 C 655.02 2036.76 650.74 2028.57 648.35 2019.77 C 636.88 1979.32 627.73 1938.25 620.13 1896.92 C 615.51 1871.10 611.07 1845.16 609.66 1818.93 C 608.39 1798.96 609.43 1778.87 612.28 1759.08 C 615.32 1738.68 620.84 1718.53 629.83 1699.92 C 637.30 1684.32 646.84 1669.45 659.58 1657.63 C 664.99 1652.46 671.23 1648.32 677.54 1644.36 C 658.44 1616.16 640.43 1587.23 622.97 1558.00 C 603.13 1524.53 584.19 1490.48 567.62 1455.26 C 559.37 1437.56 551.68 1419.58 545.59 1401.02 C 540.21 1383.97 535.26 1366.17 536.73 1348.12 C 537.32 1338.42 542.08 1329.57 548.31 1322.31 C 570.97 1295.35 594.59 1269.23 617.73 1242.68 C 668.13 1185.16 717.53 1126.65 762.89 1065.03 C 775.09 1048.49 787.07 1031.79 798.92 1015.00 C 807.47 1002.84 816.06 990.69 823.90 978.06 C 834.61 960.72 842.92 942.03 849.96 922.94 C 850.63 920.83 852.15 918.42 850.51 916.36 C 835.56 888.93 812.59 865.71 784.77 851.36 C 763.11 839.93 738.27 835.75 713.96 836.50 C 683.81 837.38 654.20 844.74 625.97 855.04 C 606.27 862.25 587.18 871.09 568.84 881.26 C 566.47 882.85 563.33 879.35 565.18 877.17 C 567.58 873.97 570.57 871.26 573.26 868.32 C 591.51 849.64 611.51 832.49 633.78 818.77 C 659.42 803.06 688.41 793.12 718.12 788.74 C 752.23 783.65 787.47 785.74 820.61 795.45 C 842.04 801.57 862.16 811.41 881.60 822.19 C 882.83 819.13 884.16 816.12 885.71 813.21 C 876.77 801.28 867.19 789.82 856.94 779.00 C 837.68 758.79 815.27 741.54 790.63 728.40 C 767.43 716.04 742.12 707.31 715.95 704.19 C 679.32 699.76 642.36 708.12 608.34 721.38 C 573.71 735.11 541.13 753.89 511.47 776.37 C 508.57 778.41 505.54 774.24 507.81 771.84 C 524.41 749.21 543.43 728.10 565.61 710.79 C 598.39 685.62 638.21 670.34 679.04 664.82 C 714.36 659.97 750.50 663.09 784.95 672.00 C 828.60 683.33 870.22 702.80 906.44 729.74 C 907.78 702.77 905.76 675.80 903.72 648.93 C 898.77 589.20 891.84 529.66 885.99 470.03 C 882.28 432.13 878.71 394.19 877.19 356.14 C 876.95 344.78 876.66 333.40 877.34 322.05 C 877.90 315.20 878.38 308.22 880.75 301.71 C 881.90 298.63 883.84 295.44 887.13 294.33 M 886.82 304.38 C 884.07 313.65 883.89 323.40 883.68 332.99 C 883.44 348.68 884.15 364.37 885.07 380.03 C 891.18 472.23 903.75 563.86 910.97 655.97 C 913.02 682.18 914.38 708.49 912.92 734.77 C 935.83 752.41 955.67 773.77 972.80 797.01 C 972.75 797.68 972.63 799.01 972.57 799.68 C 971.41 799.51 969.94 800.08 969.13 799.02 C 951.80 778.45 933.49 758.49 912.44 741.64 C 874.34 710.99 829.34 689.22 782.01 677.16 C 745.21 667.80 706.41 665.28 668.96 672.19 C 630.00 679.20 592.34 695.45 561.97 721.06 C 548.11 732.77 535.66 746.06 524.10 760.03 C 553.97 739.90 585.97 722.64 620.11 710.97 C 652.93 699.80 688.29 693.85 722.83 699.35 C 768.80 706.49 811.34 729.38 845.78 760.19 C 871.64 783.51 892.65 811.68 911.10 841.06 C 916.89 845.92 923.43 849.92 929.09 854.98 C 930.14 855.79 929.67 857.39 929.25 858.44 C 926.03 859.02 924.00 855.78 921.50 854.33 C 892.87 833.45 861.75 815.51 828.19 803.84 C 771.30 784.61 706.78 788.41 652.78 814.81 C 626.22 828.09 602.76 846.94 581.88 867.89 C 598.69 859.49 616.06 852.18 633.88 846.20 C 662.55 836.63 692.63 830.17 722.99 830.78 C 745.32 831.06 767.76 835.95 787.61 846.38 C 817.82 862.05 842.54 887.74 857.86 918.07 C 865.68 933.83 870.73 950.83 874.43 967.99 C 875.18 971.75 876.40 975.58 875.43 979.43 C 873.72 979.44 871.16 980.22 870.56 977.99 C 867.02 960.62 863.08 943.08 855.54 926.93 C 846.95 951.25 834.96 974.25 820.77 995.75 C 805.33 1017.34 790.22 1039.19 774.48 1060.57 C 728.32 1124.02 677.82 1184.17 626.18 1243.20 C 602.44 1270.45 578.22 1297.29 554.88 1324.88 C 549.90 1330.72 545.16 1337.25 543.92 1345.01 C 541.73 1357.67 544.30 1370.55 547.26 1382.87 C 553.94 1408.59 564.57 1433.09 575.89 1457.07 C 591.80 1490.36 609.79 1522.62 628.59 1554.36 C 646.21 1583.97 664.58 1613.14 683.76 1641.76 C 690.95 1639.05 698.61 1638.14 706.09 1636.56 C 734.82 1631.66 764.42 1639.40 789.58 1653.35 C 817.20 1668.58 839.50 1692.02 856.84 1718.11 C 874.75 1745.09 887.87 1775.05 897.33 1805.96 C 903.85 1827.23 907.99 1849.13 914.50 1870.40 C 919.23 1885.72 925.43 1900.89 935.38 1913.62 C 945.41 1926.53 958.79 1936.32 969.07 1948.99 C 974.78 1955.95 979.01 1964.74 978.16 1973.97 C 976.84 1990.35 969.28 2005.46 960.98 2019.36 C 959.50 2021.38 956.37 2023.96 958.31 2026.64 C 965.88 2040.38 974.47 2053.57 983.77 2066.22 C 999.75 2087.98 1018.59 2107.99 1041.35 2122.75 C 1047.82 2126.74 1054.04 2131.40 1061.18 2134.14 C 1080.32 2144.84 1100.79 2153.00 1121.32 2160.64 C 1137.39 2166.66 1154.09 2171.07 1169.68 2178.35 C 1183.08 2184.60 1195.50 2193.70 1203.99 2205.95 C 1212.55 2218.25 1214.23 2233.83 1214.26 2248.42 C 1234.97 2257.28 1255.12 2267.41 1275.08 2277.87 C 1278.30 2279.44 1281.29 2281.59 1284.75 2282.69 C 1285.86 2284.49 1287.95 2285.20 1289.72 2286.24 C 1314.61 2299.90 1338.73 2314.98 1361.92 2331.37 C 1367.41 2323.17 1373.17 2315.12 1378.09 2306.58 C 1399.05 2274.33 1419.23 2241.55 1437.68 2207.79 C 1460.80 2165.82 1481.69 2122.64 1500.52 2078.59 C 1539.75 1987.27 1570.62 1892.28 1591.03 1794.98 C 1606.86 1720.04 1616.83 1643.66 1617.35 1567.00 C 1618.16 1488.47 1608.25 1409.88 1588.07 1333.99 C 1569.14 1262.23 1541.33 1192.96 1506.86 1127.28 L 1506.64 1127.29 C 1482.45 1080.65 1453.81 1036.43 1422.93 993.96 C 1380.05 935.38 1332.53 880.19 1281.17 828.88 C 1267.05 814.88 1252.86 800.85 1236.95 788.86 C 1233.72 786.22 1229.96 783.82 1228.04 779.99 C 1226.42 776.87 1228.82 773.24 1232.01 772.54 C 1240.54 770.51 1249.39 771.66 1258.04 772.02 C 1252.15 760.58 1246.00 749.27 1239.80 738.00 C 1205.32 675.76 1167.84 615.17 1127.27 556.72 C 1079.80 488.40 1027.69 423.08 968.89 364.12 C 950.25 345.70 931.23 327.48 910.03 311.99 C 903.62 307.57 897.21 302.84 889.75 300.36 C 888.46 301.45 887.56 302.88 886.82 304.38 M 1397.56 624.38 C 1337.03 641.57 1280.69 674.96 1238.63 722.01 C 1247.88 738.72 1257.27 755.36 1265.76 772.48 C 1271.77 773.49 1277.79 774.51 1283.77 775.74 C 1295.18 758.77 1307.31 742.25 1320.95 726.99 C 1341.51 703.79 1366.04 684.06 1393.28 669.22 C 1426.51 651.12 1464.40 640.26 1502.45 642.35 C 1528.02 643.77 1553.13 649.98 1577.07 658.91 C 1607.80 670.48 1636.96 686.14 1663.99 704.77 C 1655.18 693.18 1644.92 682.71 1634.32 672.74 C 1591.65 633.00 1532.80 613.14 1474.98 613.07 C 1448.80 613.08 1422.72 617.27 1397.56 624.38 M 1399.14 739.23 C 1362.90 744.48 1328.98 759.86 1297.82 778.60 C 1326.91 784.68 1355.54 792.73 1383.85 801.70 C 1396.82 793.26 1410.82 786.32 1425.55 781.53 C 1450.23 773.72 1476.73 773.64 1502.15 777.41 C 1538.49 782.88 1573.19 796.03 1606.06 812.13 C 1586.84 792.89 1565.40 775.55 1541.42 762.58 C 1498.19 739.61 1447.40 732.12 1399.14 739.23 M 1235.10 778.51 C 1242.19 784.96 1250.20 790.32 1257.24 796.85 C 1278.61 816.06 1298.61 836.74 1318.35 857.61 C 1345.99 887.13 1372.45 917.78 1397.53 949.51 C 1441.29 1005.01 1481.21 1063.77 1513.91 1126.50 C 1560.39 1215.07 1594.33 1310.49 1611.34 1409.16 C 1624.96 1487.23 1627.19 1567.06 1620.31 1645.94 C 1614.77 1710.72 1603.35 1774.91 1588.14 1838.09 C 1575.07 1892.25 1558.83 1945.63 1539.72 1997.97 C 1507.99 2084.64 1469.28 2168.86 1422.31 2248.37 C 1414.07 2262.13 1406.05 2276.05 1397.14 2289.39 C 1387.19 2304.65 1377.42 2320.05 1367.27 2335.19 C 1387.67 2350.78 1407.76 2366.88 1426.40 2384.57 C 1439.51 2396.68 1451.72 2409.77 1463.83 2422.82 C 1489.03 2400.47 1513.18 2376.86 1536.09 2352.14 C 1562.89 2323.27 1587.28 2292.23 1609.92 2260.00 C 1614.34 2253.32 1619.58 2247.12 1623.24 2239.99 C 1625.29 2237.47 1626.88 2234.61 1628.75 2231.98 C 1669.91 2170.18 1705.39 2104.71 1736.20 2037.19 C 1773.45 1955.15 1804.52 1870.33 1829.83 1783.87 C 1862.75 1670.76 1884.74 1554.38 1893.81 1436.90 C 1896.48 1400.30 1898.28 1363.59 1897.58 1326.89 C 1896.90 1307.23 1896.50 1287.33 1891.81 1268.13 C 1887.46 1250.82 1875.76 1236.83 1864.37 1223.61 C 1843.59 1200.12 1820.95 1178.36 1799.85 1155.17 C 1774.02 1127.31 1749.47 1098.30 1724.58 1069.62 C 1705.86 1047.96 1687.22 1026.22 1668.00 1005.01 C 1624.06 956.49 1577.14 909.79 1522.18 873.75 C 1489.55 852.35 1454.26 835.27 1417.94 821.14 C 1379.62 806.33 1340.10 794.65 1299.98 785.83 C 1278.68 781.36 1257.02 776.20 1235.10 778.51 M 887.76 825.94 C 891.84 828.68 896.09 831.17 900.20 833.87 C 897.43 828.68 893.53 824.21 890.40 819.25 C 889.44 821.38 887.51 823.59 887.76 825.94 M 710.47 1642.68 C 702.05 1643.83 693.78 1645.96 685.71 1648.61 C 678.68 1650.86 672.63 1655.30 667.03 1659.98 C 652.64 1672.27 642.37 1688.62 634.53 1705.67 C 619.02 1739.75 614.78 1777.91 616.13 1815.01 C 617.50 1843.99 622.51 1872.62 627.71 1901.12 C 635.09 1940.41 643.87 1979.46 654.80 2017.93 C 657.26 2027.13 662.05 2035.55 668.16 2042.83 C 679.61 2056.56 693.93 2067.63 709.02 2077.11 C 734.22 2092.66 762.26 2104.00 791.57 2108.72 C 813.13 2112.03 835.91 2111.70 856.40 2103.48 C 870.49 2097.81 883.41 2089.60 895.56 2080.56 C 917.10 2064.27 936.04 2044.48 951.13 2022.08 C 958.83 2010.39 965.75 1997.97 969.57 1984.44 C 971.53 1977.08 972.77 1968.86 969.29 1961.76 C 964.59 1952.03 956.23 1944.85 948.67 1937.40 C 938.86 1928.13 929.25 1918.35 922.51 1906.54 C 913.54 1891.25 908.28 1874.17 903.79 1857.14 C 898.85 1838.16 894.72 1818.94 888.52 1800.32 C 877.88 1767.96 863.06 1736.71 842.49 1709.45 C 824.82 1686.02 802.25 1665.72 775.29 1653.66 C 755.14 1644.50 732.57 1639.69 710.47 1642.68 M 1824.87 1823.32 C 1820.96 1836.01 1816.71 1848.59 1812.63 1861.22 L 1812.27 1861.45 C 1809.03 1872.78 1804.46 1883.68 1801.06 1894.96 C 1810.56 1884.40 1821.07 1874.09 1834.23 1868.28 C 1841.90 1864.75 1851.10 1865.26 1858.32 1869.65 C 1871.92 1877.63 1881.57 1890.50 1893.76 1900.27 C 1896.16 1888.95 1897.32 1877.27 1895.91 1865.74 L 1895.50 1865.45 C 1894.54 1860.47 1892.77 1855.44 1889.21 1851.73 C 1881.01 1844.03 1869.23 1842.80 1859.04 1839.17 C 1847.03 1835.34 1835.78 1829.55 1824.87 1823.32 M 1830.62 1877.64 C 1818.17 1885.50 1807.96 1896.42 1799.19 1908.14 C 1796.48 1911.91 1793.54 1915.60 1791.76 1919.93 C 1787.00 1932.31 1782.58 1944.83 1777.48 1957.08 C 1775.88 1960.69 1774.60 1964.44 1773.06 1968.09 C 1772.46 1969.61 1771.61 1971.24 1772.14 1972.96 C 1773.80 1980.15 1776.06 1987.22 1778.95 1994.03 C 1783.32 2004.31 1790.01 2013.38 1797.13 2021.92 C 1806.61 2033.10 1816.32 2044.10 1825.66 2055.41 C 1852.81 2087.90 1879.06 2121.15 1907.23 2152.78 C 1928.18 2176.50 1951.28 2198.53 1969.18 2224.79 C 1980.32 2241.00 1988.52 2258.93 1998.11 2276.05 C 2004.34 2286.92 2011.11 2298.00 2021.24 2305.70 C 2030.34 2312.49 2041.98 2314.58 2053.09 2314.97 C 2049.02 2303.03 2043.79 2291.44 2041.12 2279.08 C 2036.08 2256.36 2038.23 2232.03 2047.71 2210.74 C 2053.84 2197.01 2061.97 2184.21 2071.34 2172.47 C 2074.32 2169.41 2073.09 2164.83 2073.79 2161.01 C 2074.32 2145.21 2083.54 2131.30 2094.25 2120.31 C 2117.48 2096.60 2143.21 2075.45 2170.03 2055.94 C 2183.00 2046.28 2196.70 2037.66 2209.97 2028.41 C 2205.62 2027.68 2201.31 2026.80 2197.04 2025.82 L 2196.59 2026.07 C 2166.62 2019.70 2136.73 2012.90 2107.08 2005.16 C 2073.85 1996.54 2040.86 1986.76 2009.00 1973.92 C 1973.93 1959.88 1940.10 1942.48 1909.07 1920.87 C 1896.27 1911.94 1884.49 1901.63 1873.46 1890.61 C 1866.67 1884.27 1860.00 1877.24 1851.21 1873.72 C 1844.20 1870.98 1836.63 1873.87 1830.62 1877.64 M 2444.95 1924.15 C 2431.75 1926.68 2418.99 1931.04 2406.34 1935.50 C 2372.79 1947.61 2340.16 1962.21 2308.57 1978.75 C 2270.37 1998.63 2233.09 2020.34 2197.60 2044.74 C 2168.82 2064.42 2140.74 2085.34 2115.40 2109.35 L 2115.28 2109.81 C 2111.72 2111.52 2109.44 2114.94 2106.51 2117.46 C 2098.91 2124.92 2091.14 2132.53 2086.10 2142.03 C 2080.85 2151.79 2079.64 2163.17 2080.05 2174.10 C 2082.30 2208.62 2110.09 2239.37 2143.79 2246.31 C 2163.85 2249.92 2184.07 2244.78 2203.35 2239.51 L 2202.50 2238.76 C 2203.67 2238.81 2204.85 2238.69 2206.03 2238.41 C 2224.35 2233.20 2242.43 2227.13 2260.97 2222.69 C 2285.09 2216.75 2310.06 2212.82 2334.96 2215.00 C 2356.56 2216.82 2377.22 2223.78 2397.80 2230.18 C 2415.55 2235.88 2433.72 2240.14 2451.99 2243.78 C 2489.32 2251.43 2528.24 2257.49 2561.35 2277.58 C 2577.17 2287.26 2591.15 2299.85 2602.78 2314.28 C 2622.63 2338.98 2635.59 2368.22 2647.45 2397.36 C 2664.74 2440.21 2681.04 2483.46 2698.89 2526.08 C 2705.42 2541.28 2711.82 2556.62 2720.13 2570.97 C 2722.27 2574.29 2724.14 2578.15 2727.70 2580.24 C 2729.93 2574.23 2731.62 2567.95 2732.77 2561.67 C 2741.64 2527.29 2749.71 2492.71 2757.73 2458.12 C 2768.36 2411.33 2778.86 2364.47 2786.71 2317.12 C 2790.52 2293.91 2794.03 2270.59 2794.85 2247.05 C 2795.58 2226.17 2793.75 2205.06 2787.88 2184.95 C 2782.07 2164.75 2772.94 2145.68 2762.75 2127.37 C 2747.31 2100.12 2730.67 2073.42 2711.08 2048.94 C 2691.46 2024.53 2668.38 2002.32 2640.79 1987.14 C 2622.48 1977.13 2603.44 1968.55 2584.09 1960.78 C 2546.72 1945.97 2508.26 1933.78 2469.01 1925.06 C 2461.14 1923.13 2452.92 1922.41 2444.95 1924.15 M 1767.45 1981.85 C 1763.96 1990.61 1760.10 1999.21 1756.56 2007.95 C 1759.04 2012.05 1760.78 2017.14 1765.32 2019.47 C 1771.88 2022.50 1779.36 2020.62 1786.02 2018.90 C 1782.87 2014.34 1779.57 2009.87 1776.92 2005.00 C 1772.75 1997.73 1770.02 1989.79 1767.45 1981.85 M 891.69 2091.75 C 876.28 2102.26 859.49 2111.53 841.00 2115.15 C 818.27 2119.60 794.70 2117.39 772.39 2111.73 C 757.80 2107.95 743.51 2102.85 729.98 2096.20 C 742.01 2127.89 759.91 2156.94 779.79 2184.26 C 796.94 2207.86 815.52 2230.37 834.21 2252.76 C 852.06 2274.16 869.95 2295.63 885.23 2318.98 C 898.36 2339.07 909.54 2360.65 916.28 2383.76 C 920.38 2397.56 923.73 2411.76 930.42 2424.62 C 934.72 2432.93 942.11 2439.15 950.01 2443.93 C 953.56 2445.90 957.04 2448.25 961.10 2449.06 L 961.07 2449.92 C 970.67 2453.70 980.65 2456.54 990.85 2458.18 C 994.13 2440.72 1000.05 2423.24 1011.16 2409.14 C 1021.87 2395.96 1037.70 2386.01 1055.00 2385.39 C 1068.88 2384.97 1081.80 2391.99 1092.01 2400.90 C 1104.17 2411.32 1113.07 2424.96 1120.12 2439.22 C 1136.54 2432.26 1152.24 2423.40 1166.07 2412.09 C 1171.63 2407.37 1177.54 2402.90 1182.32 2397.35 C 1167.18 2391.85 1151.93 2384.16 1142.05 2371.00 C 1131.58 2356.78 1129.48 2337.99 1132.22 2320.94 C 1135.69 2298.92 1146.59 2277.24 1164.98 2264.05 C 1177.47 2255.40 1192.21 2250.62 1207.04 2247.90 C 1207.03 2243.25 1207.41 2238.58 1206.68 2233.99 C 1205.59 2225.18 1203.30 2216.26 1197.94 2209.03 C 1189.63 2197.48 1177.56 2189.13 1164.66 2183.44 C 1149.15 2176.58 1132.70 2172.23 1116.88 2166.20 C 1077.32 2151.67 1037.72 2133.62 1007.28 2103.71 C 985.86 2082.29 968.10 2057.38 953.15 2031.10 C 936.38 2054.65 915.46 2075.28 891.69 2091.75 M 663.80 2051.77 C 649.29 2078.26 632.73 2103.59 614.95 2127.99 C 594.39 2155.96 571.99 2182.68 546.97 2206.78 C 526.01 2227.07 503.26 2245.62 478.35 2260.88 L 478.39 2261.14 C 444.90 2281.75 408.17 2296.74 370.47 2307.69 C 337.98 2317.09 304.70 2323.76 271.10 2327.64 C 269.88 2326.98 268.37 2327.64 267.07 2327.64 C 218.45 2332.74 169.06 2331.40 120.95 2322.49 C 114.63 2321.47 108.29 2319.99 101.85 2320.27 C 100.27 2320.51 97.43 2320.60 97.81 2322.94 C 98.03 2326.69 100.01 2330.03 101.80 2333.26 C 107.79 2343.21 115.60 2351.93 123.74 2360.17 C 136.86 2373.24 151.42 2384.85 166.97 2394.89 C 189.81 2409.82 215.42 2420.29 242.00 2426.36 C 255.17 2416.20 267.46 2404.94 279.36 2393.34 C 283.28 2389.69 286.60 2385.43 290.77 2382.06 C 291.27 2382.53 292.27 2383.47 292.77 2383.94 C 286.87 2392.46 279.65 2400.00 272.65 2407.63 C 261.39 2419.50 248.94 2430.26 235.37 2439.40 C 216.04 2452.77 194.98 2463.71 176.93 2478.88 C 175.06 2480.64 171.04 2484.18 174.55 2486.33 C 180.54 2490.44 187.98 2491.57 194.97 2492.93 C 218.17 2496.51 241.86 2495.91 265.13 2493.28 C 293.76 2489.80 321.72 2481.87 348.59 2471.55 C 356.75 2451.35 365.45 2431.36 374.81 2411.68 C 375.30 2409.75 377.54 2410.43 379.00 2410.13 C 379.28 2411.65 379.62 2413.25 378.73 2414.72 C 372.64 2428.44 366.82 2442.29 361.21 2456.23 C 351.62 2480.41 342.12 2504.75 335.79 2530.03 C 334.68 2535.27 333.11 2540.57 333.45 2545.99 C 333.50 2548.22 336.00 2549.08 337.89 2549.10 C 344.22 2549.35 350.34 2547.27 356.25 2545.27 C 370.73 2539.93 384.37 2532.56 397.65 2524.75 C 422.74 2509.79 446.42 2492.52 468.85 2473.82 C 508.73 2440.47 543.52 2401.46 575.41 2360.51 C 578.65 2356.63 581.21 2352.18 584.80 2348.61 C 587.50 2347.32 588.71 2351.17 586.86 2352.86 C 558.25 2393.18 526.37 2431.43 489.65 2464.64 C 486.78 2467.90 486.86 2472.65 485.52 2476.64 C 478.67 2505.86 475.33 2536.65 481.57 2566.28 C 486.38 2588.43 496.47 2609.45 510.91 2626.94 C 520.42 2638.47 531.86 2648.27 544.02 2656.91 C 558.30 2666.96 573.65 2675.49 589.64 2682.52 C 594.90 2684.93 600.73 2685.41 606.35 2686.53 C 650.45 2694.22 695.15 2698.47 739.91 2699.45 C 787.44 2700.52 835.00 2696.90 882.00 2689.93 C 889.47 2689.01 896.74 2687.00 903.92 2684.84 C 942.23 2673.47 979.86 2659.73 1016.31 2643.35 C 1045.28 2630.45 1073.15 2615.20 1099.95 2598.28 C 1053.54 2563.41 1019.04 2515.30 991.03 2465.09 C 979.65 2462.88 968.27 2460.19 957.65 2455.44 C 944.96 2449.85 932.57 2441.79 925.41 2429.59 C 915.48 2411.87 912.48 2391.48 905.43 2372.65 C 891.61 2335.61 867.38 2303.77 842.56 2273.47 C 806.15 2229.37 768.02 2185.95 740.53 2135.46 C 732.80 2121.54 726.80 2106.76 721.01 2091.97 C 716.83 2089.05 712.07 2087.02 707.80 2084.22 C 692.59 2074.92 678.16 2064.06 666.21 2050.77 C 665.38 2049.18 664.16 2050.89 663.80 2051.77 M 2056.58 2207.61 C 2046.36 2227.58 2042.48 2250.92 2046.71 2273.03 C 2048.59 2283.95 2052.61 2294.32 2056.50 2304.64 C 2062.47 2320.33 2066.89 2336.58 2070.23 2353.03 C 2075.42 2378.19 2078.06 2403.77 2082.26 2429.10 C 2085.40 2447.72 2089.26 2466.36 2096.27 2483.96 C 2101.27 2496.58 2108.12 2508.58 2117.26 2518.68 C 2129.70 2532.61 2145.28 2543.27 2161.27 2552.72 C 2206.45 2579.14 2255.83 2599.50 2307.78 2607.52 C 2332.95 2611.44 2358.59 2611.87 2383.94 2609.51 C 2406.23 2607.37 2428.46 2603.58 2449.86 2596.87 L 2450.16 2597.09 C 2456.98 2594.58 2464.09 2592.41 2470.17 2588.31 C 2473.50 2586.43 2470.61 2582.83 2469.45 2580.51 C 2462.84 2570.37 2454.58 2561.44 2447.27 2551.83 C 2424.80 2523.33 2403.38 2493.99 2383.29 2463.76 C 2363.99 2434.83 2346.28 2404.88 2329.55 2374.41 C 2313.77 2345.51 2299.33 2315.66 2289.93 2284.03 C 2284.16 2265.03 2280.75 2245.42 2277.97 2225.79 C 2275.03 2226.33 2272.10 2226.92 2269.20 2227.55 C 2275.24 2255.95 2283.05 2284.07 2293.92 2311.03 C 2301.20 2328.85 2309.85 2346.09 2318.91 2363.08 C 2343.99 2410.69 2371.97 2456.70 2401.19 2501.86 C 2411.08 2517.29 2421.36 2532.48 2430.53 2548.36 C 2433.04 2553.05 2435.94 2557.71 2437.04 2562.99 C 2437.83 2566.00 2436.01 2569.23 2433.07 2570.18 C 2427.89 2571.94 2422.30 2571.79 2416.92 2571.63 C 2395.93 2570.48 2375.26 2566.08 2355.03 2560.56 C 2324.68 2552.03 2295.18 2540.05 2268.15 2523.76 C 2212.20 2489.98 2170.38 2433.96 2153.07 2371.02 C 2141.53 2329.76 2138.57 2286.29 2122.78 2246.21 C 2097.38 2233.51 2078.02 2208.56 2073.84 2180.26 C 2067.15 2188.72 2061.49 2198.00 2056.58 2207.61 M 1189.98 2259.10 C 1176.20 2263.64 1163.18 2271.56 1154.63 2283.51 C 1150.10 2289.86 1145.73 2296.78 1144.08 2304.48 L 1143.49 2303.55 C 1138.86 2316.39 1136.65 2330.29 1138.48 2343.89 C 1139.84 2353.87 1143.75 2363.72 1150.80 2371.06 C 1158.38 2379.07 1168.27 2384.45 1178.34 2388.68 C 1193.07 2394.75 1208.58 2398.61 1224.08 2402.15 C 1268.13 2412.07 1313.52 2415.28 1357.11 2427.38 C 1364.92 2429.27 1372.37 2432.43 1380.17 2434.31 C 1411.40 2445.19 1441.57 2458.80 1471.73 2472.31 C 1478.97 2475.19 1486.03 2479.07 1493.85 2480.13 C 1489.82 2467.99 1482.24 2457.46 1474.76 2447.24 C 1455.70 2422.25 1433.47 2399.85 1410.16 2378.84 C 1384.44 2355.77 1356.88 2334.72 1327.65 2316.28 C 1290.28 2292.76 1251.12 2272.04 1210.64 2254.42 C 1203.63 2254.61 1196.70 2257.06 1189.98 2259.10 M 146.14 2388.74 C 152.45 2404.02 160.34 2418.67 169.73 2432.28 C 176.31 2441.95 184.25 2450.57 192.41 2458.92 C 197.71 2455.80 202.76 2452.29 208.00 2449.09 C 216.90 2443.29 226.25 2438.09 234.58 2431.48 C 214.66 2426.24 195.18 2419.03 177.24 2408.85 C 166.35 2402.96 156.28 2395.77 146.14 2388.74 M 1030.37 2400.36 C 1018.75 2407.92 1010.47 2419.60 1005.11 2432.23 L 1005.37 2432.55 C 1001.46 2441.86 998.23 2451.72 997.24 2461.77 C 1011.46 2488.83 1028.58 2514.39 1047.79 2538.17 C 1066.37 2561.18 1087.92 2581.84 1112.15 2598.84 C 1139.52 2618.07 1169.32 2634.17 1201.09 2644.81 C 1211.45 2647.89 1222.25 2651.58 1233.20 2649.92 C 1231.50 2644.97 1228.26 2640.80 1225.32 2636.57 C 1213.43 2620.21 1200.59 2604.56 1188.78 2588.15 C 1184.30 2580.82 1178.80 2574.15 1174.20 2566.90 C 1163.93 2551.42 1154.37 2535.44 1146.19 2518.76 C 1136.86 2499.99 1130.20 2480.08 1122.30 2460.70 C 1115.32 2443.73 1107.43 2426.65 1094.87 2413.01 C 1086.71 2404.25 1076.85 2396.39 1065.10 2393.24 C 1053.18 2389.98 1040.51 2393.91 1030.37 2400.36 M 1189.45 2400.37 C 1183.15 2406.40 1176.72 2412.33 1169.88 2417.77 C 1155.80 2429.21 1139.88 2438.26 1123.19 2445.29 C 1132.21 2465.56 1139.12 2486.69 1148.16 2506.95 C 1154.88 2521.81 1162.82 2536.09 1171.31 2550.00 C 1186.28 2537.80 1200.03 2524.20 1213.75 2510.64 C 1241.58 2482.82 1268.00 2453.62 1293.81 2423.92 C 1294.36 2423.28 1295.85 2421.26 1294.00 2421.33 C 1266.75 2417.09 1239.42 2413.09 1212.62 2406.49 C 1204.80 2404.82 1197.21 2402.04 1189.45 2400.37 M 1300.13 2426.98 C 1284.50 2445.03 1268.57 2462.80 1252.37 2480.34 C 1227.65 2506.54 1202.60 2532.58 1175.07 2555.87 C 1183.00 2568.24 1191.42 2580.29 1200.21 2592.06 C 1208.44 2588.56 1216.32 2584.31 1224.37 2580.43 C 1260.09 2562.54 1295.21 2543.36 1329.11 2522.19 C 1360.85 2502.06 1391.90 2480.78 1421.71 2457.88 C 1404.33 2450.07 1386.38 2443.52 1368.26 2437.67 C 1347.92 2431.19 1326.96 2426.87 1305.93 2423.32 C 1303.10 2422.27 1301.72 2425.30 1300.13 2426.98 M 398.19 2532.19 C 384.57 2540.06 370.57 2547.47 355.65 2552.56 C 349.62 2554.44 343.35 2556.26 336.97 2555.78 C 333.08 2555.44 328.98 2553.45 327.51 2549.64 C 326.06 2545.55 326.82 2541.15 327.47 2537.01 C 331.18 2517.44 338.27 2498.75 345.13 2480.12 C 332.84 2484.48 320.42 2488.52 307.80 2491.80 C 280.82 2499.11 252.84 2502.38 224.91 2502.18 C 251.98 2524.13 280.40 2544.38 309.48 2563.58 C 352.37 2591.65 397.08 2617.12 443.99 2637.87 C 482.96 2655.01 523.53 2668.70 565.10 2677.93 C 542.04 2665.10 520.05 2649.36 503.57 2628.50 C 488.41 2609.22 478.17 2586.13 473.90 2561.99 C 468.87 2532.69 472.73 2502.74 479.02 2473.96 C 453.77 2495.57 426.88 2515.36 398.19 2532.19 M 1103.81 2603.84 C 1087.04 2614.32 1070.01 2624.41 1052.41 2633.44 C 1018.78 2650.83 983.66 2665.21 947.96 2677.77 C 949.35 2677.61 950.76 2677.47 952.15 2677.24 C 1015.25 2663.60 1077.52 2645.96 1138.11 2623.65 C 1128.54 2617.69 1118.79 2611.98 1109.69 2605.32 C 1107.94 2604.16 1105.85 2602.02 1103.81 2603.84 Z" />
<path fill="#000000" opacity="1.00" d=" M 1177.22 1174.28 C 1183.37 1172.25 1189.87 1174.36 1195.76 1176.32 C 1210.60 1181.79 1224.23 1190.03 1237.35 1198.76 C 1264.37 1217.09 1288.99 1238.96 1310.48 1263.54 C 1337.87 1294.60 1357.84 1331.47 1373.35 1369.69 C 1374.48 1372.80 1376.08 1375.82 1376.65 1379.13 L 1376.21 1380.35 C 1375.35 1380.45 1374.51 1380.55 1373.68 1380.67 C 1360.26 1350.26 1344.58 1320.74 1325.49 1293.49 C 1304.96 1264.46 1279.59 1239.01 1251.52 1217.25 C 1233.93 1203.93 1215.44 1191.30 1194.84 1183.11 C 1189.93 1181.51 1184.64 1179.20 1179.43 1180.61 C 1174.01 1182.69 1170.38 1187.55 1166.77 1191.85 C 1155.47 1206.44 1146.55 1222.69 1138.18 1239.08 C 1120.21 1275.10 1106.02 1313.05 1096.41 1352.16 C 1087.34 1390.17 1082.25 1429.05 1079.53 1468.01 C 1079.13 1471.78 1079.50 1475.71 1078.32 1479.38 C 1077.24 1479.44 1076.17 1479.47 1075.12 1479.49 C 1074.09 1471.01 1075.24 1462.44 1075.47 1453.94 C 1078.07 1407.96 1084.83 1361.98 1099.00 1318.05 C 1110.20 1282.92 1124.52 1248.71 1142.63 1216.56 C 1148.62 1206.13 1154.95 1195.83 1162.52 1186.46 C 1166.59 1181.57 1171.04 1176.46 1177.22 1174.28 Z" />
<path fill="#000000" opacity="1.00" d=" M 1096.25 1210.24 C 1100.00 1204.88 1104.71 1200.14 1110.16 1196.51 C 1110.80 1196.43 1112.10 1196.26 1112.75 1196.18 C 1113.10 1199.12 1110.56 1200.89 1109.00 1202.99 C 1103.13 1210.39 1098.07 1218.70 1095.87 1227.98 C 1094.67 1232.25 1094.40 1236.69 1093.56 1241.03 C 1093.01 1243.45 1088.96 1242.54 1089.20 1240.13 C 1088.47 1229.81 1090.20 1218.86 1096.25 1210.24 Z" />
<path fill="#000000" opacity="1.00" d=" M 1219.11 1221.30 C 1223.70 1220.31 1228.77 1219.55 1233.12 1221.85 C 1243.60 1225.99 1249.92 1236.14 1253.94 1246.16 C 1261.28 1264.74 1266.59 1284.13 1269.69 1303.86 C 1274.19 1332.98 1273.61 1363.50 1263.62 1391.47 C 1260.39 1400.24 1256.41 1409.00 1250.01 1415.94 C 1246.23 1419.99 1240.83 1423.30 1235.08 1422.42 C 1227.99 1421.38 1222.49 1416.16 1217.97 1410.98 C 1208.55 1399.65 1202.35 1385.98 1198.02 1371.99 C 1191.51 1350.63 1189.49 1328.17 1189.56 1305.93 C 1189.70 1291.99 1190.33 1278.02 1192.42 1264.22 C 1194.03 1254.29 1196.25 1244.22 1201.27 1235.39 C 1205.17 1228.72 1211.28 1222.78 1219.11 1221.30 Z" />
<path fill="#000000" opacity="1.00" d=" M 1756.65 1231.53 C 1759.41 1228.28 1763.29 1224.61 1767.96 1225.97 C 1773.63 1227.75 1777.20 1232.99 1780.48 1237.62 C 1789.29 1251.17 1795.59 1266.15 1801.73 1281.05 C 1824.43 1337.94 1839.95 1397.39 1852.72 1457.21 C 1853.46 1460.43 1853.91 1463.72 1854.43 1467.01 C 1854.08 1467.40 1853.38 1468.18 1853.03 1468.57 C 1852.63 1468.34 1851.83 1467.87 1851.42 1467.64 C 1844.48 1439.99 1837.17 1412.43 1829.21 1385.05 C 1819.29 1351.02 1808.95 1317.05 1795.75 1284.12 C 1789.79 1269.59 1783.68 1254.99 1775.18 1241.73 C 1772.64 1238.21 1770.22 1234.04 1766.01 1232.39 C 1761.13 1235.19 1758.21 1240.40 1754.75 1244.69 C 1735.87 1271.64 1722.60 1302.09 1711.84 1333.07 C 1705.73 1350.77 1700.43 1368.76 1696.04 1386.97 C 1695.97 1389.06 1694.16 1389.53 1692.44 1389.74 C 1692.43 1383.45 1694.30 1377.40 1695.48 1371.29 C 1702.69 1338.50 1712.89 1306.18 1728.26 1276.25 C 1736.35 1260.56 1745.07 1244.96 1756.65 1231.53 Z" />
<path fill="#000000" opacity="1.00" d=" M 1812.10 1261.81 C 1810.57 1260.50 1812.28 1258.17 1813.97 1258.54 C 1823.09 1263.27 1829.14 1272.53 1831.40 1282.40 C 1831.89 1285.47 1833.98 1289.37 1830.99 1291.82 C 1827.79 1290.80 1827.60 1287.24 1826.40 1284.64 C 1823.19 1276.14 1817.54 1268.95 1812.10 1261.81 Z" />
<path fill="#000000" opacity="1.00" d=" M 1743.08 1279.13 C 1748.00 1278.18 1752.74 1281.67 1755.36 1285.61 C 1759.10 1292.20 1761.32 1299.53 1763.27 1306.83 C 1771.06 1338.31 1769.94 1372.47 1757.35 1402.57 C 1754.42 1409.09 1751.21 1415.89 1745.61 1420.55 C 1742.58 1423.18 1737.92 1423.63 1734.62 1421.27 C 1729.25 1417.47 1727.10 1410.84 1725.15 1404.87 C 1719.71 1385.77 1718.67 1365.71 1719.16 1345.96 C 1719.99 1326.90 1722.92 1307.34 1732.25 1290.43 C 1734.89 1285.94 1737.91 1280.94 1743.08 1279.13 Z" />
<path fill="#000000" opacity="1.00" d=" M 590.52 1327.75 C 609.58 1325.74 628.73 1329.19 647.18 1333.80 C 683.19 1343.22 717.37 1358.80 749.43 1377.59 C 804.84 1410.20 853.81 1452.56 899.38 1497.66 C 925.50 1523.54 950.52 1550.49 974.93 1577.99 C 976.44 1579.96 979.16 1581.56 978.76 1584.41 C 977.51 1586.42 975.18 1585.44 974.09 1583.89 C 925.26 1531.78 876.19 1479.42 820.24 1434.78 C 793.61 1413.47 765.52 1393.90 735.66 1377.38 C 707.56 1361.90 677.93 1348.94 646.96 1340.42 C 632.62 1336.54 617.92 1333.68 603.05 1333.19 C 592.48 1333.03 581.46 1333.95 571.94 1338.91 C 565.46 1342.18 560.74 1348.04 557.41 1354.36 C 555.92 1356.43 555.67 1360.08 552.85 1360.71 C 552.56 1360.29 551.99 1359.46 551.71 1359.04 C 553.25 1350.42 557.60 1341.98 564.81 1336.77 C 572.23 1331.25 581.45 1328.76 590.52 1327.75 Z" />
<path fill="#000000" opacity="1.00" d=" M 1374.16 1410.09 C 1374.87 1410.15 1376.30 1410.28 1377.01 1410.35 C 1376.88 1410.94 1376.64 1412.12 1376.51 1412.71 C 1364.81 1422.15 1352.00 1430.19 1339.32 1438.25 C 1306.60 1458.48 1271.86 1475.80 1235.06 1487.24 C 1190.76 1500.69 1144.14 1505.05 1097.99 1504.74 C 1093.53 1504.33 1088.64 1505.44 1084.59 1503.10 L 1084.84 1502.64 C 1085.44 1501.78 1085.64 1500.19 1087.01 1500.33 C 1135.09 1500.22 1183.51 1495.25 1229.80 1481.84 C 1250.35 1475.74 1270.33 1467.83 1289.75 1458.77 C 1319.17 1444.93 1347.55 1428.78 1374.16 1410.09 Z" />
<path fill="#000000" opacity="1.00" d=" M 1698.05 1417.34 C 1698.79 1417.28 1700.27 1417.14 1701.01 1417.08 C 1711.62 1433.91 1724.42 1449.48 1739.60 1462.41 C 1751.05 1472.13 1764.22 1480.10 1778.76 1484.17 C 1798.96 1489.87 1820.31 1490.56 1841.09 1488.36 C 1843.34 1487.59 1844.15 1489.99 1843.08 1491.61 C 1838.29 1493.52 1833.02 1493.66 1827.95 1494.24 C 1808.19 1495.96 1787.79 1494.81 1769.03 1487.98 C 1753.55 1482.25 1740.08 1472.11 1728.56 1460.45 C 1717.20 1448.87 1707.53 1435.71 1699.35 1421.72 C 1698.47 1420.41 1698.20 1418.85 1698.05 1417.34 Z" />
<path fill="#000000" opacity="1.00" d=" M 686.08 2030.75 C 686.53 2030.43 687.43 2029.78 687.88 2029.46 C 715.28 2048.79 745.82 2064.89 779.06 2071.11 C 799.26 2075.04 820.08 2072.76 840.02 2068.42 C 842.42 2068.06 845.43 2066.11 847.06 2068.98 C 841.40 2072.73 834.59 2074.21 828.21 2076.28 C 806.78 2082.58 783.85 2079.72 762.80 2073.33 C 736.90 2065.27 712.86 2051.97 691.03 2036.00 C 689.26 2034.41 686.41 2033.37 686.08 2030.75 Z" />
<path fill="#000000" opacity="1.00" d=" M 2099.28 2082.76 C 2108.12 2075.59 2116.73 2068.09 2126.12 2061.64 C 2127.71 2061.72 2130.61 2061.63 2130.62 2063.95 C 2131.41 2066.47 2128.76 2067.83 2127.17 2069.23 C 2122.16 2072.83 2117.34 2076.68 2112.63 2080.66 C 2089.14 2100.60 2067.60 2123.60 2053.05 2150.98 C 2036.43 2182.33 2026.85 2217.02 2021.78 2252.01 C 2021.62 2253.97 2019.68 2255.96 2017.62 2255.36 C 2015.95 2254.52 2014.94 2252.76 2015.33 2250.94 C 2016.05 2243.55 2017.54 2236.26 2018.95 2228.98 C 2025.69 2196.71 2036.22 2164.80 2053.65 2136.64 C 2062.98 2122.03 2073.88 2108.40 2086.09 2096.09 C 2090.36 2091.53 2095.30 2087.60 2099.28 2082.76 Z" />
<path fill="#000000" opacity="1.00" d=" M 1153.23 2227.33 C 1155.04 2224.03 1155.45 2219.37 1159.38 2217.79 C 1160.32 2219.55 1160.41 2221.57 1159.54 2223.41 C 1151.49 2244.19 1141.27 2264.17 1128.76 2282.63 C 1122.56 2291.75 1115.85 2300.59 1108.08 2308.44 C 1087.85 2329.01 1063.43 2345.08 1037.37 2357.29 C 1022.50 2364.49 1006.91 2370.00 991.34 2375.44 C 984.64 2377.68 977.78 2379.38 970.97 2381.21 C 966.59 2382.20 962.24 2383.86 957.68 2383.49 C 957.64 2382.50 957.61 2381.54 957.59 2380.61 C 966.06 2377.95 974.76 2376.08 983.17 2373.21 C 1001.22 2367.35 1018.84 2360.14 1035.82 2351.67 C 1061.90 2338.61 1086.73 2322.17 1106.37 2300.40 C 1125.78 2278.76 1141.03 2253.64 1153.23 2227.33 Z" />
</g>
<g id="#f19680ff">
<path fill="#f19680" opacity="1.00" d=" M 886.82 304.38 C 887.56 302.88 888.46 301.45 889.75 300.36 C 897.21 302.84 903.62 307.57 910.03 311.99 C 931.23 327.48 950.25 345.70 968.89 364.12 C 1027.69 423.08 1079.80 488.40 1127.27 556.72 C 1167.84 615.17 1205.32 675.76 1239.80 738.00 C 1246.00 749.27 1252.15 760.58 1258.04 772.02 C 1249.39 771.66 1240.54 770.51 1232.01 772.54 C 1228.82 773.24 1226.42 776.87 1228.04 779.99 C 1229.96 783.82 1233.72 786.22 1236.95 788.86 C 1252.86 800.85 1267.05 814.88 1281.17 828.88 C 1332.53 880.19 1380.05 935.38 1422.93 993.96 C 1453.81 1036.43 1482.45 1080.65 1506.64 1127.29 C 1501.73 1127.70 1496.92 1126.16 1492.02 1126.48 C 1485.05 1126.78 1478.18 1125.38 1471.26 1124.88 C 1450.49 1122.47 1429.72 1120.01 1409.01 1117.11 C 1374.82 1112.51 1341.56 1102.70 1309.29 1090.71 C 1300.93 1087.61 1292.70 1084.05 1283.94 1082.23 C 1263.10 1076.72 1241.94 1072.10 1221.90 1064.00 C 1214.85 1061.13 1207.38 1059.03 1200.82 1055.11 C 1194.29 1048.69 1187.51 1042.48 1181.54 1035.51 C 1176.23 1029.11 1171.13 1022.53 1166.19 1015.84 C 1160.51 1008.32 1156.09 999.96 1151.14 991.97 C 1148.28 987.47 1147.13 981.67 1142.60 978.42 C 1139.13 975.91 1136.69 972.36 1133.81 969.27 C 1128.81 964.15 1124.58 958.37 1120.37 952.62 C 1118.18 949.56 1115.04 947.30 1113.14 944.04 C 1107.92 935.21 1103.86 925.75 1100.05 916.25 C 1098.06 911.06 1095.73 905.67 1096.55 899.98 C 1097.54 892.69 1098.32 885.16 1096.47 877.95 C 1094.11 868.86 1092.74 859.52 1089.78 850.59 C 1088.42 846.86 1088.62 842.88 1088.39 838.99 C 1086.77 827.39 1087.78 815.64 1087.56 803.97 C 1088.35 792.50 1083.55 781.83 1080.18 771.15 C 1078.14 765.56 1075.99 760.03 1073.79 754.51 C 1072.32 750.68 1069.81 747.18 1069.42 743.00 C 1069.10 739.20 1067.47 735.74 1066.03 732.28 C 1059.29 712.53 1055.10 692.06 1049.12 672.09 C 1047.17 665.03 1046.77 657.69 1045.92 650.45 C 1045.53 647.26 1045.74 643.85 1043.99 641.02 C 1040.78 635.27 1039.07 628.85 1036.25 622.92 C 1031.12 611.96 1025.78 600.94 1023.35 589.00 C 1022.35 583.12 1019.59 577.71 1018.77 571.81 C 1018.08 565.21 1014.77 559.29 1013.61 552.79 C 1012.03 544.11 1007.80 536.28 1005.64 527.77 C 1004.39 522.99 1002.17 518.57 999.97 514.18 C 994.96 502.61 991.50 490.45 986.60 478.84 C 983.59 471.94 982.02 464.46 978.32 457.86 C 975.13 452.11 973.87 445.48 970.12 440.02 C 965.27 430.39 958.24 421.98 954.22 411.92 C 951.45 405.39 948.90 398.77 945.63 392.48 C 943.88 389.05 941.85 385.73 940.81 382.00 C 939.17 376.01 935.42 370.93 932.40 365.60 C 928.18 358.09 922.52 351.53 918.04 344.20 C 913.84 336.20 909.52 328.23 904.28 320.87 C 899.29 314.56 893.07 309.39 886.82 304.38 Z" />
<path fill="#f19680" opacity="1.00" d=" M 740.04 1674.87 C 744.64 1673.71 749.40 1673.50 754.03 1672.53 C 758.52 1672.57 762.59 1674.87 767.01 1675.39 C 773.48 1675.58 778.19 1680.54 783.82 1683.04 C 794.56 1688.78 806.22 1692.77 816.44 1699.49 C 821.52 1702.73 825.49 1707.40 828.69 1712.46 C 835.93 1721.00 843.70 1729.33 848.68 1739.49 C 857.44 1753.78 861.43 1770.50 862.57 1787.07 C 862.37 1792.02 863.25 1797.21 861.25 1801.92 C 859.13 1809.34 853.88 1815.25 848.43 1820.47 C 845.18 1823.67 841.00 1825.64 837.46 1828.48 C 833.89 1831.07 830.47 1834.26 826.03 1835.21 C 817.83 1837.05 809.44 1839.44 800.97 1838.27 C 798.14 1837.25 797.46 1834.11 796.47 1831.64 C 779.50 1829.36 761.75 1823.08 751.07 1808.96 C 744.65 1803.17 740.07 1795.76 735.63 1788.46 C 730.35 1785.67 724.56 1783.73 719.63 1780.28 C 714.45 1774.92 710.10 1768.77 706.65 1762.17 C 703.14 1756.61 701.09 1750.31 699.59 1743.97 C 697.65 1738.17 698.73 1732.02 698.48 1726.05 C 697.99 1714.98 700.29 1703.34 707.33 1694.51 C 709.99 1689.75 715.28 1687.75 719.08 1684.15 C 721.77 1681.94 724.33 1679.22 727.84 1678.40 C 731.93 1677.31 735.87 1675.68 740.04 1674.87 Z" />
<path fill="#f19680" opacity="1.00" d=" M 2444.95 1924.15 C 2452.92 1922.41 2461.14 1923.13 2469.01 1925.06 C 2508.26 1933.78 2546.72 1945.97 2584.09 1960.78 C 2603.44 1968.55 2622.48 1977.13 2640.79 1987.14 C 2668.38 2002.32 2691.46 2024.53 2711.08 2048.94 C 2730.67 2073.42 2747.31 2100.12 2762.75 2127.37 C 2772.94 2145.68 2782.07 2164.75 2787.88 2184.95 C 2793.75 2205.06 2795.58 2226.17 2794.85 2247.05 C 2794.03 2270.59 2790.52 2293.91 2786.71 2317.12 C 2778.86 2364.47 2768.36 2411.33 2757.73 2458.12 C 2749.71 2492.71 2741.64 2527.29 2732.77 2561.67 C 2730.00 2555.48 2730.34 2548.57 2729.50 2541.99 C 2729.72 2536.29 2729.15 2530.64 2728.55 2525.00 C 2728.52 2479.31 2728.50 2433.62 2728.49 2387.93 C 2727.77 2380.65 2727.46 2373.33 2726.65 2366.07 C 2726.39 2361.93 2726.77 2357.79 2726.26 2353.70 C 2725.06 2345.51 2725.77 2337.24 2725.58 2329.01 C 2725.95 2321.29 2724.22 2313.68 2724.52 2305.97 C 2723.58 2295.22 2721.49 2284.58 2718.57 2274.20 C 2711.24 2247.20 2704.01 2219.67 2689.83 2195.30 C 2685.28 2188.32 2679.73 2182.02 2673.68 2176.32 C 2666.88 2169.75 2660.75 2162.26 2652.47 2157.47 C 2635.99 2148.12 2618.37 2141.04 2600.70 2134.30 C 2590.26 2129.81 2579.41 2126.42 2568.95 2121.99 C 2560.33 2119.08 2552.00 2115.31 2543.26 2112.84 C 2530.52 2110.93 2517.67 2109.64 2505.09 2106.81 C 2497.12 2105.05 2489.02 2103.91 2481.18 2101.68 C 2460.21 2095.99 2439.99 2087.80 2420.40 2078.48 C 2395.25 2066.37 2371.47 2051.03 2351.20 2031.78 C 2343.20 2025.50 2336.92 2017.46 2330.16 2009.97 C 2322.20 2000.11 2315.00 1989.65 2308.57 1978.75 C 2340.16 1962.21 2372.79 1947.61 2406.34 1935.50 C 2418.99 1931.04 2431.75 1926.68 2444.95 1924.15 Z" />
<path fill="#f19680" opacity="1.00" d=" M 1005.53 2131.18 C 1012.20 2128.41 1019.71 2129.12 1026.56 2130.79 C 1042.50 2142.02 1056.90 2155.46 1073.62 2165.63 C 1076.92 2167.67 1080.71 2168.82 1083.88 2171.09 C 1091.13 2178.35 1099.41 2185.28 1102.89 2195.30 C 1104.87 2202.86 1102.85 2210.92 1098.21 2217.11 C 1094.36 2223.18 1087.30 2225.80 1080.77 2227.88 C 1075.54 2229.52 1070.17 2227.39 1065.15 2225.96 C 1058.94 2224.22 1053.25 2221.16 1047.30 2218.78 C 1040.69 2216.13 1034.81 2212.07 1028.91 2208.18 C 1021.71 2203.50 1014.97 2198.14 1008.65 2192.36 C 1002.25 2186.75 997.18 2179.87 991.29 2173.78 C 987.54 2169.75 986.63 2164.17 985.59 2159.00 C 986.55 2155.41 986.39 2151.54 988.08 2148.17 C 991.48 2140.61 997.58 2133.95 1005.53 2131.18 Z" />
<path fill="#f19680" opacity="1.00" d=" M 1249.79 2285.90 C 1259.83 2283.54 1269.24 2288.74 1277.76 2293.39 C 1282.94 2296.24 1287.13 2300.83 1292.95 2302.51 C 1302.89 2305.86 1311.79 2311.61 1320.02 2318.02 C 1324.21 2321.39 1327.06 2326.44 1332.13 2328.66 C 1339.37 2332.08 1346.29 2336.35 1352.17 2341.83 C 1356.79 2345.41 1361.88 2349.43 1362.87 2355.60 C 1359.06 2355.56 1355.05 2356.01 1351.52 2354.34 C 1345.52 2351.71 1339.63 2348.77 1333.20 2347.36 C 1327.40 2345.84 1323.26 2341.26 1318.14 2338.51 C 1306.92 2334.40 1296.68 2327.98 1287.07 2320.98 C 1283.18 2318.25 1278.44 2317.42 1274.17 2315.59 C 1268.50 2313.03 1263.13 2309.74 1258.48 2305.61 C 1254.36 2302.10 1249.72 2298.82 1247.20 2293.90 C 1245.60 2291.12 1246.66 2287.03 1249.79 2285.90 Z" />
</g>
<g id="#eb6444ff">
<path fill="#eb6444" opacity="1.00" d=" M 883.68 332.99 C 883.89 323.40 884.07 313.65 886.82 304.38 C 893.07 309.39 899.29 314.56 904.28 320.87 C 909.52 328.23 913.84 336.20 918.04 344.20 C 922.52 351.53 928.18 358.09 932.40 365.60 C 935.42 370.93 939.17 376.01 940.81 382.00 C 941.85 385.73 943.88 389.05 945.63 392.48 C 948.90 398.77 951.45 405.39 954.22 411.92 C 958.24 421.98 965.27 430.39 970.12 440.02 C 973.87 445.48 975.13 452.11 978.32 457.86 C 982.02 464.46 983.59 471.94 986.60 478.84 C 991.50 490.45 994.96 502.61 999.97 514.18 C 1002.17 518.57 1004.39 522.99 1005.64 527.77 C 1007.80 536.28 1012.03 544.11 1013.61 552.79 C 1014.77 559.29 1018.08 565.21 1018.77 571.81 C 1019.59 577.71 1022.35 583.12 1023.35 589.00 C 1025.78 600.94 1031.12 611.96 1036.25 622.92 C 1039.07 628.85 1040.78 635.27 1043.99 641.02 C 1045.74 643.85 1045.53 647.26 1045.92 650.45 C 1046.77 657.69 1047.17 665.03 1049.12 672.09 C 1055.10 692.06 1059.29 712.53 1066.03 732.28 C 1067.47 735.74 1069.10 739.20 1069.42 743.00 C 1069.81 747.18 1072.32 750.68 1073.79 754.51 C 1075.99 760.03 1078.14 765.56 1080.18 771.15 C 1083.55 781.83 1088.35 792.50 1087.56 803.97 C 1087.78 815.64 1086.77 827.39 1088.39 838.99 C 1088.62 842.88 1088.42 846.86 1089.78 850.59 C 1092.74 859.52 1094.11 868.86 1096.47 877.95 C 1098.32 885.16 1097.54 892.69 1096.55 899.98 C 1095.73 905.67 1098.06 911.06 1100.05 916.25 C 1103.86 925.75 1107.92 935.21 1113.14 944.04 C 1115.04 947.30 1118.18 949.56 1120.37 952.62 C 1124.58 958.37 1128.81 964.15 1133.81 969.27 C 1136.69 972.36 1139.13 975.91 1142.60 978.42 C 1147.13 981.67 1148.28 987.47 1151.14 991.97 C 1156.09 999.96 1160.51 1008.32 1166.19 1015.84 C 1171.13 1022.53 1176.23 1029.11 1181.54 1035.51 C 1187.51 1042.48 1194.29 1048.69 1200.82 1055.11 C 1207.38 1059.03 1214.85 1061.13 1221.90 1064.00 C 1241.94 1072.10 1263.10 1076.72 1283.94 1082.23 C 1292.70 1084.05 1300.93 1087.61 1309.29 1090.71 C 1341.56 1102.70 1374.82 1112.51 1409.01 1117.11 C 1429.72 1120.01 1450.49 1122.47 1471.26 1124.88 C 1478.18 1125.38 1485.05 1126.78 1492.02 1126.48 C 1496.92 1126.16 1501.73 1127.70 1506.64 1127.29 L 1506.86 1127.28 C 1541.33 1192.96 1569.14 1262.23 1588.07 1333.99 C 1608.25 1409.88 1618.16 1488.47 1617.35 1567.00 C 1616.83 1643.66 1606.86 1720.04 1591.03 1794.98 C 1570.62 1892.28 1539.75 1987.27 1500.52 2078.59 C 1481.69 2122.64 1460.80 2165.82 1437.68 2207.79 C 1419.23 2241.55 1399.05 2274.33 1378.09 2306.58 C 1371.32 2304.75 1364.19 2304.91 1357.38 2303.22 C 1345.71 2300.39 1333.73 2299.01 1322.21 2295.57 C 1313.59 2293.28 1305.19 2290.25 1296.96 2286.84 C 1292.98 2285.20 1288.98 2283.56 1284.75 2282.69 C 1281.29 2281.59 1278.30 2279.44 1275.08 2277.87 C 1255.12 2267.41 1234.97 2257.28 1214.26 2248.42 C 1214.23 2233.83 1212.55 2218.25 1203.99 2205.95 C 1195.50 2193.70 1183.08 2184.60 1169.68 2178.35 C 1154.09 2171.07 1137.39 2166.66 1121.32 2160.64 C 1100.79 2153.00 1080.32 2144.84 1061.18 2134.14 C 1056.77 2128.49 1051.38 2123.75 1046.40 2118.64 C 1031.53 2101.78 1016.74 2084.82 1003.17 2066.88 C 998.16 2060.91 992.09 2055.93 987.27 2049.79 C 978.47 2039.68 969.19 2029.98 960.98 2019.36 C 969.28 2005.46 976.84 1990.35 978.16 1973.97 C 979.01 1964.74 974.78 1955.95 969.07 1948.99 C 958.79 1936.32 945.41 1926.53 935.38 1913.62 C 925.43 1900.89 919.23 1885.72 914.50 1870.40 C 907.99 1849.13 903.85 1827.23 897.33 1805.96 C 887.87 1775.05 874.75 1745.09 856.84 1718.11 C 839.50 1692.02 817.20 1668.58 789.58 1653.35 C 764.42 1639.40 734.82 1631.66 706.09 1636.56 C 698.61 1638.14 690.95 1639.05 683.76 1641.76 C 664.58 1613.14 646.21 1583.97 628.59 1554.36 C 609.79 1522.62 591.80 1490.36 575.89 1457.07 C 564.57 1433.09 553.94 1408.59 547.26 1382.87 C 544.30 1370.55 541.73 1357.67 543.92 1345.01 C 545.16 1337.25 549.90 1330.72 554.88 1324.88 C 578.22 1297.29 602.44 1270.45 626.18 1243.20 C 677.82 1184.17 728.32 1124.02 774.48 1060.57 C 790.22 1039.19 805.33 1017.34 820.77 995.75 C 834.96 974.25 846.95 951.25 855.54 926.93 C 863.08 943.08 867.02 960.62 870.56 977.99 C 871.16 980.22 873.72 979.44 875.43 979.43 C 876.40 975.58 875.18 971.75 874.43 967.99 C 870.73 950.83 865.68 933.83 857.86 918.07 C 842.54 887.74 817.82 862.05 787.61 846.38 C 767.76 835.95 745.32 831.06 722.99 830.78 C 692.63 830.17 662.55 836.63 633.88 846.20 C 616.06 852.18 598.69 859.49 581.88 867.89 C 602.76 846.94 626.22 828.09 652.78 814.81 C 706.78 788.41 771.30 784.61 828.19 803.84 C 861.75 815.51 892.87 833.45 921.50 854.33 C 924.00 855.78 926.03 859.02 929.25 858.44 C 929.67 857.39 930.14 855.79 929.09 854.98 C 923.43 849.92 916.89 845.92 911.10 841.06 C 892.65 811.68 871.64 783.51 845.78 760.19 C 811.34 729.38 768.80 706.49 722.83 699.35 C 688.29 693.85 652.93 699.80 620.11 710.97 C 585.97 722.64 553.97 739.90 524.10 760.03 C 535.66 746.06 548.11 732.77 561.97 721.06 C 592.34 695.45 630.00 679.20 668.96 672.19 C 706.41 665.28 745.21 667.80 782.01 677.16 C 829.34 689.22 874.34 710.99 912.44 741.64 C 933.49 758.49 951.80 778.45 969.13 799.02 C 969.94 800.08 971.41 799.51 972.57 799.68 C 972.63 799.01 972.75 797.68 972.80 797.01 C 955.67 773.77 935.83 752.41 912.92 734.77 C 914.38 708.49 913.02 682.18 910.97 655.97 C 903.75 563.86 891.18 472.23 885.07 380.03 C 884.15 364.37 883.44 348.68 883.68 332.99 M 1177.22 1174.28 C 1171.04 1176.46 1166.59 1181.57 1162.52 1186.46 C 1154.95 1195.83 1148.62 1206.13 1142.63 1216.56 C 1124.52 1248.71 1110.20 1282.92 1099.00 1318.05 C 1084.83 1361.98 1078.07 1407.96 1075.47 1453.94 C 1075.24 1462.44 1074.09 1471.01 1075.12 1479.49 C 1075.28 1484.93 1076.04 1490.40 1077.66 1495.61 C 1078.70 1499.02 1081.61 1501.36 1084.84 1502.64 L 1084.59 1503.10 C 1088.64 1505.44 1093.53 1504.33 1097.99 1504.74 C 1144.14 1505.05 1190.76 1500.69 1235.06 1487.24 C 1271.86 1475.80 1306.60 1458.48 1339.32 1438.25 C 1352.00 1430.19 1364.81 1422.15 1376.51 1412.71 C 1381.03 1409.67 1384.09 1404.54 1383.70 1398.99 C 1383.15 1391.87 1379.44 1385.54 1376.65 1379.13 C 1376.08 1375.82 1374.48 1372.80 1373.35 1369.69 C 1357.84 1331.47 1337.87 1294.60 1310.48 1263.54 C 1288.99 1238.96 1264.37 1217.09 1237.35 1198.76 C 1224.23 1190.03 1210.60 1181.79 1195.76 1176.32 C 1189.87 1174.36 1183.37 1172.25 1177.22 1174.28 M 1096.25 1210.24 C 1090.20 1218.86 1088.47 1229.81 1089.20 1240.13 C 1088.96 1242.54 1093.01 1243.45 1093.56 1241.03 C 1094.40 1236.69 1094.67 1232.25 1095.87 1227.98 C 1098.07 1218.70 1103.13 1210.39 1109.00 1202.99 C 1110.56 1200.89 1113.10 1199.12 1112.75 1196.18 C 1112.10 1196.26 1110.80 1196.43 1110.16 1196.51 C 1104.71 1200.14 1100.00 1204.88 1096.25 1210.24 M 590.52 1327.75 C 581.45 1328.76 572.23 1331.25 564.81 1336.77 C 557.60 1341.98 553.25 1350.42 551.71 1359.04 C 551.99 1359.46 552.56 1360.29 552.85 1360.71 C 555.67 1360.08 555.92 1356.43 557.41 1354.36 C 560.74 1348.04 565.46 1342.18 571.94 1338.91 C 581.46 1333.95 592.48 1333.03 603.05 1333.19 C 617.92 1333.68 632.62 1336.54 646.96 1340.42 C 677.93 1348.94 707.56 1361.90 735.66 1377.38 C 765.52 1393.90 793.61 1413.47 820.24 1434.78 C 876.19 1479.42 925.26 1531.78 974.09 1583.89 C 975.18 1585.44 977.51 1586.42 978.76 1584.41 C 979.16 1581.56 976.44 1579.96 974.93 1577.99 C 950.52 1550.49 925.50 1523.54 899.38 1497.66 C 853.81 1452.56 804.84 1410.20 749.43 1377.59 C 717.37 1358.80 683.19 1343.22 647.18 1333.80 C 628.73 1329.19 609.58 1325.74 590.52 1327.75 Z" />
<path fill="#eb6444" opacity="1.00" d=" M 1397.56 624.38 C 1422.72 617.27 1448.80 613.08 1474.98 613.07 C 1532.80 613.14 1591.65 633.00 1634.32 672.74 C 1644.92 682.71 1655.18 693.18 1663.99 704.77 C 1636.96 686.14 1607.80 670.48 1577.07 658.91 C 1553.13 649.98 1528.02 643.77 1502.45 642.35 C 1464.40 640.26 1426.51 651.12 1393.28 669.22 C 1366.04 684.06 1341.51 703.79 1320.95 726.99 C 1307.31 742.25 1295.18 758.77 1283.77 775.74 C 1277.79 774.51 1271.77 773.49 1265.76 772.48 C 1257.27 755.36 1247.88 738.72 1238.63 722.01 C 1280.69 674.96 1337.03 641.57 1397.56 624.38 Z" />
<path fill="#eb6444" opacity="1.00" d=" M 1399.14 739.23 C 1447.40 732.12 1498.19 739.61 1541.42 762.58 C 1565.40 775.55 1586.84 792.89 1606.06 812.13 C 1573.19 796.03 1538.49 782.88 1502.15 777.41 C 1476.73 773.64 1450.23 773.72 1425.55 781.53 C 1410.82 786.32 1396.82 793.26 1383.85 801.70 C 1355.54 792.73 1326.91 784.68 1297.82 778.60 C 1328.98 759.86 1362.90 744.48 1399.14 739.23 Z" />
<path fill="#eb6444" opacity="1.00" d=" M 887.76 825.94 C 887.51 823.59 889.44 821.38 890.40 819.25 C 893.53 824.21 897.43 828.68 900.20 833.87 C 896.09 831.17 891.84 828.68 887.76 825.94 Z" />
<path fill="#eb6444" opacity="1.00" d=" M 710.47 1642.68 C 732.57 1639.69 755.14 1644.50 775.29 1653.66 C 802.25 1665.72 824.82 1686.02 842.49 1709.45 C 863.06 1736.71 877.88 1767.96 888.52 1800.32 C 894.72 1818.94 898.85 1838.16 903.79 1857.14 C 908.28 1874.17 913.54 1891.25 922.51 1906.54 C 929.25 1918.35 938.86 1928.13 948.67 1937.40 C 956.23 1944.85 964.59 1952.03 969.29 1961.76 C 972.77 1968.86 971.53 1977.08 969.57 1984.44 C 965.75 1997.97 958.83 2010.39 951.13 2022.08 C 936.04 2044.48 917.10 2064.27 895.56 2080.56 C 883.41 2089.60 870.49 2097.81 856.40 2103.48 C 835.91 2111.70 813.13 2112.03 791.57 2108.72 C 762.26 2104.00 734.22 2092.66 709.02 2077.11 C 693.93 2067.63 679.61 2056.56 668.16 2042.83 C 662.05 2035.55 657.26 2027.13 654.80 2017.93 C 643.87 1979.46 635.09 1940.41 627.71 1901.12 C 622.51 1872.62 617.50 1843.99 616.13 1815.01 C 614.78 1777.91 619.02 1739.75 634.53 1705.67 C 642.37 1688.62 652.64 1672.27 667.03 1659.98 C 672.63 1655.30 678.68 1650.86 685.71 1648.61 C 693.78 1645.96 702.05 1643.83 710.47 1642.68 M 740.04 1674.87 C 735.87 1675.68 731.93 1677.31 727.84 1678.40 C 724.33 1679.22 721.77 1681.94 719.08 1684.15 C 715.28 1687.75 709.99 1689.75 707.33 1694.51 C 700.29 1703.34 697.99 1714.98 698.48 1726.05 C 698.73 1732.02 697.65 1738.17 699.59 1743.97 C 701.09 1750.31 703.14 1756.61 706.65 1762.17 C 710.10 1768.77 714.45 1774.92 719.63 1780.28 C 724.56 1783.73 730.35 1785.67 735.63 1788.46 C 740.07 1795.76 744.65 1803.17 751.07 1808.96 C 761.75 1823.08 779.50 1829.36 796.47 1831.64 C 797.46 1834.11 798.14 1837.25 800.97 1838.27 C 809.44 1839.44 817.83 1837.05 826.03 1835.21 C 830.47 1834.26 833.89 1831.07 837.46 1828.48 C 841.00 1825.64 845.18 1823.67 848.43 1820.47 C 853.88 1815.25 859.13 1809.34 861.25 1801.92 C 863.25 1797.21 862.37 1792.02 862.57 1787.07 C 861.43 1770.50 857.44 1753.78 848.68 1739.49 C 843.70 1729.33 835.93 1721.00 828.69 1712.46 C 825.49 1707.40 821.52 1702.73 816.44 1699.49 C 806.22 1692.77 794.56 1688.78 783.82 1683.04 C 778.19 1680.54 773.48 1675.58 767.01 1675.39 C 762.59 1674.87 758.52 1672.57 754.03 1672.53 C 749.40 1673.50 744.64 1673.71 740.04 1674.87 M 686.08 2030.75 C 686.41 2033.37 689.26 2034.41 691.03 2036.00 C 712.86 2051.97 736.90 2065.27 762.80 2073.33 C 783.85 2079.72 806.78 2082.58 828.21 2076.28 C 834.59 2074.21 841.40 2072.73 847.06 2068.98 C 845.43 2066.11 842.42 2068.06 840.02 2068.42 C 820.08 2072.76 799.26 2075.04 779.06 2071.11 C 745.82 2064.89 715.28 2048.79 687.88 2029.46 C 687.43 2029.78 686.53 2030.43 686.08 2030.75 Z" />
<path fill="#eb6444" opacity="1.00" d=" M 1824.87 1823.32 C 1835.78 1829.55 1847.03 1835.34 1859.04 1839.17 C 1869.23 1842.80 1881.01 1844.03 1889.21 1851.73 C 1892.77 1855.44 1894.54 1860.47 1895.50 1865.45 C 1891.61 1862.64 1890.00 1857.71 1886.24 1854.70 C 1874.08 1842.09 1854.35 1841.09 1838.56 1846.50 C 1828.89 1849.40 1820.90 1855.72 1812.63 1861.22 C 1816.71 1848.59 1820.96 1836.01 1824.87 1823.32 Z" />
<path fill="#eb6444" opacity="1.00" d=" M 1830.62 1877.64 C 1836.63 1873.87 1844.20 1870.98 1851.21 1873.72 C 1860.00 1877.24 1866.67 1884.27 1873.46 1890.61 C 1884.49 1901.63 1896.27 1911.94 1909.07 1920.87 C 1940.10 1942.48 1973.93 1959.88 2009.00 1973.92 C 2040.86 1986.76 2073.85 1996.54 2107.08 2005.16 C 2136.73 2012.90 2166.62 2019.70 2196.59 2026.07 C 2185.63 2032.05 2174.18 2037.11 2163.48 2043.58 C 2156.09 2048.42 2147.23 2050.09 2139.52 2054.28 C 2134.95 2056.55 2130.71 2059.41 2126.12 2061.64 C 2116.73 2068.09 2108.12 2075.59 2099.28 2082.76 C 2090.29 2087.10 2084.39 2095.61 2077.27 2102.31 C 2074.10 2105.14 2070.11 2107.00 2067.37 2110.32 C 2064.22 2114.16 2061.18 2118.09 2058.25 2122.10 C 2055.59 2126.00 2051.41 2128.64 2047.07 2130.31 C 2042.98 2130.72 2038.65 2129.83 2034.95 2132.10 C 2032.70 2133.54 2030.39 2131.81 2028.47 2130.70 C 2020.95 2125.54 2011.61 2124.57 2003.49 2120.71 C 1984.51 2112.02 1965.34 2103.79 1946.11 2095.68 C 1938.19 2091.55 1929.81 2088.38 1922.22 2083.66 C 1915.24 2080.24 1909.31 2075.17 1902.68 2071.18 C 1890.62 2063.50 1877.23 2057.99 1866.02 2049.01 C 1861.89 2045.48 1857.15 2042.59 1853.80 2038.26 C 1850.24 2033.82 1845.64 2030.39 1842.09 2025.98 C 1833.63 2014.22 1822.71 2004.62 1811.77 1995.25 C 1799.87 1983.03 1785.27 1972.66 1777.48 1957.08 C 1782.58 1944.83 1787.00 1932.31 1791.76 1919.93 C 1793.54 1915.60 1796.48 1911.91 1799.19 1908.14 C 1807.96 1896.42 1818.17 1885.50 1830.62 1877.64 Z" />
<path fill="#eb6444" opacity="1.00" d=" M 2197.60 2044.74 C 2233.09 2020.34 2270.37 1998.63 2308.57 1978.75 C 2315.00 1989.65 2322.20 2000.11 2330.16 2009.97 C 2336.92 2017.46 2343.20 2025.50 2351.20 2031.78 C 2371.47 2051.03 2395.25 2066.37 2420.40 2078.48 C 2439.99 2087.80 2460.21 2095.99 2481.18 2101.68 C 2489.02 2103.91 2497.12 2105.05 2505.09 2106.81 C 2517.67 2109.64 2530.52 2110.93 2543.26 2112.84 C 2552.00 2115.31 2560.33 2119.08 2568.95 2121.99 C 2579.41 2126.42 2590.26 2129.81 2600.70 2134.30 C 2618.37 2141.04 2635.99 2148.12 2652.47 2157.47 C 2660.75 2162.26 2666.88 2169.75 2673.68 2176.32 C 2679.73 2182.02 2685.28 2188.32 2689.83 2195.30 C 2704.01 2219.67 2711.24 2247.20 2718.57 2274.20 C 2721.49 2284.58 2723.58 2295.22 2724.52 2305.97 C 2724.22 2313.68 2725.95 2321.29 2725.58 2329.01 C 2725.77 2337.24 2725.06 2345.51 2726.26 2353.70 C 2726.77 2357.79 2726.39 2361.93 2726.65 2366.07 C 2727.46 2373.33 2727.77 2380.65 2728.49 2387.93 C 2728.50 2433.62 2728.52 2479.31 2728.55 2525.00 C 2729.15 2530.64 2729.72 2536.29 2729.50 2541.99 C 2730.34 2548.57 2730.00 2555.48 2732.77 2561.67 C 2731.62 2567.95 2729.93 2574.23 2727.70 2580.24 C 2724.14 2578.15 2722.27 2574.29 2720.13 2570.97 C 2711.82 2556.62 2705.42 2541.28 2698.89 2526.08 C 2681.04 2483.46 2664.74 2440.21 2647.45 2397.36 C 2635.59 2368.22 2622.63 2338.98 2602.78 2314.28 C 2591.15 2299.85 2577.17 2287.26 2561.35 2277.58 C 2528.24 2257.49 2489.32 2251.43 2451.99 2243.78 C 2433.72 2240.14 2415.55 2235.88 2397.80 2230.18 C 2377.22 2223.78 2356.56 2216.82 2334.96 2215.00 C 2310.06 2212.82 2285.09 2216.75 2260.97 2222.69 C 2242.43 2227.13 2224.35 2233.20 2206.03 2238.41 C 2204.85 2238.69 2203.67 2238.81 2202.50 2238.76 C 2191.83 2236.18 2180.71 2237.08 2170.03 2234.62 C 2160.83 2232.53 2150.85 2230.04 2144.42 2222.61 C 2138.44 2215.90 2130.93 2210.64 2125.90 2203.11 C 2120.11 2195.29 2116.37 2186.24 2113.13 2177.14 C 2110.12 2168.12 2109.39 2158.59 2107.86 2149.27 C 2107.37 2144.37 2107.28 2139.40 2107.82 2134.52 C 2109.68 2126.09 2113.26 2118.18 2115.28 2109.81 L 2115.40 2109.35 C 2140.74 2085.34 2168.82 2064.42 2197.60 2044.74 Z" />
<path fill="#eb6444" opacity="1.00" d=" M 891.69 2091.75 C 915.46 2075.28 936.38 2054.65 953.15 2031.10 C 968.10 2057.38 985.86 2082.29 1007.28 2103.71 C 1037.72 2133.62 1077.32 2151.67 1116.88 2166.20 C 1132.70 2172.23 1149.15 2176.58 1164.66 2183.44 C 1177.56 2189.13 1189.63 2197.48 1197.94 2209.03 C 1203.30 2216.26 1205.59 2225.18 1206.68 2233.99 C 1206.29 2234.56 1205.51 2235.70 1205.12 2236.27 C 1200.57 2234.96 1195.96 2236.36 1191.39 2236.61 C 1180.36 2238.25 1170.68 2244.30 1161.96 2250.92 C 1150.04 2256.82 1141.71 2267.52 1133.97 2277.97 C 1131.01 2281.95 1128.78 2286.39 1126.63 2290.84 C 1123.66 2296.84 1118.11 2300.83 1113.42 2305.36 C 1111.86 2306.72 1110.39 2308.63 1108.08 2308.44 C 1115.85 2300.59 1122.56 2291.75 1128.76 2282.63 C 1141.27 2264.17 1151.49 2244.19 1159.54 2223.41 C 1160.41 2221.57 1160.32 2219.55 1159.38 2217.79 C 1155.45 2219.37 1155.04 2224.03 1153.23 2227.33 C 1141.03 2253.64 1125.78 2278.76 1106.37 2300.40 C 1086.73 2322.17 1061.90 2338.61 1035.82 2351.67 C 1018.84 2360.14 1001.22 2367.35 983.17 2373.21 C 974.76 2376.08 966.06 2377.95 957.59 2380.61 C 957.61 2381.54 957.64 2382.50 957.68 2383.49 C 962.24 2383.86 966.59 2382.20 970.97 2381.21 C 977.78 2379.38 984.64 2377.68 991.34 2375.44 C 987.01 2380.07 982.07 2384.08 977.79 2388.77 C 973.47 2392.89 970.80 2398.36 966.57 2402.58 C 962.28 2408.22 960.57 2415.32 959.23 2422.17 C 956.89 2431.17 961.64 2440.00 961.10 2449.06 C 957.04 2448.25 953.56 2445.90 950.01 2443.93 C 942.11 2439.15 934.72 2432.93 930.42 2424.62 C 923.73 2411.76 920.38 2397.56 916.28 2383.76 C 909.54 2360.65 898.36 2339.07 885.23 2318.98 C 869.95 2295.63 852.06 2274.16 834.21 2252.76 C 815.52 2230.37 796.94 2207.86 779.79 2184.26 C 759.91 2156.94 742.01 2127.89 729.98 2096.20 C 743.51 2102.85 757.80 2107.95 772.39 2111.73 C 794.70 2117.39 818.27 2119.60 841.00 2115.15 C 859.49 2111.53 876.28 2102.26 891.69 2091.75 M 1005.53 2131.18 C 997.58 2133.95 991.48 2140.61 988.08 2148.17 C 986.39 2151.54 986.55 2155.41 985.59 2159.00 C 986.63 2164.17 987.54 2169.75 991.29 2173.78 C 997.18 2179.87 1002.25 2186.75 1008.65 2192.36 C 1014.97 2198.14 1021.71 2203.50 1028.91 2208.18 C 1034.81 2212.07 1040.69 2216.13 1047.30 2218.78 C 1053.25 2221.16 1058.94 2224.22 1065.15 2225.96 C 1070.17 2227.39 1075.54 2229.52 1080.77 2227.88 C 1087.30 2225.80 1094.36 2223.18 1098.21 2217.11 C 1102.85 2210.92 1104.87 2202.86 1102.89 2195.30 C 1099.41 2185.28 1091.13 2178.35 1083.88 2171.09 C 1080.71 2168.82 1076.92 2167.67 1073.62 2165.63 C 1056.90 2155.46 1042.50 2142.02 1026.56 2130.79 C 1019.71 2129.12 1012.20 2128.41 1005.53 2131.18 Z" />
<path fill="#eb6444" opacity="1.00" d=" M 2061.73 2218.83 C 2065.49 2213.62 2070.43 2208.45 2077.01 2207.24 C 2079.63 2214.94 2082.47 2222.91 2087.99 2229.09 C 2090.37 2231.75 2091.08 2235.38 2092.20 2238.69 C 2094.37 2245.97 2097.46 2252.99 2098.72 2260.53 C 2100.99 2273.46 2104.77 2286.05 2107.33 2298.92 C 2110.99 2313.11 2115.33 2327.14 2120.15 2340.99 C 2122.99 2348.30 2125.32 2355.81 2127.83 2363.26 C 2131.05 2373.22 2135.96 2382.57 2138.62 2392.74 C 2142.69 2402.35 2147.31 2411.75 2151.94 2421.13 C 2156.62 2429.50 2160.23 2438.47 2165.52 2446.51 C 2169.03 2452.31 2173.55 2457.45 2176.73 2463.46 C 2180.14 2470.10 2184.90 2475.89 2188.89 2482.19 C 2195.87 2492.65 2205.17 2501.16 2213.96 2510.05 C 2219.17 2515.53 2225.53 2519.71 2231.56 2524.23 C 2239.38 2529.54 2247.26 2534.82 2255.77 2538.99 C 2270.73 2546.50 2284.41 2556.41 2300.01 2562.65 C 2308.03 2566.74 2316.78 2569.05 2324.92 2572.88 C 2336.23 2577.93 2348.24 2581.11 2360.16 2584.40 C 2371.17 2587.70 2382.69 2588.71 2394.03 2590.32 C 2412.18 2590.45 2429.90 2595.70 2448.05 2595.54 C 2448.50 2595.87 2449.41 2596.54 2449.86 2596.87 C 2428.46 2603.58 2406.23 2607.37 2383.94 2609.51 C 2358.59 2611.87 2332.95 2611.44 2307.78 2607.52 C 2255.83 2599.50 2206.45 2579.14 2161.27 2552.72 C 2145.28 2543.27 2129.70 2532.61 2117.26 2518.68 C 2108.12 2508.58 2101.27 2496.58 2096.27 2483.96 C 2089.26 2466.36 2085.40 2447.72 2082.26 2429.10 C 2078.06 2403.77 2075.42 2378.19 2070.23 2353.03 C 2066.89 2336.58 2062.47 2320.33 2056.50 2304.64 C 2052.61 2294.32 2048.59 2283.95 2046.71 2273.03 C 2046.35 2270.68 2046.30 2268.30 2046.75 2265.99 C 2047.74 2260.34 2047.71 2254.56 2049.03 2248.98 C 2051.14 2238.18 2055.72 2228.00 2061.73 2218.83 Z" />
<path fill="#eb6444" opacity="1.00" d=" M 1189.98 2259.10 C 1196.70 2257.06 1203.63 2254.61 1210.64 2254.42 C 1251.12 2272.04 1290.28 2292.76 1327.65 2316.28 C 1356.88 2334.72 1384.44 2355.77 1410.16 2378.84 C 1433.47 2399.85 1455.70 2422.25 1474.76 2447.24 C 1482.24 2457.46 1489.82 2467.99 1493.85 2480.13 C 1486.03 2479.07 1478.97 2475.19 1471.73 2472.31 C 1441.57 2458.80 1411.40 2445.19 1380.17 2434.31 C 1371.54 2427.78 1362.60 2421.67 1353.82 2415.35 C 1340.34 2404.82 1325.75 2395.81 1311.49 2386.40 C 1306.94 2382.70 1303.65 2377.68 1298.90 2374.21 C 1284.52 2364.17 1268.26 2357.28 1253.69 2347.54 C 1248.28 2344.63 1243.46 2340.57 1237.55 2338.70 C 1231.21 2336.61 1225.62 2332.84 1219.41 2330.44 C 1208.02 2325.09 1196.33 2320.37 1184.47 2316.18 C 1177.47 2313.55 1170.86 2309.83 1163.61 2307.95 C 1157.25 2307.21 1151.06 2305.13 1144.62 2305.33 C 1144.48 2305.12 1144.21 2304.69 1144.08 2304.48 C 1145.73 2296.78 1150.10 2289.86 1154.63 2283.51 C 1163.18 2271.56 1176.20 2263.64 1189.98 2259.10 M 1249.79 2285.90 C 1246.66 2287.03 1245.60 2291.12 1247.20 2293.90 C 1249.72 2298.82 1254.36 2302.10 1258.48 2305.61 C 1263.13 2309.74 1268.50 2313.03 1274.17 2315.59 C 1278.44 2317.42 1283.18 2318.25 1287.07 2320.98 C 1296.68 2327.98 1306.92 2334.40 1318.14 2338.51 C 1323.26 2341.26 1327.40 2345.84 1333.20 2347.36 C 1339.63 2348.77 1345.52 2351.71 1351.52 2354.34 C 1355.05 2356.01 1359.06 2355.56 1362.87 2355.60 C 1361.88 2349.43 1356.79 2345.41 1352.17 2341.83 C 1346.29 2336.35 1339.37 2332.08 1332.13 2328.66 C 1327.06 2326.44 1324.21 2321.39 1320.02 2318.02 C 1311.79 2311.61 1302.89 2305.86 1292.95 2302.51 C 1287.13 2300.83 1282.94 2296.24 1277.76 2293.39 C 1269.24 2288.74 1259.83 2283.54 1249.79 2285.90 Z" />
<path fill="#eb6444" opacity="1.00" d=" M 370.47 2307.69 C 408.17 2296.74 444.90 2281.75 478.39 2261.14 C 478.47 2261.62 478.62 2262.57 478.69 2263.05 C 476.85 2265.40 474.65 2267.45 472.33 2269.34 C 465.64 2274.67 459.04 2280.12 452.00 2284.98 C 438.76 2293.99 425.47 2303.06 411.15 2310.29 C 402.35 2313.95 393.68 2318.02 384.49 2320.64 C 370.47 2323.87 356.29 2326.57 341.99 2328.25 C 330.98 2329.05 320.04 2330.74 308.99 2330.67 C 297.87 2332.49 286.56 2331.40 275.47 2329.97 C 273.80 2329.65 272.52 2328.42 271.10 2327.64 C 304.70 2323.76 337.98 2317.09 370.47 2307.69 Z" />
<path fill="#eb6444" opacity="1.00" d=" M 1005.37 2432.55 C 1006.75 2434.21 1008.09 2435.93 1009.29 2437.78 C 1019.06 2453.52 1028.78 2469.32 1039.63 2484.36 C 1043.97 2490.28 1047.64 2496.90 1053.44 2501.59 C 1059.72 2506.58 1064.79 2512.89 1070.96 2518.02 C 1078.52 2524.49 1086.00 2531.12 1094.22 2536.77 C 1102.55 2542.45 1110.58 2548.57 1119.10 2553.98 C 1136.88 2564.42 1153.84 2576.59 1173.19 2584.08 C 1178.05 2586.57 1183.40 2587.49 1188.78 2588.15 C 1200.59 2604.56 1213.43 2620.21 1225.32 2636.57 C 1228.26 2640.80 1231.50 2644.97 1233.20 2649.92 C 1222.25 2651.58 1211.45 2647.89 1201.09 2644.81 C 1169.32 2634.17 1139.52 2618.07 1112.15 2598.84 C 1087.92 2581.84 1066.37 2561.18 1047.79 2538.17 C 1028.58 2514.39 1011.46 2488.83 997.24 2461.77 C 998.23 2451.72 1001.46 2441.86 1005.37 2432.55 Z" />
</g>
<g id="#79a7c1ff">
<path fill="#79a7c1" opacity="1.00" d=" M 1235.10 778.51 C 1257.02 776.20 1278.68 781.36 1299.98 785.83 C 1340.10 794.65 1379.62 806.33 1417.94 821.14 C 1454.26 835.27 1489.55 852.35 1522.18 873.75 C 1577.14 909.79 1624.06 956.49 1668.00 1005.01 C 1687.22 1026.22 1705.86 1047.96 1724.58 1069.62 C 1716.70 1075.40 1708.17 1080.20 1699.49 1084.64 C 1692.54 1090.05 1684.20 1093.01 1676.17 1096.39 C 1669.32 1098.96 1662.46 1101.56 1655.46 1103.66 C 1645.02 1105.55 1634.85 1108.68 1624.45 1110.78 C 1613.62 1112.64 1602.87 1114.90 1591.98 1116.40 C 1580.00 1118.47 1567.82 1119.39 1555.99 1122.27 C 1545.75 1123.97 1535.41 1125.30 1525.04 1125.70 C 1521.34 1126.13 1517.64 1126.72 1513.91 1126.50 C 1481.21 1063.77 1441.29 1005.01 1397.53 949.51 C 1372.45 917.78 1345.99 887.13 1318.35 857.61 C 1298.61 836.74 1278.61 816.06 1257.24 796.85 C 1250.20 790.32 1242.19 784.96 1235.10 778.51 Z" />
</g>
<g id="#327a9fff">
<path fill="#327a9f" opacity="1.00" d=" M 1699.49 1084.64 C 1708.17 1080.20 1716.70 1075.40 1724.58 1069.62 C 1749.47 1098.30 1774.02 1127.31 1799.85 1155.17 C 1820.95 1178.36 1843.59 1200.12 1864.37 1223.61 C 1875.76 1236.83 1887.46 1250.82 1891.81 1268.13 C 1896.50 1287.33 1896.90 1307.23 1897.58 1326.89 C 1898.28 1363.59 1896.48 1400.30 1893.81 1436.90 C 1884.74 1554.38 1862.75 1670.76 1829.83 1783.87 C 1804.52 1870.33 1773.45 1955.15 1736.20 2037.19 C 1705.39 2104.71 1669.91 2170.18 1628.75 2231.98 C 1626.88 2234.61 1625.29 2237.47 1623.24 2239.99 C 1614.89 2245.15 1606.74 2250.66 1598.06 2255.27 C 1589.03 2260.36 1579.68 2264.85 1570.44 2269.54 C 1561.48 2273.00 1552.22 2275.74 1542.89 2278.04 C 1527.73 2282.34 1512.38 2286.32 1496.66 2287.90 C 1490.44 2288.85 1484.24 2290.00 1477.97 2290.55 C 1467.08 2292.23 1456.05 2291.36 1445.08 2291.55 C 1433.41 2291.53 1421.74 2291.50 1410.08 2291.58 C 1405.69 2291.49 1401.16 2291.32 1397.14 2289.39 C 1406.05 2276.05 1414.07 2262.13 1422.31 2248.37 C 1469.28 2168.86 1507.99 2084.64 1539.72 1997.97 C 1558.83 1945.63 1575.07 1892.25 1588.14 1838.09 C 1603.35 1774.91 1614.77 1710.72 1620.31 1645.94 C 1627.19 1567.06 1624.96 1487.23 1611.34 1409.16 C 1594.33 1310.49 1560.39 1215.07 1513.91 1126.50 C 1517.64 1126.72 1521.34 1126.13 1525.04 1125.70 C 1535.41 1125.30 1545.75 1123.97 1555.99 1122.27 C 1567.82 1119.39 1580.00 1118.47 1591.98 1116.40 C 1602.87 1114.90 1613.62 1112.64 1624.45 1110.78 C 1634.85 1108.68 1645.02 1105.55 1655.46 1103.66 C 1662.46 1101.56 1669.32 1098.96 1676.17 1096.39 C 1684.20 1093.01 1692.54 1090.05 1699.49 1084.64 M 1756.65 1231.53 C 1745.07 1244.96 1736.35 1260.56 1728.26 1276.25 C 1712.89 1306.18 1702.69 1338.50 1695.48 1371.29 C 1694.30 1377.40 1692.43 1383.45 1692.44 1389.74 L 1692.13 1389.80 C 1691.93 1395.19 1691.61 1400.71 1693.08 1405.99 C 1694.09 1410.02 1696.17 1413.66 1698.05 1417.34 C 1698.20 1418.85 1698.47 1420.41 1699.35 1421.72 C 1707.53 1435.71 1717.20 1448.87 1728.56 1460.45 C 1740.08 1472.11 1753.55 1482.25 1769.03 1487.98 C 1787.79 1494.81 1808.19 1495.96 1827.95 1494.24 C 1833.02 1493.66 1838.29 1493.52 1843.08 1491.61 C 1847.20 1489.26 1853.63 1490.10 1855.67 1484.83 C 1857.33 1479.05 1856.63 1472.55 1854.43 1467.01 C 1853.91 1463.72 1853.46 1460.43 1852.72 1457.21 C 1839.95 1397.39 1824.43 1337.94 1801.73 1281.05 C 1795.59 1266.15 1789.29 1251.17 1780.48 1237.62 C 1777.20 1232.99 1773.63 1227.75 1767.96 1225.97 C 1763.29 1224.61 1759.41 1228.28 1756.65 1231.53 M 1812.10 1261.81 C 1817.54 1268.95 1823.19 1276.14 1826.40 1284.64 C 1827.60 1287.24 1827.79 1290.80 1830.99 1291.82 C 1833.98 1289.37 1831.89 1285.47 1831.40 1282.40 C 1829.14 1272.53 1823.09 1263.27 1813.97 1258.54 C 1812.28 1258.17 1810.57 1260.50 1812.10 1261.81 Z" />
</g>
<g id="#fffefeff">
<path fill="#fffefe" opacity="1.00" d=" M 1179.43 1180.61 C 1184.64 1179.20 1189.93 1181.51 1194.84 1183.11 C 1215.44 1191.30 1233.93 1203.93 1251.52 1217.25 C 1279.59 1239.01 1304.96 1264.46 1325.49 1293.49 C 1344.58 1320.74 1360.26 1350.26 1373.68 1380.67 C 1374.51 1380.55 1375.35 1380.45 1376.21 1380.35 L 1376.65 1379.13 C 1379.44 1385.54 1383.15 1391.87 1383.70 1398.99 C 1384.09 1404.54 1381.03 1409.67 1376.51 1412.71 C 1376.64 1412.12 1376.88 1410.94 1377.01 1410.35 C 1376.30 1410.28 1374.87 1410.15 1374.16 1410.09 C 1347.55 1428.78 1319.17 1444.93 1289.75 1458.77 C 1270.33 1467.83 1250.35 1475.74 1229.80 1481.84 C 1183.51 1495.25 1135.09 1500.22 1087.01 1500.33 C 1085.64 1500.19 1085.44 1501.78 1084.84 1502.64 C 1081.61 1501.36 1078.70 1499.02 1077.66 1495.61 C 1076.04 1490.40 1075.28 1484.93 1075.12 1479.49 C 1076.17 1479.47 1077.24 1479.44 1078.32 1479.38 C 1079.50 1475.71 1079.13 1471.78 1079.53 1468.01 C 1082.25 1429.05 1087.34 1390.17 1096.41 1352.16 C 1106.02 1313.05 1120.21 1275.10 1138.18 1239.08 C 1146.55 1222.69 1155.47 1206.44 1166.77 1191.85 C 1170.38 1187.55 1174.01 1182.69 1179.43 1180.61 M 1219.11 1221.30 C 1211.28 1222.78 1205.17 1228.72 1201.27 1235.39 C 1196.25 1244.22 1194.03 1254.29 1192.42 1264.22 C 1190.33 1278.02 1189.70 1291.99 1189.56 1305.93 C 1189.49 1328.17 1191.51 1350.63 1198.02 1371.99 C 1202.35 1385.98 1208.55 1399.65 1217.97 1410.98 C 1222.49 1416.16 1227.99 1421.38 1235.08 1422.42 C 1240.83 1423.30 1246.23 1419.99 1250.01 1415.94 C 1256.41 1409.00 1260.39 1400.24 1263.62 1391.47 C 1273.61 1363.50 1274.19 1332.98 1269.69 1303.86 C 1266.59 1284.13 1261.28 1264.74 1253.94 1246.16 C 1249.92 1236.14 1243.60 1225.99 1233.12 1221.85 C 1228.77 1219.55 1223.70 1220.31 1219.11 1221.30 Z" />
<path fill="#fffefe" opacity="1.00" d=" M 1754.75 1244.69 C 1758.21 1240.40 1761.13 1235.19 1766.01 1232.39 C 1770.22 1234.04 1772.64 1238.21 1775.18 1241.73 C 1783.68 1254.99 1789.79 1269.59 1795.75 1284.12 C 1808.95 1317.05 1819.29 1351.02 1829.21 1385.05 C 1837.17 1412.43 1844.48 1439.99 1851.42 1467.64 C 1851.83 1467.87 1852.63 1468.34 1853.03 1468.57 C 1853.38 1468.18 1854.08 1467.40 1854.43 1467.01 C 1856.63 1472.55 1857.33 1479.05 1855.67 1484.83 C 1853.63 1490.10 1847.20 1489.26 1843.08 1491.61 C 1844.15 1489.99 1843.34 1487.59 1841.09 1488.36 C 1820.31 1490.56 1798.96 1489.87 1778.76 1484.17 C 1764.22 1480.10 1751.05 1472.13 1739.60 1462.41 C 1724.42 1449.48 1711.62 1433.91 1701.01 1417.08 C 1700.27 1417.14 1698.79 1417.28 1698.05 1417.34 C 1696.17 1413.66 1694.09 1410.02 1693.08 1405.99 C 1691.61 1400.71 1691.93 1395.19 1692.13 1389.80 L 1692.44 1389.74 C 1694.16 1389.53 1695.97 1389.06 1696.04 1386.97 C 1700.43 1368.76 1705.73 1350.77 1711.84 1333.07 C 1722.60 1302.09 1735.87 1271.64 1754.75 1244.69 M 1743.08 1279.13 C 1737.91 1280.94 1734.89 1285.94 1732.25 1290.43 C 1722.92 1307.34 1719.99 1326.90 1719.16 1345.96 C 1718.67 1365.71 1719.71 1385.77 1725.15 1404.87 C 1727.10 1410.84 1729.25 1417.47 1734.62 1421.27 C 1737.92 1423.63 1742.58 1423.18 1745.61 1420.55 C 1751.21 1415.89 1754.42 1409.09 1757.35 1402.57 C 1769.94 1372.47 1771.06 1338.31 1763.27 1306.83 C 1761.32 1299.53 1759.10 1292.20 1755.36 1285.61 C 1752.74 1281.67 1748.00 1278.18 1743.08 1279.13 Z" />
</g>
<g id="#7e2a1eff">
<path fill="#7e2a1e" opacity="1.00" d=" M 1838.56 1846.50 C 1854.35 1841.09 1874.08 1842.09 1886.24 1854.70 C 1890.00 1857.71 1891.61 1862.64 1895.50 1865.45 L 1895.91 1865.74 C 1897.32 1877.27 1896.16 1888.95 1893.76 1900.27 C 1881.57 1890.50 1871.92 1877.63 1858.32 1869.65 C 1851.10 1865.26 1841.90 1864.75 1834.23 1868.28 C 1821.07 1874.09 1810.56 1884.40 1801.06 1894.96 C 1804.46 1883.68 1809.03 1872.78 1812.27 1861.45 L 1812.63 1861.22 C 1820.90 1855.72 1828.89 1849.40 1838.56 1846.50 Z" />
<path fill="#7e2a1e" opacity="1.00" d=" M 1773.06 1968.09 C 1774.60 1964.44 1775.88 1960.69 1777.48 1957.08 C 1785.27 1972.66 1799.87 1983.03 1811.77 1995.25 C 1822.71 2004.62 1833.63 2014.22 1842.09 2025.98 C 1845.64 2030.39 1850.24 2033.82 1853.80 2038.26 C 1857.15 2042.59 1861.89 2045.48 1866.02 2049.01 C 1877.23 2057.99 1890.62 2063.50 1902.68 2071.18 C 1909.31 2075.17 1915.24 2080.24 1922.22 2083.66 C 1929.81 2088.38 1938.19 2091.55 1946.11 2095.68 C 1965.34 2103.79 1984.51 2112.02 2003.49 2120.71 C 2011.61 2124.57 2020.95 2125.54 2028.47 2130.70 C 2030.39 2131.81 2032.70 2133.54 2034.95 2132.10 C 2038.65 2129.83 2042.98 2130.72 2047.07 2130.31 C 2051.41 2128.64 2055.59 2126.00 2058.25 2122.10 C 2061.18 2118.09 2064.22 2114.16 2067.37 2110.32 C 2070.11 2107.00 2074.10 2105.14 2077.27 2102.31 C 2084.39 2095.61 2090.29 2087.10 2099.28 2082.76 C 2095.30 2087.60 2090.36 2091.53 2086.09 2096.09 C 2073.88 2108.40 2062.98 2122.03 2053.65 2136.64 C 2036.22 2164.80 2025.69 2196.71 2018.95 2228.98 C 2017.54 2236.26 2016.05 2243.55 2015.33 2250.94 C 2014.94 2252.76 2015.95 2254.52 2017.62 2255.36 C 2019.68 2255.96 2021.62 2253.97 2021.78 2252.01 C 2026.85 2217.02 2036.43 2182.33 2053.05 2150.98 C 2067.60 2123.60 2089.14 2100.60 2112.63 2080.66 C 2117.34 2076.68 2122.16 2072.83 2127.17 2069.23 C 2128.76 2067.83 2131.41 2066.47 2130.62 2063.95 C 2130.61 2061.63 2127.71 2061.72 2126.12 2061.64 C 2130.71 2059.41 2134.95 2056.55 2139.52 2054.28 C 2147.23 2050.09 2156.09 2048.42 2163.48 2043.58 C 2174.18 2037.11 2185.63 2032.05 2196.59 2026.07 L 2197.04 2025.82 C 2201.31 2026.80 2205.62 2027.68 2209.97 2028.41 C 2196.70 2037.66 2183.00 2046.28 2170.03 2055.94 C 2143.21 2075.45 2117.48 2096.60 2094.25 2120.31 C 2083.54 2131.30 2074.32 2145.21 2073.79 2161.01 C 2073.09 2164.83 2074.32 2169.41 2071.34 2172.47 C 2061.97 2184.21 2053.84 2197.01 2047.71 2210.74 C 2038.23 2232.03 2036.08 2256.36 2041.12 2279.08 C 2043.79 2291.44 2049.02 2303.03 2053.09 2314.97 C 2041.98 2314.58 2030.34 2312.49 2021.24 2305.70 C 2011.11 2298.00 2004.34 2286.92 1998.11 2276.05 C 1988.52 2258.93 1980.32 2241.00 1969.18 2224.79 C 1951.28 2198.53 1928.18 2176.50 1907.23 2152.78 C 1879.06 2121.15 1852.81 2087.90 1825.66 2055.41 C 1816.32 2044.10 1806.61 2033.10 1797.13 2021.92 C 1790.01 2013.38 1783.32 2004.31 1778.95 1994.03 C 1776.06 1987.22 1773.80 1980.15 1772.14 1972.96 C 1771.61 1971.24 1772.46 1969.61 1773.06 1968.09 Z" />
<path fill="#7e2a1e" opacity="1.00" d=" M 1767.45 1981.85 C 1770.02 1989.79 1772.75 1997.73 1776.92 2005.00 C 1779.57 2009.87 1782.87 2014.34 1786.02 2018.90 C 1779.36 2020.62 1771.88 2022.50 1765.32 2019.47 C 1760.78 2017.14 1759.04 2012.05 1756.56 2007.95 C 1760.10 1999.21 1763.96 1990.61 1767.45 1981.85 Z" />
<path fill="#7e2a1e" opacity="1.00" d=" M 958.31 2026.64 C 956.37 2023.96 959.50 2021.38 960.98 2019.36 C 969.19 2029.98 978.47 2039.68 987.27 2049.79 C 992.09 2055.93 998.16 2060.91 1003.17 2066.88 C 1016.74 2084.82 1031.53 2101.78 1046.40 2118.64 C 1051.38 2123.75 1056.77 2128.49 1061.18 2134.14 C 1054.04 2131.40 1047.82 2126.74 1041.35 2122.75 C 1018.59 2107.99 999.75 2087.98 983.77 2066.22 C 974.47 2053.57 965.88 2040.38 958.31 2026.64 Z" />
<path fill="#7e2a1e" opacity="1.00" d=" M 663.80 2051.77 C 664.16 2050.89 665.38 2049.18 666.21 2050.77 C 678.16 2064.06 692.59 2074.92 707.80 2084.22 C 712.07 2087.02 716.83 2089.05 721.01 2091.97 C 726.80 2106.76 732.80 2121.54 740.53 2135.46 C 768.02 2185.95 806.15 2229.37 842.56 2273.47 C 867.38 2303.77 891.61 2335.61 905.43 2372.65 C 912.48 2391.48 915.48 2411.87 925.41 2429.59 C 932.57 2441.79 944.96 2449.85 957.65 2455.44 C 968.27 2460.19 979.65 2462.88 991.03 2465.09 C 1019.04 2515.30 1053.54 2563.41 1099.95 2598.28 C 1073.15 2615.20 1045.28 2630.45 1016.31 2643.35 C 979.86 2659.73 942.23 2673.47 903.92 2684.84 C 896.74 2687.00 889.47 2689.01 882.00 2689.93 C 835.00 2696.90 787.44 2700.52 739.91 2699.45 C 695.15 2698.47 650.45 2694.22 606.35 2686.53 C 600.73 2685.41 594.90 2684.93 589.64 2682.52 C 573.65 2675.49 558.30 2666.96 544.02 2656.91 C 531.86 2648.27 520.42 2638.47 510.91 2626.94 C 496.47 2609.45 486.38 2588.43 481.57 2566.28 C 475.33 2536.65 478.67 2505.86 485.52 2476.64 C 486.86 2472.65 486.78 2467.90 489.65 2464.64 C 526.37 2431.43 558.25 2393.18 586.86 2352.86 C 588.71 2351.17 587.50 2347.32 584.80 2348.61 C 581.21 2352.18 578.65 2356.63 575.41 2360.51 C 543.52 2401.46 508.73 2440.47 468.85 2473.82 C 446.42 2492.52 422.74 2509.79 397.65 2524.75 C 384.37 2532.56 370.73 2539.93 356.25 2545.27 C 350.34 2547.27 344.22 2549.35 337.89 2549.10 C 336.00 2549.08 333.50 2548.22 333.45 2545.99 C 333.11 2540.57 334.68 2535.27 335.79 2530.03 C 342.12 2504.75 351.62 2480.41 361.21 2456.23 C 366.82 2442.29 372.64 2428.44 378.73 2414.72 C 379.62 2413.25 379.28 2411.65 379.00 2410.13 C 377.54 2410.43 375.30 2409.75 374.81 2411.68 C 365.45 2431.36 356.75 2451.35 348.59 2471.55 C 321.72 2481.87 293.76 2489.80 265.13 2493.28 C 241.86 2495.91 218.17 2496.51 194.97 2492.93 C 187.98 2491.57 180.54 2490.44 174.55 2486.33 C 171.04 2484.18 175.06 2480.64 176.93 2478.88 C 194.98 2463.71 216.04 2452.77 235.37 2439.40 C 248.94 2430.26 261.39 2419.50 272.65 2407.63 C 279.65 2400.00 286.87 2392.46 292.77 2383.94 C 292.27 2383.47 291.27 2382.53 290.77 2382.06 C 286.60 2385.43 283.28 2389.69 279.36 2393.34 C 267.46 2404.94 255.17 2416.20 242.00 2426.36 C 215.42 2420.29 189.81 2409.82 166.97 2394.89 C 151.42 2384.85 136.86 2373.24 123.74 2360.17 C 115.60 2351.93 107.79 2343.21 101.80 2333.26 C 100.01 2330.03 98.03 2326.69 97.81 2322.94 C 97.43 2320.60 100.27 2320.51 101.85 2320.27 C 108.29 2319.99 114.63 2321.47 120.95 2322.49 C 169.06 2331.40 218.45 2332.74 267.07 2327.64 C 268.37 2327.64 269.88 2326.98 271.10 2327.64 C 272.52 2328.42 273.80 2329.65 275.47 2329.97 C 286.56 2331.40 297.87 2332.49 308.99 2330.67 C 320.04 2330.74 330.98 2329.05 341.99 2328.25 C 356.29 2326.57 370.47 2323.87 384.49 2320.64 C 393.68 2318.02 402.35 2313.95 411.15 2310.29 C 425.47 2303.06 438.76 2293.99 452.00 2284.98 C 459.04 2280.12 465.64 2274.67 472.33 2269.34 C 474.65 2267.45 476.85 2265.40 478.69 2263.05 C 478.62 2262.57 478.47 2261.62 478.39 2261.14 L 478.35 2260.88 C 503.26 2245.62 526.01 2227.07 546.97 2206.78 C 571.99 2182.68 594.39 2155.96 614.95 2127.99 C 632.73 2103.59 649.29 2078.26 663.80 2051.77 Z" />
<path fill="#7e2a1e" opacity="1.00" d=" M 2106.51 2117.46 C 2109.44 2114.94 2111.72 2111.52 2115.28 2109.81 C 2113.26 2118.18 2109.68 2126.09 2107.82 2134.52 C 2107.28 2139.40 2107.37 2144.37 2107.86 2149.27 C 2109.39 2158.59 2110.12 2168.12 2113.13 2177.14 C 2116.37 2186.24 2120.11 2195.29 2125.90 2203.11 C 2130.93 2210.64 2138.44 2215.90 2144.42 2222.61 C 2150.85 2230.04 2160.83 2232.53 2170.03 2234.62 C 2180.71 2237.08 2191.83 2236.18 2202.50 2238.76 L 2203.35 2239.51 C 2184.07 2244.78 2163.85 2249.92 2143.79 2246.31 C 2110.09 2239.37 2082.30 2208.62 2080.05 2174.10 C 2079.64 2163.17 2080.85 2151.79 2086.10 2142.03 C 2091.14 2132.53 2098.91 2124.92 2106.51 2117.46 Z" />
<path fill="#7e2a1e" opacity="1.00" d=" M 2056.58 2207.61 C 2061.49 2198.00 2067.15 2188.72 2073.84 2180.26 C 2078.02 2208.56 2097.38 2233.51 2122.78 2246.21 C 2138.57 2286.29 2141.53 2329.76 2153.07 2371.02 C 2170.38 2433.96 2212.20 2489.98 2268.15 2523.76 C 2295.18 2540.05 2324.68 2552.03 2355.03 2560.56 C 2375.26 2566.08 2395.93 2570.48 2416.92 2571.63 C 2422.30 2571.79 2427.89 2571.94 2433.07 2570.18 C 2436.01 2569.23 2437.83 2566.00 2437.04 2562.99 C 2435.94 2557.71 2433.04 2553.05 2430.53 2548.36 C 2421.36 2532.48 2411.08 2517.29 2401.19 2501.86 C 2371.97 2456.70 2343.99 2410.69 2318.91 2363.08 C 2309.85 2346.09 2301.20 2328.85 2293.92 2311.03 C 2283.05 2284.07 2275.24 2255.95 2269.20 2227.55 C 2272.10 2226.92 2275.03 2226.33 2277.97 2225.79 C 2280.75 2245.42 2284.16 2265.03 2289.93 2284.03 C 2299.33 2315.66 2313.77 2345.51 2329.55 2374.41 C 2346.28 2404.88 2363.99 2434.83 2383.29 2463.76 C 2403.38 2493.99 2424.80 2523.33 2447.27 2551.83 C 2454.58 2561.44 2462.84 2570.37 2469.45 2580.51 C 2470.61 2582.83 2473.50 2586.43 2470.17 2588.31 C 2464.09 2592.41 2456.98 2594.58 2450.16 2597.09 L 2449.86 2596.87 C 2449.41 2596.54 2448.50 2595.87 2448.05 2595.54 C 2429.90 2595.70 2412.18 2590.45 2394.03 2590.32 C 2382.69 2588.71 2371.17 2587.70 2360.16 2584.40 C 2348.24 2581.11 2336.23 2577.93 2324.92 2572.88 C 2316.78 2569.05 2308.03 2566.74 2300.01 2562.65 C 2284.41 2556.41 2270.73 2546.50 2255.77 2538.99 C 2247.26 2534.82 2239.38 2529.54 2231.56 2524.23 C 2225.53 2519.71 2219.17 2515.53 2213.96 2510.05 C 2205.17 2501.16 2195.87 2492.65 2188.89 2482.19 C 2184.90 2475.89 2180.14 2470.10 2176.73 2463.46 C 2173.55 2457.45 2169.03 2452.31 2165.52 2446.51 C 2160.23 2438.47 2156.62 2429.50 2151.94 2421.13 C 2147.31 2411.75 2142.69 2402.35 2138.62 2392.74 C 2135.96 2382.57 2131.05 2373.22 2127.83 2363.26 C 2125.32 2355.81 2122.99 2348.30 2120.15 2340.99 C 2115.33 2327.14 2110.99 2313.11 2107.33 2298.92 C 2104.77 2286.05 2100.99 2273.46 2098.72 2260.53 C 2097.46 2252.99 2094.37 2245.97 2092.20 2238.69 C 2091.08 2235.38 2090.37 2231.75 2087.99 2229.09 C 2082.47 2222.91 2079.63 2214.94 2077.01 2207.24 C 2070.43 2208.45 2065.49 2213.62 2061.73 2218.83 C 2055.72 2228.00 2051.14 2238.18 2049.03 2248.98 C 2047.71 2254.56 2047.74 2260.34 2046.75 2265.99 C 2046.30 2268.30 2046.35 2270.68 2046.71 2273.03 C 2042.48 2250.92 2046.36 2227.58 2056.58 2207.61 Z" />
<path fill="#7e2a1e" opacity="1.00" d=" M 1206.68 2233.99 C 1207.41 2238.58 1207.03 2243.25 1207.04 2247.90 C 1192.21 2250.62 1177.47 2255.40 1164.98 2264.05 C 1146.59 2277.24 1135.69 2298.92 1132.22 2320.94 C 1129.48 2337.99 1131.58 2356.78 1142.05 2371.00 C 1151.93 2384.16 1167.18 2391.85 1182.32 2397.35 C 1177.54 2402.90 1171.63 2407.37 1166.07 2412.09 C 1152.24 2423.40 1136.54 2432.26 1120.12 2439.22 C 1113.07 2424.96 1104.17 2411.32 1092.01 2400.90 C 1081.80 2391.99 1068.88 2384.97 1055.00 2385.39 C 1037.70 2386.01 1021.87 2395.96 1011.16 2409.14 C 1000.05 2423.24 994.13 2440.72 990.85 2458.18 C 980.65 2456.54 970.67 2453.70 961.07 2449.92 L 961.10 2449.06 C 961.64 2440.00 956.89 2431.17 959.23 2422.17 C 960.57 2415.32 962.28 2408.22 966.57 2402.58 C 970.80 2398.36 973.47 2392.89 977.79 2388.77 C 982.07 2384.08 987.01 2380.07 991.34 2375.44 C 1006.91 2370.00 1022.50 2364.49 1037.37 2357.29 C 1063.43 2345.08 1087.85 2329.01 1108.08 2308.44 C 1110.39 2308.63 1111.86 2306.72 1113.42 2305.36 C 1118.11 2300.83 1123.66 2296.84 1126.63 2290.84 C 1128.78 2286.39 1131.01 2281.95 1133.97 2277.97 C 1141.71 2267.52 1150.04 2256.82 1161.96 2250.92 C 1170.68 2244.30 1180.36 2238.25 1191.39 2236.61 C 1195.96 2236.36 1200.57 2234.96 1205.12 2236.27 C 1205.51 2235.70 1206.29 2234.56 1206.68 2233.99 Z" />
<path fill="#7e2a1e" opacity="1.00" d=" M 1284.75 2282.69 C 1288.98 2283.56 1292.98 2285.20 1296.96 2286.84 C 1305.19 2290.25 1313.59 2293.28 1322.21 2295.57 C 1333.73 2299.01 1345.71 2300.39 1357.38 2303.22 C 1364.19 2304.91 1371.32 2304.75 1378.09 2306.58 C 1373.17 2315.12 1367.41 2323.17 1361.92 2331.37 C 1338.73 2314.98 1314.61 2299.90 1289.72 2286.24 C 1287.95 2285.20 1285.86 2284.49 1284.75 2282.69 Z" />
<path fill="#7e2a1e" opacity="1.00" d=" M 1143.49 2303.55 L 1144.08 2304.48 C 1144.21 2304.69 1144.48 2305.12 1144.62 2305.33 C 1151.06 2305.13 1157.25 2307.21 1163.61 2307.95 C 1170.86 2309.83 1177.47 2313.55 1184.47 2316.18 C 1196.33 2320.37 1208.02 2325.09 1219.41 2330.44 C 1225.62 2332.84 1231.21 2336.61 1237.55 2338.70 C 1243.46 2340.57 1248.28 2344.63 1253.69 2347.54 C 1268.26 2357.28 1284.52 2364.17 1298.90 2374.21 C 1303.65 2377.68 1306.94 2382.70 1311.49 2386.40 C 1325.75 2395.81 1340.34 2404.82 1353.82 2415.35 C 1362.60 2421.67 1371.54 2427.78 1380.17 2434.31 C 1372.37 2432.43 1364.92 2429.27 1357.11 2427.38 C 1313.52 2415.28 1268.13 2412.07 1224.08 2402.15 C 1208.58 2398.61 1193.07 2394.75 1178.34 2388.68 C 1168.27 2384.45 1158.38 2379.07 1150.80 2371.06 C 1143.75 2363.72 1139.84 2353.87 1138.48 2343.89 C 1136.65 2330.29 1138.86 2316.39 1143.49 2303.55 Z" />
<path fill="#7e2a1e" opacity="1.00" d=" M 146.14 2388.74 C 156.28 2395.77 166.35 2402.96 177.24 2408.85 C 195.18 2419.03 214.66 2426.24 234.58 2431.48 C 226.25 2438.09 216.90 2443.29 208.00 2449.09 C 202.76 2452.29 197.71 2455.80 192.41 2458.92 C 184.25 2450.57 176.31 2441.95 169.73 2432.28 C 160.34 2418.67 152.45 2404.02 146.14 2388.74 Z" />
<path fill="#7e2a1e" opacity="1.00" d=" M 1030.37 2400.36 C 1040.51 2393.91 1053.18 2389.98 1065.10 2393.24 C 1076.85 2396.39 1086.71 2404.25 1094.87 2413.01 C 1107.43 2426.65 1115.32 2443.73 1122.30 2460.70 C 1130.20 2480.08 1136.86 2499.99 1146.19 2518.76 C 1154.37 2535.44 1163.93 2551.42 1174.20 2566.90 C 1178.80 2574.15 1184.30 2580.82 1188.78 2588.15 C 1183.40 2587.49 1178.05 2586.57 1173.19 2584.08 C 1153.84 2576.59 1136.88 2564.42 1119.10 2553.98 C 1110.58 2548.57 1102.55 2542.45 1094.22 2536.77 C 1086.00 2531.12 1078.52 2524.49 1070.96 2518.02 C 1064.79 2512.89 1059.72 2506.58 1053.44 2501.59 C 1047.64 2496.90 1043.97 2490.28 1039.63 2484.36 C 1028.78 2469.32 1019.06 2453.52 1009.29 2437.78 C 1008.09 2435.93 1006.75 2434.21 1005.37 2432.55 L 1005.11 2432.23 C 1010.47 2419.60 1018.75 2407.92 1030.37 2400.36 Z" />
<path fill="#7e2a1e" opacity="1.00" d=" M 1189.45 2400.37 C 1197.21 2402.04 1204.80 2404.82 1212.62 2406.49 C 1239.42 2413.09 1266.75 2417.09 1294.00 2421.33 C 1295.85 2421.26 1294.36 2423.28 1293.81 2423.92 C 1268.00 2453.62 1241.58 2482.82 1213.75 2510.64 C 1200.03 2524.20 1186.28 2537.80 1171.31 2550.00 C 1162.82 2536.09 1154.88 2521.81 1148.16 2506.95 C 1139.12 2486.69 1132.21 2465.56 1123.19 2445.29 C 1139.88 2438.26 1155.80 2429.21 1169.88 2417.77 C 1176.72 2412.33 1183.15 2406.40 1189.45 2400.37 Z" />
<path fill="#7e2a1e" opacity="1.00" d=" M 398.19 2532.19 C 426.88 2515.36 453.77 2495.57 479.02 2473.96 C 472.73 2502.74 468.87 2532.69 473.90 2561.99 C 478.17 2586.13 488.41 2609.22 503.57 2628.50 C 520.05 2649.36 542.04 2665.10 565.10 2677.93 C 523.53 2668.70 482.96 2655.01 443.99 2637.87 C 397.08 2617.12 352.37 2591.65 309.48 2563.58 C 280.40 2544.38 251.98 2524.13 224.91 2502.18 C 252.84 2502.38 280.82 2499.11 307.80 2491.80 C 320.42 2488.52 332.84 2484.48 345.13 2480.12 C 338.27 2498.75 331.18 2517.44 327.47 2537.01 C 326.82 2541.15 326.06 2545.55 327.51 2549.64 C 328.98 2553.45 333.08 2555.44 336.97 2555.78 C 343.35 2556.26 349.62 2554.44 355.65 2552.56 C 370.57 2547.47 384.57 2540.06 398.19 2532.19 Z" />
</g>
<g id="#1d3a50ff">
<path fill="#1d3a50" opacity="1.00" d=" M 1598.06 2255.27 C 1606.74 2250.66 1614.89 2245.15 1623.24 2239.99 C 1619.58 2247.12 1614.34 2253.32 1609.92 2260.00 C 1587.28 2292.23 1562.89 2323.27 1536.09 2352.14 C 1513.18 2376.86 1489.03 2400.47 1463.83 2422.82 C 1451.72 2409.77 1439.51 2396.68 1426.40 2384.57 C 1407.76 2366.88 1387.67 2350.78 1367.27 2335.19 C 1377.42 2320.05 1387.19 2304.65 1397.14 2289.39 C 1401.16 2291.32 1405.69 2291.49 1410.08 2291.58 C 1421.74 2291.50 1433.41 2291.53 1445.08 2291.55 C 1456.05 2291.36 1467.08 2292.23 1477.97 2290.55 C 1484.24 2290.00 1490.44 2288.85 1496.66 2287.90 C 1512.38 2286.32 1527.73 2282.34 1542.89 2278.04 C 1552.22 2275.74 1561.48 2273.00 1570.44 2269.54 C 1579.68 2264.85 1589.03 2260.36 1598.06 2255.27 Z" />
<path fill="#1d3a50" opacity="1.00" d=" M 1300.13 2426.98 C 1301.72 2425.30 1303.10 2422.27 1305.93 2423.32 C 1326.96 2426.87 1347.92 2431.19 1368.26 2437.67 C 1386.38 2443.52 1404.33 2450.07 1421.71 2457.88 C 1391.90 2480.78 1360.85 2502.06 1329.11 2522.19 C 1295.21 2543.36 1260.09 2562.54 1224.37 2580.43 C 1216.32 2584.31 1208.44 2588.56 1200.21 2592.06 C 1191.42 2580.29 1183.00 2568.24 1175.07 2555.87 C 1202.60 2532.58 1227.65 2506.54 1252.37 2480.34 C 1268.57 2462.80 1284.50 2445.03 1300.13 2426.98 Z" />
<path fill="#1d3a50" opacity="1.00" d=" M 1103.81 2603.84 C 1105.85 2602.02 1107.94 2604.16 1109.69 2605.32 C 1118.79 2611.98 1128.54 2617.69 1138.11 2623.65 C 1077.52 2645.96 1015.25 2663.60 952.15 2677.24 C 950.76 2677.47 949.35 2677.61 947.96 2677.77 C 983.66 2665.21 1018.78 2650.83 1052.41 2633.44 C 1070.01 2624.41 1087.04 2614.32 1103.81 2603.84 Z" />
</g>
</svg>
