<svg width="409" height="101" xmlns="http://www.w3.org/2000/svg" xmlns:xlink="http://www.w3.org/1999/xlink" xml:space="preserve" overflow="hidden"><g transform="translate(-85 -309)"><path d="M115.062 334.436C123.714 333.878 132.418 334.263 141.096 334.303 141.043 342.981 141.136 351.673 141.03 360.364 136.352 364.563 132.511 369.72 127.395 373.361 123.196 373.653 118.969 373.427 114.77 373.534 114.823 377.826 114.783 382.132 114.571 386.424 110.358 386.318 106.145 386.318 101.932 386.424 101.853 373.932 101.826 361.44 101.919 348.948 101.733 346.888 103.633 345.652 104.803 344.27 108.192 340.961 111.315 337.346 115.062 334.436M114.797 347.353C114.743 351.579 114.743 355.792 114.77 360.005 119.195 360.204 123.621 360.204 128.046 360.005 128.113 355.792 128.099 351.593 128.006 347.38 123.594 347.314 119.195 347.314 114.797 347.353Z" stroke="#000000" stroke-width="3.65758" fill="#00a4e9"/><path d="M147.808 347.712C151.582 342.715 156.446 338.609 160.924 334.25 161.017 342.769 160.791 351.3 161.031 359.832 165.363 355.872 169.416 351.646 173.523 347.46 173.523 343.101 173.576 338.729 173.536 334.37 177.908 334.17 182.294 334.144 186.666 334.303 186.639 355.912 186.919 377.507 186.533 399.103 183.038 396.033 179.849 392.644 176.5 389.428 175.264 388.046 173.363 386.81 173.589 384.697 173.35 376.829 173.789 368.949 173.39 361.081 169.151 365.135 164.539 368.962 161.044 373.693 160.725 377.893 161.004 382.119 160.831 386.331 156.472 386.345 152.1 386.358 147.728 386.292 147.715 373.441 147.555 360.563 147.808 347.712Z" stroke="#000000" stroke-width="3.65758" fill="#00a4e9"/><path d="M208.062 334.582C216.527 334.25 225.019 334.449 233.498 334.556 233.166 347.433 233.751 360.337 233.232 373.188 229.538 377.853 225.126 381.973 220.7 385.946 212.062 386.876 203.278 386.132 194.587 386.278 194.759 373.467 194.401 360.643 194.746 347.845 198.839 343.141 203.185 338.449 208.062 334.582M207.717 347.566C207.637 356.111 207.65 364.67 207.717 373.215 211.929 373.294 216.155 373.308 220.368 373.228 220.528 364.656 220.554 356.085 220.342 347.5 216.142 347.473 211.929 347.473 207.717 347.566Z" stroke="#000000" stroke-width="3.65758" fill="#00a4e9"/><path d="M240.462 347.646C244.356 342.715 248.954 338.33 253.632 334.144 257.765 342.357 261.433 350.822 266.19 358.716 266.722 350.503 266.31 342.29 266.456 334.077 270.788 333.971 275.134 333.958 279.48 334.024 279.201 347.194 280.064 360.47 279.108 373.56 275.054 377.959 270.815 382.185 266.443 386.265 261.977 377.8 258.11 369.015 253.366 360.696 253.432 369.228 253.539 377.76 253.366 386.278 249.047 386.371 244.728 386.371 240.395 386.278 240.316 373.401 240.116 360.51 240.462 347.646Z" stroke="#000000" stroke-width="3.65758" fill="#00a4e9"/><path d="M299.892 334.622C308.424 334.21 316.983 334.489 325.528 334.542 324.837 339.885 327.681 346.875 322.511 350.609 319.069 353.865 315.747 357.241 312.451 360.63 308.119 360.616 303.786 360.696 299.467 360.483 299.454 364.723 299.454 368.975 299.48 373.215 303.879 373.308 308.265 373.294 312.664 373.228 316.863 369.002 321.023 364.749 325.249 360.563 325.634 364.842 325.833 369.188 325.262 373.454 321.288 377.919 317.089 382.238 312.544 386.119 303.946 386.677 295.307 386.185 286.696 386.318 286.497 373.401 286.59 360.483 286.643 347.566 291.055 343.26 295.042 338.449 299.892 334.622M299.494 347.526C299.454 351.739 299.414 355.952 299.507 360.151 303.906 356.217 308.172 352.098 311.986 347.579 307.826 347.446 303.653 347.486 299.494 347.526Z" stroke="#000000" stroke-width="3.65758" fill="#00a4e9"/><path d="M345.183 334.303C349.834 338.303 354.007 342.808 358.286 347.181 362.951 343.194 366.672 338.224 371.496 334.436 375.789 333.918 380.134 334.25 384.467 334.263 384.281 347.353 385.011 360.537 384.134 373.574 380.081 377.986 375.735 382.145 371.35 386.225 371.217 376.364 371.483 366.49 371.217 356.616 366.552 360.297 363.137 365.879 358.06 368.71 353.675 364.909 349.941 360.43 345.555 356.629 345.382 366.53 345.635 376.431 345.435 386.331 341.103 386.345 336.757 386.358 332.425 386.292 332.398 373.441 332.186 360.563 332.505 347.726 336.106 342.742 341.13 338.941 345.183 334.303Z" stroke="#000000" stroke-width="3.65758" fill="#00a4e9"/><path d="M405.052 334.782C413.624 333.971 422.302 334.662 430.913 334.463 430.78 347.5 431.299 360.576 430.674 373.574 426.421 377.853 422.541 382.823 417.557 386.185 409.158 386.571 400.733 386.265 392.334 386.278 392.361 373.427 392.081 360.563 392.44 347.726 396.201 343.034 400.68 338.901 405.052 334.782M405.411 347.539C405.305 356.111 405.358 364.67 405.371 373.241 409.544 373.294 413.717 373.294 417.89 373.228 417.983 364.67 417.969 356.111 417.903 347.553 413.743 347.473 409.57 347.473 405.411 347.539Z" stroke="#000000" stroke-width="3.65758" fill="#00a4e9"/><path d="M438.767 347.726C442.608 342.742 447.166 338.237 451.977 334.17 456.017 342.224 459.459 350.663 464.403 358.211 464.961 350.211 464.589 342.157 464.615 334.144 468.974 333.944 473.347 333.944 477.706 334.051 477.679 346.888 477.931 359.753 477.612 372.577 474.078 377.746 469.187 381.986 464.642 386.305 460.389 377.773 456.296 369.148 451.711 360.776 451.764 369.268 451.858 377.773 451.685 386.278 447.339 386.371 443.007 386.371 438.674 386.278 438.648 373.441 438.409 360.563 438.767 347.726Z" stroke="#000000" stroke-width="3.65758" fill="#00a4e9"/></g></svg>