<svg width="250" height="327" xmlns="http://www.w3.org/2000/svg" xmlns:xlink="http://www.w3.org/1999/xlink" xml:space="preserve" overflow="hidden"><g transform="translate(-2098 -1048)"><path d="M2269.44 1084.5C2275.41 1099.58 2268.83 1117.55 2277.57 1131.4 2270.78 1147.82 2266.46 1165.21 2258.71 1181.22 2248.17 1203.25 2235.21 1223.98 2221.86 1244.36 2206.84 1267.4 2185.23 1285.54 2172.33 1310.06 2200.9 1298.66 2228.86 1284.68 2252.87 1265.2 2276.37 1247.67 2298.29 1226.94 2312.91 1201.15 2316.51 1195.44 2317.44 1188.59 2317.54 1181.94 2319.66 1186.73 2321.69 1191.55 2323.68 1196.4 2307.35 1218.16 2292.43 1241.64 2270.44 1258.21 2254.49 1269.88 2239.98 1283.72 2222.34 1292.88 2205.47 1302.11 2187.22 1308.99 2171.95 1320.94 2207.73 1325 2243.54 1328.96 2279.32 1333.2 2300.56 1335.37 2320.63 1342.98 2341.38 1347.52 2348.79 1321.32 2345.5 1293.7 2344.71 1266.92 2349.24 1295.81 2347.49 1325.49 2344.88 1354.55 2342.07 1356.82 2339.32 1359.12 2336.58 1361.5 2308.82 1337.36 2270.09 1340.5 2236.24 1333.75 2208.62 1327.96 2180.29 1328.24 2152.5 1323.9 2171.64 1289.85 2202.86 1264.78 2222.86 1231.28 2238.02 1206.56 2253.25 1181.42 2262.2 1153.64 2269.48 1131.4 2270.58 1107.71 2269.44 1084.5Z" stroke="#000000" stroke-width="0" stroke-miterlimit="8" stroke-opacity="0.980392" fill="#000000" fill-rule="evenodd" fill-opacity="0.980392"/><path d="M2198.68 1131.55C2205.62 1128.13 2214.76 1129.24 2221.39 1133 2234.37 1143.46 2245.05 1159.83 2243.31 1177.34 2240.29 1195.74 2221.7 1208.07 2204.02 1207.48 2192.6 1204.3 2181.04 1196.12 2178.29 1183.76 2174.92 1164.42 2182.47 1142.81 2198.68 1131.55M2190.18 1154.13C2201.91 1156 2215.54 1153.72 2223.06 1143.5 2213.44 1131.41 2190.86 1139.56 2190.18 1154.13M2206.54 1163.91C2210.58 1174.92 2211.74 1187.04 2217.31 1197.43 2222.85 1193.32 2229.82 1189.87 2232.61 1183.1 2235.05 1172.5 2233.73 1161.52 2233.19 1150.78 2222.82 1147.47 2214.66 1158.8 2206.54 1163.91M2186.89 1157.69C2183.56 1166.53 2184.54 1176.09 2184.41 1185.38 2186.24 1176.82 2188.62 1168.36 2192.26 1160.38 2190.93 1159.69 2188.25 1158.35 2186.89 1157.69Z" stroke="#000000" stroke-width="0" stroke-miterlimit="8" stroke-opacity="0.980392" fill="#000000" fill-rule="evenodd" fill-opacity="0.980392"/><path d="M2178.5 1374.5C2182.76 1368.12 2186.96 1361.67 2191.5 1355.5 2190.75 1361.85 2189.9 1368.19 2189.01 1374.5L2178.5 1374.5Z" stroke="#000000" stroke-width="0" stroke-miterlimit="8" stroke-opacity="0.980392" fill="#000000" fill-rule="evenodd" fill-opacity="0.980392"/><path d="M2229.5 1374.5C2234.21 1369.57 2238.82 1364.5 2243.5 1359.5 2242.89 1364.5 2242.28 1369.5 2241.67 1374.5L2229.5 1374.5Z" stroke="#000000" stroke-width="0" stroke-miterlimit="8" stroke-opacity="0.980392" fill="#000000" fill-rule="evenodd" fill-opacity="0.980392"/><path d="M2258.75 1181.42C2266.49 1165.38 2270.81 1147.95 2277.59 1131.5 2294.04 1145.37 2309.24 1161.89 2317.5 1182.14 2317.4 1188.8 2316.47 1195.66 2312.88 1201.39 2298.28 1227.23 2276.39 1247.99 2252.93 1265.55 2228.95 1285.08 2201.03 1299.08 2172.5 1310.5 2185.38 1285.94 2206.96 1267.76 2221.96 1244.68 2235.29 1224.26 2248.24 1203.49 2258.75 1181.42Z" stroke="#000000" stroke-width="0" stroke-miterlimit="8" fill="#EDF3EE" fill-rule="evenodd"/><path d="M2206.5 1164.15C2214.77 1159.06 2223.08 1147.8 2233.64 1151.09 2234.19 1161.78 2235.54 1172.7 2233.05 1183.25 2230.21 1189.98 2223.11 1193.41 2217.47 1197.5 2211.8 1187.16 2210.62 1175.1 2206.5 1164.15Z" stroke="#000000" stroke-width="0" stroke-miterlimit="8" fill="#EDF3EE" fill-rule="evenodd"/><path d="M2187.05 1157.5C2188.43 1158.16 2191.16 1159.53 2192.5 1160.22 2188.81 1168.29 2186.4 1176.84 2184.54 1185.5 2184.67 1176.11 2183.68 1166.44 2187.05 1157.5Z" stroke="#000000" stroke-width="0" stroke-miterlimit="8" fill="#EDF3EE" fill-rule="evenodd"/><path d="M2270.89 1258.26C2292.86 1241.71 2307.77 1218.24 2324.08 1196.5 2334.98 1218.76 2339.57 1243.01 2345.09 1266.96 2345.88 1293.73 2349.17 1321.32 2341.77 1347.5 2321.03 1342.96 2300.98 1335.36 2279.77 1333.19 2244.02 1328.96 2208.25 1325 2172.5 1320.94 2187.75 1309 2205.98 1302.12 2222.84 1292.9 2240.46 1283.75 2254.96 1269.92 2270.89 1258.26Z" stroke="#000000" stroke-width="0" stroke-miterlimit="8" fill="#EDF3EE" fill-rule="evenodd"/><path d="M2155.75 1099.47C2169.87 1067.42 2205.49 1042.53 2241.25 1049.76 2255.95 1055.75 2263.68 1071.03 2269.28 1084.94 2270.41 1108.15 2269.31 1131.83 2262.03 1154.07 2253.07 1181.85 2237.81 1206.98 2222.63 1231.7 2202.61 1265.2 2171.35 1290.26 2152.18 1324.31 2180.01 1328.64 2208.38 1328.37 2236.03 1334.15 2269.93 1340.9 2308.71 1337.77 2336.5 1361.9 2331.62 1366.1 2326.71 1370.3 2321.8 1374.5L2241.63 1374.5C2242.25 1369.78 2242.86 1365.07 2243.48 1360.35 2238.74 1365.07 2234.07 1369.85 2229.3 1374.5L2188.87 1374.5C2189.76 1368.34 2190.62 1362.14 2191.37 1355.94 2186.81 1361.97 2182.58 1368.27 2178.29 1374.5L2098.63 1374.5C2099.08 1345.13 2096.78 1315.49 2102 1286.4 2105.19 1255.66 2116.12 1226.61 2122.3 1196.48 2130.44 1163.19 2142.36 1130.97 2155.75 1099.47M2198.31 1131.8C2181.93 1143.02 2174.3 1164.57 2177.7 1183.85 2180.49 1196.17 2192.16 1204.33 2203.71 1207.5 2221.57 1208.08 2240.36 1195.79 2243.41 1177.44 2245.17 1159.99 2234.38 1143.67 2221.26 1133.24 2214.56 1129.49 2205.32 1128.39 2198.31 1131.8Z" stroke="#000000" stroke-width="0" stroke-miterlimit="8" fill="#3AA2CA" fill-rule="evenodd"/><path d="M2190.5 1153.91C2191.18 1139.41 2213.84 1131.3 2223.5 1143.33 2215.96 1153.5 2202.27 1155.77 2190.5 1153.91Z" stroke="#000000" stroke-width="0" stroke-miterlimit="8" fill="#3AA2CA" fill-rule="evenodd"/></g></svg>