<svg width="160" height="160" viewBox="0 0 120 120" xmlns="http://www.w3.org/2000/svg" xmlns:xlink="http://www.w3.org/1999/xlink" overflow="hidden"><g id="#41423eff"><path d="M51.45 17.43C55.23 14.64 60.34 11.72 65.07 13.91 67.97 15.22 70.39 17.4 73.3 18.73 76.58 20.12 77.9 23.65 79.4 26.6 80.82 32.06 82.58 37.48 83.19 43.12 86.97 43.15 90.78 42.85 94.54 43.32 96.96 45.15 100.37 47.9 98.38 51.28 95.2 57.07 87.53 56.41 82 58.2 81.57 65.92 81.14 74.01 77.96 81.17 81.39 87.75 86.21 94.73 84.72 102.53 83 104.52 81.13 107.49 78.08 106.9 74.44 106.36 71.01 104.14 68.93 101.09 67.64 98.84 66.46 96.52 65.13 94.29 62.14 94.88 59.09 94.99 56.05 95.07 54.02 101.28 48.09 105.56 41.9 106.9 38.13 107.56 35.95 104.09 35.2 100.92 35.82 95.57 37.91 90.37 41.86 86.61 35.85 79.95 35.75 70.48 34.93 62.04 30.65 60.61 24.82 62.25 22.29 57.55 21.96 55.12 22.1 52.65 22.09 50.21 26.63 46.49 31.89 43.5 37.8 42.76 39.39 37.25 41.14 31.77 43.6 26.58 45.03 22.7 48.42 20.05 51.45 17.43M48.17 25.21C42.09 33.17 41.07 43.41 39 52.87 44.33 53.54 49.65 52.23 54.98 52.23 62.97 52.19 70.92 51.43 78.88 50.76 79.18 42.14 79.23 32.97 74.68 25.32 71.07 21.38 66.08 18.82 60.95 17.53 55.56 17.35 51.45 21.45 48.17 25.21M84.83 45.86C83.06 46.92 82.21 48.93 81.1 50.57 85.79 49.74 90.44 48.68 95.08 47.55 91.87 46.29 88.3 44.58 84.83 45.86M30.08 48.17C28 49.34 26.48 51.22 24.81 52.87 28.5 52.71 32.21 52.53 35.91 52.64 36.62 50.47 37.33 48.31 38.05 46.14 35.38 46.74 32.6 47.05 30.08 48.17M81.46 52.57C81.49 53.23 81.54 54.57 81.57 55.23 86.68 54.54 92.97 54.48 96.2 49.74 91.13 49.44 86.09 50.55 81.46 52.57M24.9 55.64C26.26 56.53 27.26 58.44 29.05 58.41 31.84 58.29 35.84 59.62 36.48 55.8 32.96 53.68 28.56 54.13 24.9 55.64M49.54 55.66C45.96 56.05 42.34 56.67 38.98 58 37.34 62.28 37.88 66.97 38.75 71.36 39.61 75.38 40.5 79.57 43 82.94 45.39 86.42 48.24 90.64 52.99 90.56 58.41 90.58 65.12 91.7 69.03 87.01 77.07 78.39 78.46 65.8 78.46 54.53 68.81 54.5 59.16 54.82 49.54 55.66M68.6 90.92C69.93 94.96 70.27 100.41 74.77 102.32 77.08 102.88 80.77 103.4 81.5 100.37 84.22 93.98 78.44 88.44 75.81 83.11 73.38 85.69 71.07 88.38 68.6 90.92M38.53 99.37C37.35 101.82 40.78 103.45 42.77 102.82 47.63 102.03 50.33 97.58 52.78 93.8 49.9 92.47 47.14 90.88 44.54 89.06 42.33 92.35 39.87 95.61 38.53 99.37Z" fill="#41423E"/><path d="M57.23 31.65C59.28 30.42 60.22 34.72 58.02 34.9 56.5 34.78 56.23 32.53 57.23 31.65Z" fill="#41423E"/><path d="M62.16 30.9C64.44 29.97 63.97 34.14 61.99 33.86 60.5 33.56 61.16 31.41 62.16 30.9Z" fill="#41423E"/><path d="M45.26 44.49C44.85 38.8 48.36 33.2 53.94 31.63 56.76 35.47 57.21 40.35 55.95 44.85 52.38 44.98 48.81 44.91 45.26 44.49M45.56 43.35C47.19 43.55 48.81 43.74 50.44 43.93 50.96 40.85 52.39 38.08 54.89 36.15 54.57 35.01 54.25 33.87 53.94 32.73 49.44 34.59 46.83 38.82 45.56 43.35Z" fill="#41423E"/><path d="M63.42 34.53C64.99 33.25 67.28 32.57 69.02 33.95 72.49 35.56 73.49 39.44 74.12 42.87 70.59 45.41 66.15 45.01 62.05 44.72 62.16 41.31 62.14 37.75 63.42 34.53M65.81 33.55C64.18 37.13 66.87 40.26 67.9 43.57 69.35 43.21 70.8 42.85 72.25 42.5 73.47 38.06 69.62 34.77 65.81 33.55Z" fill="#41423E"/></g><g id="#f3f7f0ff"><path d="M48.17 25.21C51.45 21.45 55.56 17.35 60.95 17.53 66.08 18.82 71.07 21.38 74.68 25.32 79.23 32.97 79.18 42.14 78.88 50.76 70.92 51.43 62.97 52.19 54.98 52.23 49.65 52.23 44.33 53.54 39 52.87 41.07 43.41 42.09 33.17 48.17 25.21M57.23 31.65C56.23 32.53 56.5 34.78 58.02 34.9 60.22 34.72 59.28 30.42 57.23 31.65M62.16 30.9C61.16 31.41 60.5 33.56 61.99 33.86 63.97 34.14 64.44 29.97 62.16 30.9M45.26 44.49C48.81 44.91 52.38 44.98 55.95 44.85 57.21 40.35 56.76 35.47 53.94 31.63 48.36 33.2 44.85 38.8 45.26 44.49M63.42 34.53C62.14 37.75 62.16 41.31 62.05 44.72 66.15 45.01 70.59 45.41 74.12 42.87 73.49 39.44 72.49 35.56 69.02 33.95 67.28 32.57 64.99 33.25 63.42 34.53Z" fill="#F3F7F0"/><path d="M45.56 43.35C46.83 38.82 49.44 34.59 53.94 32.73 54.25 33.87 54.57 35.01 54.89 36.15 52.39 38.08 50.96 40.85 50.44 43.93 48.81 43.74 47.19 43.55 45.56 43.35Z" fill="#F3F7F0"/><path d="M65.81 33.55C69.62 34.77 73.47 38.06 72.25 42.5 70.8 42.85 69.35 43.21 67.9 43.57 66.87 40.26 64.18 37.13 65.81 33.55Z" fill="#F3F7F0"/><path d="M81.46 52.57C86.09 50.55 91.13 49.44 96.2 49.74 92.97 54.48 86.68 54.54 81.57 55.23 81.54 54.57 81.49 53.23 81.46 52.57Z" fill="#F3F7F0"/><path d="M24.9 55.64C28.56 54.13 32.96 53.68 36.48 55.8 35.84 59.62 31.84 58.29 29.05 58.41 27.26 58.44 26.26 56.53 24.9 55.64Z" fill="#F3F7F0"/><path d="M68.6 90.92C71.07 88.38 73.38 85.69 75.81 83.11 78.44 88.44 84.22 93.98 81.5 100.37 80.77 103.4 77.08 102.88 74.77 102.32 70.27 100.41 69.93 94.96 68.6 90.92Z" fill="#F3F7F0"/><path d="M38.53 99.37C39.87 95.61 42.33 92.35 44.54 89.06 47.14 90.88 49.9 92.47 52.78 93.8 50.33 97.58 47.63 102.03 42.77 102.82 40.78 103.45 37.35 101.82 38.53 99.37Z" fill="#F3F7F0"/></g><g id="#449ec4ff"><path d="M84.83 45.86C88.3 44.58 91.87 46.29 95.08 47.55 90.44 48.68 85.79 49.74 81.1 50.57 82.21 48.93 83.06 46.92 84.83 45.86Z" fill="#449EC4"/><path d="M30.08 48.17C32.6 47.05 35.38 46.74 38.05 46.14 37.33 48.31 36.62 50.47 35.91 52.64 32.21 52.53 28.5 52.71 24.81 52.87 26.48 51.22 28 49.34 30.08 48.17Z" fill="#449EC4"/><path d="M49.54 55.66C59.16 54.82 68.81 54.5 78.46 54.53 78.46 65.8 77.07 78.39 69.03 87.01 65.12 91.7 58.41 90.58 52.99 90.56 48.24 90.64 45.39 86.42 43 82.94 40.5 79.57 39.61 75.38 38.75 71.36 37.88 66.97 37.34 62.28 38.98 58 42.34 56.67 45.96 56.05 49.54 55.66Z" fill="#449EC4"/></g></svg>