<svg width="409.333" height="101.333" viewBox="0 0 307 76" xmlns="http://www.w3.org/2000/svg" xmlns:xlink="http://www.w3.org/1999/xlink" overflow="hidden"><g id="#3aa3cbff"><path d="M22.24 19.14C28.75 18.72 35.3 19.01 41.83 19.04 41.79 25.57 41.86 32.11 41.78 38.65 38.26 41.81 35.37 45.69 31.52 48.43 28.36 48.65 25.18 48.48 22.02 48.56 22.06 51.79 22.03 55.03 21.87 58.26 18.7 58.18 15.53 58.18 12.36 58.26 12.3 48.86 12.28 39.46 12.35 30.06 12.21 28.51 13.64 27.58 14.52 26.54 17.07 24.05 19.42 21.33 22.24 19.14M22.04 28.86C22 32.04 22 35.21 22.02 38.38 25.35 38.53 28.68 38.53 32.01 38.38 32.06 35.21 32.05 32.05 31.98 28.88 28.66 28.83 25.35 28.83 22.04 28.86Z" stroke="#000000" stroke-width="2.75224" fill="#3AA3CB"/><path d="M46.88 29.13C49.72 25.37 53.38 22.28 56.75 19 56.82 25.41 56.65 31.83 56.83 38.25 60.09 35.27 63.14 32.09 66.23 28.94 66.23 25.66 66.27 22.37 66.24 19.09 69.53 18.94 72.83 18.92 76.12 19.04 76.1 35.3 76.31 51.55 76.02 67.8 73.39 65.49 70.99 62.94 68.47 60.52 67.54 59.48 66.11 58.55 66.28 56.96 66.1 51.04 66.43 45.11 66.13 39.19 62.94 42.24 59.47 45.12 56.84 48.68 56.6 51.84 56.81 55.02 56.68 58.19 53.4 58.2 50.11 58.21 46.82 58.16 46.81 48.49 46.69 38.8 46.88 29.13Z" stroke="#000000" stroke-width="2.75224" fill="#3AA3CB"/><path d="M92.22 19.25C98.59 19 104.98 19.15 111.36 19.23 111.11 28.92 111.55 38.63 111.16 48.3 108.38 51.81 105.06 54.91 101.73 57.9 95.23 58.6 88.62 58.04 82.08 58.15 82.21 48.51 81.94 38.86 82.2 29.23 85.28 25.69 88.55 22.16 92.22 19.25M91.96 29.02C91.9 35.45 91.91 41.89 91.96 48.32 95.13 48.38 98.31 48.39 101.48 48.33 101.6 41.88 101.62 35.43 101.46 28.97 98.3 28.95 95.13 28.95 91.96 29.02Z" stroke="#000000" stroke-width="2.75224" fill="#3AA3CB"/><path d="M116.6 29.08C119.53 25.37 122.99 22.07 126.51 18.92 129.62 25.1 132.38 31.47 135.96 37.41 136.36 31.23 136.05 25.05 136.16 18.87 139.42 18.79 142.69 18.78 145.96 18.83 145.75 28.74 146.4 38.73 145.68 48.58 142.63 51.89 139.44 55.07 136.15 58.14 132.79 51.77 129.88 45.16 126.31 38.9 126.36 45.32 126.44 51.74 126.31 58.15 123.06 58.22 119.81 58.22 116.55 58.15 116.49 48.46 116.34 38.76 116.6 29.08Z" stroke="#000000" stroke-width="2.75224" fill="#3AA3CB"/><path d="M161.32 19.28C167.74 18.97 174.18 19.18 180.61 19.22 180.09 23.24 182.23 28.5 178.34 31.31 175.75 33.76 173.25 36.3 170.77 38.85 167.51 38.84 164.25 38.9 161 38.74 160.99 41.93 160.99 45.13 161.01 48.32 164.32 48.39 167.62 48.38 170.93 48.33 174.09 45.15 177.22 41.95 180.4 38.8 180.69 42.02 180.84 45.29 180.41 48.5 177.42 51.86 174.26 55.11 170.84 58.03 164.37 58.45 157.87 58.08 151.39 58.18 151.24 48.46 151.31 38.74 151.35 29.02 154.67 25.78 157.67 22.16 161.32 19.28M161.02 28.99C160.99 32.16 160.96 35.33 161.03 38.49 164.34 35.53 167.55 32.43 170.42 29.03 167.29 28.93 164.15 28.96 161.02 28.99Z" stroke="#000000" stroke-width="2.75224" fill="#3AA3CB"/><path d="M195.4 19.04C198.9 22.05 202.04 25.44 205.26 28.73 208.77 25.73 211.57 21.99 215.2 19.14 218.43 18.75 221.7 19 224.96 19.01 224.82 28.86 225.37 38.78 224.71 48.59 221.66 51.91 218.39 55.04 215.09 58.11 214.99 50.69 215.19 43.26 214.99 35.83 211.48 38.6 208.91 42.8 205.09 44.93 201.79 42.07 198.98 38.7 195.68 35.84 195.55 43.29 195.74 50.74 195.59 58.19 192.33 58.2 189.06 58.21 185.8 58.16 185.78 48.49 185.62 38.8 185.86 29.14 188.57 25.39 192.35 22.53 195.4 19.04Z" stroke="#000000" stroke-width="2.75224" fill="#3AA3CB"/><path d="M240.45 19.4C246.9 18.79 253.43 19.31 259.91 19.16 259.81 28.97 260.2 38.81 259.73 48.59 256.53 51.81 253.61 55.55 249.86 58.08 243.54 58.37 237.2 58.14 230.88 58.15 230.9 48.48 230.69 38.8 230.96 29.14 233.79 25.61 237.16 22.5 240.45 19.4M240.72 29C240.64 35.45 240.68 41.89 240.69 48.34 243.83 48.38 246.97 48.38 250.11 48.33 250.18 41.89 250.17 35.45 250.12 29.01 246.99 28.95 243.85 28.95 240.72 29Z" stroke="#000000" stroke-width="2.75224" fill="#3AA3CB"/><path d="M265.82 29.14C268.71 25.39 272.14 22 275.76 18.94 278.8 25 281.39 31.35 285.11 37.03 285.53 31.01 285.25 24.95 285.27 18.92 288.55 18.77 291.84 18.77 295.12 18.85 295.1 28.51 295.29 38.19 295.05 47.84 292.39 51.73 288.71 54.92 285.29 58.17 282.09 51.75 279.01 45.26 275.56 38.96 275.6 45.35 275.67 51.75 275.54 58.15 272.27 58.22 269.01 58.22 265.75 58.15 265.73 48.49 265.55 38.8 265.82 29.14Z" stroke="#000000" stroke-width="2.75224" fill="#3AA3CB"/></g></svg>