<svg width="100" height="102" viewBox="0 0 100 102" xmlns="http://www.w3.org/2000/svg" xmlns:xlink="http://www.w3.org/1999/xlink" overflow="hidden"><style>
.MsftOfcThm_Accent1_Stroke_v2 {
 stroke:#156082; 
}
</style>
<g id="#3aa2caff"><path d="M37.08 22.11C41.19 12.8 51.56 5.57 61.97 7.67 66.25 9.41 68.5 13.85 70.13 17.89 70.46 24.63 70.14 31.51 68.02 37.97 65.41 46.04 60.97 53.34 56.55 60.52 50.72 70.25 41.62 77.53 36.04 87.42 44.14 88.68 52.4 88.6 60.45 90.28 70.32 92.24 81.61 91.33 89.7 98.34 88.28 99.56 86.85 100.78 85.42 102L62.08 102C62.26 100.63 62.44 99.26 62.62 97.89 61.24 99.26 59.88 100.65 58.49 102L46.72 102C46.98 100.21 47.23 98.41 47.45 96.61 46.12 98.36 44.89 100.19 43.64 102L20.45 102C20.58 93.47 19.91 84.86 21.43 76.41 22.36 67.48 25.54 59.04 27.34 50.29 29.71 40.62 33.18 31.26 37.08 22.11M49.47 31.5C44.7 34.76 42.48 41.02 43.47 46.62 44.28 50.2 47.68 52.57 51.04 53.49 56.24 53.66 61.71 50.09 62.6 44.76 63.11 39.69 59.97 34.95 56.15 31.92 54.2 30.83 51.51 30.51 49.47 31.5Z" class="MsftOfcThm_Accent1_Stroke_v2" stroke="#156082" stroke-width="0" fill="#3AA2CA"/><path d="M46.97 38.04C47.17 33.82 53.81 31.46 56.64 34.96 54.43 37.92 50.42 38.58 46.97 38.04Z" class="MsftOfcThm_Accent1_Stroke_v2" stroke="#156082" stroke-width="0" fill="#3AA2CA"/></g><g id="#44565efa"><path d="M70.13 17.89C71.87 22.27 69.95 27.49 72.5 31.51 70.52 36.28 69.26 41.33 67 45.98 63.93 52.38 60.15 58.4 56.26 64.32 51.88 71.01 45.58 76.28 41.82 83.4 50.15 80.09 58.3 76.03 65.3 70.37 72.15 65.28 78.54 59.26 82.8 51.77 83.85 50.11 84.12 48.12 84.15 46.19 84.77 47.58 85.36 48.98 85.94 50.39 81.18 56.71 76.83 63.53 70.42 68.34 65.77 71.73 61.54 75.75 56.4 78.41 51.48 81.09 46.16 83.09 41.71 86.56 52.14 87.74 62.58 88.89 73.01 90.12 79.2 90.75 85.05 92.96 91.1 94.28 93.26 86.67 92.3 78.65 92.07 70.87 93.39 79.26 92.88 87.88 92.12 96.32 91.3 96.98 90.5 97.65 89.7 98.34 81.61 91.33 70.32 92.24 60.45 90.28 52.4 88.6 44.14 88.68 36.04 87.42 41.62 77.53 50.72 70.25 56.55 60.52 60.97 53.34 65.41 46.04 68.02 37.97 70.14 31.51 70.46 24.63 70.13 17.89Z" class="MsftOfcThm_Accent1_Stroke_v2" stroke="#156082" stroke-width="0" fill="#44565E" opacity="0.98"/><path d="M49.47 31.5C51.51 30.51 54.2 30.83 56.15 31.92 59.97 34.95 63.11 39.69 62.6 44.76 61.71 50.09 56.24 53.66 51.04 53.49 47.68 52.57 44.28 50.2 43.47 46.62 42.48 41.02 44.7 34.76 49.47 31.5M46.97 38.04C50.42 38.58 54.43 37.92 56.64 34.96 53.81 31.46 47.17 33.82 46.97 38.04M51.78 40.87C52.97 44.06 53.31 47.57 54.95 50.58 56.58 49.39 58.63 48.39 59.45 46.43 60.17 43.36 59.78 40.18 59.62 37.07 56.57 36.11 54.17 39.39 51.78 40.87M46 39.07C45.02 41.63 45.31 44.4 45.27 47.09 45.81 44.61 46.51 42.16 47.58 39.85 47.19 39.65 46.4 39.26 46 39.07Z" class="MsftOfcThm_Accent1_Stroke_v2" stroke="#156082" stroke-width="0" fill="#44565E" opacity="0.98"/><path d="M43.64 102C44.89 100.19 46.12 98.36 47.45 96.61 47.23 98.41 46.98 100.21 46.72 102L43.64 102Z" class="MsftOfcThm_Accent1_Stroke_v2" stroke="#156082" stroke-width="0" fill="#44565E" opacity="0.98"/><path d="M58.49 102C59.88 100.65 61.24 99.26 62.62 97.89 62.44 99.26 62.26 100.63 62.08 102L58.49 102Z" class="MsftOfcThm_Accent1_Stroke_v2" stroke="#156082" stroke-width="0" fill="#44565E" opacity="0.98"/></g><g id="#edf3eeff"><path d="M67 45.98C69.26 41.33 70.52 36.28 72.5 31.51 77.3 35.53 81.74 40.32 84.15 46.19 84.12 48.12 83.85 50.11 82.8 51.77 78.54 59.26 72.15 65.28 65.3 70.37 58.3 76.03 50.15 80.09 41.82 83.4 45.58 76.28 51.88 71.01 56.26 64.32 60.15 58.4 63.93 52.38 67 45.98Z" class="MsftOfcThm_Accent1_Stroke_v2" stroke="#156082" stroke-width="0" fill="#EDF3EE"/><path d="M51.78 40.87C54.17 39.39 56.57 36.11 59.62 37.07 59.78 40.18 60.17 43.36 59.45 46.43 58.63 48.39 56.58 49.39 54.95 50.58 53.31 47.57 52.97 44.06 51.78 40.87Z" class="MsftOfcThm_Accent1_Stroke_v2" stroke="#156082" stroke-width="0" fill="#EDF3EE"/><path d="M46 39.07C46.4 39.26 47.19 39.65 47.58 39.85 46.51 42.16 45.81 44.61 45.27 47.09 45.31 44.4 45.02 41.63 46 39.07Z" class="MsftOfcThm_Accent1_Stroke_v2" stroke="#156082" stroke-width="0" fill="#EDF3EE"/><path d="M70.42 68.34C76.83 63.53 81.18 56.71 85.94 50.39 89.12 56.86 90.46 63.91 92.07 70.87 92.3 78.65 93.26 86.67 91.1 94.28 85.05 92.96 79.2 90.75 73.01 90.12 62.58 88.89 52.14 87.74 41.71 86.56 46.16 83.09 51.48 81.09 56.4 78.41 61.54 75.75 65.77 71.73 70.42 68.34Z" class="MsftOfcThm_Accent1_Stroke_v2" stroke="#156082" stroke-width="0" fill="#EDF3EE"/></g></svg>