<svg width="1333.33" height="1333.33" viewBox="0 0 1000 1000" xmlns="http://www.w3.org/2000/svg" xmlns:xlink="http://www.w3.org/1999/xlink" overflow="hidden"><g id="#000000ff"><path d="M782.9 123.79C809.27 121.62 836.63 124.28 860.92 135.37 888.91 148.07 910.12 172.91 921.94 200.93 935.67 232.73 935.99 269.63 924.17 302.07 925.92 317.82 926.34 333.7 927.18 349.53 928.95 393.37 928.91 437.54 922.19 481.01 917.91 508.37 911.71 535.41 904.21 562.06 906.49 565.68 909.94 569.43 909.31 574.03 907.99 578.35 902.81 579.05 899.05 580.03 883.55 582.98 867.73 583.56 852.04 584.75 814.27 587.19 776.39 589.5 739.03 595.87 733.83 609.15 726.46 622.08 715.55 631.48 713.95 633.22 708.99 635.27 709.59 631.11 711.95 622.33 715.63 613.87 716.67 604.76 711.61 613.1 705.95 622.09 696.89 626.48 694 625.92 695.39 622.86 696.01 621.03 698.06 615.83 699.72 610.44 700.2 604.85 688.78 613.48 676.41 621.86 662.15 624.71 660.07 625.22 655.63 625.39 656.39 622.07 658.52 617.94 662.23 614.91 665.08 611.28 659.91 613.49 654.62 615.89 648.93 616.25 647.36 616.59 645.35 614.96 646.43 613.37 648.45 610.29 651.15 607.71 653.02 604.51 632.03 607.77 610.86 610.02 590.13 614.72 569.71 619.3 549.67 625.42 529.96 632.4 528.93 632.99 526.48 632.99 527.16 634.8 531.88 657.2 534.06 680.12 533.7 703 533.48 715.36 533.06 727.77 530.95 739.97 528.89 751.89 524.45 763.3 518.75 773.94 516.3 778.35 513.74 782.76 510.34 786.52 509.17 787.71 507.58 789.21 505.79 788.44 504.1 786.75 504.58 784.15 504.4 782.01 504.44 764.25 504.31 746.4 501.31 728.85 488.03 746.86 471.5 762.52 452.62 774.56 450.23 775.78 447.75 777.95 444.93 777.44 443.3 776.01 444.96 773.87 445.52 772.34 453.24 757.6 461.51 743.11 467.88 727.7 453.81 740.2 437.1 749.48 419.37 755.65 415.09 757.01 410.76 758.84 406.17 758.43 406.37 777.42 410.01 796.1 412.71 814.84 414.58 828.46 415.14 842.4 412.87 856.02 411.29 865.29 408.11 874.64 401.72 881.74 391.52 892.99 375.87 897.94 360.99 897.77 331.64 897.75 304.23 876.04 296.47 847.92 290.92 828.04 293.07 806.73 299.13 787.23 309.23 755.75 328.96 728.4 351.02 704.18 335.44 716.07 320.45 728.7 304.99 740.74 282.21 758.31 259.42 776.09 234.41 790.44 216.51 800.7 197.17 808.74 176.81 812.47 156.01 816.37 133.77 816.38 113.94 808.23 84.8 795.9 63.55 767.76 57.64 736.9 53.49 714.68 56.98 690.56 69.45 671.46 77.41 659.11 89.64 650.09 102.87 644.04 117.68 637.24 133.75 633.53 149.88 631.69 179.96 628.53 210.01 633.46 240.05 634.62 271.21 635.59 302.72 634.32 333.2 627.35 310.16 629.92 286.73 628.15 264.23 622.67 244.72 617.91 225.47 611.13 208.42 600.37 196 592.5 184.71 582.03 178.39 568.55 170.02 550.75 169.2 529.93 174.34 511.09 177.83 498.44 184.5 486.14 195.26 478.27 208.01 468.95 224.33 465.54 239.9 466.51 256.7 467.48 273.34 474.78 284.53 487.5 291.72 495.92 296.47 506.06 303.23 514.8 321.46 539.73 346.63 560.06 376.04 570.11 387.46 573.97 399.98 575.93 411.83 572.86 413.97 572.22 416.51 571.95 417.94 570.01 436.98 547.36 455.24 523.99 471.1 498.99 490.87 468.19 507.87 435.71 523.69 402.74 538.27 372.25 552.24 341.47 565.62 310.43 579.23 279.38 593.51 248.2 614.02 220.99 633.58 195.33 657.5 172.82 685.03 155.9 714.52 137.69 748.41 126.84 782.9 123.79M722.89 140.1C708.98 145.48 695.38 151.97 683.05 160.39 673.82 165.66 665.43 172.45 657.21 179.2 655.11 180.89 653.07 182.66 651.11 184.5 631.35 202.17 614.17 222.76 600.59 245.54 580.96 278.26 567.31 314.02 551.59 348.67 530.65 394.71 509.42 440.79 483.3 484.18 476.53 495.47 469.3 506.45 462.06 517.44L461.85 517.47C459.64 520.46 457.54 523.52 455.53 526.65L455.33 526.67C449.38 534.92 443.18 542.99 436.86 550.96 432.18 556.59 427.67 562.38 422.91 567.95 421.68 569.3 421.03 571.02 420.43 572.72 408.26 577.87 394.52 577.95 381.88 574.51L381.7 574.64C374.04 572.29 366.53 569.46 359.34 565.92 356.32 564.38 353.32 562.78 350.34 561.16 341.58 556.07 333.36 550.08 325.8 543.34L325.65 543.41C322.92 540.75 320.14 538.14 317.44 535.46 313.35 531.26 309.5 526.83 305.8 522.29 303.29 519.22 300.98 516 298.63 512.82 296.26 509.38 294.01 505.85 291.82 502.3 288.05 496.18 284.05 490.09 278.77 485.15 275.56 482.34 272.14 479.81 268.5 477.6 261.27 473.47 253.29 470.73 245.05 469.55 235.02 468.32 224.73 468.79 214.99 471.58 203.12 474.85 192.06 481.94 185.38 492.44 175.15 508.3 172.06 528.07 174.5 546.59 175.45 553.33 177.37 559.91 180.04 566.16 181.3 568.73 182.64 571.27 184.1 573.74 185.02 575.07 185.94 576.41 186.86 577.76 201.51 596.68 223.96 607.48 246.18 614.86L246.14 614.97C249.14 615.89 252.14 616.79 255.18 617.58L255.16 617.74C260.4 619.12 265.67 620.4 270.96 621.61 274.71 622.38 278.48 623 282.24 623.74 289.04 624.54 295.84 625.55 302.71 625.65L302.66 625.8C318.85 626.47 335.19 625.23 350.99 621.67L351.29 621.01 351.76 621.38C359.27 620.94 366.23 617.58 373.29 615.18 382.57 611.65 391.81 607.96 400.85 603.84 402.29 603.34 403.72 602.24 405.32 602.66 406.95 604.48 403.94 604.96 402.94 605.76 386.99 612.74 370.82 619.38 354.12 624.38L354.17 624.62C336.58 629.84 318.52 633.42 300.28 635.35 294.12 635.99 287.95 636.44 281.77 636.84 279.08 636.95 276.39 637.05 273.71 637.11L273.75 637.3C272.14 637.29 270.54 637.29 268.95 637.31 264.32 637.44 259.69 637.44 255.07 637.47 251.76 637.44 248.44 637.39 245.13 637.35 242.25 637.27 239.36 637.14 236.48 637.01 215.21 636 194.03 633.34 172.72 633.2 169.12 633.21 165.53 633.26 161.93 633.35 159.56 633.48 157.19 633.61 154.83 633.77 142.72 634.81 130.69 637.01 119.06 640.57 103.32 645.53 87.87 653.25 76.87 665.85 64.28 680.44 58.5 700.01 58.53 719.07 58.34 753.67 78.79 787.6 109.58 803.43 129.14 813.36 152.03 814.04 173.3 810.52 178.9 809.47 184.55 808.47 189.97 806.69L190.17 806.11 190.77 806.35C197.74 804.87 204.34 802.03 210.93 799.36 217.42 796.44 224.02 793.6 230.01 789.72L230.13 789.12 230.74 789.31C231.8 788.93 232.82 788.45 233.8 787.89 248.62 779.32 262.67 769.5 276.41 759.32 280.02 756.65 283.59 753.93 287.17 751.22 288.55 750.17 289.94 749.12 291.33 748.08 294.35 745.8 297.33 743.45 300.34 741.15 306.05 736.76 311.62 732.2 317.26 727.74 335.62 712.89 354.19 698.3 372.8 683.79 375.49 681.97 378.26 680.19 380.39 677.7 381.76 677.4 382.68 678.11 383.31 679.29 376.55 684.47 369.44 689.3 363.42 695.37 352.87 705.61 343.03 716.57 334.1 728.25 330.59 732.89 327.18 737.6 323.97 742.46 320.52 747.77 317.17 753.15 314.16 758.73 311.6 763.63 309.09 768.56 306.9 773.64 305 778.23 303.2 782.86 301.66 787.59 297.59 800.6 295.37 814.25 295.88 827.9 296.28 835.04 297.27 842.18 299.45 849 303.76 863.02 313.19 875.24 325.19 883.57L325.37 883.58C336.86 891.88 351.36 896.18 365.52 895.01 376.43 894.59 387.41 890.83 395.89 883.85 404.28 877.11 408.38 866.61 410.27 856.31 412 845.69 412.22 834.83 411.14 824.14L411.08 824.44C411.08 819.89 410.12 815.41 409.59 810.9 409.03 806.94 408.39 803 407.72 799.06 407.4 796.91 407.09 794.78 406.78 792.65L406.67 792.65C405.63 784.03 404.19 775.42 404.08 766.72 403.33 754.83 403.62 742.89 404.95 731.06 406.37 717.6 408.57 704.1 413.25 691.34 415.93 684.55 419.26 678.01 423.61 672.13 427.55 667.23 431.93 662.65 437 658.9 449.32 649.35 464.83 644.79 480.28 644.19 481.98 639.17 483.01 633.97 484.26 628.83 484.27 627.24 485.63 626.6 487.03 626.53 486.38 633.6 483.79 640.28 482.4 647.21 479.52 655.54 476.86 664 473.03 671.98 464.74 689.86 453.83 706.39 442.27 722.3 433.33 734.19 423.91 746.03 411.95 755.06 414.92 754.48 417.81 753.6 420.63 752.52 436.21 746.7 451.2 738.78 463.75 727.76 466.9 724.87 470.76 722.32 472.02 717.98 472.37 716.99 473.57 714.27 474.74 716.23 474.56 720.5 471.77 724.31 470.39 728.34 463.9 744.27 455.07 759.07 447.46 774.46 460.66 767.3 472.11 757.28 482.76 746.79 489.99 739.78 495.71 731.46 502.23 723.84 502.5 724.41 503.03 725.54 503.3 726.1 507.31 745.86 506.69 766.14 507.13 786.19 514.29 778.72 518.63 769.09 522.63 759.69 528.96 744.65 530.4 728.19 530.94 712.05 531.92 687.24 530.17 662.28 525.19 637.94 524.33 632.14 521.99 626.52 521.78 620.68L523.04 620.16C525.24 623.3 525.24 627.41 526.29 631.02 554.58 620.71 583.7 612.61 613.4 607.55L612.8 607.51C616.19 607.54 619.51 606.71 622.87 606.29 640.2 603.84 657.58 601.51 674.72 597.9 675.99 595.38 677.23 592.85 678.4 590.28 661.8 600.02 642.08 603.46 623.04 602.16 620.02 601.76 616.69 601.8 614.12 599.97 613.34 596.84 617.15 595.69 619.16 594.22 642.11 581.77 665.58 568.89 683.35 549.33 693.91 537.98 701.99 524.63 709.14 510.96 709.7 509.42 712.78 510.09 711.35 511.91 704.6 525.62 696.35 538.71 686.1 550.09 674.65 562.9 660.66 573.15 646.01 582.01 636.56 587.99 626.3 592.59 616.96 598.75 631.47 601.18 646.53 599.64 660.58 595.44 674.09 591.38 685.56 582.75 696.08 573.64L697.18 573.82 697.72 575.03C693.39 580 687.71 583.51 682.61 587.6 679.88 592.56 677.94 597.97 674.74 602.69 670.37 609.98 664.02 615.75 658.99 622.53 670.66 621.27 681.03 615.06 690.62 608.71 702.3 600.94 711.99 590.71 721.16 580.21 723.91 582.33 720.29 584.42 719.09 586.29 719.64 593.9 720.02 601.62 718.51 609.16 717.29 616.52 714.34 623.41 712.43 630.59 720.64 624.57 726.28 615.79 731.19 607.03 740.26 590.6 742.94 571.52 743.09 552.99 743.2 540.21 742.73 527.03 737.96 515.01 736.58 511.24 733.53 508.53 730.82 505.75 732.2 505.13 733.81 504.77 734.85 506.22 738.88 509.7 740.92 514.81 742.31 519.82 745.51 531.23 745.81 543.2 745.61 554.97 745.38 567.86 743.87 580.8 739.99 593.13 784.86 585.51 830.42 584.02 875.71 580.47 884.64 579.55 893.71 579.01 902.4 576.56 904.38 575.93 907.4 574.81 906.89 572.18 905.81 568.11 903.02 564.79 900.49 561.53 894.46 554.27 887.75 547.58 880.58 541.45L880.6 541.27C861.22 524.21 840 509.27 817.58 496.48 789.83 480.44 759.65 468.95 728.63 461.1 725.42 460.15 722.1 459.74 718.84 459.07 718.77 458.61 718.61 457.67 718.53 457.2 730.72 453.72 742.7 449.36 754.37 444.4 774.56 436.79 794.14 427.44 812.96 416.88 842.64 399.85 870.12 378.43 891.96 351.96 912.16 327.61 926.92 297.89 929.61 266.05 929.82 262.97 929.99 259.88 930.12 256.79 930.21 250.57 929.95 244.35 929.26 238.17 929.05 236.8 928.88 235.45 928.7 234.09 927.82 228.36 926.59 222.69 925 217.12 915.33 184.04 893.09 153.56 861.56 138.48 841.23 128.77 818.41 125.28 796.03 125.66 771.05 126.18 746.26 131.34 722.89 140.1M869.65 379.19 869.61 379.36C866.73 381.7 863.73 383.97 861.23 386.72 859.66 387.82 858 388.87 856.75 390.33 850.29 395.2 843.79 400.03 837.3 404.82 831.7 408.19 826.38 412.02 820.74 415.32L820.69 415.48C809.85 421.5 799.03 427.6 787.77 432.83 768.34 442.21 748.15 449.86 727.92 457.28 755.52 460.26 783.37 461.65 811.1 460.41 813.25 460.43 815.4 460.32 817.56 460.24 826.01 459.67 834.46 459.02 842.9 458.18L842.52 458.04C870.18 455.34 897.34 448.71 924.05 441.14 927.17 396.48 925.17 351.66 922.27 307.05 910.83 334.91 891.59 358.85 869.65 379.19M853.13 459.49C839.71 461.24 826.21 462.4 812.68 462.98 808.48 463.14 804.28 463.17 800.11 463.4 779.64 463.66 759.18 462.59 738.77 461.2 761.16 467.5 783.13 475.49 803.83 486.19 813.27 490.8 822.16 496.42 831.38 501.43 833.75 503.52 836.66 504.89 839.24 506.71 862.19 521.74 883.87 538.96 902.35 559.29 903.3 555.93 904.19 552.56 905.13 549.21 905.56 547.34 906.03 545.48 906.51 543.63 909.17 533.49 911.49 523.27 913.73 513.04L913.63 512.94C915.84 503.24 917.61 493.44 919.21 483.63 921.31 470.4 922.86 457.1 923.9 443.76 900.7 450.57 877.07 456 853.13 459.49M709.04 596.91C711.67 596.69 714.31 596.49 716.95 596.33 716.93 594 716.86 591.67 716.74 589.36 714.04 591.75 711.62 594.4 709.04 596.91M703.25 602.32C702.31 609.32 700.72 616.18 698.31 622.84 706.61 616.95 712.36 608.14 716.36 598.92 712.03 599.65 706.34 598.48 703.25 602.32M656.15 604C654.32 607.45 651.77 610.43 649.77 613.77 656.17 612.48 662.34 610.07 668.01 606.83 670.23 605.56 671.38 603.16 672.63 601.05 667.12 601.94 661.64 603 656.15 604M442.34 658.27C428.17 667.27 418.19 682 413.82 698.09 423.25 694.15 432.08 688.62 439.47 681.54 440.19 681.04 442.26 678.61 442.33 681.02 441.63 684.59 439.62 687.71 438.16 691 432.39 703.08 424.93 714.33 415.79 724.12 428.53 718.46 440.3 710.84 451.57 702.69 454.65 700.63 456.26 697.21 458.17 694.17 467.25 679.34 475.04 663.56 479.59 646.72 466.5 647.52 453.31 650.84 442.34 658.27M412.62 701.5C408.15 719.36 406.22 737.81 406.18 756.2 411.31 752.36 416.47 748.53 420.89 743.86 431.65 732.78 440.99 720.37 449.48 707.48 438.53 714.84 427.34 721.97 415.21 727.24 413.75 727.71 412.23 728.6 410.66 728.09 409.26 726.26 411.29 724.7 412.39 723.45 423.21 713.37 430.98 700.46 437.12 687.12 429.74 693.16 421.36 697.77 412.62 701.5Z" stroke-width="4.16667"/><path d="M826.68 241.71C843.37 239.92 860.76 244.26 874.38 254.17 886.09 262.81 893.9 276.55 895.2 291.07 896 300.97 893.78 310.94 890.17 320.13 885.36 329.38 880.86 338.96 873.93 346.87 862.57 360.15 845.51 368.35 828.04 368.87 810 369.47 791.54 363.13 778.41 350.6 770.48 343.19 765.47 332.91 764.27 322.15 762 305.35 767.2 288.58 774.73 273.76 788.1 258.19 805.67 244.22 826.68 241.71M810.96 248.79C798.11 254.49 787.14 263.8 777.92 274.3 798.34 274.78 818.71 279.07 837.22 287.82 855.31 296.12 872.13 307.08 887.4 319.82 889.6 314.1 891.25 308.17 892.17 302.11 892.29 300.79 892.42 299.47 892.57 298.16 893.14 287.76 890.13 277.28 884.37 268.64 876.78 257 864.07 249.72 850.91 246.12 848.43 245.62 845.96 245.15 843.47 244.75L843.52 244.63C832.55 243.34 821.13 244.25 810.96 248.79M776.22 277.11C773.31 283.55 770.36 290.03 768.73 296.93 765.41 310.01 765.61 324.27 771.2 336.71L771.52 336.5C773.38 340.4 775.81 344.02 778.85 347.11 797.98 366.72 830.33 372 854.54 358.98 869.25 351.23 879.27 337.09 885.78 322.15 880.08 317.4 874.32 312.67 868 308.75 862.29 321.44 856.95 334.74 847.54 345.21L847.85 345.77C844.01 349.1 840.3 353.02 835.22 354.36 830.26 355.77 824.57 353.41 822.14 348.85 818.59 342.44 819.83 334.88 819.85 327.89L820.51 327.96C820.93 324.53 821.6 321.14 822.86 317.92 823.47 317.8 824.69 317.58 825.29 317.47L825.14 319.07C822.99 327.45 821.1 336.49 823.47 345.02 824.57 349.2 828.68 352.57 833.12 351.94 838.75 351.05 842.93 346.64 846.45 342.49 854.87 331.87 860.57 319.41 865.55 306.9 855.91 300.49 845.84 294.72 835.28 289.98 834.19 292.5 833.16 295.05 832.04 297.56 831.45 296.66 830.85 295.79 830.24 294.93 831.02 292.9 831.81 290.88 832.6 288.86 814.93 280.93 795.54 277.29 776.22 277.11Z" stroke-width="4.16667"/><path d="M241.15 540.98C240.94 537.78 243.72 540.56 244.46 541.49 250.88 549.52 257.99 556.98 265.69 563.79 267.9 565.74 270.16 567.62 272.46 569.46 274.7 571.24 277.01 572.93 279.36 574.57 280.79 575.55 282.25 576.52 283.71 577.47 300.01 587.92 319.07 593.18 338.11 595.76 341.38 596.18 344.67 596.53 347.96 596.81 354.91 597.38 361.89 597.55 368.87 597.5 380.14 597.6 391.3 596.03 402.5 595.11 401.8 596.16 401.39 597.74 399.83 597.7 387.17 599.7 374.33 600 361.54 600.17 357.31 599.85 353.06 599.7 348.83 599.43 337.2 598.56 325.63 596.69 314.39 593.6 308.56 591.98 302.85 589.95 297.3 587.56 291.04 584.87 285.12 581.48 279.46 577.72 276.1 575.46 272.87 573.02 269.7 570.51 267.78 568.96 265.9 567.37 264.05 565.75 255.77 558.16 247.52 550.26 241.15 540.98Z" stroke-width="4.16667"/></g><g id="#83e1f1ff"><path d="M722.89 140.1C746.26 131.34 771.05 126.18 796.03 125.66 818.41 125.28 841.23 128.77 861.56 138.48 893.09 153.56 915.33 184.04 925 217.12 918.2 219.5 911.14 221.15 903.99 221.93 896.47 222.77 889.22 220.12 881.83 219.36 874.14 218.61 866.43 217.86 858.88 216.24 855.62 215.58 852.71 213.92 850.07 211.98 845.15 208.26 839.09 206.55 834.01 203.08 830.04 200.33 825.52 198.61 821.02 196.96 813.86 194.31 809.6 187.18 802.39 184.61 795.75 182.19 790.34 176.56 783.03 176.13 776.41 175.84 769.59 175.51 763.5 172.6 756.59 169.96 750.62 164.71 743.04 164.02 737.2 163.22 731.42 165.45 725.59 164.45 718.13 163.14 710.43 164.98 703.07 162.99 699.55 162.11 696.54 159.87 693.01 159.07 689.67 159.34 686.41 160.21 683.05 160.39 695.38 151.97 708.98 145.48 722.89 140.1Z" stroke-width="4.16667" fill="#83E1F1"/></g><g id="#6adbeeff"><path d="M683.05 160.39C686.41 160.21 689.67 159.34 693.01 159.07 696.54 159.87 699.55 162.11 703.07 162.99 710.43 164.98 718.13 163.14 725.59 164.45 731.42 165.45 737.2 163.22 743.04 164.02 750.62 164.71 756.59 169.96 763.5 172.6 769.59 175.51 776.41 175.84 783.03 176.13 790.34 176.56 795.75 182.19 802.39 184.61 809.6 187.18 813.86 194.31 821.02 196.96 825.52 198.61 830.04 200.33 834.01 203.08 839.09 206.55 845.15 208.26 850.07 211.98 852.71 213.92 855.62 215.58 858.88 216.24 866.43 217.86 874.14 218.61 881.83 219.36 889.22 220.12 896.47 222.77 903.99 221.93 911.14 221.15 918.2 219.5 925 217.12 926.59 222.69 927.82 228.36 928.7 234.09 918.98 236.61 908.93 235.9 899 235.96 883.22 235.54 867.75 232.01 852.54 228.04 841.12 224.66 829.89 220.4 819.61 214.33 810.69 209.64 802.99 203.08 795.36 196.59 790.84 192.61 785.35 190.02 780.61 186.34 774.37 182.07 767.86 176.44 759.71 177.76 754.37 178.03 749.05 177.49 743.86 176.23 734.31 174.78 724.67 173.38 714.98 173.74 708.64 173.96 702.28 172.78 695.99 173.91 691 174.72 685.89 174.64 680.97 175.85 673.16 177.58 665.33 180.74 657.21 179.2 665.43 172.45 673.82 165.66 683.05 160.39Z" stroke-width="4.16667" fill="#6ADBEE"/></g><g id="#35cee8ff"><path d="M695.99 173.91C702.28 172.78 708.64 173.96 714.98 173.74 724.67 173.38 734.31 174.78 743.86 176.23 749.05 177.49 754.37 178.03 759.71 177.76 761.94 180.97 764.43 184.01 767.25 186.73 772.66 192.01 777.72 197.7 783.79 202.27 793.53 209.62 804.14 215.8 815.28 220.79 831.88 230 849.28 238.5 868.05 242.12 872.96 243.09 876.75 246.56 881.04 248.89 885.47 251.33 890 253.83 895 254.88 906.57 257.18 918.4 256.72 930.12 256.79 929.99 259.88 929.82 262.97 929.61 266.05 918.74 265.17 908.13 262.04 898.14 257.75 890.57 254.92 882.35 254.68 874.38 254.17 860.76 244.26 843.37 239.92 826.68 241.71 823.28 239.82 819.72 238.27 816.13 236.81 799.48 229.55 783.81 219.91 770.29 207.75 763.55 201.38 757.9 193.91 753.11 185.98 751.81 183.95 750.68 181.77 748.94 180.08 744.96 179.55 740.98 180.42 737.05 180.88 728.49 182.18 719.77 182.33 711.15 181.61 704.44 181.03 697.96 177.72 691.13 179.19 680.08 181.29 668.9 182.63 657.85 184.69 655.6 185.05 653.33 184.77 651.11 184.5 653.07 182.66 655.11 180.89 657.21 179.2 665.33 180.74 673.16 177.58 680.97 175.85 685.89 174.64 691 174.72 695.99 173.91Z" stroke-width="4.16667" fill="#35CEE8"/></g><g id="#4ad3ebff"><path d="M759.71 177.76C767.86 176.44 774.37 182.07 780.61 186.34 785.35 190.02 790.84 192.61 795.36 196.59 802.99 203.08 810.69 209.64 819.61 214.33 829.89 220.4 841.12 224.66 852.54 228.04 858.65 232.56 864.29 238.26 871.83 240.33 879.65 242.69 887.78 244.43 896.01 244.03 907.28 243.56 918.51 241.58 929.26 238.17 929.95 244.35 930.21 250.57 930.12 256.79 918.4 256.72 906.57 257.18 895 254.88 890 253.83 885.47 251.33 881.04 248.89 876.75 246.56 872.96 243.09 868.05 242.12 849.28 238.5 831.88 230 815.28 220.79 804.14 215.8 793.53 209.62 783.79 202.27 777.72 197.7 772.66 192.01 767.25 186.73 764.43 184.01 761.94 180.97 759.71 177.76Z" stroke-width="4.16667" fill="#4AD3EB"/></g><g id="#21c9e6ff"><path d="M657.85 184.69C668.9 182.63 680.08 181.29 691.13 179.19 697.96 177.72 704.44 181.03 711.15 181.61 719.77 182.33 728.49 182.18 737.05 180.88 740.98 180.42 744.96 179.55 748.94 180.08 750.68 181.77 751.81 183.95 753.11 185.98 757.9 193.91 763.55 201.38 770.29 207.75 783.81 219.91 799.48 229.55 816.13 236.81 819.72 238.27 823.28 239.82 826.68 241.71 805.67 244.22 788.1 258.19 774.73 273.76 767.2 288.58 762 305.35 764.27 322.15 765.47 332.91 770.48 343.19 778.41 350.6 791.54 363.13 810 369.47 828.04 368.87 845.51 368.35 862.57 360.15 873.93 346.87 880.86 338.96 885.36 329.38 890.17 320.13 893.78 310.94 896 300.97 895.2 291.07 893.9 276.55 886.09 262.81 874.38 254.17 882.35 254.68 890.57 254.92 898.14 257.75 908.13 262.04 918.74 265.17 929.61 266.05 926.92 297.89 912.16 327.61 891.96 351.96 870.12 378.43 842.64 399.85 812.96 416.88 794.14 427.44 774.56 436.79 754.37 444.4 746.81 443.8 740.37 448.53 732.98 449.04 726.17 449.77 719.43 451.08 712.84 452.95 706.37 454.87 699.57 455.29 693.06 457.05 686.74 458.72 680.45 460.66 674.63 463.69 671.4 465.39 667.93 466.61 664.36 467.34 643.46 472.04 622.49 477.39 600.98 478.08 593.45 479.02 585.76 478.55 578.35 480.4 571.94 481.7 565.6 483.77 559 483.8 555.07 483.79 551.12 484.17 547.38 485.44 541.31 487.59 534.64 486.15 528.64 488.57 519.63 491.8 510.18 488.28 500.97 488.97 494.75 489.3 488.43 487.76 483.3 484.18 509.42 440.79 530.65 394.71 551.59 348.67 567.31 314.02 580.96 278.26 600.59 245.54 614.17 222.76 631.35 202.17 651.11 184.5 653.33 184.77 655.6 185.05 657.85 184.69Z" stroke-width="4.16667" fill="#21C9E6"/><path d="M810.96 248.79C821.13 244.25 832.55 243.34 843.52 244.63L843.47 244.75C838.96 254.23 838.43 265.42 841.79 275.34 845.94 283.05 854.19 286.91 860.5 292.54 863.99 295.02 867.46 297.54 871.05 299.88 874.55 301.29 878.38 301.71 881.92 303.06 885.3 304.41 888.83 302.82 892.17 302.11 891.25 308.17 889.6 314.1 887.4 319.82 872.13 307.08 855.31 296.12 837.22 287.82 818.71 279.07 798.34 274.78 777.92 274.3 787.14 263.8 798.11 254.49 810.96 248.79Z" stroke-width="4.16667" fill="#21C9E6"/><path d="M291.82 502.3C294.01 505.85 296.26 509.38 298.63 512.82 288.05 525.28 279.2 539.09 271.08 553.25 269.05 556.63 267.21 560.14 265.69 563.79 257.99 556.98 250.88 549.52 244.46 541.49 243.72 540.56 240.94 537.78 241.15 540.98 247.52 550.26 255.77 558.16 264.05 565.75 261 572.52 258.26 579.42 255.13 586.16 250.95 595.33 249.42 605.37 246.18 614.86 223.96 607.48 201.51 596.68 186.86 577.76 195.58 564.14 205.25 551.13 215.77 538.86 222.03 532.53 229.24 527.21 235.4 520.77 235.73 520.58 236.37 520.18 236.69 519.98 241 519.06 245.25 517.86 249.38 516.31 263.42 511.34 278.15 508.31 291.82 502.3Z" stroke-width="4.16667" fill="#21C9E6"/><path d="M172.72 633.2C194.03 633.34 215.21 636 236.48 637.01 237.19 643.33 235.86 649.68 236.72 656 237.16 670.92 240.96 685.64 247.02 699.24 227.18 704.67 207.15 709.38 187 713.5 182.44 704.37 177.75 695.1 175.84 684.97 174.15 676.06 172.53 667.05 172.6 657.94 172.63 649.7 172.47 641.45 172.72 633.2Z" stroke-width="4.16667" fill="#21C9E6"/><path d="M188.63 715.79C208.86 711.59 228.99 706.87 248.9 701.35 255.64 721.69 263.61 741.95 276.41 759.32 262.67 769.5 248.62 779.32 233.8 787.89 232.82 788.45 231.8 788.93 230.74 789.31L230.13 789.12C220.58 774.02 212.24 758.21 203.34 742.73 198.41 733.77 192.88 725.11 188.63 715.79Z" stroke-width="4.16667" fill="#21C9E6"/><path d="M301.66 787.59C317 801.73 335.81 811.79 355.65 818.03 355.76 820.98 355.31 824.07 356.24 826.94 356.7 827.03 357.63 827.21 358.09 827.31 358.44 824.51 358.26 821.7 358.24 818.91 371.01 821.94 384.12 823.63 397.27 822.81 401.64 824.54 406.03 826.26 410.51 827.74 410.71 826.63 410.9 825.53 411.08 824.44L411.14 824.14C412.22 834.83 412 845.69 410.27 856.31 398.34 856.49 386.14 857.01 374.57 853.55 360.93 848.87 347.47 843.64 333.62 839.59 321.01 835.78 308.55 831.51 295.88 827.9 295.37 814.25 297.59 800.6 301.66 787.59Z" stroke-width="4.16667" fill="#21C9E6"/></g><g id="#59d7ecff"><path d="M852.54 228.04C867.75 232.01 883.22 235.54 899 235.96 908.93 235.9 918.98 236.61 928.7 234.09 928.88 235.45 929.05 236.8 929.26 238.17 918.51 241.58 907.28 243.56 896.01 244.03 887.78 244.43 879.65 242.69 871.83 240.33 864.29 238.26 858.65 232.56 852.54 228.04Z" stroke-width="4.16667" fill="#59D7EC"/><path d="M325.37 883.58C329.28 883.39 332.78 885.3 336.37 886.53 345.99 889.7 355.93 891.77 365.52 895.01 351.36 896.18 336.86 891.88 325.37 883.58Z" stroke-width="4.16667" fill="#59D7EC"/></g><g id="#57d6ecff"><path d="M841.79 275.34C838.43 265.42 838.96 254.23 843.47 244.75 845.96 245.15 848.43 245.62 850.91 246.12 845.79 249.62 843.38 256.01 844.24 262.07 844.21 268.39 848.87 273.04 852.03 278.03 855.88 284.26 860.67 289.99 866.5 294.45 874.42 298.77 883.77 299.51 892.57 298.16 892.42 299.47 892.29 300.79 892.17 302.11 888.83 302.82 885.3 304.41 881.92 303.06 878.38 301.71 874.55 301.29 871.05 299.88 867.46 297.54 863.99 295.02 860.5 292.54 854.19 286.91 845.94 283.05 841.79 275.34Z" stroke-width="4.16667" fill="#57D6EC"/></g><g id="#85e1f1ff"><path d="M850.91 246.12C864.07 249.72 876.78 257 884.37 268.64 890.13 277.28 893.14 287.76 892.57 298.16 883.77 299.51 874.42 298.77 866.5 294.45 860.67 289.99 855.88 284.26 852.03 278.03 848.87 273.04 844.21 268.39 844.24 262.07 843.38 256.01 845.79 249.62 850.91 246.12Z" stroke-width="4.16667" fill="#85E1F1"/></g><g id="#282828ff"><path d="M776.22 277.11C795.54 277.29 814.93 280.93 832.6 288.86 831.81 290.88 831.02 292.9 830.24 294.93 830.85 295.79 831.45 296.66 832.04 297.56 831.94 297.78 831.73 298.23 831.63 298.45 831.14 298.48 830.16 298.54 829.67 298.57 829.59 297.91 829.43 296.57 829.35 295.9 825.73 294.23 822.13 292.44 818.26 291.46 813.53 289.06 808.03 288.94 802.89 289.69 799.63 290.24 797.21 292.65 794.75 294.65 789.55 297.82 790.21 305.97 793.81 310.12 795.43 312.31 798.05 313.2 800.56 313.92 807.67 316.4 815.2 319.46 822.86 317.92 821.6 321.14 820.93 324.53 820.51 327.96L819.85 327.89C814.6 327.36 809.33 326.33 804.04 326.93 792.79 328.07 781 329.86 771.52 336.5L771.2 336.71C765.61 324.27 765.41 310.01 768.73 296.93 770.36 290.03 773.31 283.55 776.22 277.11Z" stroke-width="4.16667" fill="#282828"/><path d="M868 308.75C874.32 312.67 880.08 317.4 885.78 322.15 879.27 337.09 869.25 351.23 854.54 358.98 852.81 354.33 850.28 350.07 847.85 345.77L847.54 345.21C856.95 334.74 862.29 321.44 868 308.75Z" stroke-width="4.16667" fill="#282828"/></g><g id="#c2c2c2ff"><path d="M794.75 294.65C797.21 292.65 799.63 290.24 802.89 289.69 808.03 288.94 813.53 289.06 818.26 291.46 812.84 291.58 807.07 289.77 801.98 292.37 796.89 294.57 795.48 301.27 797.2 306.12 798.66 311.13 803.85 313.68 808.41 315.3 814.18 317.39 820.47 317.02 826.3 315.37 825.9 316.6 825.51 317.83 825.14 319.07L825.29 317.47C824.69 317.58 823.47 317.8 822.86 317.92 815.2 319.46 807.67 316.4 800.56 313.92 798.02 311.33 795.1 308.72 794.13 305.09 792.95 301.65 794.3 298.09 794.75 294.65Z" stroke-width="4.16667" fill="#C2C2C2"/></g><g id="#ffffffff"><path d="M835.28 289.98C845.84 294.72 855.91 300.49 865.55 306.9 860.57 319.41 854.87 331.87 846.45 342.49 842.93 346.64 838.75 351.05 833.12 351.94 828.68 352.57 824.57 349.2 823.47 345.02 821.1 336.49 822.99 327.45 825.14 319.07 825.51 317.83 825.9 316.6 826.3 315.37 820.47 317.02 814.18 317.39 808.41 315.3 803.85 313.68 798.66 311.13 797.2 306.12 795.48 301.27 796.89 294.57 801.98 292.37 807.07 289.77 812.84 291.58 818.26 291.46 822.13 292.44 825.73 294.23 829.35 295.9 829.43 296.57 829.59 297.91 829.67 298.57 830.16 298.54 831.14 298.48 831.63 298.45 831.73 298.23 831.94 297.78 832.04 297.56 833.16 295.05 834.19 292.5 835.28 289.98Z" stroke-width="4.16667" fill="#FFFFFF"/><path d="M869.65 379.19C891.59 358.85 910.83 334.91 922.27 307.05 925.17 351.66 927.17 396.48 924.05 441.14 897.34 448.71 870.18 455.34 842.52 458.04 836.28 455.18 829.53 454 822.86 452.66 829.57 441.36 837.22 430.58 843.16 418.82 844.78 416.67 846.38 414.51 847.94 412.31 853.87 405.94 859.05 398.89 863.47 391.4 865.7 387.49 868.97 383.97 869.61 379.36L869.65 379.19Z" stroke-width="4.16667" fill="#FFFFFF"/></g><g id="#505050ff"><path d="M793.81 310.12C790.21 305.97 789.55 297.82 794.75 294.65 794.3 298.09 792.95 301.65 794.13 305.09 795.1 308.72 798.02 311.33 800.56 313.92 798.05 313.2 795.43 312.31 793.81 310.12Z" stroke-width="4.16667" fill="#505050"/></g><g id="#4f4f4fff"><path d="M771.52 336.5C781 329.86 792.79 328.07 804.04 326.93 809.33 326.33 814.6 327.36 819.85 327.89 819.83 334.88 818.59 342.44 822.14 348.85 824.57 353.41 830.26 355.77 835.22 354.36 840.3 353.02 844.01 349.1 847.85 345.77 850.28 350.07 852.81 354.33 854.54 358.98 830.33 372 797.98 366.72 778.85 347.11 775.81 344.02 773.38 340.4 771.52 336.5Z" stroke-width="4.16667" fill="#4F4F4F"/></g><g id="#d9d9d9ff"><path d="M861.23 386.72C863.73 383.97 866.73 381.7 869.61 379.36 868.97 383.97 865.7 387.49 863.47 391.4 859.05 398.89 853.87 405.94 847.94 412.31 851.76 403.45 858.27 395.98 861.23 386.72Z" stroke-width="4.16667" fill="#D9D9D9"/></g><g id="#cdcdcdff"><path d="M856.75 390.33C858 388.87 859.66 387.82 861.23 386.72 858.27 395.98 851.76 403.45 847.94 412.31 846.38 414.51 844.78 416.67 843.16 418.82 835.91 425.37 829.49 432.8 822.04 439.13 818.22 442.51 813.95 445.69 811.71 450.42 814.81 451.18 817.93 451.91 821.05 452.64 819.98 455.21 818.81 457.74 817.56 460.24 815.4 460.32 813.25 460.43 811.1 460.41 810.35 460.39 808.86 460.35 808.12 460.32 807.87 457.39 806.39 454.01 808.25 451.33 811.17 446.99 815.11 443.47 818.29 439.33 823.55 432.3 830.52 426.82 835.98 419.97 843.5 410.56 851.85 401.49 856.75 390.33Z" stroke-width="4.16667" fill="#CDCDCD"/></g><g id="#b7b7b7ff"><path d="M837.3 404.82C843.79 400.03 850.29 395.2 856.75 390.33 851.85 401.49 843.5 410.56 835.98 419.97 830.52 426.82 823.55 432.3 818.29 439.33 815.11 443.47 811.17 446.99 808.25 451.33 806.39 454.01 807.87 457.39 808.12 460.32 806.21 460.25 804.3 460.19 802.4 460.12 803.77 456.52 805.83 453.06 805.85 449.09 819.97 437.38 829.46 421.16 837.3 404.82Z" stroke-width="4.16667" fill="#B7B7B7"/></g><g id="#a6a6a6ff"><path d="M820.74 415.32C826.38 412.02 831.7 408.19 837.3 404.82 829.46 421.16 819.97 437.38 805.85 449.09 805.83 453.06 803.77 456.52 802.4 460.12 800.84 460.06 799.28 459.99 797.74 459.93 798.48 456.02 799.2 452.1 799.82 448.17 800.19 445.29 802.43 443.24 804.17 441.1 809.09 435.57 812.7 429.07 817.11 423.15 818.82 420.87 820.1 418.27 820.69 415.48L820.74 415.32Z" stroke-width="4.16667" fill="#A6A6A6"/></g><g id="#8d8d8dff"><path d="M787.77 432.83C799.03 427.6 809.85 421.5 820.69 415.48 820.1 418.27 818.82 420.87 817.11 423.15 812.7 429.07 809.09 435.57 804.17 441.1 802.43 443.24 800.19 445.29 799.82 448.17 799.2 452.1 798.48 456.02 797.74 459.93 799.28 459.99 800.84 460.06 802.4 460.12 804.3 460.19 806.21 460.25 808.12 460.32 808.86 460.35 810.35 460.39 811.1 460.41 783.37 461.65 755.52 460.26 727.92 457.28 748.15 449.86 768.34 442.21 787.77 432.83Z" stroke-width="4.16667" fill="#8D8D8D"/></g><g id="#e7e7e7ff"><path d="M822.04 439.13C829.49 432.8 835.91 425.37 843.16 418.82 837.22 430.58 829.57 441.36 822.86 452.66 829.53 454 836.28 455.18 842.52 458.04L842.9 458.18C834.46 459.02 826.01 459.67 817.56 460.24 818.81 457.74 819.98 455.21 821.05 452.64 817.93 451.91 814.81 451.18 811.71 450.42 813.95 445.69 818.22 442.51 822.04 439.13Z" stroke-width="4.16667" fill="#E7E7E7"/></g><g id="#20b1d2ff"><path d="M732.98 449.04C740.37 448.53 746.81 443.8 754.37 444.4 742.7 449.36 730.72 453.72 718.53 457.2 710.75 458.74 702.99 460.47 695.36 462.67 691.71 462.93 688.09 463.41 684.57 464.41 679.39 465.84 673.69 465.41 668.87 468.06 656.99 475.35 643.75 480.53 630.01 483.02 617.1 485.07 604.04 485.95 591.02 486.92 581.21 487.55 571.55 489.47 561.81 490.68 556.67 491.33 551.34 490.79 546.35 492.43 542.91 493.46 539.74 495.16 536.5 496.68 532.67 496.52 528.87 495.72 525.04 495.87 521.55 496.4 518.3 497.88 514.84 498.54 500.17 500.63 488.02 510.11 473.86 513.84 469.9 514.96 466.22 517.09 462.06 517.44 469.3 506.45 476.53 495.47 483.3 484.18 488.43 487.76 494.75 489.3 500.97 488.97 510.18 488.28 519.63 491.8 528.64 488.57 534.64 486.15 541.31 487.59 547.38 485.44 551.12 484.17 555.07 483.79 559 483.8 565.6 483.77 571.94 481.7 578.35 480.4 585.76 478.55 593.45 479.02 600.98 478.08 622.49 477.39 643.46 472.04 664.36 467.34 667.93 466.61 671.4 465.39 674.63 463.69 680.45 460.66 686.74 458.72 693.06 457.05 699.57 455.29 706.37 454.87 712.84 452.95 719.43 451.08 726.17 449.77 732.98 449.04Z" stroke-width="4.16667" fill="#20B1D2"/></g><g id="#e1e1e1ff"><path d="M853.13 459.49C877.07 456 900.7 450.57 923.9 443.76 922.86 457.1 921.31 470.4 919.21 483.63 913.64 481.86 908.41 479.25 902.98 477.12 890.8 472.46 878.6 467.77 866.11 463.98 861.69 462.76 857.14 461.82 853.13 459.49Z" stroke-width="4.16667" fill="#E1E1E1"/></g><g id="#1f83acff"><path d="M695.36 462.67C702.99 460.47 710.75 458.74 718.53 457.2 718.61 457.67 718.77 458.61 718.84 459.07 722.1 459.74 725.42 460.15 728.63 461.1 720.54 467.72 710.92 472 701.58 476.54 695.14 479.47 688.75 482.54 682.11 484.99 661.64 492.06 639.87 493.25 618.61 496.38 600.8 498.47 582.95 501.03 564.97 500.67 554.65 500.71 544.33 500.68 534 500.62 530.12 500.58 526.23 501.04 522.54 502.28 502.41 509.11 482.6 516.83 462.96 524.96 460.6 525.97 458.08 526.48 455.53 526.65 457.54 523.52 459.64 520.46 461.85 517.47L462.06 517.44C466.22 517.09 469.9 514.96 473.86 513.84 488.02 510.11 500.17 500.63 514.84 498.54 518.3 497.88 521.55 496.4 525.04 495.87 528.87 495.72 532.67 496.52 536.5 496.68 543.93 498.15 551.52 497.59 559.04 497.72 575.33 497.54 591.73 498.39 607.84 495.43 618.7 493.38 629.5 490.79 639.87 486.94 655.86 481.97 671.77 476.45 686.71 468.81 689.9 467.24 692.69 465 695.36 462.67Z" stroke-width="4.16667" fill="#1F83AC"/><path d="M360.03 782.4C364.36 782.38 368.28 784.37 372.34 785.6 379.5 787.89 386.75 789.92 394.04 791.78 398.15 792.88 402.45 792.81 406.67 792.65L406.78 792.65C407.09 794.78 407.4 796.91 407.72 799.06 401.68 799.1 395.56 799.69 389.6 798.44 379.13 796.3 369.29 791.98 359.53 787.74 359.68 785.95 359.84 784.16 360.03 782.4Z" stroke-width="4.16667" fill="#1F83AC"/></g><g id="#c6c6c6ff"><path d="M812.68 462.98C826.21 462.4 839.71 461.24 853.13 459.49 857.14 461.82 861.69 462.76 866.11 463.98 878.6 467.77 890.8 472.46 902.98 477.12 908.41 479.25 913.64 481.86 919.21 483.63 917.61 493.44 915.84 503.24 913.63 512.94 908.5 508.19 903.9 502.86 898.22 498.72 890.18 492.05 881 486.98 871.72 482.29 866.47 479.67 861.01 476.9 855 476.89 848.03 476.79 840.96 476.51 834.15 478.24 829.47 479.68 825.07 476.94 820.6 476.03 817.13 472.24 814.38 467.83 812.68 462.98Z" stroke-width="4.16667" fill="#C6C6C6"/></g><g id="#1e6391ff"><path d="M728.63 461.1C759.65 468.95 789.83 480.44 817.58 496.48 840 509.27 861.22 524.21 880.6 541.27L880.58 541.45C879.88 545.92 879.87 550.46 880 554.99 880.28 563.69 877.63 572.08 875.71 580.47 830.42 584.02 784.86 585.51 739.99 593.13 743.87 580.8 745.38 567.86 745.61 554.97 745.81 543.2 745.51 531.23 742.31 519.82 740.92 514.81 738.88 509.7 734.85 506.22 733.81 504.77 732.2 505.13 730.82 505.75 733.53 508.53 736.58 511.24 737.96 515.01 742.73 527.03 743.2 540.21 743.09 552.99 742.94 571.52 740.26 590.6 731.19 607.03 726.28 615.79 720.64 624.57 712.43 630.59 714.34 623.41 717.29 616.52 718.51 609.16 720.02 601.62 719.64 593.9 719.09 586.29 720.29 584.42 723.91 582.33 721.16 580.21 711.99 590.71 702.3 600.94 690.62 608.71 681.03 615.06 670.66 621.27 658.99 622.53 664.02 615.75 670.37 609.98 674.74 602.69 677.94 597.97 679.88 592.56 682.61 587.6 687.71 583.51 693.39 580 697.72 575.03L697.18 573.82 696.08 573.64C685.56 582.75 674.09 591.38 660.58 595.44 646.53 599.64 631.47 601.18 616.96 598.75 626.3 592.59 636.56 587.99 646.01 582.01 660.66 573.15 674.65 562.9 686.1 550.09 696.35 538.71 704.6 525.62 711.35 511.91 712.78 510.09 709.7 509.42 709.14 510.96 701.99 524.63 693.91 537.98 683.35 549.33 665.58 568.89 642.11 581.77 619.16 594.22 617.15 595.69 613.34 596.84 614.12 599.97 616.69 601.8 620.02 601.76 623.04 602.16 642.08 603.46 661.8 600.02 678.4 590.28 677.23 592.85 675.99 595.38 674.72 597.9 657.58 601.51 640.2 603.84 622.87 606.29 619.51 606.71 616.19 607.54 612.8 607.51 606.42 606.9 600 606.86 593.63 607.53 586.98 608.26 580.23 607.17 573.66 608.6 566.51 610.1 559.37 612.24 551.99 611.9 535.27 610.75 518.4 609.96 502.07 605.89 491.93 603.32 482.33 599.13 472.66 595.23 465.18 591.99 456.66 589.19 451.77 582.22 445.69 572.34 442.79 560.92 436.86 550.96 443.18 542.99 449.38 534.92 455.33 526.67L455.53 526.65C458.08 526.48 460.6 525.97 462.96 524.96 482.6 516.83 502.41 509.11 522.54 502.28 526.23 501.04 530.12 500.58 534 500.62 544.33 500.68 554.65 500.71 564.97 500.67 582.95 501.03 600.8 498.47 618.61 496.38 639.87 493.25 661.64 492.06 682.11 484.99 688.75 482.54 695.14 479.47 701.58 476.54 710.92 472 720.54 467.72 728.63 461.1Z" stroke-width="4.16667" fill="#1E6391"/><path d="M709.04 596.91C711.62 594.4 714.04 591.75 716.74 589.36 716.86 591.67 716.93 594 716.95 596.33 714.31 596.49 711.67 596.69 709.04 596.91Z" stroke-width="4.16667" fill="#1E6391"/><path d="M505.36 636.4C511.99 635.15 518.68 636.68 525.19 637.94 530.17 662.28 531.92 687.24 530.94 712.05 530.4 728.19 528.96 744.65 522.63 759.69 518.63 769.09 514.29 778.72 507.13 786.19 506.69 766.14 507.31 745.86 503.3 726.1 503.03 725.54 502.5 724.41 502.23 723.84 495.71 731.46 489.99 739.78 482.76 746.79 472.11 757.28 460.66 767.3 447.46 774.46 455.07 759.07 463.9 744.27 470.39 728.34 471.77 724.31 474.56 720.5 474.74 716.23 473.57 714.27 472.37 716.99 472.02 717.98 470.76 722.32 466.9 724.87 463.75 727.76 451.2 738.78 436.21 746.7 420.63 752.52 417.81 753.6 414.92 754.48 411.95 755.06 423.91 746.03 433.33 734.19 442.27 722.3 453.83 706.39 464.74 689.86 473.03 671.98 476.86 664 479.52 655.54 482.4 647.21 488.92 641.62 497.01 638.13 505.36 636.4Z" stroke-width="4.16667" fill="#1E6391"/></g><g id="#8e8e8eff"><path d="M738.77 461.2C759.18 462.59 779.64 463.66 800.11 463.4L799.96 463.78C799.8 464 799.5 464.44 799.35 464.66 802.27 467.75 805.24 470.83 807.51 474.47 810.74 479.53 816.16 482.51 819.92 487.1 823.86 491.78 828.44 495.99 831.38 501.43 822.16 496.42 813.27 490.8 803.83 486.19 783.13 475.49 761.16 467.5 738.77 461.2Z" stroke-width="4.16667" fill="#8E8E8E"/></g><g id="#1f9bc0ff"><path d="M684.57 464.41C688.09 463.41 691.71 462.93 695.36 462.67 692.69 465 689.9 467.24 686.71 468.81 671.77 476.45 655.86 481.97 639.87 486.94 629.5 490.79 618.7 493.38 607.84 495.43 591.73 498.39 575.33 497.54 559.04 497.72 551.52 497.59 543.93 498.15 536.5 496.68 539.74 495.16 542.91 493.46 546.35 492.43 551.34 490.79 556.67 491.33 561.81 490.68 571.55 489.47 581.21 487.55 591.02 486.92 604.04 485.95 617.1 485.07 630.01 483.02 643.75 480.53 656.99 475.35 668.87 468.06 673.69 465.41 679.39 465.84 684.57 464.41Z" stroke-width="4.16667" fill="#1F9BC0"/></g><g id="#afafafff"><path d="M800.11 463.4C804.28 463.17 808.48 463.14 812.68 462.98 814.38 467.83 817.13 472.24 820.6 476.03 823.68 479.79 828.94 479.88 833 482.03 854.36 493.29 875.97 505.62 891.51 524.56 897.02 530.52 901.09 537.6 906.51 543.63 906.03 545.48 905.56 547.34 905.13 549.21 902.31 543.75 896.99 540.44 892.66 536.32 881.18 526.74 870.1 516.65 857.78 508.13 849.15 502.34 840.61 496.37 831.41 491.49 827.35 489.4 824.62 485.68 821.77 482.27 818.11 477.81 812.48 475.69 808.62 471.46 805.87 468.76 803.55 465.42 799.96 463.78L800.11 463.4Z" stroke-width="4.16667" fill="#AFAFAF"/></g><g id="#9f9f9fff"><path d="M799.35 464.66C799.5 464.44 799.8 464 799.96 463.78 803.55 465.42 805.87 468.76 808.62 471.46 812.48 475.69 818.11 477.81 821.77 482.27 824.62 485.68 827.35 489.4 831.41 491.49 840.61 496.37 849.15 502.34 857.78 508.13 870.1 516.65 881.18 526.74 892.66 536.32 896.99 540.44 902.31 543.75 905.13 549.21 904.19 552.56 903.3 555.93 902.35 559.29 883.87 538.96 862.19 521.74 839.24 506.71 836.66 504.89 833.75 503.52 831.38 501.43 828.44 495.99 823.86 491.78 819.92 487.1 816.16 482.51 810.74 479.53 807.51 474.47 805.24 470.83 802.27 467.75 799.35 464.66Z" stroke-width="4.16667" fill="#9F9F9F"/></g><g id="#75ddeffe"><path d="M214.99 471.58C224.73 468.79 235.02 468.32 245.05 469.55 244.55 474.2 245.08 479.23 242.58 483.42 240.74 487.43 236.92 489.84 233.82 492.78 231.56 494.9 229.21 496.91 226.83 498.9 221.53 503.25 217.83 509.14 212.82 513.79 205.9 520.53 199.3 527.61 192.17 534.13 186.38 538.42 180.94 543.29 174.5 546.59 172.06 528.07 175.15 508.3 185.38 492.44 192.06 481.94 203.12 474.85 214.99 471.58Z" stroke-width="4.16667" fill="#75DDEF"/></g><g id="#5cd7edff"><path d="M245.05 469.55C253.29 470.73 261.27 473.47 268.5 477.6 261.03 487.03 253.18 496.17 244.89 504.88 236.91 515.44 224.96 521.71 214.83 529.87 208.65 534.82 204.58 541.7 199.97 548 193.81 554.56 186.56 559.98 180.04 566.16 177.37 559.91 175.45 553.33 174.5 546.59 180.94 543.29 186.38 538.42 192.17 534.13 199.3 527.61 205.9 520.53 212.82 513.79 217.83 509.14 221.53 503.25 226.83 498.9 229.21 496.91 231.56 494.9 233.82 492.78 236.92 489.84 240.74 487.43 242.58 483.42 245.08 479.23 244.55 474.2 245.05 469.55Z" stroke-width="4.16667" fill="#5CD7ED"/></g><g id="#bbbbbbff"><path d="M820.6 476.03C825.07 476.94 829.47 479.68 834.15 478.24 840.96 476.51 848.03 476.79 855 476.89 861.01 476.9 866.47 479.67 871.72 482.29 881 486.98 890.18 492.05 898.22 498.72 903.9 502.86 908.5 508.19 913.63 512.94L913.73 513.04C911.49 523.27 909.17 533.49 906.51 543.63 901.09 537.6 897.02 530.52 891.51 524.56 875.97 505.62 854.36 493.29 833 482.03 828.94 479.88 823.68 479.79 820.6 476.03Z" stroke-width="4.16667" fill="#BBBBBB"/></g><g id="#4ed4ebff"><path d="M268.5 477.6C272.14 479.81 275.56 482.34 278.77 485.15 272.62 493.66 263.3 498.81 255.38 505.42 249.26 510.42 242.69 514.84 236.69 519.98 236.37 520.18 235.73 520.58 235.4 520.77 232.99 521.41 230.44 521.86 228.34 523.32 222.86 527.05 217.82 531.44 213.22 536.21 208.62 540.97 203.32 545.28 200.3 551.32 195.64 559.23 191.41 567.9 184.1 573.74 182.64 571.27 181.3 568.73 180.04 566.16 186.56 559.98 193.81 554.56 199.97 548 204.58 541.7 208.65 534.82 214.83 529.87 224.96 521.71 236.91 515.44 244.89 504.88 253.18 496.17 261.03 487.03 268.5 477.6Z" stroke-width="4.16667" fill="#4ED4EB"/></g><g id="#3ccfe9ff"><path d="M278.77 485.15C284.05 490.09 288.05 496.18 291.82 502.3 278.15 508.31 263.42 511.34 249.38 516.31 245.25 517.86 241 519.06 236.69 519.98 242.69 514.84 249.26 510.42 255.38 505.42 263.3 498.81 272.62 493.66 278.77 485.15Z" stroke-width="4.16667" fill="#3CCFE9"/></g><g id="#20a4c7ff"><path d="M298.63 512.82C300.98 516 303.29 519.22 305.8 522.29 301.79 526.5 296.16 528.94 292.88 533.88 288.05 541.09 285.6 549.52 282.39 557.49 279.26 561.62 275.09 564.91 272.46 569.46 270.16 567.62 267.9 565.74 265.69 563.79 267.21 560.14 269.05 556.63 271.08 553.25 279.2 539.09 288.05 525.28 298.63 512.82Z" stroke-width="4.16667" fill="#20A4C7"/></g><g id="#39cfe9ff"><path d="M228.34 523.32C230.44 521.86 232.99 521.41 235.4 520.77 229.24 527.21 222.03 532.53 215.77 538.86 205.25 551.13 195.58 564.14 186.86 577.76 185.94 576.41 185.02 575.07 184.1 573.74 191.41 567.9 195.64 559.23 200.3 551.32 203.32 545.28 208.62 540.97 213.22 536.21 217.82 531.44 222.86 527.05 228.34 523.32Z" stroke-width="4.16667" fill="#39CFE9"/></g><g id="#1f90b6ff"><path d="M305.8 522.29C309.5 526.83 313.35 531.26 317.44 535.46 313.4 538.06 309.27 540.54 305.41 543.41 301.79 546.08 299.39 550.13 295.43 552.39 291.35 554.82 286.86 557.23 284.59 561.63 282.53 565.81 281.51 570.42 279.36 574.57 277.01 572.93 274.7 571.24 272.46 569.46 275.09 564.91 279.26 561.62 282.39 557.49 285.6 549.52 288.05 541.09 292.88 533.88 296.16 528.94 301.79 526.5 305.8 522.29Z" stroke-width="4.16667" fill="#1F90B6"/></g><g id="#1f81abff"><path d="M305.41 543.41C309.27 540.54 313.4 538.06 317.44 535.46 320.14 538.14 322.92 540.75 325.65 543.41 320.55 545.97 314.67 546.66 309.87 549.84 303.84 553.7 297.94 557.85 292.71 562.76 288.4 566.75 286.62 572.52 283.71 577.47 282.25 576.52 280.79 575.55 279.36 574.57 281.51 570.42 282.53 565.81 284.59 561.63 286.86 557.23 291.35 554.82 295.43 552.39 299.39 550.13 301.79 546.08 305.41 543.41Z" stroke-width="4.16667" fill="#1F81AB"/></g><g id="#1e6896ff"><path d="M880 554.99C879.87 550.46 879.88 545.92 880.58 541.45 887.75 547.58 894.46 554.27 900.49 561.53 903.02 564.79 905.81 568.11 906.89 572.18 907.4 574.81 904.38 575.93 902.4 576.56 893.71 579.01 884.64 579.55 875.71 580.47 877.63 572.08 880.28 563.69 880 554.99Z" stroke-width="4.16667" fill="#1E6896"/></g><g id="#1e6f9bff"><path d="M325.65 543.41 325.8 543.34C333.36 550.08 341.58 556.07 350.34 561.16 347.17 565.52 344.21 570.07 341.99 575 339.18 581.55 339.14 588.8 338.11 595.76 319.07 593.18 300.01 587.92 283.71 577.47 286.62 572.52 288.4 566.75 292.71 562.76 297.94 557.85 303.84 553.7 309.87 549.84 314.67 546.66 320.55 545.97 325.65 543.41Z" stroke-width="4.16667" fill="#1E6F9B"/></g><g id="#194b80ff"><path d="M422.91 567.95C427.67 562.38 432.18 556.59 436.86 550.96 442.79 560.92 445.69 572.34 451.77 582.22 456.66 589.19 465.18 591.99 472.66 595.23 482.33 599.13 491.93 603.32 502.07 605.89 518.4 609.96 535.27 610.75 551.99 611.9 559.37 612.24 566.51 610.1 573.66 608.6 580.23 607.17 586.98 608.26 593.63 607.53 600 606.86 606.42 606.9 612.8 607.51L613.4 607.55C583.7 612.61 554.58 620.71 526.29 631.02 525.24 627.41 525.24 623.3 523.04 620.16L521.78 620.68C521.99 626.52 524.33 632.14 525.19 637.94 518.68 636.68 511.99 635.15 505.36 636.4 497.01 638.13 488.92 641.62 482.4 647.21 483.79 640.28 486.38 633.6 487.03 626.53 485.63 626.6 484.27 627.24 484.26 628.83 483.01 633.97 481.98 639.17 480.28 644.19 464.83 644.79 449.32 649.35 437 658.9 431.93 662.65 427.55 667.23 423.61 672.13 419.39 669.76 415.41 666.99 411.82 663.74 416.26 658.21 420.88 652.83 425.59 647.54 428.35 644.39 431.67 641.61 433.4 637.7 429.62 638.21 427.56 641.64 425.16 644.18 413.84 656.77 403.11 669.92 393.72 684.01 390.28 682.35 386.77 680.88 383.31 679.29 382.68 678.11 381.76 677.4 380.39 677.7 380.75 677.29 381.12 676.9 381.49 676.51 374.28 671.38 370 663.58 365.11 656.46 379.92 648.94 394.53 641.06 408.95 632.83 411.54 631.28 414.4 630.07 416.61 627.96 416.57 627.4 416.5 626.29 416.47 625.73 399.16 635.31 382 645.22 364.28 654.04 359.76 644.69 355.93 634.89 354.17 624.62L354.12 624.38C370.82 619.38 386.99 612.74 402.94 605.76 403.94 604.96 406.95 604.48 405.32 602.66 403.72 602.24 402.29 603.34 400.85 603.84 391.81 607.96 382.57 611.65 373.29 615.18 372.66 610.55 372.12 605.91 371.71 601.26 368.29 601.2 364.89 600.79 361.54 600.17 374.33 600 387.17 599.7 399.83 597.7 401.39 597.74 401.8 596.16 402.5 595.11 391.3 596.03 380.14 597.6 368.87 597.5 368.93 593.21 368.47 588.57 370.81 584.73 373.21 580.24 377.67 577.5 381.7 574.64L381.88 574.51C394.52 577.95 408.26 577.87 420.43 572.72 421.03 571.02 421.68 569.3 422.91 567.95Z" stroke-width="4.16667" fill="#194B80"/></g><g id="#1c5f8fff"><path d="M350.34 561.16C353.32 562.78 356.32 564.38 359.34 565.92 357.55 570.19 356.4 574.68 355.26 579.15 354.63 583.04 349.98 584.21 348.85 587.8 348.01 590.72 348.12 593.8 347.96 596.81 344.67 596.53 341.38 596.18 338.11 595.76 339.14 588.8 339.18 581.55 341.99 575 344.21 570.07 347.17 565.52 350.34 561.16Z" stroke-width="4.16667" fill="#1C5F8F"/></g><g id="#20a9ccff"><path d="M264.05 565.75C265.9 567.37 267.78 568.96 269.7 570.51 264.99 578.04 261.84 586.39 258.68 594.65 255.77 601.95 256.18 609.92 255.18 617.58 252.14 616.79 249.14 615.89 246.14 614.97L246.18 614.86C249.42 605.37 250.95 595.33 255.13 586.16 258.26 579.42 261 572.52 264.05 565.75Z" stroke-width="4.16667" fill="#20A9CC"/></g><g id="#1a5286ff"><path d="M359.34 565.92C366.53 569.46 374.04 572.29 381.7 574.64 377.67 577.5 373.21 580.24 370.81 584.73 368.47 588.57 368.93 593.21 368.87 597.5 361.89 597.55 354.91 597.38 347.96 596.81 348.12 593.8 348.01 590.72 348.85 587.8 349.98 584.21 354.63 583.04 355.26 579.15 356.4 574.68 357.55 570.19 359.34 565.92Z" stroke-width="4.16667" fill="#1A5286"/></g><g id="#1f91b8ff"><path d="M269.7 570.51C272.87 573.02 276.1 575.46 279.46 577.72 277 585.99 276.01 594.59 274.04 602.98 272.62 609.12 271.74 615.36 270.96 621.61 265.67 620.4 260.4 619.12 255.16 617.74L255.18 617.58C256.18 609.92 255.77 601.95 258.68 594.65 261.84 586.39 264.99 578.04 269.7 570.51Z" stroke-width="4.16667" fill="#1F91B8"/></g><g id="#1e749fff"><path d="M279.46 577.72C285.12 581.48 291.04 584.87 297.3 587.56 293.78 592.82 290.79 598.45 288.52 604.36 286.54 609.49 286.51 615.06 285.36 620.38 285.2 622.12 283.42 622.76 282.24 623.74 278.48 623 274.71 622.38 270.96 621.61 271.74 615.36 272.62 609.12 274.04 602.98 276.01 594.59 277 585.99 279.46 577.72Z" stroke-width="4.16667" fill="#1E749F"/></g><g id="#1e6c99ff"><path d="M297.3 587.56C302.85 589.95 308.56 591.98 314.39 593.6 311.36 598.08 307.9 602.54 306.97 608.02 305.88 613.97 304.5 619.87 302.71 625.65 295.84 625.55 289.04 624.54 282.24 623.74 283.42 622.76 285.2 622.12 285.36 620.38 286.51 615.06 286.54 609.49 288.52 604.36 290.79 598.45 293.78 592.82 297.3 587.56Z" stroke-width="4.16667" fill="#1E6C99"/><path d="M281.77 636.84C287.95 636.44 294.12 635.99 300.28 635.35 299.41 645.19 298.1 655.09 298.94 664.99 299.06 670.74 298.8 676.54 300.04 682.21 297.32 683.21 294.59 684.2 291.86 685.17 288.64 677.08 286.96 668.51 284.77 660.12 282.82 652.5 282.65 644.61 281.77 636.84Z" stroke-width="4.16667" fill="#1E6C99"/></g><g id="#1e6593ff"><path d="M314.39 593.6C325.63 596.69 337.2 598.56 348.83 599.43 348.57 606.72 350.06 613.87 351.29 621.01L350.99 621.67C335.19 625.23 318.85 626.47 302.66 625.8L302.71 625.65C304.5 619.87 305.88 613.97 306.97 608.02 307.9 602.54 311.36 598.08 314.39 593.6Z" stroke-width="4.16667" fill="#1E6593"/></g><g id="#153370ff"><path d="M703.25 602.32C706.34 598.48 712.03 599.65 716.36 598.92 712.36 608.14 706.61 616.95 698.31 622.84 700.72 616.18 702.31 609.32 703.25 602.32Z" stroke-width="4.16667" fill="#153370"/><path d="M656.15 604C661.64 603 667.12 601.94 672.63 601.05 671.38 603.16 670.23 605.56 668.01 606.83 662.34 610.07 656.17 612.48 649.77 613.77 651.77 610.43 654.32 607.45 656.15 604Z" stroke-width="4.16667" fill="#153370"/><path d="M442.34 658.27C453.31 650.84 466.5 647.52 479.59 646.72 475.04 663.56 467.25 679.34 458.17 694.17 456.26 697.21 454.65 700.63 451.57 702.69 440.3 710.84 428.53 718.46 415.79 724.12 424.93 714.33 432.39 703.08 438.16 691 439.62 687.71 441.63 684.59 442.33 681.02 442.26 678.61 440.19 681.04 439.47 681.54 432.08 688.62 423.25 694.15 413.82 698.09 418.19 682 428.17 667.27 442.34 658.27Z" stroke-width="4.16667" fill="#153370"/></g><g id="#1a5084ff"><path d="M348.83 599.43C353.06 599.7 357.31 599.85 361.54 600.17 364.89 600.79 368.29 601.2 371.71 601.26 372.12 605.91 372.66 610.55 373.29 615.18 366.23 617.58 359.27 620.94 351.76 621.38L351.29 621.01C350.06 613.87 348.57 606.72 348.83 599.43Z" stroke-width="4.16667" fill="#1A5084"/></g><g id="#1e6492ff"><path d="M300.28 635.35C318.52 633.42 336.58 629.84 354.17 624.62 355.93 634.89 359.76 644.69 364.28 654.04 343.38 664.55 321.98 674.08 300.04 682.21 298.8 676.54 299.06 670.74 298.94 664.99 298.1 655.09 299.41 645.19 300.28 635.35Z" stroke-width="4.16667" fill="#1E6492"/><path d="M298.54 685.48C321.25 677.08 343.52 667.43 365.11 656.46 370 663.58 374.28 671.38 381.49 676.51 381.12 676.9 380.75 677.29 380.39 677.7 378.26 680.19 375.49 681.97 372.8 683.79 354.19 698.3 335.62 712.89 317.26 727.74 312.46 719.99 307.12 712.4 304.27 703.66 302.25 697.63 300.74 691.45 298.54 685.48Z" stroke-width="4.16667" fill="#1E6492"/><path d="M363.42 695.37C369.44 689.3 376.55 684.47 383.31 679.29 386.77 680.88 390.28 682.35 393.72 684.01 380.54 703.84 370.04 725.58 363.78 748.59 358.99 745.86 353.65 744.15 349.29 740.69 343.75 737.13 339.15 732.42 334.1 728.25 343.03 716.57 352.87 705.61 363.42 695.37Z" stroke-width="4.16667" fill="#1E6492"/><path d="M363.64 759.83C368.99 734.53 379.7 710.56 393.63 688.84 400.04 690.48 406.64 691.22 413.25 691.34 408.57 704.1 406.37 717.6 404.95 731.06 403.62 742.89 403.33 754.83 404.08 766.72 399.34 763.34 393.3 764.15 387.84 763.41 379.66 763.03 371.73 760.91 363.64 759.83Z" stroke-width="4.16667" fill="#1E6492"/></g><g id="#000001ff"><path d="M364.28 654.04C382 645.22 399.16 635.31 416.47 625.73 416.5 626.29 416.57 627.4 416.61 627.96 414.4 630.07 411.54 631.28 408.95 632.83 394.53 641.06 379.92 648.94 365.11 656.46 343.52 667.43 321.25 677.08 298.54 685.48 290.18 688.64 281.67 691.38 273.17 694.14 269.35 695.38 265.49 696.56 261.64 697.71 257.41 698.97 253.15 700.16 248.9 701.35 228.99 706.87 208.86 711.59 188.63 715.79 180.42 717.26 172.29 719.48 163.96 720.19 161.97 718.12 165.66 717.75 166.87 717.38 173.59 716.16 180.31 714.89 187 713.5 207.15 709.38 227.18 704.67 247.02 699.24 247.57 699.09 248.66 698.79 249.2 698.64 253.25 697.52 257.28 696.33 261.31 695.15 265.31 693.97 269.3 692.72 273.27 691.45 276.64 690.37 280 689.26 283.36 688.13 286.2 687.16 289.03 686.17 291.86 685.17 294.59 684.2 297.32 683.21 300.04 682.21 321.98 674.08 343.38 664.55 364.28 654.04Z" stroke-width="4.16667" fill="#000001"/><path d="M425.16 644.18C427.56 641.64 429.62 638.21 433.4 637.7 431.67 641.61 428.35 644.39 425.59 647.54 420.88 652.83 416.26 658.21 411.82 663.74 405.35 671.8 399.15 680.09 393.63 688.84 379.7 710.56 368.99 734.53 363.64 759.83 362.1 767.29 360.88 774.82 360.03 782.4 359.84 784.16 359.68 785.95 359.53 787.74 359.3 790.33 359.1 792.93 358.92 795.54 358.68 798.88 358.5 802.24 358.39 805.6 358.27 810.03 358.16 814.47 358.24 818.91 358.26 821.7 358.44 824.51 358.09 827.31 357.63 827.21 356.7 827.03 356.24 826.94 355.31 824.07 355.76 820.98 355.65 818.03 355.65 814.13 355.73 810.24 355.78 806.36 356 801.64 356.22 796.93 356.56 792.23 356.72 790.15 356.91 788.09 357.12 786.03 357.56 781.62 358.08 777.22 358.76 772.84 359.94 764.67 361.54 756.54 363.78 748.59 370.04 725.58 380.54 703.84 393.72 684.01 403.11 669.92 413.84 656.77 425.16 644.18Z" stroke-width="4.16667" fill="#000001"/></g><g id="#6ddbeeff"><path d="M119.06 640.57C130.69 637.01 142.72 634.81 154.83 633.77 154.86 639.14 155.11 644.61 153.68 649.85 147.73 670.76 145.79 692.51 143.98 714.08 143.5 720.75 144.61 727.38 144.93 734.02 144.97 739.34 148.58 743.52 150.95 747.99 154.36 754.21 158.37 760.08 161.67 766.36 163.82 770.28 164.36 775.14 167.7 778.35 170.9 781.48 174.28 784.46 176.87 788.14 181.22 794.19 185.94 799.97 190.17 806.11L189.97 806.69C184.55 808.47 178.9 809.47 173.3 810.52 167.84 801.61 161.38 793.19 157.56 783.39 155.85 779.4 154.51 775.25 152.61 771.35 150.47 766.92 145.46 764.43 144.31 759.43 139.89 744.28 136.67 728.72 130.9 713.99 126.09 702.85 120.55 691.89 117.87 679.98 116.38 673.32 113.91 666.49 115.43 659.6 116.79 653.29 118.4 647.01 119.06 640.57Z" stroke-width="4.16667" fill="#6DDBEE"/></g><g id="#5bd7ecff"><path d="M154.83 633.77C157.19 633.61 159.56 633.48 161.93 633.35 160.5 638.14 158.86 642.97 158.86 648.03 158.9 668.69 158.66 689.36 160.2 709.97 161.54 728.33 163.45 746.64 164.95 764.98 165.15 772.6 170.1 779.83 177.01 782.98 188.3 788.49 199.33 794.53 210.93 799.36 204.34 802.03 197.74 804.87 190.77 806.35L190.17 806.11C185.94 799.97 181.22 794.19 176.87 788.14 174.28 784.46 170.9 781.48 167.7 778.35 164.36 775.14 163.82 770.28 161.67 766.36 158.37 760.08 154.36 754.21 150.95 747.99 148.58 743.52 144.97 739.34 144.93 734.02 144.61 727.38 143.5 720.75 143.98 714.08 145.79 692.51 147.73 670.76 153.68 649.85 155.11 644.61 154.86 639.14 154.83 633.77Z" stroke-width="4.16667" fill="#5BD7EC"/></g><g id="#44d1eaff"><path d="M161.93 633.35C165.53 633.26 169.12 633.21 172.72 633.2 172.47 641.45 172.63 649.7 172.6 657.94 172.53 667.05 174.15 676.06 175.84 684.97 177.75 695.1 182.44 704.37 187 713.5 180.31 714.89 173.59 716.16 166.87 717.38 165.66 717.75 161.97 718.12 163.96 720.19 172.29 719.48 180.42 717.26 188.63 715.79 192.88 725.11 198.41 733.77 203.34 742.73 212.24 758.21 220.58 774.02 230.13 789.12L230.01 789.72C224.02 793.6 217.42 796.44 210.93 799.36 199.33 794.53 188.3 788.49 177.01 782.98 170.1 779.83 165.15 772.6 164.95 764.98 163.45 746.64 161.54 728.33 160.2 709.97 158.66 689.36 158.9 668.69 158.86 648.03 158.86 642.97 160.5 638.14 161.93 633.35Z" stroke-width="4.16667" fill="#44D1EA"/></g><g id="#21bbdaff"><path d="M236.48 637.01C239.36 637.14 242.25 637.27 245.13 637.35 243.59 645.47 244.3 653.77 244.18 661.99 244.81 674.31 246.2 686.65 249.2 698.64 248.66 698.79 247.57 699.09 247.02 699.24 240.96 685.64 237.16 670.92 236.72 656 235.86 649.68 237.19 643.33 236.48 637.01Z" stroke-width="4.16667" fill="#21BBDA"/></g><g id="#1e75a1ff"><path d="M273.71 637.11C276.39 637.05 279.08 636.95 281.77 636.84 282.65 644.61 282.82 652.5 284.77 660.12 286.96 668.51 288.64 677.08 291.86 685.17 289.03 686.17 286.2 687.16 283.36 688.13 282.8 685.27 282.16 682.43 281.24 679.67 278.79 672.66 277.42 665.34 276.03 658.06 274.67 651.2 275.49 644.1 273.75 637.3L273.71 637.11Z" stroke-width="4.16667" fill="#1E75A1"/></g><g id="#20a4c8ff"><path d="M245.13 637.35C248.44 637.39 251.76 637.44 255.07 637.47 255.97 648.31 255.91 659.22 257.32 670.02 258.26 678.45 259.72 686.82 261.31 695.15 257.28 696.33 253.25 697.52 249.2 698.64 246.2 686.65 244.81 674.31 244.18 661.99 244.3 653.77 243.59 645.47 245.13 637.35Z" stroke-width="4.16667" fill="#20A4C8"/></g><g id="#1f8db4ff"><path d="M255.07 637.47C259.69 637.44 264.32 637.44 268.95 637.31 269.25 645.57 267.81 653.81 268.78 662.06 268.84 672.02 270.86 681.82 273.27 691.45 269.3 692.72 265.31 693.97 261.31 695.15 259.72 686.82 258.26 678.45 257.32 670.02 255.91 659.22 255.97 648.31 255.07 637.47Z" stroke-width="4.16667" fill="#1F8DB4"/></g><g id="#1f7fa9ff"><path d="M268.95 637.31C270.54 637.29 272.14 637.29 273.75 637.3 275.49 644.1 274.67 651.2 276.03 658.06 277.42 665.34 278.79 672.66 281.24 679.67 282.16 682.43 282.8 685.27 283.36 688.13 280 689.26 276.64 690.37 273.27 691.45 270.86 681.82 268.84 672.02 268.78 662.06 267.81 653.81 269.25 645.57 268.95 637.31Z" stroke-width="4.16667" fill="#1F7FA9"/></g><g id="#80e0f1ff"><path d="M76.87 665.85C87.87 653.25 103.32 645.53 119.06 640.57 118.4 647.01 116.79 653.29 115.43 659.6 113.91 666.49 116.38 673.32 117.87 679.98 120.55 691.89 126.09 702.85 130.9 713.99 136.67 728.72 139.89 744.28 144.31 759.43 145.46 764.43 150.47 766.92 152.61 771.35 154.51 775.25 155.85 779.4 157.56 783.39 161.38 793.19 167.84 801.61 173.3 810.52 152.03 814.04 129.14 813.36 109.58 803.43 78.79 787.6 58.34 753.67 58.53 719.07 58.5 700.01 64.28 680.44 76.87 665.85Z" stroke-width="4.16667" fill="#80E0F1"/></g><g id="#1b5185ff"><path d="M393.63 688.84C399.15 680.09 405.35 671.8 411.82 663.74 415.41 666.99 419.39 669.76 423.61 672.13 419.26 678.01 415.93 684.55 413.25 691.34 406.64 691.22 400.04 690.48 393.63 688.84Z" stroke-width="4.16667" fill="#1B5185"/></g><g id="#1e78a3ff"><path d="M273.17 694.14C281.67 691.38 290.18 688.64 298.54 685.48 300.74 691.45 302.25 697.63 304.27 703.66 307.12 712.4 312.46 719.99 317.26 727.74 311.62 732.2 306.05 736.76 300.34 741.15 293 732.36 286.1 723.1 281.4 712.59 278.13 706.67 276.54 700 273.17 694.14Z" stroke-width="4.16667" fill="#1E78A3"/><path d="M314.16 758.73C317.17 753.15 320.52 747.77 323.97 742.46 328.54 746.78 332.11 752.05 336.88 756.17 340.1 758.95 343.28 761.79 346.63 764.43 350.47 767.53 355.52 768.97 358.76 772.84 358.08 777.22 357.56 781.62 357.12 786.03 350.09 782.67 343.91 777.76 336.66 774.86 329.79 768.6 321.28 764.65 314.16 758.73Z" stroke-width="4.16667" fill="#1E78A3"/></g><g id="#1f91b7ff"><path d="M261.64 697.71C265.49 696.56 269.35 695.38 273.17 694.14 276.54 700 278.13 706.67 281.4 712.59 286.1 723.1 293 732.36 300.34 741.15 297.33 743.45 294.35 745.8 291.33 748.08 286.18 743.83 280.31 740.12 276.77 734.3 269.68 723.07 265.51 710.32 261.64 697.71Z" stroke-width="4.16667" fill="#1F91B7"/></g><g id="#20a7c9ff"><path d="M248.9 701.35C253.15 700.16 257.41 698.97 261.64 697.71 265.51 710.32 269.68 723.07 276.77 734.3 280.31 740.12 286.18 743.83 291.33 748.08 289.94 749.12 288.55 750.17 287.17 751.22 283.19 746.35 280.29 740.65 275.75 736.25 269.95 730.41 263.76 724.85 259.15 717.97 255.71 713.31 253.72 707.84 251.6 702.51 250.92 702.22 249.58 701.64 248.9 701.35Z" stroke-width="4.16667" fill="#20A7C9"/></g><g id="#20b5d6ff"><path d="M248.9 701.35C249.58 701.64 250.92 702.22 251.6 702.51 253.72 707.84 255.71 713.31 259.15 717.97 263.76 724.85 269.95 730.41 275.75 736.25 280.29 740.65 283.19 746.35 287.17 751.22 283.59 753.93 280.02 756.65 276.41 759.32 263.61 741.95 255.64 721.69 248.9 701.35Z" stroke-width="4.16667" fill="#20B5D6"/></g><g id="#1e6a97ff"><path d="M323.97 742.46C327.18 737.6 330.59 732.89 334.1 728.25 339.15 732.42 343.75 737.13 349.29 740.69 353.65 744.15 358.99 745.86 363.78 748.59 361.54 756.54 359.94 764.67 358.76 772.84 355.52 768.97 350.47 767.53 346.63 764.43 343.28 761.79 340.1 758.95 336.88 756.17 332.11 752.05 328.54 746.78 323.97 742.46Z" stroke-width="4.16667" fill="#1E6A97"/></g><g id="#209dc2ff"><path d="M314.16 758.73C321.28 764.65 329.79 768.6 336.66 774.86 342.92 781.03 349.34 787.17 356.56 792.23 356.22 796.93 356 801.64 355.78 806.36 355.52 805.63 354.99 804.18 354.72 803.45 344.46 799.07 334.52 793.88 325.33 787.53 318.79 783.43 313.13 778.15 306.9 773.64 309.09 768.56 311.6 763.63 314.16 758.73Z" stroke-width="4.16667" fill="#209DC2"/></g><g id="#1e719dff"><path d="M363.64 759.83C371.73 760.91 379.66 763.03 387.84 763.41 393.3 764.15 399.34 763.34 404.08 766.72 404.19 775.42 405.63 784.03 406.67 792.65 402.45 792.81 398.15 792.88 394.04 791.78 386.75 789.92 379.5 787.89 372.34 785.6 368.28 784.37 364.36 782.38 360.03 782.4 360.88 774.82 362.1 767.29 363.64 759.83Z" stroke-width="4.16667" fill="#1E719D"/></g><g id="#20b6d6ff"><path d="M306.9 773.64C313.13 778.15 318.79 783.43 325.33 787.53 334.52 793.88 344.46 799.07 354.72 803.45 354.99 804.18 355.52 805.63 355.78 806.36 355.73 810.24 355.65 814.13 355.65 818.03 335.81 811.79 317 801.73 301.66 787.59 303.2 782.86 305 778.23 306.9 773.64Z" stroke-width="4.16667" fill="#20B6D6"/></g><g id="#1f8cb3ff"><path d="M336.66 774.86C343.91 777.76 350.09 782.67 357.12 786.03 356.91 788.09 356.72 790.15 356.56 792.23 349.34 787.17 342.92 781.03 336.66 774.86Z" stroke-width="4.16667" fill="#1F8CB3"/></g><g id="#1f92b9ff"><path d="M359.53 787.74C369.29 791.98 379.13 796.3 389.6 798.44 395.56 799.69 401.68 799.1 407.72 799.06 408.39 803 409.03 806.94 409.59 810.9 401.44 812.05 393.18 812.96 384.95 811.98 379.92 812.06 376.2 808.3 372.21 805.82 367.48 802.79 363.53 798.74 358.92 795.54 359.1 792.93 359.3 790.33 359.53 787.74Z" stroke-width="4.16667" fill="#1F92B9"/></g><g id="#20a2c5ff"><path d="M358.92 795.54C363.53 798.74 367.48 802.79 372.21 805.82 376.2 808.3 379.92 812.06 384.95 811.98 393.18 812.96 401.44 812.05 409.59 810.9 410.12 815.41 411.08 819.89 411.08 824.44 410.9 825.53 410.71 826.63 410.51 827.74 406.03 826.26 401.64 824.54 397.27 822.81 388.19 818.83 378.99 815.11 370 810.92 366.19 809.01 362.38 807.1 358.39 805.6 358.5 802.24 358.68 798.88 358.92 795.54Z" stroke-width="4.16667" fill="#20A2C5"/></g><g id="#20b9d9ff"><path d="M358.39 805.6C362.38 807.1 366.19 809.01 370 810.92 378.99 815.11 388.19 818.83 397.27 822.81 384.12 823.63 371.01 821.94 358.24 818.91 358.16 814.47 358.27 810.03 358.39 805.6Z" stroke-width="4.16667" fill="#20B9D9"/></g><g id="#45d2eaff"><path d="M295.88 827.9C308.55 831.51 321.01 835.78 333.62 839.59 347.47 843.64 360.93 848.87 374.57 853.55 386.14 857.01 398.34 856.49 410.27 856.31 408.38 866.61 404.28 877.11 395.89 883.85 387.41 890.83 376.43 894.59 365.52 895.01 355.93 891.77 345.99 889.7 336.37 886.53 332.78 885.3 329.28 883.39 325.37 883.58L325.19 883.57C313.19 875.24 303.76 863.02 299.45 849 297.27 842.18 296.28 835.04 295.88 827.9Z" stroke-width="4.16667" fill="#45D2EA"/></g></svg>