<svg width="1333.33" height="1333.33" viewBox="0 0 1000 1000" xmlns="http://www.w3.org/2000/svg" xmlns:xlink="http://www.w3.org/1999/xlink" overflow="hidden"><g id="#000000ff"><path d="M835.01 206.08C839.09 203.43 843.14 200.34 847.97 199.26 851.26 198.7 852.94 202.24 854.64 204.4 862.9 217.14 869.77 230.71 876.84 244.12 877.4 245.18 878.44 246.98 876.76 247.66 863.3 255.82 849.46 263.39 835.32 270.3 827.49 274.2 819.63 278.25 812.93 283.94 807.5 288.6 802.77 294.03 798.53 299.79 799.12 309.17 801.06 318.78 806.29 326.76 808.62 330.64 811.78 334.01 813.76 338.1 815.05 340.27 813.39 342.55 811.54 343.65 805.52 347.65 799 350.86 793.21 355.2 785.87 360.31 779.92 367.23 775.75 375.13 777.02 377.38 779.58 380.08 777.76 382.74 774.55 387.47 769.76 391.06 764.59 393.41 760.99 395.12 756.95 394.97 753.1 395.45 749.76 396.52 747.69 399.64 745.33 402.03 746.47 404.93 748.41 407.79 747.72 411.06 746.98 414.25 749.99 416.85 749.44 420.04 749 423.47 745.72 425.38 742.93 426.83 736.77 429.79 730.89 433.32 724.66 436.14 740.14 469.61 747.35 507.03 744.22 543.84 741.77 575.21 732.67 605.64 721.05 634.75 737.53 627.86 754.11 621.21 770.87 615.04 784.31 610.23 798.88 606.37 813.17 609.39 825.16 611.87 836.05 617.74 847.59 621.61 861.53 626.31 876.49 628.27 891.13 626.44 899.39 625.41 907.56 623.68 915.56 621.35 917.13 620.97 918.8 620.17 920.44 620.93 919.29 623.26 916.95 624.52 914.99 626.04 893.18 641.74 868.24 654.75 841.14 657.42 826.74 658.67 812.18 657.1 797.84 659.31 780.61 662 764.19 668.55 748.95 676.89 722.74 691.29 699.88 710.91 678.39 731.53 673.73 735.78 669.45 740.52 664.28 744.16 662.66 745.48 660.64 744.6 658.92 744.09 638.82 761.01 617.34 776.25 595 790.05 565.14 808.39 533.52 824.09 500.19 835.06 466.76 846.17 431.32 851.69 396.09 849.39 357.83 847.07 320.12 836.51 286.12 818.85 259.15 804.74 234.34 785.64 216.22 760.99 205.15 745.93 196.95 728.89 191.29 711.11 174.36 699.89 157.45 688.63 140.62 677.26 116.67 660.98 92.09 645.01 72.01 623.91 65.86 617.33 60.01 610.43 54.95 602.98 54.33 602 53.07 599.76 55.07 599.42 69.33 605.55 84.4 609.49 99.3 613.75 114.43 617.74 129.53 622.15 145.06 624.28 157.62 626.18 170.29 623.05 182.86 624.88 187.17 582.47 203 541.03 229.32 507.38 245.9 486.56 265.82 468.56 287.17 452.76 286.46 442.45 286.59 432.01 288.55 421.83 289.33 417.98 290.5 414.08 292.92 410.92 297.22 405.26 305.51 404.55 309.33 398.37 313.1 393.38 310.02 386.15 314.34 381.44 316.43 378.56 320.09 378.18 323.21 377.16 324.72 373.93 324.05 369.51 327.25 367.18 329.42 365.32 333.49 365.37 334.65 368.35 336.39 372.33 332.33 375.37 331.69 379.08 330.75 383.71 326.48 387.05 326.48 391.94 326.14 399.3 325.62 407.16 321.3 413.43 317.88 418.67 311.78 421.88 309.45 427.86 308.11 432.57 308.03 437.53 307.77 442.4 322.36 434.31 337.1 426.49 352.16 419.29 366.31 412.52 380.64 406.11 394.41 398.58 412.18 388.93 428.36 376.6 446.36 367.33 476.54 351.43 510.12 341.42 544.35 340.55 571.22 339.61 598.1 343.29 624.13 349.81 639.89 353.76 655.53 359.01 669.4 367.63 681.75 375.27 692.24 385.6 701.16 397 703.22 393.98 705.5 390.86 705.07 386.98 707.03 384.17 706.91 380.63 708.5 377.65 709.82 375.06 709.86 371.32 713.01 370.12 719.57 367.28 726.95 366.6 733.23 363.04 733.92 355.68 733.93 348.24 732.71 340.94 732.19 338.44 732.61 335.3 735.33 334.31 740.68 331.98 743.05 325.89 748.5 323.7 751.26 322.64 753.4 320.58 754.94 318.08 753.62 312.77 751.64 306.28 745.85 304.39 743.77 303.54 739.7 303.12 740.43 299.95 741.74 298.09 743.19 296.34 744.44 294.44 746.35 291.29 750.01 290.03 752.75 287.78 759.06 282.75 764.16 276.43 769.32 270.28 779.63 257.67 789.71 244.78 801.57 233.55 812.05 223.62 823.22 214.41 835.01 206.08M838 206.73C826.95 214.27 816.62 222.82 806.7 231.77 802.75 235.39 798.9 239.12 795.36 243.15L795.14 243.02C783.19 256.03 772.82 270.37 760.87 283.36 756.8 287.99 751.52 291.15 746.72 294.88 745.48 297.02 744.02 299.01 742.48 300.92 745.48 301.89 748.75 302.64 751.05 304.96 754.7 308.43 756.08 313.47 757.25 318.21 755.31 323.39 750.01 325.24 745.76 327.99 743.24 330.69 740.99 333.79 737.66 335.54 736.41 336.37 734.32 337.04 734.79 338.98 735.83 346.81 736.44 354.77 735.43 362.65 735.37 364.44 733.68 365.41 732.26 366.09 726.43 368.71 720.02 369.64 714.12 372.06 711.7 372.95 711.91 375.98 710.81 377.93 709.07 380.87 709.36 384.5 707.4 387.33 707.62 391.81 704.89 395.34 702.62 398.91 710.81 409.9 717.75 421.77 723.74 434.09 729.72 431.4 735.34 427.98 741.27 425.17 743.31 424.05 745.71 423.06 746.87 420.9 747.98 418.96 746.56 416.97 745.94 415.14 744.58 412.63 746.36 409.66 745.07 407.15 744.45 405.24 742.93 403.43 743.37 401.33 744.66 399.09 746.6 397.31 748.5 395.59 752.94 391.39 759.68 393.91 764.8 391.02L764.78 390.91C769.2 388.47 773.59 385.42 776.2 380.99 775.81 378.8 774.22 377.09 773.21 375.18 776.05 369.79 779.51 364.71 783.71 360.29 788.28 355.82 793.5 352.09 798.92 348.72 803.37 345.82 808.42 343.73 812.31 340.03 809.18 333.96 804.36 328.94 801.45 322.73 798.28 315.28 796.4 307.17 796.47 299.05 803.12 289.31 811.77 280.83 821.99 274.86 826.62 272.14 831.44 269.77 836.24 267.36 849.56 260.82 862.56 253.62 875.28 245.98 869.52 234.84 863.68 223.73 857.34 212.91 854.84 208.83 852.53 204.53 849.08 201.15 845.02 202.2 841.44 204.44 838 206.73M525.03 344.24C504.03 346.98 483.33 352.66 464.06 361.45 443.66 369.61 425.56 382.29 407 393.84 388.39 405.36 368.21 413.96 348.56 423.5 334.76 430.27 321.15 437.45 307.75 444.99 307.79 449.66 308.13 454.32 308.28 459 308.37 462.31 307.92 466 305.43 468.44 301.63 472.29 294.6 471.9 291.17 467.77 288.26 464.34 287.7 459.71 287.22 455.42 268.55 469.47 250.97 485.12 235.81 502.94 217.53 524.58 203.78 549.99 195.23 576.97L195.09 576.99C191.79 587.64 188.96 598.47 187.22 609.5L187.08 609.42C182.12 639.99 182.88 671.65 190.89 701.64 192.22 706.94 193.95 712.13 195.74 717.3 198.27 724.55 201.45 731.56 204.87 738.44 221.02 770.32 248.56 795.14 279.33 812.62 313.77 832.06 352.53 843.82 391.95 846.88 426 849.67 460.43 845.12 492.99 835 526.98 824.56 559.24 809.03 589.66 790.72 613.22 776.45 635.85 760.59 656.92 742.83 640.78 732.39 625.22 721.06 608.54 711.47 601.36 707.17 593.85 703.47 586.49 699.49 584.33 698.17 581.47 696.86 581.19 694.01 580.27 688.36 580.46 682.61 580.16 676.91 580.49 675.44 579.47 673.07 581.31 672.4 586.76 669.91 592.56 668.18 597.88 665.42 630.34 652.41 660.36 633.97 688.78 613.73 692.06 611.57 694.9 608.69 698.53 607.11 703.72 617.28 708.54 627.64 713.65 637.85 715.28 636.86 717.88 636.8 718.62 634.76 730.98 604.28 740.38 572.21 742.3 539.24 744.72 500.59 735.77 461.51 717.8 427.29 711.13 414.74 703.56 402.53 694.03 391.95 690.91 388.25 687.63 384.61 683.81 381.63 680.24 377.87 676.01 374.72 671.68 371.89 666.27 367.84 660.12 364.87 654 362.06 636.13 354.29 617.01 349.9 597.89 346.51 573.86 342.46 549.26 341.35 525.03 344.24M327.09 371.15C326.48 373.86 325.82 376.56 324.83 379.17 321.83 380.11 318.19 380.31 316.07 382.93 312.53 387.03 314.81 392.98 312.33 397.55 309.85 403.21 304.06 406.03 298.9 408.76 294.56 410.96 292.26 415.59 291.2 420.14 288.32 432.6 288.74 445.51 289.8 458.16 290.31 462.44 292.07 467.47 296.73 468.72L296.7 468.99C298.99 468.85 301.55 468.96 303.37 467.31 305.88 465.36 306.11 461.92 306.04 459 305.63 448.96 304.92 438.77 306.88 428.83 308.36 421.65 315.46 418.01 319.35 412.32 323.51 406.4 323.9 398.9 324.26 391.92 324.24 388.78 325.71 385.97 327.37 383.41 329.42 380.38 329.69 376.56 331.68 373.49 332.7 371.99 333.66 369.47 331.73 368.25 329.72 367.69 327.58 369.19 327.09 371.15M57.56 602.94C68.21 617.79 81.1 631.04 95.55 642.21 101.29 647.26 107.55 651.73 113.85 656.06 122.09 662.27 130.79 667.83 139.28 673.68 156.22 685.1 173.18 696.5 190.25 707.74 183.13 683.47 180.58 657.96 182.17 632.74 182.32 630.85 182.46 628.97 182.6 627.09 177.12 626.42 171.59 626.34 166.09 626.69 146.34 628.96 127.01 623.26 108.09 618.42 91.09 613.81 74.03 609.25 57.56 602.94M582.52 674.15C582.3 679.76 582.56 685.38 582.99 690.98 583.24 692.71 583.14 694.96 584.96 695.91 588.85 698.55 593.19 700.44 597.31 702.68 614.24 711.57 630.2 722.16 645.98 732.93 651.22 736.44 656.34 740.19 662.06 742.94 669.08 738.16 674.69 731.65 680.99 726 702.95 705.25 726.54 685.72 753.59 671.95L753.59 671.83C760.55 668.48 767.61 665.3 774.95 662.84L774.98 662.67C776.98 662.08 778.99 661.49 781 660.9L781.07 660.75C796.92 655.78 813.62 655.57 830.07 655.71 860.76 656.05 889.38 641.74 913.76 624.23 906.97 625.96 900.11 627.51 893.15 628.43 877.21 630.73 860.82 628.6 845.67 623.29 832.26 618.66 819.45 611.36 805.01 610.54 799.93 610.41 794.86 610.92 789.87 611.83 775.14 615.02 761.21 621.01 747.27 626.57 735.66 630.86 724.3 635.81 712.85 640.5 707.19 630.65 702.76 620.12 697.6 609.99 662.28 636.29 623.91 658.84 582.52 674.15Z" stroke-width="4.16667"/><path d="M509.72 400.76C512.44 397.87 516.13 395.29 520.31 395.86 519.34 400.45 516.6 404.49 516.15 409.23 515.95 413.43 515.85 417.72 514.25 421.68 512 426.58 508.49 430.81 504.4 434.29 501.18 437.08 497.41 439.62 495.68 443.7 491.41 453.49 493.51 464.95 488.52 474.52 485.6 480.27 478.81 482.11 474.83 486.91 470.98 491.2 469.19 497.07 469.62 502.79 469.9 507.75 469.67 514.04 464.97 516.97 458.42 520.23 450.06 514.12 450.25 507.03 450.89 494.57 453.07 481.19 461.6 471.52 465.19 467.25 470.94 464.08 471.7 458.05 473.22 447.89 474.04 436.53 481.81 428.88 487.37 422.47 496.33 421.05 502.54 415.56 506.92 411.68 505.69 404.84 509.72 400.76M509.17 406.07C508.15 409.99 507.24 414.25 504.13 417.12 498.43 422.52 490.02 423.8 484.46 429.43 478.64 434.71 476.13 442.52 475.16 450.11 474.13 455.34 474.55 461.43 470.64 465.59 467.29 469.26 463.36 472.39 460.55 476.54 454.66 485.5 452.99 496.47 452.55 506.98 452.19 512.56 458.9 517.52 464.03 514.97 467.72 512.27 467.57 507.09 467.4 502.98 466.73 495.39 469.97 487.63 475.85 482.8 479.61 479.62 484.72 477.64 486.87 472.9 491.29 463.38 489.36 452.24 493.69 442.69 496.46 436.39 503.18 433.47 507.34 428.29 512.07 423.27 514.42 416.32 513.74 409.45 514.51 405.47 515.62 401.56 517.49 397.94 513.97 399.65 510.3 402.1 509.17 406.07Z" stroke-width="4.16667"/><path d="M376.72 465.71C379.96 464.91 383.15 463.35 386.53 463.42 390.39 466.91 393.49 471.16 396.91 475.07 419.97 503.09 440.2 533.64 455.28 566.7 469.61 598.58 479.26 633.9 474.8 669.08 472.09 688.88 464.45 707.75 454.35 724.9 438.8 751.16 417.93 773.93 395.02 793.93 382.83 804.36 370.09 814.34 355.97 822.05 350.99 824.59 345.25 827.65 339.58 825.39 326.03 820.65 313.63 813.14 301.66 805.31 277.08 788.77 254.66 767.84 240.6 741.45 237.1 734.94 234.1 728.18 231.52 721.26 230.22 717.68 228.97 714.08 227.89 710.43 218.57 679.18 217.49 645.59 224.17 613.7 227.66 597.15 233.38 581.06 241.32 566.12 253.58 543.06 270.84 522.66 291.64 506.86 317.07 487.9 346.54 475.03 376.72 465.71M335.94 483.49C319.29 491.25 303.09 500.29 288.81 511.93 279.23 519.74 270.23 528.4 262.65 538.19 257.63 544.09 253.01 550.43 249.21 557.2 248.16 558.43 247.42 559.89 246.57 561.28 237.02 577.55 230.34 595.44 226.39 613.87 219.56 646.33 220.84 680.56 230.73 712.25 232.14 716.62 233.72 720.93 235.43 725.2 239.67 736.01 245.4 746.2 252.02 755.74 263.59 772.02 278.45 785.71 294.46 797.53 306.9 806.58 320.08 814.73 334.16 820.96 338.73 822.87 343.98 825.34 348.84 822.88 361.99 817.28 373.44 808.45 384.64 799.7 409.99 779.1 432.99 755.15 450.33 727.34 451.72 725.16 453.11 722.96 454.03 720.54L454.35 720.39C463.34 704.02 470.54 686.26 472.56 667.59 473.83 660.47 473.75 653.18 473.59 645.98 472.76 626.22 468.36 606.66 461.48 588.17 452.79 563.24 439.96 539.91 425.63 517.82 413.79 499.39 400.29 482.07 385.87 465.61 368.69 469.88 352.06 476.21 335.94 483.49Z" stroke-width="4.16667"/><path d="M264.49 571.47C265.38 570.79 266.84 569.81 267.69 571.07 266.19 573.56 263.43 575.12 261.89 577.67 261.46 577.57 260.59 577.37 260.16 577.27 261.06 574.99 262.47 572.89 264.49 571.47Z" stroke-width="4.16667"/><path d="M385.33 576.53C384.3 574.45 379.81 574.17 381.7 571.27 384.47 572.52 387.15 574.31 388.49 577.16 388.65 580.1 385.97 577.75 385.33 576.53Z" stroke-width="4.16667"/><path d="M263.81 592.84C265.04 589.92 267.28 586.39 270.95 586.83 273.65 587.98 274.43 591.15 275.2 593.71 277.08 601.59 277.27 609.79 276.82 617.86 275.96 628.29 273.94 639.18 267.88 647.93 266.35 650.54 262.46 650.9 260.96 648.06 255.33 638.51 255.79 626.72 257.24 616.09 258.53 608.13 260.7 600.28 263.81 592.84M267.68 590.62C265.28 594 264.15 598.08 262.84 601.97 259.19 613.89 257.08 626.72 259.72 639.07 260.65 642.35 261.44 646.36 264.73 648.13 268.11 644.59 269.89 639.95 271.4 635.38 274.51 625.48 275.22 614.96 274.58 604.65 274.11 599.29 273.55 593.74 270.85 588.97 269.75 589.4 268.35 589.5 267.68 590.62Z" stroke-width="4.16667"/><path d="M369.38 595.46C374.36 593.54 377.82 598.93 378.97 603.04 383.26 617.13 382.27 632.57 377.62 646.45 375.97 650.55 374.29 655.51 369.96 657.47 365.84 658.44 363.54 653.86 362.26 650.72 357.5 637.41 357.62 622.57 361.35 609.02 362.98 604.09 364.59 598.23 369.38 595.46M371.26 597.33C367.93 597.93 366.65 601.65 365.34 604.34 359.94 618.18 359.4 633.94 363.7 648.14 364.82 650.8 365.72 654.77 369 655.37 372.58 653.81 373.84 649.58 375.32 646.27 379.86 633.08 380.92 618.44 377.24 604.92 376.19 601.97 375.01 597.56 371.26 597.33Z" stroke-width="4.16667"/><path d="M242.75 653.58C246.46 654.94 250.41 655.51 254.3 654.55 254.39 655.05 254.57 656.04 254.65 656.53 250.74 657.66 245.9 657.88 242.61 655.13L242.75 653.58Z" stroke-width="4.16667"/><path d="M287.54 694.96C306.61 695.96 325.87 695.51 344.67 691.88L345.4 693.02C336.08 702.48 324.51 710.68 311.06 712.55 304.77 713.37 297.55 712.87 292.66 708.37 289.33 704.81 287.42 699.82 287.54 694.96M289.96 697.31C290.59 701.91 292.83 706.81 297.26 708.84 302.94 711.43 309.47 710.92 315.36 709.43 324.34 706.87 332.91 702.1 339.29 695.24 322.95 697.5 306.43 698.17 289.96 697.31Z" stroke-width="4.16667"/></g><g id="#aed48dff"><path d="M838 206.73C841.44 204.44 845.02 202.2 849.08 201.15 852.53 204.53 854.84 208.83 857.34 212.91 863.68 223.73 869.52 234.84 875.28 245.98 862.56 253.62 849.56 260.82 836.24 267.36 832.02 263.69 827.16 260.79 823.17 256.85 819.25 253.05 815.65 248.92 812.45 244.5 809.69 240.68 808.51 236.06 806.7 231.77 816.62 222.82 826.95 214.27 838 206.73Z" stroke-width="4.16667" fill="#AED48D"/></g><g id="#99c87fff"><path d="M795.36 243.15C798.9 239.12 802.75 235.39 806.7 231.77 808.51 236.06 809.69 240.68 812.45 244.5 815.65 248.92 819.25 253.05 823.17 256.85 827.16 260.79 832.02 263.69 836.24 267.36 831.44 269.77 826.62 272.14 821.99 274.86 817.65 268.75 813.27 262.56 810.47 255.57 809.36 253.14 808.51 250.26 806.01 248.91 802.56 246.8 798.86 245.16 795.36 243.15Z" stroke-width="4.16667" fill="#99C87F"/></g><g id="#81ba6eff"><path d="M795.14 243.02 795.36 243.15C798.86 245.16 802.56 246.8 806.01 248.91 808.51 250.26 809.36 253.14 810.47 255.57 813.27 262.56 817.65 268.75 821.99 274.86 811.77 280.83 803.12 289.31 796.47 299.05 796.4 307.17 798.28 315.28 801.45 322.73 796.11 323.15 790.79 323.79 785.52 324.76 783.83 321.8 782.66 318.6 781.39 315.46 776.36 303.7 768.62 293.43 760.87 283.36 772.82 270.37 783.19 256.03 795.14 243.02Z" stroke-width="4.16667" fill="#81BA6E"/></g><g id="#73a368ff"><path d="M746.72 294.88C751.52 291.15 756.8 287.99 760.87 283.36 768.62 293.43 776.36 303.7 781.39 315.46 782.66 318.6 783.83 321.8 785.52 324.76 788.26 329.21 791.45 333.4 793.72 338.13 795.41 341.68 797.04 345.26 798.92 348.72 793.5 352.09 788.28 355.82 783.71 360.29 781.27 355.41 778.5 350.67 776.61 345.54 775.28 341.92 773.94 338.28 771.91 334.98 765.75 325.32 760.9 314.9 754.8 305.2 752.32 301.6 749.29 298.42 746.72 294.88Z" stroke-width="4.16667" fill="#73A368"/></g><g id="#699364ff"><path d="M742.48 300.92C744.02 299.01 745.48 297.02 746.72 294.88 749.29 298.42 752.32 301.6 754.8 305.2 760.9 314.9 765.75 325.32 771.91 334.98 773.94 338.28 775.28 341.92 776.61 345.54 778.5 350.67 781.27 355.41 783.71 360.29 779.51 364.71 776.05 369.79 773.21 375.18 774.22 377.09 775.81 378.8 776.2 380.99 773.59 385.42 769.2 388.47 764.78 390.91 763.58 376.73 756.52 364.18 751.4 351.17 752.24 349.29 753.96 347.33 753 345.16 751.12 339.23 748.32 333.64 745.76 327.99 750.01 325.24 755.31 323.39 757.25 318.21 756.08 313.47 754.7 308.43 751.05 304.96 748.75 302.64 745.48 301.89 742.48 300.92Z" stroke-width="4.16667" fill="#699364"/></g><g id="#86bc73ff"><path d="M785.52 324.76C790.79 323.79 796.11 323.15 801.45 322.73 804.36 328.94 809.18 333.96 812.31 340.03 808.42 343.73 803.37 345.82 798.92 348.72 797.04 345.26 795.41 341.68 793.72 338.13 791.45 333.4 788.26 329.21 785.52 324.76Z" stroke-width="4.16667" fill="#86BC73"/></g><g id="#648a62ff"><path d="M737.66 335.54C740.99 333.79 743.24 330.69 745.76 327.99 748.32 333.64 751.12 339.23 753 345.16 753.96 347.33 752.24 349.29 751.4 351.17 756.52 364.18 763.58 376.73 764.78 390.91L764.8 391.02C759.68 393.91 752.94 391.39 748.5 395.59 746.6 397.31 744.66 399.09 743.37 401.33 742.93 403.43 744.45 405.24 745.07 407.15 746.36 409.66 744.58 412.63 745.94 415.14 746.56 416.97 747.98 418.96 746.87 420.9 745.71 423.06 743.31 424.05 741.27 425.17 735.34 427.98 729.72 431.4 723.74 434.09 717.75 421.77 710.81 409.9 702.62 398.91 704.89 395.34 707.62 391.81 707.4 387.33 709.36 384.5 709.07 380.87 710.81 377.93 711.91 375.98 711.7 372.95 714.12 372.06 720.02 369.64 726.43 368.71 732.26 366.09 733.68 365.41 735.37 364.44 735.43 362.65 736.44 354.77 735.83 346.81 734.79 338.98 734.32 337.04 736.41 336.37 737.66 335.54Z" stroke-width="4.16667" fill="#648A62"/></g><g id="#805f4fff"><path d="M525.03 344.24C549.26 341.35 573.86 342.46 597.89 346.51 617.01 349.9 636.13 354.29 654 362.06 660.12 364.87 666.27 367.84 671.68 371.89 677.94 381.99 684.59 392.56 685.72 404.68 686.7 410.28 688.91 415.78 687.85 421.57 685.69 421.85 683.53 422.13 681.39 422.44 680.35 424.9 679.56 427.67 677.32 429.34 672.12 433.54 669.65 440.27 663.96 443.98 662.45 445.3 660.39 444.79 658.65 444.39 647 441 635.26 437.88 623.61 434.47 614.59 431.73 605.22 430.63 595.97 429.03 574.09 425.53 552.08 422.88 529.99 421.06 524.73 420.71 519.48 421.32 514.25 421.68 515.85 417.72 515.95 413.43 516.15 409.23 517.03 409.87 517.99 410.36 519.02 410.69 532.88 412.28 547.09 411.58 560.63 415.38 566.71 417.14 572.89 414.81 579.04 415.14 591.39 416.31 603.79 416.73 616.17 417.66 624.77 418.73 633.47 417.87 642.09 418.79 647.99 419.24 653.92 419.22 659.83 419.72 661.83 415.99 661.79 411.71 662.87 407.73 664.05 406.15 665.68 404.98 667.16 403.7 663.56 393.65 656.98 384.97 649.25 377.73 646.81 375.81 645.28 373.1 645.02 370 638.94 370.36 633.01 371.79 627.07 372.97 603.7 377.79 580.2 381.89 556.82 386.62 543.19 389.14 529.62 392 515.96 394.39 517.4 394.89 518.85 395.39 520.31 395.86 516.13 395.29 512.44 397.87 509.72 400.76 505.69 404.84 506.92 411.68 502.54 415.56 496.33 421.05 487.37 422.47 481.81 428.88 474.04 436.53 473.22 447.89 471.7 458.05 470.94 464.08 465.19 467.25 461.6 471.52 453.07 481.19 450.89 494.57 450.25 507.03 450.06 514.12 458.42 520.23 464.97 516.97 469.67 514.04 469.9 507.75 469.62 502.79 487.72 505.47 505.79 508.46 523.95 510.82 527.03 511.12 530.09 511.68 533.09 512.48 525.09 514.21 516.95 515.25 508.98 517.11 506.84 517.45 505.43 519.17 503.97 520.58 514.14 523.08 523.95 527.12 534.36 528.57 557.22 530.08 580.06 531.97 602.93 533.27 606.59 533.66 610.91 533.44 613.56 536.47 616.28 539.17 619.5 541.26 622.79 543.19 627.59 546.05 631.4 550.21 635.08 554.34 632.68 554.26 630.28 554.21 627.88 554.19 632.44 559.9 640.42 559.27 646.22 562.96 644.73 568.82 641.01 573.78 639.53 579.65 637.84 586.91 634.27 593.52 631.38 600.34 629.9 604.31 624.96 603.82 622.01 606 619.62 608.2 618.08 611.12 616.39 613.84 616.61 614.3 617.06 615.2 617.28 615.65 619.5 615.9 621.71 616.15 623.94 616.4 616.85 622.85 609.44 628.93 602.34 635.36 599.7 637.7 597.36 640.38 594.51 642.47 592.38 644.12 589.53 643.82 587.02 644.07 581.21 644.19 575.62 645.97 569.87 646.62 566.34 647.16 562.5 647.3 559.52 649.5 556.62 651.61 553.71 653.71 550.85 655.87 547.84 658.11 545.82 661.49 542.56 663.4 538.28 665.15 533.53 664.69 529.01 664.89 519.34 664.69 509.74 666.11 500.08 666.24 491.7 667.61 483.23 668.12 474.8 669.08 479.26 633.9 469.61 598.58 455.28 566.7 440.2 533.64 419.97 503.09 396.91 475.07 393.49 471.16 390.39 466.91 386.53 463.42 383.15 463.35 379.96 464.91 376.72 465.71 346.54 475.03 317.07 487.9 291.64 506.86 281.52 505.19 271.25 504.97 261.04 504.14 252.62 503.81 244.25 502.59 235.81 502.94 250.97 485.12 268.55 469.47 287.22 455.42 287.7 459.71 288.26 464.34 291.17 467.77 294.6 471.9 301.63 472.29 305.43 468.44 307.92 466 308.37 462.31 308.28 459 308.13 454.32 307.79 449.66 307.75 444.99 321.15 437.45 334.76 430.27 348.56 423.5 368.21 413.96 388.39 405.36 407 393.84 425.56 382.29 443.66 369.61 464.06 361.45 460.71 366 456.26 369.64 453.34 374.52 450.7 378.72 447.26 382.32 444.27 386.24 441.03 390.35 440.08 395.74 436.72 399.77 433.68 403.39 431.92 408.17 427.81 410.8 422.25 414.43 417.33 418.93 412.66 423.63 410.28 426.09 408.1 428.87 407.01 432.16 407.25 432.39 407.71 432.83 407.95 433.05 417.62 429.23 426.83 424.25 435.33 418.24 443.77 412.91 451.7 406.79 458.99 399.97 463.87 395.28 471.01 395.97 477.04 394.11 484.02 391.81 490.93 389.29 497.83 386.75 502.23 385.11 506.92 384.23 511.11 382.06 514.77 380.01 515.77 375.5 518.79 372.82 520.96 371.48 523.48 370.86 525.7 369.61 534.28 364.05 533.99 349.31 525.03 344.24Z" stroke-width="4.16667" fill="#805F4F"/></g><g id="#8e6d5fff"><path d="M464.06 361.45C483.33 352.66 504.03 346.98 525.03 344.24 533.99 349.31 534.28 364.05 525.7 369.61 523.48 370.86 520.96 371.48 518.79 372.82 515.77 375.5 514.77 380.01 511.11 382.06 506.92 384.23 502.23 385.11 497.83 386.75 490.93 389.29 484.02 391.81 477.04 394.11 471.01 395.97 463.87 395.28 458.99 399.97 451.7 406.79 443.77 412.91 435.33 418.24 426.83 424.25 417.62 429.23 407.95 433.05 407.71 432.83 407.25 432.39 407.01 432.16 408.1 428.87 410.28 426.09 412.66 423.63 417.33 418.93 422.25 414.43 427.81 410.8 431.92 408.17 433.68 403.39 436.72 399.77 440.08 395.74 441.03 390.35 444.27 386.24 447.26 382.32 450.7 378.72 453.34 374.52 456.26 369.64 460.71 366 464.06 361.45Z" stroke-width="4.16667" fill="#8E6D5F"/></g><g id="#81b96eff"><path d="M327.09 371.15C327.58 369.19 329.72 367.69 331.73 368.25 333.66 369.47 332.7 371.99 331.68 373.49 329.69 376.56 329.42 380.38 327.37 383.41 325.71 385.97 324.24 388.78 324.26 391.92 323.9 398.9 323.51 406.4 319.35 412.32 315.46 418.01 308.36 421.65 306.88 428.83 304.92 438.77 305.63 448.96 306.04 459 306.11 461.92 305.88 465.36 303.37 467.31 301.55 468.96 298.99 468.85 296.7 468.99L296.73 468.72C297.17 464.14 296.15 459.58 296.53 455 296.89 448.6 295.49 442.33 294.89 436 294.24 429.59 296.7 423.36 300.01 418.01 302.97 413.65 308.3 411.73 311.4 407.49 313.99 404 317.39 400.91 318.73 396.65 319.77 393.6 319.38 390.29 320.24 387.2 322.06 384.68 324.63 382.5 324.83 379.17 325.82 376.56 326.48 373.86 327.09 371.15Z" stroke-width="4.16667" fill="#81B96E"/><path d="M57.56 602.94C74.03 609.25 91.09 613.81 108.09 618.42 127.01 623.26 146.34 628.96 166.09 626.69 162.44 634.01 159.39 641.6 156.33 649.18 155.43 650.98 154.62 653.79 152.07 653.55 139.11 653.56 125.77 653.18 113.47 648.64 107.44 646.64 101.54 644.29 95.55 642.21 81.1 631.04 68.21 617.79 57.56 602.94Z" stroke-width="4.16667" fill="#81B96E"/></g><g id="#8a6756ff"><path d="M627.07 372.97C633.01 371.79 638.94 370.36 645.02 370 645.28 373.1 646.81 375.81 649.25 377.73 656.98 384.97 663.56 393.65 667.16 403.7 665.68 404.98 664.05 406.15 662.87 407.73 661.79 411.71 661.83 415.99 659.83 419.72 653.92 419.22 647.99 419.24 642.09 418.79 633.47 417.87 624.77 418.73 616.17 417.66 603.79 416.73 591.39 416.31 579.04 415.14 572.89 414.81 566.71 417.14 560.63 415.38 547.09 411.58 532.88 412.28 519.02 410.69 517.99 410.36 517.03 409.87 516.15 409.23 516.6 404.49 519.34 400.45 520.31 395.86 518.85 395.39 517.4 394.89 515.96 394.39 529.62 392 543.19 389.14 556.82 386.62 580.2 381.89 603.7 377.79 627.07 372.97Z" stroke-width="4.16667" fill="#8A6756"/></g><g id="#7e5c4dff"><path d="M671.68 371.89C676.01 374.72 680.24 377.87 683.81 381.63 684.02 388.1 686.86 393.88 688.9 399.88 689.76 407.58 691.84 415.19 691.55 423 691.43 428.69 692.65 434.31 692.56 440.01 692.68 446.05 691.61 452.03 691.54 458.06 691.62 463.65 688.77 468.66 687.83 474.07 686.95 478.86 685.55 483.53 684.07 488.16 679.47 503.77 676.03 519.69 672.43 535.56 671.31 543.52 667.58 550.71 665.13 558.28 663.2 563.78 662.39 569.65 659.83 574.93 654.71 585.61 649.5 596.27 643.11 606.26 641.19 609.75 640.35 613.77 638.06 617.07 633.77 623.09 630.07 629.6 624.67 634.74 620.2 638.97 616.27 644.3 610.14 646.17 601.17 649.16 593.8 655.28 585.29 659.22 580.48 661.51 577.05 665.73 572.74 668.75 569.38 671.2 565.63 673.04 561.83 674.69 550.81 679.6 540.98 686.66 530.26 692.12 518.72 698.44 506.21 702.7 494.32 708.3 482.74 713.16 470.54 716.88 459.7 723.32 457.92 723.86 456.13 724.37 454.35 724.9 464.45 707.75 472.09 688.88 474.8 669.08 483.23 668.12 491.7 667.61 500.08 666.24 509.74 666.11 519.34 664.69 529.01 664.89 533.53 664.69 538.28 665.15 542.56 663.4 545.82 661.49 547.84 658.11 550.85 655.87 553.71 653.71 556.62 651.61 559.52 649.5 562.5 647.3 566.34 647.16 569.87 646.62 575.62 645.97 581.21 644.19 587.02 644.07 589.53 643.82 592.38 644.12 594.51 642.47 597.36 640.38 599.7 637.7 602.34 635.36 609.44 628.93 616.85 622.85 623.94 616.4 621.71 616.15 619.5 615.9 617.28 615.65 617.06 615.2 616.61 614.3 616.39 613.84 618.08 611.12 619.62 608.2 622.01 606 624.96 603.82 629.9 604.31 631.38 600.34 634.27 593.52 637.84 586.91 639.53 579.65 641.01 573.78 644.73 568.82 646.22 562.96 640.42 559.27 632.44 559.9 627.88 554.19 630.28 554.21 632.68 554.26 635.08 554.34 631.4 550.21 627.59 546.05 622.79 543.19 619.5 541.26 616.28 539.17 613.56 536.47 610.91 533.44 606.59 533.66 602.93 533.27 580.06 531.97 557.22 530.08 534.36 528.57 523.95 527.12 514.14 523.08 503.97 520.58 505.43 519.17 506.84 517.45 508.98 517.11 516.95 515.25 525.09 514.21 533.09 512.48 530.09 511.68 527.03 511.12 523.95 510.82 505.79 508.46 487.72 505.47 469.62 502.79 469.19 497.07 470.98 491.2 474.83 486.91 478.81 482.11 485.6 480.27 488.52 474.52 493.51 464.95 491.41 453.49 495.68 443.7 497.41 439.62 501.18 437.08 504.4 434.29 508.49 430.81 512 426.58 514.25 421.68 519.48 421.32 524.73 420.71 529.99 421.06 552.08 422.88 574.09 425.53 595.97 429.03 605.22 430.63 614.59 431.73 623.61 434.47 635.26 437.88 647 441 658.65 444.39 660.39 444.79 662.45 445.3 663.96 443.98 669.65 440.27 672.12 433.54 677.32 429.34 679.56 427.67 680.35 424.9 681.39 422.44 683.53 422.13 685.69 421.85 687.85 421.57 688.91 415.78 686.7 410.28 685.72 404.68 684.59 392.56 677.94 381.99 671.68 371.89Z" stroke-width="4.16667" fill="#7E5C4D"/><path d="M187.08 609.42 187.22 609.5C188.41 610.08 189.58 610.86 190.96 610.93 202.04 611.74 213.12 612.55 224.17 613.7 217.49 645.59 218.57 679.18 227.89 710.43 215.22 708.93 203.94 700.86 190.89 701.64 182.88 671.65 182.12 639.99 187.08 609.42Z" stroke-width="4.16667" fill="#7E5C4D"/></g><g id="#b7d7abff"><path d="M316.07 382.93C318.19 380.31 321.83 380.11 324.83 379.17 324.63 382.5 322.06 384.68 320.24 387.2 319.38 390.29 319.77 393.6 318.73 396.65 317.39 400.91 313.99 404 311.4 407.49 308.3 411.73 302.97 413.65 300.01 418.01 296.7 423.36 294.24 429.59 294.89 436 295.49 442.33 296.89 448.6 296.53 455 296.15 459.58 297.17 464.14 296.73 468.72 292.07 467.47 290.31 462.44 289.8 458.16 288.74 445.51 288.32 432.6 291.2 420.14 292.26 415.59 294.56 410.96 298.9 408.76 304.06 406.03 309.85 403.21 312.33 397.55 314.81 392.98 312.53 387.03 316.07 382.93Z" stroke-width="4.16667" fill="#B7D7AB"/></g><g id="#694f45ff"><path d="M683.81 381.63C687.63 384.61 690.91 388.25 694.03 391.95 695.23 397.9 695.33 403.99 696 410.01 696.47 414.16 696.66 418.44 695.39 422.48 692.31 432.13 696.45 442.18 694.88 452.01 691.64 468.37 693.22 485.29 689.67 501.62 687.36 511.56 686.43 521.9 682.56 531.42 678.68 541.68 675.63 552.23 671.55 562.41 670.22 566.41 669.52 570.65 667.48 574.39 663.8 581.38 660.53 588.6 656.2 595.22 652.95 600.47 649.15 605.37 646.17 610.78 646.59 611.12 647.43 611.79 647.85 612.13 643.85 618.22 638.69 623.44 634.54 629.43 629.09 637.19 623.17 644.71 615.85 650.81 610.41 656.37 603.35 659.91 597.88 665.42 592.56 668.18 586.76 669.91 581.31 672.4 579.47 673.07 580.49 675.44 580.16 676.91 567.62 683.96 555.38 691.61 542.07 697.16 523.87 704.81 506.16 713.94 486.97 718.94 477.96 720.85 469.03 723.82 459.7 723.32 470.54 716.88 482.74 713.16 494.32 708.3 506.21 702.7 518.72 698.44 530.26 692.12 540.98 686.66 550.81 679.6 561.83 674.69 565.63 673.04 569.38 671.2 572.74 668.75 577.05 665.73 580.48 661.51 585.29 659.22 593.8 655.28 601.17 649.16 610.14 646.17 616.27 644.3 620.2 638.97 624.67 634.74 630.07 629.6 633.77 623.09 638.06 617.07 640.35 613.77 641.19 609.75 643.11 606.26 649.5 596.27 654.71 585.61 659.83 574.93 662.39 569.65 663.2 563.78 665.13 558.28 667.58 550.71 671.31 543.52 672.43 535.56 676.03 519.69 679.47 503.77 684.07 488.16 685.55 483.53 686.95 478.86 687.83 474.07 688.77 468.66 691.62 463.65 691.54 458.06 691.61 452.03 692.68 446.05 692.56 440.01 692.65 434.31 691.43 428.69 691.55 423 691.84 415.19 689.76 407.58 688.9 399.88 686.86 393.88 684.02 388.1 683.81 381.63Z" stroke-width="4.16667" fill="#694F45"/></g><g id="#58433fff"><path d="M694.03 391.95C703.56 402.53 711.13 414.74 717.8 427.29 735.77 461.51 744.72 500.59 742.3 539.24 740.38 572.21 730.98 604.28 718.62 634.76 717.88 636.8 715.28 636.86 713.65 637.85 708.54 627.64 703.72 617.28 698.53 607.11 694.9 608.69 692.06 611.57 688.78 613.73 660.36 633.97 630.34 652.41 597.88 665.42 603.35 659.91 610.41 656.37 615.85 650.81 623.17 644.71 629.09 637.19 634.54 629.43 638.69 623.44 643.85 618.22 647.85 612.13 647.43 611.79 646.59 611.12 646.17 610.78 649.15 605.37 652.95 600.47 656.2 595.22 660.53 588.6 663.8 581.38 667.48 574.39 669.52 570.65 670.22 566.41 671.55 562.41 675.63 552.23 678.68 541.68 682.56 531.42 686.43 521.9 687.36 511.56 689.67 501.62 693.22 485.29 691.64 468.37 694.88 452.01 696.45 442.18 692.31 432.13 695.39 422.48 696.66 418.44 696.47 414.16 696 410.01 695.33 403.99 695.23 397.9 694.03 391.95Z" stroke-width="4.16667" fill="#58433F"/></g><g id="#b8d8adff"><path d="M509.17 406.07C510.3 402.1 513.97 399.65 517.49 397.94 515.62 401.56 514.51 405.47 513.74 409.45 511.72 413.39 510.1 417.77 506.65 420.72 500.68 425.96 493.55 430.07 488.72 436.49 483.8 444.36 482.65 453.83 479.68 462.48 478.19 466.67 474.62 469.55 471.56 472.58 467.84 475.99 464.54 479.86 460.55 482.97 460.54 480.82 460.54 478.68 460.55 476.54 463.36 472.39 467.29 469.26 470.64 465.59 474.55 461.43 474.13 455.34 475.16 450.11 476.13 442.52 478.64 434.71 484.46 429.43 490.02 423.8 498.43 422.52 504.13 417.12 507.24 414.25 508.15 409.99 509.17 406.07Z" stroke-width="4.16667" fill="#B8D8AD"/></g><g id="#82ba6fff"><path d="M506.65 420.72C510.1 417.77 511.72 413.39 513.74 409.45 514.42 416.32 512.07 423.27 507.34 428.29 503.18 433.47 496.46 436.39 493.69 442.69 489.36 452.24 491.29 463.38 486.87 472.9 484.72 477.64 479.61 479.62 475.85 482.8 469.97 487.63 466.73 495.39 467.4 502.98 467.57 507.09 467.72 512.27 464.03 514.97 458.9 517.52 452.19 512.56 452.55 506.98 452.99 496.47 454.66 485.5 460.55 476.54 460.54 478.68 460.54 480.82 460.55 482.97 464.54 479.86 467.84 475.99 471.56 472.58 474.62 469.55 478.19 466.67 479.68 462.48 482.65 453.83 483.8 444.36 488.72 436.49 493.55 430.07 500.68 425.96 506.65 420.72Z" stroke-width="4.16667" fill="#82BA6F"/></g><g id="#5d825bff"><path d="M335.94 483.49C352.06 476.21 368.69 469.88 385.87 465.61 400.29 482.07 413.79 499.39 425.63 517.82 423.05 517.04 420.51 516.11 418.13 514.84 412.61 511.78 406.06 510.92 400.98 507.02 396.31 504.2 392.99 499.74 388.61 496.61 383.83 496.12 379.01 497.05 374.3 497.86 370.94 497.39 367.7 496.36 364.36 495.8 361.09 495.26 357.65 495.84 354.5 494.62 347.46 492.37 342.91 485.95 335.94 483.49Z" stroke-width="4.16667" fill="#5D825B"/></g><g id="#6b9168ff"><path d="M288.81 511.93C303.09 500.29 319.29 491.25 335.94 483.49 342.91 485.95 347.46 492.37 354.5 494.62 357.65 495.84 361.09 495.26 364.36 495.8 367.7 496.36 370.94 497.39 374.3 497.86 373.82 498.21 372.87 498.89 372.39 499.23 364.15 501.81 355.81 504.13 347.47 506.39 335.88 506.25 324.5 508.66 313.07 510.14 304.97 510.73 296.95 513.95 288.81 511.93Z" stroke-width="4.16667" fill="#6B9168"/></g><g id="#699263ff"><path d="M374.3 497.86C379.01 497.05 383.83 496.12 388.61 496.61 392.99 499.74 396.31 504.2 400.98 507.02 406.06 510.92 412.61 511.78 418.13 514.84 420.51 516.11 423.05 517.04 425.63 517.82 439.96 539.91 452.79 563.24 461.48 588.17 456.51 583.2 452.05 577.74 448.12 571.92 446.39 569.24 444.19 566.92 441.9 564.72 437.44 558.93 434.36 552.11 429.09 546.97 426.08 543.91 422.8 541.16 419.56 538.37 415.12 534.65 412.13 529.46 407.17 526.33 402.38 520.56 396.15 516.31 390.62 511.32 385.03 506.63 379.63 501.21 372.39 499.23 372.87 498.89 373.82 498.21 374.3 497.86Z" stroke-width="4.16667" fill="#699263"/></g><g id="#8cc07aff"><path d="M347.47 506.39C355.81 504.13 364.15 501.81 372.39 499.23 379.63 501.21 385.03 506.63 390.62 511.32 396.15 516.31 402.38 520.56 407.17 526.33 408.81 528.96 410.69 531.43 412.79 533.71 394.99 537.38 376.94 539.8 359.05 543.03 357.92 543.36 356.45 543.45 355.85 544.64 354.08 547.56 352.25 550.45 350.21 553.2 348.77 554.91 349.3 557.32 348.27 559.2 344.96 564.49 338.82 567.84 337.02 574.08 335.7 578.36 334.35 582.64 332.75 586.83 330.72 591.68 332.32 596.95 331.83 602 331.02 611.01 328.65 619.82 325.1 628.13 322.02 638.33 317.31 647.92 312.18 657.23 309.7 661.5 306.54 665.33 304.12 669.64 306.12 669.95 308.11 670.26 310.11 670.61 307.96 672.65 305.2 673.69 302.38 674.44 297.33 675.73 294.48 680.51 290.48 683.48 283.17 690.29 273.22 693.99 267.34 702.36 262.78 707.61 260.58 714.24 258.02 720.57 248.85 718.04 239.77 715.21 230.73 712.25 220.84 680.56 219.56 646.33 226.39 613.87 236.72 613.94 246.89 616.37 257.24 616.09 255.79 626.72 255.33 638.51 260.96 648.06 262.46 650.9 266.35 650.54 267.88 647.93 273.94 639.18 275.96 628.29 276.82 617.86 284.4 619.13 292.1 619.01 299.76 619.34 299.53 616.67 298.76 613.76 300.17 611.28 304.86 601.97 314.78 596.99 320.18 588.22 322.98 584.08 325.3 579.62 326.94 574.9 328.39 570.61 330.85 566.78 332.63 562.64 334.41 558.44 333.15 553.14 336.64 549.69 338.95 546.7 342.93 546.05 345.77 543.81 349.93 536.4 353.62 528.12 352.61 519.41 352.06 518.11 350.29 518 349.2 517.32 343.13 515.81 336.92 514.94 330.8 513.64 334.32 512.21 337.74 510.54 341.19 508.96 343.3 508.13 345.37 507.21 347.47 506.39M242.75 653.58 242.61 655.13C245.9 657.88 250.74 657.66 254.65 656.53 254.57 656.04 254.39 655.05 254.3 654.55 250.41 655.51 246.46 654.94 242.75 653.58Z" stroke-width="4.16667" fill="#8CC07A"/></g><g id="#866353ff"><path d="M195.23 576.97C203.78 549.99 217.53 524.58 235.81 502.94 244.25 502.59 252.62 503.81 261.04 504.14 271.25 504.97 281.52 505.19 291.64 506.86 270.84 522.66 253.58 543.06 241.32 566.12 231.34 567.07 221.53 569.37 211.79 571.66 217.24 572.03 222.65 570.58 228.1 571.34 217.19 573.45 206.26 575.6 195.23 576.97Z" stroke-width="4.16667" fill="#866353"/></g><g id="#759a72ff"><path d="M313.07 510.14C324.5 508.66 335.88 506.25 347.47 506.39 345.37 507.21 343.3 508.13 341.19 508.96 338.1 509.48 334.99 509.94 332 510.92 322.13 514.15 311.92 516.37 302.32 520.42 288.75 525.56 276.65 534.13 262.65 538.19 270.23 528.4 279.23 519.74 288.81 511.93 296.95 513.95 304.97 510.73 313.07 510.14Z" stroke-width="4.16667" fill="#759A72"/></g><g id="#80a978ff"><path d="M332 510.92C334.99 509.94 338.1 509.48 341.19 508.96 337.74 510.54 334.32 512.21 330.8 513.64 322.16 517.1 313.61 520.84 305.54 525.5 297.38 530.26 288.44 533.48 280.36 538.38 272.68 543.01 264.85 547.41 257.57 552.66 255.01 554.56 252.11 555.91 249.21 557.2 253.01 550.43 257.63 544.09 262.65 538.19 276.65 534.13 288.75 525.56 302.32 520.42 311.92 516.37 322.13 514.15 332 510.92Z" stroke-width="4.16667" fill="#80A978"/></g><g id="#95c484ff"><path d="M305.54 525.5C313.61 520.84 322.16 517.1 330.8 513.64 336.92 514.94 343.13 515.81 349.2 517.32 347.65 522.27 345.34 526.93 343.83 531.89 342.39 536.44 340.41 540.86 337.71 544.8 336.72 546.26 334.95 546.78 333.45 547.5 328.36 549.54 323.29 551.81 317.84 552.68 297.6 556.29 277.41 560.36 257 562.9 253.42 563.52 249.9 562.51 246.57 561.28 247.42 559.89 248.16 558.43 249.21 557.2 252.11 555.91 255.01 554.56 257.57 552.66 264.85 547.41 272.68 543.01 280.36 538.38 288.44 533.48 297.38 530.26 305.54 525.5Z" stroke-width="4.16667" fill="#95C484"/></g><g id="#90c27eff"><path d="M343.83 531.89C345.34 526.93 347.65 522.27 349.2 517.32 350.29 518 352.06 518.11 352.61 519.41 353.62 528.12 349.93 536.4 345.77 543.81 342.93 546.05 338.95 546.7 336.64 549.69 333.15 553.14 334.41 558.44 332.63 562.64 330.85 566.78 328.39 570.61 326.94 574.9 325.3 579.62 322.98 584.08 320.18 588.22 314.78 596.99 304.86 601.97 300.17 611.28 298.76 613.76 299.53 616.67 299.76 619.34 292.1 619.01 284.4 619.13 276.82 617.86 277.27 609.79 277.08 601.59 275.2 593.71 274.43 591.15 273.65 587.98 270.95 586.83 267.28 586.39 265.04 589.92 263.81 592.84 260.7 600.28 258.53 608.13 257.24 616.09 246.89 616.37 236.72 613.94 226.39 613.87 230.34 595.44 237.02 577.55 246.57 561.28 249.9 562.51 253.42 563.52 257 562.9 277.41 560.36 297.6 556.29 317.84 552.68 323.29 551.81 328.36 549.54 333.45 547.5 334.95 546.78 336.72 546.26 337.71 544.8 340.41 540.86 342.39 536.44 343.83 531.89M264.49 571.47C262.47 572.89 261.06 574.99 260.16 577.27 260.59 577.37 261.46 577.57 261.89 577.67 263.43 575.12 266.19 573.56 267.69 571.07 266.84 569.81 265.38 570.79 264.49 571.47Z" stroke-width="4.16667" fill="#90C27E"/></g><g id="#82ba70ff"><path d="M407.17 526.33C412.13 529.46 415.12 534.65 419.56 538.37 422.8 541.16 426.08 543.91 429.09 546.97 434.36 552.11 437.44 558.93 441.9 564.72 444.97 573.1 450.74 580.23 453.17 588.9 457.42 603.41 462.86 617.55 466.72 632.18 469.65 643.82 469.67 655.97 472.56 667.59 470.54 686.26 463.34 704.02 454.35 720.39L454.03 720.54C450.73 721.81 447.93 724 445.51 726.53 441.8 730.52 436.2 731.34 431.32 733.11 424.53 735.24 418.12 738.36 411.49 740.9 399.01 739.83 386.49 740.86 374 741.14 359.32 741.09 344.48 741.95 329.99 739.02 319.44 737.12 309.3 733.53 298.84 731.21 285.18 727.87 271.49 724.62 258.02 720.57 260.58 714.24 262.78 707.61 267.34 702.36 273.22 693.99 283.17 690.29 290.48 683.48 294.48 680.51 297.33 675.73 302.38 674.44 305.2 673.69 307.96 672.65 310.11 670.61 308.11 670.26 306.12 669.95 304.12 669.64 306.54 665.33 309.7 661.5 312.18 657.23 317.31 647.92 322.02 638.33 325.1 628.13 328.65 619.82 331.02 611.01 331.83 602 332.32 596.95 330.72 591.68 332.75 586.83 334.35 582.64 335.7 578.36 337.02 574.08 338.82 567.84 344.96 564.49 348.27 559.2 349.3 557.32 348.77 554.91 350.21 553.2 352.25 550.45 354.08 547.56 355.85 544.64 356.45 543.45 357.92 543.36 359.05 543.03 376.94 539.8 394.99 537.38 412.79 533.71 410.69 531.43 408.81 528.96 407.17 526.33M385.33 576.53C385.97 577.75 388.65 580.1 388.49 577.16 387.15 574.31 384.47 572.52 381.7 571.27 379.81 574.17 384.3 574.45 385.33 576.53M369.38 595.46C364.59 598.23 362.98 604.09 361.35 609.02 357.62 622.57 357.5 637.41 362.26 650.72 363.54 653.86 365.84 658.44 369.96 657.47 374.29 655.51 375.97 650.55 377.62 646.45 382.27 632.57 383.26 617.13 378.97 603.04 377.82 598.93 374.36 593.54 369.38 595.46M388.3 663.39C384.31 664.94 380.04 665.04 375.82 665.12 375.82 665.59 375.82 666.53 375.83 667 380.31 667.77 385 667.18 389.2 665.43 391.68 664.99 390.32 661.82 388.3 663.39M287.54 694.96C287.42 699.82 289.33 704.81 292.66 708.37 297.55 712.87 304.77 713.37 311.06 712.55 324.51 710.68 336.08 702.48 345.4 693.02L344.67 691.88C325.87 695.51 306.61 695.96 287.54 694.96Z" stroke-width="4.16667" fill="#82BA70"/></g><g id="#76a86aff"><path d="M441.9 564.72C444.19 566.92 446.39 569.24 448.12 571.92 452.05 577.74 456.51 583.2 461.48 588.17 468.36 606.66 472.76 626.22 473.59 645.98 473.75 653.18 473.83 660.47 472.56 667.59 469.67 655.97 469.65 643.82 466.72 632.18 462.86 617.55 457.42 603.41 453.17 588.9 450.74 580.23 444.97 573.1 441.9 564.72Z" stroke-width="4.16667" fill="#76A86A"/><path d="M230.73 712.25C239.77 715.21 248.85 718.04 258.02 720.57 271.49 724.62 285.18 727.87 298.84 731.21 309.3 733.53 319.44 737.12 329.99 739.02 344.48 741.95 359.32 741.09 374 741.14 386.49 740.86 399.01 739.83 411.49 740.9 408.83 742.23 406.12 743.84 403.03 743.67 395.34 743.68 387.71 744.95 380.01 744.72 371.7 744.45 363.42 745.3 355.11 745.42 345.71 745.85 336.42 747.81 326.98 747.68 319.74 747.6 312.25 748.02 305.32 745.54 290.6 739.43 274.82 736.57 259.83 731.23 251.67 729.33 243.75 726.38 235.43 725.2 233.72 720.93 232.14 716.62 230.73 712.25Z" stroke-width="4.16667" fill="#76A86A"/></g><g id="#815f4fff"><path d="M211.79 571.66C221.53 569.37 231.34 567.07 241.32 566.12 233.38 581.06 227.66 597.15 224.17 613.7 213.12 612.55 202.04 611.74 190.96 610.93 189.58 610.86 188.41 610.08 187.22 609.5 188.96 598.47 191.79 587.64 195.09 576.99L195.23 576.97C206.26 575.6 217.19 573.45 228.1 571.34 222.65 570.58 217.24 572.03 211.79 571.66Z" stroke-width="4.16667" fill="#815F4F"/></g><g id="#1c1c1cff"><path d="M267.68 590.62C268.35 589.5 269.75 589.4 270.85 588.97 273.55 593.74 274.11 599.29 274.58 604.65 275.22 614.96 274.51 625.48 271.4 635.38 269.89 639.95 268.11 644.59 264.73 648.13 261.44 646.36 260.65 642.35 259.72 639.07 257.08 626.72 259.19 613.89 262.84 601.97 264.15 598.08 265.28 594 267.68 590.62Z" stroke-width="4.16667" fill="#1C1C1C"/><path d="M371.26 597.33C375.01 597.56 376.19 601.97 377.24 604.92 380.92 618.44 379.86 633.08 375.32 646.27 373.84 649.58 372.58 653.81 369 655.37 365.72 654.77 364.82 650.8 363.7 648.14 359.4 633.94 359.94 618.18 365.34 604.34 366.65 601.65 367.93 597.93 371.26 597.33Z" stroke-width="4.16667" fill="#1C1C1C"/><path d="M289.96 697.31C306.43 698.17 322.95 697.5 339.29 695.24 332.91 702.1 324.34 706.87 315.36 709.43 309.47 710.92 302.94 711.43 297.26 708.84 292.83 706.81 290.59 701.91 289.96 697.31Z" stroke-width="4.16667" fill="#1C1C1C"/></g><g id="#597d59ff"><path d="M582.52 674.15C623.91 658.84 662.28 636.29 697.6 609.99 702.76 620.12 707.19 630.65 712.85 640.5 724.3 635.81 735.66 630.86 747.27 626.57 745.59 630.35 743.98 634.15 742.19 637.87 745.09 637.59 748 637.35 750.93 637.17 750.21 643.96 747.6 650.29 745.46 656.71 748.23 657.31 751.01 657.89 753.79 658.47 754.09 662.92 753.79 667.38 753.59 671.83L753.59 671.95C726.54 685.72 702.95 705.25 680.99 726 674.69 731.65 669.08 738.16 662.06 742.94 656.34 740.19 651.22 736.44 645.98 732.93 630.2 722.16 614.24 711.57 597.31 702.68 593.19 700.44 588.85 698.55 584.96 695.91 583.14 694.96 583.24 692.71 582.99 690.98 582.56 685.38 582.3 679.76 582.52 674.15Z" stroke-width="4.16667" fill="#597D59"/></g><g id="#72a168ff"><path d="M789.87 611.83C794.86 610.92 799.93 610.41 805.01 610.54 799.34 624.05 793.14 637.34 786.35 650.33 784.43 653.72 782.6 657.17 781.07 660.75L781 660.9C778.99 661.49 776.98 662.08 774.98 662.67 775.86 656.36 778.94 650.71 780.71 644.65 782.56 638.95 783.2 632.93 785.38 627.33 787.27 622.28 788.53 617.04 789.87 611.83Z" stroke-width="4.16667" fill="#72A168"/></g><g id="#85bb72ff"><path d="M805.01 610.54C819.45 611.36 832.26 618.66 845.67 623.29 860.82 628.6 877.21 630.73 893.15 628.43 900.11 627.51 906.97 625.96 913.76 624.23 889.38 641.74 860.76 656.05 830.07 655.71 813.62 655.57 796.92 655.78 781.07 660.75 782.6 657.17 784.43 653.72 786.35 650.33 793.14 637.34 799.34 624.05 805.01 610.54Z" stroke-width="4.16667" fill="#85BB72"/></g><g id="#5f855eff"><path d="M747.27 626.57C761.21 621.01 775.14 615.02 789.87 611.83 788.53 617.04 787.27 622.28 785.38 627.33 783.2 632.93 782.56 638.95 780.71 644.65 778.94 650.71 775.86 656.36 774.98 662.67L774.95 662.84C767.61 665.3 760.55 668.48 753.59 671.83 753.79 667.38 754.09 662.92 753.79 658.47 751.01 657.89 748.23 657.31 745.46 656.71 747.6 650.29 750.21 643.96 750.93 637.17 748 637.35 745.09 637.59 742.19 637.87 743.98 634.15 745.59 630.35 747.27 626.57Z" stroke-width="4.16667" fill="#5F855E"/></g><g id="#65905fff"><path d="M166.09 626.69C171.59 626.34 177.12 626.42 182.6 627.09 182.46 628.97 182.32 630.85 182.17 632.74 178.05 637.3 175.05 642.67 172.18 648.07 168.49 654.82 159.81 654.94 154.12 659.16 150.92 661.8 146.63 660.69 142.94 660.07 133.36 658 123.59 657.08 113.85 656.06 107.55 651.73 101.29 647.26 95.55 642.21 101.54 644.29 107.44 646.64 113.47 648.64 125.77 653.18 139.11 653.56 152.07 653.55 154.62 653.79 155.43 650.98 156.33 649.18 159.39 641.6 162.44 634.01 166.09 626.69Z" stroke-width="4.16667" fill="#65905F"/></g><g id="#5a7e59ff"><path d="M172.18 648.07C175.05 642.67 178.05 637.3 182.17 632.74 180.58 657.96 183.13 683.47 190.25 707.74 173.18 696.5 156.22 685.1 139.28 673.68 130.79 667.83 122.09 662.27 113.85 656.06 123.59 657.08 133.36 658 142.94 660.07 146.63 660.69 150.92 661.8 154.12 659.16 159.81 654.94 168.49 654.82 172.18 648.07Z" stroke-width="4.16667" fill="#5A7E59"/></g><g id="#060a06ff"><path d="M388.3 663.39C390.32 661.82 391.68 664.99 389.2 665.43 385 667.18 380.31 667.77 375.83 667 375.82 666.53 375.82 665.59 375.82 665.12 380.04 665.04 384.31 664.94 388.3 663.39Z" stroke-width="4.16667" fill="#060A06"/></g><g id="#57423eff"><path d="M542.07 697.16C555.38 691.61 567.62 683.96 580.16 676.91 580.46 682.61 580.27 688.36 581.19 694.01 581.47 696.86 584.33 698.17 586.49 699.49 593.85 703.47 601.36 707.17 608.54 711.47 625.22 721.06 640.78 732.39 656.92 742.83 635.85 760.59 613.22 776.45 589.66 790.72 559.24 809.03 526.98 824.56 492.99 835 460.43 845.12 426 849.67 391.95 846.88 352.53 843.82 313.77 832.06 279.33 812.62 248.56 795.14 221.02 770.32 204.87 738.44 211.27 739.5 217.8 738.73 224.21 739.65 229.67 740.26 235.05 742.05 240.6 741.45 254.66 767.84 277.08 788.77 301.66 805.31 313.63 813.14 326.03 820.65 339.58 825.39 345.25 827.65 350.99 824.59 355.97 822.05 370.09 814.34 382.83 804.36 395.02 793.93 417.93 773.93 438.8 751.16 454.35 724.9 456.13 724.37 457.92 723.86 459.7 723.32 469.03 723.82 477.96 720.85 486.97 718.94 506.16 713.94 523.87 704.81 542.07 697.16Z" stroke-width="4.16667" fill="#57423E"/></g><g id="#6b5147ff"><path d="M190.89 701.64C203.94 700.86 215.22 708.93 227.89 710.43 228.97 714.08 230.22 717.68 231.52 721.26 230.82 722.21 229.88 722.8 228.71 722.27 222.17 720.49 215.72 718.34 209.1 716.82 204.68 715.8 200.16 716.81 195.74 717.3 193.95 712.13 192.22 706.94 190.89 701.64Z" stroke-width="4.16667" fill="#6B5147"/></g><g id="#624a43ff"><path d="M195.74 717.3C200.16 716.81 204.68 715.8 209.1 716.82 215.72 718.34 222.17 720.49 228.71 722.27 229.88 722.8 230.82 722.21 231.52 721.26 234.1 728.18 237.1 734.94 240.6 741.45 235.05 742.05 229.67 740.26 224.21 739.65 217.8 738.73 211.27 739.5 204.87 738.44 201.45 731.56 198.27 724.55 195.74 717.3Z" stroke-width="4.16667" fill="#624A43"/></g><g id="#648c61ff"><path d="M445.51 726.53C447.93 724 450.73 721.81 454.03 720.54 453.11 722.96 451.72 725.16 450.33 727.34 437.89 732.85 425.34 738.12 412.48 742.59 398.46 748.52 384.37 754.41 369.79 758.86 366.56 759.97 363.1 759.86 359.76 759.42 349.18 757.76 338.62 760.78 328 760.05 318.57 760.74 309.41 757.77 300 758.12 293.97 758.29 288.06 756.94 282.21 755.65 273.64 753.7 265.69 749.72 257.1 747.86 255.32 750.43 253.61 753.05 252.02 755.74 245.4 746.2 239.67 736.01 235.43 725.2 243.75 726.38 251.67 729.33 259.83 731.23 274.82 736.57 290.6 739.43 305.32 745.54 312.25 748.02 319.74 747.6 326.98 747.68 336.42 747.81 345.71 745.85 355.11 745.42 363.42 745.3 371.7 744.45 380.01 744.72 387.71 744.95 395.34 743.68 403.03 743.67 406.12 743.84 408.83 742.23 411.49 740.9 418.12 738.36 424.53 735.24 431.32 733.11 436.2 731.34 441.8 730.52 445.51 726.53Z" stroke-width="4.16667" fill="#648C61"/></g><g id="#5b7f5aff"><path d="M412.48 742.59C425.34 738.12 437.89 732.85 450.33 727.34 432.99 755.15 409.99 779.1 384.64 799.7 373.44 808.45 361.99 817.28 348.84 822.88 343.98 825.34 338.73 822.87 334.16 820.96 320.08 814.73 306.9 806.58 294.46 797.53 278.45 785.71 263.59 772.02 252.02 755.74 253.61 753.05 255.32 750.43 257.1 747.86 265.69 749.72 273.64 753.7 282.21 755.65 288.06 756.94 293.97 758.29 300 758.12 309.41 757.77 318.57 760.74 328 760.05 338.62 760.78 349.18 757.76 359.76 759.42 363.1 759.86 366.56 759.97 369.79 758.86 384.37 754.41 398.46 748.52 412.48 742.59Z" stroke-width="4.16667" fill="#5B7F5A"/></g></svg>