<svg width="4000" height="4000" viewBox="0 0 3000 3000" xmlns="http://www.w3.org/2000/svg" xmlns:xlink="http://www.w3.org/1999/xlink" overflow="hidden"><g id="#000000ff"><path d="M887.13 294.33C890.99 293.05 894.95 294.85 898.35 296.6 909.59 302.65 919.69 310.55 929.53 318.61 950.55 336.12 970.02 355.4 989 375.07 1042.04 430.4 1089.64 490.75 1133.32 553.68 1169.98 606.51 1204.07 661.1 1235.8 717.03 1255.23 694.83 1278.29 675.97 1303.2 660.22 1334.23 640.64 1368.32 625.92 1403.85 616.76 1444.56 606.12 1487.75 604.04 1528.97 613.09 1568.46 621.55 1606.29 639.47 1636.26 666.77 1652.87 681.91 1667.86 698.87 1680.98 717.11 1683.05 719.57 1679.38 723.22 1676.96 721.12 1649.06 699.99 1618.58 682.17 1586.26 668.67 1550.31 653.85 1510.99 644.3 1471.95 649.12 1434.49 653.75 1399.03 669.6 1368.57 691.55 1343.03 709.73 1321.66 733.06 1302.83 757.97 1298.26 764.36 1293.05 770.4 1289.35 777.36 1294.63 775.31 1299.02 771.56 1304.02 768.94 1321.77 758.55 1340.32 749.38 1359.84 742.81 1400.68 729.13 1445.23 727.44 1487.21 736.68 1509.7 741.66 1531.5 749.94 1551.38 761.6 1577.55 777.12 1600.62 797.39 1621.34 819.55 1622.77 821.04 1624.73 823.07 1623.38 825.27 1620.92 828.06 1617.68 824.88 1615.27 823.71 1586.39 807.76 1555.53 795.2 1523.45 787.39 1498.25 781.39 1471.91 778.58 1446.17 782.55 1429.63 785.03 1413.85 791.2 1399.22 799.18 1396.38 800.75 1393.45 802.19 1390.91 804.22 1425.73 816.05 1459.77 830.35 1492.08 847.95 1550.68 879.62 1601.05 924.28 1646.77 972.27 1699.56 1027.69 1747.24 1087.69 1798.86 1144.18 1820.75 1168.56 1844.32 1191.38 1866.3 1215.69 1876.05 1226.79 1885.88 1238.12 1892.65 1251.36 1901.43 1269.18 1902.33 1289.43 1903.65 1308.89 1905.45 1349.95 1903.76 1391.07 1900.88 1432.04 1891.29 1562.57 1865.65 1691.74 1826.99 1816.72 1838.47 1823.56 1850.52 1829.64 1863.36 1833.51 1871.12 1835.93 1879.17 1837.73 1886.43 1841.52 1891.58 1844.1 1895.97 1848.24 1898.52 1853.45 1903.12 1862.54 1903.54 1873.05 1902.99 1883.04 1902.45 1890.47 1901.33 1897.89 1899.31 1905.08 1911.13 1914.75 1923.99 1923.07 1937.03 1931 1970.94 1951.44 2007.43 1967.37 2044.92 1979.99 2083.17 1992.77 2122.37 2002.48 2161.64 2011.54 2180.12 2015.88 2198.78 2019.39 2217.3 2023.51 2251.02 2002.08 2285.9 1982.49 2321.6 1964.56 2351.24 1949.89 2381.72 1936.81 2413.02 1926.09 2424.8 1922.24 2436.69 1918.29 2449.05 1916.81 2459.38 1915.41 2469.56 1918.37 2479.56 1920.59 2513.45 1928.67 2546.75 1939.17 2579.26 1951.69 2598.35 1959.08 2617.14 1967.28 2635.35 1976.66 2649.81 1983.94 2663.5 1992.76 2675.93 2003.15 2711.81 2033.05 2738.21 2072.34 2761.77 2112.22 2779.94 2143.02 2796.15 2176.13 2800.17 2212.11 2803.31 2238.36 2801.08 2264.9 2797.5 2290.98 2790.83 2338.37 2780.92 2385.23 2770.54 2431.93 2760.23 2478.07 2749.27 2524.06 2737.76 2569.92 2736.51 2574.43 2735.72 2579.21 2733.33 2583.32 2731.8 2586.14 2728.33 2587.76 2725.25 2586.59 2721.23 2584.89 2718.75 2581.05 2716.38 2577.61 2708.43 2564.97 2702.54 2551.2 2696.52 2537.58 2678.86 2496.33 2663.03 2454.33 2646.37 2412.67 2634.29 2382.44 2622.01 2351.78 2602.76 2325.26 2592.03 2310.52 2578.92 2297.44 2563.84 2287.16 2550.6 2278.07 2535.75 2271.57 2520.52 2266.62 2481.93 2254.27 2441.19 2250.66 2402.5 2238.62 2383.14 2232.81 2363.97 2225.9 2343.92 2222.82 2324.24 2219.76 2304.11 2220.98 2284.59 2224.55 2287.38 2244.91 2291.03 2265.22 2297.17 2284.87 2308.32 2320.97 2325.89 2354.64 2344.46 2387.4 2378.7 2448.63 2419.02 2506.32 2463.03 2560.9 2467.33 2566.3 2471.83 2571.62 2475.38 2577.58 2477.16 2580.71 2478.87 2584.27 2478.25 2588 2477.23 2592 2473.31 2594.19 2469.97 2596.07 2460.8 2600.78 2450.87 2603.73 2440.97 2606.44 2417.74 2612.48 2393.86 2615.99 2369.9 2617.19 2330.37 2619.54 2290.63 2613.46 2252.98 2601.45 2219.4 2590.8 2187.28 2575.81 2156.94 2557.94 2140.2 2548 2123.99 2536.65 2111.14 2521.88 2101.23 2510.56 2093.98 2497.13 2088.75 2483.09 2081.39 2463.36 2077.56 2442.56 2074.32 2421.84 2069.2 2388.26 2065.76 2354.16 2055.27 2321.71 2043.56 2321.56 2031.46 2319.74 2021.24 2313.72 2010.94 2307.55 2003.53 2297.73 1997.24 2287.73 1986.53 2270.41 1978.42 2251.62 1967.49 2234.43 1950.47 2207.53 1927.42 2185.31 1906.28 2161.75 1866.2 2117.22 1830.09 2069.3 1790.33 2024.48 1782.09 2027.21 1772.9 2029.17 1764.43 2026.34 1759.29 2024.66 1755.79 2020.27 1753.13 2015.81 1723.63 2083.05 1689.86 2148.5 1650.65 2210.63 1613.04 2270.16 1571.09 2327.33 1521.38 2377.4 1504.16 2394.9 1486.35 2411.82 1468.11 2428.25 1478.04 2440.08 1487.61 2452.36 1495.02 2465.97 1497.28 2470.44 1499.76 2474.99 1500.46 2480.05 1500.92 2482.99 1499.06 2486.35 1495.96 2486.82 1490.87 2487.44 1486.04 2485.2 1481.36 2483.57 1463.7 2476.56 1446.66 2468.13 1429.13 2460.83 1402.49 2481.26 1374.96 2500.52 1346.85 2518.88 1301.27 2548.47 1253.28 2574.2 1204.35 2597.77 1214.39 2611.32 1225.15 2624.34 1234.65 2638.29 1237.01 2642.21 1240.22 2646.34 1239.77 2651.19 1239.05 2655.22 1234.55 2656.66 1230.98 2656.99 1222.42 2657.65 1213.98 2655.43 1205.79 2653.24 1184.92 2647.18 1165.05 2638.1 1145.95 2627.81 1107.32 2642.64 1067.7 2654.83 1027.81 2665.8 934.76 2690.87 838.74 2708.02 742.07 2706.17 649.04 2704.21 555.55 2689.29 468.61 2655.37 430.02 2640.28 392.92 2621.59 357.09 2600.85 309.58 2573.19 264.04 2542.13 221.12 2507.78 219.1 2506.18 216.89 2504.53 216.26 2501.9 203.25 2500.93 190 2499.92 177.63 2495.45 173.1 2493.65 167.84 2491.09 166.5 2485.97 165.5 2481.23 168.96 2477.14 172.17 2474.15 176.73 2469.82 182.17 2466.6 186.92 2462.53 165.16 2442.11 150 2415.67 138.64 2388.33 136.98 2385 136.63 2380.81 133.61 2378.36 122.34 2368.71 111.73 2358.2 102.69 2346.42 98.44 2340.74 94.32 2334.78 91.99 2328.02 90.82 2324.45 90.36 2320.01 93.06 2317.02 96.05 2313.71 100.87 2313.48 105.02 2313.6 114.29 2314.05 123.33 2316.33 132.47 2317.71 202.83 2328.99 275.31 2324.61 344.39 2307.61 401.94 2293.63 458.22 2270.81 505.33 2234.36 550.56 2199.03 588.27 2154.97 620.96 2108.02 635.25 2087.4 648.5 2066.06 660.52 2044.03 655.02 2036.76 650.74 2028.57 648.35 2019.77 636.88 1979.32 627.73 1938.25 620.13 1896.92 615.51 1871.1 611.07 1845.16 609.66 1818.93 608.39 1798.96 609.43 1778.87 612.28 1759.08 615.32 1738.68 620.84 1718.53 629.83 1699.92 637.3 1684.32 646.84 1669.45 659.58 1657.63 664.99 1652.46 671.23 1648.32 677.54 1644.36 658.44 1616.16 640.43 1587.23 622.97 1558 603.13 1524.53 584.19 1490.48 567.62 1455.26 559.37 1437.56 551.68 1419.58 545.59 1401.02 540.21 1383.97 535.26 1366.17 536.73 1348.12 537.32 1338.42 542.08 1329.57 548.31 1322.31 570.97 1295.35 594.59 1269.23 617.73 1242.68 668.13 1185.16 717.53 1126.65 762.89 1065.03 775.09 1048.49 787.07 1031.79 798.92 1015 807.47 1002.84 816.06 990.69 823.9 978.06 834.61 960.72 842.92 942.03 849.96 922.94 850.63 920.83 852.15 918.42 850.51 916.36 835.56 888.93 812.59 865.71 784.77 851.36 763.11 839.93 738.27 835.75 713.96 836.5 683.81 837.38 654.2 844.74 625.97 855.04 606.27 862.25 587.18 871.09 568.84 881.26 566.47 882.85 563.33 879.35 565.18 877.17 567.58 873.97 570.57 871.26 573.26 868.32 591.51 849.64 611.51 832.49 633.78 818.77 659.42 803.06 688.41 793.12 718.12 788.74 752.23 783.65 787.47 785.74 820.61 795.45 842.04 801.57 862.16 811.41 881.6 822.19 882.83 819.13 884.16 816.12 885.71 813.21 876.77 801.28 867.19 789.82 856.94 779 837.68 758.79 815.27 741.54 790.63 728.4 767.43 716.04 742.12 707.31 715.95 704.19 679.32 699.76 642.36 708.12 608.34 721.38 573.71 735.11 541.13 753.89 511.47 776.37 508.57 778.41 505.54 774.24 507.81 771.84 524.41 749.21 543.43 728.1 565.61 710.79 598.39 685.62 638.21 670.34 679.04 664.82 714.36 659.97 750.5 663.09 784.95 672 828.6 683.33 870.22 702.8 906.44 729.74 907.78 702.77 905.76 675.8 903.72 648.93 898.77 589.2 891.84 529.66 885.99 470.03 882.28 432.13 878.71 394.19 877.19 356.14 876.95 344.78 876.66 333.4 877.34 322.05 877.9 315.2 878.38 308.22 880.75 301.71 881.9 298.63 883.84 295.44 887.13 294.33M886.82 304.38C884.07 313.65 883.89 323.4 883.68 332.99 883.44 348.68 884.15 364.37 885.07 380.03 891.18 472.23 903.75 563.86 910.97 655.97 913.02 682.18 914.38 708.49 912.92 734.77 935.83 752.41 955.67 773.77 972.8 797.01 972.75 797.68 972.63 799.01 972.57 799.68 971.41 799.51 969.94 800.08 969.13 799.02 951.8 778.45 933.49 758.49 912.44 741.64 874.34 710.99 829.34 689.22 782.01 677.16 745.21 667.8 706.41 665.28 668.96 672.19 630 679.2 592.34 695.45 561.97 721.06 548.11 732.77 535.66 746.06 524.1 760.03 553.97 739.9 585.97 722.64 620.11 710.97 652.93 699.8 688.29 693.85 722.83 699.35 768.8 706.49 811.34 729.38 845.78 760.19 871.64 783.51 892.65 811.68 911.1 841.06 916.89 845.92 923.43 849.92 929.09 854.98 930.14 855.79 929.67 857.39 929.25 858.44 926.03 859.02 924 855.78 921.5 854.33 892.87 833.45 861.75 815.51 828.19 803.84 771.3 784.61 706.78 788.41 652.78 814.81 626.22 828.09 602.76 846.94 581.88 867.89 598.69 859.49 616.06 852.18 633.88 846.2 662.55 836.63 692.63 830.17 722.99 830.78 745.32 831.06 767.76 835.95 787.61 846.38 817.82 862.05 842.54 887.74 857.86 918.07 865.68 933.83 870.73 950.83 874.43 967.99 875.18 971.75 876.4 975.58 875.43 979.43 873.72 979.44 871.16 980.22 870.56 977.99 867.02 960.62 863.08 943.08 855.54 926.93 846.95 951.25 834.96 974.25 820.77 995.75 805.33 1017.34 790.22 1039.19 774.48 1060.57 728.32 1124.02 677.82 1184.17 626.18 1243.2 602.44 1270.45 578.22 1297.29 554.88 1324.88 549.9 1330.72 545.16 1337.25 543.92 1345.01 541.73 1357.67 544.3 1370.55 547.26 1382.87 553.94 1408.59 564.57 1433.09 575.89 1457.07 591.8 1490.36 609.79 1522.62 628.59 1554.36 646.21 1583.97 664.58 1613.14 683.76 1641.76 690.95 1639.05 698.61 1638.14 706.09 1636.56 734.82 1631.66 764.42 1639.4 789.58 1653.35 817.2 1668.58 839.5 1692.02 856.84 1718.11 874.75 1745.09 887.87 1775.05 897.33 1805.96 903.85 1827.23 907.99 1849.13 914.5 1870.4 919.23 1885.72 925.43 1900.89 935.38 1913.62 945.41 1926.53 958.79 1936.32 969.07 1948.99 974.78 1955.95 979.01 1964.74 978.16 1973.97 976.84 1990.35 969.28 2005.46 960.98 2019.36 959.5 2021.38 956.37 2023.96 958.31 2026.64 965.88 2040.38 974.47 2053.57 983.77 2066.22 999.75 2087.98 1018.59 2107.99 1041.35 2122.75 1047.82 2126.74 1054.04 2131.4 1061.18 2134.14 1080.32 2144.84 1100.79 2153 1121.32 2160.64 1137.39 2166.66 1154.09 2171.07 1169.68 2178.35 1183.08 2184.6 1195.5 2193.7 1203.99 2205.95 1212.55 2218.25 1214.23 2233.83 1214.26 2248.42 1234.97 2257.28 1255.12 2267.41 1275.08 2277.87 1278.3 2279.44 1281.29 2281.59 1284.75 2282.69 1285.86 2284.49 1287.95 2285.2 1289.72 2286.24 1314.61 2299.9 1338.73 2314.98 1361.92 2331.37 1367.41 2323.17 1373.17 2315.12 1378.09 2306.58 1399.05 2274.33 1419.23 2241.55 1437.68 2207.79 1460.8 2165.82 1481.69 2122.64 1500.52 2078.59 1539.75 1987.27 1570.62 1892.28 1591.03 1794.98 1606.86 1720.04 1616.83 1643.66 1617.35 1567 1618.16 1488.47 1608.25 1409.88 1588.07 1333.99 1569.14 1262.23 1541.33 1192.96 1506.86 1127.28L1506.64 1127.29C1482.45 1080.65 1453.81 1036.43 1422.93 993.96 1380.05 935.38 1332.53 880.19 1281.17 828.88 1267.05 814.88 1252.86 800.85 1236.95 788.86 1233.72 786.22 1229.96 783.82 1228.04 779.99 1226.42 776.87 1228.82 773.24 1232.01 772.54 1240.54 770.51 1249.39 771.66 1258.04 772.02 1252.15 760.58 1246 749.27 1239.8 738 1205.32 675.76 1167.84 615.17 1127.27 556.72 1079.8 488.4 1027.69 423.08 968.89 364.12 950.25 345.7 931.23 327.48 910.03 311.99 903.62 307.57 897.21 302.84 889.75 300.36 888.46 301.45 887.56 302.88 886.82 304.38M1397.56 624.38C1337.03 641.57 1280.69 674.96 1238.63 722.01 1247.88 738.72 1257.27 755.36 1265.76 772.48 1271.77 773.49 1277.79 774.51 1283.77 775.74 1295.18 758.77 1307.31 742.25 1320.95 726.99 1341.51 703.79 1366.04 684.06 1393.28 669.22 1426.51 651.12 1464.4 640.26 1502.45 642.35 1528.02 643.77 1553.13 649.98 1577.07 658.91 1607.8 670.48 1636.96 686.14 1663.99 704.77 1655.18 693.18 1644.92 682.71 1634.32 672.74 1591.65 633 1532.8 613.14 1474.98 613.07 1448.8 613.08 1422.72 617.27 1397.56 624.38M1399.14 739.23C1362.9 744.48 1328.98 759.86 1297.82 778.6 1326.91 784.68 1355.54 792.73 1383.85 801.7 1396.82 793.26 1410.82 786.32 1425.55 781.53 1450.23 773.72 1476.73 773.64 1502.15 777.41 1538.49 782.88 1573.19 796.03 1606.06 812.13 1586.84 792.89 1565.4 775.55 1541.42 762.58 1498.19 739.61 1447.4 732.12 1399.14 739.23M1235.1 778.51C1242.19 784.96 1250.2 790.32 1257.24 796.85 1278.61 816.06 1298.61 836.74 1318.35 857.61 1345.99 887.13 1372.45 917.78 1397.53 949.51 1441.29 1005.01 1481.21 1063.77 1513.91 1126.5 1560.39 1215.07 1594.33 1310.49 1611.34 1409.16 1624.96 1487.23 1627.19 1567.06 1620.31 1645.94 1614.77 1710.72 1603.35 1774.91 1588.14 1838.09 1575.07 1892.25 1558.83 1945.63 1539.72 1997.97 1507.99 2084.64 1469.28 2168.86 1422.31 2248.37 1414.07 2262.13 1406.05 2276.05 1397.14 2289.39 1387.19 2304.65 1377.42 2320.05 1367.27 2335.19 1387.67 2350.78 1407.76 2366.88 1426.4 2384.57 1439.51 2396.68 1451.72 2409.77 1463.83 2422.82 1489.03 2400.47 1513.18 2376.86 1536.09 2352.14 1562.89 2323.27 1587.28 2292.23 1609.92 2260 1614.34 2253.32 1619.58 2247.12 1623.24 2239.99 1625.29 2237.47 1626.88 2234.61 1628.75 2231.98 1669.91 2170.18 1705.39 2104.71 1736.2 2037.19 1773.45 1955.15 1804.52 1870.33 1829.83 1783.87 1862.75 1670.76 1884.74 1554.38 1893.81 1436.9 1896.48 1400.3 1898.28 1363.59 1897.58 1326.89 1896.9 1307.23 1896.5 1287.33 1891.81 1268.13 1887.46 1250.82 1875.76 1236.83 1864.37 1223.61 1843.59 1200.12 1820.95 1178.36 1799.85 1155.17 1774.02 1127.31 1749.47 1098.3 1724.58 1069.62 1705.86 1047.96 1687.22 1026.22 1668 1005.01 1624.06 956.49 1577.14 909.79 1522.18 873.75 1489.55 852.35 1454.26 835.27 1417.94 821.14 1379.62 806.33 1340.1 794.65 1299.98 785.83 1278.68 781.36 1257.02 776.2 1235.1 778.51M887.76 825.94C891.84 828.68 896.09 831.17 900.2 833.87 897.43 828.68 893.53 824.21 890.4 819.25 889.44 821.38 887.51 823.59 887.76 825.94M710.47 1642.68C702.05 1643.83 693.78 1645.96 685.71 1648.61 678.68 1650.86 672.63 1655.3 667.03 1659.98 652.64 1672.27 642.37 1688.62 634.53 1705.67 619.02 1739.75 614.78 1777.91 616.13 1815.01 617.5 1843.99 622.51 1872.62 627.71 1901.12 635.09 1940.41 643.87 1979.46 654.8 2017.93 657.26 2027.13 662.05 2035.55 668.16 2042.83 679.61 2056.56 693.93 2067.63 709.02 2077.11 734.22 2092.66 762.26 2104 791.57 2108.72 813.13 2112.03 835.91 2111.7 856.4 2103.48 870.49 2097.81 883.41 2089.6 895.56 2080.56 917.1 2064.27 936.04 2044.48 951.13 2022.08 958.83 2010.39 965.75 1997.97 969.57 1984.44 971.53 1977.08 972.77 1968.86 969.29 1961.76 964.59 1952.03 956.23 1944.85 948.67 1937.4 938.86 1928.13 929.25 1918.35 922.51 1906.54 913.54 1891.25 908.28 1874.17 903.79 1857.14 898.85 1838.16 894.72 1818.94 888.52 1800.32 877.88 1767.96 863.06 1736.71 842.49 1709.45 824.82 1686.02 802.25 1665.72 775.29 1653.66 755.14 1644.5 732.57 1639.69 710.47 1642.68M1824.87 1823.32C1820.96 1836.01 1816.71 1848.59 1812.63 1861.22L1812.27 1861.45C1809.03 1872.78 1804.46 1883.68 1801.06 1894.96 1810.56 1884.4 1821.07 1874.09 1834.23 1868.28 1841.9 1864.75 1851.1 1865.26 1858.32 1869.65 1871.92 1877.63 1881.57 1890.5 1893.76 1900.27 1896.16 1888.95 1897.32 1877.27 1895.91 1865.74L1895.5 1865.45C1894.54 1860.47 1892.77 1855.44 1889.21 1851.73 1881.01 1844.03 1869.23 1842.8 1859.04 1839.17 1847.03 1835.34 1835.78 1829.55 1824.87 1823.32M1830.62 1877.64C1818.17 1885.5 1807.96 1896.42 1799.19 1908.14 1796.48 1911.91 1793.54 1915.6 1791.76 1919.93 1787 1932.31 1782.58 1944.83 1777.48 1957.08 1775.88 1960.69 1774.6 1964.44 1773.06 1968.09 1772.46 1969.61 1771.61 1971.24 1772.14 1972.96 1773.8 1980.15 1776.06 1987.22 1778.95 1994.03 1783.32 2004.31 1790.01 2013.38 1797.13 2021.92 1806.61 2033.1 1816.32 2044.1 1825.66 2055.41 1852.81 2087.9 1879.06 2121.15 1907.23 2152.78 1928.18 2176.5 1951.28 2198.53 1969.18 2224.79 1980.32 2241 1988.52 2258.93 1998.11 2276.05 2004.34 2286.92 2011.11 2298 2021.24 2305.7 2030.34 2312.49 2041.98 2314.58 2053.09 2314.97 2049.02 2303.03 2043.79 2291.44 2041.12 2279.08 2036.08 2256.36 2038.23 2232.03 2047.71 2210.74 2053.84 2197.01 2061.97 2184.21 2071.34 2172.47 2074.32 2169.41 2073.09 2164.83 2073.79 2161.01 2074.32 2145.21 2083.54 2131.3 2094.25 2120.31 2117.48 2096.6 2143.21 2075.45 2170.03 2055.94 2183 2046.28 2196.7 2037.66 2209.97 2028.41 2205.62 2027.68 2201.31 2026.8 2197.04 2025.82L2196.59 2026.07C2166.62 2019.7 2136.73 2012.9 2107.08 2005.16 2073.85 1996.54 2040.86 1986.76 2009 1973.92 1973.93 1959.88 1940.1 1942.48 1909.07 1920.87 1896.27 1911.94 1884.49 1901.63 1873.46 1890.61 1866.67 1884.27 1860 1877.24 1851.21 1873.72 1844.2 1870.98 1836.63 1873.87 1830.62 1877.64M2444.95 1924.15C2431.75 1926.68 2418.99 1931.04 2406.34 1935.5 2372.79 1947.61 2340.16 1962.21 2308.57 1978.75 2270.37 1998.63 2233.09 2020.34 2197.6 2044.74 2168.82 2064.42 2140.74 2085.34 2115.4 2109.35L2115.28 2109.81C2111.72 2111.52 2109.44 2114.94 2106.51 2117.46 2098.91 2124.92 2091.14 2132.53 2086.1 2142.03 2080.85 2151.79 2079.64 2163.17 2080.05 2174.1 2082.3 2208.62 2110.09 2239.37 2143.79 2246.31 2163.85 2249.92 2184.07 2244.78 2203.35 2239.51L2202.5 2238.76C2203.67 2238.81 2204.85 2238.69 2206.03 2238.41 2224.35 2233.2 2242.43 2227.13 2260.97 2222.69 2285.09 2216.75 2310.06 2212.82 2334.96 2215 2356.56 2216.82 2377.22 2223.78 2397.8 2230.18 2415.55 2235.88 2433.72 2240.14 2451.99 2243.78 2489.32 2251.43 2528.24 2257.49 2561.35 2277.58 2577.17 2287.26 2591.15 2299.85 2602.78 2314.28 2622.63 2338.98 2635.59 2368.22 2647.45 2397.36 2664.74 2440.21 2681.04 2483.46 2698.89 2526.08 2705.42 2541.28 2711.82 2556.62 2720.13 2570.97 2722.27 2574.29 2724.14 2578.15 2727.7 2580.24 2729.93 2574.23 2731.62 2567.95 2732.77 2561.67 2741.64 2527.29 2749.71 2492.71 2757.73 2458.12 2768.36 2411.33 2778.86 2364.47 2786.71 2317.12 2790.52 2293.91 2794.03 2270.59 2794.85 2247.05 2795.58 2226.17 2793.75 2205.06 2787.88 2184.95 2782.07 2164.75 2772.94 2145.68 2762.75 2127.37 2747.31 2100.12 2730.67 2073.42 2711.08 2048.94 2691.46 2024.53 2668.38 2002.32 2640.79 1987.14 2622.48 1977.13 2603.44 1968.55 2584.09 1960.78 2546.72 1945.97 2508.26 1933.78 2469.01 1925.06 2461.14 1923.13 2452.92 1922.41 2444.95 1924.15M1767.45 1981.85C1763.96 1990.61 1760.1 1999.21 1756.56 2007.95 1759.04 2012.05 1760.78 2017.14 1765.32 2019.47 1771.88 2022.5 1779.36 2020.62 1786.02 2018.9 1782.87 2014.34 1779.57 2009.87 1776.92 2005 1772.75 1997.73 1770.02 1989.79 1767.45 1981.85M891.69 2091.75C876.28 2102.26 859.49 2111.53 841 2115.15 818.27 2119.6 794.7 2117.39 772.39 2111.73 757.8 2107.95 743.51 2102.85 729.98 2096.2 742.01 2127.89 759.91 2156.94 779.79 2184.26 796.94 2207.86 815.52 2230.37 834.21 2252.76 852.06 2274.16 869.95 2295.63 885.23 2318.98 898.36 2339.07 909.54 2360.65 916.28 2383.76 920.38 2397.56 923.73 2411.76 930.42 2424.62 934.72 2432.93 942.11 2439.15 950.01 2443.93 953.56 2445.9 957.04 2448.25 961.1 2449.06L961.07 2449.92C970.67 2453.7 980.65 2456.54 990.85 2458.18 994.13 2440.72 1000.05 2423.24 1011.16 2409.14 1021.87 2395.96 1037.7 2386.01 1055 2385.39 1068.88 2384.97 1081.8 2391.99 1092.01 2400.9 1104.17 2411.32 1113.07 2424.96 1120.12 2439.22 1136.54 2432.26 1152.24 2423.4 1166.07 2412.09 1171.63 2407.37 1177.54 2402.9 1182.32 2397.35 1167.18 2391.85 1151.93 2384.16 1142.05 2371 1131.58 2356.78 1129.48 2337.99 1132.22 2320.94 1135.69 2298.92 1146.59 2277.24 1164.98 2264.05 1177.47 2255.4 1192.21 2250.62 1207.04 2247.9 1207.03 2243.25 1207.41 2238.58 1206.68 2233.99 1205.59 2225.18 1203.3 2216.26 1197.94 2209.03 1189.63 2197.48 1177.56 2189.13 1164.66 2183.44 1149.15 2176.58 1132.7 2172.23 1116.88 2166.2 1077.32 2151.67 1037.72 2133.62 1007.28 2103.71 985.86 2082.29 968.1 2057.38 953.15 2031.1 936.38 2054.65 915.46 2075.28 891.69 2091.75M663.8 2051.77C649.29 2078.26 632.73 2103.59 614.95 2127.99 594.39 2155.96 571.99 2182.68 546.97 2206.78 526.01 2227.07 503.26 2245.62 478.35 2260.88L478.39 2261.14C444.9 2281.75 408.17 2296.74 370.47 2307.69 337.98 2317.09 304.7 2323.76 271.1 2327.64 269.88 2326.98 268.37 2327.64 267.07 2327.64 218.45 2332.74 169.06 2331.4 120.95 2322.49 114.63 2321.47 108.29 2319.99 101.85 2320.27 100.27 2320.51 97.43 2320.6 97.81 2322.94 98.03 2326.69 100.01 2330.03 101.8 2333.26 107.79 2343.21 115.6 2351.93 123.74 2360.17 136.86 2373.24 151.42 2384.85 166.97 2394.89 189.81 2409.82 215.42 2420.29 242 2426.36 255.17 2416.2 267.46 2404.94 279.36 2393.34 283.28 2389.69 286.6 2385.43 290.77 2382.06 291.27 2382.53 292.27 2383.47 292.77 2383.94 286.87 2392.46 279.65 2400 272.65 2407.63 261.39 2419.5 248.94 2430.26 235.37 2439.4 216.04 2452.77 194.98 2463.71 176.93 2478.88 175.06 2480.64 171.04 2484.18 174.55 2486.33 180.54 2490.44 187.98 2491.57 194.97 2492.93 218.17 2496.51 241.86 2495.91 265.13 2493.28 293.76 2489.8 321.72 2481.87 348.59 2471.55 356.75 2451.35 365.45 2431.36 374.81 2411.68 375.3 2409.75 377.54 2410.43 379 2410.13 379.28 2411.65 379.62 2413.25 378.73 2414.72 372.64 2428.44 366.82 2442.29 361.21 2456.23 351.62 2480.41 342.12 2504.75 335.79 2530.03 334.68 2535.27 333.11 2540.57 333.45 2545.99 333.5 2548.22 336 2549.08 337.89 2549.1 344.22 2549.35 350.34 2547.27 356.25 2545.27 370.73 2539.93 384.37 2532.56 397.65 2524.75 422.74 2509.79 446.42 2492.52 468.85 2473.82 508.73 2440.47 543.52 2401.46 575.41 2360.51 578.65 2356.63 581.21 2352.18 584.8 2348.61 587.5 2347.32 588.71 2351.17 586.86 2352.86 558.25 2393.18 526.37 2431.43 489.65 2464.64 486.78 2467.9 486.86 2472.65 485.52 2476.64 478.67 2505.86 475.33 2536.65 481.57 2566.28 486.38 2588.43 496.47 2609.45 510.91 2626.94 520.42 2638.47 531.86 2648.27 544.02 2656.91 558.3 2666.96 573.65 2675.49 589.64 2682.52 594.9 2684.93 600.73 2685.41 606.35 2686.53 650.45 2694.22 695.15 2698.47 739.91 2699.45 787.44 2700.52 835 2696.9 882 2689.93 889.47 2689.01 896.74 2687 903.92 2684.84 942.23 2673.47 979.86 2659.73 1016.31 2643.35 1045.28 2630.45 1073.15 2615.2 1099.95 2598.28 1053.54 2563.41 1019.04 2515.3 991.03 2465.09 979.65 2462.88 968.27 2460.19 957.65 2455.44 944.96 2449.85 932.57 2441.79 925.41 2429.59 915.48 2411.87 912.48 2391.48 905.43 2372.65 891.61 2335.61 867.38 2303.77 842.56 2273.47 806.15 2229.37 768.02 2185.95 740.53 2135.46 732.8 2121.54 726.8 2106.76 721.01 2091.97 716.83 2089.05 712.07 2087.02 707.8 2084.22 692.59 2074.92 678.16 2064.06 666.21 2050.77 665.38 2049.18 664.16 2050.89 663.8 2051.77M2056.58 2207.61C2046.36 2227.58 2042.48 2250.92 2046.71 2273.03 2048.59 2283.95 2052.61 2294.32 2056.5 2304.64 2062.47 2320.33 2066.89 2336.58 2070.23 2353.03 2075.42 2378.19 2078.06 2403.77 2082.26 2429.1 2085.4 2447.72 2089.26 2466.36 2096.27 2483.96 2101.27 2496.58 2108.12 2508.58 2117.26 2518.68 2129.7 2532.61 2145.28 2543.27 2161.27 2552.72 2206.45 2579.14 2255.83 2599.5 2307.78 2607.52 2332.95 2611.44 2358.59 2611.87 2383.94 2609.51 2406.23 2607.37 2428.46 2603.58 2449.86 2596.87L2450.16 2597.09C2456.98 2594.58 2464.09 2592.41 2470.17 2588.31 2473.5 2586.43 2470.61 2582.83 2469.45 2580.51 2462.84 2570.37 2454.58 2561.44 2447.27 2551.83 2424.8 2523.33 2403.38 2493.99 2383.29 2463.76 2363.99 2434.83 2346.28 2404.88 2329.55 2374.41 2313.77 2345.51 2299.33 2315.66 2289.93 2284.03 2284.16 2265.03 2280.75 2245.42 2277.97 2225.79 2275.03 2226.33 2272.1 2226.92 2269.2 2227.55 2275.24 2255.95 2283.05 2284.07 2293.92 2311.03 2301.2 2328.85 2309.85 2346.09 2318.91 2363.08 2343.99 2410.69 2371.97 2456.7 2401.19 2501.86 2411.08 2517.29 2421.36 2532.48 2430.53 2548.36 2433.04 2553.05 2435.94 2557.71 2437.04 2562.99 2437.83 2566 2436.01 2569.23 2433.07 2570.18 2427.89 2571.94 2422.3 2571.79 2416.92 2571.63 2395.93 2570.48 2375.26 2566.08 2355.03 2560.56 2324.68 2552.03 2295.18 2540.05 2268.15 2523.76 2212.2 2489.98 2170.38 2433.96 2153.07 2371.02 2141.53 2329.76 2138.57 2286.29 2122.78 2246.21 2097.38 2233.51 2078.02 2208.56 2073.84 2180.26 2067.15 2188.72 2061.49 2198 2056.58 2207.61M1189.98 2259.1C1176.2 2263.64 1163.18 2271.56 1154.63 2283.51 1150.1 2289.86 1145.73 2296.78 1144.08 2304.48L1143.49 2303.55C1138.86 2316.39 1136.65 2330.29 1138.48 2343.89 1139.84 2353.87 1143.75 2363.72 1150.8 2371.06 1158.38 2379.07 1168.27 2384.45 1178.34 2388.68 1193.07 2394.75 1208.58 2398.61 1224.08 2402.15 1268.13 2412.07 1313.52 2415.28 1357.11 2427.38 1364.92 2429.27 1372.37 2432.43 1380.17 2434.31 1411.4 2445.19 1441.57 2458.8 1471.73 2472.31 1478.97 2475.19 1486.03 2479.07 1493.85 2480.13 1489.82 2467.99 1482.24 2457.46 1474.76 2447.24 1455.7 2422.25 1433.47 2399.85 1410.16 2378.84 1384.44 2355.77 1356.88 2334.72 1327.65 2316.28 1290.28 2292.76 1251.12 2272.04 1210.64 2254.42 1203.63 2254.61 1196.7 2257.06 1189.98 2259.1M146.14 2388.74C152.45 2404.02 160.34 2418.67 169.73 2432.28 176.31 2441.95 184.25 2450.57 192.41 2458.92 197.71 2455.8 202.76 2452.29 208 2449.09 216.9 2443.29 226.25 2438.09 234.58 2431.48 214.66 2426.24 195.18 2419.03 177.24 2408.85 166.35 2402.96 156.28 2395.77 146.14 2388.74M1030.37 2400.36C1018.75 2407.92 1010.47 2419.6 1005.11 2432.23L1005.37 2432.55C1001.46 2441.86 998.23 2451.72 997.24 2461.77 1011.46 2488.83 1028.58 2514.39 1047.79 2538.17 1066.37 2561.18 1087.92 2581.84 1112.15 2598.84 1139.52 2618.07 1169.32 2634.17 1201.09 2644.81 1211.45 2647.89 1222.25 2651.58 1233.2 2649.92 1231.5 2644.97 1228.26 2640.8 1225.32 2636.57 1213.43 2620.21 1200.59 2604.56 1188.78 2588.15 1184.3 2580.82 1178.8 2574.15 1174.2 2566.9 1163.93 2551.42 1154.37 2535.44 1146.19 2518.76 1136.86 2499.99 1130.2 2480.08 1122.3 2460.7 1115.32 2443.73 1107.43 2426.65 1094.87 2413.01 1086.71 2404.25 1076.85 2396.39 1065.1 2393.24 1053.18 2389.98 1040.51 2393.91 1030.37 2400.36M1189.45 2400.37C1183.15 2406.4 1176.72 2412.33 1169.88 2417.77 1155.8 2429.21 1139.88 2438.26 1123.19 2445.29 1132.21 2465.56 1139.12 2486.69 1148.16 2506.95 1154.88 2521.81 1162.82 2536.09 1171.31 2550 1186.28 2537.8 1200.03 2524.2 1213.75 2510.64 1241.58 2482.82 1268 2453.62 1293.81 2423.92 1294.36 2423.28 1295.85 2421.26 1294 2421.33 1266.75 2417.09 1239.42 2413.09 1212.62 2406.49 1204.8 2404.82 1197.21 2402.04 1189.45 2400.37M1300.13 2426.98C1284.5 2445.03 1268.57 2462.8 1252.37 2480.34 1227.65 2506.54 1202.6 2532.58 1175.07 2555.87 1183 2568.24 1191.42 2580.29 1200.21 2592.06 1208.44 2588.56 1216.32 2584.31 1224.37 2580.43 1260.09 2562.54 1295.21 2543.36 1329.11 2522.19 1360.85 2502.06 1391.9 2480.78 1421.71 2457.88 1404.33 2450.07 1386.38 2443.52 1368.26 2437.67 1347.92 2431.19 1326.96 2426.87 1305.93 2423.32 1303.1 2422.27 1301.72 2425.3 1300.13 2426.98M398.19 2532.19C384.57 2540.06 370.57 2547.47 355.65 2552.56 349.62 2554.44 343.35 2556.26 336.97 2555.78 333.08 2555.44 328.98 2553.45 327.51 2549.64 326.06 2545.55 326.82 2541.15 327.47 2537.01 331.18 2517.44 338.27 2498.75 345.13 2480.12 332.84 2484.48 320.42 2488.52 307.8 2491.8 280.82 2499.11 252.84 2502.38 224.91 2502.18 251.98 2524.13 280.4 2544.38 309.48 2563.58 352.37 2591.65 397.08 2617.12 443.99 2637.87 482.96 2655.01 523.53 2668.7 565.1 2677.93 542.04 2665.1 520.05 2649.36 503.57 2628.5 488.41 2609.22 478.17 2586.13 473.9 2561.99 468.87 2532.69 472.73 2502.74 479.02 2473.96 453.77 2495.57 426.88 2515.36 398.19 2532.19M1103.81 2603.84C1087.04 2614.32 1070.01 2624.41 1052.41 2633.44 1018.78 2650.83 983.66 2665.21 947.96 2677.77 949.35 2677.61 950.76 2677.47 952.15 2677.24 1015.25 2663.6 1077.52 2645.96 1138.11 2623.65 1128.54 2617.69 1118.79 2611.98 1109.69 2605.32 1107.94 2604.16 1105.85 2602.02 1103.81 2603.84Z"/><path d="M1177.22 1174.28C1183.37 1172.25 1189.87 1174.36 1195.76 1176.32 1210.6 1181.79 1224.23 1190.03 1237.35 1198.76 1264.37 1217.09 1288.99 1238.96 1310.48 1263.54 1337.87 1294.6 1357.84 1331.47 1373.35 1369.69 1374.48 1372.8 1376.08 1375.82 1376.65 1379.13L1376.21 1380.35C1375.35 1380.45 1374.51 1380.55 1373.68 1380.67 1360.26 1350.26 1344.58 1320.74 1325.49 1293.49 1304.96 1264.46 1279.59 1239.01 1251.52 1217.25 1233.93 1203.93 1215.44 1191.3 1194.84 1183.11 1189.93 1181.51 1184.64 1179.2 1179.43 1180.61 1174.01 1182.69 1170.38 1187.55 1166.77 1191.85 1155.47 1206.44 1146.55 1222.69 1138.18 1239.08 1120.21 1275.1 1106.02 1313.05 1096.41 1352.16 1087.34 1390.17 1082.25 1429.05 1079.53 1468.01 1079.13 1471.78 1079.5 1475.71 1078.32 1479.38 1077.24 1479.44 1076.17 1479.47 1075.12 1479.49 1074.09 1471.01 1075.24 1462.44 1075.47 1453.94 1078.07 1407.96 1084.83 1361.98 1099 1318.05 1110.2 1282.92 1124.52 1248.71 1142.63 1216.56 1148.62 1206.13 1154.95 1195.83 1162.52 1186.46 1166.59 1181.57 1171.04 1176.46 1177.22 1174.28Z"/><path d="M1096.25 1210.24C1100 1204.88 1104.71 1200.14 1110.16 1196.51 1110.8 1196.43 1112.1 1196.26 1112.75 1196.18 1113.1 1199.12 1110.56 1200.89 1109 1202.99 1103.13 1210.39 1098.07 1218.7 1095.87 1227.98 1094.67 1232.25 1094.4 1236.69 1093.56 1241.03 1093.01 1243.45 1088.96 1242.54 1089.2 1240.13 1088.47 1229.81 1090.2 1218.86 1096.25 1210.24Z"/><path d="M1219.11 1221.3C1223.7 1220.31 1228.77 1219.55 1233.12 1221.85 1243.6 1225.99 1249.92 1236.14 1253.94 1246.16 1261.28 1264.74 1266.59 1284.13 1269.69 1303.86 1274.19 1332.98 1273.61 1363.5 1263.62 1391.47 1260.39 1400.24 1256.41 1409 1250.01 1415.94 1246.23 1419.99 1240.83 1423.3 1235.08 1422.42 1227.99 1421.38 1222.49 1416.16 1217.97 1410.98 1208.55 1399.65 1202.35 1385.98 1198.02 1371.99 1191.51 1350.63 1189.49 1328.17 1189.56 1305.93 1189.7 1291.99 1190.33 1278.02 1192.42 1264.22 1194.03 1254.29 1196.25 1244.22 1201.27 1235.39 1205.17 1228.72 1211.28 1222.78 1219.11 1221.3Z"/><path d="M1756.65 1231.53C1759.41 1228.28 1763.29 1224.61 1767.96 1225.97 1773.63 1227.75 1777.2 1232.99 1780.48 1237.62 1789.29 1251.17 1795.59 1266.15 1801.73 1281.05 1824.43 1337.94 1839.95 1397.39 1852.72 1457.21 1853.46 1460.43 1853.91 1463.72 1854.43 1467.01 1854.08 1467.4 1853.38 1468.18 1853.03 1468.57 1852.63 1468.34 1851.83 1467.87 1851.42 1467.64 1844.48 1439.99 1837.17 1412.43 1829.21 1385.05 1819.29 1351.02 1808.95 1317.05 1795.75 1284.12 1789.79 1269.59 1783.68 1254.99 1775.18 1241.73 1772.64 1238.21 1770.22 1234.04 1766.01 1232.39 1761.13 1235.19 1758.21 1240.4 1754.75 1244.69 1735.87 1271.64 1722.6 1302.09 1711.84 1333.07 1705.73 1350.77 1700.43 1368.76 1696.04 1386.97 1695.97 1389.06 1694.16 1389.53 1692.44 1389.74 1692.43 1383.45 1694.3 1377.4 1695.48 1371.29 1702.69 1338.5 1712.89 1306.18 1728.26 1276.25 1736.35 1260.56 1745.07 1244.96 1756.65 1231.53Z"/><path d="M1812.1 1261.81C1810.57 1260.5 1812.28 1258.17 1813.97 1258.54 1823.09 1263.27 1829.14 1272.53 1831.4 1282.4 1831.89 1285.47 1833.98 1289.37 1830.99 1291.82 1827.79 1290.8 1827.6 1287.24 1826.4 1284.64 1823.19 1276.14 1817.54 1268.95 1812.1 1261.81Z"/><path d="M1743.08 1279.13C1748 1278.18 1752.74 1281.67 1755.36 1285.61 1759.1 1292.2 1761.32 1299.53 1763.27 1306.83 1771.06 1338.31 1769.94 1372.47 1757.35 1402.57 1754.42 1409.09 1751.21 1415.89 1745.61 1420.55 1742.58 1423.18 1737.92 1423.63 1734.62 1421.27 1729.25 1417.47 1727.1 1410.84 1725.15 1404.87 1719.71 1385.77 1718.67 1365.71 1719.16 1345.96 1719.99 1326.9 1722.92 1307.34 1732.25 1290.43 1734.89 1285.94 1737.91 1280.94 1743.08 1279.13Z"/><path d="M590.52 1327.75C609.58 1325.74 628.73 1329.19 647.18 1333.8 683.19 1343.22 717.37 1358.8 749.43 1377.59 804.84 1410.2 853.81 1452.56 899.38 1497.66 925.5 1523.54 950.52 1550.49 974.93 1577.99 976.44 1579.96 979.16 1581.56 978.76 1584.41 977.51 1586.42 975.18 1585.44 974.09 1583.89 925.26 1531.78 876.19 1479.42 820.24 1434.78 793.61 1413.47 765.52 1393.9 735.66 1377.38 707.56 1361.9 677.93 1348.94 646.96 1340.42 632.62 1336.54 617.92 1333.68 603.05 1333.19 592.48 1333.03 581.46 1333.95 571.94 1338.91 565.46 1342.18 560.74 1348.04 557.41 1354.36 555.92 1356.43 555.67 1360.08 552.85 1360.71 552.56 1360.29 551.99 1359.46 551.71 1359.04 553.25 1350.42 557.6 1341.98 564.81 1336.77 572.23 1331.25 581.45 1328.76 590.52 1327.75Z"/><path d="M1374.16 1410.09C1374.87 1410.15 1376.3 1410.28 1377.01 1410.35 1376.88 1410.94 1376.64 1412.12 1376.51 1412.71 1364.81 1422.15 1352 1430.19 1339.32 1438.25 1306.6 1458.48 1271.86 1475.8 1235.06 1487.24 1190.76 1500.69 1144.14 1505.05 1097.99 1504.74 1093.53 1504.33 1088.64 1505.44 1084.59 1503.1L1084.84 1502.64C1085.44 1501.78 1085.64 1500.19 1087.01 1500.33 1135.09 1500.22 1183.51 1495.25 1229.8 1481.84 1250.35 1475.74 1270.33 1467.83 1289.75 1458.77 1319.17 1444.93 1347.55 1428.78 1374.16 1410.09Z"/><path d="M1698.05 1417.34C1698.79 1417.28 1700.27 1417.14 1701.01 1417.08 1711.62 1433.91 1724.42 1449.48 1739.6 1462.41 1751.05 1472.13 1764.22 1480.1 1778.76 1484.17 1798.96 1489.87 1820.31 1490.56 1841.09 1488.36 1843.34 1487.59 1844.15 1489.99 1843.08 1491.61 1838.29 1493.52 1833.02 1493.66 1827.95 1494.24 1808.19 1495.96 1787.79 1494.81 1769.03 1487.98 1753.55 1482.25 1740.08 1472.11 1728.56 1460.45 1717.2 1448.87 1707.53 1435.71 1699.35 1421.72 1698.47 1420.41 1698.2 1418.85 1698.05 1417.34Z"/><path d="M686.08 2030.75C686.53 2030.43 687.43 2029.78 687.88 2029.46 715.28 2048.79 745.82 2064.89 779.06 2071.11 799.26 2075.04 820.08 2072.76 840.02 2068.42 842.42 2068.06 845.43 2066.11 847.06 2068.98 841.4 2072.73 834.59 2074.21 828.21 2076.28 806.78 2082.58 783.85 2079.72 762.8 2073.33 736.9 2065.27 712.86 2051.97 691.03 2036 689.26 2034.41 686.41 2033.37 686.08 2030.75Z"/><path d="M2099.28 2082.76C2108.12 2075.59 2116.73 2068.09 2126.12 2061.64 2127.71 2061.72 2130.61 2061.63 2130.62 2063.95 2131.41 2066.47 2128.76 2067.83 2127.17 2069.23 2122.16 2072.83 2117.34 2076.68 2112.63 2080.66 2089.14 2100.6 2067.6 2123.6 2053.05 2150.98 2036.43 2182.33 2026.85 2217.02 2021.78 2252.01 2021.62 2253.97 2019.68 2255.96 2017.62 2255.36 2015.95 2254.52 2014.94 2252.76 2015.33 2250.94 2016.05 2243.55 2017.54 2236.26 2018.95 2228.98 2025.69 2196.71 2036.22 2164.8 2053.65 2136.64 2062.98 2122.03 2073.88 2108.4 2086.09 2096.09 2090.36 2091.53 2095.3 2087.6 2099.28 2082.76Z"/><path d="M1153.23 2227.33C1155.04 2224.03 1155.45 2219.37 1159.38 2217.79 1160.32 2219.55 1160.41 2221.57 1159.54 2223.41 1151.49 2244.19 1141.27 2264.17 1128.76 2282.63 1122.56 2291.75 1115.85 2300.59 1108.08 2308.44 1087.85 2329.01 1063.43 2345.08 1037.37 2357.29 1022.5 2364.49 1006.91 2370 991.34 2375.44 984.64 2377.68 977.78 2379.38 970.97 2381.21 966.59 2382.2 962.24 2383.86 957.68 2383.49 957.64 2382.5 957.61 2381.54 957.59 2380.61 966.06 2377.95 974.76 2376.08 983.17 2373.21 1001.22 2367.35 1018.84 2360.14 1035.82 2351.67 1061.9 2338.61 1086.73 2322.17 1106.37 2300.4 1125.78 2278.76 1141.03 2253.64 1153.23 2227.33Z"/></g><g id="#f19680ff"><path d="M886.82 304.38C887.56 302.88 888.46 301.45 889.75 300.36 897.21 302.84 903.62 307.57 910.03 311.99 931.23 327.48 950.25 345.7 968.89 364.12 1027.69 423.08 1079.8 488.4 1127.27 556.72 1167.84 615.17 1205.32 675.76 1239.8 738 1246 749.27 1252.15 760.58 1258.04 772.02 1249.39 771.66 1240.54 770.51 1232.01 772.54 1228.82 773.24 1226.42 776.87 1228.04 779.99 1229.96 783.82 1233.72 786.22 1236.95 788.86 1252.86 800.85 1267.05 814.88 1281.17 828.88 1332.53 880.19 1380.05 935.38 1422.93 993.96 1453.81 1036.43 1482.45 1080.65 1506.64 1127.29 1501.73 1127.7 1496.92 1126.16 1492.02 1126.48 1485.05 1126.78 1478.18 1125.38 1471.26 1124.88 1450.49 1122.47 1429.72 1120.01 1409.01 1117.11 1374.82 1112.51 1341.56 1102.7 1309.29 1090.71 1300.93 1087.61 1292.7 1084.05 1283.94 1082.23 1263.1 1076.72 1241.94 1072.1 1221.9 1064 1214.85 1061.13 1207.38 1059.03 1200.82 1055.11 1194.29 1048.69 1187.51 1042.48 1181.54 1035.51 1176.23 1029.11 1171.13 1022.53 1166.19 1015.84 1160.51 1008.32 1156.09 999.96 1151.14 991.97 1148.28 987.47 1147.13 981.67 1142.6 978.42 1139.13 975.91 1136.69 972.36 1133.81 969.27 1128.81 964.15 1124.58 958.37 1120.37 952.62 1118.18 949.56 1115.04 947.3 1113.14 944.04 1107.92 935.21 1103.86 925.75 1100.05 916.25 1098.06 911.06 1095.73 905.67 1096.55 899.98 1097.54 892.69 1098.32 885.16 1096.47 877.95 1094.11 868.86 1092.74 859.52 1089.78 850.59 1088.42 846.86 1088.62 842.88 1088.39 838.99 1086.77 827.39 1087.78 815.64 1087.56 803.97 1088.35 792.5 1083.55 781.83 1080.18 771.15 1078.14 765.56 1075.99 760.03 1073.79 754.51 1072.32 750.68 1069.81 747.18 1069.42 743 1069.1 739.2 1067.47 735.74 1066.03 732.28 1059.29 712.53 1055.1 692.06 1049.12 672.09 1047.17 665.03 1046.77 657.69 1045.92 650.45 1045.53 647.26 1045.74 643.85 1043.99 641.02 1040.78 635.27 1039.07 628.85 1036.25 622.92 1031.12 611.96 1025.78 600.94 1023.35 589 1022.35 583.12 1019.59 577.71 1018.77 571.81 1018.08 565.21 1014.77 559.29 1013.61 552.79 1012.03 544.11 1007.8 536.28 1005.64 527.77 1004.39 522.99 1002.17 518.57 999.97 514.18 994.96 502.61 991.5 490.45 986.6 478.84 983.59 471.94 982.02 464.46 978.32 457.86 975.13 452.11 973.87 445.48 970.12 440.02 965.27 430.39 958.24 421.98 954.22 411.92 951.45 405.39 948.9 398.77 945.63 392.48 943.88 389.05 941.85 385.73 940.81 382 939.17 376.01 935.42 370.93 932.4 365.6 928.18 358.09 922.52 351.53 918.04 344.2 913.84 336.2 909.52 328.23 904.28 320.87 899.29 314.56 893.07 309.39 886.82 304.38Z" fill="#F19680"/><path d="M740.04 1674.87C744.64 1673.71 749.4 1673.5 754.03 1672.53 758.52 1672.57 762.59 1674.87 767.01 1675.39 773.48 1675.58 778.19 1680.54 783.82 1683.04 794.56 1688.78 806.22 1692.77 816.44 1699.49 821.52 1702.73 825.49 1707.4 828.69 1712.46 835.93 1721 843.7 1729.33 848.68 1739.49 857.44 1753.78 861.43 1770.5 862.57 1787.07 862.37 1792.02 863.25 1797.21 861.25 1801.92 859.13 1809.34 853.88 1815.25 848.43 1820.47 845.18 1823.67 841 1825.64 837.46 1828.48 833.89 1831.07 830.47 1834.26 826.03 1835.21 817.83 1837.05 809.44 1839.44 800.97 1838.27 798.14 1837.25 797.46 1834.11 796.47 1831.64 779.5 1829.36 761.75 1823.08 751.07 1808.96 744.65 1803.17 740.07 1795.76 735.63 1788.46 730.35 1785.67 724.56 1783.73 719.63 1780.28 714.45 1774.92 710.1 1768.77 706.65 1762.17 703.14 1756.61 701.09 1750.31 699.59 1743.97 697.65 1738.17 698.73 1732.02 698.48 1726.05 697.99 1714.98 700.29 1703.34 707.33 1694.51 709.99 1689.75 715.28 1687.75 719.08 1684.15 721.77 1681.94 724.33 1679.22 727.84 1678.4 731.93 1677.31 735.87 1675.68 740.04 1674.87Z" fill="#F19680"/><path d="M2444.95 1924.15C2452.92 1922.41 2461.14 1923.13 2469.01 1925.06 2508.26 1933.78 2546.72 1945.97 2584.09 1960.78 2603.44 1968.55 2622.48 1977.13 2640.79 1987.14 2668.38 2002.32 2691.46 2024.53 2711.08 2048.94 2730.67 2073.42 2747.31 2100.12 2762.75 2127.37 2772.94 2145.68 2782.07 2164.75 2787.88 2184.95 2793.75 2205.06 2795.58 2226.17 2794.85 2247.05 2794.03 2270.59 2790.52 2293.91 2786.71 2317.12 2778.86 2364.47 2768.36 2411.33 2757.73 2458.12 2749.71 2492.71 2741.64 2527.29 2732.77 2561.67 2730 2555.48 2730.34 2548.57 2729.5 2541.99 2729.72 2536.29 2729.15 2530.64 2728.55 2525 2728.52 2479.31 2728.5 2433.62 2728.49 2387.93 2727.77 2380.65 2727.46 2373.33 2726.65 2366.07 2726.39 2361.93 2726.77 2357.79 2726.26 2353.7 2725.06 2345.51 2725.77 2337.24 2725.58 2329.01 2725.95 2321.29 2724.22 2313.68 2724.52 2305.97 2723.58 2295.22 2721.49 2284.58 2718.57 2274.2 2711.24 2247.2 2704.01 2219.67 2689.83 2195.3 2685.28 2188.32 2679.73 2182.02 2673.68 2176.32 2666.88 2169.75 2660.75 2162.26 2652.47 2157.47 2635.99 2148.12 2618.37 2141.04 2600.7 2134.3 2590.26 2129.81 2579.41 2126.42 2568.95 2121.99 2560.33 2119.08 2552 2115.31 2543.26 2112.84 2530.52 2110.93 2517.67 2109.64 2505.09 2106.81 2497.12 2105.05 2489.02 2103.91 2481.18 2101.68 2460.21 2095.99 2439.99 2087.8 2420.4 2078.48 2395.25 2066.37 2371.47 2051.03 2351.2 2031.78 2343.2 2025.5 2336.92 2017.46 2330.16 2009.97 2322.2 2000.11 2315 1989.65 2308.57 1978.75 2340.16 1962.21 2372.79 1947.61 2406.34 1935.5 2418.99 1931.04 2431.75 1926.68 2444.95 1924.15Z" fill="#F19680"/><path d="M1005.53 2131.18C1012.2 2128.41 1019.71 2129.12 1026.56 2130.79 1042.5 2142.02 1056.9 2155.46 1073.62 2165.63 1076.92 2167.67 1080.71 2168.82 1083.88 2171.09 1091.13 2178.35 1099.41 2185.28 1102.89 2195.3 1104.87 2202.86 1102.85 2210.92 1098.21 2217.11 1094.36 2223.18 1087.3 2225.8 1080.77 2227.88 1075.54 2229.52 1070.17 2227.39 1065.15 2225.96 1058.94 2224.22 1053.25 2221.16 1047.3 2218.78 1040.69 2216.13 1034.81 2212.07 1028.91 2208.18 1021.71 2203.5 1014.97 2198.14 1008.65 2192.36 1002.25 2186.75 997.18 2179.87 991.29 2173.78 987.54 2169.75 986.63 2164.17 985.59 2159 986.55 2155.41 986.39 2151.54 988.08 2148.17 991.48 2140.61 997.58 2133.95 1005.53 2131.18Z" fill="#F19680"/><path d="M1249.79 2285.9C1259.83 2283.54 1269.24 2288.74 1277.76 2293.39 1282.94 2296.24 1287.13 2300.83 1292.95 2302.51 1302.89 2305.86 1311.79 2311.61 1320.02 2318.02 1324.21 2321.39 1327.06 2326.44 1332.13 2328.66 1339.37 2332.08 1346.29 2336.35 1352.17 2341.83 1356.79 2345.41 1361.88 2349.43 1362.87 2355.6 1359.06 2355.56 1355.05 2356.01 1351.52 2354.34 1345.52 2351.71 1339.63 2348.77 1333.2 2347.36 1327.4 2345.84 1323.26 2341.26 1318.14 2338.51 1306.92 2334.4 1296.68 2327.98 1287.07 2320.98 1283.18 2318.25 1278.44 2317.42 1274.17 2315.59 1268.5 2313.03 1263.13 2309.74 1258.48 2305.61 1254.36 2302.1 1249.72 2298.82 1247.2 2293.9 1245.6 2291.12 1246.66 2287.03 1249.79 2285.9Z" fill="#F19680"/></g><g id="#eb6444ff"><path d="M883.68 332.99C883.89 323.4 884.07 313.65 886.82 304.38 893.07 309.39 899.29 314.56 904.28 320.87 909.52 328.23 913.84 336.2 918.04 344.2 922.52 351.53 928.18 358.09 932.4 365.6 935.42 370.93 939.17 376.01 940.81 382 941.85 385.73 943.88 389.05 945.63 392.48 948.9 398.77 951.45 405.39 954.22 411.92 958.24 421.98 965.27 430.39 970.12 440.02 973.87 445.48 975.13 452.11 978.32 457.86 982.02 464.46 983.59 471.94 986.6 478.84 991.5 490.45 994.96 502.61 999.97 514.18 1002.17 518.57 1004.39 522.99 1005.64 527.77 1007.8 536.28 1012.03 544.11 1013.61 552.79 1014.77 559.29 1018.08 565.21 1018.77 571.81 1019.59 577.71 1022.35 583.12 1023.35 589 1025.78 600.94 1031.12 611.96 1036.25 622.92 1039.07 628.85 1040.78 635.27 1043.99 641.02 1045.74 643.85 1045.53 647.26 1045.92 650.45 1046.77 657.69 1047.17 665.03 1049.12 672.09 1055.1 692.06 1059.29 712.53 1066.03 732.28 1067.47 735.74 1069.1 739.2 1069.42 743 1069.81 747.18 1072.32 750.68 1073.79 754.51 1075.99 760.03 1078.14 765.56 1080.18 771.15 1083.55 781.83 1088.35 792.5 1087.56 803.97 1087.78 815.64 1086.77 827.39 1088.39 838.99 1088.62 842.88 1088.42 846.86 1089.78 850.59 1092.74 859.52 1094.11 868.86 1096.47 877.95 1098.32 885.16 1097.54 892.69 1096.55 899.98 1095.73 905.67 1098.06 911.06 1100.05 916.25 1103.86 925.75 1107.92 935.21 1113.14 944.04 1115.04 947.3 1118.18 949.56 1120.37 952.62 1124.58 958.37 1128.81 964.15 1133.81 969.27 1136.69 972.36 1139.13 975.91 1142.6 978.42 1147.13 981.67 1148.28 987.47 1151.14 991.97 1156.09 999.96 1160.51 1008.32 1166.19 1015.84 1171.13 1022.53 1176.23 1029.11 1181.54 1035.51 1187.51 1042.48 1194.29 1048.69 1200.82 1055.11 1207.38 1059.03 1214.85 1061.13 1221.9 1064 1241.94 1072.1 1263.1 1076.72 1283.94 1082.23 1292.7 1084.05 1300.93 1087.61 1309.29 1090.71 1341.56 1102.7 1374.82 1112.51 1409.01 1117.11 1429.72 1120.01 1450.49 1122.47 1471.26 1124.88 1478.18 1125.38 1485.05 1126.78 1492.02 1126.48 1496.92 1126.16 1501.73 1127.7 1506.64 1127.29L1506.86 1127.28C1541.33 1192.96 1569.14 1262.23 1588.07 1333.99 1608.25 1409.88 1618.16 1488.47 1617.35 1567 1616.83 1643.66 1606.86 1720.04 1591.03 1794.98 1570.62 1892.28 1539.75 1987.27 1500.52 2078.59 1481.69 2122.64 1460.8 2165.82 1437.68 2207.79 1419.23 2241.55 1399.05 2274.33 1378.09 2306.58 1371.32 2304.75 1364.19 2304.91 1357.38 2303.22 1345.71 2300.39 1333.73 2299.01 1322.21 2295.57 1313.59 2293.28 1305.19 2290.25 1296.96 2286.84 1292.98 2285.2 1288.98 2283.56 1284.75 2282.69 1281.29 2281.59 1278.3 2279.44 1275.08 2277.87 1255.12 2267.41 1234.97 2257.28 1214.26 2248.42 1214.23 2233.83 1212.55 2218.25 1203.99 2205.95 1195.5 2193.7 1183.08 2184.6 1169.68 2178.35 1154.09 2171.07 1137.39 2166.66 1121.32 2160.64 1100.79 2153 1080.32 2144.84 1061.18 2134.14 1056.77 2128.49 1051.38 2123.75 1046.4 2118.64 1031.53 2101.78 1016.74 2084.82 1003.17 2066.88 998.16 2060.91 992.09 2055.93 987.27 2049.79 978.47 2039.68 969.19 2029.98 960.98 2019.36 969.28 2005.46 976.84 1990.35 978.16 1973.97 979.01 1964.74 974.78 1955.95 969.07 1948.99 958.79 1936.32 945.41 1926.53 935.38 1913.62 925.43 1900.89 919.23 1885.72 914.5 1870.4 907.99 1849.13 903.85 1827.23 897.33 1805.96 887.87 1775.05 874.75 1745.09 856.84 1718.11 839.5 1692.02 817.2 1668.58 789.58 1653.35 764.42 1639.4 734.82 1631.66 706.09 1636.56 698.61 1638.14 690.95 1639.05 683.76 1641.76 664.58 1613.14 646.21 1583.97 628.59 1554.36 609.79 1522.62 591.8 1490.36 575.89 1457.07 564.57 1433.09 553.94 1408.59 547.26 1382.87 544.3 1370.55 541.73 1357.67 543.92 1345.01 545.16 1337.25 549.9 1330.72 554.88 1324.88 578.22 1297.29 602.44 1270.45 626.18 1243.2 677.82 1184.17 728.32 1124.02 774.48 1060.57 790.22 1039.19 805.33 1017.34 820.77 995.75 834.96 974.25 846.95 951.25 855.54 926.93 863.08 943.08 867.02 960.62 870.56 977.99 871.16 980.22 873.72 979.44 875.43 979.43 876.4 975.58 875.18 971.75 874.43 967.99 870.73 950.83 865.68 933.83 857.86 918.07 842.54 887.74 817.82 862.05 787.61 846.38 767.76 835.95 745.32 831.06 722.99 830.78 692.63 830.17 662.55 836.63 633.88 846.2 616.06 852.18 598.69 859.49 581.88 867.89 602.76 846.94 626.22 828.09 652.78 814.81 706.78 788.41 771.3 784.61 828.19 803.84 861.75 815.51 892.87 833.45 921.5 854.33 924 855.78 926.03 859.02 929.25 858.44 929.67 857.39 930.14 855.79 929.09 854.98 923.43 849.92 916.89 845.92 911.1 841.06 892.65 811.68 871.64 783.51 845.78 760.19 811.34 729.38 768.8 706.49 722.83 699.35 688.29 693.85 652.93 699.8 620.11 710.97 585.97 722.64 553.97 739.9 524.1 760.03 535.66 746.06 548.11 732.77 561.97 721.06 592.34 695.45 630 679.2 668.96 672.19 706.41 665.28 745.21 667.8 782.01 677.16 829.34 689.22 874.34 710.99 912.44 741.64 933.49 758.49 951.8 778.45 969.13 799.02 969.94 800.08 971.41 799.51 972.57 799.68 972.63 799.01 972.75 797.68 972.8 797.01 955.67 773.77 935.83 752.41 912.92 734.77 914.38 708.49 913.02 682.18 910.97 655.97 903.75 563.86 891.18 472.23 885.07 380.03 884.15 364.37 883.44 348.68 883.68 332.99M1177.22 1174.28C1171.04 1176.46 1166.59 1181.57 1162.52 1186.46 1154.95 1195.83 1148.62 1206.13 1142.63 1216.56 1124.52 1248.71 1110.2 1282.92 1099 1318.05 1084.83 1361.98 1078.07 1407.96 1075.47 1453.94 1075.24 1462.44 1074.09 1471.01 1075.12 1479.49 1075.28 1484.93 1076.04 1490.4 1077.66 1495.61 1078.7 1499.02 1081.61 1501.36 1084.84 1502.64L1084.59 1503.1C1088.64 1505.44 1093.53 1504.33 1097.99 1504.74 1144.14 1505.05 1190.76 1500.69 1235.06 1487.24 1271.86 1475.8 1306.6 1458.48 1339.32 1438.25 1352 1430.19 1364.81 1422.15 1376.51 1412.71 1381.03 1409.67 1384.09 1404.54 1383.7 1398.99 1383.15 1391.87 1379.44 1385.54 1376.65 1379.13 1376.08 1375.82 1374.48 1372.8 1373.35 1369.69 1357.84 1331.47 1337.87 1294.6 1310.48 1263.54 1288.99 1238.96 1264.37 1217.09 1237.35 1198.76 1224.23 1190.03 1210.6 1181.79 1195.76 1176.32 1189.87 1174.36 1183.37 1172.25 1177.22 1174.28M1096.25 1210.24C1090.2 1218.86 1088.47 1229.81 1089.2 1240.13 1088.96 1242.54 1093.01 1243.45 1093.56 1241.03 1094.4 1236.69 1094.67 1232.25 1095.87 1227.98 1098.07 1218.7 1103.13 1210.39 1109 1202.99 1110.56 1200.89 1113.1 1199.12 1112.75 1196.18 1112.1 1196.26 1110.8 1196.43 1110.16 1196.51 1104.71 1200.14 1100 1204.88 1096.25 1210.24M590.52 1327.75C581.45 1328.76 572.23 1331.25 564.81 1336.77 557.6 1341.98 553.25 1350.42 551.71 1359.04 551.99 1359.46 552.56 1360.29 552.85 1360.71 555.67 1360.08 555.92 1356.43 557.41 1354.36 560.74 1348.04 565.46 1342.18 571.94 1338.91 581.46 1333.95 592.48 1333.03 603.05 1333.19 617.92 1333.68 632.62 1336.54 646.96 1340.42 677.93 1348.94 707.56 1361.9 735.66 1377.38 765.52 1393.9 793.61 1413.47 820.24 1434.78 876.19 1479.42 925.26 1531.78 974.09 1583.89 975.18 1585.44 977.51 1586.42 978.76 1584.41 979.16 1581.56 976.44 1579.96 974.93 1577.99 950.52 1550.49 925.5 1523.54 899.38 1497.66 853.81 1452.56 804.84 1410.2 749.43 1377.59 717.37 1358.8 683.19 1343.22 647.18 1333.8 628.73 1329.19 609.58 1325.74 590.52 1327.75Z" fill="#EB6444"/><path d="M1397.56 624.38C1422.72 617.27 1448.8 613.08 1474.98 613.07 1532.8 613.14 1591.65 633 1634.32 672.74 1644.92 682.71 1655.18 693.18 1663.99 704.77 1636.96 686.14 1607.8 670.48 1577.07 658.91 1553.13 649.98 1528.02 643.77 1502.45 642.35 1464.4 640.26 1426.51 651.12 1393.28 669.22 1366.04 684.06 1341.51 703.79 1320.95 726.99 1307.31 742.25 1295.18 758.77 1283.77 775.74 1277.79 774.51 1271.77 773.49 1265.76 772.48 1257.27 755.36 1247.88 738.72 1238.63 722.01 1280.69 674.96 1337.03 641.57 1397.56 624.38Z" fill="#EB6444"/><path d="M1399.14 739.23C1447.4 732.12 1498.19 739.61 1541.42 762.58 1565.4 775.55 1586.84 792.89 1606.06 812.13 1573.19 796.03 1538.49 782.88 1502.15 777.41 1476.73 773.64 1450.23 773.72 1425.55 781.53 1410.82 786.32 1396.82 793.26 1383.85 801.7 1355.54 792.73 1326.91 784.68 1297.82 778.6 1328.98 759.86 1362.9 744.48 1399.14 739.23Z" fill="#EB6444"/><path d="M887.76 825.94C887.51 823.59 889.44 821.38 890.4 819.25 893.53 824.21 897.43 828.68 900.2 833.87 896.09 831.17 891.84 828.68 887.76 825.94Z" fill="#EB6444"/><path d="M710.47 1642.68C732.57 1639.69 755.14 1644.5 775.29 1653.66 802.25 1665.72 824.82 1686.02 842.49 1709.45 863.06 1736.71 877.88 1767.96 888.52 1800.32 894.72 1818.94 898.85 1838.16 903.79 1857.14 908.28 1874.17 913.54 1891.25 922.51 1906.54 929.25 1918.35 938.86 1928.13 948.67 1937.4 956.23 1944.85 964.59 1952.03 969.29 1961.76 972.77 1968.86 971.53 1977.08 969.57 1984.44 965.75 1997.97 958.83 2010.39 951.13 2022.08 936.04 2044.48 917.1 2064.27 895.56 2080.56 883.41 2089.6 870.49 2097.81 856.4 2103.48 835.91 2111.7 813.13 2112.03 791.57 2108.72 762.26 2104 734.22 2092.66 709.02 2077.11 693.93 2067.63 679.61 2056.56 668.16 2042.83 662.05 2035.55 657.26 2027.13 654.8 2017.93 643.87 1979.46 635.09 1940.41 627.71 1901.12 622.51 1872.62 617.5 1843.99 616.13 1815.01 614.78 1777.91 619.02 1739.75 634.53 1705.67 642.37 1688.62 652.64 1672.27 667.03 1659.98 672.63 1655.3 678.68 1650.86 685.71 1648.61 693.78 1645.96 702.05 1643.83 710.47 1642.68M740.04 1674.87C735.87 1675.68 731.93 1677.31 727.84 1678.4 724.33 1679.22 721.77 1681.94 719.08 1684.15 715.28 1687.75 709.99 1689.75 707.33 1694.51 700.29 1703.34 697.99 1714.98 698.48 1726.05 698.73 1732.02 697.65 1738.17 699.59 1743.97 701.09 1750.31 703.14 1756.61 706.65 1762.17 710.1 1768.77 714.45 1774.92 719.63 1780.28 724.56 1783.73 730.35 1785.67 735.63 1788.46 740.07 1795.76 744.65 1803.17 751.07 1808.96 761.75 1823.08 779.5 1829.36 796.47 1831.64 797.46 1834.11 798.14 1837.25 800.97 1838.27 809.44 1839.44 817.83 1837.05 826.03 1835.21 830.47 1834.26 833.89 1831.07 837.46 1828.48 841 1825.64 845.18 1823.67 848.43 1820.47 853.88 1815.25 859.13 1809.34 861.25 1801.92 863.25 1797.21 862.37 1792.02 862.57 1787.07 861.43 1770.5 857.44 1753.78 848.68 1739.49 843.7 1729.33 835.93 1721 828.69 1712.46 825.49 1707.4 821.52 1702.73 816.44 1699.49 806.22 1692.77 794.56 1688.78 783.82 1683.04 778.19 1680.54 773.48 1675.58 767.01 1675.39 762.59 1674.87 758.52 1672.57 754.03 1672.53 749.4 1673.5 744.64 1673.71 740.04 1674.87M686.08 2030.75C686.41 2033.37 689.26 2034.41 691.03 2036 712.86 2051.97 736.9 2065.27 762.8 2073.33 783.85 2079.72 806.78 2082.58 828.21 2076.28 834.59 2074.21 841.4 2072.73 847.06 2068.98 845.43 2066.11 842.42 2068.06 840.02 2068.42 820.08 2072.76 799.26 2075.04 779.06 2071.11 745.82 2064.89 715.28 2048.79 687.88 2029.46 687.43 2029.78 686.53 2030.43 686.08 2030.75Z" fill="#EB6444"/><path d="M1824.87 1823.32C1835.78 1829.55 1847.03 1835.34 1859.04 1839.17 1869.23 1842.8 1881.01 1844.03 1889.21 1851.73 1892.77 1855.44 1894.54 1860.47 1895.5 1865.45 1891.61 1862.64 1890 1857.71 1886.24 1854.7 1874.08 1842.09 1854.35 1841.09 1838.56 1846.5 1828.89 1849.4 1820.9 1855.72 1812.63 1861.22 1816.71 1848.59 1820.96 1836.01 1824.87 1823.32Z" fill="#EB6444"/><path d="M1830.62 1877.64C1836.63 1873.87 1844.2 1870.98 1851.21 1873.72 1860 1877.24 1866.67 1884.27 1873.46 1890.61 1884.49 1901.63 1896.27 1911.94 1909.07 1920.87 1940.1 1942.48 1973.93 1959.88 2009 1973.92 2040.86 1986.76 2073.85 1996.54 2107.08 2005.16 2136.73 2012.9 2166.62 2019.7 2196.59 2026.07 2185.63 2032.05 2174.18 2037.11 2163.48 2043.58 2156.09 2048.42 2147.23 2050.09 2139.52 2054.28 2134.95 2056.55 2130.71 2059.41 2126.12 2061.64 2116.73 2068.09 2108.12 2075.59 2099.28 2082.76 2090.29 2087.1 2084.39 2095.61 2077.27 2102.31 2074.1 2105.14 2070.11 2107 2067.37 2110.32 2064.22 2114.16 2061.18 2118.09 2058.25 2122.1 2055.59 2126 2051.41 2128.64 2047.07 2130.31 2042.98 2130.72 2038.65 2129.83 2034.95 2132.1 2032.7 2133.54 2030.39 2131.81 2028.47 2130.7 2020.95 2125.54 2011.61 2124.57 2003.49 2120.71 1984.51 2112.02 1965.34 2103.79 1946.11 2095.68 1938.19 2091.55 1929.81 2088.38 1922.22 2083.66 1915.24 2080.24 1909.31 2075.17 1902.68 2071.18 1890.62 2063.5 1877.23 2057.99 1866.02 2049.01 1861.89 2045.48 1857.15 2042.59 1853.8 2038.26 1850.24 2033.82 1845.64 2030.39 1842.09 2025.98 1833.63 2014.22 1822.71 2004.62 1811.77 1995.25 1799.87 1983.03 1785.27 1972.66 1777.48 1957.08 1782.58 1944.83 1787 1932.31 1791.76 1919.93 1793.54 1915.6 1796.48 1911.91 1799.19 1908.14 1807.96 1896.42 1818.17 1885.5 1830.62 1877.64Z" fill="#EB6444"/><path d="M2197.6 2044.74C2233.09 2020.34 2270.37 1998.63 2308.57 1978.75 2315 1989.65 2322.2 2000.11 2330.16 2009.97 2336.92 2017.46 2343.2 2025.5 2351.2 2031.78 2371.47 2051.03 2395.25 2066.37 2420.4 2078.48 2439.99 2087.8 2460.21 2095.99 2481.18 2101.68 2489.02 2103.91 2497.12 2105.05 2505.09 2106.81 2517.67 2109.64 2530.52 2110.93 2543.26 2112.84 2552 2115.31 2560.33 2119.08 2568.95 2121.99 2579.41 2126.42 2590.26 2129.81 2600.7 2134.3 2618.37 2141.04 2635.99 2148.12 2652.47 2157.47 2660.75 2162.26 2666.88 2169.75 2673.68 2176.32 2679.73 2182.02 2685.28 2188.32 2689.83 2195.3 2704.01 2219.67 2711.24 2247.2 2718.57 2274.2 2721.49 2284.58 2723.58 2295.22 2724.52 2305.97 2724.22 2313.68 2725.95 2321.29 2725.58 2329.01 2725.77 2337.24 2725.06 2345.51 2726.26 2353.7 2726.77 2357.79 2726.39 2361.93 2726.65 2366.07 2727.46 2373.33 2727.77 2380.65 2728.49 2387.93 2728.5 2433.62 2728.52 2479.31 2728.55 2525 2729.15 2530.64 2729.72 2536.29 2729.5 2541.99 2730.34 2548.57 2730 2555.48 2732.77 2561.67 2731.62 2567.95 2729.93 2574.23 2727.7 2580.24 2724.14 2578.15 2722.27 2574.29 2720.13 2570.97 2711.82 2556.62 2705.42 2541.28 2698.89 2526.08 2681.04 2483.46 2664.74 2440.21 2647.45 2397.36 2635.59 2368.22 2622.63 2338.98 2602.78 2314.28 2591.15 2299.85 2577.17 2287.26 2561.35 2277.58 2528.24 2257.49 2489.32 2251.43 2451.99 2243.78 2433.72 2240.14 2415.55 2235.88 2397.8 2230.18 2377.22 2223.78 2356.56 2216.82 2334.96 2215 2310.06 2212.82 2285.09 2216.75 2260.97 2222.69 2242.43 2227.13 2224.35 2233.2 2206.03 2238.41 2204.85 2238.69 2203.67 2238.81 2202.5 2238.76 2191.83 2236.18 2180.71 2237.08 2170.03 2234.62 2160.83 2232.53 2150.85 2230.04 2144.42 2222.61 2138.44 2215.9 2130.93 2210.64 2125.9 2203.11 2120.11 2195.29 2116.37 2186.24 2113.13 2177.14 2110.12 2168.12 2109.39 2158.59 2107.86 2149.27 2107.37 2144.37 2107.28 2139.4 2107.82 2134.52 2109.68 2126.09 2113.26 2118.18 2115.28 2109.81L2115.4 2109.35C2140.74 2085.34 2168.82 2064.42 2197.6 2044.74Z" fill="#EB6444"/><path d="M891.69 2091.75C915.46 2075.28 936.38 2054.65 953.15 2031.1 968.1 2057.38 985.86 2082.29 1007.28 2103.71 1037.72 2133.62 1077.32 2151.67 1116.88 2166.2 1132.7 2172.23 1149.15 2176.58 1164.66 2183.44 1177.56 2189.13 1189.63 2197.48 1197.94 2209.03 1203.3 2216.26 1205.59 2225.18 1206.68 2233.99 1206.29 2234.56 1205.51 2235.7 1205.12 2236.27 1200.57 2234.96 1195.96 2236.36 1191.39 2236.61 1180.36 2238.25 1170.68 2244.3 1161.96 2250.92 1150.04 2256.82 1141.71 2267.52 1133.97 2277.97 1131.01 2281.95 1128.78 2286.39 1126.63 2290.84 1123.66 2296.84 1118.11 2300.83 1113.42 2305.36 1111.86 2306.72 1110.39 2308.63 1108.08 2308.44 1115.85 2300.59 1122.56 2291.75 1128.76 2282.63 1141.27 2264.17 1151.49 2244.19 1159.54 2223.41 1160.41 2221.57 1160.32 2219.55 1159.38 2217.79 1155.45 2219.37 1155.04 2224.03 1153.23 2227.33 1141.03 2253.64 1125.78 2278.76 1106.37 2300.4 1086.73 2322.17 1061.9 2338.61 1035.82 2351.67 1018.84 2360.14 1001.22 2367.35 983.17 2373.21 974.76 2376.08 966.06 2377.95 957.59 2380.61 957.61 2381.54 957.64 2382.5 957.68 2383.49 962.24 2383.86 966.59 2382.2 970.97 2381.21 977.78 2379.38 984.64 2377.68 991.34 2375.44 987.01 2380.07 982.07 2384.08 977.79 2388.77 973.47 2392.89 970.8 2398.36 966.57 2402.58 962.28 2408.22 960.57 2415.32 959.23 2422.17 956.89 2431.17 961.64 2440 961.1 2449.06 957.04 2448.25 953.56 2445.9 950.01 2443.93 942.11 2439.15 934.72 2432.93 930.42 2424.62 923.73 2411.76 920.38 2397.56 916.28 2383.76 909.54 2360.65 898.36 2339.07 885.23 2318.98 869.95 2295.63 852.06 2274.16 834.21 2252.76 815.52 2230.37 796.94 2207.86 779.79 2184.26 759.91 2156.94 742.01 2127.89 729.98 2096.2 743.51 2102.85 757.8 2107.95 772.39 2111.73 794.7 2117.39 818.27 2119.6 841 2115.15 859.49 2111.53 876.28 2102.26 891.69 2091.75M1005.53 2131.18C997.58 2133.95 991.48 2140.61 988.08 2148.17 986.39 2151.54 986.55 2155.41 985.59 2159 986.63 2164.17 987.54 2169.75 991.29 2173.78 997.18 2179.87 1002.25 2186.75 1008.65 2192.36 1014.97 2198.14 1021.71 2203.5 1028.91 2208.18 1034.81 2212.07 1040.69 2216.13 1047.3 2218.78 1053.25 2221.16 1058.94 2224.22 1065.15 2225.96 1070.17 2227.39 1075.54 2229.52 1080.77 2227.88 1087.3 2225.8 1094.36 2223.18 1098.21 2217.11 1102.85 2210.92 1104.87 2202.86 1102.89 2195.3 1099.41 2185.28 1091.13 2178.35 1083.88 2171.09 1080.71 2168.82 1076.92 2167.67 1073.62 2165.63 1056.9 2155.46 1042.5 2142.02 1026.56 2130.79 1019.71 2129.12 1012.2 2128.41 1005.53 2131.18Z" fill="#EB6444"/><path d="M2061.73 2218.83C2065.49 2213.62 2070.43 2208.45 2077.01 2207.24 2079.63 2214.94 2082.47 2222.91 2087.99 2229.09 2090.37 2231.75 2091.08 2235.38 2092.2 2238.69 2094.37 2245.97 2097.46 2252.99 2098.72 2260.53 2100.99 2273.46 2104.77 2286.05 2107.33 2298.92 2110.99 2313.11 2115.33 2327.14 2120.15 2340.99 2122.99 2348.3 2125.32 2355.81 2127.83 2363.26 2131.05 2373.22 2135.96 2382.57 2138.62 2392.74 2142.69 2402.35 2147.31 2411.75 2151.94 2421.13 2156.62 2429.5 2160.23 2438.47 2165.52 2446.51 2169.03 2452.31 2173.55 2457.45 2176.73 2463.46 2180.14 2470.1 2184.9 2475.89 2188.89 2482.19 2195.87 2492.65 2205.17 2501.16 2213.96 2510.05 2219.17 2515.53 2225.53 2519.71 2231.56 2524.23 2239.38 2529.54 2247.26 2534.82 2255.77 2538.99 2270.73 2546.5 2284.41 2556.41 2300.01 2562.65 2308.03 2566.74 2316.78 2569.05 2324.92 2572.88 2336.23 2577.93 2348.24 2581.11 2360.16 2584.4 2371.17 2587.7 2382.69 2588.71 2394.03 2590.32 2412.18 2590.45 2429.9 2595.7 2448.05 2595.54 2448.5 2595.87 2449.41 2596.54 2449.86 2596.87 2428.46 2603.58 2406.23 2607.37 2383.94 2609.51 2358.59 2611.87 2332.95 2611.44 2307.78 2607.52 2255.83 2599.5 2206.45 2579.14 2161.27 2552.72 2145.28 2543.27 2129.7 2532.61 2117.26 2518.68 2108.12 2508.58 2101.27 2496.58 2096.27 2483.96 2089.26 2466.36 2085.4 2447.72 2082.26 2429.1 2078.06 2403.77 2075.42 2378.19 2070.23 2353.03 2066.89 2336.58 2062.47 2320.33 2056.5 2304.64 2052.61 2294.32 2048.59 2283.95 2046.71 2273.03 2046.35 2270.68 2046.3 2268.3 2046.75 2265.99 2047.74 2260.34 2047.71 2254.56 2049.03 2248.98 2051.14 2238.18 2055.72 2228 2061.73 2218.83Z" fill="#EB6444"/><path d="M1189.98 2259.1C1196.7 2257.06 1203.63 2254.61 1210.64 2254.42 1251.12 2272.04 1290.28 2292.76 1327.65 2316.28 1356.88 2334.72 1384.44 2355.77 1410.16 2378.84 1433.47 2399.85 1455.7 2422.25 1474.76 2447.24 1482.24 2457.46 1489.82 2467.99 1493.85 2480.13 1486.03 2479.07 1478.97 2475.19 1471.73 2472.31 1441.57 2458.8 1411.4 2445.19 1380.17 2434.31 1371.54 2427.78 1362.6 2421.67 1353.82 2415.35 1340.34 2404.82 1325.75 2395.81 1311.49 2386.4 1306.94 2382.7 1303.65 2377.68 1298.9 2374.21 1284.52 2364.17 1268.26 2357.28 1253.69 2347.54 1248.28 2344.63 1243.46 2340.57 1237.55 2338.7 1231.21 2336.61 1225.62 2332.84 1219.41 2330.44 1208.02 2325.09 1196.33 2320.37 1184.47 2316.18 1177.47 2313.55 1170.86 2309.83 1163.61 2307.95 1157.25 2307.21 1151.06 2305.13 1144.62 2305.33 1144.48 2305.12 1144.21 2304.69 1144.08 2304.48 1145.73 2296.78 1150.1 2289.86 1154.63 2283.51 1163.18 2271.56 1176.2 2263.64 1189.98 2259.1M1249.79 2285.9C1246.66 2287.03 1245.6 2291.12 1247.2 2293.9 1249.72 2298.82 1254.36 2302.1 1258.48 2305.61 1263.13 2309.74 1268.5 2313.03 1274.17 2315.59 1278.44 2317.42 1283.18 2318.25 1287.07 2320.98 1296.68 2327.98 1306.92 2334.4 1318.14 2338.51 1323.26 2341.26 1327.4 2345.84 1333.2 2347.36 1339.63 2348.77 1345.52 2351.71 1351.52 2354.34 1355.05 2356.01 1359.06 2355.56 1362.87 2355.6 1361.88 2349.43 1356.79 2345.41 1352.17 2341.83 1346.29 2336.35 1339.37 2332.08 1332.13 2328.66 1327.06 2326.44 1324.21 2321.39 1320.02 2318.02 1311.79 2311.61 1302.89 2305.86 1292.95 2302.51 1287.13 2300.83 1282.94 2296.24 1277.76 2293.39 1269.24 2288.74 1259.83 2283.54 1249.79 2285.9Z" fill="#EB6444"/><path d="M370.47 2307.69C408.17 2296.74 444.9 2281.75 478.39 2261.14 478.47 2261.62 478.62 2262.57 478.69 2263.05 476.85 2265.4 474.65 2267.45 472.33 2269.34 465.64 2274.67 459.04 2280.12 452 2284.98 438.76 2293.99 425.47 2303.06 411.15 2310.29 402.35 2313.95 393.68 2318.02 384.49 2320.64 370.47 2323.87 356.29 2326.57 341.99 2328.25 330.98 2329.05 320.04 2330.74 308.99 2330.67 297.87 2332.49 286.56 2331.4 275.47 2329.97 273.8 2329.65 272.52 2328.42 271.1 2327.64 304.7 2323.76 337.98 2317.09 370.47 2307.69Z" fill="#EB6444"/><path d="M1005.37 2432.55C1006.75 2434.21 1008.09 2435.93 1009.29 2437.78 1019.06 2453.52 1028.78 2469.32 1039.63 2484.36 1043.97 2490.28 1047.64 2496.9 1053.44 2501.59 1059.72 2506.58 1064.79 2512.89 1070.96 2518.02 1078.52 2524.49 1086 2531.12 1094.22 2536.77 1102.55 2542.45 1110.58 2548.57 1119.1 2553.98 1136.88 2564.42 1153.84 2576.59 1173.19 2584.08 1178.05 2586.57 1183.4 2587.49 1188.78 2588.15 1200.59 2604.56 1213.43 2620.21 1225.32 2636.57 1228.26 2640.8 1231.5 2644.97 1233.2 2649.92 1222.25 2651.58 1211.45 2647.89 1201.09 2644.81 1169.32 2634.17 1139.52 2618.07 1112.15 2598.84 1087.92 2581.84 1066.37 2561.18 1047.79 2538.17 1028.58 2514.39 1011.46 2488.83 997.24 2461.77 998.23 2451.72 1001.46 2441.86 1005.37 2432.55Z" fill="#EB6444"/></g><g id="#79a7c1ff"><path d="M1235.1 778.51C1257.02 776.2 1278.68 781.36 1299.98 785.83 1340.1 794.65 1379.62 806.33 1417.94 821.14 1454.26 835.27 1489.55 852.35 1522.18 873.75 1577.14 909.79 1624.06 956.49 1668 1005.01 1687.22 1026.22 1705.86 1047.96 1724.58 1069.62 1716.7 1075.4 1708.17 1080.2 1699.49 1084.64 1692.54 1090.05 1684.2 1093.01 1676.17 1096.39 1669.32 1098.96 1662.46 1101.56 1655.46 1103.66 1645.02 1105.55 1634.85 1108.68 1624.45 1110.78 1613.62 1112.64 1602.87 1114.9 1591.98 1116.4 1580 1118.47 1567.82 1119.39 1555.99 1122.27 1545.75 1123.97 1535.41 1125.3 1525.04 1125.7 1521.34 1126.13 1517.64 1126.72 1513.91 1126.5 1481.21 1063.77 1441.29 1005.01 1397.53 949.51 1372.45 917.78 1345.99 887.13 1318.35 857.61 1298.61 836.74 1278.61 816.06 1257.24 796.85 1250.2 790.32 1242.19 784.96 1235.1 778.51Z" fill="#79A7C1"/></g><g id="#327a9fff"><path d="M1699.49 1084.64C1708.17 1080.2 1716.7 1075.4 1724.58 1069.62 1749.47 1098.3 1774.02 1127.31 1799.85 1155.17 1820.95 1178.36 1843.59 1200.12 1864.37 1223.61 1875.76 1236.83 1887.46 1250.82 1891.81 1268.13 1896.5 1287.33 1896.9 1307.23 1897.58 1326.89 1898.28 1363.59 1896.48 1400.3 1893.81 1436.9 1884.74 1554.38 1862.75 1670.76 1829.83 1783.87 1804.52 1870.33 1773.45 1955.15 1736.2 2037.19 1705.39 2104.71 1669.91 2170.18 1628.75 2231.98 1626.88 2234.61 1625.29 2237.47 1623.24 2239.99 1614.89 2245.15 1606.74 2250.66 1598.06 2255.27 1589.03 2260.36 1579.68 2264.85 1570.44 2269.54 1561.48 2273 1552.22 2275.74 1542.89 2278.04 1527.73 2282.34 1512.38 2286.32 1496.66 2287.9 1490.44 2288.85 1484.24 2290 1477.97 2290.55 1467.08 2292.23 1456.05 2291.36 1445.08 2291.55 1433.41 2291.53 1421.74 2291.5 1410.08 2291.58 1405.69 2291.49 1401.16 2291.32 1397.14 2289.39 1406.05 2276.05 1414.07 2262.13 1422.31 2248.37 1469.28 2168.86 1507.99 2084.64 1539.72 1997.97 1558.83 1945.63 1575.07 1892.25 1588.14 1838.09 1603.35 1774.91 1614.77 1710.72 1620.31 1645.94 1627.19 1567.06 1624.96 1487.23 1611.34 1409.16 1594.33 1310.49 1560.39 1215.07 1513.91 1126.5 1517.64 1126.72 1521.34 1126.13 1525.04 1125.7 1535.41 1125.3 1545.75 1123.97 1555.99 1122.27 1567.82 1119.39 1580 1118.47 1591.98 1116.4 1602.87 1114.9 1613.62 1112.64 1624.45 1110.78 1634.85 1108.68 1645.02 1105.55 1655.46 1103.66 1662.46 1101.56 1669.32 1098.96 1676.17 1096.39 1684.2 1093.01 1692.54 1090.05 1699.49 1084.64M1756.65 1231.53C1745.07 1244.96 1736.35 1260.56 1728.26 1276.25 1712.89 1306.18 1702.69 1338.5 1695.48 1371.29 1694.3 1377.4 1692.43 1383.45 1692.44 1389.74L1692.13 1389.8C1691.93 1395.19 1691.61 1400.71 1693.08 1405.99 1694.09 1410.02 1696.17 1413.66 1698.05 1417.34 1698.2 1418.85 1698.47 1420.41 1699.35 1421.72 1707.53 1435.71 1717.2 1448.87 1728.56 1460.45 1740.08 1472.11 1753.55 1482.25 1769.03 1487.98 1787.79 1494.81 1808.19 1495.96 1827.95 1494.24 1833.02 1493.66 1838.29 1493.52 1843.08 1491.61 1847.2 1489.26 1853.63 1490.1 1855.67 1484.83 1857.33 1479.05 1856.63 1472.55 1854.43 1467.01 1853.91 1463.72 1853.46 1460.43 1852.72 1457.21 1839.95 1397.39 1824.43 1337.94 1801.73 1281.05 1795.59 1266.15 1789.29 1251.17 1780.48 1237.62 1777.2 1232.99 1773.63 1227.75 1767.96 1225.97 1763.29 1224.61 1759.41 1228.28 1756.65 1231.53M1812.1 1261.81C1817.54 1268.95 1823.19 1276.14 1826.4 1284.64 1827.6 1287.24 1827.79 1290.8 1830.99 1291.82 1833.98 1289.37 1831.89 1285.47 1831.4 1282.4 1829.14 1272.53 1823.09 1263.27 1813.97 1258.54 1812.28 1258.17 1810.57 1260.5 1812.1 1261.81Z" fill="#327A9F"/></g><g id="#fffefeff"><path d="M1179.43 1180.61C1184.64 1179.2 1189.93 1181.51 1194.84 1183.11 1215.44 1191.3 1233.93 1203.93 1251.52 1217.25 1279.59 1239.01 1304.96 1264.46 1325.49 1293.49 1344.58 1320.74 1360.26 1350.26 1373.68 1380.67 1374.51 1380.55 1375.35 1380.45 1376.21 1380.35L1376.65 1379.13C1379.44 1385.54 1383.15 1391.87 1383.7 1398.99 1384.09 1404.54 1381.03 1409.67 1376.51 1412.71 1376.64 1412.12 1376.88 1410.94 1377.01 1410.35 1376.3 1410.28 1374.87 1410.15 1374.16 1410.09 1347.55 1428.78 1319.17 1444.93 1289.75 1458.77 1270.33 1467.83 1250.35 1475.74 1229.8 1481.84 1183.51 1495.25 1135.09 1500.22 1087.01 1500.33 1085.64 1500.19 1085.44 1501.78 1084.84 1502.64 1081.61 1501.36 1078.7 1499.02 1077.66 1495.61 1076.04 1490.4 1075.28 1484.93 1075.12 1479.49 1076.17 1479.47 1077.24 1479.44 1078.32 1479.38 1079.5 1475.71 1079.13 1471.78 1079.53 1468.01 1082.25 1429.05 1087.34 1390.17 1096.41 1352.16 1106.02 1313.05 1120.21 1275.1 1138.18 1239.08 1146.55 1222.69 1155.47 1206.44 1166.77 1191.85 1170.38 1187.55 1174.01 1182.69 1179.43 1180.61M1219.11 1221.3C1211.28 1222.78 1205.17 1228.72 1201.27 1235.39 1196.25 1244.22 1194.03 1254.29 1192.42 1264.22 1190.33 1278.02 1189.7 1291.99 1189.56 1305.93 1189.49 1328.17 1191.51 1350.63 1198.02 1371.99 1202.35 1385.98 1208.55 1399.65 1217.97 1410.98 1222.49 1416.16 1227.99 1421.38 1235.08 1422.42 1240.83 1423.3 1246.23 1419.99 1250.01 1415.94 1256.41 1409 1260.39 1400.24 1263.62 1391.47 1273.61 1363.5 1274.19 1332.98 1269.69 1303.86 1266.59 1284.13 1261.28 1264.74 1253.94 1246.16 1249.92 1236.14 1243.6 1225.99 1233.12 1221.85 1228.77 1219.55 1223.7 1220.31 1219.11 1221.3Z" fill="#FFFEFE"/><path d="M1754.75 1244.69C1758.21 1240.4 1761.13 1235.19 1766.01 1232.39 1770.22 1234.04 1772.64 1238.21 1775.18 1241.73 1783.68 1254.99 1789.79 1269.59 1795.75 1284.12 1808.95 1317.05 1819.29 1351.02 1829.21 1385.05 1837.17 1412.43 1844.48 1439.99 1851.42 1467.64 1851.83 1467.87 1852.63 1468.34 1853.03 1468.57 1853.38 1468.18 1854.08 1467.4 1854.43 1467.01 1856.63 1472.55 1857.33 1479.05 1855.67 1484.83 1853.63 1490.1 1847.2 1489.26 1843.08 1491.61 1844.15 1489.99 1843.34 1487.59 1841.09 1488.36 1820.31 1490.56 1798.96 1489.87 1778.76 1484.17 1764.22 1480.1 1751.05 1472.13 1739.6 1462.41 1724.42 1449.48 1711.62 1433.91 1701.01 1417.08 1700.27 1417.14 1698.79 1417.28 1698.05 1417.34 1696.17 1413.66 1694.09 1410.02 1693.08 1405.99 1691.61 1400.71 1691.93 1395.19 1692.13 1389.8L1692.44 1389.74C1694.16 1389.53 1695.97 1389.06 1696.04 1386.97 1700.43 1368.76 1705.73 1350.77 1711.84 1333.07 1722.6 1302.09 1735.87 1271.64 1754.75 1244.69M1743.08 1279.13C1737.91 1280.94 1734.89 1285.94 1732.25 1290.43 1722.92 1307.34 1719.99 1326.9 1719.16 1345.96 1718.67 1365.71 1719.71 1385.77 1725.15 1404.87 1727.1 1410.84 1729.25 1417.47 1734.62 1421.27 1737.92 1423.63 1742.58 1423.18 1745.61 1420.55 1751.21 1415.89 1754.42 1409.09 1757.35 1402.57 1769.94 1372.47 1771.06 1338.31 1763.27 1306.83 1761.32 1299.53 1759.1 1292.2 1755.36 1285.61 1752.74 1281.67 1748 1278.18 1743.08 1279.13Z" fill="#FFFEFE"/></g><g id="#7e2a1eff"><path d="M1838.56 1846.5C1854.35 1841.09 1874.08 1842.09 1886.24 1854.7 1890 1857.71 1891.61 1862.64 1895.5 1865.45L1895.91 1865.74C1897.32 1877.27 1896.16 1888.95 1893.76 1900.27 1881.57 1890.5 1871.92 1877.63 1858.32 1869.65 1851.1 1865.26 1841.9 1864.75 1834.23 1868.28 1821.07 1874.09 1810.56 1884.4 1801.06 1894.96 1804.46 1883.68 1809.03 1872.78 1812.27 1861.45L1812.63 1861.22C1820.9 1855.72 1828.89 1849.4 1838.56 1846.5Z" fill="#7E2A1E"/><path d="M1773.06 1968.09C1774.6 1964.44 1775.88 1960.69 1777.48 1957.08 1785.27 1972.66 1799.87 1983.03 1811.77 1995.25 1822.71 2004.62 1833.63 2014.22 1842.09 2025.98 1845.64 2030.39 1850.24 2033.82 1853.8 2038.26 1857.15 2042.59 1861.89 2045.48 1866.02 2049.01 1877.23 2057.99 1890.62 2063.5 1902.68 2071.18 1909.31 2075.17 1915.24 2080.24 1922.22 2083.66 1929.81 2088.38 1938.19 2091.55 1946.11 2095.68 1965.34 2103.79 1984.51 2112.02 2003.49 2120.71 2011.61 2124.57 2020.95 2125.54 2028.47 2130.7 2030.39 2131.81 2032.7 2133.54 2034.95 2132.1 2038.65 2129.83 2042.98 2130.72 2047.07 2130.31 2051.41 2128.64 2055.59 2126 2058.25 2122.1 2061.18 2118.09 2064.22 2114.16 2067.37 2110.32 2070.11 2107 2074.1 2105.14 2077.27 2102.31 2084.39 2095.61 2090.29 2087.1 2099.28 2082.76 2095.3 2087.6 2090.36 2091.53 2086.09 2096.09 2073.88 2108.4 2062.98 2122.03 2053.65 2136.64 2036.22 2164.8 2025.69 2196.71 2018.95 2228.98 2017.54 2236.26 2016.05 2243.55 2015.33 2250.94 2014.94 2252.76 2015.95 2254.52 2017.62 2255.36 2019.68 2255.96 2021.62 2253.97 2021.78 2252.01 2026.85 2217.02 2036.43 2182.33 2053.05 2150.98 2067.6 2123.6 2089.14 2100.6 2112.63 2080.66 2117.34 2076.68 2122.16 2072.83 2127.17 2069.23 2128.76 2067.83 2131.41 2066.47 2130.62 2063.95 2130.61 2061.63 2127.71 2061.72 2126.12 2061.64 2130.71 2059.41 2134.95 2056.55 2139.52 2054.28 2147.23 2050.09 2156.09 2048.42 2163.48 2043.58 2174.18 2037.11 2185.63 2032.05 2196.59 2026.07L2197.04 2025.82C2201.31 2026.8 2205.62 2027.68 2209.97 2028.41 2196.7 2037.66 2183 2046.28 2170.03 2055.94 2143.21 2075.45 2117.48 2096.6 2094.25 2120.31 2083.54 2131.3 2074.32 2145.21 2073.79 2161.01 2073.09 2164.83 2074.32 2169.41 2071.34 2172.47 2061.97 2184.21 2053.84 2197.01 2047.71 2210.74 2038.23 2232.03 2036.08 2256.36 2041.12 2279.08 2043.79 2291.44 2049.02 2303.03 2053.09 2314.97 2041.98 2314.58 2030.34 2312.49 2021.24 2305.7 2011.11 2298 2004.34 2286.92 1998.11 2276.05 1988.52 2258.93 1980.32 2241 1969.18 2224.79 1951.28 2198.53 1928.18 2176.5 1907.23 2152.78 1879.06 2121.15 1852.81 2087.9 1825.66 2055.41 1816.32 2044.1 1806.61 2033.1 1797.13 2021.92 1790.01 2013.38 1783.32 2004.31 1778.95 1994.03 1776.06 1987.22 1773.8 1980.15 1772.14 1972.96 1771.61 1971.24 1772.46 1969.61 1773.06 1968.09Z" fill="#7E2A1E"/><path d="M1767.45 1981.85C1770.02 1989.79 1772.75 1997.73 1776.92 2005 1779.57 2009.87 1782.87 2014.34 1786.02 2018.9 1779.36 2020.62 1771.88 2022.5 1765.32 2019.47 1760.78 2017.14 1759.04 2012.05 1756.56 2007.95 1760.1 1999.21 1763.96 1990.61 1767.45 1981.85Z" fill="#7E2A1E"/><path d="M958.31 2026.64C956.37 2023.96 959.5 2021.38 960.98 2019.36 969.19 2029.98 978.47 2039.68 987.27 2049.79 992.09 2055.93 998.16 2060.91 1003.17 2066.88 1016.74 2084.82 1031.53 2101.78 1046.4 2118.64 1051.38 2123.75 1056.77 2128.49 1061.18 2134.14 1054.04 2131.4 1047.82 2126.74 1041.35 2122.75 1018.59 2107.99 999.75 2087.98 983.77 2066.22 974.47 2053.57 965.88 2040.38 958.31 2026.64Z" fill="#7E2A1E"/><path d="M663.8 2051.77C664.16 2050.89 665.38 2049.18 666.21 2050.77 678.16 2064.06 692.59 2074.92 707.8 2084.22 712.07 2087.02 716.83 2089.05 721.01 2091.97 726.8 2106.76 732.8 2121.54 740.53 2135.46 768.02 2185.95 806.15 2229.37 842.56 2273.47 867.38 2303.77 891.61 2335.61 905.43 2372.65 912.48 2391.48 915.48 2411.87 925.41 2429.59 932.57 2441.79 944.96 2449.85 957.65 2455.44 968.27 2460.19 979.65 2462.88 991.03 2465.09 1019.04 2515.3 1053.54 2563.41 1099.95 2598.28 1073.15 2615.2 1045.28 2630.45 1016.31 2643.35 979.86 2659.73 942.23 2673.47 903.92 2684.84 896.74 2687 889.47 2689.01 882 2689.93 835 2696.9 787.44 2700.52 739.91 2699.45 695.15 2698.47 650.45 2694.22 606.35 2686.53 600.73 2685.41 594.9 2684.93 589.64 2682.52 573.65 2675.49 558.3 2666.96 544.02 2656.91 531.86 2648.27 520.42 2638.47 510.91 2626.94 496.47 2609.45 486.38 2588.43 481.57 2566.28 475.33 2536.65 478.67 2505.86 485.52 2476.64 486.86 2472.65 486.78 2467.9 489.65 2464.64 526.37 2431.43 558.25 2393.18 586.86 2352.86 588.71 2351.17 587.5 2347.32 584.8 2348.61 581.21 2352.18 578.65 2356.63 575.41 2360.51 543.52 2401.46 508.73 2440.47 468.85 2473.82 446.42 2492.52 422.74 2509.79 397.65 2524.75 384.37 2532.56 370.73 2539.93 356.25 2545.27 350.34 2547.27 344.22 2549.35 337.89 2549.1 336 2549.08 333.5 2548.22 333.45 2545.99 333.11 2540.57 334.68 2535.27 335.79 2530.03 342.12 2504.75 351.62 2480.41 361.21 2456.23 366.82 2442.29 372.64 2428.44 378.73 2414.72 379.62 2413.25 379.28 2411.65 379 2410.13 377.54 2410.43 375.3 2409.75 374.81 2411.68 365.45 2431.36 356.75 2451.35 348.59 2471.55 321.72 2481.87 293.76 2489.8 265.13 2493.28 241.86 2495.91 218.17 2496.51 194.97 2492.93 187.98 2491.57 180.54 2490.44 174.55 2486.33 171.04 2484.18 175.06 2480.64 176.93 2478.88 194.98 2463.71 216.04 2452.77 235.37 2439.4 248.94 2430.26 261.39 2419.5 272.65 2407.63 279.65 2400 286.87 2392.46 292.77 2383.94 292.27 2383.47 291.27 2382.53 290.77 2382.06 286.6 2385.43 283.28 2389.69 279.36 2393.34 267.46 2404.94 255.17 2416.2 242 2426.36 215.42 2420.29 189.81 2409.82 166.97 2394.89 151.42 2384.85 136.86 2373.24 123.74 2360.17 115.6 2351.93 107.79 2343.21 101.8 2333.26 100.01 2330.03 98.03 2326.69 97.81 2322.94 97.43 2320.6 100.27 2320.51 101.85 2320.27 108.29 2319.99 114.63 2321.47 120.95 2322.49 169.06 2331.4 218.45 2332.74 267.07 2327.64 268.37 2327.64 269.88 2326.98 271.1 2327.64 272.52 2328.42 273.8 2329.65 275.47 2329.97 286.56 2331.4 297.87 2332.49 308.99 2330.67 320.04 2330.74 330.98 2329.05 341.99 2328.25 356.29 2326.57 370.47 2323.87 384.49 2320.64 393.68 2318.02 402.35 2313.95 411.15 2310.29 425.47 2303.06 438.76 2293.99 452 2284.98 459.04 2280.12 465.64 2274.67 472.33 2269.34 474.65 2267.45 476.85 2265.4 478.69 2263.05 478.62 2262.57 478.47 2261.62 478.39 2261.14L478.35 2260.88C503.26 2245.62 526.01 2227.07 546.97 2206.78 571.99 2182.68 594.39 2155.96 614.95 2127.99 632.73 2103.59 649.29 2078.26 663.8 2051.77Z" fill="#7E2A1E"/><path d="M2106.51 2117.46C2109.44 2114.94 2111.72 2111.52 2115.28 2109.81 2113.26 2118.18 2109.68 2126.09 2107.82 2134.52 2107.28 2139.4 2107.37 2144.37 2107.86 2149.27 2109.39 2158.59 2110.12 2168.12 2113.13 2177.14 2116.37 2186.24 2120.11 2195.29 2125.9 2203.11 2130.93 2210.64 2138.44 2215.9 2144.42 2222.61 2150.85 2230.04 2160.83 2232.53 2170.03 2234.62 2180.71 2237.08 2191.83 2236.18 2202.5 2238.76L2203.35 2239.51C2184.07 2244.78 2163.85 2249.92 2143.79 2246.31 2110.09 2239.37 2082.3 2208.62 2080.05 2174.1 2079.64 2163.17 2080.85 2151.79 2086.1 2142.03 2091.14 2132.53 2098.91 2124.92 2106.51 2117.46Z" fill="#7E2A1E"/><path d="M2056.58 2207.61C2061.49 2198 2067.15 2188.72 2073.84 2180.26 2078.02 2208.56 2097.38 2233.51 2122.78 2246.21 2138.57 2286.29 2141.53 2329.76 2153.07 2371.02 2170.38 2433.96 2212.2 2489.98 2268.15 2523.76 2295.18 2540.05 2324.68 2552.03 2355.03 2560.56 2375.26 2566.08 2395.93 2570.48 2416.92 2571.63 2422.3 2571.79 2427.89 2571.94 2433.07 2570.18 2436.01 2569.23 2437.83 2566 2437.04 2562.99 2435.94 2557.71 2433.04 2553.05 2430.53 2548.36 2421.36 2532.48 2411.08 2517.29 2401.19 2501.86 2371.97 2456.7 2343.99 2410.69 2318.91 2363.08 2309.85 2346.09 2301.2 2328.85 2293.92 2311.03 2283.05 2284.07 2275.24 2255.95 2269.2 2227.55 2272.1 2226.92 2275.03 2226.33 2277.97 2225.79 2280.75 2245.42 2284.16 2265.03 2289.93 2284.03 2299.33 2315.66 2313.77 2345.51 2329.55 2374.41 2346.28 2404.88 2363.99 2434.83 2383.29 2463.76 2403.38 2493.99 2424.8 2523.33 2447.27 2551.83 2454.58 2561.44 2462.84 2570.37 2469.45 2580.51 2470.61 2582.83 2473.5 2586.43 2470.17 2588.31 2464.09 2592.41 2456.98 2594.58 2450.16 2597.09L2449.86 2596.87C2449.41 2596.54 2448.5 2595.87 2448.05 2595.54 2429.9 2595.7 2412.18 2590.45 2394.03 2590.32 2382.69 2588.71 2371.17 2587.7 2360.16 2584.4 2348.24 2581.11 2336.23 2577.93 2324.92 2572.88 2316.78 2569.05 2308.03 2566.74 2300.01 2562.65 2284.41 2556.41 2270.73 2546.5 2255.77 2538.99 2247.26 2534.82 2239.38 2529.54 2231.56 2524.23 2225.53 2519.71 2219.17 2515.53 2213.96 2510.05 2205.17 2501.16 2195.87 2492.65 2188.89 2482.19 2184.9 2475.89 2180.14 2470.1 2176.73 2463.46 2173.55 2457.45 2169.03 2452.31 2165.52 2446.51 2160.23 2438.47 2156.62 2429.5 2151.94 2421.13 2147.31 2411.75 2142.69 2402.35 2138.62 2392.74 2135.96 2382.57 2131.05 2373.22 2127.83 2363.26 2125.32 2355.81 2122.99 2348.3 2120.15 2340.99 2115.33 2327.14 2110.99 2313.11 2107.33 2298.92 2104.77 2286.05 2100.99 2273.46 2098.72 2260.53 2097.46 2252.99 2094.37 2245.97 2092.2 2238.69 2091.08 2235.38 2090.37 2231.75 2087.99 2229.09 2082.47 2222.91 2079.63 2214.94 2077.01 2207.24 2070.43 2208.45 2065.49 2213.62 2061.73 2218.83 2055.72 2228 2051.14 2238.18 2049.03 2248.98 2047.71 2254.56 2047.74 2260.34 2046.75 2265.99 2046.3 2268.3 2046.35 2270.68 2046.71 2273.03 2042.48 2250.92 2046.36 2227.58 2056.58 2207.61Z" fill="#7E2A1E"/><path d="M1206.68 2233.99C1207.41 2238.58 1207.03 2243.25 1207.04 2247.9 1192.21 2250.62 1177.47 2255.4 1164.98 2264.05 1146.59 2277.24 1135.69 2298.92 1132.22 2320.94 1129.48 2337.99 1131.58 2356.78 1142.05 2371 1151.93 2384.16 1167.18 2391.85 1182.32 2397.35 1177.54 2402.9 1171.63 2407.37 1166.07 2412.09 1152.24 2423.4 1136.54 2432.26 1120.12 2439.22 1113.07 2424.96 1104.17 2411.32 1092.01 2400.9 1081.8 2391.99 1068.88 2384.97 1055 2385.39 1037.7 2386.01 1021.87 2395.96 1011.16 2409.14 1000.05 2423.24 994.13 2440.72 990.85 2458.18 980.65 2456.54 970.67 2453.7 961.07 2449.92L961.1 2449.06C961.64 2440 956.89 2431.17 959.23 2422.17 960.57 2415.32 962.28 2408.22 966.57 2402.58 970.8 2398.36 973.47 2392.89 977.79 2388.77 982.07 2384.08 987.01 2380.07 991.34 2375.44 1006.91 2370 1022.5 2364.49 1037.37 2357.29 1063.43 2345.08 1087.85 2329.01 1108.08 2308.44 1110.39 2308.63 1111.86 2306.72 1113.42 2305.36 1118.11 2300.83 1123.66 2296.84 1126.63 2290.84 1128.78 2286.39 1131.01 2281.95 1133.97 2277.97 1141.71 2267.52 1150.04 2256.82 1161.96 2250.92 1170.68 2244.3 1180.36 2238.25 1191.39 2236.61 1195.96 2236.36 1200.57 2234.96 1205.12 2236.27 1205.51 2235.7 1206.29 2234.56 1206.68 2233.99Z" fill="#7E2A1E"/><path d="M1284.75 2282.69C1288.98 2283.56 1292.98 2285.2 1296.96 2286.84 1305.19 2290.25 1313.59 2293.28 1322.21 2295.57 1333.73 2299.01 1345.71 2300.39 1357.38 2303.22 1364.19 2304.91 1371.32 2304.75 1378.09 2306.58 1373.17 2315.12 1367.41 2323.17 1361.92 2331.37 1338.73 2314.98 1314.61 2299.9 1289.72 2286.24 1287.95 2285.2 1285.86 2284.49 1284.75 2282.69Z" fill="#7E2A1E"/><path d="M1143.49 2303.55 1144.08 2304.48C1144.21 2304.69 1144.48 2305.12 1144.62 2305.33 1151.06 2305.13 1157.25 2307.21 1163.61 2307.95 1170.86 2309.83 1177.47 2313.55 1184.47 2316.18 1196.33 2320.37 1208.02 2325.09 1219.41 2330.44 1225.62 2332.84 1231.21 2336.61 1237.55 2338.7 1243.46 2340.57 1248.28 2344.63 1253.69 2347.54 1268.26 2357.28 1284.52 2364.17 1298.9 2374.21 1303.65 2377.68 1306.94 2382.7 1311.49 2386.4 1325.75 2395.81 1340.34 2404.82 1353.82 2415.35 1362.6 2421.67 1371.54 2427.78 1380.17 2434.31 1372.37 2432.43 1364.92 2429.27 1357.11 2427.38 1313.52 2415.28 1268.13 2412.07 1224.08 2402.15 1208.58 2398.61 1193.07 2394.75 1178.34 2388.68 1168.27 2384.45 1158.38 2379.07 1150.8 2371.06 1143.75 2363.72 1139.84 2353.87 1138.48 2343.89 1136.65 2330.29 1138.86 2316.39 1143.49 2303.55Z" fill="#7E2A1E"/><path d="M146.14 2388.74C156.28 2395.77 166.35 2402.96 177.24 2408.85 195.18 2419.03 214.66 2426.24 234.58 2431.48 226.25 2438.09 216.9 2443.29 208 2449.09 202.76 2452.29 197.71 2455.8 192.41 2458.92 184.25 2450.57 176.31 2441.95 169.73 2432.28 160.34 2418.67 152.45 2404.02 146.14 2388.74Z" fill="#7E2A1E"/><path d="M1030.37 2400.36C1040.51 2393.91 1053.18 2389.98 1065.1 2393.24 1076.85 2396.39 1086.71 2404.25 1094.87 2413.01 1107.43 2426.65 1115.32 2443.73 1122.3 2460.7 1130.2 2480.08 1136.86 2499.99 1146.19 2518.76 1154.37 2535.44 1163.93 2551.42 1174.2 2566.9 1178.8 2574.15 1184.3 2580.82 1188.78 2588.15 1183.4 2587.49 1178.05 2586.57 1173.19 2584.08 1153.84 2576.59 1136.88 2564.42 1119.1 2553.98 1110.58 2548.57 1102.55 2542.45 1094.22 2536.77 1086 2531.12 1078.52 2524.49 1070.96 2518.02 1064.79 2512.89 1059.72 2506.58 1053.44 2501.59 1047.64 2496.9 1043.97 2490.28 1039.63 2484.36 1028.78 2469.32 1019.06 2453.52 1009.29 2437.78 1008.09 2435.93 1006.75 2434.21 1005.37 2432.55L1005.11 2432.23C1010.47 2419.6 1018.75 2407.92 1030.37 2400.36Z" fill="#7E2A1E"/><path d="M1189.45 2400.37C1197.21 2402.04 1204.8 2404.82 1212.62 2406.49 1239.42 2413.09 1266.75 2417.09 1294 2421.33 1295.85 2421.26 1294.36 2423.28 1293.81 2423.92 1268 2453.62 1241.58 2482.82 1213.75 2510.64 1200.03 2524.2 1186.28 2537.8 1171.31 2550 1162.82 2536.09 1154.88 2521.81 1148.16 2506.95 1139.12 2486.69 1132.21 2465.56 1123.19 2445.29 1139.88 2438.26 1155.8 2429.21 1169.88 2417.77 1176.72 2412.33 1183.15 2406.4 1189.45 2400.37Z" fill="#7E2A1E"/><path d="M398.19 2532.19C426.88 2515.36 453.77 2495.57 479.02 2473.96 472.73 2502.74 468.87 2532.69 473.9 2561.99 478.17 2586.13 488.41 2609.22 503.57 2628.5 520.05 2649.36 542.04 2665.1 565.1 2677.93 523.53 2668.7 482.96 2655.01 443.99 2637.87 397.08 2617.12 352.37 2591.65 309.48 2563.58 280.4 2544.38 251.98 2524.13 224.91 2502.18 252.84 2502.38 280.82 2499.11 307.8 2491.8 320.42 2488.52 332.84 2484.48 345.13 2480.12 338.27 2498.75 331.18 2517.44 327.47 2537.01 326.82 2541.15 326.06 2545.55 327.51 2549.64 328.98 2553.45 333.08 2555.44 336.97 2555.78 343.35 2556.26 349.62 2554.44 355.65 2552.56 370.57 2547.47 384.57 2540.06 398.19 2532.19Z" fill="#7E2A1E"/></g><g id="#1d3a50ff"><path d="M1598.06 2255.27C1606.74 2250.66 1614.89 2245.15 1623.24 2239.99 1619.58 2247.12 1614.34 2253.32 1609.92 2260 1587.28 2292.23 1562.89 2323.27 1536.09 2352.14 1513.18 2376.86 1489.03 2400.47 1463.83 2422.82 1451.72 2409.77 1439.51 2396.68 1426.4 2384.57 1407.76 2366.88 1387.67 2350.78 1367.27 2335.19 1377.42 2320.05 1387.19 2304.65 1397.14 2289.39 1401.16 2291.32 1405.69 2291.49 1410.08 2291.58 1421.74 2291.5 1433.41 2291.53 1445.08 2291.55 1456.05 2291.36 1467.08 2292.23 1477.97 2290.55 1484.24 2290 1490.44 2288.85 1496.66 2287.9 1512.38 2286.32 1527.73 2282.34 1542.89 2278.04 1552.22 2275.74 1561.48 2273 1570.44 2269.54 1579.68 2264.85 1589.03 2260.36 1598.06 2255.27Z" fill="#1D3A50"/><path d="M1300.13 2426.98C1301.72 2425.3 1303.1 2422.27 1305.93 2423.32 1326.96 2426.87 1347.92 2431.19 1368.26 2437.67 1386.38 2443.52 1404.33 2450.07 1421.71 2457.88 1391.9 2480.78 1360.85 2502.06 1329.11 2522.19 1295.21 2543.36 1260.09 2562.54 1224.37 2580.43 1216.32 2584.31 1208.44 2588.56 1200.21 2592.06 1191.42 2580.29 1183 2568.24 1175.07 2555.87 1202.6 2532.58 1227.65 2506.54 1252.37 2480.34 1268.57 2462.8 1284.5 2445.03 1300.13 2426.98Z" fill="#1D3A50"/><path d="M1103.81 2603.84C1105.85 2602.02 1107.94 2604.16 1109.69 2605.32 1118.79 2611.98 1128.54 2617.69 1138.11 2623.65 1077.52 2645.96 1015.25 2663.6 952.15 2677.24 950.76 2677.47 949.35 2677.61 947.96 2677.77 983.66 2665.21 1018.78 2650.83 1052.41 2633.44 1070.01 2624.41 1087.04 2614.32 1103.81 2603.84Z" fill="#1D3A50"/></g></svg>