<svg width="1333.33" height="1333.33" viewBox="0 0 1000 1000" xmlns="http://www.w3.org/2000/svg" xmlns:xlink="http://www.w3.org/1999/xlink" overflow="hidden"><g id="#000000ff"><path d="M559.74 154.78C578.91 147.34 599.26 141.71 619.99 142.16 634.63 142.41 648.98 147.05 661.49 154.56 678.44 164.69 692.66 178.79 705.1 194 727.91 222.37 743.47 255.91 754.47 290.44 762.29 315.12 768 340.45 771.94 366.03 774.4 383.15 776.3 400.47 775.7 417.79 774.06 438.64 771.03 459.36 767.88 480.02 771.49 499.9 776.99 519.5 784.88 538.12 790.57 551.39 798.82 564.16 799.7 578.96 800.48 590.37 797.81 603.03 789.04 611 777.32 621.2 758.36 621.31 746.22 611.76 742.55 608.99 739.6 605.42 737 601.67 725.25 632.59 709.84 662.76 687.16 687.16 658.99 717.93 618.65 734.72 578.13 741.52 598.18 788.39 607.34 839.21 610.3 889.91 610.64 900.11 611.29 910.49 609.21 920.56 609.04 922.42 607.02 924.72 605.17 923.07 601.67 920.12 599.82 915.76 597.55 911.89 596.97 922.5 596.08 933.17 593.53 943.52 592.73 945.82 592.43 948.94 589.91 950.06 588.15 949.82 587.2 948.24 586.25 946.96 582.52 941.39 580.13 935.04 578.35 928.62 577.39 937.5 576.28 946.43 573.72 955.02 573.04 956.92 572.58 959.09 570.95 960.45 568.26 961.55 566.58 958.46 565.41 956.6 560.56 947.65 557.56 937.85 554.32 928.24 552.99 937.27 551.71 946.51 547.91 954.9 547.1 956.72 545.35 959.27 543.04 958.06 540.35 956.26 539.17 953.05 537.82 950.26 532.67 937.96 529.45 924.98 526 912.14 524.49 924.72 523.67 937.57 519.62 949.67 518.9 951.99 517.08 955.61 514.07 954.06 511.06 951.93 509.53 948.41 507.92 945.23 503.18 934.85 500.05 923.82 497.26 912.79 488.64 877.93 485.62 841.72 488.5 805.92 490.05 785.19 492.9 764.53 497.24 744.19 473.99 741.96 450.97 737.21 428.81 729.8 413.38 787.29 394.97 844.46 367.08 897.25 361.66 907.16 356.23 917.21 348.88 925.85 346.8 927.97 344.33 930.9 341.03 930.35 338.56 928.36 339.71 924.74 339.82 922.04 342.23 906.62 346.99 891.71 351.2 876.72 343.77 889.53 336.09 902.25 327.03 913.99 323.38 918.59 319.58 923.16 314.97 926.85 313.87 927.85 311.74 928.65 310.82 927 309.71 923.69 311.03 920.16 311.54 916.85 316.05 897.46 322.81 878.7 328.89 859.77 318.6 877.9 308.64 896.34 296.01 912.98 291.33 918.65 286.39 925.08 279.04 927.26 274.84 928.12 274.89 922.76 275.69 920.08 278.86 906.54 284.69 893.82 290.03 881.04 293.34 873.35 296.86 865.75 300.27 858.11 288.49 873.27 277.22 888.99 263.46 902.46 260.8 904.59 257.87 908.2 254.09 907.14 250.78 904 252.57 898.85 253.16 894.92 258.04 875.06 266.71 856.38 275.48 837.99 265.21 851.98 255.15 866.38 242.27 878.17 237.95 881.91 233.45 885.92 227.88 887.62 225.43 888.44 223.08 886.4 222.92 883.98 222.27 877.53 224.51 871.23 226.31 865.13 233.13 844.88 242.78 825.72 253.19 807.1 278.31 761.93 312.1 722.17 349.3 686.51 321.38 664.09 298.39 634.96 285.63 601.33 277.18 579.32 272.99 555.52 274.69 531.95 275.68 517.98 278.23 504.15 281.74 490.6 269.1 494.68 255.03 495.2 242.46 490.61 232.19 486.88 223.18 478.93 219.39 468.55 215.98 459.31 217.79 448.83 222.46 440.37 227.24 431.38 235.53 424.75 244.7 420.61 264.61 411.33 287.29 410.46 307.19 401.18 325.59 366.98 346.45 334.07 370.28 303.39 383.03 287.22 395.23 270.35 411 256.93 438.43 233.17 466.77 210.39 496.66 189.78 516.51 176.17 537.32 163.69 559.74 154.78M562.29 156.16C538.64 165.33 516.8 178.55 496 192.94 465.89 213.85 437.35 236.94 409.71 260.99 420.45 259.29 431.31 258.5 442.16 257.76 467.75 256.26 493.37 255.44 519 255.35 539.67 255.36 561.36 255.42 580.35 264.67 594.34 271.3 603.92 284.25 617.43 291.58 628.67 297.58 641.9 295.09 653.79 292.75L653.25 292.07 653.81 292.69C657.96 291.82 662.1 290.86 666.2 289.77 673.07 288.13 679.96 286.48 686.99 285.74L686.28 285.2 687 285.69C701.08 283.7 715 289.42 725.56 298.5 730.93 303.03 735.9 308.03 740.53 313.32 743.71 317.13 746.84 320.97 749.84 324.92 755.83 333.13 761.64 341.48 766.98 350.13 765.2 340.5 763.18 330.91 760.8 321.4 759.85 317.49 758.91 313.58 757.79 309.72 756.51 304.84 755.09 300.01 753.64 295.18L753.55 295.19C742.47 258.62 726.13 223.06 701.73 193.39 690.19 179.59 677.12 166.78 661.74 157.31 657.23 154.52 652.49 152.06 647.54 150.17L647.59 150.1C644.21 148.75 640.74 147.62 637.22 146.72 612.06 140.6 585.95 147.32 562.29 156.16M407.07 263.85C403.23 266.73 400.13 270.53 396.86 274.03 407.99 271.94 419.11 269.73 430.39 268.56 462.89 264.94 495.63 267.38 528.1 270.12 544.36 271.54 560.99 272.62 576.36 278.59 588.74 283.32 599.22 291.61 610.35 298.59 618.62 303.77 627.97 308.29 637.99 307.79 654.87 307.06 671.05 300.59 688.03 300.82 699.09 300.94 709.76 305.05 718.96 311.01 740.48 325.19 755.26 346.9 769.86 367.61 769.26 363.53 768.95 359.34 767.67 355.42 757.96 339.79 747.68 324.39 735.23 310.79 725.2 300.13 713.07 289.66 697.97 287.91 682.12 286.51 667 292.56 651.66 295.43 640.29 297.58 627.74 299.37 617.01 293.86 603.55 286.94 594.16 274.23 580.67 267.33 564.53 258.93 545.88 257.85 528.04 257.61 509.07 257.48 490.1 257.87 471.15 258.58 449.76 259.65 428.17 259.96 407.07 263.85M394.27 277.03C386.06 287.27 378.19 297.79 369.85 307.94 377.5 310.83 384.37 315.36 391.12 319.89 406.93 330.8 421.84 343.01 435.55 356.47 448.43 369.24 460.38 382.9 472.72 396.19 483.24 407.79 494.27 419.09 507.21 428.01 512.65 431.8 518.22 435.49 524.24 438.3 533.11 442.72 543.51 445.02 553.23 442.22 568.48 437.94 581.81 427.55 597.96 426.38 609.62 425.57 619.92 432.43 628.39 439.68 640.2 449.57 649.88 462.96 664.93 468.2 669.81 469.95 674.95 470.97 680.14 471.19 696.64 472.17 712.44 465.2 725.45 455.53 740.88 444.06 756.44 432.71 772.79 422.57 773.63 419.8 773.47 416.84 773.64 413.98 773.74 400.4 772.4 386.85 770.57 373.42 759.82 356.3 747.87 339.78 733.47 325.53 721.72 314.22 707.13 304.18 690.36 303.19L690.39 303.08C686.92 302.95 683.45 303.08 680 303.4 665.87 304.8 652.21 309.41 637.99 310.04 628.17 310.48 618.88 306.4 610.67 301.38 597.09 293.04 584.4 282.44 568.67 278.39L568.71 278.29C565.91 277.53 563.1 276.82 560.26 276.27 551.26 274.35 542.08 273.58 532.93 272.76 506.36 270.51 479.7 268.24 453.01 269.18 433.23 269.77 413.54 272.6 394.27 277.03M368.23 309.89C367.07 311.14 366.03 312.5 365.14 313.95 380.82 326.09 396.48 338.37 410.53 352.42 437.59 378.79 461 408.58 487.46 435.52 498.96 446.91 512 458.24 528.3 461.61 545.12 464.84 561.88 458.39 576.37 450.32 585.6 445.14 596.07 440.88 606.87 442.44 614.83 443.31 621.77 448.23 626.27 454.7 632.98 463.53 637.49 474.64 647.34 480.61 659.03 487.61 673.56 487.48 686.47 484.48 705.81 479.7 722.77 468.46 738.19 456.21 749.6 447.35 759.63 436.79 771.51 428.54 771.7 427.83 772.09 426.41 772.28 425.7 763.86 430.58 755.96 436.31 747.94 441.82 735.87 450.11 724.81 460.01 711.64 466.59 696.52 474.09 678.16 476.02 662.33 469.59 647.86 463.85 638.37 450.93 626.76 441.22 618.74 434.41 609.08 427.83 598.06 428.61 582.84 429.8 570.14 439.26 555.91 443.77 545.46 447.38 533.94 445.46 524.18 440.75 509.76 433.71 496.87 423.77 485.36 412.65 462.88 390.1 443.12 364.83 418.83 344.1 406.7 333.72 393.99 323.95 380.36 315.61 376.49 313.39 372.59 311.01 368.23 309.89M363.59 315.93C343.86 342.39 326.4 370.49 310.66 399.49 320.84 393.95 329.65 386.27 337.98 378.29L339.27 378.77 339.29 379.91C328.41 390.87 315.93 400.8 301.26 406.12 289.22 410.49 276.56 412.72 264.24 416.11 250.45 419.9 235.66 425.13 227.02 437.28 221.2 445.28 218.22 455.82 220.77 465.56 223.5 475.45 231.4 483.35 240.65 487.44 251.41 492.18 263.71 492.63 275.09 490.11 297.85 484.65 316.58 469.05 331.79 451.89 345.91 435.69 357.72 417.51 367.2 398.24 367.24 396.5 370 395.85 369.72 398.03 359.31 419.64 345.9 439.92 329.62 457.58 316.92 471.14 301.96 483.14 284.4 489.67 283.32 492.91 282.61 496.26 281.86 499.59 281.29 501.87 280.81 504.17 280.42 506.49 278.56 515.34 277.45 524.33 276.84 533.35 276.35 541.16 276.47 549.02 277.31 556.81 280.28 588.69 293.19 619.28 312.15 644.94 334.55 675.08 365.02 698.75 398.69 715.1 440.35 735.17 486.94 744.05 533.04 743.34 573.25 742.6 614.28 734.75 649.41 714.45 672.77 701.12 692.01 681.3 706.35 658.69 708.19 655.88 710.05 653.06 711.66 650.12 716.74 641.69 721.28 632.93 725.29 623.95 726.09 622.28 726.89 620.6 727.55 618.88 745.08 578.71 755.41 535.81 763.34 492.84 766.9 472.31 770.09 451.66 772.25 430.86 762.85 437.02 755.07 445.27 746.37 452.34 729.61 466.45 711.28 479.72 689.98 485.88 675.91 489.8 660.03 490.25 646.81 483.31 637.32 478.15 631.68 468.55 626.27 459.62 622.25 453.85 617.68 447.64 610.61 445.55 600.19 442.41 589.18 445.88 579.98 450.94 568.7 457.15 556.79 462.86 543.84 464.31 532.88 465.79 521.6 463.37 511.99 457.97 497.61 449.98 486.11 437.92 475.03 425.99 450.67 399.37 427.76 371.31 401.3 346.68 389.36 335.7 376.77 325.37 363.59 315.93M766.76 486.18C760.12 524.46 751.3 562.48 738.01 599.03 742.22 606 748.43 612.08 756.26 614.73 767.03 618.46 780.12 616.56 788.47 608.5 795.78 601.08 798.03 590.07 797.55 579.98 797.11 568.8 792.08 558.57 787.33 548.68 777.56 528.95 771.24 507.68 766.76 486.18M351.09 688.03C338.67 699.62 326.81 711.86 315.58 724.61 313.53 726.82 311.48 729.03 309.56 731.35L309.6 731.41C309.21 731.85 308.43 732.73 308.05 733.16 279.96 765.44 256.5 801.72 238.53 840.55 233.34 852.14 228.26 863.93 225.58 876.4 225.21 879.35 224.14 882.81 225.96 885.48 228.26 885.71 230.25 884.29 232.16 883.21 240.15 878.07 246.66 871 252.87 863.88 264.95 849.64 275.51 834.19 285.39 818.37 293.85 803.99 301.89 789.34 311.07 775.41L312.53 775.59 312.63 776.85C298.41 799.69 284.8 822.98 273.44 847.4 266.75 861.94 260.34 876.71 256.09 892.18 255.17 896.44 253.61 900.95 254.98 905.28 257.34 904.99 259.11 903.26 260.86 901.82 266.98 896.26 272.29 889.9 277.56 883.56 287.18 871.77 296.44 859.69 305.25 847.29 313.95 829.28 322.54 811.2 331.58 793.35 331.94 793.07 332.66 792.51 333.02 792.23 333.19 792.66 333.52 793.52 333.69 793.96 321.75 818.07 309.91 842.25 298.8 866.77 291.99 881.99 285.11 897.24 279.85 913.08 278.77 917 277.1 921.02 277.73 925.16 281.84 924.62 285.04 921.6 287.93 918.86 295.11 911.51 300.73 902.83 306.24 894.2 324.61 864.42 340.54 833.17 358.95 803.44L360.17 803.86 360.36 804.87C351.91 819.63 343.21 834.26 334.97 849.14 327.92 869.98 320.58 890.76 314.97 912.05 313.92 916.56 312.54 921.1 312.65 925.78 320.63 919.66 326.43 911.24 332.2 903.12 352.44 873.22 368.26 840.57 382.34 807.41 382.69 807.4 383.39 807.39 383.74 807.38 384.05 808.4 383.94 809.38 383.4 810.33 375.37 829.77 366.32 848.78 356.38 867.32 351.55 883.79 346.33 900.19 342.91 917.04 342.29 920.77 341.33 924.57 341.92 928.38 344.8 927.39 346.77 924.92 348.66 922.67 353.78 916.23 357.94 909.1 361.99 901.96 378.72 871.5 392.08 839.28 403.3 806.42 405.31 800.86 407.15 795.23 408.9 789.59L408.98 789.62C409.77 787.08 410.9 784.57 411 781.89L411.53 781.9C416.85 764.39 422.14 746.86 426.63 729.12 399.46 719.58 373.75 705.82 351.09 688.03M499.51 744.44C495.1 764.88 492.14 785.67 490.73 806.54 490.48 810.74 489.99 814.95 490 819.17 488.52 850.39 491.99 881.76 499.38 912.11 502.34 923.69 505.55 935.32 510.82 946.09 512.16 948.33 513.2 951.26 515.83 952.27 518.52 947.94 519.3 942.78 520.37 937.88 523.26 921.75 524.37 905.38 525.4 889.05 526.56 869.55 527.1 850.02 527.45 830.49 527.89 830.34 528.78 830.03 529.22 829.88 530.13 834.81 529.22 839.92 529.36 844.93 528.97 864.95 527.97 884.96 526.63 904.94 530.3 920.15 534.09 935.46 540.11 949.95 541.37 952.08 542.02 955.28 544.65 956.09 549.41 947.9 550.47 938.22 551.96 929.03 556.35 894.22 555.4 858.98 552.6 824.08 552.5 821.78 552.28 819.48 551.98 817.21 552.76 817.2 553.55 817.16 554.34 817.1 554.44 819.15 554.59 821.21 554.81 823.27 557.49 856.42 558.31 889.81 555.05 922.94 557.91 932.43 561.05 941.87 565.04 950.96 566.38 953.65 567.49 956.66 569.9 958.61 573.65 950.2 574.55 940.87 575.76 931.83 577.9 912.3 578.09 892.56 576.45 872.98 574.9 855.55 571.72 838.3 567.79 821.26L567.45 821.31C567.77 819.1 566.36 817.04 566.32 814.83 566.77 814.7 567.65 814.45 568.1 814.32 569.31 816.97 569.55 819.94 570.37 822.73 578.06 854.86 581.48 888.1 578.99 921.1 580.83 930.47 583.59 940.02 589.55 947.67 591.18 945 591.62 941.83 592.32 938.85 594.54 927.36 595.32 915.66 595.58 903.99 596.21 876.08 590.8 848.38 582.43 821.87 581.26 820.28 583.73 818.34 584.34 820.65 593.31 848.51 598.74 877.75 597.74 907.1 600.22 912.1 602.51 917.55 606.67 921.41 607.88 917.39 608.11 913.16 608.33 909 608.74 894.3 607.56 879.62 606.08 865.02 604.04 845.73 601.19 826.5 596.92 807.58 596.19 803.82 595.17 800.13 594.22 796.44 589.75 777.79 583.25 759.64 575.84 741.97 550.61 745.81 524.94 746.56 499.51 744.44Z"/><path d="M561.52 379.69C563.48 378.5 566.77 380.97 565.18 383.09 563.19 385.25 558.69 381.74 561.52 379.69Z"/><path d="M518.7 384.03C519.14 382.36 520.55 381.46 522.07 380.89 524.68 381.16 524.89 384.54 522.93 385.81 521.26 386.5 518.9 386.18 518.7 384.03Z"/><path d="M495.8 390.12C494.11 387.31 498.85 384.54 499.83 387.99 499.25 389.68 497.3 393.12 495.8 390.12Z"/><path d="M543.48 389.56C546.62 388.68 547.11 393.86 543.87 393.76 540.76 394.5 540.87 389.85 543.48 389.56Z"/><path d="M576.43 395.73C578.44 394.2 581.87 396.13 580.66 398.68 579.15 401.97 573 398.09 576.43 395.73Z"/><path d="M560.59 401.81C562.13 401.31 563.93 402.37 564.27 403.98 563.54 405.9 560.43 407.89 558.7 406.03 557.73 404.43 559.01 402.39 560.59 401.81Z"/><path d="M659.51 401.62C660.86 400.78 662.79 401.27 663.01 403.02 662.36 404.73 660.04 405.57 658.49 404.57 657.61 403.43 658.25 402.08 659.51 401.62Z"/><path d="M519.91 402.62C521.12 402.3 522.85 402.03 523.58 403.38 524.64 406.08 520.2 407.41 518.82 405.26 519.03 404.32 519.3 403.38 519.91 402.62Z"/><path d="M643.41 413.36C645.18 412.86 648.12 414.47 646.52 416.46 644.89 417.61 641.95 417.37 641.64 415.05 642.08 414.63 642.97 413.78 643.41 413.36Z"/><path d="M536.25 418.04C536.93 416.11 539.27 416.58 540.51 417.65 540.53 418.73 541.06 420.26 539.82 420.88 538.27 422.44 534.79 419.95 536.25 418.04Z"/><path d="M656.81 421.94C658.88 419.64 662.79 421.92 661.84 424.87 660.17 427.12 656.09 424.32 656.81 421.94Z"/></g><g id="#e2af2fff"><path d="M562.29 156.16C585.95 147.32 612.06 140.6 637.22 146.72 635.99 153.03 633.11 158.79 630.66 164.67 627.6 171.8 628.34 179.92 625.02 186.98 621.47 194.92 619.12 203.4 618.29 212.07 617.3 219.14 616.32 226.5 618.56 233.44 621.64 246.4 628.1 258.32 636.19 268.81 639.42 273 641.63 277.88 644.95 282.01 647.66 285.41 650.52 288.69 653.25 292.07L653.79 292.75C641.9 295.09 628.67 297.58 617.43 291.58 603.92 284.25 594.34 271.3 580.35 264.67 561.36 255.42 539.67 255.36 519 255.35 493.37 255.44 467.75 256.26 442.16 257.76 431.31 258.5 420.45 259.29 409.71 260.99 437.35 236.94 465.89 213.85 496 192.94 516.8 178.55 538.64 165.33 562.29 156.16M534.67 174.68C532.9 178.05 535.59 183.5 539.73 182.72 542.93 182.07 543.64 177.6 541.5 175.47 539.83 173.46 536.86 174.12 534.67 174.68M610.35 191.25C607.84 192.71 606.35 195.98 608.76 198.31 611.33 199.49 615.02 200.51 617.37 198.35 620.52 194.39 614.23 188.18 610.35 191.25M481.35 210.33C478.22 210.99 477.42 215.39 479.35 217.64 480.97 220.08 484.91 219.82 486.46 217.46 488.57 214.33 485.25 208.82 481.35 210.33M544.29 215.16C542.63 215.82 541.97 217.49 542.41 219.17 544.93 220.04 547.45 221.02 550.03 221.72 554.72 221.73 554.53 214.57 550.79 213.22 548.42 212.52 546.33 214.24 544.29 215.16M559.42 244.44C557.27 245.2 554.63 247.35 555.63 249.94 556.62 252.22 559.48 254.4 561.97 252.96 565.66 250.95 563.36 244.2 559.42 244.44M483.23 249.25C482.23 249.83 480.59 250.28 480.52 251.65 479.79 254.93 485.36 256.56 486.84 253.8 488.44 251.57 485.85 248.03 483.23 249.25Z" fill="#E2AF2F"/><path d="M363.59 315.93C376.77 325.37 389.36 335.7 401.3 346.68 427.76 371.31 450.67 399.37 475.03 425.99 486.11 437.92 497.61 449.98 511.99 457.97 521.6 463.37 532.88 465.79 543.84 464.31 556.79 462.86 568.7 457.15 579.98 450.94 589.18 445.88 600.19 442.41 610.61 445.55 617.68 447.64 622.25 453.85 626.27 459.62 631.68 468.55 637.32 478.15 646.81 483.31 660.03 490.25 675.91 489.8 689.98 485.88 711.28 479.72 729.61 466.45 746.37 452.34 755.07 445.27 762.85 437.02 772.25 430.86 770.09 451.66 766.9 472.31 763.34 492.84 755.41 535.81 745.08 578.71 727.55 618.88 715.02 624.41 703.85 632.48 691.77 638.85 683.24 643.97 674.49 648.81 665.12 652.18 660.23 653.73 655.03 653.16 650 653.22 633.99 653.18 617.98 653.19 601.98 653.2 567.69 652.27 533.92 645.75 499.99 641.23 480.5 638.91 460.99 636.18 442 631.08 426.99 627.43 412.57 621.11 400.01 612.09 386.99 603.33 374.21 594.06 363.07 582.96 356.64 577.42 350.82 571.19 344.08 566 331.87 555.53 318.3 546.45 307.85 534.07 298.95 522.76 290.49 511.1 281.86 499.59 282.61 496.26 283.32 492.91 284.4 489.67 301.96 483.14 316.92 471.14 329.62 457.58 345.9 439.92 359.31 419.64 369.72 398.03 370 395.85 367.24 396.5 367.2 398.24 357.72 417.51 345.91 435.69 331.79 451.89 316.58 469.05 297.85 484.65 275.09 490.11 271.56 485.06 268.24 479.86 264.69 474.82 265.62 473.2 267.08 471.21 265.78 469.36 264.95 467.4 262.67 467.15 260.81 467.24 256.95 465.53 255.22 461.44 252.54 458.46 248.81 454.23 244.75 450.29 240.5 446.59 236.33 443.02 231.25 440.76 227.02 437.28 235.66 425.13 250.45 419.9 264.24 416.11 276.56 412.72 289.22 410.49 301.26 406.12 315.93 400.8 328.41 390.87 339.29 379.91L339.27 378.77 337.98 378.29C329.65 386.27 320.84 393.95 310.66 399.49 326.4 370.49 343.86 342.39 363.59 315.93M405.22 367.32C403.07 369.4 402.86 373.69 406.24 374.6 409.87 376.31 413.35 371.58 411.48 368.4 410.11 366.35 407.27 367.2 405.22 367.32M328.45 413.4C325.22 415.88 329.58 420.54 332.67 418.59 335.74 416.07 331.57 409.79 328.45 413.4M260.69 436.6C259.59 438.5 259.18 441.45 261.14 442.94 263.04 444.51 266.5 443.31 266.64 440.72 267.14 437.58 263.47 435.06 260.69 436.6M299.54 447.5C299.34 448.1 298.92 449.3 298.72 449.9 300.28 452.3 303.33 454.78 306.34 453.39 309.3 452.3 309.48 447.61 306.74 446.22 304.29 445.71 301.82 446.71 299.54 447.5M417.35 455.39C414.55 457.31 413.1 462.35 416.42 464.54 419.29 467.06 425.21 465.47 424.48 461.02 425.11 457.16 421 453.64 417.35 455.39M355.29 456.15C353.51 457.51 352.67 460.2 353.67 462.27 355.79 465.09 360.29 462.04 359.99 459.05 360.5 456.54 357.23 454.34 355.29 456.15M314.4 486.26C312.42 488.47 312.29 493.64 316.03 494.05 318.45 494.73 320.92 492.49 320.58 490.02 320.63 487.21 316.84 483.59 314.4 486.26M555.4 488.49C551.78 489.63 553.21 494.77 556.05 495.87 559.1 497.24 563.04 494.3 562.38 490.94 561.73 487.89 557.74 488.08 555.4 488.49M630.24 500.24C627.44 501.69 625.89 506.25 628.3 508.74 629.48 510.15 631.81 510.37 633.31 509.35 634.84 507.6 634.49 505.09 634.71 502.95 634.93 500.54 632.16 499.48 630.24 500.24M697.36 506.54C695.57 507.79 694.72 510.78 696.44 512.44 698.85 514 702.76 511.07 701.72 508.29 701.27 506.44 698.94 505.51 697.36 506.54M410.32 515.31C408.12 515.95 405.58 518.78 406.73 521.2 408.48 522.82 411.28 523.89 413.48 522.46 415.95 520.2 413.75 514.91 410.32 515.31M739.43 515.52C735.28 519.11 743.29 525.75 746.02 520.91 748.22 517.14 742.76 512.54 739.43 515.52M514.29 519.27C511.3 521.22 512 527.48 516.01 527.66 519.88 527.62 520.18 522.59 519.24 519.85 517.83 518.85 515.82 518.04 514.29 519.27M582.33 523.31C577.75 525.39 578.61 532.83 583.09 534.5 585.28 533.33 587.13 531.56 588.37 529.41 590.05 528.6 592.01 527.2 591.24 525.03 590.07 521.27 585.03 521.37 582.33 523.31M464.64 526.67C464.39 527.24 463.9 528.4 463.66 528.98 464.33 531.5 467.44 533.72 469.92 532.11 472.05 531.06 472.25 527.94 470.5 526.45 468.92 524.6 466.4 525.83 464.64 526.67M344.94 543.43C348.9 544.83 348.89 539.93 350.96 538 352.78 536.22 352.1 532.02 349.03 532.36 344 532.78 342.05 539.84 344.94 543.43M711.18 561.32C708.07 562.64 708.52 567.74 710.92 569.5 713.65 569.29 717.34 567.34 716.9 564.08 716.78 561.34 713.39 560.03 711.18 561.32M431.35 581.2C428.28 582.64 428.11 588.68 432.04 588.95 435.77 589.63 439.65 584.62 437.5 581.45 435.69 580.45 433.18 580.21 431.35 581.2M721.02 618.43C724.64 618.72 724.56 612.63 720.97 612.63 717.55 613 717.1 618.75 721.02 618.43M665.31 616.43C662.72 617.78 661.71 622.75 665.07 623.75 668.09 625.04 670.85 621.82 670.45 618.95 670.52 616.36 667.3 615.33 665.31 616.43M619.25 644.18C614.81 646.27 618.74 653.13 622.94 651.14 627.23 649.21 623.49 641.2 619.25 644.18Z" fill="#E2AF2F"/><path d="M766.76 486.18C771.24 507.68 777.56 528.95 787.33 548.68 792.08 558.57 797.11 568.8 797.55 579.98 798.03 590.07 795.78 601.08 788.47 608.5 780.12 616.56 767.03 618.46 756.26 614.73 748.43 612.08 742.22 606 738.01 599.03 751.3 562.48 760.12 524.46 766.76 486.18M770.29 560.35C768.14 561.49 767.28 565 769.3 566.69 770.42 567.9 772.73 568.16 773.86 566.83 776.29 564.46 773.46 559.65 770.29 560.35M785.42 581.43C783.62 582.21 783.67 584.8 784.83 586.13 786.79 587.61 790.64 586.94 790.71 584.05 791.04 581.28 787.41 579.46 785.42 581.43M759.49 593.47C761.15 594.25 763.3 594.06 764.5 592.54 766.61 590.55 764.84 586.56 761.98 586.65 758.88 587.38 758.95 590.99 759.49 593.47Z" fill="#E2AF2F"/></g><g id="#e6b94aff"><path d="M637.22 146.72C640.74 147.62 644.21 148.75 647.59 150.1L647.54 150.17C645.2 152.77 643.41 155.8 642.14 159.05 639.2 166.61 635.16 173.84 633.86 181.94 630.51 195.36 631.24 209.35 632.52 222.99 633.2 230.9 634.82 238.8 637.72 246.22 642.27 256.1 646.34 266.32 653 275.04 656.84 280.42 661.36 285.28 666.2 289.77 662.1 290.86 657.96 291.82 653.81 292.69L653.25 292.07C650.52 288.69 647.66 285.41 644.95 282.01 641.63 277.88 639.42 273 636.19 268.81 628.1 258.32 621.64 246.4 618.56 233.44 616.32 226.5 617.3 219.14 618.29 212.07 619.12 203.4 621.47 194.92 625.02 186.98 628.34 179.92 627.6 171.8 630.66 164.67 633.11 158.79 635.99 153.03 637.22 146.72M632.38 250.34C629.64 251.15 628.96 254.44 630.56 256.63 631.76 259.73 637.78 259.64 637.82 255.9 637.7 253.14 635.85 248.77 632.38 250.34Z" fill="#E6B94A"/></g><g id="#eac569ff"><path d="M642.14 159.05C643.41 155.8 645.2 152.77 647.54 150.17 652.49 152.06 657.23 154.52 661.74 157.31 658.27 160.44 655.45 164.32 654.06 168.81 651.11 166.67 647.66 168.36 645.05 170.19 643.13 172.76 645.91 175.31 647.79 176.86 642.65 187.75 641.8 200.14 642.36 212.01 643.34 222.75 646.03 233.4 651.19 242.92 656.07 251.6 660.25 260.76 666.28 268.72 672.55 274.67 679.23 280.19 686.28 285.2L686.99 285.74C679.96 286.48 673.07 288.13 666.2 289.77 661.36 285.28 656.84 280.42 653 275.04 646.34 266.32 642.27 256.1 637.72 246.22 634.82 238.8 633.2 230.9 632.52 222.99 631.24 209.35 630.51 195.36 633.86 181.94 635.16 173.84 639.2 166.61 642.14 159.05Z" fill="#EAC569"/></g><g id="#edcd7eff"><path d="M654.06 168.81C655.45 164.32 658.27 160.44 661.74 157.31 677.12 166.78 690.19 179.59 701.73 193.39 726.13 223.06 742.47 258.62 753.55 295.19 750.2 295.38 746.87 295.88 743.59 296.56 737.66 297.82 731.57 297.87 725.56 298.5 715 289.42 701.08 283.7 687 285.69L686.28 285.2C679.23 280.19 672.55 274.67 666.28 268.72 660.25 260.76 656.07 251.6 651.19 242.92 646.03 233.4 643.34 222.75 642.36 212.01 641.8 200.14 642.65 187.75 647.79 176.86 649.68 176.76 652.29 177.46 653.48 175.48 654.99 173.55 654.23 171.02 654.06 168.81M677.24 218.24C675.5 219.24 676.08 221.75 676.48 223.37 677.32 226.52 681.4 225.84 683.49 224.49 685.89 220.96 680.44 216.54 677.24 218.24M711.14 270.3C707.4 271.7 710.15 276.25 711.85 278.27 714.5 279.72 716.87 276.94 718.21 274.97 719.43 271.05 714.03 269.55 711.14 270.3Z" fill="#EDCD7E"/></g><g id="#b29381ff"><path d="M645.05 170.19C647.66 168.36 651.11 166.67 654.06 168.81 654.23 171.02 654.99 173.55 653.48 175.48 652.29 177.46 649.68 176.76 647.79 176.86 645.91 175.31 643.13 172.76 645.05 170.19Z" fill="#B29381"/></g><g id="#8e5f45ff"><path d="M534.67 174.68C536.86 174.12 539.83 173.46 541.5 175.47 543.64 177.6 542.93 182.07 539.73 182.72 535.59 183.5 532.9 178.05 534.67 174.68Z" fill="#8E5F45"/><path d="M610.35 191.25C614.23 188.18 620.52 194.39 617.37 198.35 615.02 200.51 611.33 199.49 608.76 198.31 606.35 195.98 607.84 192.71 610.35 191.25Z" fill="#8E5F45"/><path d="M481.35 210.33C485.25 208.82 488.57 214.33 486.46 217.46 484.91 219.82 480.97 220.08 479.35 217.64 477.42 215.39 478.22 210.99 481.35 210.33Z" fill="#8E5F45"/><path d="M544.29 215.16C546.33 214.24 548.42 212.52 550.79 213.22 554.53 214.57 554.72 221.73 550.03 221.72 547.45 221.02 544.93 220.04 542.41 219.17 541.97 217.49 542.63 215.82 544.29 215.16Z" fill="#8E5F45"/><path d="M559.42 244.44C563.36 244.2 565.66 250.95 561.97 252.96 559.48 254.4 556.62 252.22 555.63 249.94 554.63 247.35 557.27 245.2 559.42 244.44Z" fill="#8E5F45"/><path d="M483.23 249.25C485.85 248.03 488.44 251.57 486.84 253.8 485.36 256.56 479.79 254.93 480.52 251.65 480.59 250.28 482.23 249.83 483.23 249.25Z" fill="#8E5F45"/><path d="M405.22 367.32C407.27 367.2 410.11 366.35 411.48 368.4 413.35 371.58 409.87 376.31 406.24 374.6 402.86 373.69 403.07 369.4 405.22 367.32Z" fill="#8E5F45"/><path d="M328.45 413.4C331.57 409.79 335.74 416.07 332.67 418.59 329.58 420.54 325.22 415.88 328.45 413.4Z" fill="#8E5F45"/><path d="M260.69 436.6C263.47 435.06 267.14 437.58 266.64 440.72 266.5 443.31 263.04 444.51 261.14 442.94 259.18 441.45 259.59 438.5 260.69 436.6Z" fill="#8E5F45"/><path d="M299.54 447.5C301.82 446.71 304.29 445.71 306.74 446.22 309.48 447.61 309.3 452.3 306.34 453.39 303.33 454.78 300.28 452.3 298.72 449.9 298.92 449.3 299.34 448.1 299.54 447.5Z" fill="#8E5F45"/><path d="M417.35 455.39C421 453.64 425.11 457.16 424.48 461.02 425.21 465.47 419.29 467.06 416.42 464.54 413.1 462.35 414.55 457.31 417.35 455.39Z" fill="#8E5F45"/><path d="M355.29 456.15C357.23 454.34 360.5 456.54 359.99 459.05 360.29 462.04 355.79 465.09 353.67 462.27 352.67 460.2 353.51 457.51 355.29 456.15Z" fill="#8E5F45"/><path d="M314.4 486.26C316.84 483.59 320.63 487.21 320.58 490.02 320.92 492.49 318.45 494.73 316.03 494.05 312.29 493.64 312.42 488.47 314.4 486.26Z" fill="#8E5F45"/><path d="M555.4 488.49C557.74 488.08 561.73 487.89 562.38 490.94 563.04 494.3 559.1 497.24 556.05 495.87 553.21 494.77 551.78 489.63 555.4 488.49Z" fill="#8E5F45"/><path d="M630.24 500.24C632.16 499.48 634.93 500.54 634.71 502.95 634.49 505.09 634.84 507.6 633.31 509.35 631.81 510.37 629.48 510.15 628.3 508.74 625.89 506.25 627.44 501.69 630.24 500.24Z" fill="#8E5F45"/><path d="M697.36 506.54C698.94 505.51 701.27 506.44 701.72 508.29 702.76 511.07 698.85 514 696.44 512.44 694.72 510.78 695.57 507.79 697.36 506.54Z" fill="#8E5F45"/><path d="M410.32 515.31C413.75 514.91 415.95 520.2 413.48 522.46 411.28 523.89 408.48 522.82 406.73 521.2 405.58 518.78 408.12 515.95 410.32 515.31Z" fill="#8E5F45"/><path d="M739.43 515.52C742.76 512.54 748.22 517.14 746.02 520.91 743.29 525.75 735.28 519.11 739.43 515.52Z" fill="#8E5F45"/><path d="M514.29 519.27C515.82 518.04 517.83 518.85 519.24 519.85 520.18 522.59 519.88 527.62 516.01 527.66 512 527.48 511.3 521.22 514.29 519.27Z" fill="#8E5F45"/><path d="M582.33 523.31C585.03 521.37 590.07 521.27 591.24 525.03 592.01 527.2 590.05 528.6 588.37 529.41 587.13 531.56 585.28 533.33 583.09 534.5 578.61 532.83 577.75 525.39 582.33 523.31Z" fill="#8E5F45"/><path d="M464.64 526.67C466.4 525.83 468.92 524.6 470.5 526.45 472.25 527.94 472.05 531.06 469.92 532.11 467.44 533.72 464.33 531.5 463.66 528.98 463.9 528.4 464.39 527.24 464.64 526.67Z" fill="#8E5F45"/><path d="M344.94 543.43C342.05 539.84 344 532.78 349.03 532.36 352.1 532.02 352.78 536.22 350.96 538 348.89 539.93 348.9 544.83 344.94 543.43Z" fill="#8E5F45"/><path d="M770.29 560.35C773.46 559.65 776.29 564.46 773.86 566.83 772.73 568.16 770.42 567.9 769.3 566.69 767.28 565 768.14 561.49 770.29 560.35Z" fill="#8E5F45"/><path d="M711.18 561.32C713.39 560.03 716.78 561.34 716.9 564.08 717.34 567.34 713.65 569.29 710.92 569.5 708.52 567.74 708.07 562.64 711.18 561.32Z" fill="#8E5F45"/><path d="M431.35 581.2C433.18 580.21 435.69 580.45 437.5 581.45 439.65 584.62 435.77 589.63 432.04 588.95 428.11 588.68 428.28 582.64 431.35 581.2Z" fill="#8E5F45"/><path d="M785.42 581.43C787.41 579.46 791.04 581.28 790.71 584.05 790.64 586.94 786.79 587.61 784.83 586.13 783.67 584.8 783.62 582.21 785.42 581.43Z" fill="#8E5F45"/><path d="M759.49 593.47C758.95 590.99 758.88 587.38 761.98 586.65 764.84 586.56 766.61 590.55 764.5 592.54 763.3 594.06 761.15 594.25 759.49 593.47Z" fill="#8E5F45"/><path d="M721.02 618.43C717.1 618.75 717.55 613 720.97 612.63 724.56 612.63 724.64 618.72 721.02 618.43Z" fill="#8E5F45"/><path d="M665.31 616.43C667.3 615.33 670.52 616.36 670.45 618.95 670.85 621.82 668.09 625.04 665.07 623.75 661.71 622.75 662.72 617.78 665.31 616.43Z" fill="#8E5F45"/><path d="M619.25 644.18C623.49 641.2 627.23 649.21 622.94 651.14 618.74 653.13 614.81 646.27 619.25 644.18Z" fill="#8E5F45"/></g><g id="#b99c8cff"><path d="M677.24 218.24C680.44 216.54 685.89 220.96 683.49 224.49 681.4 225.84 677.32 226.52 676.48 223.37 676.08 221.75 675.5 219.24 677.24 218.24Z" fill="#B99C8C"/></g><g id="#9f7862ff"><path d="M632.38 250.34C635.85 248.77 637.7 253.14 637.82 255.9 637.78 259.64 631.76 259.73 630.56 256.63 628.96 254.44 629.64 251.15 632.38 250.34Z" fill="#9F7862"/></g><g id="#282828ff"><path d="M407.07 263.85C428.17 259.96 449.76 259.65 471.15 258.58 490.1 257.87 509.07 257.48 528.04 257.61 545.88 257.85 564.53 258.93 580.67 267.33 594.16 274.23 603.55 286.94 617.01 293.86 627.74 299.37 640.29 297.58 651.66 295.43 667 292.56 682.12 286.51 697.97 287.91 713.07 289.66 725.2 300.13 735.23 310.79 747.68 324.39 757.96 339.79 767.67 355.42 768.95 359.34 769.26 363.53 769.86 367.61 755.26 346.9 740.48 325.19 718.96 311.01 709.76 305.05 699.09 300.94 688.03 300.82 671.05 300.59 654.87 307.06 637.99 307.79 627.97 308.29 618.62 303.77 610.35 298.59 599.22 291.61 588.74 283.32 576.36 278.59 560.99 272.62 544.36 271.54 528.1 270.12 495.63 267.38 462.89 264.94 430.39 268.56 419.11 269.73 407.99 271.94 396.86 274.03 400.13 270.53 403.23 266.73 407.07 263.85Z" fill="#282828"/><path d="M368.23 309.89C372.59 311.01 376.49 313.39 380.36 315.61 393.99 323.95 406.7 333.72 418.83 344.1 443.12 364.83 462.88 390.1 485.36 412.65 496.87 423.77 509.76 433.71 524.18 440.75 533.94 445.46 545.46 447.38 555.91 443.77 570.14 439.26 582.84 429.8 598.06 428.61 609.08 427.83 618.74 434.41 626.76 441.22 638.37 450.93 647.86 463.85 662.33 469.59 678.16 476.02 696.52 474.09 711.64 466.59 724.81 460.01 735.87 450.11 747.94 441.82 755.96 436.31 763.86 430.58 772.28 425.7 772.09 426.41 771.7 427.83 771.51 428.54 759.63 436.79 749.6 447.35 738.19 456.21 722.77 468.46 705.81 479.7 686.47 484.48 673.56 487.48 659.03 487.61 647.34 480.61 637.49 474.64 632.98 463.53 626.27 454.7 621.77 448.23 614.83 443.31 606.87 442.44 596.07 440.88 585.6 445.14 576.37 450.32 561.88 458.39 545.12 464.84 528.3 461.61 512 458.24 498.96 446.91 487.46 435.52 461 408.58 437.59 378.79 410.53 352.42 396.48 338.37 380.82 326.09 365.14 313.95 366.03 312.5 367.07 311.14 368.23 309.89Z" fill="#282828"/><path d="M542.79 324.73C549.73 317.05 559.65 311.62 570.13 311.4 568.78 313.17 566.42 313.45 564.68 314.67 558.05 318.83 554.03 327.12 555.42 334.9 556.74 341.78 562.71 348.05 569.98 348.15 574.5 348.37 578.6 346.24 582.62 344.46 578.12 353 570.17 360.25 560.58 362.35 559.15 355.81 555.5 349.32 548.96 346.81 544.19 344.43 539.14 347.15 534.65 348.86 533.18 340.09 536.96 331.18 542.79 324.73Z" fill="#282828"/><path d="M685.93 334.41C694.98 344.38 697.56 359.34 694.46 372.2 689.6 370.16 684.07 367.02 678.8 369.67 673.43 371.37 670.21 376.27 668.45 381.34 661.07 375.66 656.51 366.31 656.65 356.99 659.98 361.09 664.43 364.67 669.93 364.97 677.16 365.93 683.53 360.48 686.07 354.08 688.88 347.82 687.83 340.76 685.93 334.41Z" fill="#282828"/><path d="M618.15 390.86C623.21 391.82 628.78 393.72 631.54 398.41 633.34 401.19 632.24 404.88 629.74 406.82 624.62 411.06 616.64 412.9 610.76 409.15 605.95 406.08 602.41 401.49 598.67 397.27 598.1 396.32 596.75 395.53 597.09 394.28 598.04 393.87 599.02 393.53 600.02 393.24 600.49 394.93 599.81 397.54 601.98 398.18 605.78 399.25 609.82 398.17 613.64 397.58 615.72 396.96 618.65 396.59 619.32 394.11 618.94 393.02 618.55 391.93 618.15 390.86Z" fill="#282828"/></g><g id="#83acd5ff"><path d="M394.27 277.03C413.54 272.6 433.23 269.77 453.01 269.18 479.7 268.24 506.36 270.51 532.93 272.76 542.08 273.58 551.26 274.35 560.26 276.27 557.28 285.24 552.39 293.41 549.18 302.3 546.94 308.73 542.4 314.65 542.59 321.7 536.34 328.03 531.94 336.57 532.12 345.62 529.36 351.28 527.5 357.31 525.02 363.1 522.59 368.7 522.45 374.89 522.07 380.89 520.55 381.46 519.14 382.36 518.7 384.03 518.9 386.18 521.26 386.5 522.93 385.81 517.7 389.84 520.17 397.01 519.91 402.62 519.3 403.38 519.03 404.32 518.82 405.26 517.31 410.06 516.13 415.08 513.38 419.38 511.48 422.36 509.27 425.13 507.21 428.01 494.27 419.09 483.24 407.79 472.72 396.19 460.38 382.9 448.43 369.24 435.55 356.47 421.84 343.01 406.93 330.8 391.12 319.89 384.37 315.36 377.5 310.83 369.85 307.94 378.19 297.79 386.06 287.27 394.27 277.03M495.8 390.12C497.3 393.12 499.25 389.68 499.83 387.99 498.85 384.54 494.11 387.31 495.8 390.12Z" fill="#83ACD5"/></g><g id="#b89b8bff"><path d="M711.14 270.3C714.03 269.55 719.43 271.05 718.21 274.97 716.87 276.94 714.5 279.72 711.85 278.27 710.15 276.25 707.4 271.7 711.14 270.3Z" fill="#B89B8B"/></g><g id="#90bee1ff"><path d="M560.26 276.27C563.1 276.82 565.91 277.53 568.71 278.29L568.67 278.39C565.56 284.96 562.88 291.75 559.02 297.94 556.27 303.4 552.6 308.58 551.52 314.72 548.3 316.7 545.22 318.96 542.59 321.7 542.4 314.65 546.94 308.73 549.18 302.3 552.39 293.41 557.28 285.24 560.26 276.27Z" fill="#90BEE1"/></g><g id="#9dcfedff"><path d="M559.02 297.94C562.88 291.75 565.56 284.96 568.67 278.39 584.4 282.44 597.09 293.04 610.67 301.38 618.88 306.4 628.17 310.48 637.99 310.04 652.21 309.41 665.87 304.8 680 303.4 680.8 307.33 681.86 311.2 682.79 315.1 683.96 319.71 683.57 324.49 683.79 329.19 680.7 326.93 676.95 325.22 673.03 325.66 665.65 326.44 659.72 332.38 657.39 339.2 653.54 349.86 652.74 362.42 658.32 372.63 662.45 380.39 669.82 386.99 678.78 388.16 675.66 390.83 676.04 395.15 675.6 398.84 675.31 403.51 673.52 408.24 675.07 412.86 675.1 413.39 675.15 414.43 675.18 414.96 674.21 416.12 673.14 417.33 673.05 418.93 671.6 428.22 670.39 437.54 668.72 446.8 667.41 453.92 666.79 461.18 664.93 468.2 649.88 462.96 640.2 449.57 628.39 439.68 619.92 432.43 609.62 425.57 597.96 426.38 581.81 427.55 568.48 437.94 553.23 442.22 543.51 445.02 533.11 442.72 524.24 438.3 524.86 435.23 525.46 432.15 525.47 429.01 525.52 416 525.58 402.98 525.53 389.97 525.38 385.03 526.71 380.24 527.79 375.47 529.66 367.57 530.73 359.49 533.01 351.68 534.29 356.8 538.06 361.12 542.93 363.15 552.73 367.35 564.59 365.38 573.01 359.01 582.41 351.95 588.96 340.76 589.52 328.92 589.75 321.29 585.96 312.36 578.04 310.15 569.08 307.58 559.38 310.12 551.52 314.72 552.6 308.58 556.27 303.4 559.02 297.94M561.52 379.69C558.69 381.74 563.19 385.25 565.18 383.09 566.77 380.97 563.48 378.5 561.52 379.69M543.48 389.56C540.87 389.85 540.76 394.5 543.87 393.76 547.11 393.86 546.62 388.68 543.48 389.56M596.98 391.97C595.76 392.56 594.18 392.71 593.43 393.98 597.61 399.84 602.42 405.44 608.03 410 614.81 415.51 625.09 413.82 631.36 408.35 633.85 406.21 635.42 402.71 634.36 399.45 632.87 394.44 628 391.38 623.28 389.85 614.63 386.99 605.28 388.86 596.98 391.97M576.43 395.73C573 398.09 579.15 401.97 580.66 398.68 581.87 396.13 578.44 394.2 576.43 395.73M560.59 401.81C559.01 402.39 557.73 404.43 558.7 406.03 560.43 407.89 563.54 405.9 564.27 403.98 563.93 402.37 562.13 401.31 560.59 401.81M659.51 401.62C658.25 402.08 657.61 403.43 658.49 404.57 660.04 405.57 662.36 404.73 663.01 403.02 662.79 401.27 660.86 400.78 659.51 401.62M643.41 413.36C642.97 413.78 642.08 414.63 641.64 415.05 641.95 417.37 644.89 417.61 646.52 416.46 648.12 414.47 645.18 412.86 643.41 413.36M536.25 418.04C534.79 419.95 538.27 422.44 539.82 420.88 541.06 420.26 540.53 418.73 540.51 417.65 539.27 416.58 536.93 416.11 536.25 418.04M656.81 421.94C656.09 424.32 660.17 427.12 661.84 424.87 662.79 421.92 658.88 419.64 656.81 421.94Z" fill="#9DCFED"/><path d="M570.44 314.54C574.52 313.84 580.16 311.75 583.05 315.89 588.36 322.56 588.38 332.23 584.79 339.66 580.18 343.58 574.15 346.79 567.93 345.68 561.12 344.14 556.51 336.75 557.47 329.96 558.32 322.91 563.45 316.32 570.44 314.54Z" fill="#9DCFED"/><path d="M670.39 328.5C672.86 327.69 675.87 327.27 678.02 329.1 683.07 331.79 685 337.71 685.5 343.07 686.19 349.54 683.72 356.5 678.46 360.51 671.33 365.94 659.01 361.17 657.99 352.07 656.64 342.87 661.13 331.77 670.39 328.5Z" fill="#9DCFED"/><path d="M603.35 392.26C606.51 391.36 609.78 390.8 613.07 390.67 614.5 391.65 616.19 392.42 617.16 393.94 612.82 396.04 607.72 396.54 602.97 396.21L602.34 395.71C602.46 394.5 602.91 393.37 603.35 392.26Z" fill="#9DCFED"/></g><g id="#eac66aff"><path d="M743.59 296.56C746.87 295.88 750.2 295.38 753.55 295.19L753.64 295.18C755.09 300.01 756.51 304.84 757.79 309.72 751.99 310.72 746.16 311.58 740.53 313.32 735.9 308.03 730.93 303.03 725.56 298.5 731.57 297.87 737.66 297.82 743.59 296.56Z" fill="#EAC66A"/></g><g id="#b2d9f1ff"><path d="M680 303.4C683.45 303.08 686.92 302.95 690.39 303.08L690.36 303.19C688.85 306.79 690.1 310.68 690.5 314.38 691.74 322.27 692.52 330.28 691.72 338.27 689.6 334.83 687.01 331.65 683.79 329.19 683.57 324.49 683.96 319.71 682.79 315.1 681.86 311.2 680.8 307.33 680 303.4Z" fill="#B2D9F1"/></g><g id="#c2e1f4ff"><path d="M690.5 314.38C690.1 310.68 688.85 306.79 690.36 303.19 707.13 304.18 721.72 314.22 733.47 325.53 747.87 339.78 759.82 356.3 770.57 373.42 772.4 386.85 773.74 400.4 773.64 413.98 773.47 416.84 773.63 419.8 772.79 422.57 756.44 432.71 740.88 444.06 725.45 455.53 712.44 465.2 696.64 472.17 680.14 471.19 681.89 458.48 683.68 445.77 684.87 432.99 686.5 422.65 684.61 412.09 686.63 401.79 687.7 396.81 687.62 391.72 687.71 386.66 692.39 383.85 694.97 378.68 696.41 373.61 699.61 361.84 697.78 348.83 691.72 338.27 692.52 330.28 691.74 322.27 690.5 314.38M697.58 405.56C694.96 407.79 698.22 412.02 701.05 410.09 703.11 407.96 700.1 403.75 697.58 405.56M719.18 414.88C719.64 416.15 719.59 417.87 721 418.58 722.84 417.54 723.68 414.39 721.96 412.91 720.71 411.87 718.54 413.34 719.18 414.88M694.78 427.86C692.98 429.91 696.28 432.96 698.24 431.3 700.04 429.19 696.91 426.19 694.78 427.86Z" fill="#C2E1F4"/></g><g id="#010000ff"><path d="M551.52 314.72C559.38 310.12 569.08 307.58 578.04 310.15 585.96 312.36 589.75 321.29 589.52 328.92 588.96 340.76 582.41 351.95 573.01 359.01 564.59 365.38 552.73 367.35 542.93 363.15 538.06 361.12 534.29 356.8 533.01 351.68 532.53 349.69 532.21 347.66 532.12 345.62 531.94 336.57 536.34 328.03 542.59 321.7 545.22 318.96 548.3 316.7 551.52 314.72M542.79 324.73C536.96 331.18 533.18 340.09 534.65 348.86 535.41 352.88 537.22 356.93 540.68 359.32 546.39 363.34 553.92 363.84 560.58 362.35 570.17 360.25 578.12 353 582.62 344.46 578.6 346.24 574.5 348.37 569.98 348.15 562.71 348.05 556.74 341.78 555.42 334.9 554.03 327.12 558.05 318.83 564.68 314.67 566.42 313.45 568.78 313.17 570.13 311.4 559.65 311.62 549.73 317.05 542.79 324.73M570.44 314.54C563.45 316.32 558.32 322.91 557.47 329.96 556.51 336.75 561.12 344.14 567.93 345.68 574.15 346.79 580.18 343.58 584.79 339.66 588.38 332.23 588.36 322.56 583.05 315.89 580.16 311.75 574.52 313.84 570.44 314.54Z" fill="#010000"/><path d="M657.39 339.2C659.72 332.38 665.65 326.44 673.03 325.66 676.95 325.22 680.7 326.93 683.79 329.19 687.01 331.65 689.6 334.83 691.72 338.27 697.78 348.83 699.61 361.84 696.41 373.61 694.97 378.68 692.39 383.85 687.71 386.66 684.96 388.05 681.82 388.54 678.78 388.16 669.82 386.99 662.45 380.39 658.32 372.63 652.74 362.42 653.54 349.86 657.39 339.2M670.39 328.5C661.13 331.77 656.64 342.87 657.99 352.07 659.01 361.17 671.33 365.94 678.46 360.51 683.72 356.5 686.19 349.54 685.5 343.07 685 337.71 683.07 331.79 678.02 329.1 675.87 327.27 672.86 327.69 670.39 328.5M685.93 334.41C687.83 340.76 688.88 347.82 686.07 354.08 683.53 360.48 677.16 365.93 669.93 364.97 664.43 364.67 659.98 361.09 656.65 356.99 656.51 366.31 661.07 375.66 668.45 381.34 673.08 384.99 679.47 387.28 685.29 385.3 690.57 383.12 693.09 377.39 694.46 372.2 697.56 359.34 694.98 344.38 685.93 334.41Z" fill="#010000"/><path d="M596.98 391.97C605.28 388.86 614.63 386.99 623.28 389.85 628 391.38 632.87 394.44 634.36 399.45 635.42 402.71 633.85 406.21 631.36 408.35 625.09 413.82 614.81 415.51 608.03 410 602.42 405.44 597.61 399.84 593.43 393.98 594.18 392.71 595.76 392.56 596.98 391.97M603.35 392.26C602.91 393.37 602.46 394.5 602.34 395.71L602.97 396.21C607.72 396.54 612.82 396.04 617.16 393.94 616.19 392.42 614.5 391.65 613.07 390.67 609.78 390.8 606.51 391.36 603.35 392.26M618.15 390.86C618.55 391.93 618.94 393.02 619.32 394.11 618.65 396.59 615.72 396.96 613.64 397.58 609.82 398.17 605.78 399.25 601.98 398.18 599.81 397.54 600.49 394.93 600.02 393.24 599.02 393.53 598.04 393.87 597.09 394.28 596.75 395.53 598.1 396.32 598.67 397.27 602.41 401.49 605.95 406.08 610.76 409.15 616.64 412.9 624.62 411.06 629.74 406.82 632.24 404.88 633.34 401.19 631.54 398.41 628.78 393.72 623.21 391.82 618.15 390.86Z" fill="#010000"/></g><g id="#e6bb4dff"><path d="M740.53 313.32C746.16 311.58 751.99 310.72 757.79 309.72 758.91 313.58 759.85 317.49 760.8 321.4 757.3 323 753.6 324.12 749.84 324.92 746.84 320.97 743.71 317.13 740.53 313.32Z" fill="#E6BB4D"/></g><g id="#e3b134ff"><path d="M760.8 321.4C763.18 330.91 765.2 340.5 766.98 350.13 761.64 341.48 755.83 333.13 749.84 324.92 753.6 324.12 757.3 323 760.8 321.4Z" fill="#E3B134"/></g><g id="#8cb8ddff"><path d="M525.02 363.1C527.5 357.31 529.36 351.28 532.12 345.62 532.21 347.66 532.53 349.69 533.01 351.68 530.73 359.49 529.66 367.57 527.79 375.47 526.71 380.24 525.38 385.03 525.53 389.97 525.58 402.98 525.52 416 525.47 429.01 525.46 432.15 524.86 435.23 524.24 438.3 518.22 435.49 512.65 431.8 507.21 428.01 509.27 425.13 511.48 422.36 513.38 419.38 516.13 415.08 517.31 410.06 518.82 405.26 520.2 407.41 524.64 406.08 523.58 403.38 522.85 402.03 521.12 402.3 519.91 402.62 520.17 397.01 517.7 389.84 522.93 385.81 524.89 384.54 524.68 381.16 522.07 380.89 522.45 374.89 522.59 368.7 525.02 363.1Z" fill="#8CB8DD"/></g><g id="#3b3a36ff"><path d="M534.65 348.86C539.14 347.15 544.19 344.43 548.96 346.81 555.5 349.32 559.15 355.81 560.58 362.35 553.92 363.84 546.39 363.34 540.68 359.32 537.22 356.93 535.41 352.88 534.65 348.86Z" fill="#3B3A36"/></g><g id="#3b3936ff"><path d="M678.8 369.67C684.07 367.02 689.6 370.16 694.46 372.2 693.09 377.39 690.57 383.12 685.29 385.3 679.47 387.28 673.08 384.99 668.45 381.34 670.21 376.27 673.43 371.37 678.8 369.67Z" fill="#3B3936"/></g><g id="#a4d2eeff"><path d="M678.78 388.16C681.82 388.54 684.96 388.05 687.71 386.66 687.62 391.72 687.7 396.81 686.63 401.79 684.61 412.09 686.5 422.65 684.87 432.99 683.68 445.77 681.89 458.48 680.14 471.19 674.95 470.97 669.81 469.95 664.93 468.2 666.79 461.18 667.41 453.92 668.72 446.8 670.39 437.54 671.6 428.22 673.05 418.93 673.14 417.33 674.21 416.12 675.18 414.96 676.28 416 678.24 416.62 679.29 415.17 679.87 413.59 678.68 411.88 677.03 411.7 676.54 411.99 675.56 412.57 675.07 412.86 673.52 408.24 675.31 403.51 675.6 398.84 676.04 395.15 675.66 390.83 678.78 388.16M676.66 439.52C676.75 440.62 676.06 442.03 677.12 442.86 678.6 444.79 681.99 442.54 680.63 440.4 679.99 438.56 678.04 438.99 676.66 439.52Z" fill="#A4D2EE"/></g><g id="#616161ff"><path d="M697.58 405.56C700.1 403.75 703.11 407.96 701.05 410.09 698.22 412.02 694.96 407.79 697.58 405.56Z" fill="#616161"/><path d="M719.18 414.88C718.54 413.34 720.71 411.87 721.96 412.91 723.68 414.39 722.84 417.54 721 418.58 719.59 417.87 719.64 416.15 719.18 414.88Z" fill="#616161"/><path d="M694.78 427.86C696.91 426.19 700.04 429.19 698.24 431.3 696.28 432.96 692.98 429.91 694.78 427.86Z" fill="#616161"/></g><g id="#0f0f0fff"><path d="M675.07 412.86C675.56 412.57 676.54 411.99 677.03 411.7 678.68 411.88 679.87 413.59 679.29 415.17 678.24 416.62 676.28 416 675.18 414.96 675.15 414.43 675.1 413.39 675.07 412.86Z" fill="#0F0F0F"/></g><g id="#d29d29ff"><path d="M220.77 465.56C218.22 455.82 221.2 445.28 227.02 437.28 231.25 440.76 236.33 443.02 240.5 446.59 244.75 450.29 248.81 454.23 252.54 458.46 255.22 461.44 256.95 465.53 260.81 467.24 259.46 468.58 257.65 470.35 258.5 472.46 259.54 474.91 262.38 475.22 264.69 474.82 268.24 479.86 271.56 485.06 275.09 490.11 263.71 492.63 251.41 492.18 240.65 487.44 231.4 483.35 223.5 475.45 220.77 465.56Z" fill="#D29D29"/></g><g id="#1a1a1aff"><path d="M676.66 439.52C678.04 438.99 679.99 438.56 680.63 440.4 681.99 442.54 678.6 444.79 677.12 442.86 676.06 442.03 676.75 440.62 676.66 439.52Z" fill="#1A1A1A"/></g><g id="#8b5c42ff"><path d="M260.81 467.24C262.67 467.15 264.95 467.4 265.78 469.36 267.08 471.21 265.62 473.2 264.69 474.82 262.38 475.22 259.54 474.91 258.5 472.46 257.65 470.35 259.46 468.58 260.81 467.24Z" fill="#8B5C42"/></g><g id="#d39f2aff"><path d="M281.86 499.59C290.49 511.1 298.95 522.76 307.85 534.07 318.3 546.45 331.87 555.53 344.08 566 350.82 571.19 356.64 577.42 363.07 582.96 374.21 594.06 386.99 603.33 400.01 612.09 412.57 621.11 426.99 627.43 442 631.08 460.99 636.18 480.5 638.91 499.99 641.23 533.92 645.75 567.69 652.27 601.98 653.2 617.98 653.19 633.99 653.18 650 653.22 655.03 653.16 660.23 653.73 665.12 652.18 674.49 648.81 683.24 643.97 691.77 638.85 703.85 632.48 715.02 624.41 727.55 618.88 726.89 620.6 726.09 622.28 725.29 623.95 716.76 627.34 709.4 632.88 701.69 637.73 694.06 642.23 686.27 646.44 678.46 650.6 675.23 652.35 671.63 653.29 667.98 653.54 660.41 653.98 653.83 658.22 646.47 659.58 633.2 662.78 619.49 660.46 606.05 661.93 600.04 662.61 594 662.19 587.98 662.4 581.31 662.54 574.68 663.76 568.01 663.16 550.8 661.76 533.47 661.43 516.39 658.71 495.67 653.78 475.67 646.2 454.98 641.15 442.55 637.81 429.65 636.13 417.64 631.37 391.99 621.64 369.09 606.3 345.5 592.58 340.03 589.5 336.54 584.11 332.68 579.35 320.07 562.49 308.56 544.83 295.88 528.02 290.49 521.01 286.15 513.24 280.42 506.49 280.81 504.17 281.29 501.87 281.86 499.59M496.28 644.25C493.15 646.12 494.26 651.83 498.09 651.94 501.31 652.52 502.41 648.52 501.86 646.08 500.96 644.04 498.19 643.74 496.28 644.25Z" fill="#D39F2A"/></g><g id="#c28c24ff"><path d="M280.42 506.49C286.15 513.24 290.49 521.01 295.88 528.02 308.56 544.83 320.07 562.49 332.68 579.35 336.54 584.11 340.03 589.5 345.5 592.58 369.09 606.3 391.99 621.64 417.64 631.37 429.65 636.13 442.55 637.81 454.98 641.15 475.67 646.2 495.67 653.78 516.39 658.71 533.47 661.43 550.8 661.76 568.01 663.16 574.68 663.76 581.31 662.54 587.98 662.4 594 662.19 600.04 662.61 606.05 661.93 619.49 660.46 633.2 662.78 646.47 659.58 653.83 658.22 660.41 653.98 667.98 653.54 671.63 653.29 675.23 652.35 678.46 650.6 686.27 646.44 694.06 642.23 701.69 637.73 709.4 632.88 716.76 627.34 725.29 623.95 721.28 632.93 716.74 641.69 711.66 650.12 703.15 652.23 694.76 655.03 686.02 656.02 679.56 656.86 673.1 657.67 666.66 658.58 658.38 659.78 651.13 664.19 643.63 667.58 637.48 670.45 630.6 670.89 623.97 671.7 603.05 674.18 582.04 676.32 560.96 676.15 545.98 676.43 531 675.39 516.02 676.03 500.36 674.67 484.64 675.58 468.96 674.89 458.9 675.33 449.83 670.35 440.53 667.3 442.6 665.95 444.42 663.84 443.7 661.19 443.58 657.83 438.04 656.72 436.97 660.08 436.32 661.57 435.78 663.12 435.11 664.62 426.34 661.59 417.88 657.59 409.58 653.45 399.74 648.29 391.18 641.16 382.1 634.85 375.98 630.62 371 625.05 365.18 620.47 366.07 617.91 366.08 614.43 362.78 613.73 356.45 611.21 353.81 604.45 348.85 600.27 345.77 597.65 342.53 595.21 339.59 592.43 331.51 584.81 321.6 579.6 311.94 574.3 308.03 572.11 303.67 570.64 300.13 567.84 296.69 564.14 294.67 559.4 292.28 555.01 292.02 553.24 291.89 551.44 291.3 549.74 290.31 549.47 289.31 549.25 288.3 549.08 285.39 543.24 281.92 537.56 276.84 533.35 277.45 524.33 278.56 515.34 280.42 506.49Z" fill="#C28C24"/></g><g id="#b47d1fff"><path d="M276.84 533.35C281.92 537.56 285.39 543.24 288.3 549.08 287.18 550.85 285.49 552.96 286.83 555.1 288.43 556.65 290.52 555.58 292.28 555.01 294.67 559.4 296.69 564.14 300.13 567.84 303.67 570.64 308.03 572.11 311.94 574.3 321.6 579.6 331.51 584.81 339.59 592.43 342.53 595.21 345.77 597.65 348.85 600.27 353.81 604.45 356.45 611.21 362.78 613.73 361.43 614.27 359.67 614.57 359.08 616.12 357.89 618.31 359.37 620.74 360.54 622.61 361.11 622.7 362.25 622.88 362.82 622.98 363.72 622.25 364.5 621.42 365.18 620.47 371 625.05 375.98 630.62 382.1 634.85 391.18 641.16 399.74 648.29 409.58 653.45 417.88 657.59 426.34 661.59 435.11 664.62 435.78 663.12 436.32 661.57 436.97 660.08 436.72 661.69 436.49 663.35 436.76 664.99 437.22 666.71 439.14 666.77 440.53 667.3 449.83 670.35 458.9 675.33 468.96 674.89 484.64 675.58 500.36 674.67 516.02 676.03 531 675.39 545.98 676.43 560.96 676.15 582.04 676.32 603.05 674.18 623.97 671.7 630.6 670.89 637.48 670.45 643.63 667.58 651.13 664.19 658.38 659.78 666.66 658.58 673.1 657.67 679.56 656.86 686.02 656.02 694.76 655.03 703.15 652.23 711.66 650.12 710.05 653.06 708.19 655.88 706.35 658.69 700.1 659.92 694.51 663.28 688.2 664.27 678.43 665.93 669.16 669.59 659.42 671.37 651.83 672.66 644.83 676.16 637.21 677.27 627.67 678.66 618.13 680.15 608.81 682.64 596.15 686.12 583.15 688.82 569.98 688.92 562.66 690.03 555.32 687.87 548.04 689.28 533.47 691.3 519.37 685.49 504.85 685.56 496.53 685.9 488.31 684.25 479.99 684.66 464.89 684 449.95 681.42 435.08 678.86 428.86 677.82 423.14 675.06 417.43 672.53 413.15 670.37 409.09 667.7 404.39 666.53 400.53 665.52 397.21 663.3 394 661.03 389.21 657.63 383.49 655.8 378.88 652.14 375.11 649.2 371.54 645.96 367.28 643.73 363.38 641.66 359.37 639.77 355.83 637.1 349.39 632.18 341.69 628.92 336.22 622.78 327.17 613.05 318.35 603.05 311.44 591.65 306.41 584.05 300.48 577.1 295.39 569.54 291.28 563.05 283.83 560.2 277.31 556.81 276.47 549.02 276.35 541.16 276.84 533.35M561.32 677.24C560 677.92 559.3 679.45 559.71 680.9 560.03 682.64 559.89 685.44 562.18 685.81 565.05 686.6 567.94 683.89 567.46 680.98 567.64 678 563.83 675.73 561.32 677.24Z" fill="#B47D1F"/></g><g id="#71442eff"><path d="M288.3 549.08C289.31 549.25 290.31 549.47 291.3 549.74 291.89 551.44 292.02 553.24 292.28 555.01 290.52 555.58 288.43 556.65 286.83 555.1 285.49 552.96 287.18 550.85 288.3 549.08Z" fill="#71442E"/></g><g id="#a16819ff"><path d="M277.31 556.81C283.83 560.2 291.28 563.05 295.39 569.54 300.48 577.1 306.41 584.05 311.44 591.65 318.35 603.05 327.17 613.05 336.22 622.78 341.69 628.92 349.39 632.18 355.83 637.1 359.37 639.77 363.38 641.66 367.28 643.73 371.54 645.96 375.11 649.2 378.88 652.14 383.49 655.8 389.21 657.63 394 661.03 397.21 663.3 400.53 665.52 404.39 666.53 409.09 667.7 413.15 670.37 417.43 672.53 423.14 675.06 428.86 677.82 435.08 678.86 449.95 681.42 464.89 684 479.99 684.66 488.31 684.25 496.53 685.9 504.85 685.56 519.37 685.49 533.47 691.3 548.04 689.28 555.32 687.87 562.66 690.03 569.98 688.92 583.15 688.82 596.15 686.12 608.81 682.64 618.13 680.15 627.67 678.66 637.21 677.27 644.83 676.16 651.83 672.66 659.42 671.37 669.16 669.59 678.43 665.93 688.2 664.27 694.51 663.28 700.1 659.92 706.35 658.69 692.01 681.3 672.77 701.12 649.41 714.45 614.28 734.75 573.25 742.6 533.04 743.34 486.94 744.05 440.35 735.17 398.69 715.1 365.02 698.75 334.55 675.08 312.15 644.94 293.19 619.28 280.28 588.69 277.31 556.81M314.39 611.45C311.9 611.2 310.42 613.79 310.86 616.02 310.75 619.71 315.81 622.12 318.55 619.47 321.33 616.44 319.06 610.07 314.39 611.45M395.33 668.43C393.13 669.06 391.81 671.63 393.34 673.61 394.5 676.98 400.26 676.5 400.7 672.9 401.41 669.92 398.12 667.32 395.33 668.43M674.25 676.58C672.14 676.68 670.83 679.18 671.88 681.01 672.65 682.8 675.52 683.3 676.71 681.73 678.47 679.94 677.02 675.86 674.25 676.58M613.44 703.47C612.03 704.82 611.41 707.53 613.12 708.9 614.94 710.62 618.58 709.51 618.68 706.84 619.41 704.03 615.65 701.03 613.44 703.47M511.45 717.44C509.6 718.91 509.01 722.18 511.33 723.5 513.75 725.45 517.52 722.89 516.87 719.93 516.95 717.23 513.4 715.37 511.45 717.44Z" fill="#A16819"/></g><g id="#663925ff"><path d="M314.39 611.45C319.06 610.07 321.33 616.44 318.55 619.47 315.81 622.12 310.75 619.71 310.86 616.02 310.42 613.79 311.9 611.2 314.39 611.45Z" fill="#663925"/><path d="M395.33 668.43C398.12 667.32 401.41 669.92 400.7 672.9 400.26 676.5 394.5 676.98 393.34 673.61 391.81 671.63 393.13 669.06 395.33 668.43Z" fill="#663925"/><path d="M674.25 676.58C677.02 675.86 678.47 679.94 676.71 681.73 675.52 683.3 672.65 682.8 671.88 681.01 670.83 679.18 672.14 676.68 674.25 676.58Z" fill="#663925"/></g><g id="#754731ff"><path d="M359.08 616.12C359.67 614.57 361.43 614.27 362.78 613.73 366.08 614.43 366.07 617.91 365.18 620.47 364.5 621.42 363.72 622.25 362.82 622.98 362.25 622.88 361.11 622.7 360.54 622.61 359.37 620.74 357.89 618.31 359.08 616.12Z" fill="#754731"/></g><g id="#85563eff"><path d="M496.28 644.25C498.19 643.74 500.96 644.04 501.86 646.08 502.41 648.52 501.31 652.52 498.09 651.94 494.26 651.83 493.15 646.12 496.28 644.25Z" fill="#85563E"/></g><g id="#774933ff"><path d="M436.97 660.08C438.04 656.72 443.58 657.83 443.7 661.19 444.42 663.84 442.6 665.95 440.53 667.3 439.14 666.77 437.22 666.71 436.76 664.99 436.49 663.35 436.72 661.69 436.97 660.08Z" fill="#774933"/></g><g id="#71432eff"><path d="M561.32 677.24C563.83 675.73 567.64 678 567.46 680.98 567.94 683.89 565.05 686.6 562.18 685.81 559.89 685.44 560.03 682.64 559.71 680.9 559.3 679.45 560 677.92 561.32 677.24Z" fill="#71432E"/></g><g id="#383e43ff"><path d="M351.09 688.03C373.75 705.82 399.46 719.58 426.63 729.12 422.14 746.86 416.85 764.39 411.53 781.9L411 781.89C401.32 781.54 391.87 779.04 382.62 776.35 375.15 773.71 367.27 771.8 360.62 767.33 356.38 764.7 352.22 761.86 348.83 758.16 342.95 751.65 334.31 748.21 329.18 740.95 325.19 735.06 319.78 730.34 315.58 724.61 326.81 711.86 338.67 699.62 351.09 688.03Z" fill="#383E43"/><path d="M499.51 744.44C524.94 746.56 550.61 745.81 575.84 741.97 583.25 759.64 589.75 777.79 594.22 796.44 590.07 799.9 586.08 803.65 581.28 806.22 572.72 810.79 563.62 814.27 554.34 817.1 553.55 817.16 552.76 817.2 551.98 817.21 546.93 817.13 542.05 818.86 536.99 818.63 530.13 818.45 523.11 819.24 516.42 817.39 507.3 815.12 499.74 809.1 490.73 806.54 492.14 785.67 495.1 764.88 499.51 744.44Z" fill="#383E43"/></g><g id="#653824ff"><path d="M613.44 703.47C615.65 701.03 619.41 704.03 618.68 706.84 618.58 709.51 614.94 710.62 613.12 708.9 611.41 707.53 612.03 704.82 613.44 703.47Z" fill="#653824"/><path d="M511.45 717.44C513.4 715.37 516.95 717.23 516.87 719.93 517.52 722.89 513.75 725.45 511.33 723.5 509.01 722.18 509.6 718.91 511.45 717.44Z" fill="#653824"/></g><g id="#464d54ff"><path d="M309.56 731.35C311.48 729.03 313.53 726.82 315.58 724.61 319.78 730.34 325.19 735.06 329.18 740.95 334.31 748.21 342.95 751.65 348.83 758.16 352.22 761.86 356.38 764.7 360.62 767.33 367.27 771.8 375.15 773.71 382.62 776.35 391.87 779.04 401.32 781.54 411 781.89 410.9 784.57 409.77 787.08 408.98 789.62L408.9 789.59C404.12 787.27 398.73 787.33 393.63 786.29 386.45 784.87 379.12 784.04 372.13 781.8 364.85 779.62 358.1 776.08 351.41 772.56 345.28 769.33 340.39 764.27 336.09 758.94 332.1 753.83 326.2 750.84 321.58 746.42 316.72 742.15 313.69 736.34 309.6 731.41L309.56 731.35Z" fill="#464D54"/></g><g id="#525b63ff"><path d="M309.6 731.41C313.69 736.34 316.72 742.15 321.58 746.42 326.2 750.84 332.1 753.83 336.09 758.94 340.39 764.27 345.28 769.33 351.41 772.56 358.1 776.08 364.85 779.62 372.13 781.8 379.12 784.04 386.45 784.87 393.63 786.29 398.73 787.33 404.12 787.27 408.9 789.59 407.15 795.23 405.31 800.86 403.3 806.42 385.73 800.3 369.78 790.2 355.01 779.02 348.8 774.61 343.81 768.72 337.42 764.56 331.67 760.79 327.07 755.62 322.22 750.81 316.85 745.46 313.08 738.8 308.05 733.16 308.43 732.73 309.21 731.85 309.6 731.41Z" fill="#525B63"/></g><g id="#5b646dff"><path d="M238.53 840.55C256.5 801.72 279.96 765.44 308.05 733.16 313.08 738.8 316.85 745.46 322.22 750.81 327.07 755.62 331.67 760.79 337.42 764.56 343.81 768.72 348.8 774.61 355.01 779.02 369.78 790.2 385.73 800.3 403.3 806.42 392.08 839.28 378.72 871.5 361.99 901.96 357.94 909.1 353.78 916.23 348.66 922.67 346.77 924.92 344.8 927.39 341.92 928.38 341.33 924.57 342.29 920.77 342.91 917.04 346.33 900.19 351.55 883.79 356.38 867.32 366.32 848.78 375.37 829.77 383.4 810.33 383.94 809.38 384.05 808.4 383.74 807.38 383.39 807.39 382.69 807.4 382.34 807.41 368.26 840.57 352.44 873.22 332.2 903.12 326.43 911.24 320.63 919.66 312.65 925.78 312.54 921.1 313.92 916.56 314.97 912.05 320.58 890.76 327.92 869.98 334.97 849.14 343.21 834.26 351.91 819.63 360.36 804.87L360.17 803.86 358.95 803.44C340.54 833.17 324.61 864.42 306.24 894.2 300.73 902.83 295.11 911.51 287.93 918.86 285.04 921.6 281.84 924.62 277.73 925.16 277.1 921.02 278.77 917 279.85 913.08 285.11 897.24 291.99 881.99 298.8 866.77 309.91 842.25 321.75 818.07 333.69 793.96 333.52 793.52 333.19 792.66 333.02 792.23 332.66 792.51 331.94 793.07 331.58 793.35 322.54 811.2 313.95 829.28 305.25 847.29 296.44 859.69 287.18 871.77 277.56 883.56 272.29 889.9 266.98 896.26 260.86 901.82 259.11 903.26 257.34 904.99 254.98 905.28 253.61 900.95 255.17 896.44 256.09 892.18 260.34 876.71 266.75 861.94 273.44 847.4 284.8 822.98 298.41 799.69 312.63 776.85L312.53 775.59 311.07 775.41C301.89 789.34 293.85 803.99 285.39 818.37 275.51 834.19 264.95 849.64 252.87 863.88 246.66 871 240.15 878.07 232.16 883.21 230.25 884.29 228.26 885.71 225.96 885.48 224.14 882.81 225.21 879.35 225.58 876.4 228.26 863.93 233.34 852.14 238.53 840.55Z" fill="#5B646D"/><path d="M577.35 818.29C584.52 816.03 590.59 811.47 596.92 807.58 601.19 826.5 604.04 845.73 606.08 865.02 607.56 879.62 608.74 894.3 608.33 909 608.11 913.16 607.88 917.39 606.67 921.41 602.51 917.55 600.22 912.1 597.74 907.1 598.74 877.75 593.31 848.51 584.34 820.65 583.73 818.34 581.26 820.28 582.43 821.87 590.8 848.38 596.21 876.08 595.58 903.99 595.32 915.66 594.54 927.36 592.32 938.85 591.62 941.83 591.18 945 589.55 947.67 583.59 940.02 580.83 930.47 578.99 921.1 581.48 888.1 578.06 854.86 570.37 822.73 571.42 819.75 574.78 819.32 577.35 818.29Z" fill="#5B646D"/><path d="M490 819.17C496.06 820.83 501.94 823.11 507.99 824.82 522.7 827.64 538 827.47 552.6 824.08 555.4 858.98 556.35 894.22 551.96 929.03 550.47 938.22 549.41 947.9 544.65 956.09 542.02 955.28 541.37 952.08 540.11 949.95 534.09 935.46 530.3 920.15 526.63 904.94 527.97 884.96 528.97 864.95 529.36 844.93 529.22 839.92 530.13 834.81 529.22 829.88 528.78 830.03 527.89 830.34 527.45 830.49 527.1 850.02 526.56 869.55 525.4 889.05 524.37 905.38 523.26 921.75 520.37 937.88 519.3 942.78 518.52 947.94 515.83 952.27 513.2 951.26 512.16 948.33 510.82 946.09 505.55 935.32 502.34 923.69 499.38 912.11 491.99 881.76 488.52 850.39 490 819.17Z" fill="#5B646D"/><path d="M554.81 823.27C559.05 822.79 563.27 822.16 567.45 821.31L567.79 821.26C571.72 838.3 574.9 855.55 576.45 872.98 578.09 892.56 577.9 912.3 575.76 931.83 574.55 940.87 573.65 950.2 569.9 958.61 567.49 956.66 566.38 953.65 565.04 950.96 561.05 941.87 557.91 932.43 555.05 922.94 558.31 889.81 557.49 856.42 554.81 823.27Z" fill="#5B646D"/></g><g id="#4f565eff"><path d="M581.28 806.22C586.08 803.65 590.07 799.9 594.22 796.44 595.17 800.13 596.19 803.82 596.92 807.58 590.59 811.47 584.52 816.03 577.35 818.29 574.78 819.32 571.42 819.75 570.37 822.73 569.55 819.94 569.31 816.97 568.1 814.32 567.65 814.45 566.77 814.7 566.32 814.83 566.36 817.04 567.77 819.1 567.45 821.31 563.27 822.16 559.05 822.79 554.81 823.27 554.59 821.21 554.44 819.15 554.34 817.1 563.62 814.27 572.72 810.79 581.28 806.22Z" fill="#4F565E"/></g><g id="#4a5158ff"><path d="M490.73 806.54C499.74 809.1 507.3 815.12 516.42 817.39 523.11 819.24 530.13 818.45 536.99 818.63 542.05 818.86 546.93 817.13 551.98 817.21 552.28 819.48 552.5 821.78 552.6 824.08 538 827.47 522.7 827.64 507.99 824.82 501.94 823.11 496.06 820.83 490 819.17 489.99 814.95 490.48 810.74 490.73 806.54Z" fill="#4A5158"/></g></svg>