<svg width="174.667" height="184" viewBox="0 0 131 138" xmlns="http://www.w3.org/2000/svg" xmlns:xlink="http://www.w3.org/1999/xlink" overflow="hidden"><g id="#403835ff"><path d="M33.62 6.33C36.1 6.34 38.58 6.32 41.07 6.39 42.66 8.66 44.44 11.04 44.54 13.93 44.63 20.76 46.33 27.46 45.66 34.32 47 35.71 48.35 37.09 49.7 38.48 54.07 38.09 58.39 37.25 62.79 37.04 66.5 35.68 70.31 37.68 74.08 37.77 76.21 36.06 78.34 34.34 80.35 32.49 80.32 28 80.53 23.48 79.51 19.08 78.86 16.74 79.8 14.47 80.65 12.32 82.78 12.33 84.92 12.34 87.05 12.38 89.52 16.36 93.65 19.81 93.59 24.86 93.25 31.23 96.85 36.87 97.34 43.15 97.62 51.21 102.84 58.83 99.92 66.98 101.17 73.71 101.33 80.61 102.16 87.37 105.5 95.16 106.78 103.57 107.7 111.94 107.7 114.43 108.03 117.32 106.43 119.42 102.98 122.63 98.75 124.8 94.84 127.37 89.33 128.94 83.59 128.75 77.93 128.74 75.12 131.74 70.97 132.41 67.11 131.31 63.03 129.97 58.62 131.41 54.58 129.9 52.13 129.09 49.57 128.77 47.05 128.24 41.1 126.41 36.49 122.04 31.92 118.03 30.06 115.4 28.91 112.32 26.79 109.85 26.18 108.13 25.49 106.43 24.76 104.76 24.17 102.17 23.38 99.63 22.4 97.17 19.77 89.73 20.34 81.73 20.21 73.97 20.26 70.88 20.01 67.68 21.12 64.73 21.1 58.71 21.44 52.71 23.41 46.97 24.52 39.15 28.05 31.87 28.55 23.96 28.94 23.58 29.73 22.81 30.13 22.43 30.27 20.14 30.94 17.97 32.17 16.03 32.23 12.74 32.2 9.38 33.62 6.33M36.7 21.41C36.52 26.98 36.5 32.55 36.58 38.12 37.58 38.2 38.59 38.28 39.59 38.36 40.35 33.72 40.53 28.95 39.99 24.28 39.54 24 38.65 23.42 38.2 23.14 38.27 22.73 38.42 21.92 38.49 21.51L36.7 21.41M85.52 22.92C84.85 28.5 85.1 34.21 86.68 39.62 87.28 39.63 88.48 39.65 89.08 39.66 92.47 36.39 91.65 31.26 91.13 27.05 90.59 26.91 89.5 26.61 88.96 26.46 87.99 25.13 87.09 23.64 85.52 22.92M64.56 48.64C61.29 51.14 59.77 56.31 54.98 56.32 50.1 56.03 45.76 53.24 40.89 52.88 37.45 53.25 34.12 54.48 31.1 56.15 26.74 58.9 26.64 64.76 22.92 68.07 21.4 76.68 22.48 85.59 24.44 94.04 29.08 88.28 37.37 88.26 44.1 88.85 51.88 90.33 60.56 91.95 67.87 87.91 74.5 84.29 81.67 81.7 89.01 79.93 92.05 79.13 95.2 79.52 98.29 79.79 99.13 73.93 97.02 68.2 97.09 62.34 96.37 59.73 95.76 57.09 95.14 54.46 93.57 54.43 91.99 54.6 90.43 54.38 84.39 53.17 81.84 45.57 75.45 45.28 71.56 44.75 67.63 46.33 64.56 48.64Z" fill="#403835"/><path d="M65.9 67.43C63.63 61.75 65.1 54.86 70.03 51.08 73.24 51.11 76.86 51.36 78.99 54.12 82.31 57.3 82.72 62.05 82.62 66.38 78.76 65.58 74.89 64.47 70.91 64.61 69.05 65.14 67.53 66.42 65.9 67.43M65.85 57.09C67.41 57.53 68.97 58.02 70.52 58.52 71.03 60.2 71.52 61.88 71.95 63.58 75.22 64.37 78.55 64.81 81.86 65.37 81.55 62.75 81.92 59.86 80.42 57.55 78.98 54.93 76.54 53.1 73.98 51.67 70.18 51.45 67.56 53.99 65.85 57.09Z" fill="#403835"/><path d="M38.88 80.45C33.58 74 35.22 63.78 41.09 58.21 48.22 57.79 51.69 65.03 55.14 70.03 49.21 70.9 43.97 74.03 39.45 77.81 39.31 78.47 39.02 79.79 38.88 80.45M38.96 61.93C35.48 66.6 36.06 72.95 37.77 78.18 41.18 75.36 44.47 72.13 48.94 71.09 45.06 69.17 46.44 64.73 48.1 61.8 46.5 60.68 45.04 58.95 42.9 59.1 41.03 58.88 40.01 60.74 38.96 61.93Z" fill="#403835"/><path d="M66.62 73.77C68.26 72.88 69.06 71.16 70.06 69.67 70.88 73.28 72.25 76.98 71.54 80.73 70.56 83.36 68.14 85.93 65.1 85.69 59.96 85.41 55.88 81.13 54.13 76.56 58.51 79.05 62.97 76.17 66.62 73.77M55.94 78.85C58.6 83.11 63.66 83.28 68.13 83.61 68.98 82.45 69.84 81.3 70.7 80.15 70.65 77.51 70.5 74.88 70.21 72.26 66.02 75.45 61.52 79.02 55.94 78.85Z" fill="#403835"/></g><g id="#6fc3dfff"><path d="M64.56 48.64C67.63 46.33 71.56 44.75 75.45 45.28 81.84 45.57 84.39 53.17 90.43 54.38 91.99 54.6 93.57 54.43 95.14 54.46 95.76 57.09 96.37 59.73 97.09 62.34 97.02 68.2 99.13 73.93 98.29 79.79 95.2 79.52 92.05 79.13 89.01 79.93 81.67 81.7 74.5 84.29 67.87 87.91 60.56 91.95 51.88 90.33 44.1 88.85 37.37 88.26 29.08 88.28 24.44 94.04 22.48 85.59 21.4 76.68 22.92 68.07 26.64 64.76 26.74 58.9 31.1 56.15 34.12 54.48 37.45 53.25 40.89 52.88 45.76 53.24 50.1 56.03 54.98 56.32 59.77 56.31 61.29 51.14 64.56 48.64M65.9 67.43C67.53 66.42 69.05 65.14 70.91 64.61 74.89 64.47 78.76 65.58 82.62 66.38 82.72 62.05 82.31 57.3 78.99 54.12 76.86 51.36 73.24 51.11 70.03 51.08 65.1 54.86 63.63 61.75 65.9 67.43M38.88 80.45C39.02 79.79 39.31 78.47 39.45 77.81 43.97 74.03 49.21 70.9 55.14 70.03 51.69 65.03 48.22 57.79 41.09 58.21 35.22 63.78 33.58 74 38.88 80.45M66.62 73.77C62.97 76.17 58.51 79.05 54.13 76.56 55.88 81.13 59.96 85.41 65.1 85.69 68.14 85.93 70.56 83.36 71.54 80.73 72.25 76.98 70.88 73.28 70.06 69.67 69.06 71.16 68.26 72.88 66.62 73.77Z" fill="#6FC3DF"/></g><g id="#f2f8f1ff"><path d="M65.85 57.09C67.56 53.99 70.18 51.45 73.98 51.67 76.54 53.1 78.98 54.93 80.42 57.55 81.92 59.86 81.55 62.75 81.86 65.37 78.55 64.81 75.22 64.37 71.95 63.58 71.52 61.88 71.03 60.2 70.52 58.52 68.97 58.02 67.41 57.53 65.85 57.09Z" fill="#F2F8F1"/><path d="M38.96 61.93C40.01 60.74 41.03 58.88 42.9 59.1 45.04 58.95 46.5 60.68 48.1 61.8 46.44 64.73 45.06 69.17 48.94 71.09 44.47 72.13 41.18 75.36 37.77 78.18 36.06 72.95 35.48 66.6 38.96 61.93Z" fill="#F2F8F1"/><path d="M55.94 78.85C61.52 79.02 66.02 75.45 70.21 72.26 70.5 74.88 70.65 77.51 70.7 80.15 69.84 81.3 68.98 82.45 68.13 83.61 63.66 83.28 58.6 83.11 55.94 78.85Z" fill="#F2F8F1"/></g></svg>