<?xml version="1.0" encoding="UTF-8" standalone="no"?>
<svg
   version="1.1"
   width="273px"
   height="254px"
   viewBox="-0.25 -0.6 272.6 253.9"
   id="svg62"
   sodipodi:docname="147 (copy).svg"
   inkscape:version="1.2.2 (b0a8486541, 2022-12-01)"
   xmlns:inkscape="http://www.inkscape.org/namespaces/inkscape"
   xmlns:sodipodi="http://sodipodi.sourceforge.net/DTD/sodipodi-0.dtd"
   xmlns="http://www.w3.org/2000/svg"
   xmlns:svg="http://www.w3.org/2000/svg">
  <defs
     id="defs66" />
  <sodipodi:namedview
     id="namedview64"
     pagecolor="#ffffff"
     bordercolor="#666666"
     borderopacity="1.0"
     inkscape:showpageshadow="2"
     inkscape:pageopacity="0.0"
     inkscape:pagecheckerboard="0"
     inkscape:deskcolor="#d1d1d1"
     showgrid="false"
     inkscape:zoom="2.0669291"
     inkscape:cx="136.67619"
     inkscape:cy="127.2419"
     inkscape:window-width="1366"
     inkscape:window-height="691"
     inkscape:window-x="0"
     inkscape:window-y="0"
     inkscape:window-maximized="1"
     inkscape:current-layer="svg62" />
  <path
     fill="#0d131a"
     d="m 12.05,36.65 q 1.25,-0.2 3.25,3.45 l 4,8.1 q 2.95,5.65 5.2,9.4 3.5,5.65 7.7,10.85 3.6,4.45 4.35,5.85 2.35,6.15 -1.15,18.85 -3.2,11.65 -6.3,14.2 l -1.3,1.2 -2.1,1.8 q -1.25,0.7 -2.3,0.35 -1.1,-0.35 -1.65,-2.95 l -0.9,-6.4 Q 20.1,96 13.65,90.1 l -9.9,-7.7 -3,-2.7 q -1,-1.2 -0.6,-2.1 Q 0.5,76.8 4.25,76.2 8.35,75.55 9,75.05 9.85,74.45 9.9,72.75 9.9,71.3 9.3,67.3 8,59.05 7.7,54.8 7.2,48.8 8,44.6 q 0.65,-3.4 1.7,-5.5 1.1,-2.25 2.35,-2.45"
     id="path2" />
  <path
     fill="#dbdcdc"
     d="m 17.4,48.4 2.65,5.45 q 1.45,2.8 6.85,10.4 6.35,9 7.25,11.35 2.15,5.75 -1.05,17.6 -2.9,10.65 -5.3,12.6 l -1.4,1.3 q -1.85,1.85 -2.35,1.7 -0.35,-0.1 -0.75,-1.1 -0.7,-1.65 -1.2,-5.3 Q 21.25,96.1 17.45,91.55 15.15,88.85 9.25,84.6 1.45,79 2,78.15 2.4,77.6 3.65,77.35 l 2,-0.25 3.15,-0.5 q 2.4,-0.75 2.4,-4.35 L 10.5,66.1 Q 9.65,60.85 9.35,56.8 L 9.2,53 q 0,-5.6 1.25,-10.4 1.1,-4.35 1.95,-3.95 0.65,0.3 2.3,3.75 l 2.7,6"
     id="path4" />
  <path
     fill="#0d131a"
     d="M 3.4,78.5 Q 0.25,78.35 0.7,77.8 1.1,77.25 3.5,77 l 5.05,0.5 q 2.95,0.65 5.05,1.8 2.35,1.4 3.15,2.4 0.75,1 -1.8,-0.35 Q 10.4,78.9 3.4,78.5"
     id="path8" />
  <path
     fill="#88a3d4"
     d="m 209.25,84.95 q 15.35,-1.35 29.85,6.65 14.15,7.8 22.05,21.35 8.35,14.4 6.5,30.2 -3.4,28.85 -30.6,40.3 -20.85,8.8 -46.65,5.45 -6.3,-0.85 -11.5,2.9 -4.25,3.05 -8.3,9.65 -4.5,7.4 -9.25,13.15 -7.9,9.6 -19.35,19.25 -13.9,11.75 -34.6,15.4 -23.1,4.05 -40.95,-5.4 -21.9,-11.65 -27.85,-32.8 -5.8,-20.7 1.8,-57.25 L 43,141.4 q 1.1,-5.85 0.7,-9.05 -7.8,1.1 -16.3,-3 -9,-4.3 -12.25,-11.55 -2.05,-4.45 -1.45,-10.2 0.7,-7.25 5.8,-12.15 -2.7,-12.85 1.9,-23.65 3.65,-8.45 12.8,-17.5 8.65,-8.55 24.65,-9.85 16.05,-1.3 28.7,5.6 l 20.75,46.6 q -0.1,4.25 -3.1,12.25 -2.8,7.4 -5.4,11.35 -4.15,6.3 -5.8,15.35 -0.95,5.25 -1.3,13.95 -0.35,9.45 4.8,15.35 4.25,4.8 8.95,4.8 3.3,0 7.45,-3.55 l 8.75,-9 q 6.2,-6.65 16.75,-14.55 12.45,-9.35 20.9,-12.25 6.5,-2.2 17.7,-1.4 9.5,0.7 20.55,3.4 8,1.9 14.6,0.95 6.2,-0.9 9.3,-4 3.55,-3.55 3.1,-12.2 -0.5,-9.7 -6.9,-14.25 -7.3,-5.2 -18.8,-5 -10.45,0.2 -18.1,4.4 l -3.4,-0.1 q -0.6,-1.6 1.1,-3.25 13,-12.5 29.8,-13.95"
     id="path10" />
  <path
     fill="#dbdcdc"
     d="m 175.9,194.5 q -1.95,2.1 -11.75,16.3 -11,14.85 -20.65,22.1 -14.2,10.7 -28.55,14.75 Q 98.1,252.4 79.7,248.45 63.4,245 51.6,233.05 40.8,222.1 37.2,208 q -2.3,-9.1 -0.4,-30.5 1.85,-20.8 5.85,-34.45 11.25,-7.6 18.6,-5.6 8.2,2.25 10.45,16.25 0.85,5.35 2.6,21.8 2,15.35 5.3,22.65 5.25,11.55 15.4,18.05 9.15,5.8 20.9,6.75 10.9,0.9 21.35,-2.55 10.4,-3.4 17,-9.9 l 14,-14.1 q 7.45,-7.4 12.65,-11.3 13.5,-10.25 29.75,-9.85 20.6,0.55 30.95,-2.3 13.5,-3.65 22.3,-15.2 -7.05,17.75 -28.5,25.95 -18.85,7.2 -43.05,5.35 -6.75,-0.5 -9.25,0.2 -3.25,0.95 -7.2,5.25"
     id="path12" />
  <path
     fill="#0d131a"
     d="m 202.75,87.8 q -9.05,1.85 -17.3,7.6 -7.15,5 -6.4,6.25 0.3,0.5 2.2,-0.5 4.5,-2.6 10.6,-3.75 8.45,-1.65 17.65,0.05 8.05,1.5 12.75,7.45 3.05,3.85 4.25,8.8 1.25,5.2 0.2,10 -1.05,4.8 -3.85,7 -8.75,6.65 -25.75,2.6 -8.1,-2 -13.25,-2.65 -8.65,-1.1 -17.5,-0.2 -6.55,0.7 -14.45,5.2 -14.7,8.45 -35.8,29.85 -4.2,4.25 -8.5,5 -4.5,0.75 -8.7,-2.35 -8.75,-6.45 -7.55,-24.5 0.45,-6.9 2.35,-13.55 1.7,-6.15 3.7,-9 4.6,-6.55 6.9,-14.8 3.1,-11 1.95,-24.15 -0.35,-3.9 -1.45,-7.6 Q 99.85,58.3 85.4,50.6 71.45,43.15 53.5,46.15 39.8,48.45 30.6,59.35 21.75,69.9 20.85,83.8 q -0.7,10.1 3.15,19.5 3.55,8.75 10.8,16.4 l 4.8,4.5 q 4.75,4.2 5.65,6.9 1.3,4.15 -1.6,12.45 -2.25,6.3 -4.55,25.2 -2.75,22.2 -1,33.75 2.75,18.45 16.4,31 16.4,15.05 43.3,15.05 24.35,0 44.6,-16.75 11.4,-9.35 25.1,-28.6 4.75,-6.55 6.15,-8.1 4.95,-5.6 9.4,-6.9 l 9.25,-0.25 11.75,0.35 q 18.8,-1 32.25,-6.45 17.75,-7.15 24.6,-21.4 8.45,-17.5 3.85,-34.1 -4.6,-16.55 -21.65,-30.1 -8.7,-6.95 -20.15,-8.95 -9.8,-1.65 -20.2,0.5 m 9.1,-4.2 q 19.05,-1.05 33.75,10.65 17.3,13.75 22.05,31.8 4.7,17.85 -3.95,35.9 -12.75,26.4 -56.75,28.7 l -14.8,-0.7 -8.6,0.35 q -3.55,1.2 -8.15,6.4 l -2.8,4 -3.2,5.2 q -14.45,22.25 -33.65,33.95 -19.1,11.65 -40.95,11.65 -25.35,0 -42.4,-15.35 -14.9,-13.45 -17.2,-31.3 -2.15,-17.2 2.6,-43.85 5.25,-23.75 5.15,-25.65 -0.25,-5.7 -4.7,-9.6 L 33.3,121.1 Q 25.8,113.15 21.95,103.55 17.9,93.4 18.6,82.75 19.45,70.05 28.45,59.2 38.2,47.5 52.55,44.4 q 19.05,-4.05 35.1,4.25 16.1,8.35 20.95,25 1.2,4.3 1.55,8.1 1.15,13.4 -2.55,25.15 -2.65,8.55 -7.65,15.7 -1.95,2.75 -3.6,8.55 -1.8,6.2 -2.25,12.7 -1.2,16.7 6.65,22.45 4.4,3.2 7.4,2.2 2.55,-0.9 8.1,-6.7 10.2,-10.8 20.25,-18.85 17.65,-14.1 29.5,-15.3 9.1,-0.95 17.55,0.2 4.7,0.6 13.75,2.85 7.75,1.95 12.85,1.8 5.85,-0.25 10.45,-3.2 2.45,-1.6 3.35,-6.3 0.8,-4.6 -0.3,-9.3 -1.1,-4.55 -3.25,-7.3 -3.65,-4.8 -10.95,-6.15 -8.55,-1.6 -14.55,-0.95 -5.75,0.65 -12.8,3.7 -3.45,1.45 -4.75,0.35 -1.1,-1 0.65,-3.85 1.85,-3 5.6,-5.85 11.85,-9.15 28.25,-10.05"
     id="path18" />
  <path
     fill="#0d131a"
     d="m 107.25,168.9 6.95,-0.4 q 2.3,-0.4 5,-1.65 1.5,-0.65 1.85,-0.3 0.35,0.35 -1.2,1.35 -1.75,1.15 -5.3,1.9 l -8.95,0.85 q -2.1,0 -0.45,-0.85 l 2.1,-0.9"
     id="path24" />
  <path
     fill="#0d131a"
     d="m 175.1,193.7 q 1.9,-2.5 6.4,-5.8 4.3,-3.15 7.05,-4.2 3.2,-1.25 2.95,-0.75 l -2.75,1.9 q -2.7,1.65 -5.3,3.75 l -4.65,3.95 q -2.7,2.35 -4,2.95 -1.5,0.65 0.3,-1.8"
     id="path26" />
  <path
     fill="#0d131a"
     d="m 36.8,63.75 q -2.6,0 -3.3,-4 -0.7,-4.1 2.15,-5.7 2.25,-1.2 5.05,-0.25 2.65,0.95 2.9,2.75 0.3,2.15 -2.2,4.7 -2.45,2.5 -4.6,2.5"
     id="path28" />
  <path
     fill="#dbdcdc"
     d="m 34.95,60.05 q -0.35,-1.45 0,-2.75 0.45,-1.5 1.75,-2.2 l 3.6,0.1 q 1.3,0.7 1.4,1.55 l -0.4,1.55 -1.45,2.25 q -1.55,1.8 -3.05,1.8 -0.55,0 -1.1,-0.65 -0.55,-0.65 -0.75,-1.65"
     id="path30" />
  <path
     fill="#0d131a"
     d="m 27.3,79.55 q -1,8.25 -3.1,12.6 -1.7,3.4 -3.4,3.4 -1.9,0 -2.8,-3.25 -1.05,-3.85 -0.2,-11.25 0.7,-5.95 2.85,-9.85 2.15,-3.85 4.5,-3.55 1.75,0.25 2.3,2.85 0.55,2.9 -0.15,9.05"
     id="path34" />
  <path
     fill="#0d131a"
     d="m 59.25,57.4 q 5.15,-0.6 9.45,4.25 4.6,5.1 5.55,13.75 0.45,4.2 -2,8.15 -2.8,4.5 -7.5,4.8 -4.25,0.25 -7.5,-3.65 -2.95,-3.55 -3.9,-9.05 -1.6,-8.7 0.2,-13.5 1.65,-4.25 5.7,-4.75"
     id="path36" />
  <path
     fill="#ffffff"
     d="m 26.05,74.1 q -0.3,2.85 -1.4,5.2 -1.1,2.25 -2,2.15 -0.9,-0.1 -1.3,-1.6 -0.4,-1.6 -0.1,-4.4 0.3,-2.8 1.45,-4.95 1.1,-2.05 2.05,-1.95 1.8,0.15 1.3,5.55"
     id="path38" />
  <path
     fill="#ffffff"
     d="m 64.35,66.15 q 0.5,3.25 -0.25,5.55 -0.75,2.25 -2.45,2.65 -1.75,0.4 -3.3,-1.15 -1.6,-1.6 -2.35,-4.75 -0.8,-3.2 -0.05,-6.05 0.7,-2.85 2.4,-3.25 1.8,-0.45 3.6,1.55 1.9,2.1 2.4,5.45"
     id="path40" />
  <path
     fill="#0d131a"
     d="m 124.45,0 q 4.5,0.65 4.5,14.5 0,8.25 -2.95,33.95 l 6.75,0.2 q 2.4,0.65 3.15,1.95 0.65,1.05 -0.6,3.4 l -2.3,3.7 -3.3,5.5 q -3.4,5.9 -3.8,8.1 -0.25,1.8 0.55,5.5 l 2.35,8.5 q 2.25,7.5 2.7,12.9 0.6,6.9 -2.05,7.8 -1.9,0.65 -9.55,-2.8 -8.75,-4.2 -11.85,-5.5 L 95.4,92.6 q -8.25,-3.5 -9.35,-5.25 -0.85,-1.3 -0.95,-4.9 l -0.05,-3.8 -2.4,-2.7 Q 80.2,73.65 79.9,73.05 78.4,70.2 78.9,67.5 79.2,65.85 81.35,60.85 89.1,42.95 104.95,20.9 120.4,-0.6 124.45,0"
     id="path42" />
  <path
     fill="#dbdcdc"
     d="m 123.8,46.1 -0.8,4.7 6.3,-0.45 q 2.85,0.3 3.55,1.4 0.3,0.55 -1.65,3.55 l -1.05,1.55 q -6,8.8 -6.65,12.85 -0.3,2.05 0.65,7.2 l 2.3,10.25 1.95,9.1 q 0.45,3.05 0.2,5.15 -0.25,1.9 -0.95,2.2 -0.75,0.25 -6.25,-2.25 l -12.25,-5.4 -13.9,-5.65 q -6.7,-2.85 -7.5,-4.05 -0.55,-0.9 -0.6,-3.45 L 87,78.2 Q 86.7,75.85 85.2,74.6 83.05,72.85 82.3,71.55 81.45,70 81.55,68.35 82.1,59.75 100.95,31 q 7.65,-11.75 14,-19.8 6.75,-8.55 8.55,-8.55 2.15,0 2.7,5 0.3,2.6 0.2,6.45 0.15,3.75 -0.8,14.7 -0.85,10.1 -1.8,17.3"
     id="path44" />
  <path
     fill="#0d131a"
     d="m 124.5,48.7 q 3.45,-0.65 4.4,0.5 0.35,0.4 -0.05,0.75 -0.4,0.35 -1.3,0.3 -4.25,-0.3 -18,6.05 -11.4,5.25 -23.7,12.35 -2.35,1.35 -2.55,0.7 -0.2,-0.7 1.35,-1.9 5.05,-3.85 17.85,-10.15 14.35,-7.05 22,-8.6"
     id="path50" />
  <path
     fill="#0d131a"
     d="m 94.05,79.25 q -2,1.75 -2.55,1.5 -0.5,-0.25 1.15,-2.4 4,-5.15 36.95,-25.2 1.85,-0.9 1.55,-0.2 -0.3,0.7 -1.8,1.55 -31.7,21.55 -35.3,24.75"
     id="path52" />
  <path
     fill="#0d131a"
     d="M 19.05,94.15 Q 26.7,86 37.25,84.3 q 18.2,-3 29.15,4.4 10.25,6.9 10.25,19.9 0,8.2 -7.4,14.7 -8.1,7.1 -22.55,9.55 -11.9,2 -22,-3.25 -10.95,-5.65 -12.45,-16.5 -1.45,-10.25 6.8,-18.95"
     id="path54" />
  <path
     fill="#dbdcdc"
     d="m 37.9,86.2 q 13.75,-2.55 24.55,3.75 11.15,6.5 11.15,18.3 0,7.7 -7.7,14.25 -7.95,6.75 -19.65,8.3 -12,1.6 -20.95,-3.7 -8.7,-5.15 -10.1,-14.15 -1.45,-9.55 5.8,-17.45 6.75,-7.4 16.9,-9.3"
     id="path56" />
</svg>
