<?xml version="1.0" encoding="UTF-8" ?>
<!DOCTYPE svg PUBLIC "-//W3C//DTD SVG 1.1//EN" "http://www.w3.org/Graphics/SVG/1.1/DTD/svg11.dtd">
<svg width="120pt" height="120pt" viewBox="0 0 120 120" version="1.1" xmlns="http://www.w3.org/2000/svg">
<g id="#41423eff">
<path fill="#41423e" opacity="1.00" d=" M 51.45 17.43 C 55.23 14.64 60.34 11.72 65.07 13.91 C 67.97 15.22 70.39 17.40 73.30 18.73 C 76.58 20.12 77.90 23.65 79.40 26.60 C 80.82 32.06 82.58 37.48 83.19 43.12 C 86.97 43.15 90.78 42.85 94.54 43.32 C 96.96 45.15 100.37 47.90 98.38 51.28 C 95.20 57.07 87.53 56.41 82.00 58.20 C 81.57 65.92 81.14 74.01 77.96 81.17 C 81.39 87.75 86.21 94.73 84.72 102.53 C 83.00 104.52 81.13 107.49 78.08 106.90 C 74.44 106.36 71.01 104.14 68.93 101.09 C 67.64 98.84 66.46 96.52 65.13 94.29 C 62.14 94.88 59.09 94.99 56.05 95.07 C 54.02 101.28 48.09 105.56 41.90 106.90 C 38.13 107.56 35.95 104.09 35.20 100.92 C 35.82 95.57 37.91 90.37 41.86 86.61 C 35.85 79.95 35.75 70.48 34.93 62.04 C 30.65 60.61 24.82 62.25 22.29 57.55 C 21.96 55.12 22.10 52.65 22.09 50.21 C 26.63 46.49 31.89 43.50 37.80 42.76 C 39.39 37.25 41.14 31.77 43.60 26.58 C 45.03 22.70 48.42 20.05 51.45 17.43 M 48.17 25.21 C 42.09 33.17 41.07 43.41 39.00 52.87 C 44.33 53.54 49.65 52.23 54.98 52.23 C 62.97 52.19 70.92 51.43 78.88 50.76 C 79.18 42.14 79.23 32.97 74.68 25.32 C 71.07 21.38 66.08 18.82 60.95 17.53 C 55.56 17.35 51.45 21.45 48.17 25.21 M 84.83 45.86 C 83.06 46.92 82.21 48.93 81.10 50.57 C 85.79 49.74 90.44 48.68 95.08 47.55 C 91.87 46.29 88.30 44.58 84.83 45.86 M 30.08 48.17 C 28.00 49.34 26.48 51.22 24.81 52.87 C 28.50 52.71 32.21 52.53 35.91 52.64 C 36.62 50.47 37.33 48.31 38.05 46.14 C 35.38 46.74 32.60 47.05 30.08 48.17 M 81.46 52.57 C 81.49 53.23 81.54 54.57 81.57 55.23 C 86.68 54.54 92.97 54.48 96.20 49.74 C 91.13 49.44 86.09 50.55 81.46 52.57 M 24.90 55.64 C 26.26 56.53 27.26 58.44 29.05 58.41 C 31.84 58.29 35.84 59.62 36.48 55.80 C 32.96 53.68 28.56 54.13 24.90 55.64 M 49.54 55.66 C 45.96 56.05 42.34 56.67 38.98 58.00 C 37.34 62.28 37.88 66.97 38.75 71.36 C 39.61 75.38 40.50 79.57 43.00 82.94 C 45.39 86.42 48.24 90.64 52.99 90.56 C 58.41 90.58 65.12 91.70 69.03 87.01 C 77.07 78.39 78.46 65.80 78.46 54.53 C 68.81 54.50 59.16 54.82 49.54 55.66 M 68.60 90.92 C 69.93 94.96 70.27 100.41 74.77 102.32 C 77.08 102.88 80.77 103.40 81.50 100.37 C 84.22 93.98 78.44 88.44 75.81 83.11 C 73.38 85.69 71.07 88.38 68.60 90.92 M 38.53 99.37 C 37.35 101.82 40.78 103.45 42.77 102.82 C 47.63 102.03 50.33 97.58 52.78 93.80 C 49.90 92.47 47.14 90.88 44.54 89.06 C 42.33 92.35 39.87 95.61 38.53 99.37 Z" />
<path fill="#41423e" opacity="1.00" d=" M 57.23 31.65 C 59.28 30.42 60.22 34.72 58.02 34.90 C 56.50 34.78 56.23 32.53 57.23 31.65 Z" />
<path fill="#41423e" opacity="1.00" d=" M 62.16 30.90 C 64.44 29.97 63.97 34.14 61.99 33.86 C 60.50 33.56 61.16 31.41 62.16 30.90 Z" />
<path fill="#41423e" opacity="1.00" d=" M 45.26 44.49 C 44.85 38.80 48.36 33.20 53.94 31.63 C 56.76 35.47 57.21 40.35 55.95 44.85 C 52.38 44.98 48.81 44.91 45.26 44.49 M 45.56 43.35 C 47.19 43.55 48.81 43.74 50.44 43.93 C 50.96 40.85 52.39 38.08 54.89 36.15 C 54.57 35.01 54.25 33.87 53.94 32.73 C 49.44 34.59 46.83 38.82 45.56 43.35 Z" />
<path fill="#41423e" opacity="1.00" d=" M 63.42 34.53 C 64.99 33.25 67.28 32.57 69.02 33.95 C 72.49 35.56 73.49 39.44 74.12 42.87 C 70.59 45.41 66.15 45.01 62.05 44.72 C 62.16 41.31 62.14 37.75 63.42 34.53 M 65.81 33.55 C 64.18 37.13 66.87 40.26 67.90 43.57 C 69.35 43.21 70.80 42.85 72.25 42.50 C 73.47 38.06 69.62 34.77 65.81 33.55 Z" />
</g>
<g id="#f3f7f0ff">
<path fill="#f3f7f0" opacity="1.00" d=" M 48.17 25.21 C 51.45 21.45 55.56 17.35 60.95 17.53 C 66.08 18.82 71.07 21.38 74.68 25.32 C 79.23 32.97 79.18 42.14 78.88 50.76 C 70.92 51.43 62.97 52.19 54.98 52.23 C 49.65 52.23 44.33 53.54 39.00 52.87 C 41.07 43.41 42.09 33.17 48.17 25.21 M 57.23 31.65 C 56.23 32.53 56.50 34.78 58.02 34.90 C 60.22 34.72 59.28 30.42 57.23 31.65 M 62.16 30.90 C 61.16 31.41 60.50 33.56 61.99 33.86 C 63.97 34.14 64.44 29.97 62.16 30.90 M 45.26 44.49 C 48.81 44.91 52.38 44.98 55.95 44.85 C 57.21 40.35 56.76 35.47 53.94 31.63 C 48.36 33.20 44.85 38.80 45.26 44.49 M 63.42 34.53 C 62.14 37.75 62.16 41.31 62.05 44.72 C 66.15 45.01 70.59 45.41 74.12 42.87 C 73.49 39.44 72.49 35.56 69.02 33.95 C 67.28 32.57 64.99 33.25 63.42 34.53 Z" />
<path fill="#f3f7f0" opacity="1.00" d=" M 45.56 43.35 C 46.83 38.82 49.44 34.59 53.94 32.73 C 54.25 33.87 54.57 35.01 54.89 36.15 C 52.39 38.08 50.96 40.85 50.44 43.93 C 48.81 43.74 47.19 43.55 45.56 43.35 Z" />
<path fill="#f3f7f0" opacity="1.00" d=" M 65.81 33.55 C 69.62 34.77 73.47 38.06 72.25 42.50 C 70.80 42.85 69.35 43.21 67.90 43.57 C 66.87 40.26 64.18 37.13 65.81 33.55 Z" />
<path fill="#f3f7f0" opacity="1.00" d=" M 81.46 52.57 C 86.09 50.55 91.13 49.44 96.20 49.74 C 92.97 54.48 86.68 54.54 81.57 55.23 C 81.54 54.57 81.49 53.23 81.46 52.57 Z" />
<path fill="#f3f7f0" opacity="1.00" d=" M 24.90 55.64 C 28.56 54.13 32.96 53.68 36.48 55.80 C 35.84 59.62 31.84 58.29 29.05 58.41 C 27.26 58.44 26.26 56.53 24.90 55.64 Z" />
<path fill="#f3f7f0" opacity="1.00" d=" M 68.60 90.92 C 71.07 88.38 73.38 85.69 75.81 83.11 C 78.44 88.44 84.22 93.98 81.50 100.37 C 80.77 103.40 77.08 102.88 74.77 102.32 C 70.27 100.41 69.93 94.96 68.60 90.92 Z" />
<path fill="#f3f7f0" opacity="1.00" d=" M 38.53 99.37 C 39.87 95.61 42.33 92.35 44.54 89.06 C 47.14 90.88 49.90 92.47 52.78 93.80 C 50.33 97.58 47.63 102.03 42.77 102.82 C 40.78 103.45 37.35 101.82 38.53 99.37 Z" />
</g>
<g id="#449ec4ff">
<path fill="#449ec4" opacity="1.00" d=" M 84.83 45.86 C 88.30 44.58 91.87 46.29 95.08 47.55 C 90.44 48.68 85.79 49.74 81.10 50.57 C 82.21 48.93 83.06 46.92 84.83 45.86 Z" />
<path fill="#449ec4" opacity="1.00" d=" M 30.08 48.17 C 32.60 47.05 35.38 46.74 38.05 46.14 C 37.33 48.31 36.62 50.47 35.91 52.64 C 32.21 52.53 28.50 52.71 24.81 52.87 C 26.48 51.22 28.00 49.34 30.08 48.17 Z" />
<path fill="#449ec4" opacity="1.00" d=" M 49.54 55.66 C 59.16 54.82 68.81 54.50 78.46 54.53 C 78.46 65.80 77.07 78.39 69.03 87.01 C 65.12 91.70 58.41 90.58 52.99 90.56 C 48.24 90.64 45.39 86.42 43.00 82.94 C 40.50 79.57 39.61 75.38 38.75 71.36 C 37.88 66.97 37.34 62.28 38.98 58.00 C 42.34 56.67 45.96 56.05 49.54 55.66 Z" />
</g>
</svg>
