<?xml version="1.0" encoding="UTF-8" standalone="no"?>
<svg xmlns="http://www.w3.org/2000/svg" version="1.2" baseProfile="tiny" viewBox="0.00 0.00 500.00 500.00"><link xmlns="" type="text/css" rel="stylesheet" id="dark-mode-custom-link"/><link xmlns="" type="text/css" rel="stylesheet" id="dark-mode-general-link"/><style xmlns="" lang="en" type="text/css" id="dark-mode-custom-style"/><style xmlns="" lang="en" type="text/css" id="dark-mode-native-style"/><style xmlns="" lang="en" type="text/css" id="dark-mode-native-sheet"/>
<path fill="#686869" d="   M 448.62 198.96   Q 448.60 199.31 448.45 199.54   Q 448.29 199.78 447.97 199.77   Q 447.45 199.77 447.26 199.31   Q 448.03 199.33 447.47 198.20   Q 447.25 197.75 447.45 197.29   L 451.61 187.80   L 456.57 177.27   Q 462.91 163.21 469.27 149.11   C 472.19 142.62 477.75 132.66 480.26 124.74   Q 481.54 120.70 478.73 116.99   C 463.18 94.88 446.32 71.40 429.32 49.15   C 428.05 47.50 426.32 46.24 424.95 44.59   Q 410.23 35.92 395.63 27.32   C 390.52 24.32 387.06 24.42 382.39 22.75   C 377.89 21.13 373.15 21.20 368.56 20.05   Q 360.62 18.06 352.55 16.78   C 327.59 12.81 307.70 9.96 276.25 4.75   Q 267.85 3.35 260.96 3.44   Q 260.44 3.45 260.04 3.76   Q 258.26 5.14 257.88 5.91   Q 250.39 21.15 242.81 36.35   C 242.11 37.76 241.79 39.71 241.05 41.27   C 234.77 54.51 230.06 68.35 223.53 81.46   Q 222.20 81.44 221.55 80.97   Q 230.07 61.88 237.99 42.52   C 243.36 29.40 249.51 17.59 255.83 5.33   C 257.69 1.72 260.24 -0.31 264.25 0.26   Q 269.55 1.02 277.45 2.63   C 294.83 6.16 312.25 8.48 330.42 11.05   Q 346.64 13.34 367.75 17.50   C 378.88 19.70 387.95 20.68 395.87 25.42   Q 408.31 32.85 421.18 39.52   C 428.00 43.06 433.00 50.08 436.69 55.06   Q 453.63 77.87 470.08 101.03   C 476.71 110.36 486.59 116.70 480.73 129.60   Q 464.93 164.39 448.62 198.96   Z"/>
<path fill="#faf9f9" d="   M 424.95 44.59   Q 425.00 45.61 421.90 45.77   Q 415.39 51.68 404.06 60.56   Q 397.66 65.59 390.99 73.89   Q 388.79 77.85 387.28 76.96   Q 386.20 76.92 386.03 77.30   Q 378.29 94.32 370.31 111.23   C 367.26 117.68 365.35 124.23 362.11 130.95   Q 358.40 138.66 355.08 146.54   A 0.73 0.73 0.0 0 1 354.36 146.99   Q 353.93 146.97 353.67 147.18   C 330.78 139.57 307.86 133.30 284.00 129.48   Q 282.26 129.21 282.01 127.97   Q 281.84 127.11 281.83 127.09   Q 277.41 113.75 271.40 101.04   Q 268.52 94.95 266.68 92.55   C 264.26 89.41 260.76 88.94 257.10 87.86   Q 240.84 83.04 223.87 82.08   Q 223.54 82.06 223.48 81.73   Q 223.46 81.60 223.53 81.46   C 230.06 68.35 234.77 54.51 241.05 41.27   C 241.79 39.71 242.11 37.76 242.81 36.35   Q 250.39 21.15 257.88 5.91   Q 258.26 5.14 260.04 3.76   Q 260.44 3.45 260.96 3.44   Q 267.85 3.35 276.25 4.75   C 307.70 9.96 327.59 12.81 352.55 16.78   Q 360.62 18.06 368.56 20.05   C 373.15 21.20 377.89 21.13 382.39 22.75   C 387.06 24.42 390.52 24.32 395.63 27.32   Q 410.23 35.92 424.95 44.59   Z"/>
<path fill="#686869" d="   M 383.59 26.27   Q 383.65 25.16 384.33 26.03   Q 385.14 27.06 385.34 28.82   Q 387.45 47.24 388.38 65.75   Q 388.53 68.57 387.89 70.78   A 0.64 0.64 0.0 0 1 386.63 70.63   C 386.44 66.50 386.63 62.43 386.17 58.48   C 384.93 47.90 383.02 36.94 383.59 26.27   Z"/>
<path fill="#a59997" d="   M 424.95 44.59   C 426.32 46.24 428.05 47.50 429.32 49.15   C 446.32 71.40 463.18 94.88 478.73 116.99   C 478.10 120.87 478.60 124.18 476.98 127.79   Q 471.71 139.52 466.27 150.91   C 462.71 150.95 456.94 151.59 454.51 154.62   Q 454.17 155.05 453.63 155.10   Q 449.93 155.48 446.94 157.70   A 1.11 1.08 -54.3 0 1 445.99 157.87   Q 439.54 155.97 435.02 160.78   A 0.68 0.68 0.0 0 1 434.18 160.91   L 431.96 159.65   Q 431.48 159.38 431.04 159.71   C 429.22 161.07 428.20 162.89 426.31 164.06   Q 423.61 165.75 421.11 167.79   A 1.65 1.61 -66.4 0 1 420.20 168.16   C 417.48 168.41 411.51 168.60 409.74 170.86   A 1.26 1.25 14.3 0 1 408.96 171.32   Q 407.20 171.61 406.17 173.05   Q 389.50 163.08 372.06 154.45   C 367.04 151.97 361.53 149.99 356.20 147.82   Q 360.59 138.24 365.05 128.95   C 368.42 121.94 370.43 114.79 373.97 107.54   Q 381.25 92.67 387.28 76.96   Q 388.79 77.85 390.99 73.89   Q 401.80 64.22 416.47 52.48   Q 419.51 50.04 421.90 45.77   Q 425.00 45.61 424.95 44.59   Z"/>
<path fill="#686869" d="   M 421.90 45.77   Q 419.51 50.04 416.47 52.48   Q 401.80 64.22 390.99 73.89   Q 397.66 65.59 404.06 60.56   Q 415.39 51.68 421.90 45.77   Z"/>
<path fill="#686869" d="   M 387.28 76.96   Q 381.25 92.67 373.97 107.54   C 370.43 114.79 368.42 121.94 365.05 128.95   Q 360.59 138.24 356.20 147.82   L 353.67 147.18   Q 353.93 146.97 354.36 146.99   A 0.73 0.73 0.0 0 0 355.08 146.54   Q 358.40 138.66 362.11 130.95   C 365.35 124.23 367.26 117.68 370.31 111.23   Q 378.29 94.32 386.03 77.30   Q 386.20 76.92 387.28 76.96   Z"/>
<path fill="#000000" d="   M 221.55 80.97   Q 222.20 81.44 223.53 81.46   Q 223.46 81.60 223.48 81.73   Q 223.54 82.06 223.87 82.08   Q 240.84 83.04 257.10 87.86   C 260.76 88.94 264.26 89.41 266.68 92.55   Q 268.52 94.95 271.40 101.04   Q 277.41 113.75 281.83 127.09   Q 281.84 127.11 282.01 127.97   Q 282.26 129.21 284.00 129.48   C 307.86 133.30 330.78 139.57 353.67 147.18   L 356.20 147.82   C 361.53 149.99 367.04 151.97 372.06 154.45   Q 389.50 163.08 406.17 173.05   Q 425.90 183.48 444.30 197.29   L 447.26 199.31   Q 447.45 199.77 447.97 199.77   Q 448.29 199.78 448.45 199.54   Q 448.60 199.31 448.62 198.96   Q 448.82 200.33 449.33 200.67   C 454.69 204.23 461.69 209.07 463.75 215.25   C 465.43 220.29 466.07 228.50 466.72 232.58   C 468.25 242.15 470.25 251.80 470.77 261.49   C 471.01 266.00 471.68 271.16 474.98 274.57   Q 485.94 285.88 494.70 298.96   C 498.74 304.99 496.52 319.45 497.42 326.75   C 498.57 336.18 498.27 345.96 498.42 355.47   C 498.70 372.04 496.46 385.67 486.64 399.16   Q 472.57 418.49 457.60 437.11   C 451.76 444.38 438.71 446.29 430.04 448.06   C 428.06 448.47 425.03 451.43 423.39 453.45   C 419.04 458.79 411.53 467.79 404.87 469.94   Q 391.94 474.11 378.51 476.03   Q 377.77 476.13 377.42 476.93   Q 377.10 476.23 376.27 476.60   Q 371.59 476.16 367.68 475.36   Q 340.69 469.82 314.83 460.41   C 307.91 457.89 299.11 440.27 296.12 433.64   C 291.42 423.21 286.41 410.14 279.33 401.18   Q 274.03 394.46 259.30 376.55   Q 258.98 376.15 258.47 376.28   Q 258.18 376.36 258.05 376.54   L 256.53 376.58   L 221.63 377.57   Q 221.13 377.38 220.20 377.58   L 196.22 379.22   Q 194.24 378.71 192.02 380.45   L 182.53 381.58   L 180.20 382.07   L 151.70 389.57   L 150.09 389.97   Q 139.74 393.42 129.08 391.85   L 127.26 391.42   C 120.65 389.60 114.45 386.69 107.67 385.50   Q 98.61 383.92 90.12 380.35   C 86.09 378.65 80.95 363.98 79.42 359.69   C 77.42 354.03 76.63 347.65 75.38 341.55   Q 75.35 341.41 75.58 341.33   Q 75.86 341.23 75.93 341.51   C 77.57 348.46 85.07 375.66 91.35 378.57   C 98.94 382.08 108.09 383.39 116.21 385.51   C 128.56 390.29 139.29 391.76 151.52 387.21   Q 175.36 380.46 200.11 376.97   Q 215.79 375.24 231.76 375.27   C 244.21 375.11 266.92 376.12 276.27 366.28   C 281.38 360.91 287.40 355.89 291.89 350.54   Q 295.12 346.68 298.15 342.66   Q 298.60 342.05 299.25 342.32   L 297.78 344.63   C 295.09 348.26 293.25 352.39 289.77 355.45   C 281.20 362.98 274.23 373.99 261.93 375.07   A 0.53 0.53 0.0 0 0 261.57 375.93   Q 271.14 387.57 280.39 399.46   C 287.83 409.03 292.91 421.76 297.86 432.78   C 302.28 442.65 306.77 449.71 313.34 457.23   Q 324.03 461.90 335.25 464.76   Q 350.53 469.43 366.24 472.34   C 371.01 473.22 375.45 474.47 380.18 473.66   Q 390.79 471.85 405.27 467.52   C 407.94 466.86 412.23 462.78 413.93 460.91   C 417.39 457.10 424.32 447.90 428.96 446.28   Q 431.82 445.28 434.92 444.82   Q 442.15 443.38 448.62 440.69   C 453.21 438.77 457.00 433.92 460.38 430.34   L 485.09 397.64   C 491.60 390.06 495.35 378.45 495.24 368.58   Q 495.72 363.66 495.61 354.69   Q 495.32 331.32 494.81 307.95   C 494.74 304.71 494.14 300.82 492.50 298.50   Q 484.56 287.28 470.74 272.94   Q 470.39 272.57 470.32 272.06   L 468.15 255.78   Q 465.41 236.16 462.36 217.98   C 461.42 212.36 456.66 208.31 452.38 205.33   C 444.14 199.58 436.09 193.59 427.50 188.42   Q 411.72 178.90 396.08 169.15   Q 390.52 165.68 368.92 154.93   C 365.02 152.99 360.79 152.03 356.65 150.76   L 349.03 148.36   Q 332.59 142.37 322.75 139.99   C 310.18 136.95 297.76 133.79 284.92 131.73   C 274.89 130.13 264.94 128.84 254.96 126.80   Q 254.43 126.69 254.31 126.36   Q 254.19 126.00 254.39 125.45   L 258.84 126.03   L 279.29 128.84   A 0.47 0.47 0.0 0 0 279.80 128.21   C 276.57 119.23 270.83 97.24 262.76 92.09   L 258.47 90.46   Q 256.07 88.99 252.71 88.81   Q 216.51 79.31 180.23 88.58   C 170.27 91.13 161.64 112.20 157.80 120.92   Q 157.60 121.38 157.13 121.56   Q 146.47 125.59 136.02 130.11   Q 134.87 130.61 133.92 131.44   Q 120.73 142.90 109.48 156.60   Q 108.14 158.22 110.15 157.60   Q 117.53 155.30 125.29 154.95   A 0.25 0.25 0.0 0 1 125.37 155.44   L 102.20 162.50   Q 76.60 170.39 54.44 185.44   Q 52.27 186.91 50.06 189.93   Q 37.21 212.66 33.46 220.48   Q 18.17 252.34 7.14 285.92   Q 6.39 288.20 5.52 292.28   C 4.34 303.15 4.75 314.08 4.75 325.00   C 4.76 349.38 9.49 370.49 14.76 393.50   Q 15.26 395.71 18.47 399.80   L 22.33 405.23   L 28.79 411.64   Q 43.33 425.39 60.44 437.31   Q 68.06 442.63 76.12 445.75   Q 76.97 446.95 76.42 447.95   Q 68.24 445.27 59.17 439.08   Q 35.94 423.21 18.53 404.73   C 15.84 401.88 13.45 396.73 12.41 392.38   C 7.34 371.11 1.60 349.19 1.80 327.11   C 1.89 316.96 0.78 305.74 2.62 295.83   Q 4.93 283.35 7.47 276.24   Q 16.00 252.42 31.26 219.56   C 36.27 208.76 42.29 198.78 48.39 188.61   Q 49.92 186.05 52.32 184.27   C 66.99 173.44 85.32 165.08 102.84 160.16   C 106.51 159.13 107.26 156.13 109.10 154.07   C 116.89 145.38 123.71 136.69 132.66 129.41   Q 134.23 128.14 136.69 127.18   Q 145.11 123.89 153.52 120.54   C 155.46 119.77 157.06 117.78 157.77 116.23   C 161.84 107.41 169.22 88.68 179.27 86.62   C 191.80 84.05 203.89 81.77 216.76 81.75   C 218.52 81.74 219.86 82.66 221.55 80.97   Z"/>
<path fill="#cda794" d="   M 252.71 88.81   L 251.79 94.18   A 1.46 1.39 -20.3 0 1 251.44 94.89   C 249.43 97.09 246.60 98.72 245.00 101.17   C 243.36 103.68 241.53 106.90 238.19 106.86   C 228.80 106.73 217.72 108.19 217.82 120.27   A 0.87 0.84 27.6 0 0 217.99 120.78   Q 219.00 122.12 218.13 123.61   A 1.38 1.35 -87.3 0 1 217.55 124.15   L 213.86 126.04   A 1.06 1.05 82.7 0 0 213.29 126.79   C 212.48 130.78 211.56 134.52 209.65 138.16   C 208.31 140.72 208.47 147.49 212.09 148.44   Q 212.62 148.58 212.74 149.12   L 213.08 150.70   Q 213.19 151.21 212.66 151.24   L 211.74 151.31   C 197.80 150.51 184.07 149.53 170.09 149.49   C 166.11 149.48 162.05 150.72 157.82 150.83   Q 157.64 150.84 157.50 151.00   Q 157.21 151.32 157.64 151.29   Q 163.05 150.80 165.93 150.88   Q 186.23 151.44 206.53 153.17   Q 197.82 155.86 188.75 155.54   Q 182.51 155.32 176.72 155.79   C 168.00 156.50 158.67 159.97 150.09 162.71   Q 146.40 163.89 142.75 164.02   Q 128.10 164.54 106.93 164.14   Q 103.92 164.08 102.20 162.50   L 125.37 155.44   A 0.25 0.25 0.0 0 0 125.29 154.95   Q 117.53 155.30 110.15 157.60   Q 108.14 158.22 109.48 156.60   Q 120.73 142.90 133.92 131.44   Q 134.87 130.61 136.02 130.11   Q 146.47 125.59 157.13 121.56   Q 157.60 121.38 157.80 120.92   C 161.64 112.20 170.27 91.13 180.23 88.58   Q 216.51 79.31 252.71 88.81   Z"/>
<path fill="#c1937e" d="   M 252.71 88.81   Q 256.07 88.99 258.47 90.46   Q 258.17 100.53 257.35 110.43   C 256.93 115.40 255.28 120.36 254.39 125.45   Q 254.19 126.00 254.31 126.36   Q 254.43 126.69 254.96 126.80   C 264.94 128.84 274.89 130.13 284.92 131.73   C 297.76 133.79 310.18 136.95 322.75 139.99   Q 332.59 142.37 349.03 148.36   Q 358.06 161.29 361.91 175.28   C 364.55 184.86 363.82 197.41 362.97 207.00   Q 362.64 210.69 365.53 211.89   Q 365.99 212.09 366.13 212.57   L 366.68 214.46   L 339.01 211.73   Q 338.20 211.86 337.15 211.44   Q 337.18 211.38 337.22 211.33   Q 337.66 210.28 336.45 209.29   C 325.55 200.43 314.26 190.40 301.96 183.71   Q 291.29 177.91 280.45 173.16   Q 273.27 168.73 265.82 165.67   C 255.66 161.49 245.35 157.36 234.76 155.09   Q 223.36 152.64 211.74 151.31   L 212.66 151.24   Q 213.19 151.21 213.08 150.70   L 212.74 149.12   Q 212.62 148.58 212.09 148.44   C 208.47 147.49 208.31 140.72 209.65 138.16   C 211.56 134.52 212.48 130.78 213.29 126.79   A 1.06 1.05 82.7 0 1 213.86 126.04   L 217.55 124.15   A 1.38 1.35 -87.3 0 0 218.13 123.61   Q 219.00 122.12 217.99 120.78   A 0.87 0.84 27.6 0 1 217.82 120.27   C 217.72 108.19 228.80 106.73 238.19 106.86   C 241.53 106.90 243.36 103.68 245.00 101.17   C 246.60 98.72 249.43 97.09 251.44 94.89   A 1.46 1.39 -20.3 0 0 251.79 94.18   L 252.71 88.81   Z"/>
<path fill="#a57969" d="   M 258.47 90.46   L 262.76 92.09   L 261.32 94.41   Q 261.06 94.81 261.11 95.29   C 261.88 104.03 262.12 111.45 259.54 119.08   C 258.72 121.50 258.81 123.57 258.84 126.03   L 254.39 125.45   C 255.28 120.36 256.93 115.40 257.35 110.43   Q 258.17 100.53 258.47 90.46   Z"/>
<path fill="#856158" d="   M 262.76 92.09   C 270.83 97.24 276.57 119.23 279.80 128.21   A 0.47 0.47 0.0 0 1 279.29 128.84   L 258.84 126.03   C 258.81 123.57 258.72 121.50 259.54 119.08   C 262.12 111.45 261.88 104.03 261.11 95.29   Q 261.06 94.81 261.32 94.41   L 262.76 92.09   Z"/>
<path fill="#e4d0c7" d="   M 478.73 116.99   Q 481.54 120.70 480.26 124.74   C 477.75 132.66 472.19 142.62 469.27 149.11   Q 462.91 163.21 456.57 177.27   L 455.50 177.21   Q 454.87 177.18 455.12 176.59   L 466.27 150.91   Q 471.71 139.52 476.98 127.79   C 478.60 124.18 478.10 120.87 478.73 116.99   Z"/>
<path fill="#a57969" d="   M 349.03 148.36   L 356.65 150.76   C 356.31 152.07 356.20 152.99 356.91 154.26   C 362.54 164.33 367.31 176.28 367.30 187.95   Q 367.28 198.52 366.77 209.10   Q 366.74 209.61 367.10 209.98   C 370.60 213.51 374.65 214.73 377.99 218.99   L 375.27 218.91   L 366.68 214.46   L 366.13 212.57   Q 365.99 212.09 365.53 211.89   Q 362.64 210.69 362.97 207.00   C 363.82 197.41 364.55 184.86 361.91 175.28   Q 358.06 161.29 349.03 148.36   Z"/>
<path fill="#000000" d="   M 211.74 151.31   Q 223.36 152.64 234.76 155.09   C 245.35 157.36 255.66 161.49 265.82 165.67   Q 273.27 168.73 280.45 173.16   L 267.89 168.99   Q 257.22 164.02 244.48 160.04   L 241.28 159.17   L 231.66 156.78   Q 219.00 153.67 206.53 153.17   Q 186.23 151.44 165.93 150.88   Q 163.05 150.80 157.64 151.29   Q 157.21 151.32 157.50 151.00   Q 157.64 150.84 157.82 150.83   C 162.05 150.72 166.11 149.48 170.09 149.49   C 184.07 149.53 197.80 150.51 211.74 151.31   Z"/>
<path fill="#856158" d="   M 356.65 150.76   C 360.79 152.03 365.02 152.99 368.92 154.93   Q 390.52 165.68 396.08 169.15   Q 411.72 178.90 427.50 188.42   C 436.09 193.59 444.14 199.58 452.38 205.33   C 456.66 208.31 461.42 212.36 462.36 217.98   Q 465.41 236.16 468.15 255.78   Q 457.86 249.88 454.44 249.29   Q 445.85 247.80 437.10 246.60   Q 434.98 246.31 433.26 245.09   Q 425.47 239.51 417.82 233.73   C 415.97 232.33 413.14 230.83 410.89 230.27   Q 397.44 226.88 383.23 222.03   L 377.99 218.99   C 374.65 214.73 370.60 213.51 367.10 209.98   Q 366.74 209.61 366.77 209.10   Q 367.28 198.52 367.30 187.95   C 367.31 176.28 362.54 164.33 356.91 154.26   C 356.20 152.99 356.31 152.07 356.65 150.76   Z"/>
<path fill="#b7adab" d="   M 466.27 150.91   L 455.12 176.59   Q 454.87 177.18 455.50 177.21   L 456.57 177.27   L 451.61 187.80   Q 451.47 187.40 451.46 187.38   A 0.76 0.73 -33.3 0 0 450.05 187.12   L 444.30 197.29   Q 425.90 183.48 406.17 173.05   Q 407.20 171.61 408.96 171.32   A 1.26 1.25 14.3 0 0 409.74 170.86   C 411.51 168.60 417.48 168.41 420.20 168.16   A 1.65 1.61 -66.4 0 0 421.11 167.79   Q 423.61 165.75 426.31 164.06   C 428.20 162.89 429.22 161.07 431.04 159.71   Q 431.48 159.38 431.96 159.65   L 434.18 160.91   A 0.68 0.68 0.0 0 0 435.02 160.78   Q 439.54 155.97 445.99 157.87   A 1.11 1.08 -54.3 0 0 446.94 157.70   Q 449.93 155.48 453.63 155.10   Q 454.17 155.05 454.51 154.62   C 456.94 151.59 462.71 150.95 466.27 150.91   Z"/>
<path fill="#eadbd5" d="   M 206.53 153.17   Q 219.00 153.67 231.66 156.78   Q 230.31 158.82 227.99 158.92   Q 227.37 158.94 227.17 159.54   L 226.13 162.81   Q 225.95 163.37 226.43 163.71   C 229.74 166.03 233.40 167.87 232.25 172.75   Q 232.14 173.22 232.32 173.67   C 233.63 176.92 233.64 179.59 234.65 182.47   C 235.71 185.52 237.13 192.31 236.22 195.43   Q 234.13 202.57 229.47 208.22   Q 226.81 211.44 225.36 213.44   C 223.58 215.87 221.21 218.93 218.58 220.03   C 214.92 221.57 210.17 217.81 206.72 220.47   Q 199.76 225.85 200.91 235.43   C 191.07 236.60 181.49 238.34 171.97 238.97   C 155.13 240.09 143.48 241.47 128.65 244.33   C 124.51 245.13 119.65 243.36 115.50 243.27   Q 99.60 242.90 89.25 242.38   C 79.28 241.88 68.18 246.90 58.10 251.45   Q 56.06 221.34 56.19 191.22   A 0.75 0.75 0.0 0 0 55.52 190.47   Q 55.05 190.41 54.86 190.78   L 50.06 189.93   Q 52.27 186.91 54.44 185.44   Q 76.60 170.39 102.20 162.50   Q 103.92 164.08 106.93 164.14   Q 128.10 164.54 142.75 164.02   Q 146.40 163.89 150.09 162.71   C 158.67 159.97 168.00 156.50 176.72 155.79   Q 182.51 155.32 188.75 155.54   Q 197.82 155.86 206.53 153.17   Z"/>
<path fill="#e4d0c7" d="   M 231.66 156.78   L 241.28 159.17   C 241.60 163.35 245.66 168.15 248.46 171.94   C 253.16 178.31 256.47 186.42 259.85 191.67   C 263.86 197.90 267.30 205.31 270.68 210.92   Q 273.44 215.50 276.19 220.10   C 279.24 225.23 283.84 229.35 287.00 234.04   C 297.11 249.01 301.33 265.98 306.06 284.04   Q 306.24 284.73 306.22 285.55   Q 301.54 284.37 297.94 282.06   C 276.14 268.03 250.37 248.88 224.40 236.85   Q 215.28 232.63 204.62 235.16   L 200.91 235.43   Q 199.76 225.85 206.72 220.47   C 210.17 217.81 214.92 221.57 218.58 220.03   C 221.21 218.93 223.58 215.87 225.36 213.44   Q 226.81 211.44 229.47 208.22   Q 234.13 202.57 236.22 195.43   C 237.13 192.31 235.71 185.52 234.65 182.47   C 233.64 179.59 233.63 176.92 232.32 173.67   Q 232.14 173.22 232.25 172.75   C 233.40 167.87 229.74 166.03 226.43 163.71   Q 225.95 163.37 226.13 162.81   L 227.17 159.54   Q 227.37 158.94 227.99 158.92   Q 230.31 158.82 231.66 156.78   Z"/>
<path fill="#b7adab" d="   M 241.28 159.17   L 244.48 160.04   Q 247.77 167.23 252.51 173.13   Q 255.69 177.08 257.29 179.92   Q 265.46 194.35 273.54 208.84   Q 273.69 209.11 274.66 210.52   C 275.60 211.88 275.97 213.93 276.66 215.10   Q 279.70 220.25 286.24 227.98   C 299.79 243.99 303.13 263.96 308.83 284.22   Q 309.01 284.85 308.53 286.21   Q 307.63 286.38 306.82 285.97   L 306.22 285.55   Q 306.24 284.73 306.06 284.04   C 301.33 265.98 297.11 249.01 287.00 234.04   C 283.84 229.35 279.24 225.23 276.19 220.10   Q 273.44 215.50 270.68 210.92   C 267.30 205.31 263.86 197.90 259.85 191.67   C 256.47 186.42 253.16 178.31 248.46 171.94   C 245.66 168.15 241.60 163.35 241.28 159.17   Z"/>
<path fill="#a58c86" d="   M 244.48 160.04   Q 257.22 164.02 267.89 168.99   Q 282.00 180.11 296.07 190.95   C 302.90 196.21 309.23 202.50 315.93 208.27   C 316.87 209.09 318.83 210.16 319.81 210.20   Q 328.51 210.54 337.22 211.33   Q 337.18 211.38 337.15 211.44   Q 337.93 217.81 337.46 221.25   Q 335.36 236.75 333.27 252.25   C 332.46 258.25 331.22 263.52 328.24 269.41   C 326.03 273.76 324.45 278.45 322.01 282.66   Q 320.74 284.84 319.77 287.14   Q 320.24 287.17 319.36 287.61   L 308.90 286.23   Q 308.78 286.28 308.53 286.21   Q 309.01 284.85 308.83 284.22   C 303.13 263.96 299.79 243.99 286.24 227.98   Q 279.70 220.25 276.66 215.10   C 275.97 213.93 275.60 211.88 274.66 210.52   Q 273.69 209.11 273.54 208.84   Q 265.46 194.35 257.29 179.92   Q 255.69 177.08 252.51 173.13   Q 247.77 167.23 244.48 160.04   Z"/>
<path fill="#856158" d="   M 267.89 168.99   L 280.45 173.16   Q 291.29 177.91 301.96 183.71   C 314.26 190.40 325.55 200.43 336.45 209.29   Q 337.66 210.28 337.22 211.33   Q 328.51 210.54 319.81 210.20   C 318.83 210.16 316.87 209.09 315.93 208.27   C 309.23 202.50 302.90 196.21 296.07 190.95   Q 282.00 180.11 267.89 168.99   Z"/>
<path fill="#eadbd5" d="   M 451.61 187.80   L 447.45 197.29   Q 447.25 197.75 447.47 198.20   Q 448.03 199.33 447.26 199.31   L 444.30 197.29   L 450.05 187.12   A 0.76 0.73 -33.3 0 1 451.46 187.38   Q 451.47 187.40 451.61 187.80   Z"/>
<path fill="#e4d0c7" d="   M 50.06 189.93   L 54.86 190.78   Q 55.04 198.47 54.55 206.15   C 54.18 211.92 54.62 217.06 55.03 222.59   C 55.79 232.85 55.40 243.33 56.01 253.69   Q 53.79 253.89 51.80 255.31   Q 27.71 272.57 5.52 292.28   Q 6.39 288.20 7.14 285.92   Q 18.17 252.34 33.46 220.48   Q 37.21 212.66 50.06 189.93   Z"/>
<path fill="#000000" d="   M 58.10 251.45   C 58.26 257.98 58.90 264.28 58.94 270.95   Q 58.98 279.66 60.08 288.30   C 60.63 292.56 60.62 298.31 61.72 303.11   C 63.72 311.86 69.90 321.96 73.94 330.42   Q 74.21 330.45 74.36 330.88   A 0.72 0.71 8.2 0 1 73.27 331.69   L 72.13 330.88   L 60.78 307.91   Q 60.54 307.44 60.03 307.34   Q 58.41 307.03 56.74 307.08   Q 38.94 307.60 22.52 300.66   Q 19.37 299.33 15.99 298.45   Q 16.01 298.22 16.80 298.20   C 18.61 298.79 20.63 298.60 22.28 299.17   Q 31.37 302.32 40.82 304.01   C 46.51 305.03 52.69 304.94 58.73 305.04   Q 59.89 305.06 59.79 303.90   C 59.01 295.33 57.55 286.93 57.33 278.33   Q 57.01 266.03 56.01 253.69   C 55.40 243.33 55.79 232.85 55.03 222.59   C 54.62 217.06 54.18 211.92 54.55 206.15   Q 55.04 198.47 54.86 190.78   Q 55.05 190.41 55.52 190.47   A 0.75 0.75 0.0 0 1 56.19 191.22   Q 56.06 221.34 58.10 251.45   Z"/>
<path fill="#b7adab" d="   M 337.15 211.44   Q 338.20 211.86 339.01 211.73   Q 338.66 212.26 338.80 212.48   Q 341.59 216.81 340.88 222.03   Q 338.19 241.81 334.29 261.46   Q 333.44 265.71 331.56 269.83   Q 327.54 278.61 323.65 287.41   Q 323.52 287.82 322.75 287.78   L 319.77 287.14   Q 320.74 284.84 322.01 282.66   C 324.45 278.45 326.03 273.76 328.24 269.41   C 331.22 263.52 332.46 258.25 333.27 252.25   Q 335.36 236.75 337.46 221.25   Q 337.93 217.81 337.15 211.44   Z"/>
<path fill="#e4d0c7" d="   M 339.01 211.73   L 366.68 214.46   L 375.27 218.91   C 381.14 227.03 394.80 233.00 396.07 243.69   Q 397.14 252.60 397.54 259.98   C 398.48 277.15 400.48 292.72 400.56 311.28   L 399.89 311.19   Q 382.43 302.15 363.77 294.99   Q 359.72 293.44 355.06 292.79   Q 339.85 290.68 324.78 287.87   Q 324.30 287.78 323.65 287.41   Q 327.54 278.61 331.56 269.83   Q 333.44 265.71 334.29 261.46   Q 338.19 241.81 340.88 222.03   Q 341.59 216.81 338.80 212.48   Q 338.66 212.26 339.01 211.73   Z"/>
<path fill="#b7adab" d="   M 375.27 218.91   L 377.99 218.99   L 383.23 222.03   Q 390.87 229.14 397.18 236.08   C 401.13 240.42 402.11 247.32 402.61 253.49   Q 404.62 277.84 405.67 302.24   C 405.83 305.86 405.56 308.86 404.94 312.23   Q 404.79 313.01 404.24 313.08   L 400.56 311.28   C 400.48 292.72 398.48 277.15 397.54 259.98   Q 397.14 252.60 396.07 243.69   C 394.80 233.00 381.14 227.03 375.27 218.91   Z"/>
<path fill="#a58c86" d="   M 383.23 222.03   Q 397.44 226.88 410.89 230.27   C 413.14 230.83 415.97 232.33 417.82 233.73   Q 425.47 239.51 433.26 245.09   Q 434.98 246.31 437.10 246.60   Q 445.85 247.80 454.44 249.29   Q 457.86 249.88 468.15 255.78   L 470.32 272.06   Q 470.39 272.57 470.74 272.94   Q 484.56 287.28 492.50 298.50   C 494.14 300.82 494.74 304.71 494.81 307.95   Q 495.32 331.32 495.61 354.69   Q 495.72 363.66 495.24 368.58   Q 481.69 356.90 466.56 347.70   C 462.20 345.05 459.24 341.06 454.11 339.71   C 447.77 338.05 441.68 335.83 435.17 334.73   Q 430.95 334.02 426.95 333.14   A 4.94 4.87 -17.0 0 1 424.68 331.95   L 404.66 313.54   L 404.24 313.08   Q 404.79 313.01 404.94 312.23   C 405.56 308.86 405.83 305.86 405.67 302.24   Q 404.62 277.84 402.61 253.49   C 402.11 247.32 401.13 240.42 397.18 236.08   Q 390.87 229.14 383.23 222.03   Z"/>
<path fill="#c1937e" d="   M 306.22 285.55   L 306.82 285.97   L 310.87 304.17   A 2.17 2.17 0.0 0 0 314.86 304.80   Q 319.18 297.51 323.23 289.96   Q 323.82 288.88 322.75 287.78   Q 323.52 287.82 323.65 287.41   Q 324.30 287.78 324.78 287.87   Q 339.85 290.68 355.06 292.79   Q 359.72 293.44 363.77 294.99   Q 382.43 302.15 399.89 311.19   Q 396.12 335.54 390.66 359.48   C 387.87 371.71 385.39 377.32 380.59 386.31   L 362.04 385.57   Q 360.71 386.19 360.27 385.18   Q 359.22 383.51 358.70 383.26   C 347.67 377.81 338.08 372.51 327.30 364.87   Q 317.74 358.11 307.23 352.53   L 297.78 344.63   L 299.25 342.32   Q 304.05 333.57 305.38 323.27   L 304.44 320.96   Q 304.21 320.40 303.65 320.61   Q 289.33 325.96 274.45 329.99   L 268.55 330.23   Q 266.69 328.34 264.77 327.69   C 252.09 323.42 236.95 320.59 223.57 315.06   C 213.14 310.74 202.22 307.60 191.43 304.32   C 184.82 302.32 174.47 304.88 168.12 306.72   L 166.03 303.76   A 0.94 0.94 0.0 0 1 166.00 302.72   L 172.59 292.49   Q 172.80 292.17 172.70 291.80   Q 171.83 288.54 172.14 285.09   A 1.28 1.28 0.0 0 0 170.60 283.73   Q 166.30 284.65 164.83 280.80   Q 164.65 280.34 164.78 279.87   C 167.12 271.16 167.55 264.16 176.49 259.52   Q 180.44 257.47 184.49 259.89   A 0.80 0.80 0.0 0 0 185.44 259.80   C 187.91 257.58 189.38 255.13 192.93 254.18   C 195.21 253.56 197.32 252.27 198.44 250.67   Q 203.52 243.41 204.62 235.16   Q 215.28 232.63 224.40 236.85   C 250.37 248.88 276.14 268.03 297.94 282.06   Q 301.54 284.37 306.22 285.55   Z"/>
<path fill="#cda794" d="   M 204.62 235.16   Q 203.52 243.41 198.44 250.67   C 197.32 252.27 195.21 253.56 192.93 254.18   C 189.38 255.13 187.91 257.58 185.44 259.80   A 0.80 0.80 0.0 0 1 184.49 259.89   Q 180.44 257.47 176.49 259.52   C 167.55 264.16 167.12 271.16 164.78 279.87   Q 164.65 280.34 164.83 280.80   Q 166.30 284.65 170.60 283.73   A 1.28 1.28 0.0 0 1 172.14 285.09   Q 171.83 288.54 172.70 291.80   Q 172.80 292.17 172.59 292.49   L 166.00 302.72   A 0.94 0.94 0.0 0 0 166.03 303.76   L 168.12 306.72   C 153.35 311.35 137.85 317.38 122.78 319.73   Q 104.42 322.59 86.47 327.39   Q 86.02 327.51 84.99 328.64   L 76.27 328.84   Q 75.76 328.86 75.38 329.19   L 73.94 330.42   C 69.90 321.96 63.72 311.86 61.72 303.11   C 60.62 298.31 60.63 292.56 60.08 288.30   Q 58.98 279.66 58.94 270.95   C 58.90 264.28 58.26 257.98 58.10 251.45   C 68.18 246.90 79.28 241.88 89.25 242.38   Q 99.60 242.90 115.50 243.27   C 119.65 243.36 124.51 245.13 128.65 244.33   C 143.48 241.47 155.13 240.09 171.97 238.97   C 181.49 238.34 191.07 236.60 200.91 235.43   L 204.62 235.16   Z"/>
<path fill="#c1937e" d="   M 56.01 253.69   Q 57.01 266.03 57.33 278.33   C 57.55 286.93 59.01 295.33 59.79 303.90   Q 59.89 305.06 58.73 305.04   C 52.69 304.94 46.51 305.03 40.82 304.01   Q 31.37 302.32 22.28 299.17   C 20.63 298.60 18.61 298.79 16.80 298.20   Q 14.90 297.40 13.29 297.58   Q 12.36 297.69 13.24 297.99   Q 14.44 298.41 15.99 298.45   Q 19.37 299.33 22.52 300.66   Q 38.94 307.60 56.74 307.08   Q 58.41 307.03 60.03 307.34   Q 60.54 307.44 60.78 307.91   L 72.13 330.88   Q 67.38 333.18 63.86 336.72   C 55.37 340.86 47.63 349.55 39.90 355.27   Q 33.76 359.81 29.17 366.20   L 26.30 371.09   C 20.62 378.42 19.72 385.95 18.90 394.71   C 18.76 396.20 19.16 397.11 19.77 398.39   Q 20.00 398.87 19.68 399.29   Q 19.22 399.90 18.47 399.80   Q 15.26 395.71 14.76 393.50   C 9.49 370.49 4.76 349.38 4.75 325.00   C 4.75 314.08 4.34 303.15 5.52 292.28   Q 27.71 272.57 51.80 255.31   Q 53.79 253.89 56.01 253.69   Z"/>
<path fill="#a57969" d="   M 306.82 285.97   Q 307.63 286.38 308.53 286.21   Q 308.78 286.28 308.90 286.23   L 312.95 300.40   A 0.51 0.51 0.0 0 0 313.78 300.64   C 317.03 297.77 318.68 291.24 319.36 287.61   Q 320.24 287.17 319.77 287.14   L 322.75 287.78   Q 323.82 288.88 323.23 289.96   Q 319.18 297.51 314.86 304.80   A 2.17 2.17 0.0 0 1 310.87 304.17   L 306.82 285.97   Z"/>
<path fill="#856158" d="   M 308.90 286.23   L 319.36 287.61   C 318.68 291.24 317.03 297.77 313.78 300.64   A 0.51 0.51 0.0 0 1 312.95 300.40   L 308.90 286.23   Z"/>
<path fill="#36393a" d="   M 16.80 298.20   Q 16.01 298.22 15.99 298.45   Q 14.44 298.41 13.24 297.99   Q 12.36 297.69 13.29 297.58   Q 14.90 297.40 16.80 298.20   Z"/>
<path fill="#000000" d="   M 268.55 330.23   C 264.32 329.27 259.85 327.66 256.12 326.71   Q 244.09 323.66 232.21 320.09   C 226.03 318.23 219.30 314.87 213.42 313.10   Q 202.02 309.65 190.63 306.02   C 186.47 304.69 179.46 305.75 176.23 306.70   Q 155.93 312.68 135.66 318.81   Q 129.29 320.74 122.16 321.90   Q 103.96 324.87 86.00 329.00   Q 85.38 329.14 84.99 328.64   Q 86.02 327.51 86.47 327.39   Q 104.42 322.59 122.78 319.73   C 137.85 317.38 153.35 311.35 168.12 306.72   C 174.47 304.88 184.82 302.32 191.43 304.32   C 202.22 307.60 213.14 310.74 223.57 315.06   C 236.95 320.59 252.09 323.42 264.77 327.69   Q 266.69 328.34 268.55 330.23   Z"/>
<path fill="#856158" d="   M 268.55 330.23   L 274.45 329.99   Q 277.58 332.00 281.61 330.64   Q 296.77 325.54 305.38 323.27   Q 304.05 333.57 299.25 342.32   Q 298.60 342.05 298.15 342.66   Q 295.12 346.68 291.89 350.54   C 287.40 355.89 281.38 360.91 276.27 366.28   C 266.92 376.12 244.21 375.11 231.76 375.27   L 230.81 373.97   Q 230.51 373.56 230.00 373.55   Q 215.90 373.36 201.95 375.04   Q 201.10 375.14 200.64 375.50   Q 199.77 376.16 200.11 376.97   Q 175.36 380.46 151.52 387.21   Q 151.34 386.22 150.71 385.89   Q 150.26 385.65 149.40 385.98   C 142.48 388.65 138.40 387.43 131.45 386.00   C 127.31 385.15 123.11 385.84 118.71 384.49   Q 117.83 384.22 117.28 384.25   Q 115.80 384.34 116.21 385.51   C 108.09 383.39 98.94 382.08 91.35 378.57   C 85.07 375.66 77.57 348.46 75.93 341.51   Q 75.86 341.23 75.58 341.33   Q 75.35 341.41 75.38 341.55   C 76.63 347.65 77.42 354.03 79.42 359.69   C 80.95 363.98 86.09 378.65 90.12 380.35   Q 98.61 383.92 107.67 385.50   C 114.45 386.69 120.65 389.60 127.26 391.42   Q 127.29 392.51 125.63 393.78   C 121.65 396.47 118.37 401.58 115.49 403.23   C 111.56 405.47 104.70 408.72 102.29 412.55   C 96.48 421.79 87.75 435.26 76.06 436.65   Q 75.50 436.72 75.50 437.28   L 75.50 438.24   A 0.56 0.56 0.0 0 0 76.26 438.77   Q 77.50 438.31 78.51 438.67   L 78.52 446.79   L 78.90 452.77   Q 78.11 471.36 80.25 484.00   Q 80.98 488.35 87.01 487.59   Q 83.74 487.34 82.00 489.27   Q 78.50 487.71 77.85 480.99   Q 76.33 465.23 76.99 449.40   C 77.01 448.79 76.74 448.43 76.42 447.95   Q 76.97 446.95 76.12 445.75   Q 77.51 445.15 76.98 442.43   Q 76.68 440.89 75.15 440.68   C 68.14 439.75 61.83 436.24 56.16 431.46   C 50.70 426.85 44.79 423.08 39.61 418.15   Q 34.86 413.61 28.79 411.64   L 22.33 405.23   C 23.29 404.07 22.83 401.64 22.95 400.33   Q 24.32 386.20 26.30 371.09   L 29.17 366.20   Q 44.36 354.13 58.76 342.26   Q 62.20 339.43 63.86 336.72   Q 67.38 333.18 72.13 330.88   L 73.27 331.69   A 0.72 0.71 8.2 0 0 74.36 330.88   Q 74.21 330.45 73.94 330.42   L 75.38 329.19   Q 75.76 328.86 76.27 328.84   L 84.99 328.64   Q 85.38 329.14 86.00 329.00   Q 103.96 324.87 122.16 321.90   Q 129.29 320.74 135.66 318.81   Q 155.93 312.68 176.23 306.70   C 179.46 305.75 186.47 304.69 190.63 306.02   Q 202.02 309.65 213.42 313.10   C 219.30 314.87 226.03 318.23 232.21 320.09   Q 244.09 323.66 256.12 326.71   C 259.85 327.66 264.32 329.27 268.55 330.23   Z"/>
<path fill="#a57969" d="   M 399.89 311.19   L 400.56 311.28   L 404.24 313.08   L 404.66 313.54   Q 398.78 344.51 392.70 374.93   Q 391.25 382.18 387.11 386.40   L 380.59 386.31   C 385.39 377.32 387.87 371.71 390.66 359.48   Q 396.12 335.54 399.89 311.19   Z"/>
<path fill="#856158" d="   M 404.66 313.54   L 424.68 331.95   A 4.94 4.87 -17.0 0 0 426.95 333.14   Q 430.95 334.02 435.17 334.73   C 441.68 335.83 447.77 338.05 454.11 339.71   C 459.24 341.06 462.20 345.05 466.56 347.70   Q 481.69 356.90 495.24 368.58   C 495.35 378.45 491.60 390.06 485.09 397.64   Q 482.91 393.06 479.49 391.47   A 1.12 1.11 -5.8 0 1 479.06 391.12   Q 478.57 390.43 478.49 389.95   Q 451.88 384.02 425.52 387.54   Q 420.28 388.24 415.94 388.03   Q 401.18 387.34 387.11 386.40   Q 391.25 382.18 392.70 374.93   Q 398.78 344.51 404.66 313.54   Z"/>
<path fill="#a57969" d="   M 305.38 323.27   Q 296.77 325.54 281.61 330.64   Q 277.58 332.00 274.45 329.99   Q 289.33 325.96 303.65 320.61   Q 304.21 320.40 304.44 320.96   L 305.38 323.27   Z"/>
<path fill="#000000" d="   M 63.86 336.72   Q 62.20 339.43 58.76 342.26   Q 44.36 354.13 29.17 366.20   Q 33.76 359.81 39.90 355.27   C 47.63 349.55 55.37 340.86 63.86 336.72   Z"/>
<path fill="#856158" d="   M 297.78 344.63   L 307.23 352.53   C 320.03 362.78 333.29 372.68 347.58 379.81   L 350.46 385.43   Q 350.71 385.91 350.69 386.44   Q 350.56 390.66 351.90 394.77   Q 348.36 403.31 343.81 413.06   Q 342.15 416.62 340.41 423.55   Q 338.95 429.77 336.12 428.01   Q 325.81 437.33 317.56 448.70   Q 315.33 450.54 315.44 453.53   Q 315.46 454.02 315.19 454.43   L 313.34 457.23   C 306.77 449.71 302.28 442.65 297.86 432.78   C 292.91 421.76 287.83 409.03 280.39 399.46   Q 271.14 387.57 261.57 375.93   A 0.53 0.53 0.0 0 1 261.93 375.07   C 274.23 373.99 281.20 362.98 289.77 355.45   C 293.25 352.39 295.09 348.26 297.78 344.63   Z"/>
<path fill="#000000" d="   M 307.23 352.53   Q 317.74 358.11 327.30 364.87   C 338.08 372.51 347.67 377.81 358.70 383.26   Q 359.22 383.51 360.27 385.18   Q 359.80 385.63 359.50 385.50   Q 354.97 383.59 347.58 379.81   C 333.29 372.68 320.03 362.78 307.23 352.53   Z"/>
<path fill="#a57969" d="   M 26.30 371.09   Q 24.32 386.20 22.95 400.33   C 22.83 401.64 23.29 404.07 22.33 405.23   L 18.47 399.80   Q 19.22 399.90 19.68 399.29   Q 20.00 398.87 19.77 398.39   C 19.16 397.11 18.76 396.20 18.90 394.71   C 19.72 385.95 20.62 378.42 26.30 371.09   Z"/>
<path fill="#a57969" d="   M 231.76 375.27   Q 215.79 375.24 200.11 376.97   Q 199.77 376.16 200.64 375.50   Q 201.10 375.14 201.95 375.04   Q 215.90 373.36 230.00 373.55   Q 230.51 373.56 230.81 373.97   L 231.76 375.27   Z"/>
<path fill="#a59997" d="   M 376.27 476.60   Q 374.96 479.96 371.74 482.57   Q 371.87 481.47 371.35 481.07   A 0.73 0.73 0.0 0 0 370.46 481.06   Q 367.29 483.44 364.75 483.70   Q 335.77 486.67 307.30 490.75   A 0.81 0.81 0.0 0 0 306.87 492.15   L 307.31 492.54   C 300.84 493.66 294.33 494.01 287.96 495.20   Q 284.98 495.76 281.60 495.92   C 273.53 496.33 264.25 498.58 256.38 497.23   Q 255.87 497.14 256.12 496.69   C 257.96 493.33 256.86 490.06 256.97 487.32   Q 257.43 476.05 256.87 462.50   C 256.47 452.73 257.79 441.87 257.74 432.83   Q 257.56 404.68 258.05 376.54   Q 258.18 376.36 258.47 376.28   Q 258.98 376.15 259.30 376.55   Q 274.03 394.46 279.33 401.18   C 286.41 410.14 291.42 423.21 296.12 433.64   C 299.11 440.27 307.91 457.89 314.83 460.41   Q 340.69 469.82 367.68 475.36   Q 371.59 476.16 376.27 476.60   Z"/>
<path fill="#a59997" d="   M 256.53 376.58   L 256.29 402.91   L 256.24 400.36   Q 256.21 398.63 254.50 398.95   L 220.79 405.39   L 221.63 377.57   L 256.53 376.58   Z"/>
<path fill="#504e4d" d="   M 258.05 376.54   Q 257.56 404.68 257.74 432.83   C 257.79 441.87 256.47 452.73 256.87 462.50   Q 257.43 476.05 256.97 487.32   C 256.86 490.06 257.96 493.33 256.12 496.69   Q 255.87 497.14 256.38 497.23   C 264.25 498.58 273.53 496.33 281.60 495.92   Q 284.98 495.76 287.96 495.20   C 294.33 494.01 300.84 493.66 307.31 492.54   Q 322.59 491.03 337.80 488.79   C 344.26 487.83 351.71 487.27 358.64 486.17   C 363.18 485.45 367.42 486.08 371.74 482.57   Q 374.96 479.96 376.27 476.60   Q 377.10 476.23 377.42 476.93   Q 375.56 482.47 371.46 485.25   Q 368.91 486.99 363.01 487.70   Q 319.54 492.93 276.02 497.65   C 271.61 498.13 268.64 498.49 263.06 499.45   C 258.73 500.19 254.46 499.46 250.42 499.30   Q 246.59 499.14 244.61 498.90   C 233.70 497.54 219.84 497.25 211.91 496.78   C 200.42 496.08 192.68 495.62 177.51 494.56   C 168.62 493.93 159.42 493.90 150.85 493.23   Q 136.82 492.13 122.75 491.59   C 109.65 491.09 95.73 489.71 82.00 489.27   Q 83.74 487.34 87.01 487.59   C 108.81 489.32 130.60 490.08 152.41 491.51   Q 189.75 493.96 227.13 495.71   C 233.44 496.00 244.42 497.21 253.23 496.82   A 1.00 0.98 16.6 0 0 253.99 496.42   C 257.31 491.95 255.66 485.11 256.47 479.70   Q 256.99 476.17 256.74 473.26   C 255.55 459.28 256.56 442.61 256.47 431.65   Q 256.35 417.34 256.29 402.91   L 256.53 376.58   L 258.05 376.54   Z"/>
<path fill="#f18a34" d="   M 220.20 377.58   L 217.94 437.69   Q 216.79 436.95 215.00 436.99   Q 205.00 437.19 195.89 436.12   A 1.93 1.93 0.0 0 1 194.19 434.13   L 196.22 379.22   L 220.20 377.58   Z"/>
<path fill="#686869" d="   M 220.20 377.58   Q 221.13 377.38 221.63 377.57   L 220.79 405.39   L 220.75 408.53   L 219.34 444.03   L 218.89 441.15   Q 218.79 440.57 218.20 440.56   Q 208.13 440.37 198.07 440.16   C 195.85 440.11 190.88 439.89 190.82 436.44   Q 190.67 427.66 191.48 411.86   L 191.78 411.77   A 0.95 0.95 0.0 0 1 192.99 412.70   L 192.38 436.92   Q 192.36 437.97 193.40 438.13   Q 202.95 439.58 212.28 438.84   C 213.94 438.71 216.85 439.84 217.94 437.69   L 220.20 377.58   Z"/>
<path fill="#8e3e2b" d="   M 196.22 379.22   L 194.19 434.13   A 1.93 1.93 0.0 0 0 195.89 436.12   Q 205.00 437.19 215.00 436.99   Q 216.79 436.95 217.94 437.69   C 216.85 439.84 213.94 438.71 212.28 438.84   Q 202.95 439.58 193.40 438.13   Q 192.36 437.97 192.38 436.92   L 192.99 412.70   A 0.95 0.95 0.0 0 0 191.78 411.77   L 191.48 411.86   L 192.02 380.45   Q 194.24 378.71 196.22 379.22   Z"/>
<path fill="#a57969" d="   M 347.58 379.81   Q 354.97 383.59 359.50 385.50   Q 359.80 385.63 360.27 385.18   Q 360.71 386.19 362.04 385.57   Q 361.87 385.99 361.69 386.41   Q 358.92 385.88 355.65 390.05   Q 353.86 390.17 351.90 394.77   Q 350.56 390.66 350.69 386.44   Q 350.71 385.91 350.46 385.43   L 347.58 379.81   Z"/>
<path fill="#36393a" d="   M 192.02 380.45   L 191.48 411.86   Q 186.86 412.36 183.52 414.18   A 1.71 1.70 78.1 0 1 181.01 412.54   Q 182.08 400.10 182.47 387.63   C 182.52 386.01 182.99 383.72 182.53 381.58   L 192.02 380.45   Z"/>
<path fill="#504e4d" d="   M 182.53 381.58   C 182.99 383.72 182.52 386.01 182.47 387.63   Q 182.08 400.10 181.01 412.54   A 1.71 1.70 78.1 0 0 183.52 414.18   Q 186.86 412.36 191.48 411.86   Q 190.67 427.66 190.82 436.44   C 190.88 439.89 195.85 440.11 198.07 440.16   Q 208.13 440.37 218.20 440.56   Q 218.79 440.57 218.89 441.15   L 219.34 444.03   C 217.81 446.25 214.63 446.34 212.24 446.17   C 202.14 445.43 192.10 445.64 182.07 444.59   A 3.74 3.72 -86.7 0 1 178.73 440.83   L 178.99 421.56   L 179.45 419.49   L 180.79 382.56   Q 180.80 382.28 180.52 382.28   Q 180.28 382.27 180.20 382.07   L 182.53 381.58   Z"/>
<path fill="#a59997" d="   M 180.20 382.07   Q 180.28 382.27 180.52 382.28   Q 180.80 382.28 180.79 382.56   L 179.45 419.49   L 179.07 415.28   Q 179.00 414.50 178.24 414.70   L 151.71 421.78   L 151.70 389.57   L 180.20 382.07   Z"/>
<path fill="#a57969" d="   M 151.52 387.21   C 139.29 391.76 128.56 390.29 116.21 385.51   Q 115.80 384.34 117.28 384.25   Q 117.83 384.22 118.71 384.49   C 123.11 385.84 127.31 385.15 131.45 386.00   C 138.40 387.43 142.48 388.65 149.40 385.98   Q 150.26 385.65 150.71 385.89   Q 151.34 386.22 151.52 387.21   Z"/>
<path fill="#000000" d="   M 380.59 386.31   L 387.11 386.40   Q 401.18 387.34 415.94 388.03   Q 420.28 388.24 425.52 387.54   Q 451.88 384.02 478.49 389.95   Q 466.73 389.60 455.26 388.68   C 444.03 387.79 435.32 387.96 425.19 389.47   Q 420.69 390.14 416.74 389.92   Q 398.04 388.87 379.32 388.15   Q 370.60 387.82 361.69 386.41   Q 361.87 385.99 362.04 385.57   L 380.59 386.31   Z"/>
<path fill="#6e524d" d="   M 361.69 386.41   Q 370.60 387.82 379.32 388.15   Q 398.04 388.87 416.74 389.92   Q 420.69 390.14 425.19 389.47   C 435.32 387.96 444.03 387.79 455.26 388.68   Q 466.73 389.60 478.49 389.95   Q 478.57 390.43 479.06 391.12   A 1.12 1.11 -5.8 0 0 479.49 391.47   Q 482.91 393.06 485.09 397.64   L 460.38 430.34   Q 460.18 429.50 459.55 429.46   Q 459.14 429.44 458.64 429.89   C 454.82 433.31 451.98 437.46 446.47 439.05   C 441.56 440.46 438.93 441.44 435.13 442.48   A 0.84 0.83 -0.7 0 0 434.55 443.07   Q 434.20 444.45 434.92 444.82   Q 431.82 445.28 428.96 446.28   C 424.32 447.90 417.39 457.10 413.93 460.91   C 412.23 462.78 407.94 466.86 405.27 467.52   L 405.28 467.13   A 1.19 1.19 0.0 0 0 403.70 465.98   Q 393.89 469.35 384.28 470.56   C 378.09 471.35 371.52 470.34 365.15 469.62   C 355.56 468.54 345.95 465.57 336.30 463.36   Q 335.80 463.25 335.47 463.64   Q 335.14 464.03 335.25 464.76   Q 324.03 461.90 313.34 457.23   L 315.19 454.43   Q 315.46 454.02 315.44 453.53   Q 315.33 450.54 317.56 448.70   Q 319.16 449.38 320.49 447.72   C 325.26 441.81 331.20 435.27 336.12 428.01   Q 338.95 429.77 340.41 423.55   Q 349.07 407.31 355.65 390.05   Q 358.92 385.88 361.69 386.41   Z"/>
<path fill="#686869" d="   M 151.70 389.57   L 151.71 421.78   Q 151.18 425.73 151.87 426.53   Q 151.77 435.51 151.72 442.69   C 151.71 444.57 149.81 446.05 147.86 446.15   Q 132.37 446.94 118.47 446.26   Q 111.49 445.92 111.91 438.78   Q 111.47 438.92 111.99 438.01   Q 112.13 438.01 112.24 438.00   Q 112.44 437.97 112.43 437.77   L 112.31 432.01   C 114.10 435.02 113.19 437.61 113.46 440.71   Q 113.50 441.20 113.82 441.58   Q 116.05 444.17 118.55 444.47   Q 130.12 445.81 145.98 444.83   C 148.12 444.70 149.33 443.66 149.52 441.56   A 0.81 0.80 -7.4 0 0 148.44 440.73   C 144.27 442.24 135.01 440.97 130.40 440.59   C 126.91 440.30 124.45 439.35 124.45 435.51   Q 124.44 425.75 124.57 415.99   Q 124.72 421.09 124.91 426.16   C 125.04 429.64 126.75 432.58 125.43 436.70   A 1.04 1.04 0.0 0 0 126.22 438.04   C 133.88 439.59 141.01 438.61 148.70 439.26   A 0.65 0.64 -77.6 0 0 149.36 438.83   Q 149.63 438.11 149.29 437.47   Q 149.56 437.36 149.74 437.15   Q 149.88 436.98 149.88 436.67   C 149.87 420.95 149.81 405.53 150.09 389.97   L 151.70 389.57   Z"/>
<path fill="#f18a34" d="   M 150.09 389.97   C 149.81 405.53 149.87 420.95 149.88 436.67   Q 149.88 436.98 149.74 437.15   Q 149.56 437.36 149.29 437.47   Q 148.43 436.79 147.24 436.87   Q 137.57 437.57 129.07 436.40   A 0.62 0.61 3.7 0 1 128.53 435.79   Q 128.48 414.80 128.26 393.95   Q 128.26 393.17 129.08 391.85   Q 139.74 393.42 150.09 389.97   Z"/>
<path fill="#000000" d="   M 355.65 390.05   Q 349.07 407.31 340.41 423.55   Q 342.15 416.62 343.81 413.06   Q 348.36 403.31 351.90 394.77   Q 353.86 390.17 355.65 390.05   Z"/>
<path fill="#8e3e2b" d="   M 127.26 391.42   L 129.08 391.85   Q 128.26 393.17 128.26 393.95   Q 128.48 414.80 128.53 435.79   A 0.62 0.61 3.7 0 0 129.07 436.40   Q 137.57 437.57 147.24 436.87   Q 148.43 436.79 149.29 437.47   Q 149.63 438.11 149.36 438.83   A 0.65 0.64 -77.6 0 1 148.70 439.26   C 141.01 438.61 133.88 439.59 126.22 438.04   A 1.04 1.04 0.0 0 1 125.43 436.70   C 126.75 432.58 125.04 429.64 124.91 426.16   Q 124.72 421.09 124.57 415.99   L 124.59 396.80   Q 126.07 394.88 125.63 393.78   Q 127.29 392.51 127.26 391.42   Z"/>
<path fill="#000000" d="   M 125.63 393.78   Q 126.07 394.88 124.59 396.80   Q 119.00 403.45 112.35 407.33   L 105.21 412.07   A 1.46 1.40 -1.7 0 0 104.76 412.53   C 98.66 422.47 90.25 435.29 78.51 438.67   Q 77.50 438.31 76.26 438.77   A 0.56 0.56 0.0 0 1 75.50 438.24   L 75.50 437.28   Q 75.50 436.72 76.06 436.65   C 87.75 435.26 96.48 421.79 102.29 412.55   C 104.70 408.72 111.56 405.47 115.49 403.23   C 118.37 401.58 121.65 396.47 125.63 393.78   Z"/>
<path fill="#36393a" d="   M 124.59 396.80   L 124.57 415.99   Q 124.44 425.75 124.45 435.51   C 124.45 439.35 126.91 440.30 130.40 440.59   C 135.01 440.97 144.27 442.24 148.44 440.73   A 0.81 0.80 -7.4 0 1 149.52 441.56   C 149.33 443.66 148.12 444.70 145.98 444.83   Q 130.12 445.81 118.55 444.47   Q 116.05 444.17 113.82 441.58   Q 113.50 441.20 113.46 440.71   C 113.19 437.61 114.10 435.02 112.31 432.01   Q 111.11 419.74 112.35 407.33   Q 119.00 403.45 124.59 396.80   Z"/>
<path fill="#eadbd5" d="   M 256.29 402.91   Q 238.15 404.76 220.75 408.53   L 220.79 405.39   L 254.50 398.95   Q 256.21 398.63 256.24 400.36   L 256.29 402.91   Z"/>
<path fill="#faf9f9" d="   M 256.29 402.91   Q 256.35 417.34 256.47 431.65   C 256.56 442.61 255.55 459.28 256.74 473.26   Q 256.99 476.17 256.47 479.70   C 255.66 485.11 257.31 491.95 253.99 496.42   A 1.00 0.98 16.6 0 1 253.23 496.82   C 244.42 497.21 233.44 496.00 227.13 495.71   Q 189.75 493.96 152.41 491.51   C 130.60 490.08 108.81 489.32 87.01 487.59   Q 80.98 488.35 80.25 484.00   Q 78.11 471.36 78.90 452.77   Q 78.88 451.33 79.75 451.06   C 88.97 448.14 97.92 443.89 107.00 440.49   C 107.83 440.18 110.94 438.47 111.14 438.51   Q 111.46 438.58 111.91 438.78   Q 111.49 445.92 118.47 446.26   Q 132.37 446.94 147.86 446.15   C 149.81 446.05 151.71 444.57 151.72 442.69   Q 151.77 435.51 151.87 426.53   Q 164.50 422.11 178.07 419.07   Q 178.57 418.96 178.82 419.40   Q 179.23 420.10 178.99 421.56   L 178.73 440.83   A 3.74 3.72 -86.7 0 0 182.07 444.59   C 192.10 445.64 202.14 445.43 212.24 446.17   C 214.63 446.34 217.81 446.25 219.34 444.03   L 220.75 408.53   Q 238.15 404.76 256.29 402.91   Z"/>
<path fill="#a59997" d="   M 112.35 407.33   Q 111.11 419.74 112.31 432.01   L 112.43 437.77   Q 112.44 437.97 112.24 438.00   Q 112.13 438.01 111.99 438.01   Q 112.75 435.98 111.61 435.24   Q 111.18 434.97 110.71 435.14   L 78.52 446.79   L 78.51 438.67   C 90.25 435.29 98.66 422.47 104.76 412.53   A 1.46 1.40 -1.7 0 1 105.21 412.07   L 112.35 407.33   Z"/>
<path fill="#a57969" d="   M 76.12 445.75   Q 68.06 442.63 60.44 437.31   Q 43.33 425.39 28.79 411.64   Q 34.86 413.61 39.61 418.15   C 44.79 423.08 50.70 426.85 56.16 431.46   C 61.83 436.24 68.14 439.75 75.15 440.68   Q 76.68 440.89 76.98 442.43   Q 77.51 445.15 76.12 445.75   Z"/>
<path fill="#eadbd5" d="   M 179.45 419.49   L 178.99 421.56   Q 179.23 420.10 178.82 419.40   Q 178.57 418.96 178.07 419.07   Q 164.50 422.11 151.87 426.53   Q 151.18 425.73 151.71 421.78   L 178.24 414.70   Q 179.00 414.50 179.07 415.28   L 179.45 419.49   Z"/>
<path fill="#000000" d="   M 336.12 428.01   C 331.20 435.27 325.26 441.81 320.49 447.72   Q 319.16 449.38 317.56 448.70   Q 325.81 437.33 336.12 428.01   Z"/>
<path fill="#856158" d="   M 460.38 430.34   C 457.00 433.92 453.21 438.77 448.62 440.69   Q 442.15 443.38 434.92 444.82   Q 434.20 444.45 434.55 443.07   A 0.84 0.83 -0.7 0 1 435.13 442.48   C 438.93 441.44 441.56 440.46 446.47 439.05   C 451.98 437.46 454.82 433.31 458.64 429.89   Q 459.14 429.44 459.55 429.46   Q 460.18 429.50 460.38 430.34   Z"/>
<path fill="#eadbd5" d="   M 111.99 438.01   Q 111.47 438.92 111.91 438.78   Q 111.46 438.58 111.14 438.51   C 110.94 438.47 107.83 440.18 107.00 440.49   C 97.92 443.89 88.97 448.14 79.75 451.06   Q 78.88 451.33 78.90 452.77   L 78.52 446.79   L 110.71 435.14   Q 111.18 434.97 111.61 435.24   Q 112.75 435.98 111.99 438.01   Z"/>
<path fill="#856158" d="   M 405.27 467.52   Q 390.79 471.85 380.18 473.66   C 375.45 474.47 371.01 473.22 366.24 472.34   Q 350.53 469.43 335.25 464.76   Q 335.14 464.03 335.47 463.64   Q 335.80 463.25 336.30 463.36   C 345.95 465.57 355.56 468.54 365.15 469.62   C 371.52 470.34 378.09 471.35 384.28 470.56   Q 393.89 469.35 403.70 465.98   A 1.19 1.19 0.0 0 1 405.28 467.13   L 405.27 467.52   Z"/>
<path fill="#b7adab" d="   M 371.74 482.57   C 367.42 486.08 363.18 485.45 358.64 486.17   C 351.71 487.27 344.26 487.83 337.80 488.79   Q 322.59 491.03 307.31 492.54   L 306.87 492.15   A 0.81 0.81 0.0 0 1 307.30 490.75   Q 335.77 486.67 364.75 483.70   Q 367.29 483.44 370.46 481.06   A 0.73 0.73 0.0 0 1 371.35 481.07   Q 371.87 481.47 371.74 482.57   Z"/>
</svg>