<?xml version="1.0" encoding="UTF-8" standalone="no"?>
<svg xmlns="http://www.w3.org/2000/svg" version="1.2" baseProfile="tiny" viewBox="0.00 0.00 500.00 500.00"><link xmlns="" type="text/css" rel="stylesheet" id="dark-mode-custom-link"/><link xmlns="" type="text/css" rel="stylesheet" id="dark-mode-general-link"/><style xmlns="" lang="en" type="text/css" id="dark-mode-custom-style"/><style xmlns="" lang="en" type="text/css" id="dark-mode-native-style"/><style xmlns="" lang="en" type="text/css" id="dark-mode-native-sheet"/>
<path fill="#656567" d="   M 279.76 77.54   L 278.54 80.18   Q 276.20 79.03 271.00 77.50   Q 253.60 72.38 237.15 68.01   L 184.77 54.43   C 160.16 56.00 135.95 57.82 111.49 59.02   Q 97.10 59.72 82.84 61.71   C 79.06 62.24 77.67 68.14 77.56 71.18   Q 76.84 90.74 77.07 110.32   Q 77.11 113.60 78.61 115.65   A 1.00 1.00 0.0 0 0 79.56 116.04   C 85.61 115.17 91.26 116.05 97.25 115.55   Q 97.60 115.52 97.73 115.95   A 0.42 0.41 -8.3 0 1 97.33 116.48   Q 89.51 116.44 81.72 117.00   C 81.11 117.04 80.66 117.39 80.53 117.97   Q 80.38 118.58 81.01 118.57   L 112.98 117.93   A 0.68 0.68 0.0 0 0 113.42 116.74   Q 112.67 116.07 111.75 116.04   Q 106.19 115.86 100.62 116.20   Q 100.17 116.22 100.40 115.84   Q 100.56 115.57 101.01 115.51   Q 107.46 114.68 113.50 115.08   A 1.92 1.92 0.0 0 1 115.29 117.00   L 115.32 168.57   A 1.39 1.39 0.0 0 1 113.94 169.96   L 98.84 170.02   Q 96.16 170.03 96.13 167.34   L 95.87 140.80   A 0.20 0.19 35.6 0 1 96.25 140.74   C 96.63 141.83 96.90 142.72 96.94 143.91   Q 97.32 155.72 97.25 167.56   A 0.97 0.94 -73.7 0 0 97.67 168.36   Q 98.96 169.23 100.41 168.55   L 101.59 168.62   Q 107.57 169.66 113.77 168.55   Q 114.31 168.46 114.30 167.92   L 113.95 143.22   L 113.85 119.29   A 0.69 0.69 0.0 0 0 113.12 118.60   L 97.21 119.50   L 84.87 119.60   Q 84.23 119.61 84.28 120.24   Q 84.96 129.17 83.85 138.31   Q 83.05 138.34 82.74 137.83   Q 83.92 136.96 83.32 136.46   L 83.31 120.49   A 1.56 1.56 0.0 0 0 81.72 118.93   C 77.61 119.02 75.96 115.91 75.82 112.07   Q 75.03 90.59 76.02 69.12   C 76.19 65.53 77.50 63.00 79.82 60.57   A 1.27 1.26 20.1 0 1 80.65 60.19   C 82.50 60.07 84.40 59.53 86.03 59.39   C 112.96 57.04 136.95 56.03 161.66 54.63   Q 171.35 54.08 181.02 53.06   Q 183.75 52.78 186.38 53.47   C 200.18 57.14 213.29 59.97 227.88 64.08   C 233.49 65.66 240.74 67.24 248.01 69.72   Q 258.44 73.28 279.76 77.54   Z"/>
<path fill="#fbfafa" d="   M 184.77 54.43   L 184.25 57.72   C 182.76 72.36 183.19 91.97 183.17 108.91   Q 183.17 109.40 183.40 109.83   L 183.78 110.50   L 183.71 111.27   L 136.81 113.86   A 0.65 0.65 0.0 0 1 136.12 113.25   L 134.90 95.08   A 0.77 0.75 -77.2 0 0 134.53 94.48   L 126.91 90.04   Q 126.49 89.80 126.49 89.31   L 126.64 59.39   A 0.49 0.49 0.0 0 0 126.01 58.91   Q 125.15 59.17 125.27 59.99   Q 125.42 61.01 125.42 61.05   Q 125.60 75.17 124.47 89.31   Q 124.43 89.85 124.89 90.15   L 133.21 95.44   A 0.85 0.83 -74.5 0 1 133.59 96.13   C 133.73 102.67 134.56 109.29 134.41 115.64   Q 133.78 141.78 133.88 167.85   A 2.11 2.10 0.3 0 0 135.97 169.95   L 152.55 170.10   A 1.44 1.44 0.0 0 0 154.01 168.70   L 154.80 141.54   A 1.36 1.34 -18.9 0 1 155.30 140.54   C 157.04 139.12 158.95 139.39 161.02 139.24   Q 171.25 138.47 181.48 138.50   L 181.85 139.25   Q 180.84 140.23 180.81 141.56   Q 180.36 166.93 179.14 192.23   Q 179.81 194.56 177.93 197.68   Q 177.89 197.44 177.85 197.20   L 154.49 196.82   Q 118.38 195.25 82.31 192.64   C 77.43 192.29 78.46 189.30 78.21 185.90   Q 76.71 165.26 77.82 144.61   C 78.09 139.54 82.35 139.46 86.45 139.75   C 90.58 140.04 94.92 139.40 99.22 140.50   A 1.01 1.00 -83.2 0 1 99.97 141.46   L 100.41 168.55   Q 98.96 169.23 97.67 168.36   A 0.97 0.94 -73.7 0 1 97.25 167.56   Q 97.32 155.72 96.94 143.91   C 96.90 142.72 96.63 141.83 96.25 140.74   A 0.20 0.19 35.6 0 0 95.87 140.80   L 96.13 167.34   Q 96.16 170.03 98.84 170.02   L 113.94 169.96   A 1.39 1.39 0.0 0 0 115.32 168.57   L 115.29 117.00   A 1.92 1.92 0.0 0 0 113.50 115.08   Q 107.46 114.68 101.01 115.51   Q 100.56 115.57 100.40 115.84   Q 100.17 116.22 100.62 116.20   Q 106.19 115.86 111.75 116.04   Q 112.67 116.07 113.42 116.74   A 0.68 0.68 0.0 0 1 112.98 117.93   L 81.01 118.57   Q 80.38 118.58 80.53 117.97   C 80.66 117.39 81.11 117.04 81.72 117.00   Q 89.51 116.44 97.33 116.48   A 0.42 0.41 -8.3 0 0 97.73 115.95   Q 97.60 115.52 97.25 115.55   C 91.26 116.05 85.61 115.17 79.56 116.04   A 1.00 1.00 0.0 0 1 78.61 115.65   Q 77.11 113.60 77.07 110.32   Q 76.84 90.74 77.56 71.18   C 77.67 68.14 79.06 62.24 82.84 61.71   Q 97.10 59.72 111.49 59.02   C 135.95 57.82 160.16 56.00 184.77 54.43   Z"/>
<path fill="#bbb0ae" d="   M 237.15 68.01   Q 228.76 73.04 224.53 74.53   Q 223.52 74.89 219.58 75.00   Q 218.89 75.02 218.53 75.60   L 213.39 83.79   A 0.66 0.65 7.8 0 1 213.03 84.06   C 208.92 85.19 208.85 86.60 205.80 88.84   A 1.15 1.14 -53.6 0 1 204.76 89.00   Q 200.79 87.64 197.95 90.71   A 1.90 1.87 13.6 0 1 197.08 91.23   Q 189.58 93.26 188.52 101.03   Q 187.71 106.98 184.81 111.85   Q 183.97 111.79 183.71 111.27   L 183.78 110.50   L 184.10 110.51   Q 184.57 110.53 184.63 110.06   Q 184.87 108.16 184.79 104.00   Q 184.48 87.22 185.05 59.07   Q 185.07 57.68 184.25 57.72   L 184.77 54.43   L 237.15 68.01   Z"/>
<path fill="#8b7e7b" d="   M 184.25 57.72   Q 185.07 57.68 185.05 59.07   Q 184.48 87.22 184.79 104.00   Q 184.87 108.16 184.63 110.06   Q 184.57 110.53 184.10 110.51   L 183.78 110.50   L 183.40 109.83   Q 183.17 109.40 183.17 108.91   C 183.19 91.97 182.76 72.36 184.25 57.72   Z"/>
<path fill="#656567" d="   M 183.71 111.27   Q 183.97 111.79 184.81 111.85   L 199.38 117.21   Q 199.88 117.40 199.99 117.92   Q 200.87 122.28 199.09 126.55   L 198.98 118.90   Q 198.97 118.38 198.50 118.16   C 192.16 115.24 186.07 112.96 178.84 113.11   Q 157.53 113.54 136.52 115.44   A 0.84 0.82 -2.3 0 0 135.76 116.25   Q 135.16 141.50 135.02 166.75   C 135.01 168.81 137.19 168.99 138.50 168.26   Q 138.69 168.63 139.60 168.52   L 152.21 168.92   Q 152.85 168.94 152.86 168.31   L 153.53 142.82   C 152.87 138.45 157.23 138.01 160.46 138.27   Q 168.46 137.52 176.83 137.36   C 182.60 137.24 188.21 139.01 194.10 139.85   Q 194.29 140.63 195.59 139.97   Q 196.09 140.51 197.26 140.69   Q 198.66 140.89 198.52 139.06   Q 200.22 140.42 198.57 141.71   Q 198.18 142.02 197.70 141.91   L 181.48 138.50   Q 171.25 138.47 161.02 139.24   C 158.95 139.39 157.04 139.12 155.30 140.54   A 1.36 1.34 -18.9 0 0 154.80 141.54   L 154.01 168.70   A 1.44 1.44 0.0 0 1 152.55 170.10   L 135.97 169.95   A 2.11 2.10 0.3 0 1 133.88 167.85   Q 133.78 141.78 134.41 115.64   C 134.56 109.29 133.73 102.67 133.59 96.13   A 0.85 0.83 -74.5 0 0 133.21 95.44   L 124.89 90.15   Q 124.43 89.85 124.47 89.31   Q 125.60 75.17 125.42 61.05   Q 125.42 61.01 125.27 59.99   Q 125.15 59.17 126.01 58.91   A 0.49 0.49 0.0 0 1 126.64 59.39   L 126.49 89.31   Q 126.49 89.80 126.91 90.04   L 134.53 94.48   A 0.77 0.75 -77.2 0 1 134.90 95.08   L 136.12 113.25   A 0.65 0.65 0.0 0 0 136.81 113.86   L 183.71 111.27   Z"/>
<path fill="#ab9f9c" d="   M 237.15 68.01   Q 253.60 72.38 271.00 77.50   Q 276.20 79.03 278.54 80.18   C 272.04 86.72 263.88 94.46 263.49 100.25   Q 262.31 117.71 262.48 135.00   A 0.74 0.74 0.0 0 1 261.74 135.75   L 225.68 135.75   Q 225.16 135.75 224.82 136.16   L 221.02 140.76   A 5.18 5.12 65.4 0 0 219.84 143.99   L 219.54 166.66   Q 218.88 176.67 218.47 186.95   C 218.24 192.85 218.47 197.44 211.72 197.87   Q 194.75 198.97 177.93 197.68   Q 179.81 194.56 179.14 192.23   Q 180.48 192.49 180.52 191.68   Q 181.79 165.48 181.85 139.25   L 181.48 138.50   L 197.70 141.91   Q 198.18 142.02 198.57 141.71   Q 200.22 140.42 198.52 139.06   L 199.09 126.55   Q 200.87 122.28 199.99 117.92   Q 199.88 117.40 199.38 117.21   L 184.81 111.85   Q 187.71 106.98 188.52 101.03   Q 189.58 93.26 197.08 91.23   A 1.90 1.87 13.6 0 0 197.95 90.71   Q 200.79 87.64 204.76 89.00   A 1.15 1.14 -53.6 0 0 205.80 88.84   C 208.85 86.60 208.92 85.19 213.03 84.06   A 0.66 0.65 7.8 0 0 213.39 83.79   L 218.53 75.60   Q 218.89 75.02 219.58 75.00   Q 223.52 74.89 224.53 74.53   Q 228.76 73.04 237.15 68.01   Z"/>
<path fill="#010101" d="   M 468.32 357.02   L 467.66 355.46   C 468.21 352.85 468.27 350.02 469.08 347.57   C 471.67 339.76 474.31 333.75 474.62 324.53   C 474.76 320.30 478.28 315.88 480.66 312.47   C 482.61 310.12 480.98 307.06 480.97 304.77   Q 480.96 291.22 481.65 277.68   Q 482.08 269.19 481.00 264.24   Q 480.63 262.56 477.75 262.13   Q 464.92 259.97 451.86 258.69   C 450.15 258.52 447.90 256.90 446.27 259.06   A 1.57 1.54 -79.9 0 1 445.50 259.61   Q 438.18 262.01 430.66 263.11   C 417.66 265.02 404.72 267.25 391.66 269.14   L 387.28 269.46   Q 372.14 269.97 357.23 267.88   Q 354.38 267.48 354.20 269.75   Q 353.26 281.07 353.10 292.22   A 0.64 0.63 -85.8 0 0 353.64 292.85   Q 365.23 294.53 376.76 296.41   C 381.43 297.17 383.60 299.05 383.66 303.82   Q 383.82 315.87 383.64 321.56   L 383.16 353.23   L 381.58 353.25   Q 381.28 333.48 382.34 313.73   C 382.59 309.14 382.22 305.09 381.42 300.87   A 2.88 2.87 -0.3 0 0 379.10 298.58   Q 364.50 295.96 349.28 294.16   C 341.93 293.29 333.96 291.87 326.25 291.00   Q 315.46 289.79 304.73 288.16   C 291.43 286.15 279.60 289.22 267.40 292.77   L 258.46 294.19   Q 246.63 296.30 227.26 300.78   Q 220.47 302.34 216.05 303.98   A 1.08 1.06 -1.4 0 0 215.41 304.64   Q 214.80 306.45 214.75 307.75   C 214.08 326.89 214.52 346.14 213.27 365.24   L 212.74 373.46   Q 212.70 374.00 213.23 374.06   C 216.12 374.44 225.59 374.80 226.96 377.54   Q 236.31 396.21 240.72 405.76   Q 241.99 408.53 242.97 413.01   L 243.95 417.46   L 246.58 429.83   Q 246.33 430.35 246.72 430.96   C 244.95 431.32 243.66 432.37 241.95 432.72   Q 230.37 435.13 218.60 436.06   C 215.87 436.28 211.79 437.55 209.25 437.24   Q 189.63 434.84 175.99 431.99   C 167.63 430.24 187.38 403.28 189.22 401.21   C 196.32 393.21 200.75 386.01 206.82 378.43   C 208.08 376.85 209.80 375.76 211.37 374.38   A 1.14 1.14 0.0 0 0 211.75 373.53   Q 211.65 361.03 212.26 348.56   C 212.29 347.78 211.92 347.12 211.51 346.50   Q 212.14 346.57 212.24 345.52   L 212.45 330.46   Q 212.57 329.88 212.46 329.29   L 212.44 326.41   L 213.31 303.73   A 0.75 0.75 0.0 0 1 213.87 303.03   L 239.27 296.28   Q 262.12 291.44 285.01 286.82   C 296.95 284.41 309.80 287.27 320.74 288.57   L 350.43 292.54   A 0.74 0.73 -85.2 0 0 351.27 291.82   Q 351.52 281.12 352.43 270.27   Q 352.54 268.92 353.10 267.91   A 0.47 0.46 -72.1 0 0 352.75 267.22   L 332.29 264.97   Q 329.01 264.70 322.94 265.20   Q 305.73 266.60 294.12 267.85   Q 284.38 268.89 278.32 268.70   C 265.75 268.31 253.34 266.14 240.81 265.01   Q 240.28 264.96 240.26 265.49   L 239.41 295.74   Q 238.36 295.11 239.00 294.25   Q 239.11 287.02 239.27 279.72   L 239.66 265.50   Q 239.67 265.01 239.18 264.95   Q 215.60 262.39 191.97 260.51   C 176.75 259.30 161.60 257.17 146.32 255.58   Q 145.56 254.92 144.69 255.45   C 119.61 252.46 94.51 250.69 69.55 246.53   C 64.86 245.75 65.25 237.70 65.04 232.93   C 63.80 204.96 64.53 177.34 65.17 149.38   C 65.37 141.09 63.77 137.27 74.03 136.51   Q 78.54 136.18 83.32 136.46   Q 83.92 136.96 82.74 137.83   L 80.60 138.11   L 70.23 138.61   A 3.53 3.53 0.0 0 0 66.87 142.15   C 66.92 153.83 66.28 166.29 66.33 177.16   Q 66.46 204.58 66.48 231.99   L 67.62 241.54   A 3.87 3.86 1.1 0 0 70.87 244.91   C 96.36 248.82 121.64 250.76 147.43 253.69   L 151.88 254.36   Q 159.83 255.10 168.47 256.18   Q 177.77 257.33 185.07 257.95   Q 220.98 260.99 256.80 265.06   C 266.30 266.14 277.07 267.86 286.57 266.86   C 307.57 264.67 328.84 263.24 349.72 260.19   Q 367.36 257.62 373.75 256.00   Q 378.63 254.77 379.07 250.04   Q 380.03 239.68 378.97 227.14   C 378.55 222.07 373.43 215.18 370.58 210.97   Q 369.19 208.91 368.86 206.67   C 367.32 196.00 367.77 184.30 368.49 173.56   C 368.58 172.19 368.27 169.78 369.09 168.06   Q 371.65 162.69 376.68 153.82   Q 376.94 153.36 376.83 152.83   C 375.65 147.32 371.89 147.26 366.33 146.43   C 348.74 143.80 330.97 141.67 313.46 138.51   Q 308.62 137.63 303.76 137.22   C 298.36 137.15 292.93 136.47 287.75 136.62   Q 276.62 136.94 265.51 137.22   L 248.16 137.55   L 244.26 137.58   L 226.43 137.38   Q 225.87 137.38 225.48 137.77   L 221.01 142.16   A 1.02 1.00 -23.0 0 0 220.70 142.91   Q 221.00 154.76 219.54 166.66   L 219.84 143.99   A 5.18 5.12 65.4 0 1 221.02 140.76   L 224.82 136.16   Q 225.16 135.75 225.68 135.75   L 261.74 135.75   A 0.74 0.74 0.0 0 0 262.48 135.00   Q 262.31 117.71 263.49 100.25   C 263.88 94.46 272.04 86.72 278.54 80.18   L 279.76 77.54   Q 292.47 77.09 301.51 79.48   C 321.91 84.88 338.80 88.76 362.46 96.04   C 368.87 98.01 371.55 107.59 375.56 109.93   C 383.31 114.45 389.29 116.51 396.40 119.71   C 400.31 121.48 402.78 125.73 405.78 127.25   Q 415.90 132.36 425.21 138.79   C 428.33 140.94 431.91 142.14 435.31 144.18   C 439.76 146.84 439.42 152.97 443.87 155.95   Q 449.15 159.49 454.68 162.57   C 460.41 165.77 459.90 185.19 459.54 193.75   Q 458.64 215.19 457.13 236.60   C 456.55 244.72 454.76 250.12 448.76 254.98   A 0.87 0.87 0.0 0 0 449.24 256.53   Q 464.56 257.68 479.69 260.77   C 484.65 261.78 483.75 276.55 483.59 280.20   C 483.04 292.44 482.96 299.45 482.67 309.10   A 1.59 1.55 29.8 0 0 482.94 310.04   Q 486.49 315.38 490.72 320.10   Q 492.27 321.83 492.91 323.94   Q 496.15 334.49 499.73 344.54   A 1.91 1.91 0.0 0 1 499.09 346.69   C 495.58 349.38 489.13 354.96 484.63 355.35   Q 476.38 356.08 468.32 357.02   Z"/>
<g stroke-width="2.00" fill="none" stroke-linecap="butt">
<path stroke="#dabeb1" vector-effect="non-scaling-stroke" d="   M 368.08 103.24   Q 364.81 105.02 362.78 104.21   Q 357.16 101.93 343.79 94.88   Q 343.34 94.64 342.84 94.70   Q 338.02 95.24 333.72 97.10"/>
<path stroke="#d1b0a1" vector-effect="non-scaling-stroke" d="   M 333.72 97.10   Q 330.37 97.93 328.99 97.29   Q 323.55 94.79 309.57 86.42   C 308.58 85.82 307.62 84.55 306.08 84.75"/>
<path stroke="#d1b0a1" vector-effect="non-scaling-stroke" d="   M 305.03 83.59   C 297.35 81.50 289.58 81.30 281.74 80.30   Q 281.10 80.22 280.94 79.21"/>
<path stroke="#bea69b" vector-effect="non-scaling-stroke" d="   M 402.77 126.85   C 402.67 127.11 398.97 128.41 398.21 128.86"/>
<path stroke="#e6d3ca" vector-effect="non-scaling-stroke" d="   M 398.21 128.86   C 397.76 127.58 397.55 126.70 396.36 125.89   C 385.78 118.65 378.51 114.07 370.91 110.86   A 0.51 0.50 -0.6 0 0 370.25 111.53   L 375.83 124.24"/>
<path stroke="#bea69b" vector-effect="non-scaling-stroke" d="   M 375.83 124.24   Q 369.62 121.37 364.12 120.62"/>
<path stroke="#69574e" vector-effect="non-scaling-stroke" d="   M 364.12 120.62   L 361.07 113.39   A 4.95 4.94 1.6 0 0 358.70 110.89   C 352.11 107.68 345.79 104.74 339.73 100.69   Q 337.21 99.01 333.92 98.04"/>
<path stroke="#c79e8a" vector-effect="non-scaling-stroke" d="   M 333.72 97.10   Q 335.12 98.05 333.92 98.04"/>
<path stroke="#60493e" vector-effect="non-scaling-stroke" d="   M 333.92 98.04   Q 338.79 101.96 344.96 105.30   Q 353.93 110.16 358.88 112.56   Q 359.34 112.78 359.53 113.25   L 362.86 121.50"/>
<path stroke="#9f7d70" vector-effect="non-scaling-stroke" d="   M 362.86 121.50   L 356.50 123.38   Q 356.32 123.44 356.22 123.60   L 355.98 124.00   Q 355.80 124.30 355.46 124.39   L 349.38 125.91   A 1.89 1.81 43.7 0 1 348.49 125.91   L 339.15 123.59"/>
<path stroke="#ae826f" vector-effect="non-scaling-stroke" d="   M 336.27 118.38   Q 321.16 112.85 305.43 110.38   Q 304.77 110.28 304.36 109.21"/>
<path stroke="#ae826f" vector-effect="non-scaling-stroke" d="   M 302.73 108.24   Q 302.33 108.66 301.87 108.75   Q 301.39 108.85 301.34 108.36   Q 301.14 106.31 299.82 104.68   C 293.28 96.57 288.09 87.39 280.64 80.08"/>
<path stroke="#a08f8b" vector-effect="non-scaling-stroke" d="   M 424.31 140.17   C 420.73 140.41 412.55 142.95 410.04 140.97   Q 406.51 138.18 401.97 138.15   Q 401.41 138.15 401.30 138.69   L 401.06 139.83"/>
<path stroke="#a08f8b" vector-effect="non-scaling-stroke" d="   M 385.25 134.71   L 377.15 136.64   Q 376.66 136.76 376.20 136.55   Q 374.39 135.71 372.42 135.80"/>
<path stroke="#56504f" vector-effect="non-scaling-stroke" d="   M 364.12 120.62   Q 367.43 129.00 372.42 135.80"/>
<path stroke="#4b403e" vector-effect="non-scaling-stroke" d="   M 372.42 135.80   Q 375.84 141.86 380.69 145.81   Q 389.34 152.87 394.48 161.79"/>
<path stroke="#312a28" vector-effect="non-scaling-stroke" d="   M 394.48 161.79   C 395.64 182.07 395.44 194.70 394.11 209.25   Q 394.05 209.91 393.66 209.38   Q 393.15 208.70 393.16 207.99   Q 393.41 186.76 392.72 165.52   C 392.49 158.35 386.09 152.36 380.42 147.80   Q 372.85 141.71 368.18 131.97"/>
<path stroke="#403634" vector-effect="non-scaling-stroke" d="   M 368.18 131.97   L 362.86 121.50"/>
<path stroke="#d3cdcb" vector-effect="non-scaling-stroke" d="   M 398.21 128.86   L 401.06 139.83"/>
<path stroke="#c8bdba" vector-effect="non-scaling-stroke" d="   M 401.06 139.83   L 402.84 148.00   A 0.50 0.50 0.0 0 1 402.03 148.49   L 385.25 134.71"/>
<path stroke="#d3cdcb" vector-effect="non-scaling-stroke" d="   M 385.25 134.71   Q 381.41 131.33 377.69 127.81   Q 376.89 127.06 375.83 124.24"/>
<path stroke="#906a5d" vector-effect="non-scaling-stroke" d="   M 337.08 122.27   Q 319.43 116.97 310.08 113.93   Q 306.71 112.84 304.03 110.08"/>
<path stroke="#705f5b" vector-effect="non-scaling-stroke" d="   M 368.18 131.97   Q 360.83 130.72 354.42 128.23   C 348.36 125.88 346.24 127.66 340.75 129.37"/>
<path stroke="#906a5d" vector-effect="non-scaling-stroke" d="   M 302.51 109.77   L 302.13 110.00   Q 301.75 110.22 301.40 109.97   C 295.14 105.45 290.23 97.41 286.05 90.64   C 284.18 87.60 281.08 84.78 279.54 81.24"/>
<path stroke="#4b403e" vector-effect="non-scaling-stroke" d="   M 440.07 157.65   Q 430.33 155.83 421.30 160.78   C 419.77 161.62 418.45 161.57 416.84 161.42   Q 407.70 160.59 398.31 161.43"/>
<path stroke="#7b6965" vector-effect="non-scaling-stroke" d="   M 394.48 161.79   L 398.31 161.43"/>
<path stroke="#312a28" vector-effect="non-scaling-stroke" d="   M 398.31 161.43   Q 401.66 162.47 405.10 162.60   C 411.38 162.83 417.33 163.94 422.77 161.64   Q 430.66 158.32 440.07 157.65"/>
<path stroke="#7b6965" vector-effect="non-scaling-stroke" d="   M 440.07 157.65   Q 441.78 158.65 442.51 157.21"/>
<path stroke="#4b4340" vector-effect="non-scaling-stroke" d="   M 457.05 198.96   C 453.64 198.56 449.72 200.28 446.81 198.70   C 441.21 195.68 431.92 190.50 426.22 190.76   Q 425.72 190.78 425.33 191.09   Q 413.42 200.58 401.24 209.73   C 398.34 211.90 393.16 216.21 389.33 214.62   Q 381.50 211.37 371.60 209.84"/>
<path stroke="#715953" vector-effect="non-scaling-stroke" d="   M 338.89 129.37   Q 321.64 128.96 305.28 123.67"/>
<path stroke="#715953" vector-effect="non-scaling-stroke" d="   M 303.63 123.62   Q 296.76 122.37 290.30 120.45   C 281.17 117.74 273.40 116.98 264.40 116.92"/>
<path stroke="#423e3c" vector-effect="non-scaling-stroke" d="   M 456.04 225.02   Q 451.68 228.38 449.46 227.53   Q 438.67 223.40 427.61 218.79   A 1.76 1.75 -55.7 0 0 425.69 219.16   L 416.24 228.59"/>
<path stroke="#605856" vector-effect="non-scaling-stroke" d="   M 416.24 228.59   L 411.53 218.74   A 0.47 0.47 0.0 0 0 410.69 218.73   L 403.62 233.02"/>
<path stroke="#423e3c" vector-effect="non-scaling-stroke" d="   M 403.62 233.02   L 398.88 232.79"/>
<path stroke="#1b1a19" vector-effect="non-scaling-stroke" d="   M 398.88 232.79   L 398.71 226.88   A 0.83 0.76 32.2 0 0 398.60 226.48   L 393.08 216.99   Q 392.70 216.34 392.36 217.01   Q 392.07 217.60 392.45 218.29   Q 395.80 224.40 397.64 228.22   Q 397.86 228.69 397.79 229.20   L 397.25 232.80"/>
<path stroke="#423e3c" vector-effect="non-scaling-stroke" d="   M 397.25 232.80   Q 389.35 228.51 381.33 226.38"/>
<path stroke="#292524" vector-effect="non-scaling-stroke" d="   M 398.88 232.79   Q 398.32 242.67 398.04 252.67   C 397.86 258.99 395.53 262.85 389.98 265.49   Q 389.51 265.72 389.29 265.25   Q 389.02 264.65 389.54 264.30   C 393.23 261.84 395.93 259.17 396.17 254.45   Q 396.73 243.31 397.25 232.80"/>
<path stroke="#6e6461" vector-effect="non-scaling-stroke" d="   M 416.24 228.59   L 418.42 235.80   Q 418.60 236.39 418.30 236.93   L 410.00 251.93   A 0.58 0.58 0.0 0 1 408.97 251.90   L 402.33 237.61   Q 402.08 237.08 402.29 236.53   L 403.62 233.02"/>
<path stroke="#c79e8a" vector-effect="non-scaling-stroke" d="   M 223.83 377.40   L 223.46 378.93"/>
<path stroke="#69574e" vector-effect="non-scaling-stroke" d="   M 223.46 378.93   L 213.66 407.79   A 4.42 4.41 -89.3 0 1 210.80 410.59   L 182.73 419.43"/>
<path stroke="#c79e8a" vector-effect="non-scaling-stroke" d="   M 182.73 419.43   Q 179.29 422.70 177.20 427.72   Q 177.01 428.19 176.51 428.26   Q 175.81 428.36 175.53 427.60"/>
<path stroke="#ae826f" vector-effect="non-scaling-stroke" d="   M 238.28 404.60   Q 238.62 405.39 236.69 405.70   Q 235.52 405.88 234.87 406.08   Q 224.95 409.16 214.38 411.59"/>
<path stroke="#60493e" vector-effect="non-scaling-stroke" d="   M 214.38 411.59   C 216.72 400.36 221.59 390.32 223.46 378.93"/>
<path stroke="#503b33" vector-effect="non-scaling-stroke" d="   M 214.38 411.59   L 214.42 413.84"/>
<path stroke="#41302c" vector-effect="non-scaling-stroke" d="   M 214.42 413.84   Q 215.80 422.90 214.66 432.41"/>
<path stroke="#60493e" vector-effect="non-scaling-stroke" d="   M 214.66 432.41   Q 213.45 431.25 213.50 429.00   Q 213.66 421.20 212.56 413.62   A 1.54 1.53 -14.0 0 0 210.52 412.40   Q 197.37 417.11 182.73 419.43"/>
<path stroke="#a07868" vector-effect="non-scaling-stroke" d="   M 215.02 434.55   L 214.66 432.41"/>
<path stroke="#906a5d" vector-effect="non-scaling-stroke" d="   M 239.69 407.14   Q 226.75 409.60 214.42 413.84"/>
</g>
<path fill="#e4d0c7" d="   M 368.08 103.24   Q 364.81 105.02 362.78 104.21   Q 357.16 101.93 343.79 94.88   Q 343.34 94.64 342.84 94.70   Q 338.02 95.24 333.72 97.10   Q 330.37 97.93 328.99 97.29   Q 323.55 94.79 309.57 86.42   C 308.58 85.82 307.62 84.55 306.08 84.75   L 305.03 83.59   C 297.35 81.50 289.58 81.30 281.74 80.30   Q 281.10 80.22 280.94 79.21   Q 281.21 78.36 282.50 78.51   C 290.31 79.45 298.05 80.02 305.68 82.00   C 323.85 86.72 339.18 90.44 359.82 96.93   Q 365.67 98.77 368.08 103.24   Z"/>
<path fill="#be907a" d="   M 280.94 79.21   Q 281.10 80.22 281.74 80.30   C 289.58 81.30 297.35 81.50 305.03 83.59   Q 304.52 83.82 304.55 83.94   C 306.86 93.14 305.17 99.44 302.73 108.24   Q 302.33 108.66 301.87 108.75   Q 301.39 108.85 301.34 108.36   Q 301.14 106.31 299.82 104.68   C 293.28 96.57 288.09 87.39 280.64 80.08   Q 280.75 79.39 280.94 79.21   Z"/>
<path fill="#9e7464" d="   M 280.64 80.08   C 288.09 87.39 293.28 96.57 299.82 104.68   Q 301.14 106.31 301.34 108.36   Q 301.39 108.85 301.87 108.75   Q 302.33 108.66 302.73 108.24   Q 302.92 109.42 302.51 109.77   L 302.13 110.00   Q 301.75 110.22 301.40 109.97   C 295.14 105.45 290.23 97.41 286.05 90.64   C 284.18 87.60 281.08 84.78 279.54 81.24   Q 280.28 80.16 280.64 80.08   Z"/>
<path fill="#815f56" d="   M 279.54 81.24   C 281.08 84.78 284.18 87.60 286.05 90.64   C 290.23 97.41 295.14 105.45 301.40 109.97   Q 301.75 110.22 302.13 110.00   L 302.51 109.77   Q 302.53 111.10 301.87 111.98   Q 301.55 112.40 301.08 112.16   Q 297.24 110.16 293.24 108.65   C 287.92 106.65 283.84 103.15 279.43 99.88   Q 279.04 99.59 278.57 99.56   L 268.07 98.92   A 0.54 0.53 -80.9 0 0 267.52 99.33   Q 267.35 100.07 268.01 100.11   Q 273.14 100.44 278.28 100.65   Q 278.78 100.67 279.14 101.02   Q 286.52 108.20 295.02 111.03   C 302.72 113.59 302.56 116.44 303.63 123.62   Q 296.76 122.37 290.30 120.45   C 281.17 117.74 273.40 116.98 264.40 116.92   Q 264.98 109.66 265.26 101.82   C 265.45 96.80 266.84 94.50 270.24 91.23   Q 273.35 88.25 279.54 81.24   Z"/>
<path fill="#be907a" d="   M 306.08 84.75   C 307.62 84.55 308.58 85.82 309.57 86.42   Q 323.55 94.79 328.99 97.29   Q 330.37 97.93 333.72 97.10   Q 335.12 98.05 333.92 98.04   Q 338.79 101.96 344.96 105.30   Q 353.93 110.16 358.88 112.56   Q 359.34 112.78 359.53 113.25   L 362.86 121.50   L 356.50 123.38   Q 356.32 123.44 356.22 123.60   L 355.98 124.00   Q 355.80 124.30 355.46 124.39   L 349.38 125.91   A 1.89 1.81 43.7 0 1 348.49 125.91   L 339.15 123.59   L 335.46 108.58   A 0.21 0.21 0.0 0 0 335.05 108.66   L 336.27 118.38   Q 321.16 112.85 305.43 110.38   Q 304.77 110.28 304.36 109.21   C 305.59 104.20 307.23 99.19 307.19 94.25   Q 307.15 89.44 306.08 84.75   Z"/>
<path fill="#d0ac9a" d="   M 368.08 103.24   C 371.75 107.35 374.10 111.51 379.37 113.93   C 387.38 117.61 396.43 120.16 402.77 126.85   C 402.67 127.11 398.97 128.41 398.21 128.86   C 397.76 127.58 397.55 126.70 396.36 125.89   C 385.78 118.65 378.51 114.07 370.91 110.86   A 0.51 0.50 -0.6 0 0 370.25 111.53   L 375.83 124.24   Q 369.62 121.37 364.12 120.62   L 361.07 113.39   A 4.95 4.94 1.6 0 0 358.70 110.89   C 352.11 107.68 345.79 104.74 339.73 100.69   Q 337.21 99.01 333.92 98.04   Q 335.12 98.05 333.72 97.10   Q 338.02 95.24 342.84 94.70   Q 343.34 94.64 343.79 94.88   Q 357.16 101.93 362.78 104.21   Q 364.81 105.02 368.08 103.24   Z"/>
<path fill="#010101" d="   M 333.92 98.04   Q 337.21 99.01 339.73 100.69   C 345.79 104.74 352.11 107.68 358.70 110.89   A 4.95 4.94 1.6 0 1 361.07 113.39   L 364.12 120.62   Q 367.43 129.00 372.42 135.80   Q 375.84 141.86 380.69 145.81   Q 389.34 152.87 394.48 161.79   C 395.64 182.07 395.44 194.70 394.11 209.25   Q 394.05 209.91 393.66 209.38   Q 393.15 208.70 393.16 207.99   Q 393.41 186.76 392.72 165.52   C 392.49 158.35 386.09 152.36 380.42 147.80   Q 372.85 141.71 368.18 131.97   L 362.86 121.50   L 359.53 113.25   Q 359.34 112.78 358.88 112.56   Q 353.93 110.16 344.96 105.30   Q 338.79 101.96 333.92 98.04   Z"/>
<path fill="#9e7464" d="   M 304.36 109.21   Q 304.77 110.28 305.43 110.38   Q 321.16 112.85 336.27 118.38   L 337.08 122.27   Q 319.43 116.97 310.08 113.93   Q 306.71 112.84 304.03 110.08   Q 304.36 109.64 304.36 109.21   Z"/>
<path fill="#815f56" d="   M 304.03 110.08   Q 306.71 112.84 310.08 113.93   Q 319.43 116.97 337.08 122.27   L 338.89 129.37   Q 321.64 128.96 305.28 123.67   L 304.03 110.08   Z"/>
<path fill="#fbfafa" d="   M 398.21 128.86   L 401.06 139.83   L 402.84 148.00   A 0.50 0.50 0.0 0 1 402.03 148.49   L 385.25 134.71   Q 381.41 131.33 377.69 127.81   Q 376.89 127.06 375.83 124.24   L 370.25 111.53   A 0.51 0.50 -0.6 0 1 370.91 110.86   C 378.51 114.07 385.78 118.65 396.36 125.89   C 397.55 126.70 397.76 127.58 398.21 128.86   Z"/>
<path fill="#fbfafa" d="   M 199.09 126.55   L 198.52 139.06   Q 198.66 140.89 197.26 140.69   Q 196.09 140.51 195.59 139.97   L 195.74 120.12   A 1.02 1.00 -76.6 0 0 195.20 119.22   C 190.96 117.07 184.19 114.50 179.31 114.83   Q 160.37 116.11 140.99 117.23   Q 139.05 117.34 139.03 119.28   L 138.50 168.26   C 137.19 168.99 135.01 168.81 135.02 166.75   Q 135.16 141.50 135.76 116.25   A 0.84 0.82 -2.3 0 1 136.52 115.44   Q 157.53 113.54 178.84 113.11   C 186.07 112.96 192.16 115.24 198.50 118.16   Q 198.97 118.38 198.98 118.90   L 199.09 126.55   Z"/>
<path fill="#9e7464" d="   M 195.59 139.97   Q 194.29 140.63 194.10 139.85   L 194.69 121.46   Q 194.74 119.87 193.23 119.37   C 188.40 117.76 183.87 115.93 178.74 116.20   Q 169.69 116.68 160.85 117.00   L 140.82 118.44   A 0.73 0.73 0.0 0 0 140.15 119.12   Q 139.36 130.92 139.98 142.63   L 139.60 168.52   Q 138.69 168.63 138.50 168.26   L 139.03 119.28   Q 139.05 117.34 140.99 117.23   Q 160.37 116.11 179.31 114.83   C 184.19 114.50 190.96 117.07 195.20 119.22   A 1.02 1.00 -76.6 0 1 195.74 120.12   L 195.59 139.97   Z"/>
<path fill="#f4a018" d="   M 194.10 139.85   C 188.21 139.01 182.60 137.24 176.83 137.36   Q 168.46 137.52 160.46 138.27   L 160.85 117.00   Q 169.69 116.68 178.74 116.20   C 183.87 115.93 188.40 117.76 193.23 119.37   Q 194.74 119.87 194.69 121.46   L 194.10 139.85   Z"/>
<path fill="#61534f" d="   M 303.63 123.62   L 305.54 135.20   Q 305.64 135.81 305.02 135.78   C 298.84 135.48 292.59 134.73 286.64 134.95   Q 276.55 135.34 265.93 135.77   Q 264.26 135.84 264.27 134.17   L 264.40 116.92   C 273.40 116.98 281.17 117.74 290.30 120.45   Q 296.76 122.37 303.63 123.62   Z"/>
<path fill="#efea3a" d="   M 160.85 117.00   L 160.46 138.27   C 157.23 138.01 152.87 138.45 153.53 142.82   L 139.98 142.63   Q 139.36 130.92 140.15 119.12   A 0.73 0.73 0.0 0 1 140.82 118.44   L 160.85 117.00   Z"/>
<path fill="#efea3a" d="   M 113.95 143.22   L 101.51 143.01   C 101.94 139.17 99.67 139.68 97.07 138.67   L 97.21 119.50   L 113.12 118.60   A 0.69 0.69 0.0 0 1 113.85 119.29   L 113.95 143.22   Z"/>
<path fill="#f4a018" d="   M 97.21 119.50   L 97.07 138.67   L 83.85 138.31   Q 84.96 129.17 84.28 120.24   Q 84.23 119.61 84.87 119.60   L 97.21 119.50   Z"/>
<path fill="#ab9f9c" d="   M 364.12 120.62   Q 369.62 121.37 375.83 124.24   Q 376.89 127.06 377.69 127.81   Q 381.41 131.33 385.25 134.71   L 377.15 136.64   Q 376.66 136.76 376.20 136.55   Q 374.39 135.71 372.42 135.80   Q 367.43 129.00 364.12 120.62   Z"/>
<path fill="#7f6a66" d="   M 362.86 121.50   L 368.18 131.97   Q 360.83 130.72 354.42 128.23   C 348.36 125.88 346.24 127.66 340.75 129.37   L 339.15 123.59   L 348.49 125.91   A 1.89 1.81 43.7 0 0 349.38 125.91   L 355.46 124.39   Q 355.80 124.30 355.98 124.00   L 356.22 123.60   Q 356.32 123.44 356.50 123.38   L 362.86 121.50   Z"/>
<path fill="#61534f" d="   M 305.28 123.67   Q 321.64 128.96 338.89 129.37   L 341.99 140.43   A 0.52 0.51 -4.0 0 1 341.42 141.08   L 308.31 136.22   A 1.36 1.36 0.0 0 1 307.16 135.09   L 305.28 123.67   Z"/>
<path fill="#ab9f9c" d="   M 402.77 126.85   C 409.51 131.23 418.52 134.81 424.31 140.17   C 420.73 140.41 412.55 142.95 410.04 140.97   Q 406.51 138.18 401.97 138.15   Q 401.41 138.15 401.30 138.69   L 401.06 139.83   L 398.21 128.86   C 398.97 128.41 402.67 127.11 402.77 126.85   Z"/>
<path fill="#61534f" d="   M 368.18 131.97   Q 372.85 141.71 380.42 147.80   C 386.09 152.36 392.49 158.35 392.72 165.52   Q 393.41 186.76 393.16 207.99   Q 393.15 208.70 393.66 209.38   Q 394.05 209.91 394.11 209.25   C 395.44 194.70 395.64 182.07 394.48 161.79   L 398.31 161.43   Q 401.66 162.47 405.10 162.60   C 411.38 162.83 417.33 163.94 422.77 161.64   Q 430.66 158.32 440.07 157.65   Q 441.78 158.65 442.51 157.21   C 448.21 160.95 456.47 163.79 457.04 171.54   Q 458.05 185.32 457.05 198.96   C 453.64 198.56 449.72 200.28 446.81 198.70   C 441.21 195.68 431.92 190.50 426.22 190.76   Q 425.72 190.78 425.33 191.09   Q 413.42 200.58 401.24 209.73   C 398.34 211.90 393.16 216.21 389.33 214.62   Q 381.50 211.37 371.60 209.84   Q 368.75 192.33 370.21 173.43   C 370.73 166.68 374.79 160.04 378.33 154.44   Q 378.61 154.01 378.57 153.49   C 378.30 149.24 376.23 146.27 371.82 145.48   Q 358.58 143.10 345.29 141.46   A 1.58 1.58 0.0 0 1 343.97 140.33   L 340.75 129.37   C 346.24 127.66 348.36 125.88 354.42 128.23   Q 360.83 130.72 368.18 131.97   Z"/>
<path fill="#957f7a" d="   M 385.25 134.71   L 402.03 148.49   A 0.50 0.50 0.0 0 0 402.84 148.00   L 401.06 139.83   L 401.30 138.69   Q 401.41 138.15 401.97 138.15   Q 406.51 138.18 410.04 140.97   C 412.55 142.95 420.73 140.41 424.31 140.17   L 434.77 145.59   A 3.17 3.15 3.9 0 1 436.29 147.32   Q 438.33 152.85 442.51 157.21   Q 441.78 158.65 440.07 157.65   Q 430.33 155.83 421.30 160.78   C 419.77 161.62 418.45 161.57 416.84 161.42   Q 407.70 160.59 398.31 161.43   L 394.48 161.79   Q 389.34 152.87 380.69 145.81   Q 375.84 141.86 372.42 135.80   Q 374.39 135.71 376.20 136.55   Q 376.66 136.76 377.15 136.64   L 385.25 134.71   Z"/>
<path fill="#d0ac9a" d="   M 303.76 137.22   Q 306.02 137.70 304.93 138.18   C 298.79 142.71 294.96 148.32 290.45 153.37   L 287.38 151.92   Q 276.59 143.74 264.71 138.18   Q 264.69 137.21 265.51 137.22   Q 276.62 136.94 287.75 136.62   C 292.93 136.47 298.36 137.15 303.76 137.22   Z"/>
<path fill="#be907a" d="   M 265.51 137.22   Q 264.69 137.21 264.71 138.18   Q 263.99 137.88 264.25 138.79   Q 264.37 139.26 264.79 139.49   L 287.38 151.92   L 290.45 153.37   Q 289.12 154.88 290.24 155.53   Q 290.43 156.71 289.53 157.70   Q 288.32 158.16 288.25 159.00   C 286.17 182.77 286.87 207.05 286.02 231.22   L 285.35 231.45   Q 284.84 231.63 284.67 231.12   C 282.89 225.97 280.10 220.71 278.40 216.17   Q 266.13 183.46 254.89 156.58   Q 250.60 146.33 248.16 137.55   L 265.51 137.22   Z"/>
<path fill="#815f56" d="   M 244.26 137.58   Q 252.94 162.61 262.51 187.40   C 268.30 202.37 273.90 217.24 281.13 231.59   Q 282.90 235.11 285.67 238.04   L 285.83 259.21   A 0.62 0.62 0.0 0 0 286.84 259.68   Q 287.35 259.27 287.34 258.50   C 287.16 235.36 288.31 211.85 288.05 189.22   C 287.95 180.26 289.19 169.36 288.75 159.30   Q 288.72 158.78 289.14 158.47   Q 289.77 158.01 289.53 157.70   Q 290.43 156.71 290.24 155.53   Q 291.43 155.95 291.87 154.95   C 294.17 149.75 300.28 143.76 304.57 140.06   Q 305.06 139.64 305.17 139.25   Q 305.34 138.63 304.93 138.18   Q 306.02 137.70 303.76 137.22   Q 308.62 137.63 313.46 138.51   C 330.97 141.67 348.74 143.80 366.33 146.43   C 371.89 147.26 375.65 147.32 376.83 152.83   Q 376.94 153.36 376.68 153.82   Q 371.65 162.69 369.09 168.06   C 368.27 169.78 368.58 172.19 368.49 173.56   C 367.77 184.30 367.32 196.00 368.86 206.67   Q 369.19 208.91 370.58 210.97   C 373.43 215.18 378.55 222.07 378.97 227.14   Q 380.03 239.68 379.07 250.04   Q 378.63 254.77 373.75 256.00   Q 367.36 257.62 349.72 260.19   C 328.84 263.24 307.57 264.67 286.57 266.86   C 277.07 267.86 266.30 266.14 256.80 265.06   Q 220.98 260.99 185.07 257.95   Q 177.77 257.33 168.47 256.18   Q 159.83 255.10 151.88 254.36   L 117.46 197.62   A 1.17 1.15 31.2 0 1 117.29 196.95   Q 117.31 196.70 117.23 196.51   Q 117.11 196.24 116.68 196.16   Q 115.03 195.83 113.15 196.08   L 95.81 195.02   Q 88.59 194.31 81.50 193.73   Q 77.43 193.40 77.20 189.57   Q 75.92 168.25 76.84 143.75   Q 76.95 140.75 80.60 138.11   L 82.74 137.83   Q 83.05 138.34 83.85 138.31   L 97.07 138.67   C 99.67 139.68 101.94 139.17 101.51 143.01   L 101.59 168.62   L 100.41 168.55   L 99.97 141.46   A 1.01 1.00 -83.2 0 0 99.22 140.50   C 94.92 139.40 90.58 140.04 86.45 139.75   C 82.35 139.46 78.09 139.54 77.82 144.61   Q 76.71 165.26 78.21 185.90   C 78.46 189.30 77.43 192.29 82.31 192.64   Q 118.38 195.25 154.49 196.82   C 162.54 197.46 168.61 198.53 177.85 197.20   Q 177.89 197.44 177.93 197.68   Q 194.75 198.97 211.72 197.87   C 218.47 197.44 218.24 192.85 218.47 186.95   Q 218.88 176.67 219.54 166.66   Q 221.00 154.76 220.70 142.91   A 1.02 1.00 -23.0 0 1 221.01 142.16   L 225.48 137.77   Q 225.87 137.38 226.43 137.38   L 244.26 137.58   Z"/>
<path fill="#9e7464" d="   M 248.16 137.55   Q 250.60 146.33 254.89 156.58   Q 266.13 183.46 278.40 216.17   C 280.10 220.71 282.89 225.97 284.67 231.12   Q 284.84 231.63 285.35 231.45   L 286.02 231.22   L 285.67 238.04   Q 282.90 235.11 281.13 231.59   C 273.90 217.24 268.30 202.37 262.51 187.40   Q 252.94 162.61 244.26 137.58   L 248.16 137.55   Z"/>
<path fill="#d0ac9a" d="   M 80.60 138.11   Q 76.95 140.75 76.84 143.75   Q 75.92 168.25 77.20 189.57   Q 77.43 193.40 81.50 193.73   Q 88.59 194.31 95.81 195.02   Q 96.79 196.24 95.54 197.87   C 94.98 198.60 93.98 198.82 93.67 200.00   Q 93.54 200.48 93.15 200.79   C 90.35 202.95 88.15 199.58 85.13 201.90   Q 82.77 203.71 80.82 205.92   C 77.85 209.29 67.77 216.87 72.17 221.72   Q 72.51 222.09 72.65 222.57   Q 73.09 224.05 72.11 225.01   Q 71.73 225.39 71.52 225.88   Q 70.19 228.86 68.37 231.59   Q 68.10 232.00 67.60 232.00   L 66.48 231.99   Q 66.46 204.58 66.33 177.16   C 66.28 166.29 66.92 153.83 66.87 142.15   A 3.53 3.53 0.0 0 1 70.23 138.61   L 80.60 138.11   Z"/>
<path fill="#010101" d="   M 264.71 138.18   Q 276.59 143.74 287.38 151.92   L 264.79 139.49   Q 264.37 139.26 264.25 138.79   Q 263.99 137.88 264.71 138.18   Z"/>
<path fill="#010101" d="   M 304.93 138.18   Q 305.34 138.63 305.17 139.25   Q 305.06 139.64 304.57 140.06   C 300.28 143.76 294.17 149.75 291.87 154.95   Q 291.43 155.95 290.24 155.53   Q 289.12 154.88 290.45 153.37   C 294.96 148.32 298.79 142.71 304.93 138.18   Z"/>
<path fill="#656567" d="   M 181.85 139.25   Q 181.79 165.48 180.52 191.68   Q 180.48 192.49 179.14 192.23   Q 180.36 166.93 180.81 141.56   Q 180.84 140.23 181.85 139.25   Z"/>
<path fill="#f4a018" d="   M 153.53 142.82   L 152.86 168.31   Q 152.85 168.94 152.21 168.92   L 139.60 168.52   L 139.98 142.63   L 153.53 142.82   Z"/>
<path fill="#f4a018" d="   M 101.51 143.01   L 113.95 143.22   L 114.30 167.92   Q 114.31 168.46 113.77 168.55   Q 107.57 169.66 101.59 168.62   L 101.51 143.01   Z"/>
<path fill="#010101" d="   M 440.07 157.65   Q 430.66 158.32 422.77 161.64   C 417.33 163.94 411.38 162.83 405.10 162.60   Q 401.66 162.47 398.31 161.43   Q 407.70 160.59 416.84 161.42   C 418.45 161.57 419.77 161.62 421.30 160.78   Q 430.33 155.83 440.07 157.65   Z"/>
<path fill="#010101" d="   M 289.53 157.70   Q 289.77 158.01 289.14 158.47   Q 288.72 158.78 288.75 159.30   C 289.19 169.36 287.95 180.26 288.05 189.22   C 288.31 211.85 287.16 235.36 287.34 258.50   Q 287.35 259.27 286.84 259.68   A 0.62 0.62 0.0 0 1 285.83 259.21   L 285.67 238.04   L 286.02 231.22   C 286.87 207.05 286.17 182.77 288.25 159.00   Q 288.32 158.16 289.53 157.70   Z"/>
<path fill="#343230" d="   M 457.05 198.96   L 456.04 225.02   Q 451.68 228.38 449.46 227.53   Q 438.67 223.40 427.61 218.79   A 1.76 1.75 -55.7 0 0 425.69 219.16   L 416.24 228.59   L 411.53 218.74   A 0.47 0.47 0.0 0 0 410.69 218.73   L 403.62 233.02   L 398.88 232.79   L 398.71 226.88   A 0.83 0.76 32.2 0 0 398.60 226.48   L 393.08 216.99   Q 392.70 216.34 392.36 217.01   Q 392.07 217.60 392.45 218.29   Q 395.80 224.40 397.64 228.22   Q 397.86 228.69 397.79 229.20   L 397.25 232.80   Q 389.35 228.51 381.33 226.38   C 381.26 225.21 381.15 224.14 380.48 223.09   Q 376.64 217.01 371.60 209.84   Q 381.50 211.37 389.33 214.62   C 393.16 216.21 398.34 211.90 401.24 209.73   Q 413.42 200.58 425.33 191.09   Q 425.72 190.78 426.22 190.76   C 431.92 190.50 441.21 195.68 446.81 198.70   C 449.72 200.28 453.64 198.56 457.05 198.96   Z"/>
<path fill="#be907a" d="   M 95.81 195.02   L 113.15 196.08   Q 114.32 200.10 116.63 203.83   Q 131.90 228.54 147.43 253.69   C 121.64 250.76 96.36 248.82 70.87 244.91   A 3.87 3.86 1.1 0 1 67.62 241.54   L 66.48 231.99   L 67.60 232.00   Q 68.10 232.00 68.37 231.59   Q 70.19 228.86 71.52 225.88   Q 71.73 225.39 72.11 225.01   Q 73.09 224.05 72.65 222.57   Q 72.51 222.09 72.17 221.72   C 67.77 216.87 77.85 209.29 80.82 205.92   Q 82.77 203.71 85.13 201.90   C 88.15 199.58 90.35 202.95 93.15 200.79   Q 93.54 200.48 93.67 200.00   C 93.98 198.82 94.98 198.60 95.54 197.87   Q 96.79 196.24 95.81 195.02   Z"/>
<path fill="#9e7464" d="   M 113.15 196.08   Q 115.03 195.83 116.68 196.16   Q 117.11 196.24 117.23 196.51   Q 117.31 196.70 117.29 196.95   A 1.17 1.15 31.2 0 0 117.46 197.62   L 151.88 254.36   L 147.43 253.69   Q 131.90 228.54 116.63 203.83   Q 114.32 200.10 113.15 196.08   Z"/>
<path fill="#ab9f9c" d="   M 154.49 196.82   L 177.85 197.20   C 168.61 198.53 162.54 197.46 154.49 196.82   Z"/>
<path fill="#010101" d="   M 398.88 232.79   Q 398.32 242.67 398.04 252.67   C 397.86 258.99 395.53 262.85 389.98 265.49   Q 389.51 265.72 389.29 265.25   Q 389.02 264.65 389.54 264.30   C 393.23 261.84 395.93 259.17 396.17 254.45   Q 396.73 243.31 397.25 232.80   L 397.79 229.20   Q 397.86 228.69 397.64 228.22   Q 395.80 224.40 392.45 218.29   Q 392.07 217.60 392.36 217.01   Q 392.70 216.34 393.08 216.99   L 398.60 226.48   A 0.83 0.76 32.2 0 1 398.71 226.88   L 398.88 232.79   Z"/>
<path fill="#8b7e7b" d="   M 416.24 228.59   L 418.42 235.80   Q 418.60 236.39 418.30 236.93   L 410.00 251.93   A 0.58 0.58 0.0 0 1 408.97 251.90   L 402.33 237.61   Q 402.08 237.08 402.29 236.53   L 403.62 233.02   L 410.69 218.73   A 0.47 0.47 0.0 0 1 411.53 218.74   L 416.24 228.59   Z"/>
<path fill="#504947" d="   M 456.04 225.02   Q 455.71 235.15 454.51 244.00   C 454.00 247.80 447.55 253.95 445.10 257.18   Q 444.79 257.58 444.33 257.76   Q 438.67 260.02 436.51 260.32   Q 414.95 263.33 393.49 266.97   Q 386.79 268.11 376.01 267.55   Q 357.67 266.60 339.84 263.65   A 0.23 0.23 0.0 0 1 339.85 263.19   Q 357.52 261.26 374.76 257.53   C 378.75 256.67 380.68 253.04 381.07 248.97   Q 382.04 239.01 380.95 229.00   Q 380.82 227.77 381.33 226.38   Q 389.35 228.51 397.25 232.80   Q 396.73 243.31 396.17 254.45   C 395.93 259.17 393.23 261.84 389.54 264.30   Q 389.02 264.65 389.29 265.25   Q 389.51 265.72 389.98 265.49   C 395.53 262.85 397.86 258.99 398.04 252.67   Q 398.32 242.67 398.88 232.79   L 403.62 233.02   L 402.29 236.53   Q 402.08 237.08 402.33 237.61   L 408.97 251.90   A 0.58 0.58 0.0 0 0 410.00 251.93   L 418.30 236.93   Q 418.60 236.39 418.42 235.80   L 416.24 228.59   L 425.69 219.16   A 1.76 1.75 -55.7 0 1 427.61 218.79   Q 438.67 223.40 449.46 227.53   Q 451.68 228.38 456.04 225.02   Z"/>
<path fill="#504947" d="   M 146.32 255.58   L 146.23 270.79   C 146.10 285.97 145.35 301.34 146.31 316.52   A 1.72 1.71 3.5 0 0 147.72 318.10   L 176.76 323.41   L 212.46 329.29   Q 212.57 329.88 212.45 330.46   L 202.80 329.31   Q 202.20 329.24 202.23 329.84   L 202.83 341.99   A 1.95 1.94 4.7 0 0 204.35 343.78   L 212.24 345.52   Q 212.14 346.57 211.51 346.50   L 202.22 344.30   A 0.95 0.93 5.8 0 1 201.50 343.43   L 200.84 329.83   Q 200.82 329.41 200.40 329.34   L 167.27 323.59   A 1.01 1.01 0.0 0 0 166.09 324.57   Q 165.87 345.60 166.01 365.52   C 166.05 370.91 161.58 370.16 158.27 371.31   Q 137.39 378.53 117.75 382.75   Q 106.45 385.18 98.39 387.66   L 97.23 383.23   L 98.80 385.00   Q 99.17 385.41 99.70 385.29   Q 127.64 379.19 149.23 372.70   C 151.98 371.88 156.41 369.86 160.86 368.92   C 164.38 368.17 164.58 365.89 164.46 362.49   Q 164.23 355.57 164.15 348.25   L 164.42 323.51   Q 164.43 322.99 163.93 322.83   L 162.71 322.45   Q 152.40 320.83 147.23 319.56   C 145.86 319.22 144.91 317.65 144.83 316.17   C 144.00 301.24 145.29 286.07 145.17 270.73   L 144.70 265.40   Q 144.30 263.90 144.55 263.61   L 144.69 255.45   Q 145.56 254.92 146.32 255.58   Z"/>
<path fill="#8b7e7b" d="   M 146.32 255.58   C 161.60 257.17 176.75 259.30 191.97 260.51   Q 215.60 262.39 239.18 264.95   Q 239.67 265.01 239.66 265.50   L 239.27 279.72   Q 234.16 281.25 229.59 279.06   C 222.77 275.80 214.81 275.86 207.55 275.27   Q 204.26 275.00 199.98 275.58   C 196.89 276.00 188.90 276.74 186.91 275.28   Q 186.51 274.98 186.01 274.96   Q 180.73 274.78 175.88 272.83   C 171.01 270.88 165.45 273.13 161.27 270.16   Q 160.87 269.88 160.39 269.85   C 155.46 269.54 151.38 267.71 146.23 270.79   L 146.32 255.58   Z"/>
<path fill="#957f7a" d="   M 477.75 262.13   Q 477.78 263.29 477.68 262.83   L 455.84 269.76   Q 438.62 267.44 422.93 267.93   Q 422.85 267.93 422.83 268.00   Q 422.79 268.14 422.74 268.27   Q 422.68 268.46 422.47 268.48   Q 415.27 269.10 408.05 269.57   C 407.09 269.63 405.67 269.11 404.66 269.98   Q 404.32 270.28 403.87 270.35   Q 397.57 271.23 391.66 269.14   C 404.72 267.25 417.66 265.02 430.66 263.11   Q 438.18 262.01 445.50 259.61   A 1.57 1.54 -79.9 0 0 446.27 259.06   C 447.90 256.90 450.15 258.52 451.86 258.69   Q 464.92 259.97 477.75 262.13   Z"/>
<path fill="#010101" d="   M 144.55 263.61   Q 144.30 263.90 144.70 265.40   L 101.62 261.35   L 93.59 260.96   Q 63.28 263.36 33.19 265.54   Q 19.08 266.56 5.32 268.84   A 2.80 2.79 -0.0 0 0 3.02 271.13   Q 2.60 273.63 2.61 276.75   Q 2.68 300.13 2.79 323.50   Q 2.80 325.01 2.48 325.74   L 0.70 326.52   C 0.75 314.42 0.87 303.21 0.37 290.27   Q -0.12 277.61 0.50 272.76   Q 1.16 267.67 6.93 266.91   C 16.55 265.64 26.04 264.20 35.75 263.52   Q 60.55 261.78 85.34 259.75   C 90.16 259.36 95.28 259.30 100.10 259.66   Q 122.24 261.33 144.55 263.61   Z"/>
<path fill="#e4d0c7" d="   M 93.59 260.96   L 111.79 273.29   L 74.18 277.49   A 1.63 1.63 0.0 0 0 72.73 279.08   L 71.77 335.88   C 66.33 338.50 56.55 344.99 51.08 340.67   C 46.22 336.84 41.77 332.36 35.18 331.52   A 1.63 1.59 -54.0 0 0 34.26 331.68   C 30.55 333.49 23.12 338.65 19.30 335.96   Q 16.91 334.28 9.98 328.00   C 7.60 325.85 5.25 324.46 2.75 327.22   Q 2.80 326.56 2.48 325.74   Q 2.80 325.01 2.79 323.50   Q 2.68 300.13 2.61 276.75   Q 2.60 273.63 3.02 271.13   A 2.80 2.79 -0.0 0 1 5.32 268.84   Q 19.08 266.56 33.19 265.54   Q 63.28 263.36 93.59 260.96   Z"/>
<path fill="#ab9f9c" d="   M 93.59 260.96   L 101.62 261.35   L 117.54 272.50   L 111.79 273.29   L 93.59 260.96   Z"/>
<path fill="#957f7a" d="   M 101.62 261.35   L 144.70 265.40   L 145.17 270.73   L 140.73 270.71   L 117.54 272.50   L 101.62 261.35   Z"/>
<path fill="#7f6a66" d="   M 477.75 262.13   Q 480.63 262.56 481.00 264.24   Q 482.08 269.19 481.65 277.68   Q 480.96 291.22 480.97 304.77   C 480.98 307.06 482.61 310.12 480.66 312.47   Q 480.25 311.69 479.30 311.56   Q 478.79 311.48 478.35 311.74   C 474.73 313.79 471.43 307.70 468.59 311.12   Q 465.46 314.87 462.15 318.57   A 0.73 0.72 -55.8 0 1 461.29 318.74   L 457.77 317.07   Q 457.31 316.85 456.85 317.07   C 454.28 318.35 451.48 323.78 450.06 326.23   A 1.28 1.28 0.0 0 1 448.42 326.76   L 443.51 324.54   A 0.69 0.68 -51.0 0 0 442.81 324.62   L 437.57 328.57   C 437.28 322.27 438.25 315.94 437.84 309.91   C 437.57 306.05 436.92 302.26 437.36 298.26   Q 437.42 297.77 437.77 297.41   Q 442.07 293.03 445.71 288.09   Q 445.78 287.99 445.76 287.92   Q 445.72 287.81 445.57 287.73   Q 445.45 287.67 445.36 287.77   L 438.22 295.23   A 0.78 0.78 0.0 0 1 436.88 294.62   Q 437.53 287.70 436.11 281.17   L 437.93 276.06   Q 446.53 274.57 454.78 271.47   A 0.44 0.44 0.0 0 1 455.30 272.12   Q 451.33 278.42 447.23 284.48   Q 447.04 284.76 447.27 285.17   A 0.45 0.45 0.0 0 0 448.04 285.20   L 456.89 271.87   A 3.69 3.67 8.0 0 1 458.81 270.43   L 478.31 264.28   A 0.65 0.65 0.0 0 0 478.32 263.04   L 477.68 262.83   Q 477.78 263.29 477.75 262.13   Z"/>
<path fill="#010101" d="   M 477.68 262.83   L 478.32 263.04   A 0.65 0.65 0.0 0 1 478.31 264.28   L 458.81 270.43   A 3.69 3.67 8.0 0 0 456.89 271.87   L 448.04 285.20   A 0.45 0.45 0.0 0 1 447.27 285.17   Q 447.04 284.76 447.23 284.48   Q 451.33 278.42 455.30 272.12   A 0.44 0.44 0.0 0 0 454.78 271.47   Q 446.53 274.57 437.93 276.06   Q 445.55 272.43 455.84 269.76   L 477.68 262.83   Z"/>
<path fill="#8b7e7b" d="   M 332.29 264.97   C 333.38 270.57 331.51 273.80 327.44 278.06   Q 325.12 280.49 322.91 283.06   C 321.45 284.77 321.26 286.46 320.74 288.57   C 309.80 287.27 296.95 284.41 285.01 286.82   Q 262.12 291.44 239.27 296.28   Q 239.47 295.84 239.41 295.74   L 240.26 265.49   Q 240.28 264.96 240.81 265.01   C 253.34 266.14 265.75 268.31 278.32 268.70   Q 284.38 268.89 294.12 267.85   Q 305.73 266.60 322.94 265.20   Q 329.01 264.70 332.29 264.97   Z"/>
<path fill="#7f6a66" d="   M 332.29 264.97   L 352.75 267.22   A 0.47 0.46 -72.1 0 1 353.10 267.91   Q 352.54 268.92 352.43 270.27   Q 351.52 281.12 351.27 291.82   A 0.74 0.73 -85.2 0 1 350.43 292.54   L 320.74 288.57   C 321.26 286.46 321.45 284.77 322.91 283.06   Q 325.12 280.49 327.44 278.06   C 331.51 273.80 333.38 270.57 332.29 264.97   Z"/>
<path fill="#957f7a" d="   M 387.28 269.46   Q 386.99 269.75 386.40 269.89   Q 385.89 270.01 385.97 270.53   Q 386.03 270.90 386.51 271.31   L 376.74 271.10   A 0.26 0.26 0.0 0 0 376.70 271.62   L 386.94 272.93   C 387.37 274.68 386.74 275.96 386.84 277.35   C 388.10 293.95 391.03 310.24 393.55 326.67   Q 393.67 327.43 393.08 326.93   Q 388.87 323.26 383.64 321.56   Q 383.82 315.87 383.66 303.82   C 383.60 299.05 381.43 297.17 376.76 296.41   Q 365.23 294.53 353.64 292.85   A 0.64 0.63 -85.8 0 1 353.10 292.22   Q 353.26 281.07 354.20 269.75   Q 354.38 267.48 357.23 267.88   Q 372.14 269.97 387.28 269.46   Z"/>
<path fill="#e4d0c7" d="   M 455.84 269.76   Q 445.55 272.43 437.93 276.06   L 436.11 281.17   Q 434.93 282.67 435.21 285.51   Q 436.10 294.55 436.15 309.02   C 436.17 315.49 435.56 324.77 435.79 332.68   C 433.05 332.33 430.23 334.47 427.81 332.85   Q 422.44 329.24 417.00 325.75   C 413.50 323.51 412.18 323.27 408.26 325.25   C 404.36 327.23 401.43 328.96 397.14 329.99   L 396.66 328.92   L 396.89 328.43   Q 397.05 328.09 396.99 327.73   C 394.02 311.14 390.37 294.15 389.05 277.35   C 388.94 275.97 387.89 274.64 388.75 273.16   Q 404.63 274.84 420.48 276.46   C 424.34 276.85 428.59 276.51 432.68 276.77   Q 433.03 276.80 432.85 276.50   Q 432.74 276.32 432.50 276.29   Q 409.49 273.68 386.51 271.31   Q 386.03 270.90 385.97 270.53   Q 385.89 270.01 386.40 269.89   Q 386.99 269.75 387.28 269.46   L 391.66 269.14   Q 397.57 271.23 403.87 270.35   Q 404.32 270.28 404.66 269.98   C 405.67 269.11 407.09 269.63 408.05 269.57   Q 415.27 269.10 422.47 268.48   Q 422.68 268.46 422.74 268.27   Q 422.79 268.14 422.83 268.00   Q 422.85 267.93 422.93 267.93   Q 438.62 267.44 455.84 269.76   Z"/>
<path fill="#ab9f9c" d="   M 239.27 279.72   Q 239.11 287.02 239.00 294.25   Q 238.36 295.11 239.41 295.74   Q 239.47 295.84 239.27 296.28   L 213.87 303.03   A 0.75 0.75 0.0 0 0 213.31 303.73   L 212.44 326.41   Q 192.62 323.58 178.25 322.05   Q 176.53 321.86 176.76 323.41   L 147.72 318.10   A 1.72 1.71 3.5 0 1 146.31 316.52   C 145.35 301.34 146.10 285.97 146.23 270.79   C 151.38 267.71 155.46 269.54 160.39 269.85   Q 160.87 269.88 161.27 270.16   C 165.45 273.13 171.01 270.88 175.88 272.83   Q 180.73 274.78 186.01 274.96   Q 186.51 274.98 186.91 275.28   C 188.90 276.74 196.89 276.00 199.98 275.58   Q 204.26 275.00 207.55 275.27   C 214.81 275.86 222.77 275.80 229.59 279.06   Q 234.16 281.25 239.27 279.72   Z"/>
<path fill="#010101" d="   M 7.59 270.15   C 28.36 271.37 49.32 273.08 69.67 277.58   Q 69.81 277.61 69.88 277.74   Q 70.01 277.99 69.72 277.97   C 61.11 277.31 51.84 275.69 44.09 274.91   C 32.62 273.74 19.66 272.94 7.75 270.76   Q 7.45 270.70 7.35 270.49   Q 7.19 270.13 7.59 270.15   Z"/>
<path fill="#010101" d="   M 140.73 270.71   Q 140.91 271.67 140.25 271.75   Q 131.56 272.83 110.53 275.17   L 75.15 278.72   A 1.10 1.10 0.0 0 0 74.16 279.80   L 73.53 335.83   Q 73.82 341.48 71.90 343.72   L 71.77 335.88   L 72.73 279.08   A 1.63 1.63 0.0 0 1 74.18 277.49   L 111.79 273.29   L 117.54 272.50   L 140.73 270.71   Z"/>
<path fill="#7f6a66" d="   M 140.73 270.71   L 145.17 270.73   C 145.29 286.07 144.00 301.24 144.83 316.17   C 144.91 317.65 145.86 319.22 147.23 319.56   Q 152.40 320.83 162.71 322.45   Q 159.42 328.06 153.79 330.77   Q 153.29 331.01 152.82 330.73   C 146.90 327.15 139.74 321.49 134.62 326.60   L 132.53 326.77   Q 132.10 326.80 131.81 326.49   Q 129.43 323.98 126.27 325.24   A 1.39 1.39 0.0 0 1 124.39 323.67   C 125.52 318.13 123.67 315.63 122.38 310.77   C 121.55 307.64 119.16 305.56 117.77 302.97   Q 116.19 300.05 113.58 296.93   C 112.46 295.58 112.83 293.44 112.52 292.02   Q 110.70 283.81 110.53 275.17   Q 131.56 272.83 140.25 271.75   Q 140.91 271.67 140.73 270.71   Z"/>
<path fill="#010101" d="   M 386.51 271.31   Q 409.49 273.68 432.50 276.29   Q 432.74 276.32 432.85 276.50   Q 433.03 276.80 432.68 276.77   C 428.59 276.51 424.34 276.85 420.48 276.46   Q 404.63 274.84 388.75 273.16   L 386.94 272.93   L 376.70 271.62   A 0.26 0.26 0.0 0 1 376.74 271.10   L 386.51 271.31   Z"/>
<path fill="#ab9f9c" d="   M 386.94 272.93   L 388.75 273.16   C 387.89 274.64 388.94 275.97 389.05 277.35   C 390.37 294.15 394.02 311.14 396.99 327.73   Q 397.05 328.09 396.89 328.43   L 396.66 328.92   L 394.35 328.11   Q 393.71 327.89 393.83 328.55   L 400.45 367.58   L 383.85 364.72   Q 383.26 364.62 383.26 364.03   L 383.16 353.23   L 383.64 321.56   Q 388.87 323.26 393.08 326.93   Q 393.67 327.43 393.55 326.67   C 391.03 310.24 388.10 293.95 386.84 277.35   C 386.74 275.96 387.37 274.68 386.94 272.93   Z"/>
<path fill="#957f7a" d="   M 110.53 275.17   Q 110.70 283.81 112.52 292.02   C 112.83 293.44 112.46 295.58 113.58 296.93   Q 116.19 300.05 117.77 302.97   C 119.16 305.56 121.55 307.64 122.38 310.77   C 123.67 315.63 125.52 318.13 124.39 323.67   A 1.39 1.39 0.0 0 0 126.27 325.24   Q 129.43 323.98 131.81 326.49   Q 132.10 326.80 132.53 326.77   L 134.62 326.60   Q 133.46 327.23 132.71 328.43   L 125.21 335.44   A 3.46 3.46 0.0 0 1 121.57 336.13   C 118.39 334.86 109.72 329.87 106.61 330.34   C 103.44 330.83 96.80 337.38 94.32 339.71   C 91.17 342.67 88.47 343.35 84.77 341.19   Q 79.45 338.09 73.53 335.83   L 74.16 279.80   A 1.10 1.10 0.0 0 1 75.15 278.72   L 110.53 275.17   Z"/>
<path fill="#010101" d="   M 436.11 281.17   Q 437.53 287.70 436.88 294.62   A 0.78 0.78 0.0 0 0 438.22 295.23   L 445.36 287.77   Q 445.45 287.67 445.57 287.73   Q 445.72 287.81 445.76 287.92   Q 445.78 287.99 445.71 288.09   Q 442.07 293.03 437.77 297.41   Q 437.42 297.77 437.36 298.26   C 436.92 302.26 437.57 306.05 437.84 309.91   C 438.25 315.94 437.28 322.27 437.57 328.57   L 436.77 334.98   L 435.86 335.27   L 435.79 332.68   C 435.56 324.77 436.17 315.49 436.15 309.02   Q 436.10 294.55 435.21 285.51   Q 434.93 282.67 436.11 281.17   Z"/>
<path fill="#957f7a" d="   M 381.58 353.25   Q 382.06 354.28 381.52 354.73   C 374.64 351.31 370.26 360.28 366.15 364.54   A 3.56 3.55 -59.8 0 1 362.58 365.49   L 352.51 362.50   A 0.95 0.94 -59.9 0 0 351.56 362.76   Q 346.07 368.58 341.91 375.41   C 338.91 380.35 327.69 370.52 322.45 376.20   Q 316.19 382.98 312.41 386.53   L 312.70 322.78   Q 313.63 322.21 313.71 319.71   L 344.31 310.37   Q 344.67 310.26 344.48 309.94   L 344.33 309.69   Q 344.20 309.48 343.96 309.52   L 341.27 310.05   C 338.32 309.24 335.43 307.77 332.87 307.07   Q 314.35 301.97 298.74 299.53   Q 281.86 296.88 267.40 292.77   C 279.60 289.22 291.43 286.15 304.73 288.16   Q 315.46 289.79 326.25 291.00   C 333.96 291.87 341.93 293.29 349.28 294.16   Q 364.50 295.96 379.10 298.58   A 2.88 2.87 -0.3 0 1 381.42 300.87   C 382.22 305.09 382.59 309.14 382.34 313.73   Q 381.28 333.48 381.58 353.25   Z"/>
<path fill="#ab9f9c" d="   M 267.40 292.77   Q 281.86 296.88 298.74 299.53   Q 314.35 301.97 332.87 307.07   C 335.43 307.77 338.32 309.24 341.27 310.05   L 336.01 311.47   Q 336.12 310.39 335.26 310.19   Q 301.88 302.25 261.01 295.92   Q 259.51 295.69 258.46 294.19   L 267.40 292.77   Z"/>
<path fill="#e4d0c7" d="   M 258.46 294.19   Q 259.51 295.69 261.01 295.92   Q 301.88 302.25 335.26 310.19   Q 336.12 310.39 336.01 311.47   C 328.35 313.91 320.72 314.83 313.71 319.71   Q 313.63 322.21 312.70 322.78   Q 311.43 320.33 308.50 319.75   C 288.49 315.78 268.40 313.00 248.22 310.18   C 241.82 309.29 230.94 307.26 222.35 306.57   Q 218.89 306.29 222.30 306.96   C 239.92 310.38 257.60 313.04 275.39 315.86   C 285.40 317.44 298.31 319.13 309.75 321.83   A 1.28 1.26 -7.9 0 1 310.55 322.43   Q 311.46 324.12 311.38 326.51   Q 310.43 354.83 311.17 387.55   Q 307.76 387.40 305.20 385.82   Q 301.73 383.67 288.99 375.59   C 286.20 373.82 283.94 373.28 280.99 374.46   C 277.10 376.02 267.38 380.84 263.73 379.31   Q 258.74 377.22 251.06 370.97   Q 247.70 368.24 243.93 369.13   C 240.24 370.01 230.34 373.17 227.31 371.96   Q 222.51 370.04 216.22 364.73   Q 215.45 364.09 214.72 364.10   Q 213.44 364.12 213.27 365.24   C 214.52 346.14 214.08 326.89 214.75 307.75   Q 214.80 306.45 215.41 304.64   A 1.08 1.06 -1.4 0 1 216.05 303.98   Q 220.47 302.34 227.26 300.78   Q 246.63 296.30 258.46 294.19   Z"/>
<path fill="#010101" d="   M 347.97 308.73   Q 347.57 308.87 347.16 308.70   A 0.16 0.16 0.0 0 1 347.17 308.40   Q 362.50 302.51 378.49 299.49   Q 379.57 299.28 378.99 300.49   A 0.79 0.78 -83.9 0 1 378.48 300.91   C 372.21 302.42 366.55 303.47 360.29 305.45   C 356.21 306.74 351.97 307.36 347.97 308.73   Z"/>
<path fill="#010101" d="   M 312.70 322.78   L 312.41 386.53   L 311.77 394.44   L 310.91 394.50   L 311.17 387.55   Q 310.43 354.83 311.38 326.51   Q 311.46 324.12 310.55 322.43   A 1.28 1.26 -7.9 0 0 309.75 321.83   C 298.31 319.13 285.40 317.44 275.39 315.86   C 257.60 313.04 239.92 310.38 222.30 306.96   Q 218.89 306.29 222.35 306.57   C 230.94 307.26 241.82 309.29 248.22 310.18   C 268.40 313.00 288.49 315.78 308.50 319.75   Q 311.43 320.33 312.70 322.78   Z"/>
<path fill="#010101" d="   M 313.71 319.71   C 320.72 314.83 328.35 313.91 336.01 311.47   L 341.27 310.05   L 343.96 309.52   Q 344.20 309.48 344.33 309.69   L 344.48 309.94   Q 344.67 310.26 344.31 310.37   L 313.71 319.71   Z"/>
<path fill="#8b7e7b" d="   M 480.66 312.47   C 478.28 315.88 474.76 320.30 474.62 324.53   C 474.31 333.75 471.67 339.76 469.08 347.57   C 468.27 350.02 468.21 352.85 467.66 355.46   Q 457.53 361.70 452.73 364.50   Q 452.27 364.77 451.57 364.73   A 0.82 0.78 31.2 0 0 451.16 364.82   L 438.35 371.53   Q 436.95 372.26 436.94 370.68   L 436.77 334.98   L 437.57 328.57   L 442.81 324.62   A 0.69 0.68 -51.0 0 1 443.51 324.54   L 448.42 326.76   A 1.28 1.28 0.0 0 0 450.06 326.23   C 451.48 323.78 454.28 318.35 456.85 317.07   Q 457.31 316.85 457.77 317.07   L 461.29 318.74   A 0.73 0.72 -55.8 0 0 462.15 318.57   Q 465.46 314.87 468.59 311.12   C 471.43 307.70 474.73 313.79 478.35 311.74   Q 478.79 311.48 479.30 311.56   Q 480.25 311.69 480.66 312.47   Z"/>
<path fill="#815f56" d="   M 486.82 341.09   Q 486.30 340.98 486.26 341.50   Q 485.73 347.33 485.26 353.07   A 0.66 0.66 0.0 0 1 484.67 353.68   L 470.06 355.27   Q 469.48 355.33 469.54 354.76   Q 470.28 347.59 472.88 340.94   C 475.17 335.11 475.68 330.08 476.26 324.19   C 476.63 320.36 480.21 316.02 482.22 312.73   Q 482.51 312.25 482.86 312.69   L 489.17 320.70   Q 489.50 321.12 489.43 321.65   L 487.31 336.26   Q 487.22 336.90 487.84 336.72   Q 488.14 336.64 488.21 336.24   Q 489.39 329.98 490.49 323.66   A 0.32 0.32 0.0 0 1 491.11 323.61   L 497.54 343.62   A 2.82 2.81 64.1 0 1 496.44 346.81   L 487.44 352.90   Q 486.81 353.32 486.84 352.56   L 487.22 341.59   A 0.49 0.48 6.8 0 0 486.82 341.09   Z"/>
<path fill="#bbb0ae" d="   M 212.44 326.41   L 212.46 329.29   L 176.76 323.41   Q 176.53 321.86 178.25 322.05   Q 192.62 323.58 212.44 326.41   Z"/>
<path fill="#8b7e7b" d="   M 162.71 322.45   L 163.93 322.83   Q 164.43 322.99 164.42 323.51   L 164.15 348.25   Q 160.58 348.29 158.71 345.74   Q 158.42 345.34 157.98 345.15   Q 150.92 341.99 145.52 336.49   A 2.12 2.08 -19.0 0 0 144.26 335.89   Q 138.36 335.29 134.35 330.81   Q 134.00 330.42 134.00 329.89   L 134.00 329.22   Q 134.00 328.59 133.38 328.51   L 132.71 328.43   Q 133.46 327.23 134.62 326.60   C 139.74 321.49 146.90 327.15 152.82 330.73   Q 153.29 331.01 153.79 330.77   Q 159.42 328.06 162.71 322.45   Z"/>
<path fill="#fbfafa" d="   M 435.79 332.68   L 435.86 335.27   C 436.07 347.14 435.34 359.43 436.44 371.23   Q 436.49 371.72 436.00 371.82   Q 433.94 372.21 432.49 372.04   Q 422.62 370.91 403.37 368.16   L 397.14 329.99   C 401.43 328.96 404.36 327.23 408.26 325.25   C 412.18 323.27 413.50 323.51 417.00 325.75   Q 422.44 329.24 427.81 332.85   C 430.23 334.47 433.05 332.33 435.79 332.68   Z"/>
<path fill="#656567" d="   M 2.48 325.74   Q 2.80 326.56 2.75 327.22   L 3.59 371.15   A 4.28 4.27 8.0 0 0 6.62 375.17   L 39.03 385.07   Q 38.39 385.71 38.14 386.55   L 4.48 377.17   A 1.47 1.43 -10.5 0 1 3.73 376.67   Q 1.83 374.28 1.79 371.67   Q 1.48 349.08 0.70 326.52   L 2.48 325.74   Z"/>
<path fill="#fbfafa" d="   M 71.77 335.88   L 71.90 343.72   Q 71.05 344.45 71.12 347.88   L 63.53 343.59   A 1.72 1.71 30.5 0 0 61.23 344.18   Q 56.08 352.48 49.93 360.55   C 44.59 367.56 41.63 376.72 39.03 385.07   L 6.62 375.17   A 4.28 4.27 8.0 0 1 3.59 371.15   L 2.75 327.22   C 5.25 324.46 7.60 325.85 9.98 328.00   Q 16.91 334.28 19.30 335.96   C 23.12 338.65 30.55 333.49 34.26 331.68   A 1.63 1.59 -54.0 0 1 35.18 331.52   C 41.77 332.36 46.22 336.84 51.08 340.67   C 56.55 344.99 66.33 338.50 71.77 335.88   Z"/>
<path fill="#bbb0ae" d="   M 396.66 328.92   L 397.14 329.99   L 403.37 368.16   L 400.45 367.58   L 393.83 328.55   Q 393.71 327.89 394.35 328.11   L 396.66 328.92   Z"/>
<path fill="#ab9f9c" d="   M 132.71 328.43   L 133.38 328.51   Q 134.00 328.59 134.00 329.22   L 134.00 329.89   Q 134.00 330.42 134.35 330.81   Q 138.36 335.29 144.26 335.89   A 2.12 2.08 -19.0 0 1 145.52 336.49   Q 150.92 341.99 157.98 345.15   Q 158.42 345.34 158.71 345.74   Q 160.58 348.29 164.15 348.25   Q 164.23 355.57 164.46 362.49   C 164.58 365.89 164.38 368.17 160.86 368.92   C 156.41 369.86 151.98 371.88 149.23 372.70   Q 127.64 379.19 99.70 385.29   Q 99.17 385.41 98.80 385.00   L 97.23 383.23   C 95.66 381.38 95.00 378.91 93.70 377.08   Q 85.55 365.62 78.05 353.71   Q 76.54 351.32 71.12 347.88   Q 71.05 344.45 71.90 343.72   Q 73.82 341.48 73.53 335.83   Q 79.45 338.09 84.77 341.19   C 88.47 343.35 91.17 342.67 94.32 339.71   C 96.80 337.38 103.44 330.83 106.61 330.34   C 109.72 329.87 118.39 334.86 121.57 336.13   A 3.46 3.46 0.0 0 0 125.21 335.44   L 132.71 328.43   Z"/>
<path fill="#8b7e7b" d="   M 212.45 330.46   L 212.24 345.52   L 204.35 343.78   A 1.95 1.94 4.7 0 1 202.83 341.99   L 202.23 329.84   Q 202.20 329.24 202.80 329.31   L 212.45 330.46   Z"/>
<path fill="#656567" d="   M 436.77 334.98   L 436.94 370.68   Q 436.95 372.26 438.35 371.53   L 451.16 364.82   A 0.82 0.78 31.2 0 1 451.57 364.73   Q 452.27 364.77 452.73 364.50   Q 457.53 361.70 467.66 355.46   L 468.32 357.02   Q 465.76 357.98 461.59 360.62   Q 456.83 363.65 438.26 372.68   C 436.54 373.51 433.69 373.63 431.81 373.43   Q 408.13 370.88 384.19 366.41   Q 383.29 366.24 383.28 367.15   Q 383.23 380.91 382.94 395.25   C 382.84 399.95 382.63 407.54 377.69 410.44   Q 370.33 414.77 362.74 418.64   C 346.63 426.84 330.89 436.36 315.00 444.49   Q 314.17 444.91 311.60 445.18   Q 311.10 445.23 310.81 445.63   Q 310.04 446.66 308.50 446.27   C 296.93 443.37 287.01 440.86 273.75 437.96   Q 260.13 434.99 246.72 430.96   Q 246.33 430.35 246.58 429.83   L 254.47 431.25   L 258.21 432.24   Q 280.25 437.26 303.97 443.12   C 306.09 443.65 308.12 443.54 310.25 443.43   Q 314.10 443.64 315.23 443.01   Q 345.62 426.03 376.24 409.45   C 382.39 406.12 381.23 397.62 381.31 390.00   Q 381.48 372.44 381.52 354.73   Q 382.06 354.28 381.58 353.25   L 383.16 353.23   L 383.26 364.03   Q 383.26 364.62 383.85 364.72   L 400.45 367.58   L 403.37 368.16   Q 422.62 370.91 432.49 372.04   Q 433.94 372.21 436.00 371.82   Q 436.49 371.72 436.44 371.23   C 435.34 359.43 436.07 347.14 435.86 335.27   L 436.77 334.98   Z"/>
<path fill="#010101" d="   M 71.12 347.88   Q 76.54 351.32 78.05 353.71   Q 85.55 365.62 93.70 377.08   C 95.00 378.91 95.66 381.38 97.23 383.23   L 98.39 387.66   C 94.98 389.89 92.50 393.50 88.93 395.10   Q 77.79 400.11 66.28 404.06   C 58.05 406.89 47.92 405.83 39.27 404.62   A 1.69 1.69 0.0 0 1 37.85 403.27   C 36.73 397.58 35.60 392.65 38.14 386.55   Q 38.39 385.71 39.03 385.07   C 41.63 376.72 44.59 367.56 49.93 360.55   Q 56.08 352.48 61.23 344.18   A 1.72 1.71 30.5 0 1 63.53 343.59   L 71.12 347.88   Z"/>
<g stroke-width="2.00" fill="none" stroke-linecap="butt">
<path stroke="#ae826f" vector-effect="non-scaling-stroke" d="   M 71.87 350.72   L 63.09 369.79"/>
<path stroke="#906a5d" vector-effect="non-scaling-stroke" d="   M 74.72 352.27   Q 69.76 361.22 65.40 369.42   Q 65.09 370.01 64.35 369.76"/>
<path stroke="#a07868" vector-effect="non-scaling-stroke" d="   M 65.60 402.16   L 65.02 400.31"/>
<path stroke="#60493e" vector-effect="non-scaling-stroke" d="   M 39.47 399.74   L 39.48 400.22   A 0.56 0.56 0.0 0 0 40.57 400.41   Q 46.20 385.78 50.69 371.23   Q 50.75 371.02 50.55 371.01"/>
<path stroke="#c79e8a" vector-effect="non-scaling-stroke" d="   M 50.90 369.39   L 50.55 371.01"/>
<path stroke="#69574e" vector-effect="non-scaling-stroke" d="   M 50.55 371.01   L 39.47 399.74"/>
<path stroke="#c79e8a" vector-effect="non-scaling-stroke" d="   M 39.47 399.74   L 38.60 399.99"/>
</g>
<path fill="#be907a" d="   M 71.87 350.72   L 63.09 369.79   L 52.97 368.19   A 0.75 0.75 0.0 0 1 52.40 367.15   L 61.86 345.62   A 0.78 0.77 -62.3 0 1 62.97 345.27   L 71.87 350.72   Z"/>
<path fill="#9e7464" d="   M 71.87 350.72   L 74.72 352.27   Q 69.76 361.22 65.40 369.42   Q 65.09 370.01 64.35 369.76   L 63.09 369.79   L 71.87 350.72   Z"/>
<path fill="#815f56" d="   M 74.72 352.27   Q 80.02 359.95 85.03 367.61   C 87.42 371.27 95.73 381.30 96.18 386.27   Q 96.22 386.80 95.84 387.18   C 93.52 389.50 91.61 392.10 88.55 393.46   Q 77.31 398.43 65.60 402.16   L 65.02 400.31   C 64.91 398.34 64.41 396.72 64.43 394.80   Q 64.56 382.30 64.35 369.76   Q 65.09 370.01 65.40 369.42   Q 69.76 361.22 74.72 352.27   Z"/>
<path fill="#ab9f9c" d="   M 381.52 354.73   Q 381.48 372.44 381.31 390.00   C 381.23 397.62 382.39 406.12 376.24 409.45   Q 345.62 426.03 315.23 443.01   Q 314.10 443.64 310.25 443.43   Q 310.73 442.97 310.27 442.24   Q 310.94 442.37 310.97 442.00   Q 312.78 418.32 311.77 394.44   L 312.41 386.53   Q 316.19 382.98 322.45 376.20   C 327.69 370.52 338.91 380.35 341.91 375.41   Q 346.07 368.58 351.56 362.76   A 0.95 0.94 -59.9 0 1 352.51 362.50   L 362.58 365.49   A 3.56 3.55 -59.8 0 0 366.15 364.54   C 370.26 360.28 374.64 351.31 381.52 354.73   Z"/>
<path fill="#d0ac9a" d="   M 50.90 369.39   L 50.55 371.01   L 39.47 399.74   L 38.60 399.99   C 38.33 396.02 37.73 392.56 39.18 388.70   Q 42.34 380.31 45.49 371.92   C 47.70 366.00 50.78 361.69 54.59 357.00   A 0.29 0.29 0.0 0 1 55.08 357.31   Q 52.17 363.29 50.90 369.39   Z"/>
<path fill="#fbfafa" d="   M 311.17 387.55   L 310.91 394.50   L 310.27 442.24   Q 310.73 442.97 310.25 443.43   C 308.12 443.54 306.09 443.65 303.97 443.12   Q 280.25 437.26 258.21 432.24   Q 253.92 423.15 247.40 416.31   C 246.15 415.01 244.48 414.11 242.97 413.01   Q 241.99 408.53 240.72 405.76   Q 236.31 396.21 226.96 377.54   C 225.59 374.80 216.12 374.44 213.23 374.06   Q 212.70 374.00 212.74 373.46   L 213.27 365.24   Q 213.44 364.12 214.72 364.10   Q 215.45 364.09 216.22 364.73   Q 222.51 370.04 227.31 371.96   C 230.34 373.17 240.24 370.01 243.93 369.13   Q 247.70 368.24 251.06 370.97   Q 258.74 377.22 263.73 379.31   C 267.38 380.84 277.10 376.02 280.99 374.46   C 283.94 373.28 286.20 373.82 288.99 375.59   Q 301.73 383.67 305.20 385.82   Q 307.76 387.40 311.17 387.55   Z"/>
<path fill="#be907a" d="   M 50.90 369.39   L 62.54 371.42   Q 63.05 371.51 63.04 372.04   C 62.85 380.94 62.19 391.81 65.02 400.31   L 65.60 402.16   C 60.43 405.36 48.66 403.85 41.38 403.17   C 39.27 402.98 38.65 401.96 38.60 399.99   L 39.47 399.74   L 39.48 400.22   A 0.56 0.56 0.0 0 0 40.57 400.41   Q 46.20 385.78 50.69 371.23   Q 50.75 371.02 50.55 371.01   L 50.90 369.39   Z"/>
<path fill="#010101" d="   M 50.55 371.01   Q 50.75 371.02 50.69 371.23   Q 46.20 385.78 40.57 400.41   A 0.56 0.56 0.0 0 1 39.48 400.22   L 39.47 399.74   L 50.55 371.01   Z"/>
<path fill="#d0ac9a" d="   M 223.83 377.40   L 223.46 378.93   L 213.66 407.79   A 4.42 4.41 -89.3 0 1 210.80 410.59   L 182.73 419.43   Q 179.29 422.70 177.20 427.72   Q 177.01 428.19 176.51 428.26   Q 175.81 428.36 175.53 427.60   C 179.71 417.95 184.25 410.22 191.46 401.50   Q 200.64 390.42 208.90 378.59   C 209.54 377.69 210.70 377.03 211.56 376.33   A 1.46 1.45 -64.2 0 1 212.47 376.01   Q 218.24 375.96 223.83 377.40   Z"/>
<path fill="#be907a" d="   M 223.83 377.40   Q 225.07 377.77 225.71 379.05   Q 232.05 391.68 238.28 404.60   Q 238.62 405.39 236.69 405.70   Q 235.52 405.88 234.87 406.08   Q 224.95 409.16 214.38 411.59   C 216.72 400.36 221.59 390.32 223.46 378.93   L 223.83 377.40   Z"/>
<path fill="#010101" d="   M 223.46 378.93   C 221.59 390.32 216.72 400.36 214.38 411.59   L 214.42 413.84   Q 215.80 422.90 214.66 432.41   Q 213.45 431.25 213.50 429.00   Q 213.66 421.20 212.56 413.62   A 1.54 1.53 -14.0 0 0 210.52 412.40   Q 197.37 417.11 182.73 419.43   L 210.80 410.59   A 4.42 4.41 -89.3 0 0 213.66 407.79   L 223.46 378.93   Z"/>
<path fill="#656567" d="   M 310.91 394.50   L 311.77 394.44   Q 312.78 418.32 310.97 442.00   Q 310.94 442.37 310.27 442.24   L 310.91 394.50   Z"/>
<path fill="#9e7464" d="   M 238.28 404.60   L 239.69 407.14   Q 226.75 409.60 214.42 413.84   L 214.38 411.59   Q 224.95 409.16 234.87 406.08   Q 235.52 405.88 236.69 405.70   Q 238.62 405.39 238.28 404.60   Z"/>
<path fill="#815f56" d="   M 239.69 407.14   L 244.37 427.78   Q 244.90 430.10 242.57 430.60   Q 228.93 433.50 215.02 434.55   L 214.66 432.41   Q 215.80 422.90 214.42 413.84   Q 226.75 409.60 239.69 407.14   Z"/>
<path fill="#be907a" d="   M 214.66 432.41   L 215.02 434.55   Q 210.79 435.84 208.25 435.52   Q 189.70 433.23 177.25 430.79   Q 174.93 430.33 175.53 427.60   Q 175.81 428.36 176.51 428.26   Q 177.01 428.19 177.20 427.72   Q 179.29 422.70 182.73 419.43   Q 197.37 417.11 210.52 412.40   A 1.54 1.53 -14.0 0 1 212.56 413.62   Q 213.66 421.20 213.50 429.00   Q 213.45 431.25 214.66 432.41   Z"/>
<path fill="#e4d0c7" d="   M 242.97 413.01   C 244.48 414.11 246.15 415.01 247.40 416.31   Q 253.92 423.15 258.21 432.24   L 254.47 431.25   C 254.65 430.11 254.61 429.33 253.71 428.50   Q 250.09 425.16 247.85 420.76   Q 247.63 420.34 247.18 420.19   Q 245.71 419.69 243.95 417.46   L 242.97 413.01   Z"/>
<path fill="#bbb0ae" d="   M 243.95 417.46   Q 245.71 419.69 247.18 420.19   Q 247.63 420.34 247.85 420.76   Q 250.09 425.16 253.71 428.50   C 254.61 429.33 254.65 430.11 254.47 431.25   L 246.58 429.83   L 243.95 417.46   Z"/>
</svg>