<svg width="446" height="637" xmlns="http://www.w3.org/2000/svg" xmlns:xlink="http://www.w3.org/1999/xlink" xml:space="preserve" overflow="hidden"><g transform="translate(-1454 -1360)"><path d="M1686 1617.34C1694.65 1601.74 1707.91 1588.96 1727.13 1590.07 1740.09 1597.26 1752.43 1606.47 1759.71 1619.65 1767.3 1631.28 1765.43 1645.82 1767 1659 1750.25 1656.18 1733.41 1653.97 1716.86 1649.99 1714.69 1641.44 1712.21 1632.99 1709.63 1624.53 1701.79 1622.02 1693.89 1619.55 1686 1617.34Z" fill="#F2F8F1" fill-rule="evenodd"/><path d="M1550.02 1641.46C1555.38 1635.42 1560.59 1625.97 1570.15 1627.09 1581.08 1626.33 1588.54 1635.12 1596.71 1640.8 1588.23 1655.69 1581.18 1678.24 1601 1687.99 1578.17 1693.27 1561.36 1709.68 1543.94 1724 1535.2 1697.44 1532.24 1665.18 1550.02 1641.46Z" fill="#F2F8F1" fill-rule="evenodd"/><path d="M1636 1727.1C1664.35 1727.95 1687.22 1710.02 1708.51 1694 1709.98 1707.16 1710.75 1720.37 1711 1733.62 1706.63 1739.4 1702.26 1745.18 1697.94 1751 1675.23 1749.34 1649.52 1748.49 1636 1727.1Z" fill="#F2F8F1" fill-rule="evenodd"/><path d="M1680.02 1574.95C1695.55 1563.31 1732.86 1534.5 1752.54 1537.17 1784.88 1538.63 1783.84 1559.54 1814.4 1565.63 1822.29 1566.74 1826.8 1583.26 1834.75 1583.41 1837.88 1596.66 1851.42 1627.33 1855.07 1640.48 1854.71 1670 1861.9 1740.56 1857.65 1770.08 1842.02 1768.72 1827.06 1763.39 1800.24 1763.83 1773.43 1764.28 1729.99 1764.1 1696.77 1772.75 1663.54 1781.39 1640.26 1823.17 1600.89 1815.71 1566.84 1812.74 1493.53 1791.99 1470.06 1821 1460.14 1778.44 1466.58 1691.37 1474.27 1648.01 1493.09 1631.33 1488.66 1616.2 1510.72 1602.35 1526 1593.94 1542.85 1598.17 1560.26 1596.31 1584.9 1598.12 1606.86 1612.17 1631.55 1613.63 1655.78 1613.58 1659.99 1570.16 1676.54 1557.57M1686.8 1669.59C1695.05 1664.5 1702.74 1658.06 1712.15 1655.39 1732.29 1654.68 1751.87 1660.27 1771.4 1664.3 1771.9 1642.49 1769.83 1618.57 1753.03 1602.55 1742.25 1588.65 1723.94 1587.39 1707.7 1587.24 1682.75 1606.28 1675.31 1640.98 1686.8 1669.59M1550.09 1735.17C1550.79 1731.85 1552.26 1725.2 1552.97 1721.87 1575.84 1702.83 1602.35 1687.07 1632.36 1682.69 1614.9 1657.5 1597.34 1621.04 1561.27 1623.15 1531.57 1651.21 1523.27 1702.68 1550.09 1735.17M1690.44 1701.53C1671.98 1713.61 1649.41 1728.12 1627.25 1715.58 1636.1 1738.6 1656.75 1760.15 1682.75 1761.56 1698.13 1762.77 1710.38 1749.83 1715.34 1736.58 1718.93 1717.69 1712 1699.06 1707.85 1680.87 1702.79 1688.38 1698.74 1697.04 1690.44 1701.53Z" fill="#6FC3DF" fill-rule="evenodd"/><path d="M1523.38 1361.5C1535.93 1361.55 1548.48 1361.45 1561.09 1361.8 1569.14 1373.27 1578.15 1385.3 1578.65 1399.9 1579.11 1434.41 1587.71 1468.26 1584.32 1502.93 1591.11 1509.95 1597.94 1516.92 1604.77 1523.94 1626.89 1521.98 1648.76 1517.73 1671.03 1516.67 1689.81 1509.8 1709.1 1519.9 1728.18 1520.36 1738.96 1511.72 1749.74 1503.03 1759.92 1493.68 1759.77 1470.99 1760.83 1448.15 1755.67 1425.92 1752.37 1414.1 1757.13 1402.63 1761.44 1391.77 1772.22 1391.82 1783.05 1391.87 1793.83 1392.07 1806.33 1412.18 1827.24 1429.61 1826.94 1455.13 1825.21 1487.31 1843.44 1515.81 1845.92 1547.54 1847.33 1588.27 1873.76 1626.77 1858.98 1667.95 1865.3 1701.95 1866.11 1736.82 1870.31 1770.97 1887.22 1810.33 1893.7 1852.83 1898.36 1895.12 1898.36 1907.7 1900.03 1922.3 1891.93 1932.91 1874.47 1949.13 1853.05 1960.1 1833.26 1973.08 1805.37 1981.01 1776.32 1980.05 1747.67 1980 1733.44 1995.16 1712.44 1998.55 1692.9 1992.99 1672.25 1986.22 1649.92 1993.49 1629.47 1985.86 1617.07 1981.77 1604.11 1980.15 1591.36 1977.48 1561.24 1968.23 1537.91 1946.15 1514.77 1925.89 1505.36 1912.6 1499.54 1897.04 1488.81 1884.56 1485.72 1875.87 1482.23 1867.28 1478.53 1858.84 1475.54 1845.75 1471.55 1832.92 1466.58 1820.49 1453.27 1782.9 1456.16 1742.48 1455.5 1703.27 1455.75 1687.65 1454.49 1671.48 1460.11 1656.58 1460 1626.16 1461.73 1595.84 1471.7 1566.84 1477.32 1527.33 1495.18 1490.55 1497.72 1450.58 1499.69 1448.66 1503.69 1444.77 1505.71 1442.85 1506.42 1431.28 1509.81 1420.31 1516.04 1410.51 1516.34 1393.89 1516.19 1376.91 1523.38 1361.5M1538.97 1437.69C1538.06 1465.84 1537.96 1493.98 1538.36 1522.13 1543.42 1522.53 1548.54 1522.93 1553.6 1523.34 1557.45 1499.89 1558.36 1475.79 1555.62 1452.2 1553.34 1450.78 1548.84 1447.85 1546.56 1446.44 1546.92 1444.36 1547.68 1440.27 1548.03 1438.2L1538.97 1437.69M1786.09 1445.33C1782.7 1473.52 1783.96 1502.37 1791.96 1529.71 1795 1529.76 1801.07 1529.86 1804.11 1529.91 1821.27 1513.39 1817.12 1487.46 1814.48 1466.19 1811.75 1465.48 1806.23 1463.97 1803.5 1463.21 1798.59 1456.49 1794.03 1448.96 1786.09 1445.33M1679.99 1575.28C1663.44 1587.91 1655.75 1614.03 1631.5 1614.09 1606.8 1612.62 1584.83 1598.52 1560.18 1596.7 1542.77 1598.57 1525.91 1604.79 1510.62 1613.23 1488.55 1627.12 1488.05 1656.73 1469.22 1673.45 1461.52 1716.96 1466.99 1761.98 1476.91 1804.67 1500.4 1775.57 1542.36 1775.47 1576.43 1778.45 1615.81 1785.93 1659.74 1794.11 1696.75 1773.7 1730.31 1755.41 1766.6 1742.32 1803.75 1733.38 1819.14 1729.34 1835.09 1731.31 1850.73 1732.67 1854.98 1703.06 1844.3 1674.11 1844.65 1644.5 1841.01 1631.32 1837.92 1617.98 1834.78 1604.69 1826.83 1604.54 1818.84 1605.39 1810.94 1604.28 1780.37 1598.17 1767.46 1559.77 1735.11 1558.3 1715.42 1555.63 1695.53 1563.61 1679.99 1575.28Z" stroke="#000000" stroke-width="3.4375" stroke-miterlimit="8" fill="#403835" fill-rule="evenodd"/><path d="M1686.77 1670.5C1675.28 1641.67 1682.72 1606.69 1707.69 1587.5 1723.94 1587.65 1742.27 1588.92 1753.05 1602.93 1769.87 1619.08 1771.94 1643.19 1771.44 1665.17 1751.89 1661.11 1732.29 1655.47 1712.14 1656.18 1702.72 1658.87 1695.03 1665.37 1686.77 1670.5M1686.52 1618.01C1694.42 1620.24 1702.32 1622.73 1710.17 1625.27 1712.75 1633.8 1715.23 1642.33 1717.41 1650.96 1733.96 1654.97 1750.83 1657.2 1767.59 1660.04 1766.02 1646.74 1767.89 1632.07 1760.3 1620.35 1753 1607.04 1740.65 1597.75 1727.69 1590.49 1708.44 1589.38 1695.18 1602.27 1686.52 1618.01Z" stroke="#000000" stroke-width="3.4375" stroke-miterlimit="8" fill-rule="evenodd"/><path d="M1550.64 1735.5C1523.96 1703.04 1532.22 1651.62 1561.77 1623.59 1597.66 1621.47 1615.13 1657.91 1632.5 1683.07 1602.65 1687.45 1576.27 1703.2 1553.51 1722.22 1552.81 1725.54 1551.35 1732.18 1550.64 1735.5M1551.05 1642.31C1533.53 1665.81 1536.45 1697.76 1545.05 1724.08 1562.22 1709.89 1578.78 1693.63 1601.29 1688.4 1581.75 1678.74 1588.7 1656.4 1597.06 1641.65 1589 1636.02 1581.65 1627.31 1570.88 1628.07 1561.47 1626.96 1556.33 1636.32 1551.05 1642.31Z" stroke="#000000" stroke-width="3.4375" stroke-miterlimit="8" fill-rule="evenodd"/><path d="M1690.63 1702.21C1698.92 1697.71 1702.97 1689.03 1708.02 1681.5 1712.17 1699.73 1719.09 1718.42 1715.5 1737.37 1710.55 1750.65 1698.32 1763.63 1682.95 1762.42 1656.97 1761.01 1636.35 1739.39 1627.5 1716.3 1649.64 1728.88 1672.18 1714.33 1690.63 1702.21M1636.65 1727.87C1650.09 1749.39 1675.67 1750.25 1698.26 1751.91 1702.56 1746.06 1706.91 1740.25 1711.26 1734.44 1711 1721.1 1710.24 1707.82 1708.78 1694.58 1687.6 1710.7 1664.85 1728.73 1636.65 1727.87Z" stroke="#000000" stroke-width="3.4375" stroke-miterlimit="8" fill-rule="evenodd"/></g></svg>