<svg width="452" height="551" xmlns="http://www.w3.org/2000/svg" xmlns:xlink="http://www.w3.org/1999/xlink" xml:space="preserve" overflow="hidden"><defs><clipPath id="clip0"><rect x="833" y="1740" width="452" height="551"/></clipPath></defs><g clip-path="url(#clip0)" transform="translate(-833 -1740)"><path d="M868.788 1936.94C883.51 1930.35 918.402 1928.53 934 1925 929.794 1937.76 927.977 1966.89 923.829 1979.65 902.213 1979 859.557 1980.06 838 1981 847.757 1971.3 856.637 1943.82 868.788 1936.94Z" fill="#449EC4" fill-rule="evenodd"/><path d="M1197.62 1925.79C1218.02 1918.3 1255.44 1921.3 1279 1940.34 1251.72 1946.95 1198.57 1960.15 1171 1965 1177.53 1955.41 1187.22 1931.99 1197.62 1925.79Z" fill="#449EC4" fill-rule="evenodd"/><path d="M994.842 1978.14C1051.21 1973.19 1119.45 1978.35 1176 1978.53 1176 2044.85 1170.19 2116.59 1123.08 2167.32 1100.17 2194.91 1081.89 2207.11 1050.13 2206.99 1022.3 2207.46 970.523 2187.33 956.518 2166.85 941.869 2147.02 927.3 2124.71 922.261 2101.05 917.163 2075.22 911.661 2017.09 921.27 1991.91 940.959 1984.08 973.864 1980.43 994.842 1978.14Z" fill="#449EC4" fill-rule="evenodd"/><path d="M986.88 1811.2C1006.15 1789.09 1030.3 1764.97 1061.97 1766.03 1092.11 1773.62 1121.43 1788.68 1142.64 1811.85 1169.38 1856.84 1169.08 1910.77 1167.32 1961.47 1120.55 1965.41 1073.84 1969.88 1026.89 1970.11 995.576 1970.11 964.317 1977.82 933 1973.88 945.163 1918.24 951.156 1858.02 986.88 1811.2M1040.11 1849.08C1034.24 1854.25 1035.82 1867.49 1044.75 1868.19 1057.68 1867.13 1052.16 1841.84 1040.11 1849.08M1069.08 1844.67C1063.2 1847.67 1059.33 1860.31 1068.08 1862.07 1079.72 1863.72 1082.48 1839.2 1069.08 1844.67M969.782 1924.59C990.64 1927.06 1011.62 1927.48 1032.59 1926.71 1040 1900.24 1037.35 1871.54 1020.78 1848.96 987.996 1858.19 967.372 1891.13 969.782 1924.59M1076.48 1866.02C1068.96 1884.95 1069.08 1905.89 1068.43 1925.95 1092.52 1927.65 1118.61 1930 1139.35 1915.07 1135.65 1894.89 1129.78 1872.07 1109.39 1862.6 1099.16 1854.49 1085.71 1858.49 1076.48 1866.02Z" fill="#F3F7F0" fill-rule="evenodd"/><path d="M971 1917.58C978.487 1890.89 993.873 1865.96 1020.4 1855 1022.23 1861.72 1024.11 1868.44 1026 1875.15 1011.26 1886.53 1002.83 1902.85 999.768 1921 990.159 1919.88 980.609 1918.76 971 1917.58Z" fill="#F3F7F0" fill-rule="evenodd"/><path d="M1090 1860C1112.28 1867.18 1134.79 1886.56 1127.66 1912.7 1119.18 1914.76 1110.7 1916.88 1102.22 1919 1096.19 1899.51 1080.46 1881.08 1090 1860Z" fill="#F3F7F0" fill-rule="evenodd"/><path d="M1182 1971.63C1209.33 1959.96 1239.08 1953.55 1269 1955.28 1249.94 1982.67 1212.81 1983.01 1182.65 1987 1182.47 1983.19 1182.18 1975.44 1182 1971.63Z" fill="#F3F7F0" fill-rule="evenodd"/><path d="M850 1989.67C871.492 1980.65 897.331 1977.96 918 1990.63 914.242 2013.46 890.754 2005.51 874.37 2006.23 863.858 2006.4 857.986 1994.99 850 1989.67Z" fill="#F3F7F0" fill-rule="evenodd"/><path d="M1107 2197.13C1121.52 2182.13 1135.1 2166.24 1149.38 2151 1164.84 2182.48 1198.81 2215.21 1182.82 2252.95 1178.53 2270.85 1156.84 2267.78 1143.27 2264.47 1116.82 2253.19 1114.82 2220.99 1107 2197.13Z" fill="#F3F7F0" fill-rule="evenodd"/><path d="M930.415 2246.84C938.275 2224.65 952.705 2205.41 965.667 2186 980.919 2196.74 997.107 2206.12 1014 2213.97 999.63 2236.28 983.793 2262.54 955.286 2267.2 943.612 2270.92 923.493 2261.3 930.415 2246.84Z" fill="#F3F7F0" fill-rule="evenodd"/><path d="M1005.67 1765.17C1027.89 1748.79 1057.92 1731.64 1085.72 1744.5 1102.76 1752.19 1116.98 1764.99 1134.09 1772.8 1153.36 1780.97 1161.12 1801.69 1169.94 1819.01 1178.28 1851.07 1188.63 1882.9 1192.21 1916.02 1214.43 1916.19 1236.82 1914.43 1258.92 1917.19 1273.14 1927.94 1293.18 1944.08 1281.48 1963.93 1262.79 1997.93 1217.72 1994.05 1185.22 2004.56 1182.69 2049.89 1180.16 2097.4 1161.47 2139.44 1181.63 2178.08 1209.96 2219.06 1201.2 2264.86 1191.09 2276.55 1180.1 2293.99 1162.18 2290.52 1140.79 2287.35 1120.63 2274.32 1108.4 2256.41 1100.82 2243.19 1093.89 2229.57 1086.07 2216.48 1068.5 2219.94 1050.57 2220.59 1032.71 2221.06 1020.78 2257.52 985.927 2282.65 949.548 2290.52 927.392 2294.4 914.579 2274.02 910.172 2255.41 913.816 2223.99 926.099 2193.46 949.313 2171.38 913.992 2132.28 913.404 2076.67 908.586 2027.11 883.431 2018.71 849.169 2028.34 834.3 2000.75 832.36 1986.48 833.183 1971.98 833.124 1957.65 859.806 1935.8 890.719 1918.25 925.452 1913.9 934.797 1881.55 945.082 1849.37 959.539 1818.9 967.943 1796.11 987.867 1780.55 1005.67 1765.17M986.397 1810.85C950.665 1857.59 944.67 1917.72 932.505 1973.27 963.83 1977.2 995.095 1969.51 1026.42 1969.51 1073.38 1969.27 1120.1 1964.81 1166.88 1960.88 1168.64 1910.26 1168.94 1856.42 1142.2 1811.5 1120.98 1788.36 1091.65 1773.33 1061.51 1765.76 1029.83 1764.7 1005.67 1788.77 986.397 1810.85M1201.85 1932.11C1191.45 1938.33 1186.45 1950.13 1179.93 1959.76 1207.49 1954.89 1234.82 1948.66 1262.09 1942.03 1243.22 1934.63 1222.24 1924.59 1201.85 1932.11M880.082 1945.67C867.857 1952.54 858.925 1963.58 849.11 1973.27 870.796 1972.33 892.6 1971.27 914.345 1971.92 918.518 1959.17 922.69 1946.49 926.921 1933.75 911.23 1937.27 894.892 1939.09 880.082 1945.67M1182.04 1971.51C1182.22 1975.38 1182.51 1983.25 1182.69 1987.12 1212.72 1983.07 1249.69 1982.72 1268.67 1954.89 1238.87 1953.13 1209.25 1959.64 1182.04 1971.51M849.639 1989.53C857.631 1994.76 863.508 2005.97 874.028 2005.8 890.425 2005.09 913.933 2012.9 917.694 1990.47 897.007 1978.02 871.148 1980.67 849.639 1989.53M994.449 1989.65C973.409 1991.94 952.134 1995.58 932.387 2003.39 922.749 2028.52 925.923 2056.06 931.036 2081.84 936.09 2105.44 941.32 2130.04 956.013 2149.83 970.059 2170.27 986.809 2195.05 1014.72 2194.58 1046.58 2194.69 1086.01 2201.27 1108.99 2173.73 1156.24 2123.12 1164.41 2049.19 1164.41 1983.01 1107.7 1982.84 1050.99 1984.72 994.449 1989.65M1106.46 2196.69C1114.28 2220.41 1116.28 2252.41 1142.73 2263.63 1156.3 2266.92 1177.99 2269.97 1182.28 2252.18 1198.26 2214.66 1164.3 2182.13 1148.84 2150.83 1134.56 2165.98 1120.98 2181.77 1106.46 2196.69M929.743 2246.31C922.808 2260.69 942.966 2270.26 954.661 2266.56 983.224 2261.93 999.092 2235.8 1013.49 2213.6 996.565 2205.79 980.343 2196.45 965.064 2185.77 952.075 2205.09 937.617 2224.23 929.743 2246.31Z" fill-rule="evenodd"/><path d="M1039.58 1849.27C1051.98 1842.19 1057.67 1866.96 1044.36 1868 1035.16 1867.31 1033.53 1854.34 1039.58 1849.27Z" fill-rule="evenodd"/><path d="M1069.1 1844.78C1082.44 1839.4 1079.69 1863.54 1068.11 1861.92 1059.4 1860.19 1063.26 1847.74 1069.1 1844.78Z" fill-rule="evenodd"/><path d="M969.191 1924.54C966.779 1891.12 987.428 1858.22 1020.26 1849 1036.84 1871.56 1039.49 1900.22 1032.08 1926.65 1011.08 1927.42 990.075 1927.01 969.191 1924.54M970.956 1917.84C980.545 1919.02 990.075 1920.13 999.664 1921.25 1002.72 1903.16 1011.14 1886.89 1025.84 1875.55 1023.96 1868.85 1022.08 1862.16 1020.26 1855.46 993.782 1866.39 978.428 1891.23 970.956 1917.84Z" fill-rule="evenodd"/><path d="M1076.06 1865.88C1085.29 1858.36 1098.76 1854.37 1109 1862.47 1129.41 1871.93 1135.29 1894.72 1139 1914.87 1118.24 1929.8 1092.12 1927.45 1068 1925.74 1068.65 1905.71 1068.53 1884.8 1076.06 1865.88M1090.12 1860.12C1080.53 1881.15 1096.35 1899.54 1102.41 1918.99 1110.94 1916.87 1119.47 1914.76 1128 1912.7 1135.18 1886.62 1112.53 1867.29 1090.12 1860.12Z" fill-rule="evenodd"/><path d="M1118.18 2063.73C1145.3 2028.89 1173.5 1955.32 1173.93 1971.22 1173.93 2037.23 1177.74 2111.04 1130.39 2161.53 1107.36 2189 1079.34 2198.74 1047.42 2198.62 1019.44 2199.09 1018.08 2215.04 1004 2194.66 1015.79 2172.18 1100.1 2090.23 1118.18 2063.73Z" fill="#000000" fill-rule="evenodd" fill-opacity="0.501961"/></g></svg>