<?xml version="1.0" encoding="UTF-8" ?>
<!DOCTYPE svg PUBLIC "-//W3C//DTD SVG 1.1//EN" "http://www.w3.org/Graphics/SVG/1.1/DTD/svg11.dtd">
<svg width="100px" height="102px" viewBox="0 0 100 102" version="1.1" xmlns="http://www.w3.org/2000/svg">
<g id="#3aa2caff">
<path fill="#3aa2ca" opacity="1.00" d=" M 37.08 22.11 C 41.19 12.80 51.56 5.57 61.97 7.67 C 66.25 9.41 68.50 13.85 70.13 17.89 C 70.46 24.63 70.14 31.51 68.02 37.97 C 65.41 46.04 60.97 53.34 56.55 60.52 C 50.72 70.25 41.62 77.53 36.04 87.42 C 44.14 88.68 52.40 88.60 60.45 90.28 C 70.32 92.24 81.61 91.33 89.70 98.34 C 88.28 99.56 86.85 100.78 85.42 102.00 L 62.08 102.00 C 62.26 100.63 62.44 99.26 62.62 97.89 C 61.24 99.26 59.88 100.65 58.49 102.00 L 46.72 102.00 C 46.98 100.21 47.23 98.41 47.45 96.61 C 46.12 98.36 44.89 100.19 43.64 102.00 L 20.45 102.00 C 20.58 93.47 19.91 84.86 21.43 76.41 C 22.36 67.48 25.54 59.04 27.34 50.29 C 29.71 40.62 33.18 31.26 37.08 22.11 M 49.47 31.50 C 44.70 34.76 42.48 41.02 43.47 46.62 C 44.28 50.20 47.68 52.57 51.04 53.49 C 56.24 53.66 61.71 50.09 62.60 44.76 C 63.11 39.69 59.97 34.95 56.15 31.92 C 54.20 30.83 51.51 30.51 49.47 31.50 Z" />
<path fill="#3aa2ca" opacity="1.00" d=" M 46.97 38.04 C 47.17 33.82 53.81 31.46 56.64 34.96 C 54.43 37.92 50.42 38.58 46.97 38.04 Z" />
</g>
<g id="#44565efa">
<path fill="#44565e" opacity="0.98" d=" M 70.13 17.89 C 71.87 22.27 69.95 27.49 72.50 31.51 C 70.52 36.28 69.26 41.33 67.00 45.98 C 63.93 52.38 60.15 58.40 56.26 64.32 C 51.88 71.01 45.58 76.28 41.82 83.40 C 50.15 80.09 58.30 76.03 65.30 70.37 C 72.15 65.28 78.54 59.26 82.80 51.77 C 83.85 50.11 84.12 48.12 84.15 46.19 C 84.77 47.58 85.36 48.98 85.94 50.39 C 81.18 56.71 76.83 63.53 70.42 68.34 C 65.77 71.73 61.54 75.75 56.40 78.41 C 51.48 81.09 46.16 83.09 41.71 86.56 C 52.14 87.74 62.58 88.89 73.01 90.12 C 79.20 90.75 85.05 92.96 91.10 94.28 C 93.26 86.67 92.30 78.65 92.07 70.87 C 93.39 79.26 92.88 87.88 92.12 96.32 C 91.30 96.98 90.50 97.65 89.70 98.34 C 81.61 91.33 70.32 92.24 60.45 90.28 C 52.40 88.60 44.14 88.68 36.04 87.42 C 41.62 77.53 50.72 70.25 56.55 60.52 C 60.97 53.34 65.41 46.04 68.02 37.97 C 70.14 31.51 70.46 24.63 70.13 17.89 Z" />
<path fill="#44565e" opacity="0.98" d=" M 49.47 31.50 C 51.51 30.51 54.20 30.83 56.15 31.92 C 59.97 34.95 63.11 39.69 62.60 44.76 C 61.71 50.09 56.24 53.66 51.04 53.49 C 47.68 52.57 44.28 50.20 43.47 46.62 C 42.48 41.02 44.70 34.76 49.47 31.50 M 46.97 38.04 C 50.42 38.58 54.43 37.92 56.64 34.96 C 53.81 31.46 47.17 33.82 46.97 38.04 M 51.78 40.87 C 52.97 44.06 53.31 47.57 54.95 50.58 C 56.58 49.39 58.63 48.39 59.45 46.43 C 60.17 43.36 59.78 40.18 59.62 37.07 C 56.57 36.11 54.17 39.39 51.78 40.87 M 46.00 39.07 C 45.02 41.63 45.31 44.40 45.27 47.09 C 45.81 44.61 46.51 42.16 47.58 39.85 C 47.19 39.65 46.40 39.26 46.00 39.07 Z" />
<path fill="#44565e" opacity="0.98" d=" M 43.64 102.00 C 44.89 100.19 46.12 98.36 47.45 96.61 C 47.23 98.41 46.98 100.21 46.72 102.00 L 43.64 102.00 Z" />
<path fill="#44565e" opacity="0.98" d=" M 58.49 102.00 C 59.88 100.65 61.24 99.26 62.62 97.89 C 62.44 99.26 62.26 100.63 62.08 102.00 L 58.49 102.00 Z" />
</g>
<g id="#edf3eeff">
<path fill="#edf3ee" opacity="1.00" d=" M 67.00 45.98 C 69.26 41.33 70.52 36.28 72.50 31.51 C 77.30 35.53 81.74 40.32 84.15 46.19 C 84.12 48.12 83.85 50.11 82.80 51.77 C 78.54 59.26 72.15 65.28 65.30 70.37 C 58.30 76.03 50.15 80.09 41.82 83.40 C 45.58 76.28 51.88 71.01 56.26 64.32 C 60.15 58.40 63.93 52.38 67.00 45.98 Z" />
<path fill="#edf3ee" opacity="1.00" d=" M 51.78 40.87 C 54.17 39.39 56.57 36.11 59.62 37.07 C 59.78 40.18 60.17 43.36 59.45 46.43 C 58.63 48.39 56.58 49.39 54.95 50.58 C 53.31 47.57 52.97 44.06 51.78 40.87 Z" />
<path fill="#edf3ee" opacity="1.00" d=" M 46.00 39.07 C 46.40 39.26 47.19 39.65 47.58 39.85 C 46.51 42.16 45.81 44.61 45.27 47.09 C 45.31 44.40 45.02 41.63 46.00 39.07 Z" />
<path fill="#edf3ee" opacity="1.00" d=" M 70.42 68.34 C 76.83 63.53 81.18 56.71 85.94 50.39 C 89.12 56.86 90.46 63.91 92.07 70.87 C 92.30 78.65 93.26 86.67 91.10 94.28 C 85.05 92.96 79.20 90.75 73.01 90.12 C 62.58 88.89 52.14 87.74 41.71 86.56 C 46.16 83.09 51.48 81.09 56.40 78.41 C 61.54 75.75 65.77 71.73 70.42 68.34 Z" />
</g>
</svg>
