<?xml version="1.0" encoding="UTF-8" ?>
<!DOCTYPE svg PUBLIC "-//W3C//DTD SVG 1.1//EN" "http://www.w3.org/Graphics/SVG/1.1/DTD/svg11.dtd">
<svg width="1000pt" height="1000pt" viewBox="0 0 1000 1000" version="1.1" xmlns="http://www.w3.org/2000/svg">
<g id="#000000ff">
<path fill="#000000" opacity="1.00" d=" M 559.74 154.78 C 578.91 147.34 599.26 141.71 619.99 142.16 C 634.63 142.41 648.98 147.05 661.49 154.56 C 678.44 164.69 692.66 178.79 705.10 194.00 C 727.91 222.37 743.47 255.91 754.47 290.44 C 762.29 315.12 768.00 340.45 771.94 366.03 C 774.40 383.15 776.30 400.47 775.70 417.79 C 774.06 438.64 771.03 459.36 767.88 480.02 C 771.49 499.90 776.99 519.50 784.88 538.12 C 790.57 551.39 798.82 564.16 799.70 578.96 C 800.48 590.37 797.81 603.03 789.04 611.00 C 777.32 621.20 758.36 621.31 746.22 611.76 C 742.55 608.99 739.60 605.42 737.00 601.67 C 725.25 632.59 709.84 662.76 687.16 687.16 C 658.99 717.93 618.65 734.72 578.13 741.52 C 598.18 788.39 607.34 839.21 610.30 889.91 C 610.64 900.11 611.29 910.49 609.21 920.56 C 609.04 922.42 607.02 924.72 605.17 923.07 C 601.67 920.12 599.82 915.76 597.55 911.89 C 596.97 922.50 596.08 933.17 593.53 943.52 C 592.73 945.82 592.43 948.94 589.91 950.06 C 588.15 949.82 587.20 948.24 586.25 946.96 C 582.52 941.39 580.13 935.04 578.35 928.62 C 577.39 937.50 576.28 946.43 573.72 955.02 C 573.04 956.92 572.58 959.09 570.95 960.45 C 568.26 961.55 566.58 958.46 565.41 956.60 C 560.56 947.65 557.56 937.85 554.32 928.24 C 552.99 937.27 551.71 946.51 547.91 954.90 C 547.10 956.72 545.35 959.27 543.04 958.06 C 540.35 956.26 539.17 953.05 537.82 950.26 C 532.67 937.96 529.45 924.98 526.00 912.14 C 524.49 924.72 523.67 937.57 519.62 949.67 C 518.90 951.99 517.08 955.61 514.07 954.06 C 511.06 951.93 509.53 948.41 507.92 945.23 C 503.18 934.85 500.05 923.82 497.26 912.79 C 488.64 877.93 485.62 841.72 488.50 805.92 C 490.05 785.19 492.90 764.53 497.24 744.19 C 473.99 741.96 450.97 737.21 428.81 729.80 C 413.38 787.29 394.97 844.46 367.08 897.25 C 361.66 907.16 356.23 917.21 348.88 925.85 C 346.80 927.97 344.33 930.90 341.03 930.35 C 338.56 928.36 339.71 924.74 339.82 922.04 C 342.23 906.62 346.99 891.71 351.20 876.72 C 343.77 889.53 336.09 902.25 327.03 913.99 C 323.38 918.59 319.58 923.16 314.97 926.85 C 313.87 927.85 311.74 928.65 310.82 927.00 C 309.71 923.69 311.03 920.16 311.54 916.85 C 316.05 897.46 322.81 878.70 328.89 859.77 C 318.60 877.90 308.64 896.34 296.01 912.98 C 291.33 918.65 286.39 925.08 279.04 927.26 C 274.84 928.12 274.89 922.76 275.69 920.08 C 278.86 906.54 284.69 893.82 290.03 881.04 C 293.34 873.35 296.86 865.75 300.27 858.11 C 288.49 873.27 277.22 888.99 263.46 902.46 C 260.80 904.59 257.87 908.20 254.09 907.14 C 250.78 904.00 252.57 898.85 253.16 894.92 C 258.04 875.06 266.71 856.38 275.48 837.99 C 265.21 851.98 255.15 866.38 242.27 878.17 C 237.95 881.91 233.45 885.92 227.88 887.62 C 225.43 888.44 223.08 886.40 222.92 883.98 C 222.27 877.53 224.51 871.23 226.31 865.13 C 233.13 844.88 242.78 825.72 253.19 807.10 C 278.31 761.93 312.10 722.17 349.30 686.51 C 321.38 664.09 298.39 634.96 285.63 601.33 C 277.18 579.32 272.99 555.52 274.69 531.95 C 275.68 517.98 278.23 504.15 281.74 490.60 C 269.10 494.68 255.03 495.20 242.46 490.61 C 232.19 486.88 223.18 478.93 219.39 468.55 C 215.98 459.31 217.79 448.83 222.46 440.37 C 227.24 431.38 235.53 424.75 244.70 420.61 C 264.61 411.33 287.29 410.46 307.19 401.18 C 325.59 366.98 346.45 334.07 370.28 303.39 C 383.03 287.22 395.23 270.35 411.00 256.93 C 438.43 233.17 466.77 210.39 496.66 189.78 C 516.51 176.17 537.32 163.69 559.74 154.78 M 562.29 156.16 C 538.64 165.33 516.80 178.55 496.00 192.94 C 465.89 213.85 437.35 236.94 409.71 260.99 C 420.45 259.29 431.31 258.50 442.16 257.76 C 467.75 256.26 493.37 255.44 519.00 255.35 C 539.67 255.36 561.36 255.42 580.35 264.67 C 594.34 271.30 603.92 284.25 617.43 291.58 C 628.67 297.58 641.90 295.09 653.79 292.75 L 653.25 292.07 L 653.81 292.69 C 657.96 291.82 662.10 290.86 666.20 289.77 C 673.07 288.13 679.96 286.48 686.99 285.74 L 686.28 285.20 L 687.00 285.69 C 701.08 283.70 715.00 289.42 725.56 298.50 C 730.93 303.03 735.90 308.03 740.53 313.32 C 743.71 317.13 746.84 320.97 749.84 324.92 C 755.83 333.13 761.64 341.48 766.98 350.13 C 765.20 340.50 763.18 330.91 760.80 321.40 C 759.85 317.49 758.91 313.58 757.79 309.72 C 756.51 304.84 755.09 300.01 753.64 295.18 L 753.55 295.19 C 742.47 258.62 726.13 223.06 701.73 193.39 C 690.19 179.59 677.12 166.78 661.74 157.31 C 657.23 154.52 652.49 152.06 647.54 150.17 L 647.59 150.10 C 644.21 148.75 640.74 147.62 637.22 146.72 C 612.06 140.60 585.95 147.32 562.29 156.16 M 407.07 263.85 C 403.23 266.73 400.13 270.53 396.86 274.03 C 407.99 271.94 419.11 269.73 430.39 268.56 C 462.89 264.94 495.63 267.38 528.10 270.12 C 544.36 271.54 560.99 272.62 576.36 278.59 C 588.74 283.32 599.22 291.61 610.35 298.59 C 618.62 303.77 627.97 308.29 637.99 307.79 C 654.87 307.06 671.05 300.59 688.03 300.82 C 699.09 300.94 709.76 305.05 718.96 311.01 C 740.48 325.19 755.26 346.90 769.86 367.61 C 769.26 363.53 768.95 359.34 767.67 355.42 C 757.96 339.79 747.68 324.39 735.23 310.79 C 725.20 300.13 713.07 289.66 697.97 287.91 C 682.12 286.51 667.00 292.56 651.66 295.43 C 640.29 297.58 627.74 299.37 617.01 293.86 C 603.55 286.94 594.16 274.23 580.67 267.33 C 564.53 258.93 545.88 257.85 528.04 257.61 C 509.07 257.48 490.10 257.87 471.15 258.58 C 449.76 259.65 428.17 259.96 407.07 263.85 M 394.27 277.03 C 386.06 287.27 378.19 297.79 369.85 307.94 C 377.50 310.83 384.37 315.36 391.12 319.89 C 406.93 330.80 421.84 343.01 435.55 356.47 C 448.43 369.24 460.38 382.90 472.72 396.19 C 483.24 407.79 494.27 419.09 507.21 428.01 C 512.65 431.80 518.22 435.49 524.24 438.30 C 533.11 442.72 543.51 445.02 553.23 442.22 C 568.48 437.94 581.81 427.55 597.96 426.38 C 609.62 425.57 619.92 432.43 628.39 439.68 C 640.20 449.57 649.88 462.96 664.93 468.20 C 669.81 469.95 674.95 470.97 680.14 471.19 C 696.64 472.17 712.44 465.20 725.45 455.53 C 740.88 444.06 756.44 432.71 772.79 422.57 C 773.63 419.80 773.47 416.84 773.64 413.98 C 773.74 400.40 772.40 386.85 770.57 373.42 C 759.82 356.30 747.87 339.78 733.47 325.53 C 721.72 314.22 707.13 304.18 690.36 303.19 L 690.39 303.08 C 686.92 302.95 683.45 303.08 680.00 303.40 C 665.87 304.80 652.21 309.41 637.99 310.04 C 628.17 310.48 618.88 306.40 610.67 301.38 C 597.09 293.04 584.40 282.44 568.67 278.39 L 568.71 278.29 C 565.91 277.53 563.10 276.82 560.26 276.27 C 551.26 274.35 542.08 273.58 532.93 272.76 C 506.36 270.51 479.70 268.24 453.01 269.18 C 433.23 269.77 413.54 272.60 394.27 277.03 M 368.23 309.89 C 367.07 311.14 366.03 312.50 365.14 313.95 C 380.82 326.09 396.48 338.37 410.53 352.42 C 437.59 378.79 461.00 408.58 487.46 435.52 C 498.96 446.91 512.00 458.24 528.30 461.61 C 545.12 464.84 561.88 458.39 576.37 450.32 C 585.60 445.14 596.07 440.88 606.87 442.44 C 614.83 443.31 621.77 448.23 626.27 454.70 C 632.98 463.53 637.49 474.64 647.34 480.61 C 659.03 487.61 673.56 487.48 686.47 484.48 C 705.81 479.70 722.77 468.46 738.19 456.21 C 749.60 447.35 759.63 436.79 771.51 428.54 C 771.70 427.83 772.09 426.41 772.28 425.70 C 763.86 430.58 755.96 436.31 747.94 441.82 C 735.87 450.11 724.81 460.01 711.64 466.59 C 696.52 474.09 678.16 476.02 662.33 469.59 C 647.86 463.85 638.37 450.93 626.76 441.22 C 618.74 434.41 609.08 427.83 598.06 428.61 C 582.84 429.80 570.14 439.26 555.91 443.77 C 545.46 447.38 533.94 445.46 524.18 440.75 C 509.76 433.71 496.87 423.77 485.36 412.65 C 462.88 390.10 443.12 364.83 418.83 344.10 C 406.70 333.72 393.99 323.95 380.36 315.61 C 376.49 313.39 372.59 311.01 368.23 309.89 M 363.59 315.93 C 343.86 342.39 326.40 370.49 310.66 399.49 C 320.84 393.95 329.65 386.27 337.98 378.29 L 339.27 378.77 L 339.29 379.91 C 328.41 390.87 315.93 400.80 301.26 406.12 C 289.22 410.49 276.56 412.72 264.24 416.11 C 250.45 419.90 235.66 425.13 227.02 437.28 C 221.20 445.28 218.22 455.82 220.77 465.56 C 223.50 475.45 231.40 483.35 240.65 487.44 C 251.41 492.18 263.71 492.63 275.09 490.11 C 297.85 484.65 316.58 469.05 331.79 451.89 C 345.91 435.69 357.72 417.51 367.20 398.24 C 367.24 396.50 370.00 395.85 369.72 398.03 C 359.31 419.64 345.90 439.92 329.62 457.58 C 316.92 471.14 301.96 483.14 284.40 489.67 C 283.32 492.91 282.61 496.26 281.86 499.59 C 281.29 501.87 280.81 504.17 280.42 506.49 C 278.56 515.34 277.45 524.33 276.84 533.35 C 276.35 541.16 276.47 549.02 277.31 556.81 C 280.28 588.69 293.19 619.28 312.15 644.94 C 334.55 675.08 365.02 698.75 398.69 715.10 C 440.35 735.17 486.94 744.05 533.04 743.34 C 573.25 742.60 614.28 734.75 649.41 714.45 C 672.77 701.12 692.01 681.30 706.35 658.69 C 708.19 655.88 710.05 653.06 711.66 650.12 C 716.74 641.69 721.28 632.93 725.29 623.95 C 726.09 622.28 726.89 620.60 727.55 618.88 C 745.08 578.71 755.41 535.81 763.34 492.84 C 766.90 472.31 770.09 451.66 772.25 430.86 C 762.85 437.02 755.07 445.27 746.37 452.34 C 729.61 466.45 711.28 479.72 689.98 485.88 C 675.91 489.80 660.03 490.25 646.81 483.31 C 637.32 478.15 631.68 468.55 626.27 459.62 C 622.25 453.85 617.68 447.64 610.61 445.55 C 600.19 442.41 589.18 445.88 579.98 450.94 C 568.70 457.15 556.79 462.86 543.84 464.31 C 532.88 465.79 521.60 463.37 511.99 457.97 C 497.61 449.98 486.11 437.92 475.03 425.99 C 450.67 399.37 427.76 371.31 401.30 346.68 C 389.36 335.70 376.77 325.37 363.59 315.93 M 766.76 486.18 C 760.12 524.46 751.30 562.48 738.01 599.03 C 742.22 606.00 748.43 612.08 756.26 614.73 C 767.03 618.46 780.12 616.56 788.47 608.50 C 795.78 601.08 798.03 590.07 797.55 579.98 C 797.11 568.80 792.08 558.57 787.33 548.68 C 777.56 528.95 771.24 507.68 766.76 486.18 M 351.09 688.03 C 338.67 699.62 326.81 711.86 315.58 724.61 C 313.53 726.82 311.48 729.03 309.56 731.35 L 309.60 731.41 C 309.21 731.85 308.43 732.73 308.05 733.16 C 279.96 765.44 256.50 801.72 238.53 840.55 C 233.34 852.14 228.26 863.93 225.58 876.40 C 225.21 879.35 224.14 882.81 225.96 885.48 C 228.26 885.71 230.25 884.29 232.16 883.21 C 240.15 878.07 246.66 871.00 252.87 863.88 C 264.95 849.64 275.51 834.19 285.39 818.37 C 293.85 803.99 301.89 789.34 311.07 775.41 L 312.53 775.59 L 312.63 776.85 C 298.41 799.69 284.80 822.98 273.44 847.40 C 266.75 861.94 260.34 876.71 256.09 892.18 C 255.17 896.44 253.61 900.95 254.98 905.28 C 257.34 904.99 259.11 903.26 260.86 901.82 C 266.98 896.26 272.29 889.90 277.56 883.56 C 287.18 871.77 296.44 859.69 305.25 847.29 C 313.95 829.28 322.54 811.20 331.58 793.35 C 331.94 793.07 332.66 792.51 333.02 792.23 C 333.19 792.66 333.52 793.52 333.69 793.96 C 321.75 818.07 309.91 842.25 298.80 866.77 C 291.99 881.99 285.11 897.24 279.85 913.08 C 278.77 917.00 277.10 921.02 277.73 925.16 C 281.84 924.62 285.04 921.60 287.93 918.86 C 295.11 911.51 300.73 902.83 306.24 894.20 C 324.61 864.42 340.54 833.17 358.95 803.44 L 360.17 803.86 L 360.36 804.87 C 351.91 819.63 343.21 834.26 334.97 849.14 C 327.92 869.98 320.58 890.76 314.97 912.05 C 313.92 916.56 312.54 921.10 312.65 925.78 C 320.63 919.66 326.43 911.24 332.20 903.12 C 352.44 873.22 368.26 840.57 382.34 807.41 C 382.69 807.40 383.39 807.39 383.74 807.38 C 384.05 808.40 383.94 809.38 383.40 810.33 C 375.37 829.77 366.32 848.78 356.38 867.32 C 351.55 883.79 346.33 900.19 342.91 917.04 C 342.29 920.77 341.33 924.57 341.92 928.38 C 344.80 927.39 346.77 924.92 348.66 922.67 C 353.78 916.23 357.94 909.10 361.99 901.96 C 378.72 871.50 392.08 839.28 403.30 806.42 C 405.31 800.86 407.15 795.23 408.90 789.59 L 408.98 789.62 C 409.77 787.08 410.90 784.57 411.00 781.89 L 411.53 781.90 C 416.85 764.39 422.14 746.86 426.63 729.12 C 399.46 719.58 373.75 705.82 351.09 688.03 M 499.51 744.44 C 495.10 764.88 492.14 785.67 490.73 806.54 C 490.48 810.74 489.99 814.95 490.00 819.17 C 488.52 850.39 491.99 881.76 499.38 912.11 C 502.34 923.69 505.55 935.32 510.82 946.09 C 512.16 948.33 513.20 951.26 515.83 952.27 C 518.52 947.94 519.30 942.78 520.37 937.88 C 523.26 921.75 524.37 905.38 525.40 889.05 C 526.56 869.55 527.10 850.02 527.45 830.49 C 527.89 830.34 528.78 830.03 529.22 829.88 C 530.13 834.81 529.22 839.92 529.36 844.93 C 528.97 864.95 527.97 884.96 526.63 904.94 C 530.30 920.15 534.09 935.46 540.11 949.95 C 541.37 952.08 542.02 955.28 544.65 956.09 C 549.41 947.90 550.47 938.22 551.96 929.03 C 556.35 894.22 555.40 858.98 552.60 824.08 C 552.50 821.78 552.28 819.48 551.98 817.21 C 552.76 817.20 553.55 817.16 554.34 817.10 C 554.44 819.15 554.59 821.21 554.81 823.27 C 557.49 856.42 558.31 889.81 555.05 922.94 C 557.91 932.43 561.05 941.87 565.04 950.96 C 566.38 953.65 567.49 956.66 569.90 958.61 C 573.65 950.20 574.55 940.87 575.76 931.83 C 577.90 912.30 578.09 892.56 576.45 872.98 C 574.90 855.55 571.72 838.30 567.79 821.26 L 567.45 821.31 C 567.77 819.10 566.36 817.04 566.32 814.83 C 566.77 814.70 567.65 814.45 568.10 814.32 C 569.31 816.97 569.55 819.94 570.37 822.73 C 578.06 854.86 581.48 888.10 578.99 921.10 C 580.83 930.47 583.59 940.02 589.55 947.67 C 591.18 945.00 591.62 941.83 592.32 938.85 C 594.54 927.36 595.32 915.66 595.58 903.99 C 596.21 876.08 590.80 848.38 582.43 821.87 C 581.26 820.28 583.73 818.34 584.34 820.65 C 593.31 848.51 598.74 877.75 597.74 907.10 C 600.22 912.10 602.51 917.55 606.67 921.41 C 607.88 917.39 608.11 913.16 608.33 909.00 C 608.74 894.30 607.56 879.62 606.08 865.02 C 604.04 845.73 601.19 826.50 596.92 807.58 C 596.19 803.82 595.17 800.13 594.22 796.44 C 589.75 777.79 583.25 759.64 575.84 741.97 C 550.61 745.81 524.94 746.56 499.51 744.44 Z" />
<path fill="#000000" opacity="1.00" d=" M 561.52 379.69 C 563.48 378.50 566.77 380.97 565.18 383.09 C 563.19 385.25 558.69 381.74 561.52 379.69 Z" />
<path fill="#000000" opacity="1.00" d=" M 518.70 384.03 C 519.14 382.36 520.55 381.46 522.07 380.89 C 524.68 381.16 524.89 384.54 522.93 385.81 C 521.26 386.50 518.90 386.18 518.70 384.03 Z" />
<path fill="#000000" opacity="1.00" d=" M 495.80 390.12 C 494.11 387.31 498.85 384.54 499.83 387.99 C 499.25 389.68 497.30 393.12 495.80 390.12 Z" />
<path fill="#000000" opacity="1.00" d=" M 543.48 389.56 C 546.62 388.68 547.11 393.86 543.87 393.76 C 540.76 394.50 540.87 389.85 543.48 389.56 Z" />
<path fill="#000000" opacity="1.00" d=" M 576.43 395.73 C 578.44 394.20 581.87 396.13 580.66 398.68 C 579.15 401.97 573.00 398.09 576.43 395.73 Z" />
<path fill="#000000" opacity="1.00" d=" M 560.59 401.81 C 562.13 401.31 563.93 402.37 564.27 403.98 C 563.54 405.90 560.43 407.89 558.70 406.03 C 557.73 404.43 559.01 402.39 560.59 401.81 Z" />
<path fill="#000000" opacity="1.00" d=" M 659.51 401.62 C 660.86 400.78 662.79 401.27 663.01 403.02 C 662.36 404.73 660.04 405.57 658.49 404.57 C 657.61 403.43 658.25 402.08 659.51 401.62 Z" />
<path fill="#000000" opacity="1.00" d=" M 519.91 402.62 C 521.12 402.30 522.85 402.03 523.58 403.38 C 524.64 406.08 520.20 407.41 518.82 405.26 C 519.03 404.32 519.30 403.38 519.91 402.62 Z" />
<path fill="#000000" opacity="1.00" d=" M 643.41 413.36 C 645.18 412.86 648.12 414.47 646.52 416.46 C 644.89 417.61 641.95 417.37 641.64 415.05 C 642.08 414.63 642.97 413.78 643.41 413.36 Z" />
<path fill="#000000" opacity="1.00" d=" M 536.25 418.04 C 536.93 416.11 539.27 416.58 540.51 417.65 C 540.53 418.73 541.06 420.26 539.82 420.88 C 538.27 422.44 534.79 419.95 536.25 418.04 Z" />
<path fill="#000000" opacity="1.00" d=" M 656.81 421.94 C 658.88 419.64 662.79 421.92 661.84 424.87 C 660.17 427.12 656.09 424.32 656.81 421.94 Z" />
</g>
<g id="#e2af2fff">
<path fill="#e2af2f" opacity="1.00" d=" M 562.29 156.16 C 585.95 147.32 612.06 140.60 637.22 146.72 C 635.99 153.03 633.11 158.79 630.66 164.67 C 627.60 171.80 628.34 179.92 625.02 186.98 C 621.47 194.92 619.12 203.40 618.29 212.07 C 617.30 219.14 616.32 226.50 618.56 233.44 C 621.64 246.40 628.10 258.32 636.19 268.81 C 639.42 273.00 641.63 277.88 644.95 282.01 C 647.66 285.41 650.52 288.69 653.25 292.07 L 653.79 292.75 C 641.90 295.09 628.67 297.58 617.43 291.58 C 603.92 284.25 594.34 271.30 580.35 264.67 C 561.36 255.42 539.67 255.36 519.00 255.35 C 493.37 255.44 467.75 256.26 442.16 257.76 C 431.31 258.50 420.45 259.29 409.71 260.99 C 437.35 236.94 465.89 213.85 496.00 192.94 C 516.80 178.55 538.64 165.33 562.29 156.16 M 534.67 174.68 C 532.90 178.05 535.59 183.50 539.73 182.72 C 542.93 182.07 543.64 177.60 541.50 175.47 C 539.83 173.46 536.86 174.12 534.67 174.68 M 610.35 191.25 C 607.84 192.71 606.35 195.98 608.76 198.31 C 611.33 199.49 615.02 200.51 617.37 198.35 C 620.52 194.39 614.23 188.18 610.35 191.25 M 481.35 210.33 C 478.22 210.99 477.42 215.39 479.35 217.64 C 480.97 220.08 484.91 219.82 486.46 217.46 C 488.57 214.33 485.25 208.82 481.35 210.33 M 544.29 215.16 C 542.63 215.82 541.97 217.49 542.41 219.17 C 544.93 220.04 547.45 221.02 550.03 221.72 C 554.72 221.73 554.53 214.57 550.79 213.22 C 548.42 212.52 546.33 214.24 544.29 215.16 M 559.42 244.44 C 557.27 245.20 554.63 247.35 555.63 249.94 C 556.62 252.22 559.48 254.40 561.97 252.96 C 565.66 250.95 563.36 244.20 559.42 244.44 M 483.23 249.25 C 482.23 249.83 480.59 250.28 480.52 251.65 C 479.79 254.93 485.36 256.56 486.84 253.80 C 488.44 251.57 485.85 248.03 483.23 249.25 Z" />
<path fill="#e2af2f" opacity="1.00" d=" M 363.59 315.93 C 376.77 325.37 389.36 335.70 401.30 346.68 C 427.76 371.31 450.67 399.37 475.03 425.99 C 486.11 437.92 497.61 449.98 511.99 457.97 C 521.60 463.37 532.88 465.79 543.84 464.31 C 556.79 462.86 568.70 457.15 579.98 450.94 C 589.18 445.88 600.19 442.41 610.61 445.55 C 617.68 447.64 622.25 453.85 626.27 459.62 C 631.68 468.55 637.32 478.15 646.81 483.31 C 660.03 490.25 675.91 489.80 689.98 485.88 C 711.28 479.72 729.61 466.45 746.37 452.34 C 755.07 445.27 762.85 437.02 772.25 430.86 C 770.09 451.66 766.90 472.31 763.34 492.84 C 755.41 535.81 745.08 578.71 727.55 618.88 C 715.02 624.41 703.85 632.48 691.77 638.85 C 683.24 643.97 674.49 648.81 665.12 652.18 C 660.23 653.73 655.03 653.16 650.00 653.22 C 633.99 653.18 617.98 653.19 601.98 653.20 C 567.69 652.27 533.92 645.75 499.99 641.23 C 480.50 638.91 460.99 636.18 442.00 631.08 C 426.99 627.43 412.57 621.11 400.01 612.09 C 386.99 603.33 374.21 594.06 363.07 582.96 C 356.64 577.42 350.82 571.19 344.08 566.00 C 331.87 555.53 318.30 546.45 307.85 534.07 C 298.95 522.76 290.49 511.10 281.86 499.59 C 282.61 496.26 283.32 492.91 284.40 489.67 C 301.96 483.14 316.92 471.14 329.62 457.58 C 345.90 439.92 359.31 419.64 369.72 398.03 C 370.00 395.85 367.24 396.50 367.20 398.24 C 357.72 417.51 345.91 435.69 331.79 451.89 C 316.58 469.05 297.85 484.65 275.09 490.11 C 271.56 485.06 268.24 479.86 264.69 474.82 C 265.62 473.20 267.08 471.21 265.78 469.36 C 264.95 467.40 262.67 467.15 260.81 467.24 C 256.95 465.53 255.22 461.44 252.54 458.46 C 248.81 454.23 244.75 450.29 240.50 446.59 C 236.33 443.02 231.25 440.76 227.02 437.28 C 235.66 425.13 250.45 419.90 264.24 416.11 C 276.56 412.72 289.22 410.49 301.26 406.12 C 315.93 400.80 328.41 390.87 339.29 379.91 L 339.27 378.77 L 337.98 378.29 C 329.65 386.27 320.84 393.95 310.66 399.49 C 326.40 370.49 343.86 342.39 363.59 315.93 M 405.22 367.32 C 403.07 369.40 402.86 373.69 406.24 374.60 C 409.87 376.31 413.35 371.58 411.48 368.40 C 410.11 366.35 407.27 367.20 405.22 367.32 M 328.45 413.40 C 325.22 415.88 329.58 420.54 332.67 418.59 C 335.74 416.07 331.57 409.79 328.45 413.40 M 260.69 436.60 C 259.59 438.50 259.18 441.45 261.14 442.94 C 263.04 444.51 266.50 443.31 266.64 440.72 C 267.14 437.58 263.47 435.06 260.69 436.60 M 299.54 447.50 C 299.34 448.10 298.92 449.30 298.72 449.90 C 300.28 452.30 303.33 454.78 306.34 453.39 C 309.30 452.30 309.48 447.61 306.74 446.22 C 304.29 445.71 301.82 446.71 299.54 447.50 M 417.35 455.39 C 414.55 457.31 413.10 462.35 416.42 464.54 C 419.29 467.06 425.21 465.47 424.48 461.02 C 425.11 457.16 421.00 453.64 417.35 455.39 M 355.29 456.15 C 353.51 457.51 352.67 460.20 353.67 462.27 C 355.79 465.09 360.29 462.04 359.99 459.05 C 360.50 456.54 357.23 454.34 355.29 456.15 M 314.40 486.26 C 312.42 488.47 312.29 493.64 316.03 494.05 C 318.45 494.73 320.92 492.49 320.58 490.02 C 320.63 487.21 316.84 483.59 314.40 486.26 M 555.40 488.49 C 551.78 489.63 553.21 494.77 556.05 495.87 C 559.10 497.24 563.04 494.30 562.38 490.94 C 561.73 487.89 557.74 488.08 555.40 488.49 M 630.24 500.24 C 627.44 501.69 625.89 506.25 628.30 508.74 C 629.48 510.15 631.81 510.37 633.31 509.35 C 634.84 507.60 634.49 505.09 634.71 502.95 C 634.93 500.54 632.16 499.48 630.24 500.24 M 697.36 506.54 C 695.57 507.79 694.72 510.78 696.44 512.44 C 698.85 514.00 702.76 511.07 701.72 508.29 C 701.27 506.44 698.94 505.51 697.36 506.54 M 410.32 515.31 C 408.12 515.95 405.58 518.78 406.73 521.20 C 408.48 522.82 411.28 523.89 413.48 522.46 C 415.95 520.20 413.75 514.91 410.32 515.31 M 739.43 515.52 C 735.28 519.11 743.29 525.75 746.02 520.91 C 748.22 517.14 742.76 512.54 739.43 515.52 M 514.29 519.27 C 511.30 521.22 512.00 527.48 516.01 527.66 C 519.88 527.62 520.18 522.59 519.24 519.85 C 517.83 518.85 515.82 518.04 514.29 519.27 M 582.33 523.31 C 577.75 525.39 578.61 532.83 583.09 534.50 C 585.28 533.33 587.13 531.56 588.37 529.41 C 590.05 528.60 592.01 527.20 591.24 525.03 C 590.07 521.27 585.03 521.37 582.33 523.31 M 464.64 526.67 C 464.39 527.24 463.90 528.40 463.66 528.98 C 464.33 531.50 467.44 533.72 469.92 532.11 C 472.05 531.06 472.25 527.94 470.50 526.45 C 468.92 524.60 466.40 525.83 464.64 526.67 M 344.94 543.43 C 348.90 544.83 348.89 539.93 350.96 538.00 C 352.78 536.22 352.10 532.02 349.03 532.36 C 344.00 532.78 342.05 539.84 344.94 543.43 M 711.18 561.32 C 708.07 562.64 708.52 567.74 710.92 569.50 C 713.65 569.29 717.34 567.34 716.90 564.08 C 716.78 561.34 713.39 560.03 711.18 561.32 M 431.35 581.20 C 428.28 582.64 428.11 588.68 432.04 588.95 C 435.77 589.63 439.65 584.62 437.50 581.45 C 435.69 580.45 433.18 580.21 431.35 581.20 M 721.02 618.43 C 724.64 618.72 724.56 612.63 720.97 612.63 C 717.55 613.00 717.10 618.75 721.02 618.43 M 665.31 616.43 C 662.72 617.78 661.71 622.75 665.07 623.75 C 668.09 625.04 670.85 621.82 670.45 618.95 C 670.52 616.36 667.30 615.33 665.31 616.43 M 619.25 644.18 C 614.81 646.27 618.74 653.13 622.94 651.14 C 627.23 649.21 623.49 641.20 619.25 644.18 Z" />
<path fill="#e2af2f" opacity="1.00" d=" M 766.76 486.18 C 771.24 507.68 777.56 528.95 787.33 548.68 C 792.08 558.57 797.11 568.80 797.55 579.98 C 798.03 590.07 795.78 601.08 788.47 608.50 C 780.12 616.56 767.03 618.46 756.26 614.73 C 748.43 612.08 742.22 606.00 738.01 599.03 C 751.30 562.48 760.12 524.46 766.76 486.18 M 770.29 560.35 C 768.14 561.49 767.28 565.00 769.30 566.69 C 770.42 567.90 772.73 568.16 773.86 566.83 C 776.29 564.46 773.46 559.65 770.29 560.35 M 785.42 581.43 C 783.62 582.21 783.67 584.80 784.83 586.13 C 786.79 587.61 790.64 586.94 790.71 584.05 C 791.04 581.28 787.41 579.46 785.42 581.43 M 759.49 593.47 C 761.15 594.25 763.30 594.06 764.50 592.54 C 766.61 590.55 764.84 586.56 761.98 586.65 C 758.88 587.38 758.95 590.99 759.49 593.47 Z" />
</g>
<g id="#e6b94aff">
<path fill="#e6b94a" opacity="1.00" d=" M 637.22 146.72 C 640.74 147.62 644.21 148.75 647.59 150.10 L 647.54 150.17 C 645.20 152.77 643.41 155.80 642.14 159.05 C 639.20 166.61 635.16 173.84 633.86 181.94 C 630.51 195.36 631.24 209.35 632.52 222.99 C 633.20 230.90 634.82 238.80 637.72 246.22 C 642.27 256.10 646.34 266.32 653.00 275.04 C 656.84 280.42 661.36 285.28 666.20 289.77 C 662.10 290.86 657.96 291.82 653.81 292.69 L 653.25 292.07 C 650.52 288.69 647.66 285.41 644.95 282.01 C 641.63 277.88 639.42 273.00 636.19 268.81 C 628.10 258.32 621.64 246.40 618.56 233.44 C 616.32 226.50 617.30 219.14 618.29 212.07 C 619.12 203.40 621.47 194.92 625.02 186.98 C 628.34 179.92 627.60 171.80 630.66 164.67 C 633.11 158.79 635.99 153.03 637.22 146.72 M 632.38 250.34 C 629.64 251.15 628.96 254.44 630.56 256.63 C 631.76 259.73 637.78 259.64 637.82 255.90 C 637.70 253.14 635.85 248.77 632.38 250.34 Z" />
</g>
<g id="#eac569ff">
<path fill="#eac569" opacity="1.00" d=" M 642.14 159.05 C 643.41 155.80 645.20 152.77 647.54 150.17 C 652.49 152.06 657.23 154.52 661.74 157.31 C 658.27 160.44 655.45 164.32 654.06 168.81 C 651.11 166.67 647.66 168.36 645.05 170.19 C 643.13 172.76 645.91 175.31 647.79 176.86 C 642.65 187.75 641.80 200.14 642.36 212.01 C 643.34 222.75 646.03 233.40 651.19 242.92 C 656.07 251.60 660.25 260.76 666.28 268.72 C 672.55 274.67 679.23 280.19 686.28 285.20 L 686.99 285.74 C 679.96 286.48 673.07 288.13 666.20 289.77 C 661.36 285.28 656.84 280.42 653.00 275.04 C 646.34 266.32 642.27 256.10 637.72 246.22 C 634.82 238.80 633.20 230.90 632.52 222.99 C 631.24 209.35 630.51 195.36 633.86 181.94 C 635.16 173.84 639.20 166.61 642.14 159.05 Z" />
</g>
<g id="#edcd7eff">
<path fill="#edcd7e" opacity="1.00" d=" M 654.06 168.81 C 655.45 164.32 658.27 160.44 661.74 157.31 C 677.12 166.78 690.19 179.59 701.73 193.39 C 726.13 223.06 742.47 258.62 753.55 295.19 C 750.20 295.38 746.87 295.88 743.59 296.56 C 737.66 297.82 731.57 297.87 725.56 298.50 C 715.00 289.42 701.08 283.70 687.00 285.69 L 686.28 285.20 C 679.23 280.19 672.55 274.67 666.28 268.72 C 660.25 260.76 656.07 251.60 651.19 242.92 C 646.03 233.40 643.34 222.75 642.36 212.01 C 641.80 200.14 642.65 187.75 647.79 176.86 C 649.68 176.76 652.29 177.46 653.48 175.48 C 654.99 173.55 654.23 171.02 654.06 168.81 M 677.24 218.24 C 675.50 219.24 676.08 221.75 676.48 223.37 C 677.32 226.52 681.40 225.84 683.49 224.49 C 685.89 220.96 680.44 216.54 677.24 218.24 M 711.14 270.30 C 707.40 271.70 710.15 276.25 711.85 278.27 C 714.50 279.72 716.87 276.94 718.21 274.97 C 719.43 271.05 714.03 269.55 711.14 270.30 Z" />
</g>
<g id="#b29381ff">
<path fill="#b29381" opacity="1.00" d=" M 645.05 170.19 C 647.66 168.36 651.11 166.67 654.06 168.81 C 654.23 171.02 654.99 173.55 653.48 175.48 C 652.29 177.46 649.68 176.76 647.79 176.86 C 645.91 175.31 643.13 172.76 645.05 170.19 Z" />
</g>
<g id="#8e5f45ff">
<path fill="#8e5f45" opacity="1.00" d=" M 534.67 174.68 C 536.86 174.12 539.83 173.46 541.50 175.47 C 543.64 177.60 542.93 182.07 539.73 182.72 C 535.59 183.50 532.90 178.05 534.67 174.68 Z" />
<path fill="#8e5f45" opacity="1.00" d=" M 610.35 191.25 C 614.23 188.18 620.52 194.39 617.37 198.35 C 615.02 200.51 611.33 199.49 608.76 198.31 C 606.35 195.98 607.84 192.71 610.35 191.25 Z" />
<path fill="#8e5f45" opacity="1.00" d=" M 481.35 210.33 C 485.25 208.82 488.57 214.33 486.46 217.46 C 484.91 219.82 480.97 220.08 479.35 217.64 C 477.42 215.39 478.22 210.99 481.35 210.33 Z" />
<path fill="#8e5f45" opacity="1.00" d=" M 544.29 215.16 C 546.33 214.24 548.42 212.52 550.79 213.22 C 554.53 214.57 554.72 221.73 550.03 221.72 C 547.45 221.02 544.93 220.04 542.41 219.17 C 541.97 217.49 542.63 215.82 544.29 215.16 Z" />
<path fill="#8e5f45" opacity="1.00" d=" M 559.42 244.44 C 563.36 244.20 565.66 250.95 561.97 252.96 C 559.48 254.40 556.62 252.22 555.63 249.94 C 554.63 247.35 557.27 245.20 559.42 244.44 Z" />
<path fill="#8e5f45" opacity="1.00" d=" M 483.23 249.25 C 485.85 248.03 488.44 251.57 486.84 253.80 C 485.36 256.56 479.79 254.93 480.52 251.65 C 480.59 250.28 482.23 249.83 483.23 249.25 Z" />
<path fill="#8e5f45" opacity="1.00" d=" M 405.22 367.32 C 407.27 367.20 410.11 366.35 411.48 368.40 C 413.35 371.58 409.87 376.31 406.24 374.60 C 402.86 373.69 403.07 369.40 405.22 367.32 Z" />
<path fill="#8e5f45" opacity="1.00" d=" M 328.45 413.40 C 331.57 409.79 335.74 416.07 332.67 418.59 C 329.58 420.54 325.22 415.88 328.45 413.40 Z" />
<path fill="#8e5f45" opacity="1.00" d=" M 260.69 436.60 C 263.47 435.06 267.14 437.58 266.64 440.72 C 266.50 443.31 263.04 444.51 261.14 442.94 C 259.18 441.45 259.59 438.50 260.69 436.60 Z" />
<path fill="#8e5f45" opacity="1.00" d=" M 299.54 447.50 C 301.82 446.71 304.29 445.71 306.74 446.22 C 309.48 447.61 309.30 452.30 306.34 453.39 C 303.33 454.78 300.28 452.30 298.72 449.90 C 298.92 449.30 299.34 448.10 299.54 447.50 Z" />
<path fill="#8e5f45" opacity="1.00" d=" M 417.35 455.39 C 421.00 453.64 425.11 457.16 424.48 461.02 C 425.21 465.47 419.29 467.06 416.42 464.54 C 413.10 462.35 414.55 457.31 417.35 455.39 Z" />
<path fill="#8e5f45" opacity="1.00" d=" M 355.29 456.15 C 357.23 454.34 360.50 456.54 359.99 459.05 C 360.29 462.04 355.79 465.09 353.67 462.27 C 352.67 460.20 353.51 457.51 355.29 456.15 Z" />
<path fill="#8e5f45" opacity="1.00" d=" M 314.40 486.26 C 316.84 483.59 320.63 487.21 320.58 490.02 C 320.92 492.49 318.45 494.73 316.03 494.05 C 312.29 493.64 312.42 488.47 314.40 486.26 Z" />
<path fill="#8e5f45" opacity="1.00" d=" M 555.40 488.49 C 557.74 488.08 561.73 487.89 562.38 490.94 C 563.04 494.30 559.10 497.24 556.05 495.87 C 553.21 494.77 551.78 489.63 555.40 488.49 Z" />
<path fill="#8e5f45" opacity="1.00" d=" M 630.24 500.24 C 632.16 499.48 634.93 500.54 634.71 502.95 C 634.49 505.09 634.84 507.60 633.31 509.35 C 631.81 510.37 629.48 510.15 628.30 508.74 C 625.89 506.25 627.44 501.69 630.24 500.24 Z" />
<path fill="#8e5f45" opacity="1.00" d=" M 697.36 506.54 C 698.94 505.51 701.27 506.44 701.72 508.29 C 702.76 511.07 698.85 514.00 696.44 512.44 C 694.72 510.78 695.57 507.79 697.36 506.54 Z" />
<path fill="#8e5f45" opacity="1.00" d=" M 410.32 515.31 C 413.75 514.91 415.95 520.20 413.48 522.46 C 411.28 523.89 408.48 522.82 406.73 521.20 C 405.58 518.78 408.12 515.95 410.32 515.31 Z" />
<path fill="#8e5f45" opacity="1.00" d=" M 739.43 515.52 C 742.76 512.54 748.22 517.14 746.02 520.91 C 743.29 525.75 735.28 519.11 739.43 515.52 Z" />
<path fill="#8e5f45" opacity="1.00" d=" M 514.29 519.27 C 515.82 518.04 517.83 518.85 519.24 519.85 C 520.18 522.59 519.88 527.62 516.01 527.66 C 512.00 527.48 511.30 521.22 514.29 519.27 Z" />
<path fill="#8e5f45" opacity="1.00" d=" M 582.33 523.31 C 585.03 521.37 590.07 521.27 591.24 525.03 C 592.01 527.20 590.05 528.60 588.37 529.41 C 587.13 531.56 585.28 533.33 583.09 534.50 C 578.61 532.83 577.75 525.39 582.33 523.31 Z" />
<path fill="#8e5f45" opacity="1.00" d=" M 464.64 526.67 C 466.40 525.83 468.92 524.60 470.50 526.45 C 472.25 527.94 472.05 531.06 469.92 532.11 C 467.44 533.72 464.33 531.50 463.66 528.98 C 463.90 528.40 464.39 527.24 464.64 526.67 Z" />
<path fill="#8e5f45" opacity="1.00" d=" M 344.94 543.43 C 342.05 539.84 344.00 532.78 349.03 532.36 C 352.10 532.02 352.78 536.22 350.96 538.00 C 348.89 539.93 348.90 544.83 344.94 543.43 Z" />
<path fill="#8e5f45" opacity="1.00" d=" M 770.29 560.35 C 773.46 559.65 776.29 564.46 773.86 566.83 C 772.73 568.16 770.42 567.90 769.30 566.69 C 767.28 565.00 768.14 561.49 770.29 560.35 Z" />
<path fill="#8e5f45" opacity="1.00" d=" M 711.18 561.32 C 713.39 560.03 716.78 561.34 716.90 564.08 C 717.34 567.34 713.65 569.29 710.92 569.50 C 708.52 567.74 708.07 562.64 711.18 561.32 Z" />
<path fill="#8e5f45" opacity="1.00" d=" M 431.35 581.20 C 433.18 580.21 435.69 580.45 437.50 581.45 C 439.65 584.62 435.77 589.63 432.04 588.95 C 428.11 588.68 428.28 582.64 431.35 581.20 Z" />
<path fill="#8e5f45" opacity="1.00" d=" M 785.42 581.43 C 787.41 579.46 791.04 581.28 790.71 584.05 C 790.64 586.94 786.79 587.61 784.83 586.13 C 783.67 584.80 783.62 582.21 785.42 581.43 Z" />
<path fill="#8e5f45" opacity="1.00" d=" M 759.49 593.47 C 758.95 590.99 758.88 587.38 761.98 586.65 C 764.84 586.56 766.61 590.55 764.50 592.54 C 763.30 594.06 761.15 594.25 759.49 593.47 Z" />
<path fill="#8e5f45" opacity="1.00" d=" M 721.02 618.43 C 717.10 618.75 717.55 613.00 720.97 612.63 C 724.56 612.63 724.64 618.72 721.02 618.43 Z" />
<path fill="#8e5f45" opacity="1.00" d=" M 665.31 616.43 C 667.30 615.33 670.52 616.36 670.45 618.95 C 670.85 621.82 668.09 625.04 665.07 623.75 C 661.71 622.75 662.72 617.78 665.31 616.43 Z" />
<path fill="#8e5f45" opacity="1.00" d=" M 619.25 644.18 C 623.49 641.20 627.23 649.21 622.94 651.14 C 618.74 653.13 614.81 646.27 619.25 644.18 Z" />
</g>
<g id="#b99c8cff">
<path fill="#b99c8c" opacity="1.00" d=" M 677.24 218.24 C 680.44 216.54 685.89 220.96 683.49 224.49 C 681.40 225.84 677.32 226.52 676.48 223.37 C 676.08 221.75 675.50 219.24 677.24 218.24 Z" />
</g>
<g id="#9f7862ff">
<path fill="#9f7862" opacity="1.00" d=" M 632.38 250.34 C 635.85 248.77 637.70 253.14 637.82 255.90 C 637.78 259.64 631.76 259.73 630.56 256.63 C 628.96 254.44 629.64 251.15 632.38 250.34 Z" />
</g>
<g id="#282828ff">
<path fill="#282828" opacity="1.00" d=" M 407.07 263.85 C 428.17 259.96 449.76 259.65 471.15 258.58 C 490.10 257.87 509.07 257.48 528.04 257.61 C 545.88 257.85 564.53 258.93 580.67 267.33 C 594.16 274.23 603.55 286.94 617.01 293.86 C 627.74 299.37 640.29 297.58 651.66 295.43 C 667.00 292.56 682.12 286.51 697.97 287.91 C 713.07 289.66 725.20 300.13 735.23 310.79 C 747.68 324.39 757.96 339.79 767.67 355.42 C 768.95 359.34 769.26 363.53 769.86 367.61 C 755.26 346.90 740.48 325.19 718.96 311.01 C 709.76 305.05 699.09 300.94 688.03 300.82 C 671.05 300.59 654.87 307.06 637.99 307.79 C 627.97 308.29 618.62 303.77 610.35 298.59 C 599.22 291.61 588.74 283.32 576.36 278.59 C 560.99 272.62 544.36 271.54 528.10 270.12 C 495.63 267.38 462.89 264.94 430.39 268.56 C 419.11 269.73 407.99 271.94 396.86 274.03 C 400.13 270.53 403.23 266.73 407.07 263.85 Z" />
<path fill="#282828" opacity="1.00" d=" M 368.23 309.89 C 372.59 311.01 376.49 313.39 380.36 315.61 C 393.99 323.95 406.70 333.72 418.83 344.10 C 443.12 364.83 462.88 390.10 485.36 412.65 C 496.87 423.77 509.76 433.71 524.18 440.75 C 533.94 445.46 545.46 447.38 555.91 443.77 C 570.14 439.26 582.84 429.80 598.06 428.61 C 609.08 427.83 618.74 434.41 626.76 441.22 C 638.37 450.93 647.86 463.85 662.33 469.59 C 678.16 476.02 696.52 474.09 711.64 466.59 C 724.81 460.01 735.87 450.11 747.94 441.82 C 755.96 436.31 763.86 430.58 772.28 425.70 C 772.09 426.41 771.70 427.83 771.51 428.54 C 759.63 436.79 749.60 447.35 738.19 456.21 C 722.77 468.46 705.81 479.70 686.47 484.48 C 673.56 487.48 659.03 487.61 647.34 480.61 C 637.49 474.64 632.98 463.53 626.27 454.70 C 621.77 448.23 614.83 443.31 606.87 442.44 C 596.07 440.88 585.60 445.14 576.37 450.32 C 561.88 458.39 545.12 464.84 528.30 461.61 C 512.00 458.24 498.96 446.91 487.46 435.52 C 461.00 408.58 437.59 378.79 410.53 352.42 C 396.48 338.37 380.82 326.09 365.14 313.95 C 366.03 312.50 367.07 311.14 368.23 309.89 Z" />
<path fill="#282828" opacity="1.00" d=" M 542.79 324.73 C 549.73 317.05 559.65 311.62 570.13 311.40 C 568.78 313.17 566.42 313.45 564.68 314.67 C 558.05 318.83 554.03 327.12 555.42 334.90 C 556.74 341.78 562.71 348.05 569.98 348.15 C 574.50 348.37 578.60 346.24 582.62 344.46 C 578.12 353.00 570.17 360.25 560.58 362.35 C 559.15 355.81 555.50 349.32 548.96 346.81 C 544.19 344.43 539.14 347.15 534.65 348.86 C 533.18 340.09 536.96 331.18 542.79 324.73 Z" />
<path fill="#282828" opacity="1.00" d=" M 685.93 334.41 C 694.98 344.38 697.56 359.34 694.46 372.20 C 689.60 370.16 684.07 367.02 678.80 369.67 C 673.43 371.37 670.21 376.27 668.45 381.34 C 661.07 375.66 656.51 366.31 656.65 356.99 C 659.98 361.09 664.43 364.67 669.93 364.97 C 677.16 365.93 683.53 360.48 686.07 354.08 C 688.88 347.82 687.83 340.76 685.93 334.41 Z" />
<path fill="#282828" opacity="1.00" d=" M 618.15 390.86 C 623.21 391.82 628.78 393.72 631.54 398.41 C 633.34 401.19 632.24 404.88 629.74 406.82 C 624.62 411.06 616.64 412.90 610.76 409.15 C 605.95 406.08 602.41 401.49 598.67 397.27 C 598.10 396.32 596.75 395.53 597.09 394.28 C 598.04 393.87 599.02 393.53 600.02 393.24 C 600.49 394.93 599.81 397.54 601.98 398.18 C 605.78 399.25 609.82 398.17 613.64 397.58 C 615.72 396.96 618.65 396.59 619.32 394.11 C 618.94 393.02 618.55 391.93 618.15 390.86 Z" />
</g>
<g id="#83acd5ff">
<path fill="#83acd5" opacity="1.00" d=" M 394.27 277.03 C 413.54 272.60 433.23 269.77 453.01 269.18 C 479.70 268.24 506.36 270.51 532.93 272.76 C 542.08 273.58 551.26 274.35 560.26 276.27 C 557.28 285.24 552.39 293.41 549.18 302.30 C 546.94 308.73 542.40 314.65 542.59 321.70 C 536.34 328.03 531.94 336.57 532.12 345.62 C 529.36 351.28 527.50 357.31 525.02 363.10 C 522.59 368.70 522.45 374.89 522.07 380.89 C 520.55 381.46 519.14 382.36 518.70 384.03 C 518.90 386.18 521.26 386.50 522.93 385.81 C 517.70 389.84 520.17 397.01 519.91 402.62 C 519.30 403.38 519.03 404.32 518.82 405.26 C 517.31 410.06 516.13 415.08 513.38 419.38 C 511.48 422.36 509.27 425.13 507.21 428.01 C 494.27 419.09 483.24 407.79 472.72 396.19 C 460.38 382.90 448.43 369.24 435.55 356.47 C 421.84 343.01 406.93 330.80 391.12 319.89 C 384.37 315.36 377.50 310.83 369.85 307.94 C 378.19 297.79 386.06 287.27 394.27 277.03 M 495.80 390.12 C 497.30 393.12 499.25 389.68 499.83 387.99 C 498.85 384.54 494.11 387.31 495.80 390.12 Z" />
</g>
<g id="#b89b8bff">
<path fill="#b89b8b" opacity="1.00" d=" M 711.14 270.30 C 714.03 269.55 719.43 271.05 718.21 274.97 C 716.87 276.94 714.50 279.72 711.85 278.27 C 710.15 276.25 707.40 271.70 711.14 270.30 Z" />
</g>
<g id="#90bee1ff">
<path fill="#90bee1" opacity="1.00" d=" M 560.26 276.27 C 563.10 276.82 565.91 277.53 568.71 278.29 L 568.67 278.39 C 565.56 284.96 562.88 291.75 559.02 297.94 C 556.27 303.40 552.60 308.58 551.52 314.72 C 548.30 316.70 545.22 318.96 542.59 321.70 C 542.40 314.65 546.94 308.73 549.18 302.30 C 552.39 293.41 557.28 285.24 560.26 276.27 Z" />
</g>
<g id="#9dcfedff">
<path fill="#9dcfed" opacity="1.00" d=" M 559.02 297.94 C 562.88 291.75 565.56 284.96 568.67 278.39 C 584.40 282.44 597.09 293.04 610.67 301.38 C 618.88 306.40 628.17 310.48 637.99 310.04 C 652.21 309.41 665.87 304.80 680.00 303.40 C 680.80 307.33 681.86 311.20 682.79 315.10 C 683.96 319.71 683.57 324.49 683.79 329.19 C 680.70 326.93 676.95 325.22 673.03 325.66 C 665.65 326.44 659.72 332.38 657.39 339.20 C 653.54 349.86 652.74 362.42 658.32 372.63 C 662.45 380.39 669.82 386.99 678.78 388.16 C 675.66 390.83 676.04 395.15 675.60 398.84 C 675.31 403.51 673.52 408.24 675.07 412.86 C 675.10 413.39 675.15 414.43 675.18 414.96 C 674.21 416.12 673.14 417.33 673.05 418.93 C 671.60 428.22 670.39 437.54 668.72 446.80 C 667.41 453.92 666.79 461.18 664.93 468.20 C 649.88 462.96 640.20 449.57 628.39 439.68 C 619.92 432.43 609.62 425.57 597.96 426.38 C 581.81 427.55 568.48 437.94 553.23 442.22 C 543.51 445.02 533.11 442.72 524.24 438.30 C 524.86 435.23 525.46 432.15 525.47 429.01 C 525.52 416.00 525.58 402.98 525.53 389.97 C 525.38 385.03 526.71 380.24 527.79 375.47 C 529.66 367.57 530.73 359.49 533.01 351.68 C 534.29 356.80 538.06 361.12 542.93 363.15 C 552.73 367.35 564.59 365.38 573.01 359.01 C 582.41 351.95 588.96 340.76 589.52 328.92 C 589.75 321.29 585.96 312.36 578.04 310.15 C 569.08 307.58 559.38 310.12 551.52 314.72 C 552.60 308.58 556.27 303.40 559.02 297.94 M 561.52 379.69 C 558.69 381.74 563.19 385.25 565.18 383.09 C 566.77 380.97 563.48 378.50 561.52 379.69 M 543.48 389.56 C 540.87 389.85 540.76 394.50 543.87 393.76 C 547.11 393.86 546.62 388.68 543.48 389.56 M 596.98 391.97 C 595.76 392.56 594.18 392.71 593.43 393.98 C 597.61 399.84 602.42 405.44 608.03 410.00 C 614.81 415.51 625.09 413.82 631.36 408.35 C 633.85 406.21 635.42 402.71 634.36 399.45 C 632.87 394.44 628.00 391.38 623.28 389.85 C 614.63 386.99 605.28 388.86 596.98 391.97 M 576.43 395.73 C 573.00 398.09 579.15 401.97 580.66 398.68 C 581.87 396.13 578.44 394.20 576.43 395.73 M 560.59 401.81 C 559.01 402.39 557.73 404.43 558.70 406.03 C 560.43 407.89 563.54 405.90 564.27 403.98 C 563.93 402.37 562.13 401.31 560.59 401.81 M 659.51 401.62 C 658.25 402.08 657.61 403.43 658.49 404.57 C 660.04 405.57 662.36 404.73 663.01 403.02 C 662.79 401.27 660.86 400.78 659.51 401.62 M 643.41 413.36 C 642.97 413.78 642.08 414.63 641.64 415.05 C 641.95 417.37 644.89 417.61 646.52 416.46 C 648.12 414.47 645.18 412.86 643.41 413.36 M 536.25 418.04 C 534.79 419.95 538.27 422.44 539.82 420.88 C 541.06 420.26 540.53 418.73 540.51 417.65 C 539.27 416.58 536.93 416.11 536.25 418.04 M 656.81 421.94 C 656.09 424.32 660.17 427.12 661.84 424.87 C 662.79 421.92 658.88 419.64 656.81 421.94 Z" />
<path fill="#9dcfed" opacity="1.00" d=" M 570.44 314.54 C 574.52 313.84 580.16 311.75 583.05 315.89 C 588.36 322.56 588.38 332.23 584.79 339.66 C 580.18 343.58 574.15 346.79 567.93 345.68 C 561.12 344.14 556.51 336.75 557.47 329.96 C 558.32 322.91 563.45 316.32 570.44 314.54 Z" />
<path fill="#9dcfed" opacity="1.00" d=" M 670.39 328.50 C 672.86 327.69 675.87 327.27 678.02 329.10 C 683.07 331.79 685.00 337.71 685.50 343.07 C 686.19 349.54 683.72 356.50 678.46 360.51 C 671.33 365.94 659.01 361.17 657.99 352.07 C 656.64 342.87 661.13 331.77 670.39 328.50 Z" />
<path fill="#9dcfed" opacity="1.00" d=" M 603.35 392.26 C 606.51 391.36 609.78 390.80 613.07 390.67 C 614.50 391.65 616.19 392.42 617.16 393.94 C 612.82 396.04 607.72 396.54 602.97 396.21 L 602.34 395.71 C 602.46 394.50 602.91 393.37 603.35 392.26 Z" />
</g>
<g id="#eac66aff">
<path fill="#eac66a" opacity="1.00" d=" M 743.59 296.56 C 746.87 295.88 750.20 295.38 753.55 295.19 L 753.64 295.18 C 755.09 300.01 756.51 304.84 757.79 309.72 C 751.99 310.72 746.16 311.58 740.53 313.32 C 735.90 308.03 730.93 303.03 725.56 298.50 C 731.57 297.87 737.66 297.82 743.59 296.56 Z" />
</g>
<g id="#b2d9f1ff">
<path fill="#b2d9f1" opacity="1.00" d=" M 680.00 303.40 C 683.45 303.08 686.92 302.95 690.39 303.08 L 690.36 303.19 C 688.85 306.79 690.10 310.68 690.50 314.38 C 691.74 322.27 692.52 330.28 691.72 338.27 C 689.60 334.83 687.01 331.65 683.79 329.19 C 683.57 324.49 683.96 319.71 682.79 315.10 C 681.86 311.20 680.80 307.33 680.00 303.40 Z" />
</g>
<g id="#c2e1f4ff">
<path fill="#c2e1f4" opacity="1.00" d=" M 690.50 314.38 C 690.10 310.68 688.85 306.79 690.36 303.19 C 707.13 304.18 721.72 314.22 733.47 325.53 C 747.87 339.78 759.82 356.30 770.57 373.42 C 772.40 386.85 773.74 400.40 773.64 413.98 C 773.47 416.84 773.63 419.80 772.79 422.57 C 756.44 432.71 740.88 444.06 725.45 455.53 C 712.44 465.20 696.64 472.17 680.14 471.19 C 681.89 458.48 683.68 445.77 684.87 432.99 C 686.50 422.65 684.61 412.09 686.63 401.79 C 687.70 396.81 687.62 391.72 687.71 386.66 C 692.39 383.85 694.97 378.68 696.41 373.61 C 699.61 361.84 697.78 348.83 691.72 338.27 C 692.52 330.28 691.74 322.27 690.50 314.38 M 697.58 405.56 C 694.96 407.79 698.22 412.02 701.05 410.09 C 703.11 407.96 700.10 403.75 697.58 405.56 M 719.18 414.88 C 719.64 416.15 719.59 417.87 721.00 418.58 C 722.84 417.54 723.68 414.39 721.96 412.91 C 720.71 411.87 718.54 413.34 719.18 414.88 M 694.78 427.86 C 692.98 429.91 696.28 432.96 698.24 431.30 C 700.04 429.19 696.91 426.19 694.78 427.86 Z" />
</g>
<g id="#010000ff">
<path fill="#010000" opacity="1.00" d=" M 551.52 314.72 C 559.38 310.12 569.08 307.58 578.04 310.15 C 585.96 312.36 589.75 321.29 589.52 328.92 C 588.96 340.76 582.41 351.95 573.01 359.01 C 564.59 365.38 552.73 367.35 542.93 363.15 C 538.06 361.12 534.29 356.80 533.01 351.68 C 532.53 349.69 532.21 347.66 532.12 345.62 C 531.94 336.57 536.34 328.03 542.59 321.70 C 545.22 318.96 548.30 316.70 551.52 314.72 M 542.79 324.73 C 536.96 331.18 533.18 340.09 534.65 348.86 C 535.41 352.88 537.22 356.93 540.68 359.32 C 546.39 363.34 553.92 363.84 560.58 362.35 C 570.17 360.25 578.12 353.00 582.62 344.46 C 578.60 346.24 574.50 348.37 569.98 348.15 C 562.71 348.05 556.74 341.78 555.42 334.90 C 554.03 327.12 558.05 318.83 564.68 314.67 C 566.42 313.45 568.78 313.17 570.13 311.40 C 559.65 311.62 549.73 317.05 542.79 324.73 M 570.44 314.54 C 563.45 316.32 558.32 322.91 557.47 329.96 C 556.51 336.75 561.12 344.14 567.93 345.68 C 574.15 346.79 580.18 343.58 584.79 339.66 C 588.38 332.23 588.36 322.56 583.05 315.89 C 580.16 311.75 574.52 313.84 570.44 314.54 Z" />
<path fill="#010000" opacity="1.00" d=" M 657.39 339.20 C 659.72 332.38 665.65 326.44 673.03 325.66 C 676.95 325.22 680.70 326.93 683.79 329.19 C 687.01 331.65 689.60 334.83 691.72 338.27 C 697.78 348.83 699.61 361.84 696.41 373.61 C 694.97 378.68 692.39 383.85 687.71 386.66 C 684.96 388.05 681.82 388.54 678.78 388.16 C 669.82 386.99 662.45 380.39 658.32 372.63 C 652.74 362.42 653.54 349.86 657.39 339.20 M 670.39 328.50 C 661.13 331.77 656.64 342.87 657.99 352.07 C 659.01 361.17 671.33 365.94 678.46 360.51 C 683.72 356.50 686.19 349.54 685.50 343.07 C 685.00 337.71 683.07 331.79 678.02 329.10 C 675.87 327.27 672.86 327.69 670.39 328.50 M 685.93 334.41 C 687.83 340.76 688.88 347.82 686.07 354.08 C 683.53 360.48 677.16 365.93 669.93 364.97 C 664.43 364.67 659.98 361.09 656.65 356.99 C 656.51 366.31 661.07 375.66 668.45 381.34 C 673.08 384.99 679.47 387.28 685.29 385.30 C 690.57 383.12 693.09 377.39 694.46 372.20 C 697.56 359.34 694.98 344.38 685.93 334.41 Z" />
<path fill="#010000" opacity="1.00" d=" M 596.98 391.97 C 605.28 388.86 614.63 386.99 623.28 389.85 C 628.00 391.38 632.87 394.44 634.36 399.45 C 635.42 402.71 633.85 406.21 631.36 408.35 C 625.09 413.82 614.81 415.51 608.03 410.00 C 602.42 405.44 597.61 399.84 593.43 393.98 C 594.18 392.71 595.76 392.56 596.98 391.97 M 603.35 392.26 C 602.91 393.37 602.46 394.50 602.34 395.71 L 602.97 396.21 C 607.72 396.54 612.82 396.04 617.16 393.94 C 616.19 392.42 614.50 391.65 613.07 390.67 C 609.78 390.80 606.51 391.36 603.35 392.26 M 618.15 390.86 C 618.55 391.93 618.94 393.02 619.32 394.11 C 618.65 396.59 615.72 396.96 613.64 397.58 C 609.82 398.17 605.78 399.25 601.98 398.18 C 599.81 397.54 600.49 394.93 600.02 393.24 C 599.02 393.53 598.04 393.87 597.09 394.28 C 596.75 395.53 598.10 396.32 598.67 397.27 C 602.41 401.49 605.95 406.08 610.76 409.15 C 616.64 412.90 624.62 411.06 629.74 406.82 C 632.24 404.88 633.34 401.19 631.54 398.41 C 628.78 393.72 623.21 391.82 618.15 390.86 Z" />
</g>
<g id="#e6bb4dff">
<path fill="#e6bb4d" opacity="1.00" d=" M 740.53 313.32 C 746.16 311.58 751.99 310.72 757.79 309.72 C 758.91 313.58 759.85 317.49 760.80 321.40 C 757.30 323.00 753.60 324.12 749.84 324.92 C 746.84 320.97 743.71 317.13 740.53 313.32 Z" />
</g>
<g id="#e3b134ff">
<path fill="#e3b134" opacity="1.00" d=" M 760.80 321.40 C 763.18 330.91 765.20 340.50 766.98 350.13 C 761.64 341.48 755.83 333.13 749.84 324.92 C 753.60 324.12 757.30 323.00 760.80 321.40 Z" />
</g>
<g id="#8cb8ddff">
<path fill="#8cb8dd" opacity="1.00" d=" M 525.02 363.10 C 527.50 357.31 529.36 351.28 532.12 345.62 C 532.21 347.66 532.53 349.69 533.01 351.68 C 530.73 359.49 529.66 367.57 527.79 375.47 C 526.71 380.24 525.38 385.03 525.53 389.97 C 525.58 402.98 525.52 416.00 525.47 429.01 C 525.46 432.15 524.86 435.23 524.24 438.30 C 518.22 435.49 512.65 431.80 507.21 428.01 C 509.27 425.13 511.48 422.36 513.38 419.38 C 516.13 415.08 517.31 410.06 518.82 405.26 C 520.20 407.41 524.64 406.08 523.58 403.38 C 522.85 402.03 521.12 402.30 519.91 402.62 C 520.17 397.01 517.70 389.84 522.93 385.81 C 524.89 384.54 524.68 381.16 522.07 380.89 C 522.45 374.89 522.59 368.70 525.02 363.10 Z" />
</g>
<g id="#3b3a36ff">
<path fill="#3b3a36" opacity="1.00" d=" M 534.65 348.86 C 539.14 347.15 544.19 344.43 548.96 346.81 C 555.50 349.32 559.15 355.81 560.58 362.35 C 553.92 363.84 546.39 363.34 540.68 359.32 C 537.22 356.93 535.41 352.88 534.65 348.86 Z" />
</g>
<g id="#3b3936ff">
<path fill="#3b3936" opacity="1.00" d=" M 678.80 369.67 C 684.07 367.02 689.60 370.16 694.46 372.20 C 693.09 377.39 690.57 383.12 685.29 385.30 C 679.47 387.28 673.08 384.99 668.45 381.34 C 670.21 376.27 673.43 371.37 678.80 369.67 Z" />
</g>
<g id="#a4d2eeff">
<path fill="#a4d2ee" opacity="1.00" d=" M 678.78 388.16 C 681.82 388.54 684.96 388.05 687.71 386.66 C 687.62 391.72 687.70 396.81 686.63 401.79 C 684.61 412.09 686.50 422.65 684.87 432.99 C 683.68 445.77 681.89 458.48 680.14 471.19 C 674.95 470.97 669.81 469.95 664.93 468.20 C 666.79 461.18 667.41 453.92 668.72 446.80 C 670.39 437.54 671.60 428.22 673.05 418.93 C 673.14 417.33 674.21 416.12 675.18 414.96 C 676.28 416.00 678.24 416.62 679.29 415.17 C 679.87 413.59 678.68 411.88 677.03 411.70 C 676.54 411.99 675.56 412.57 675.07 412.86 C 673.52 408.24 675.31 403.51 675.60 398.84 C 676.04 395.15 675.66 390.83 678.78 388.16 M 676.66 439.52 C 676.75 440.62 676.06 442.03 677.12 442.86 C 678.60 444.79 681.99 442.54 680.63 440.40 C 679.99 438.56 678.04 438.99 676.66 439.52 Z" />
</g>
<g id="#616161ff">
<path fill="#616161" opacity="1.00" d=" M 697.58 405.56 C 700.10 403.75 703.11 407.96 701.05 410.09 C 698.22 412.02 694.96 407.79 697.58 405.56 Z" />
<path fill="#616161" opacity="1.00" d=" M 719.18 414.88 C 718.54 413.34 720.71 411.87 721.96 412.91 C 723.68 414.39 722.84 417.54 721.00 418.58 C 719.59 417.87 719.64 416.15 719.18 414.88 Z" />
<path fill="#616161" opacity="1.00" d=" M 694.78 427.86 C 696.91 426.19 700.04 429.19 698.24 431.30 C 696.28 432.96 692.98 429.91 694.78 427.86 Z" />
</g>
<g id="#0f0f0fff">
<path fill="#0f0f0f" opacity="1.00" d=" M 675.07 412.86 C 675.56 412.57 676.54 411.99 677.03 411.70 C 678.68 411.88 679.87 413.59 679.29 415.17 C 678.24 416.62 676.28 416.00 675.18 414.96 C 675.15 414.43 675.10 413.39 675.07 412.86 Z" />
</g>
<g id="#d29d29ff">
<path fill="#d29d29" opacity="1.00" d=" M 220.77 465.56 C 218.22 455.82 221.20 445.28 227.02 437.28 C 231.25 440.76 236.33 443.02 240.50 446.59 C 244.75 450.29 248.81 454.23 252.54 458.46 C 255.22 461.44 256.95 465.53 260.81 467.24 C 259.46 468.58 257.65 470.35 258.50 472.46 C 259.54 474.91 262.38 475.22 264.69 474.82 C 268.24 479.86 271.56 485.06 275.09 490.11 C 263.71 492.63 251.41 492.18 240.65 487.44 C 231.40 483.35 223.50 475.45 220.77 465.56 Z" />
</g>
<g id="#1a1a1aff">
<path fill="#1a1a1a" opacity="1.00" d=" M 676.66 439.52 C 678.04 438.99 679.99 438.56 680.63 440.40 C 681.99 442.54 678.60 444.79 677.12 442.86 C 676.06 442.03 676.75 440.62 676.66 439.52 Z" />
</g>
<g id="#8b5c42ff">
<path fill="#8b5c42" opacity="1.00" d=" M 260.81 467.24 C 262.67 467.15 264.95 467.40 265.78 469.36 C 267.08 471.21 265.62 473.20 264.69 474.82 C 262.38 475.22 259.54 474.91 258.50 472.46 C 257.65 470.35 259.46 468.58 260.81 467.24 Z" />
</g>
<g id="#d39f2aff">
<path fill="#d39f2a" opacity="1.00" d=" M 281.86 499.59 C 290.49 511.10 298.95 522.76 307.85 534.07 C 318.30 546.45 331.87 555.53 344.08 566.00 C 350.82 571.19 356.64 577.42 363.07 582.96 C 374.21 594.06 386.99 603.33 400.01 612.09 C 412.57 621.11 426.99 627.43 442.00 631.08 C 460.99 636.18 480.50 638.91 499.99 641.23 C 533.92 645.75 567.69 652.27 601.98 653.20 C 617.98 653.19 633.99 653.18 650.00 653.22 C 655.03 653.16 660.23 653.73 665.12 652.18 C 674.49 648.81 683.24 643.97 691.77 638.85 C 703.85 632.48 715.02 624.41 727.55 618.88 C 726.89 620.60 726.09 622.28 725.29 623.95 C 716.76 627.34 709.40 632.88 701.69 637.73 C 694.06 642.23 686.27 646.44 678.46 650.60 C 675.23 652.35 671.63 653.29 667.98 653.54 C 660.41 653.98 653.83 658.22 646.47 659.58 C 633.20 662.78 619.49 660.46 606.05 661.93 C 600.04 662.61 594.00 662.19 587.98 662.40 C 581.31 662.54 574.68 663.76 568.01 663.16 C 550.80 661.76 533.47 661.43 516.39 658.71 C 495.67 653.78 475.67 646.20 454.98 641.15 C 442.55 637.81 429.65 636.13 417.64 631.37 C 391.99 621.64 369.09 606.30 345.50 592.58 C 340.03 589.50 336.54 584.11 332.68 579.35 C 320.07 562.49 308.56 544.83 295.88 528.02 C 290.49 521.01 286.15 513.24 280.42 506.49 C 280.81 504.17 281.29 501.87 281.86 499.59 M 496.28 644.25 C 493.15 646.12 494.26 651.83 498.09 651.94 C 501.31 652.52 502.41 648.52 501.86 646.08 C 500.96 644.04 498.19 643.74 496.28 644.25 Z" />
</g>
<g id="#c28c24ff">
<path fill="#c28c24" opacity="1.00" d=" M 280.42 506.49 C 286.15 513.24 290.49 521.01 295.88 528.02 C 308.56 544.83 320.07 562.49 332.68 579.35 C 336.54 584.11 340.03 589.50 345.50 592.58 C 369.09 606.30 391.99 621.64 417.64 631.37 C 429.65 636.13 442.55 637.81 454.98 641.15 C 475.67 646.20 495.67 653.78 516.39 658.71 C 533.47 661.43 550.80 661.76 568.01 663.16 C 574.68 663.76 581.31 662.54 587.98 662.40 C 594.00 662.19 600.04 662.61 606.05 661.93 C 619.49 660.46 633.20 662.78 646.47 659.58 C 653.83 658.22 660.41 653.98 667.98 653.54 C 671.63 653.29 675.23 652.35 678.46 650.60 C 686.27 646.44 694.06 642.23 701.69 637.73 C 709.40 632.88 716.76 627.34 725.29 623.95 C 721.28 632.93 716.74 641.69 711.66 650.12 C 703.15 652.23 694.76 655.03 686.02 656.02 C 679.56 656.86 673.10 657.67 666.66 658.58 C 658.38 659.78 651.13 664.19 643.63 667.58 C 637.48 670.45 630.60 670.89 623.97 671.70 C 603.05 674.18 582.04 676.32 560.96 676.15 C 545.98 676.43 531.00 675.39 516.02 676.03 C 500.36 674.67 484.64 675.58 468.96 674.89 C 458.90 675.33 449.83 670.35 440.53 667.30 C 442.60 665.95 444.42 663.84 443.70 661.19 C 443.58 657.83 438.04 656.72 436.97 660.08 C 436.32 661.57 435.78 663.12 435.11 664.62 C 426.34 661.59 417.88 657.59 409.58 653.45 C 399.74 648.29 391.18 641.16 382.10 634.85 C 375.98 630.62 371.00 625.05 365.18 620.47 C 366.07 617.91 366.08 614.43 362.78 613.73 C 356.45 611.21 353.81 604.45 348.85 600.27 C 345.77 597.65 342.53 595.21 339.59 592.43 C 331.51 584.81 321.60 579.60 311.94 574.30 C 308.03 572.11 303.67 570.64 300.13 567.84 C 296.69 564.14 294.67 559.40 292.28 555.01 C 292.02 553.24 291.89 551.44 291.30 549.74 C 290.31 549.47 289.31 549.25 288.30 549.08 C 285.39 543.24 281.92 537.56 276.84 533.35 C 277.45 524.33 278.56 515.34 280.42 506.49 Z" />
</g>
<g id="#b47d1fff">
<path fill="#b47d1f" opacity="1.00" d=" M 276.84 533.35 C 281.92 537.56 285.39 543.24 288.30 549.08 C 287.18 550.85 285.49 552.96 286.83 555.10 C 288.43 556.65 290.52 555.58 292.28 555.01 C 294.67 559.40 296.69 564.14 300.13 567.84 C 303.67 570.64 308.03 572.11 311.94 574.30 C 321.60 579.60 331.51 584.81 339.59 592.43 C 342.53 595.21 345.77 597.65 348.85 600.27 C 353.81 604.45 356.45 611.21 362.78 613.73 C 361.43 614.27 359.67 614.57 359.08 616.12 C 357.89 618.31 359.37 620.74 360.54 622.61 C 361.11 622.70 362.25 622.88 362.82 622.98 C 363.72 622.25 364.50 621.42 365.18 620.47 C 371.00 625.05 375.98 630.62 382.10 634.85 C 391.18 641.16 399.74 648.29 409.58 653.45 C 417.88 657.59 426.34 661.59 435.11 664.62 C 435.78 663.12 436.32 661.57 436.97 660.08 C 436.72 661.69 436.49 663.35 436.76 664.99 C 437.22 666.71 439.14 666.77 440.53 667.30 C 449.83 670.35 458.90 675.33 468.96 674.89 C 484.64 675.58 500.36 674.67 516.02 676.03 C 531.00 675.39 545.98 676.43 560.96 676.15 C 582.04 676.32 603.05 674.18 623.97 671.70 C 630.60 670.89 637.48 670.45 643.63 667.58 C 651.13 664.19 658.38 659.78 666.66 658.58 C 673.10 657.67 679.56 656.86 686.02 656.02 C 694.76 655.03 703.15 652.23 711.66 650.12 C 710.05 653.06 708.19 655.88 706.35 658.69 C 700.10 659.92 694.51 663.28 688.20 664.27 C 678.43 665.93 669.16 669.59 659.42 671.37 C 651.83 672.66 644.83 676.16 637.21 677.27 C 627.67 678.66 618.13 680.15 608.81 682.64 C 596.15 686.12 583.15 688.82 569.98 688.92 C 562.66 690.03 555.32 687.87 548.04 689.28 C 533.47 691.30 519.37 685.49 504.85 685.56 C 496.53 685.90 488.31 684.25 479.99 684.66 C 464.89 684.00 449.95 681.42 435.08 678.86 C 428.86 677.82 423.14 675.06 417.43 672.53 C 413.15 670.37 409.09 667.70 404.39 666.53 C 400.53 665.52 397.21 663.30 394.00 661.03 C 389.21 657.63 383.49 655.80 378.88 652.14 C 375.11 649.20 371.54 645.96 367.28 643.73 C 363.38 641.66 359.37 639.77 355.83 637.10 C 349.39 632.18 341.69 628.92 336.22 622.78 C 327.17 613.05 318.35 603.05 311.44 591.65 C 306.41 584.05 300.48 577.10 295.39 569.54 C 291.28 563.05 283.83 560.20 277.31 556.81 C 276.47 549.02 276.35 541.16 276.84 533.35 M 561.32 677.24 C 560.00 677.92 559.30 679.45 559.71 680.90 C 560.03 682.64 559.89 685.44 562.18 685.81 C 565.05 686.60 567.94 683.89 567.46 680.98 C 567.64 678.00 563.83 675.73 561.32 677.24 Z" />
</g>
<g id="#71442eff">
<path fill="#71442e" opacity="1.00" d=" M 288.30 549.08 C 289.31 549.25 290.31 549.47 291.30 549.74 C 291.89 551.44 292.02 553.24 292.28 555.01 C 290.52 555.58 288.43 556.65 286.83 555.10 C 285.49 552.96 287.18 550.85 288.30 549.08 Z" />
</g>
<g id="#a16819ff">
<path fill="#a16819" opacity="1.00" d=" M 277.31 556.81 C 283.83 560.20 291.28 563.05 295.39 569.54 C 300.48 577.10 306.41 584.05 311.44 591.65 C 318.35 603.05 327.17 613.05 336.22 622.78 C 341.69 628.92 349.39 632.18 355.83 637.10 C 359.37 639.77 363.38 641.66 367.28 643.73 C 371.54 645.96 375.11 649.20 378.88 652.14 C 383.49 655.80 389.21 657.63 394.00 661.03 C 397.21 663.30 400.53 665.52 404.39 666.53 C 409.09 667.70 413.15 670.37 417.43 672.53 C 423.14 675.06 428.86 677.82 435.08 678.86 C 449.95 681.42 464.89 684.00 479.99 684.66 C 488.31 684.25 496.53 685.90 504.85 685.56 C 519.37 685.49 533.47 691.30 548.04 689.28 C 555.32 687.87 562.66 690.03 569.98 688.92 C 583.15 688.82 596.15 686.12 608.81 682.64 C 618.13 680.15 627.67 678.66 637.21 677.27 C 644.83 676.16 651.83 672.66 659.42 671.37 C 669.16 669.59 678.43 665.93 688.20 664.27 C 694.51 663.28 700.10 659.92 706.35 658.69 C 692.01 681.30 672.77 701.12 649.41 714.45 C 614.28 734.75 573.25 742.60 533.04 743.34 C 486.94 744.05 440.35 735.17 398.69 715.10 C 365.02 698.75 334.55 675.08 312.15 644.94 C 293.19 619.28 280.28 588.69 277.31 556.81 M 314.39 611.45 C 311.90 611.20 310.42 613.79 310.86 616.02 C 310.75 619.71 315.81 622.12 318.55 619.47 C 321.33 616.44 319.06 610.07 314.39 611.45 M 395.33 668.43 C 393.13 669.06 391.81 671.63 393.34 673.61 C 394.50 676.98 400.26 676.50 400.70 672.90 C 401.41 669.92 398.12 667.32 395.33 668.43 M 674.25 676.58 C 672.14 676.68 670.83 679.18 671.88 681.01 C 672.65 682.80 675.52 683.30 676.71 681.73 C 678.47 679.94 677.02 675.86 674.25 676.58 M 613.44 703.47 C 612.03 704.82 611.41 707.53 613.12 708.90 C 614.94 710.62 618.58 709.51 618.68 706.84 C 619.41 704.03 615.65 701.03 613.44 703.47 M 511.45 717.44 C 509.60 718.91 509.01 722.18 511.33 723.50 C 513.75 725.45 517.52 722.89 516.87 719.93 C 516.95 717.23 513.40 715.37 511.45 717.44 Z" />
</g>
<g id="#663925ff">
<path fill="#663925" opacity="1.00" d=" M 314.39 611.45 C 319.06 610.07 321.33 616.44 318.55 619.47 C 315.81 622.12 310.75 619.71 310.86 616.02 C 310.42 613.79 311.90 611.20 314.39 611.45 Z" />
<path fill="#663925" opacity="1.00" d=" M 395.33 668.43 C 398.12 667.32 401.41 669.92 400.70 672.90 C 400.26 676.50 394.50 676.98 393.34 673.61 C 391.81 671.63 393.13 669.06 395.33 668.43 Z" />
<path fill="#663925" opacity="1.00" d=" M 674.25 676.58 C 677.02 675.86 678.47 679.94 676.71 681.73 C 675.52 683.30 672.65 682.80 671.88 681.01 C 670.83 679.18 672.14 676.68 674.25 676.58 Z" />
</g>
<g id="#754731ff">
<path fill="#754731" opacity="1.00" d=" M 359.08 616.12 C 359.67 614.57 361.43 614.27 362.78 613.73 C 366.08 614.43 366.07 617.91 365.18 620.47 C 364.50 621.42 363.72 622.25 362.82 622.98 C 362.25 622.88 361.11 622.70 360.54 622.61 C 359.37 620.74 357.89 618.31 359.08 616.12 Z" />
</g>
<g id="#85563eff">
<path fill="#85563e" opacity="1.00" d=" M 496.28 644.25 C 498.19 643.74 500.96 644.04 501.86 646.08 C 502.41 648.52 501.31 652.52 498.09 651.94 C 494.26 651.83 493.15 646.12 496.28 644.25 Z" />
</g>
<g id="#774933ff">
<path fill="#774933" opacity="1.00" d=" M 436.97 660.08 C 438.04 656.72 443.58 657.83 443.70 661.19 C 444.42 663.84 442.60 665.95 440.53 667.30 C 439.14 666.77 437.22 666.71 436.76 664.99 C 436.49 663.35 436.72 661.69 436.97 660.08 Z" />
</g>
<g id="#71432eff">
<path fill="#71432e" opacity="1.00" d=" M 561.32 677.24 C 563.83 675.73 567.64 678.00 567.46 680.98 C 567.94 683.89 565.05 686.60 562.18 685.81 C 559.89 685.44 560.03 682.64 559.71 680.90 C 559.30 679.45 560.00 677.92 561.32 677.24 Z" />
</g>
<g id="#383e43ff">
<path fill="#383e43" opacity="1.00" d=" M 351.09 688.03 C 373.75 705.82 399.46 719.58 426.63 729.12 C 422.14 746.86 416.85 764.39 411.53 781.90 L 411.00 781.89 C 401.32 781.54 391.87 779.04 382.62 776.35 C 375.15 773.71 367.27 771.80 360.62 767.33 C 356.38 764.70 352.22 761.86 348.83 758.16 C 342.95 751.65 334.31 748.21 329.18 740.95 C 325.19 735.06 319.78 730.34 315.58 724.61 C 326.81 711.86 338.67 699.62 351.09 688.03 Z" />
<path fill="#383e43" opacity="1.00" d=" M 499.51 744.44 C 524.94 746.56 550.61 745.81 575.84 741.97 C 583.25 759.64 589.75 777.79 594.22 796.44 C 590.07 799.90 586.08 803.65 581.28 806.22 C 572.72 810.79 563.62 814.27 554.34 817.10 C 553.55 817.16 552.76 817.20 551.98 817.21 C 546.93 817.13 542.05 818.86 536.99 818.63 C 530.13 818.45 523.11 819.24 516.42 817.39 C 507.30 815.12 499.74 809.10 490.73 806.54 C 492.14 785.67 495.10 764.88 499.51 744.44 Z" />
</g>
<g id="#653824ff">
<path fill="#653824" opacity="1.00" d=" M 613.44 703.47 C 615.65 701.03 619.41 704.03 618.68 706.84 C 618.58 709.51 614.94 710.62 613.12 708.90 C 611.41 707.53 612.03 704.82 613.44 703.47 Z" />
<path fill="#653824" opacity="1.00" d=" M 511.45 717.44 C 513.40 715.37 516.95 717.23 516.87 719.93 C 517.52 722.89 513.75 725.45 511.33 723.50 C 509.01 722.18 509.60 718.91 511.45 717.44 Z" />
</g>
<g id="#464d54ff">
<path fill="#464d54" opacity="1.00" d=" M 309.56 731.35 C 311.48 729.03 313.53 726.82 315.58 724.61 C 319.78 730.34 325.19 735.06 329.18 740.95 C 334.31 748.21 342.95 751.65 348.83 758.16 C 352.22 761.86 356.38 764.70 360.62 767.33 C 367.27 771.80 375.15 773.71 382.62 776.35 C 391.87 779.04 401.32 781.54 411.00 781.89 C 410.90 784.57 409.77 787.08 408.98 789.62 L 408.90 789.59 C 404.12 787.27 398.73 787.33 393.63 786.29 C 386.45 784.87 379.12 784.04 372.13 781.80 C 364.85 779.62 358.10 776.08 351.41 772.56 C 345.28 769.33 340.39 764.27 336.09 758.94 C 332.10 753.83 326.20 750.84 321.58 746.42 C 316.72 742.15 313.69 736.34 309.60 731.41 L 309.56 731.35 Z" />
</g>
<g id="#525b63ff">
<path fill="#525b63" opacity="1.00" d=" M 309.60 731.41 C 313.69 736.34 316.72 742.15 321.58 746.42 C 326.20 750.84 332.10 753.83 336.09 758.94 C 340.39 764.27 345.28 769.33 351.41 772.56 C 358.10 776.08 364.85 779.62 372.13 781.80 C 379.12 784.04 386.45 784.87 393.63 786.29 C 398.73 787.33 404.12 787.27 408.90 789.59 C 407.15 795.23 405.31 800.86 403.30 806.42 C 385.73 800.30 369.78 790.20 355.01 779.02 C 348.80 774.61 343.81 768.72 337.42 764.56 C 331.67 760.79 327.07 755.62 322.22 750.81 C 316.85 745.46 313.08 738.80 308.05 733.16 C 308.43 732.73 309.21 731.85 309.60 731.41 Z" />
</g>
<g id="#5b646dff">
<path fill="#5b646d" opacity="1.00" d=" M 238.53 840.55 C 256.50 801.72 279.96 765.44 308.05 733.16 C 313.08 738.80 316.85 745.46 322.22 750.81 C 327.07 755.62 331.67 760.79 337.42 764.56 C 343.81 768.72 348.80 774.61 355.01 779.02 C 369.78 790.20 385.73 800.30 403.30 806.42 C 392.08 839.28 378.72 871.50 361.99 901.96 C 357.94 909.10 353.78 916.23 348.66 922.67 C 346.77 924.92 344.80 927.39 341.92 928.38 C 341.33 924.57 342.29 920.77 342.91 917.04 C 346.33 900.19 351.55 883.79 356.38 867.32 C 366.32 848.78 375.37 829.77 383.40 810.33 C 383.94 809.38 384.05 808.40 383.74 807.38 C 383.39 807.39 382.69 807.40 382.34 807.41 C 368.26 840.57 352.44 873.22 332.20 903.12 C 326.43 911.24 320.63 919.66 312.65 925.78 C 312.54 921.10 313.92 916.56 314.97 912.05 C 320.58 890.76 327.92 869.98 334.97 849.14 C 343.21 834.26 351.91 819.63 360.36 804.87 L 360.17 803.86 L 358.95 803.44 C 340.54 833.17 324.61 864.42 306.24 894.20 C 300.73 902.83 295.11 911.51 287.93 918.86 C 285.04 921.60 281.84 924.62 277.73 925.16 C 277.10 921.02 278.77 917.00 279.85 913.08 C 285.11 897.24 291.99 881.99 298.80 866.77 C 309.91 842.25 321.75 818.07 333.69 793.96 C 333.52 793.52 333.19 792.66 333.02 792.23 C 332.66 792.51 331.94 793.07 331.58 793.35 C 322.54 811.20 313.95 829.28 305.25 847.29 C 296.44 859.69 287.18 871.77 277.56 883.56 C 272.29 889.90 266.98 896.26 260.86 901.82 C 259.11 903.26 257.34 904.99 254.98 905.28 C 253.61 900.95 255.17 896.44 256.09 892.18 C 260.34 876.71 266.75 861.94 273.44 847.40 C 284.80 822.98 298.41 799.69 312.63 776.85 L 312.53 775.59 L 311.07 775.41 C 301.89 789.34 293.85 803.99 285.39 818.37 C 275.51 834.19 264.95 849.64 252.87 863.88 C 246.66 871.00 240.15 878.07 232.16 883.21 C 230.25 884.29 228.26 885.71 225.96 885.48 C 224.14 882.81 225.21 879.35 225.58 876.40 C 228.26 863.93 233.34 852.14 238.53 840.55 Z" />
<path fill="#5b646d" opacity="1.00" d=" M 577.35 818.29 C 584.52 816.03 590.59 811.47 596.92 807.58 C 601.19 826.50 604.04 845.73 606.08 865.02 C 607.56 879.62 608.74 894.30 608.33 909.00 C 608.11 913.16 607.88 917.39 606.67 921.41 C 602.51 917.55 600.22 912.10 597.74 907.10 C 598.74 877.75 593.31 848.51 584.34 820.65 C 583.73 818.34 581.26 820.28 582.43 821.87 C 590.80 848.38 596.21 876.08 595.58 903.99 C 595.32 915.66 594.54 927.36 592.32 938.85 C 591.62 941.83 591.18 945.00 589.55 947.67 C 583.59 940.02 580.83 930.47 578.99 921.10 C 581.48 888.10 578.06 854.86 570.37 822.73 C 571.42 819.75 574.78 819.32 577.35 818.29 Z" />
<path fill="#5b646d" opacity="1.00" d=" M 490.00 819.17 C 496.06 820.83 501.94 823.11 507.99 824.82 C 522.70 827.64 538.00 827.47 552.60 824.08 C 555.40 858.98 556.35 894.22 551.96 929.03 C 550.47 938.22 549.41 947.90 544.65 956.09 C 542.02 955.28 541.37 952.08 540.11 949.95 C 534.09 935.46 530.30 920.15 526.63 904.94 C 527.97 884.96 528.97 864.95 529.36 844.93 C 529.22 839.92 530.13 834.81 529.22 829.88 C 528.78 830.03 527.89 830.34 527.45 830.49 C 527.10 850.02 526.56 869.55 525.40 889.05 C 524.37 905.38 523.26 921.75 520.37 937.88 C 519.30 942.78 518.52 947.94 515.83 952.27 C 513.20 951.26 512.16 948.33 510.82 946.09 C 505.55 935.32 502.34 923.69 499.38 912.11 C 491.99 881.76 488.52 850.39 490.00 819.17 Z" />
<path fill="#5b646d" opacity="1.00" d=" M 554.81 823.27 C 559.05 822.79 563.27 822.16 567.45 821.31 L 567.79 821.26 C 571.72 838.30 574.90 855.55 576.45 872.98 C 578.09 892.56 577.90 912.30 575.76 931.83 C 574.55 940.87 573.65 950.20 569.90 958.61 C 567.49 956.66 566.38 953.65 565.04 950.96 C 561.05 941.87 557.91 932.43 555.05 922.94 C 558.31 889.81 557.49 856.42 554.81 823.27 Z" />
</g>
<g id="#4f565eff">
<path fill="#4f565e" opacity="1.00" d=" M 581.28 806.22 C 586.08 803.65 590.07 799.90 594.22 796.44 C 595.17 800.13 596.19 803.82 596.92 807.58 C 590.59 811.47 584.52 816.03 577.35 818.29 C 574.78 819.32 571.42 819.75 570.37 822.73 C 569.55 819.94 569.31 816.97 568.10 814.32 C 567.65 814.45 566.77 814.70 566.32 814.83 C 566.36 817.04 567.77 819.10 567.45 821.31 C 563.27 822.16 559.05 822.79 554.81 823.27 C 554.59 821.21 554.44 819.15 554.34 817.10 C 563.62 814.27 572.72 810.79 581.28 806.22 Z" />
</g>
<g id="#4a5158ff">
<path fill="#4a5158" opacity="1.00" d=" M 490.73 806.54 C 499.74 809.10 507.30 815.12 516.42 817.39 C 523.11 819.24 530.13 818.45 536.99 818.63 C 542.05 818.86 546.93 817.13 551.98 817.21 C 552.28 819.48 552.50 821.78 552.60 824.08 C 538.00 827.47 522.70 827.64 507.99 824.82 C 501.94 823.11 496.06 820.83 490.00 819.17 C 489.99 814.95 490.48 810.74 490.73 806.54 Z" />
</g>
</svg>
